<?xml version="1.0" encoding="utf-8"?>
<!-- Generator: Adobe Illustrator 19.0.0, SVG Export Plug-In . SVG Version: 6.00 Build 0)  -->
<svg version="1.1" id="Layer_1" xmlns="http://www.w3.org/2000/svg" xmlns:xlink="http://www.w3.org/1999/xlink" x="0px" y="0px"
	 viewBox="524 -205 728 510" style="enable-background:new 524 -205 728 510;" xml:space="preserve">
<style type="text/css">
	.st0{fill:#FFFFFF;}
	.st1{clip-path:url(#SVGID_2_);fill:#FFFFFF;}
	.st2{clip-path:url(#SVGID_4_);fill:none;stroke:#0D46AA;stroke-width:4;}
	.st3{clip-path:url(#SVGID_6_);fill:#0A5CB9;}
	.st4{clip-path:url(#SVGID_8_);fill:#0A5CB9;}
	.st5{clip-path:url(#SVGID_10_);fill:#FFFFFF;}
	.st6{clip-path:url(#SVGID_12_);fill:none;stroke:#0D46AA;stroke-width:4;}
	.st7{clip-path:url(#SVGID_14_);fill:#0A5CB9;}
	.st8{clip-path:url(#SVGID_16_);fill:#0A5CB9;}
	.st9{clip-path:url(#SVGID_18_);fill:#0A5CB9;}
	.st10{clip-path:url(#SVGID_20_);fill:#0A5CB9;}
	.st11{clip-path:url(#SVGID_22_);fill:#4F81BD;}
	.st12{clip-path:url(#SVGID_24_);fill:none;stroke:#0D46AA;stroke-width:3;}
	.st13{clip-path:url(#SVGID_26_);fill:#FFFFFF;}
	.st14{clip-path:url(#SVGID_28_);fill:#FFFFFF;}
	.st15{clip-path:url(#SVGID_30_);fill:#4F81BD;}
	.st16{clip-path:url(#SVGID_32_);fill:none;stroke:#0D46AA;stroke-width:3;}
	.st17{clip-path:url(#SVGID_34_);fill:#FFFFFF;}
	.st18{clip-path:url(#SVGID_36_);fill:#FFFFFF;}
	.st19{clip-path:url(#SVGID_38_);fill:none;stroke:#558ED5;stroke-dasharray:6,3;}
	.st20{clip-path:url(#SVGID_40_);fill:#558ED5;}
	.st21{clip-path:url(#SVGID_42_);fill:none;stroke:#558ED5;}
	.st22{clip-path:url(#SVGID_44_);fill:none;stroke:#558ED5;stroke-dasharray:6,3;}
	.st23{clip-path:url(#SVGID_46_);fill:none;stroke:#558ED5;stroke-dasharray:6,3;}
	.st24{clip-path:url(#SVGID_48_);fill:none;stroke:#558ED5;stroke-dasharray:6,3;}
	.st25{clip-path:url(#SVGID_50_);fill:none;stroke:#558ED5;stroke-dasharray:6,3;}
	.st26{opacity:9.803922e-002;clip-path:url(#SVGID_52_);fill:none;stroke:#558ED5;stroke-dasharray:6,3;enable-background:new    ;}
	.st27{clip-path:url(#SVGID_54_);fill:#558ED5;}
	.st28{clip-path:url(#SVGID_56_);fill:none;stroke:#558ED5;}
	.st29{clip-path:url(#SVGID_58_);fill:#030303;}
	.st30{clip-path:url(#SVGID_60_);fill:#030303;}
	.st31{clip-path:url(#SVGID_62_);fill:none;stroke:#558ED5;stroke-dasharray:6,3;}
	.st32{clip-path:url(#SVGID_64_);fill:#558ED5;}
	.st33{clip-path:url(#SVGID_66_);fill:none;stroke:#558ED5;}
	.st34{clip-path:url(#SVGID_68_);fill:none;stroke:#FF4242;stroke-dasharray:6,3;}
	.st35{clip-path:url(#SVGID_70_);fill:#FF4242;}
	.st36{clip-path:url(#SVGID_72_);fill:none;stroke:#FF4242;}
	.st37{clip-path:url(#SVGID_74_);fill:none;stroke:#FF4242;stroke-dasharray:6,3;}
	.st38{clip-path:url(#SVGID_76_);fill:none;stroke:#FF4242;stroke-dasharray:6,3;}
	.st39{clip-path:url(#SVGID_78_);fill:none;stroke:#FF4242;stroke-dasharray:6,3;}
	.st40{clip-path:url(#SVGID_80_);fill:none;stroke:#FF4242;stroke-dasharray:6,3;}
	.st41{opacity:9.803922e-002;clip-path:url(#SVGID_82_);fill:none;stroke:#FF4242;stroke-dasharray:6,3;enable-background:new    ;}
	.st42{clip-path:url(#SVGID_84_);fill:#FF4242;}
	.st43{clip-path:url(#SVGID_86_);fill:none;stroke:#FF4242;}
	.st44{clip-path:url(#SVGID_88_);fill:#030303;}
	.st45{clip-path:url(#SVGID_90_);fill:#030303;}
</style>
<rect x="-757" y="-1234" class="st0" width="3172" height="2894"/>
<g>
	<defs>
		<rect id="SVGID_1_" x="889" y="-191" width="352" height="91"/>
	</defs>
	<clipPath id="SVGID_2_">
		<use xlink:href="#SVGID_1_"  style="overflow:visible;"/>
	</clipPath>
	<path class="st1" d="M900-188c-4.4,0-8,3.6-8,8v68c0,4.4,3.6,8,8,8h329c4.4,0,8-3.6,8-8v-68c0-4.4-3.6-8-8-8H900z"/>
</g>
<g>
	<defs>
		<rect id="SVGID_3_" x="889" y="-191" width="352" height="91"/>
	</defs>
	<clipPath id="SVGID_4_">
		<use xlink:href="#SVGID_3_"  style="overflow:visible;"/>
	</clipPath>
	<path class="st2" d="M900-188c-4.4,0-8,3.6-8,8v68c0,4.4,3.6,8,8,8h329c4.4,0,8-3.6,8-8v-68c0-4.4-3.6-8-8-8H900z"/>
</g>
<g>
	<defs>
		<rect id="SVGID_5_" x="920" y="-172" width="290" height="53"/>
	</defs>
	<clipPath id="SVGID_6_">
		<use xlink:href="#SVGID_5_"  style="overflow:visible;"/>
	</clipPath>
	<path class="st3" d="M961.3-152.2c-1.5,0-2.8-0.1-3.9-0.3v-2c1.2,0.1,2.3,0.2,3.1,0.2c0.5,0,0.9,0,1.1-0.1c0.3,0,0.4-0.1,0.6-0.2
		c0.1-0.1,0.2-0.2,0.2-0.3c0-0.1,0-0.3,0-0.5c0-0.3,0-0.4-0.1-0.5s-0.1-0.2-0.2-0.2s-0.3-0.1-0.6-0.1l-1.9-0.2
		c-0.7-0.1-1.2-0.3-1.6-0.5c-0.4-0.3-0.6-0.6-0.7-1c-0.1-0.4-0.2-0.9-0.2-1.6c0-0.9,0.2-1.6,0.5-2s0.8-0.8,1.3-0.9
		c0.6-0.1,1.3-0.2,2.1-0.2c0.6,0,1.2,0,1.7,0.1c0.5,0.1,1.1,0.1,1.7,0.2v2c-1.2-0.1-2.2-0.2-2.9-0.2c-0.8,0-1.3,0.1-1.6,0.2
		c-0.1,0.1-0.2,0.1-0.2,0.3c0,0.1-0.1,0.3-0.1,0.5c0,0.3,0,0.4,0.1,0.5c0,0.1,0.1,0.2,0.2,0.2c0.1,0,0.3,0.1,0.6,0.1l2.2,0.3
		c0.4,0.1,0.8,0.1,1.1,0.3c0.3,0.1,0.5,0.4,0.7,0.7c0.3,0.4,0.4,1.1,0.4,2.1c0,1-0.2,1.7-0.5,2.2c-0.3,0.5-0.7,0.8-1.2,1
		C962.8-152.3,962.1-152.2,961.3-152.2z M975.3-162.7v5.7c0,1.4-0.1,2.4-0.2,3c-0.2,0.6-0.5,1.1-1.1,1.4s-1.5,0.4-2.8,0.4
		c-1.3,0-2.2-0.1-2.8-0.4s-0.9-0.7-1.1-1.4c-0.2-0.6-0.2-1.6-0.2-3v-5.7h2.6v6.2c0,0.7,0,1.2,0.1,1.5s0.2,0.4,0.4,0.5
		s0.6,0.1,1.1,0.1c0.5,0,0.9,0,1.1-0.1s0.3-0.3,0.4-0.5s0.1-0.8,0.1-1.5v-6.2H975.3z M977.7-162.7h4.9c0.9,0,1.6,0.1,2.1,0.4
		c0.5,0.3,0.8,0.7,0.9,1.1c0.2,0.5,0.2,1.1,0.2,2c0,0.8-0.1,1.4-0.2,1.9c-0.1,0.5-0.5,0.9-0.9,1.2c-0.5,0.3-1.2,0.4-2.1,0.4h-2.3
		v3.3h-2.6V-162.7z M981.5-157.7c0.5,0,0.9,0,1.1-0.1c0.2-0.1,0.4-0.2,0.5-0.4c0.1-0.2,0.1-0.5,0.1-0.9s0-0.8-0.1-0.9
		c-0.1-0.2-0.2-0.3-0.4-0.4c-0.2-0.1-0.6-0.1-1.1-0.1h-1.2v2.8H981.5z M987.8-152.3v-10.3h7.3v2.1h-4.7v1.9h4v2.1h-4v2h4.7v2.1
		H987.8z M1003-152.3l-1.3-3.6h-1.8v3.6h-2.6v-10.3h5c1,0,1.7,0.1,2.2,0.4c0.5,0.3,0.8,0.6,1,1.1c0.2,0.5,0.2,1.1,0.2,1.9
		c0,0.7-0.1,1.3-0.3,1.9s-0.6,0.9-1.1,1.2l1.6,3.9H1003z M1001.2-158c0.5,0,0.9,0,1.1-0.1c0.2-0.1,0.4-0.2,0.4-0.3
		c0.1-0.2,0.1-0.4,0.1-0.8c0-0.4,0-0.7-0.1-0.8c-0.1-0.2-0.2-0.3-0.4-0.3c-0.2-0.1-0.6-0.1-1.1-0.1h-1.4v2.5H1001.2z M1014.3-152.3
		l-0.6-2h-3.7l-0.6,2h-2.6l3.3-10.3h3.5l3.3,10.3H1014.3z M1011.8-160.4L1011.8-160.4l-1.3,3.9h2.5L1011.8-160.4z M1018.4-152.3
		v-10.3h2.6v8.1h4.1v2.2H1018.4z M1030.9-156.4v-2h3.9v5.8c-0.5,0.1-1.1,0.2-1.8,0.2c-0.7,0.1-1.3,0.1-1.8,0.1c-1.3,0-2.3-0.1-3-0.4
		c-0.6-0.3-1.1-0.8-1.3-1.5c-0.2-0.7-0.4-1.8-0.4-3.4c0-1.4,0.1-2.5,0.4-3.2s0.7-1.3,1.3-1.6c0.7-0.3,1.6-0.5,2.9-0.5
		c0.7,0,1.5,0,2.2,0.1c0.7,0.1,1.2,0.2,1.3,0.2v2c-1.1-0.1-2-0.2-2.6-0.2c-1,0-1.7,0.1-2,0.2c-0.4,0.1-0.6,0.4-0.7,0.8
		c-0.1,0.4-0.2,1.2-0.2,2.2c0,1,0,1.7,0.1,2.1s0.3,0.7,0.6,0.9s0.8,0.2,1.4,0.2c0.4,0,0.7,0,1,0v-2.1H1030.9z M1041.4-152.2
		c-1.5,0-2.5-0.2-3.1-0.5c-0.6-0.3-1-0.8-1.2-1.5c-0.2-0.7-0.2-1.8-0.2-3.4s0.1-2.7,0.2-3.4c0.2-0.7,0.5-1.2,1.2-1.5
		c0.6-0.3,1.6-0.5,3.1-0.5c1.4,0,2.5,0.2,3.1,0.5c0.6,0.3,1,0.8,1.1,1.5c0.2,0.7,0.2,1.8,0.2,3.4s-0.1,2.7-0.2,3.4
		c-0.1,0.7-0.5,1.2-1.1,1.5C1043.9-152.4,1042.8-152.2,1041.4-152.2z M1041.4-154.3c0.6,0,1.1-0.1,1.3-0.2c0.2-0.1,0.4-0.3,0.4-0.7
		c0.1-0.4,0.1-1.1,0.1-2.3s0-1.9-0.1-2.3c-0.1-0.4-0.2-0.6-0.4-0.7c-0.2-0.1-0.7-0.2-1.3-0.2c-0.7,0-1.1,0.1-1.3,0.2
		c-0.2,0.1-0.4,0.4-0.4,0.7c-0.1,0.4-0.1,1.1-0.1,2.3s0,1.9,0.1,2.3c0.1,0.4,0.2,0.6,0.4,0.7
		C1040.3-154.4,1040.7-154.3,1041.4-154.3z M1051.9-152.2c-1.5,0-2.8-0.1-3.9-0.3v-2c1.2,0.1,2.3,0.2,3.1,0.2c0.5,0,0.9,0,1.1-0.1
		c0.3,0,0.4-0.1,0.6-0.2c0.1-0.1,0.2-0.2,0.2-0.3c0-0.1,0-0.3,0-0.5c0-0.3,0-0.4-0.1-0.5c0-0.1-0.1-0.2-0.2-0.2
		c-0.1,0-0.3-0.1-0.6-0.1l-1.9-0.2c-0.7-0.1-1.2-0.3-1.6-0.5c-0.4-0.3-0.6-0.6-0.7-1c-0.1-0.4-0.2-0.9-0.2-1.6c0-0.9,0.2-1.6,0.5-2
		c0.3-0.5,0.8-0.8,1.3-0.9c0.6-0.1,1.3-0.2,2.1-0.2c0.6,0,1.2,0,1.7,0.1c0.5,0.1,1.1,0.1,1.7,0.2v2c-1.2-0.1-2.2-0.2-2.9-0.2
		c-0.8,0-1.3,0.1-1.6,0.2c-0.1,0.1-0.2,0.1-0.2,0.3c0,0.1-0.1,0.3-0.1,0.5c0,0.3,0,0.4,0.1,0.5c0,0.1,0.1,0.2,0.2,0.2
		c0.1,0,0.3,0.1,0.6,0.1l2.2,0.3c0.4,0.1,0.8,0.1,1.1,0.3c0.3,0.1,0.5,0.4,0.7,0.7c0.3,0.4,0.4,1.1,0.4,2.1c0,1-0.2,1.7-0.5,2.2
		c-0.3,0.5-0.7,0.8-1.2,1C1053.4-152.3,1052.7-152.2,1051.9-152.2z M1065.8-152.2c-1.5,0-2.5-0.2-3.1-0.5c-0.6-0.3-1-0.8-1.2-1.5
		c-0.2-0.7-0.2-1.8-0.2-3.4s0.1-2.7,0.2-3.4c0.2-0.7,0.5-1.2,1.2-1.5c0.6-0.3,1.6-0.5,3.1-0.5c1.4,0,2.5,0.2,3.1,0.5
		c0.6,0.3,1,0.8,1.1,1.5c0.2,0.7,0.2,1.8,0.2,3.4s-0.1,2.7-0.2,3.4c-0.1,0.7-0.5,1.2-1.1,1.5
		C1068.3-152.4,1067.2-152.2,1065.8-152.2z M1065.8-154.3c0.6,0,1.1-0.1,1.3-0.2c0.2-0.1,0.4-0.3,0.4-0.7c0.1-0.4,0.1-1.1,0.1-2.3
		s0-1.9-0.1-2.3c-0.1-0.4-0.2-0.6-0.4-0.7c-0.2-0.1-0.7-0.2-1.3-0.2c-0.7,0-1.1,0.1-1.3,0.2c-0.2,0.1-0.4,0.4-0.4,0.7
		c-0.1,0.4-0.1,1.1-0.1,2.3s0,1.9,0.1,2.3c0.1,0.4,0.2,0.6,0.4,0.7C1064.7-154.4,1065.1-154.3,1065.8-154.3z M1078.3-152.3l-1.3-3.6
		h-1.8v3.6h-2.6v-10.3h4.9c1,0,1.7,0.1,2.2,0.4c0.5,0.3,0.8,0.6,1,1.1c0.2,0.5,0.2,1.1,0.2,1.9c0,0.7-0.1,1.3-0.3,1.9
		c-0.2,0.5-0.6,0.9-1.1,1.2l1.6,3.9H1078.3z M1076.4-158c0.5,0,0.9,0,1.1-0.1c0.2-0.1,0.4-0.2,0.4-0.3c0.1-0.2,0.1-0.4,0.1-0.8
		c0-0.4,0-0.7-0.1-0.8c-0.1-0.2-0.2-0.3-0.4-0.3c-0.2-0.1-0.6-0.1-1.1-0.1h-1.4v2.5H1076.4z M1087-156.4v-2h3.9v5.8
		c-0.5,0.1-1.1,0.2-1.8,0.2c-0.7,0.1-1.3,0.1-1.8,0.1c-1.3,0-2.3-0.1-3-0.4c-0.6-0.3-1.1-0.8-1.3-1.5c-0.2-0.7-0.4-1.8-0.4-3.4
		c0-1.4,0.1-2.5,0.4-3.2s0.7-1.3,1.3-1.6c0.7-0.3,1.6-0.5,2.9-0.5c0.7,0,1.5,0,2.2,0.1c0.7,0.1,1.2,0.2,1.3,0.2v2
		c-1.1-0.1-2-0.2-2.6-0.2c-1,0-1.7,0.1-2,0.2c-0.4,0.1-0.6,0.4-0.7,0.8c-0.1,0.4-0.2,1.2-0.2,2.2c0,1,0,1.7,0.1,2.1s0.3,0.7,0.6,0.9
		s0.8,0.2,1.4,0.2c0.4,0,0.7,0,1,0v-2.1H1087z M1099.8-152.3l-0.6-2h-3.7l-0.6,2h-2.6l3.3-10.3h3.5l3.3,10.3H1099.8z M1097.4-160.4
		L1097.4-160.4l-1.3,3.9h2.5L1097.4-160.4z M1110.1-152.3l-3.6-5.9h-0.1v5.9h-2.5v-10.3h2.7l3.3,5.4h0.1v-5.4h2.5v10.3H1110.1z
		 M1115-152.3v-10.3h2.6v10.3H1115z M1119.5-152.3v-2l4.7-6.2h-4.5v-2.1h7.8v2l-4.8,6.2h4.8v2.1H1119.5z M1136-152.3l-0.6-2h-3.7
		l-0.6,2h-2.6l3.3-10.3h3.5l3.3,10.3H1136z M1133.6-160.4L1133.6-160.4l-1.3,3.9h2.5L1133.6-160.4z M1141.5-152.3v-8.1h-2.8v-2.2
		h8.3v2.2h-2.9v8.1H1141.5z M1148.5-152.3v-10.3h2.6v10.3H1148.5z M1157.6-152.2c-1.5,0-2.5-0.2-3.1-0.5c-0.6-0.3-1-0.8-1.2-1.5
		c-0.2-0.7-0.2-1.8-0.2-3.4s0.1-2.7,0.2-3.4c0.2-0.7,0.5-1.2,1.2-1.5c0.6-0.3,1.6-0.5,3.1-0.5c1.4,0,2.5,0.2,3.1,0.5
		c0.6,0.3,1,0.8,1.1,1.5c0.2,0.7,0.2,1.8,0.2,3.4s-0.1,2.7-0.2,3.4c-0.1,0.7-0.5,1.2-1.1,1.5
		C1160.1-152.4,1159.1-152.2,1157.6-152.2z M1157.6-154.3c0.6,0,1.1-0.1,1.3-0.2c0.2-0.1,0.4-0.3,0.4-0.7c0.1-0.4,0.1-1.1,0.1-2.3
		s0-1.9-0.1-2.3c-0.1-0.4-0.2-0.6-0.4-0.7c-0.2-0.1-0.7-0.2-1.3-0.2c-0.7,0-1.1,0.1-1.3,0.2c-0.2,0.1-0.4,0.4-0.4,0.7
		c-0.1,0.4-0.1,1.1-0.1,2.3s0,1.9,0.1,2.3c0.1,0.4,0.2,0.6,0.4,0.7C1156.5-154.4,1157-154.3,1157.6-154.3z M1170.4-152.3l-3.6-5.9
		h-0.1v5.9h-2.5v-10.3h2.7l3.3,5.4h0.1v-5.4h2.5v10.3H1170.4z"/>
</g>
<g>
	<defs>
		<rect id="SVGID_7_" x="920" y="-172" width="290" height="53"/>
	</defs>
	<clipPath id="SVGID_8_">
		<use xlink:href="#SVGID_7_"  style="overflow:visible;"/>
	</clipPath>
	<path class="st4" d="M925.6-127.2c-0.7-0.8-1.2-1.4-1.5-1.9c-0.3-0.5-0.5-1.1-0.7-1.8s-0.2-1.7-0.2-3c0-1.3,0.1-2.3,0.2-3
		s0.4-1.4,0.7-1.8c0.3-0.5,0.8-1.1,1.5-1.8h1.6c-0.5,0.7-0.9,1.2-1.1,1.6c-0.2,0.4-0.4,1-0.5,1.8c-0.1,0.8-0.2,1.9-0.2,3.3
		c0,1.4,0.1,2.5,0.2,3.3c0.1,0.8,0.3,1.4,0.5,1.8c0.2,0.4,0.6,1,1.1,1.6H925.6z M928.7-129.5v-10.3h2.6v10.3H928.7z M936.4-129.4
		c-0.5,0-1,0-1.6-0.1c-0.6,0-1.1-0.1-1.5-0.1v-1.7c0.9,0.1,1.7,0.1,2.4,0.1c0.5,0,0.8,0,1,0c0.2,0,0.3-0.1,0.4-0.2s0.1-0.2,0.1-0.4
		c0-0.1,0-0.3-0.1-0.3c0-0.1-0.1-0.1-0.2-0.1c-0.1,0-0.3-0.1-0.5-0.1l-1.8-0.2c-0.6-0.1-1-0.3-1.2-0.7c-0.2-0.4-0.3-0.9-0.3-1.7
		c0-0.7,0.1-1.2,0.4-1.5c0.3-0.3,0.6-0.6,1.1-0.7c0.4-0.1,1-0.2,1.7-0.2c0.5,0,1,0,1.5,0.1c0.5,0,0.9,0.1,1.2,0.2v1.7
		c-0.8-0.1-1.6-0.1-2.2-0.1c-0.4,0-0.8,0-0.9,0c-0.2,0-0.3,0.1-0.4,0.1c-0.1,0.1-0.1,0.2-0.1,0.4c0,0.1,0,0.3,0,0.3s0.1,0.1,0.2,0.1
		c0.1,0,0.3,0.1,0.5,0.1l1.8,0.2c0.4,0.1,0.7,0.1,0.9,0.3c0.2,0.1,0.4,0.3,0.5,0.7s0.2,0.8,0.2,1.4c0,0.7-0.1,1.2-0.4,1.6
		c-0.2,0.4-0.6,0.6-1,0.7C937.6-129.4,937.1-129.4,936.4-129.4z M944.1-129.4c-0.5,0-1,0-1.6-0.1c-0.6,0-1.1-0.1-1.5-0.1v-1.7
		c0.9,0.1,1.7,0.1,2.4,0.1c0.5,0,0.8,0,1,0c0.2,0,0.3-0.1,0.4-0.2s0.1-0.2,0.1-0.4c0-0.1,0-0.3-0.1-0.3c0-0.1-0.1-0.1-0.2-0.1
		c-0.1,0-0.3-0.1-0.5-0.1l-1.8-0.2c-0.6-0.1-1-0.3-1.2-0.7s-0.3-0.9-0.3-1.7c0-0.7,0.1-1.2,0.4-1.5c0.3-0.3,0.6-0.6,1.1-0.7
		c0.4-0.1,1-0.2,1.7-0.2c0.5,0,1,0,1.5,0.1c0.5,0,0.9,0.1,1.2,0.2v1.7c-0.8-0.1-1.6-0.1-2.2-0.1c-0.4,0-0.8,0-0.9,0
		c-0.2,0-0.3,0.1-0.4,0.1c-0.1,0.1-0.1,0.2-0.1,0.4c0,0.1,0,0.3,0,0.3c0,0.1,0.1,0.1,0.2,0.1c0.1,0,0.3,0.1,0.5,0.1l1.8,0.2
		c0.4,0.1,0.7,0.1,0.9,0.3c0.2,0.1,0.4,0.3,0.5,0.7s0.2,0.8,0.2,1.4c0,0.7-0.1,1.2-0.4,1.6c-0.2,0.4-0.6,0.6-1,0.7
		C945.3-129.4,944.8-129.4,944.1-129.4z M953.5-130.4h-0.1c-0.4,0.7-1.1,1-2.2,1c-0.6,0-1.1-0.1-1.5-0.3s-0.6-0.5-0.7-1
		c-0.1-0.4-0.2-1-0.2-1.7v-4.8h2.4v4c0,0.6,0,0.9,0.1,1.2c0,0.2,0.1,0.4,0.3,0.4s0.4,0.1,0.7,0.1c0.3,0,0.6,0,0.7-0.1
		c0.2-0.1,0.3-0.3,0.3-0.5c0-0.2,0.1-0.6,0.1-1.1v-4h2.4v7.6h-2.3L953.5-130.4z M957.9-138.6v-2h2.5v2H957.9z M957.9-129.5v-7.6h2.4
		v7.6H957.9z M966.9-133.5c0-0.6,0-0.9-0.1-1.2s-0.1-0.4-0.3-0.4s-0.4-0.1-0.7-0.1c-0.3,0-0.6,0-0.7,0.1c-0.2,0.1-0.3,0.3-0.3,0.5
		c0,0.2-0.1,0.6-0.1,1.1v4h-2.4v-7.6h2.3l0.1,0.9h0.1c0.4-0.7,1.1-1,2.2-1c0.7,0,1.1,0.1,1.5,0.3c0.3,0.2,0.6,0.5,0.7,1
		c0.1,0.4,0.2,1,0.2,1.7v4.8h-2.4V-133.5z M974.5-126.4c-0.5,0-1,0-1.5-0.1s-0.9-0.1-1.2-0.1v-1.7c0.8,0,1.5,0,2.1,0
		c0.7,0,1.2,0,1.4-0.1c0.3-0.1,0.4-0.2,0.5-0.4c0.1-0.2,0.1-0.6,0.1-1.1v-0.6h-0.1c-0.2,0.4-0.5,0.6-0.8,0.7
		c-0.4,0.1-0.8,0.2-1.3,0.2c-0.6,0-1.1-0.1-1.5-0.3s-0.6-0.6-0.8-1.2c-0.2-0.5-0.2-1.3-0.2-2.3s0.1-1.8,0.3-2.4
		c0.2-0.6,0.4-1,0.8-1.2c0.4-0.2,0.8-0.3,1.5-0.3c0.5,0,0.9,0.1,1.3,0.2c0.4,0.2,0.7,0.4,0.9,0.8h0.1l0.1-0.9h2.3v6.8
		c0,1-0.1,1.8-0.2,2.3c-0.2,0.5-0.5,0.9-1.1,1.2C976.5-126.5,975.6-126.4,974.5-126.4z M974.8-131.5c0.3,0,0.5,0,0.7-0.1
		c0.2-0.1,0.3-0.2,0.3-0.4c0.1-0.1,0.1-0.3,0.1-0.5s0-0.5,0-0.9c0-0.4,0-0.6,0-0.8c0-0.2-0.1-0.4-0.1-0.5c-0.1-0.2-0.2-0.3-0.3-0.4
		c-0.1-0.1-0.4-0.1-0.7-0.1c-0.4,0-0.6,0-0.8,0.1c-0.2,0.1-0.3,0.2-0.3,0.5c0,0.2-0.1,0.7-0.1,1.3s0,1,0.1,1.3
		c0.1,0.2,0.2,0.4,0.3,0.5C974.1-131.6,974.4-131.5,974.8-131.5z M980.5-134.9v-2.2h2.6v2.2H980.5z M980.5-129.5v-2.2h2.6v2.2H980.5
		z M997.9-129.5v-6.6h-0.1l-2.2,6.6h-1.8l-2.2-6.6h-0.1v6.6h-2.4v-10.3h3.6l2,6h0.1l2-6h3.6v10.3H997.9z M1003-129.5v-10.3h7.3v2.1
		h-4.7v1.9h4v2.1h-4v2h4.7v2.1H1003z M1016.7-129.4c-1.5,0-2.5-0.2-3.1-0.5c-0.6-0.3-1-0.8-1.2-1.5c-0.2-0.7-0.2-1.8-0.2-3.4
		c0-1.6,0.1-2.7,0.2-3.4c0.2-0.7,0.5-1.2,1.2-1.5c0.6-0.3,1.6-0.5,3.1-0.5s2.5,0.2,3.1,0.5c0.6,0.3,1,0.8,1.1,1.5
		c0.2,0.7,0.2,1.8,0.2,3.4c0,1.6-0.1,2.7-0.2,3.4c-0.2,0.7-0.5,1.2-1.1,1.5C1019.2-129.5,1018.1-129.4,1016.7-129.4z M1016.7-131.5
		c0.7,0,1.1-0.1,1.3-0.2c0.2-0.1,0.4-0.3,0.4-0.7c0.1-0.4,0.1-1.1,0.1-2.3c0-1.1,0-1.9-0.1-2.3c-0.1-0.4-0.2-0.6-0.4-0.7
		c-0.2-0.1-0.7-0.2-1.3-0.2s-1.1,0.1-1.3,0.2s-0.4,0.4-0.4,0.7c-0.1,0.4-0.1,1.1-0.1,2.3c0,1.1,0,1.9,0.1,2.3
		c0.1,0.4,0.2,0.6,0.4,0.7C1015.6-131.5,1016-131.5,1016.7-131.5z M1023.1-128.2c0.3,0,0.5,0,0.7-0.1s0.2-0.2,0.3-0.3
		c0.1-0.1,0.1-0.3,0.1-0.6v-0.2h-0.9v-2.2h2.6v1.7c0,0.8-0.1,1.4-0.2,1.8c-0.1,0.4-0.4,0.6-0.7,0.8c-0.4,0.2-1,0.2-1.8,0.2V-128.2z
		 M1038.4-129.5l-0.6-1.9h-3.7l-0.6,1.9h-2.6l3.3-10.3h3.5l3.3,10.3H1038.4z M1036-137.5L1036-137.5l-1.3,3.9h2.5L1036-137.5z
		 M1044.1-129.5l-3.1-10.3h2.7l2.1,7.4h0.1l2.1-7.4h2.6l-3.1,10.3H1044.1z M1061-129.5v-6.6h-0.1l-2.2,6.6h-1.8l-2.2-6.6h-0.1v6.6
		h-2.4v-10.3h3.6l2,6h0.1l2-6h3.6v10.3H1061z M1065.8-128.2c0.3,0,0.5,0,0.7-0.1s0.2-0.2,0.3-0.3c0.1-0.1,0.1-0.3,0.1-0.6v-0.2h-0.9
		v-2.2h2.6v1.7c0,0.8-0.1,1.4-0.2,1.8c-0.1,0.4-0.4,0.6-0.7,0.8c-0.4,0.2-1,0.2-1.8,0.2V-128.2z M1081.4-129.6
		c-0.3,0.1-0.8,0.1-1.3,0.2c-0.5,0-1,0.1-1.4,0.1c-1.3,0-2.3-0.2-2.9-0.5c-0.6-0.3-1-0.8-1.2-1.6c-0.2-0.7-0.3-1.8-0.3-3.2
		c0-1.4,0.1-2.5,0.3-3.2s0.6-1.2,1.2-1.6c0.6-0.3,1.6-0.5,2.9-0.5c0.4,0,0.9,0,1.4,0.1c0.5,0.1,0.9,0.1,1.2,0.2v2
		c-1-0.1-1.7-0.2-2-0.2c-0.8,0-1.4,0.1-1.7,0.2s-0.5,0.4-0.6,0.8s-0.1,1.1-0.1,2.2c0,1.1,0,1.8,0.1,2.2c0.1,0.4,0.3,0.7,0.6,0.8
		s0.9,0.2,1.7,0.2c0.7,0,1.4-0.1,2.1-0.1V-129.6z M1086.6-129.4c-1.1,0-2-0.1-2.5-0.3s-0.8-0.6-1-1.1c-0.1-0.5-0.2-1.3-0.2-2.5
		c0-1.2,0.1-2,0.2-2.5c0.1-0.5,0.5-0.9,1-1.1s1.3-0.3,2.5-0.3c1.1,0,2,0.1,2.5,0.3s0.8,0.6,1,1.1c0.1,0.5,0.2,1.3,0.2,2.5
		c0,1.2-0.1,2-0.2,2.5c-0.1,0.5-0.5,0.9-1,1.1S1087.7-129.4,1086.6-129.4z M1086.6-131.2c0.4,0,0.7,0,0.9-0.1
		c0.2-0.1,0.3-0.3,0.3-0.5c0-0.3,0.1-0.7,0.1-1.4c0-0.7,0-1.2-0.1-1.5c0-0.3-0.1-0.4-0.3-0.5c-0.2-0.1-0.4-0.1-0.9-0.1
		c-0.4,0-0.7,0-0.9,0.1s-0.3,0.2-0.3,0.5s-0.1,0.7-0.1,1.5c0,0.7,0,1.2,0.1,1.4s0.1,0.4,0.3,0.5S1086.2-131.2,1086.6-131.2z
		 M1100.8-133.5c0-0.5,0-0.9-0.1-1.2s-0.1-0.4-0.2-0.4c-0.1-0.1-0.3-0.1-0.6-0.1c-0.3,0-0.5,0-0.7,0.1c-0.1,0.1-0.2,0.3-0.3,0.5
		s-0.1,0.6-0.1,1.1v4h-2.4v-4c0-0.5,0-0.9-0.1-1.2s-0.1-0.4-0.2-0.4c-0.1-0.1-0.3-0.1-0.6-0.1c-0.3,0-0.5,0-0.7,0.1
		s-0.2,0.3-0.3,0.5s-0.1,0.6-0.1,1.1v4h-2.4v-7.6h2.3l0.1,0.9h0.1c0.4-0.7,1.1-1,2.1-1c0.6,0,1,0.1,1.4,0.2c0.3,0.2,0.5,0.4,0.7,0.8
		h0.1c0.4-0.7,1.1-1,2.2-1c0.6,0,1.1,0.1,1.4,0.3c0.3,0.2,0.5,0.5,0.7,1s0.2,1,0.2,1.7v4.8h-2.4V-133.5z M1105.4-137.1h2.3l0.1,0.9
		h0.1c0.2-0.4,0.5-0.7,0.9-0.8c0.4-0.1,0.8-0.2,1.3-0.2c0.6,0,1.1,0.1,1.5,0.3c0.4,0.2,0.6,0.6,0.8,1.2c0.2,0.6,0.3,1.4,0.3,2.4
		c0,1-0.1,1.8-0.2,2.4c-0.2,0.6-0.4,1-0.8,1.2c-0.4,0.2-0.8,0.4-1.5,0.4c-0.5,0-0.9-0.1-1.3-0.2s-0.6-0.4-0.8-0.7h-0.1v3.8h-2.4
		V-137.1z M1109-131.4c0.4,0,0.7,0,0.8-0.1s0.2-0.2,0.3-0.5c0-0.2,0.1-0.7,0.1-1.3c0-0.6,0-1.1-0.1-1.3c0-0.2-0.1-0.4-0.3-0.5
		c-0.2-0.1-0.4-0.1-0.8-0.1c-0.3,0-0.5,0-0.7,0.1c-0.2,0.1-0.3,0.2-0.3,0.4c-0.1,0.1-0.1,0.3-0.1,0.5s0,0.5,0,0.9c0,0.4,0,0.7,0,0.9
		c0,0.2,0.1,0.4,0.1,0.5c0.1,0.2,0.2,0.3,0.3,0.4S1108.7-131.4,1109-131.4z M1118.5-139.8h4.9c0.9,0,1.6,0.1,2.1,0.4
		c0.5,0.3,0.8,0.7,0.9,1.1c0.2,0.5,0.2,1.1,0.2,2c0,0.8-0.1,1.4-0.2,1.9s-0.5,0.9-0.9,1.2c-0.5,0.3-1.2,0.4-2.1,0.4h-2.3v3.3h-2.6
		V-139.8z M1122.3-134.9c0.5,0,0.9,0,1.1-0.1s0.4-0.2,0.4-0.4c0.1-0.2,0.1-0.5,0.1-0.9s0-0.8-0.1-0.9c-0.1-0.2-0.2-0.3-0.4-0.4
		c-0.2-0.1-0.6-0.1-1.1-0.1h-1.2v2.8H1122.3z M1128.4-137.1h2.3l0.1,1.3h0.1c0.2-0.5,0.5-0.9,0.9-1.1c0.4-0.2,0.9-0.3,1.5-0.3v2.3
		c-0.6,0-1.1,0.1-1.5,0.2s-0.6,0.4-0.7,0.8c-0.2,0.4-0.2,0.9-0.2,1.6v2.8h-2.4V-137.1z M1134.7-138.6v-2h2.5v2H1134.7z
		 M1134.7-129.5v-7.6h2.4v7.6H1134.7z M1138.8-129.5v-1.8l3.5-4h-3.3v-1.9h6.4v1.8l-3.5,4h3.5v1.9H1138.8z M1153.9-132.7h-4.6
		c0,0.5,0,0.8,0.1,1c0.1,0.2,0.2,0.3,0.5,0.4c0.3,0.1,0.7,0.1,1.4,0.1c0.7,0,1.5,0,2.3-0.1v1.7c-0.3,0.1-0.7,0.1-1.3,0.2
		c-0.5,0-1.1,0.1-1.6,0.1c-1.2,0-2-0.1-2.6-0.4c-0.5-0.3-0.9-0.6-1-1.2c-0.1-0.5-0.2-1.3-0.2-2.4c0-1,0.1-1.8,0.2-2.4
		c0.2-0.5,0.5-0.9,1-1.2s1.3-0.4,2.4-0.4c1.1,0,1.9,0.1,2.3,0.4c0.5,0.3,0.8,0.6,0.9,1.1c0.1,0.5,0.2,1.3,0.2,2.4V-132.7z
		 M1150.5-135.5c-0.4,0-0.6,0-0.8,0.1c-0.2,0.1-0.3,0.2-0.3,0.4c0,0.2-0.1,0.5-0.1,1h2.3c0-0.5,0-0.8-0.1-1
		c-0.1-0.2-0.2-0.3-0.3-0.4C1151.1-135.5,1150.8-135.5,1150.5-135.5z M1158.7-129.4c-0.5,0-1,0-1.6-0.1c-0.6,0-1.1-0.1-1.5-0.1v-1.7
		c0.9,0.1,1.7,0.1,2.4,0.1c0.5,0,0.8,0,1,0c0.2,0,0.3-0.1,0.4-0.2c0.1-0.1,0.1-0.2,0.1-0.4c0-0.1,0-0.3-0.1-0.3s-0.1-0.1-0.2-0.1
		c-0.1,0-0.3-0.1-0.5-0.1l-1.8-0.2c-0.6-0.1-1-0.3-1.2-0.7s-0.3-0.9-0.3-1.7c0-0.7,0.1-1.2,0.4-1.5c0.3-0.3,0.6-0.6,1.1-0.7
		c0.4-0.1,1-0.2,1.7-0.2c0.5,0,1,0,1.5,0.1c0.5,0,0.9,0.1,1.2,0.2v1.7c-0.8-0.1-1.6-0.1-2.2-0.1c-0.4,0-0.8,0-0.9,0
		c-0.2,0-0.3,0.1-0.4,0.1c-0.1,0.1-0.1,0.2-0.1,0.4c0,0.1,0,0.3,0,0.3s0.1,0.1,0.2,0.1s0.3,0.1,0.5,0.1l1.8,0.2
		c0.4,0.1,0.7,0.1,0.9,0.3s0.4,0.3,0.5,0.7s0.2,0.8,0.2,1.4c0,0.7-0.1,1.2-0.4,1.6c-0.2,0.4-0.6,0.6-1,0.7
		S1159.4-129.4,1158.7-129.4z M1167.5-129.5v-10.3h7v2.1h-4.4v2.3h3.8v2.1h-3.8v3.8H1167.5z M1180.9-130.4h-0.1
		c-0.4,0.7-1.1,1-2.2,1c-0.7,0-1.1-0.1-1.5-0.3s-0.6-0.5-0.7-1c-0.1-0.4-0.2-1-0.2-1.7v-4.8h2.4v4c0,0.6,0,0.9,0.1,1.2
		s0.1,0.4,0.3,0.4s0.4,0.1,0.7,0.1c0.3,0,0.6,0,0.7-0.1c0.2-0.1,0.3-0.3,0.3-0.5c0-0.2,0.1-0.6,0.1-1.1v-4h2.4v7.6h-2.3
		L1180.9-130.4z M1189.9-133.5c0-0.6,0-0.9-0.1-1.2c0-0.2-0.1-0.4-0.3-0.4s-0.4-0.1-0.7-0.1c-0.3,0-0.6,0-0.7,0.1
		c-0.2,0.1-0.3,0.3-0.3,0.5c-0.1,0.2-0.1,0.6-0.1,1.1v4h-2.4v-7.6h2.3l0.1,0.9h0.1c0.4-0.7,1.1-1,2.2-1c0.6,0,1.1,0.1,1.5,0.3
		c0.3,0.2,0.6,0.5,0.7,1c0.1,0.4,0.2,1,0.2,1.7v4.8h-2.4V-133.5z M1196.7-129.4c-0.6,0-1.1-0.1-1.5-0.3c-0.4-0.2-0.6-0.6-0.8-1.2
		c-0.2-0.6-0.3-1.4-0.3-2.4c0-1,0.1-1.8,0.2-2.4c0.2-0.6,0.4-1,0.8-1.2s0.8-0.4,1.5-0.4c0.5,0,0.9,0.1,1.3,0.2
		c0.3,0.1,0.6,0.4,0.8,0.7h0.1v-4.3h2.4v11.1h-2.3l-0.1-0.9h-0.1c-0.2,0.4-0.5,0.7-0.9,0.8C1197.6-129.4,1197.2-129.4,1196.7-129.4z
		 M1197.8-131.4c0.3,0,0.5,0,0.7-0.1c0.2-0.1,0.3-0.2,0.3-0.4c0.1-0.2,0.1-0.3,0.1-0.6c0-0.2,0-0.5,0-0.8c0-0.7,0-1.1-0.1-1.3
		c-0.1-0.2-0.2-0.4-0.3-0.4s-0.4-0.1-0.7-0.1c-0.4,0-0.6,0-0.8,0.1s-0.3,0.2-0.3,0.5c0,0.2-0.1,0.7-0.1,1.3c0,0.6,0,1.1,0.1,1.3
		c0.1,0.2,0.2,0.4,0.3,0.5C1197.1-131.4,1197.4-131.4,1197.8-131.4z M1202.8-127.2c0.5-0.7,0.9-1.2,1.1-1.6c0.2-0.4,0.4-1,0.5-1.8
		s0.2-1.9,0.2-3.3c0-1.4-0.1-2.5-0.2-3.3s-0.3-1.4-0.5-1.8c-0.2-0.4-0.6-1-1.1-1.6h1.6c0.7,0.7,1.2,1.3,1.5,1.8
		c0.3,0.5,0.6,1.1,0.7,1.8c0.2,0.7,0.2,1.7,0.2,3c0,1.3-0.1,2.3-0.2,3c-0.1,0.7-0.4,1.3-0.7,1.8c-0.3,0.5-0.8,1.1-1.5,1.9H1202.8z"
		/>
</g>
<g>
	<defs>
		<rect id="SVGID_9_" x="983" y="135" width="164" height="123"/>
	</defs>
	<clipPath id="SVGID_10_">
		<use xlink:href="#SVGID_9_"  style="overflow:visible;"/>
	</clipPath>
	<path class="st5" d="M994,138c-4.4,0-8,3.6-8,8v100c0,4.4,3.6,8,8,8h141c4.4,0,8-3.6,8-8V146c0-4.4-3.6-8-8-8H994z"/>
</g>
<g>
	<defs>
		<rect id="SVGID_11_" x="983" y="135" width="164" height="123"/>
	</defs>
	<clipPath id="SVGID_12_">
		<use xlink:href="#SVGID_11_"  style="overflow:visible;"/>
	</clipPath>
	<path class="st6" d="M994,138c-4.4,0-8,3.6-8,8v100c0,4.4,3.6,8,8,8h141c4.4,0,8-3.6,8-8V146c0-4.4-3.6-8-8-8H994z"/>
</g>
<g>
	<defs>
		<rect id="SVGID_13_" x="998" y="146" width="134" height="101"/>
	</defs>
	<clipPath id="SVGID_14_">
		<use xlink:href="#SVGID_13_"  style="overflow:visible;"/>
	</clipPath>
	<path class="st7" d="M1020.7,165.7v-10.3h7.3v2.1h-4.7v1.9h4v2.1h-4v2h4.7v2.1H1020.7z M1036.2,165.7l-1.9-3.1h-0.1l-2,3.1h-2.8
		l3.3-5.2l-3.3-5.1h3l1.9,3.1h0.1l1.9-3.1h2.9l-3.3,5.1l3.3,5.2H1036.2z M1047.3,165.5c-0.3,0.1-0.8,0.1-1.3,0.2
		c-0.5,0-1,0.1-1.4,0.1c-1.3,0-2.3-0.2-2.9-0.5c-0.6-0.3-1-0.8-1.2-1.6c-0.2-0.7-0.3-1.8-0.3-3.2c0-1.4,0.1-2.5,0.3-3.2
		c0.2-0.7,0.6-1.2,1.2-1.6c0.6-0.3,1.6-0.5,2.9-0.5c0.4,0,0.9,0,1.4,0.1s0.9,0.1,1.2,0.2v2c-1-0.1-1.7-0.1-2-0.1
		c-0.8,0-1.4,0.1-1.7,0.2s-0.5,0.4-0.6,0.8s-0.1,1.1-0.1,2.2c0,1.1,0,1.8,0.1,2.2c0.1,0.4,0.3,0.7,0.6,0.8s0.9,0.2,1.7,0.2
		c0.7,0,1.4,0,2.1-0.1V165.5z M1055.2,165.7v-4.1h-3.3v4.1h-2.6v-10.3h2.6v4h3.3v-4h2.6v10.3H1055.2z M1066.8,165.7l-0.6-2h-3.7
		l-0.6,2h-2.6l3.3-10.3h3.5l3.3,10.3H1066.8z M1064.3,157.6L1064.3,157.6l-1.3,3.9h2.5L1064.3,157.6z M1077.1,165.7l-3.6-5.9h-0.1
		v5.9h-2.5v-10.3h2.7l3.3,5.4h0.1v-5.4h2.5v10.3H1077.1z M1086.1,161.6v-2h3.9v5.8c-0.5,0.1-1.1,0.2-1.8,0.2s-1.3,0.1-1.8,0.1
		c-1.3,0-2.3-0.1-3-0.4c-0.6-0.3-1.1-0.8-1.3-1.5s-0.4-1.8-0.4-3.4c0-1.4,0.1-2.5,0.4-3.2c0.2-0.7,0.7-1.3,1.3-1.6
		c0.7-0.3,1.6-0.5,2.9-0.5c0.7,0,1.5,0,2.2,0.1c0.7,0.1,1.2,0.2,1.3,0.2v2c-1.1-0.1-2-0.2-2.6-0.2c-1,0-1.7,0.1-2,0.2
		s-0.6,0.4-0.7,0.8s-0.2,1.2-0.2,2.2c0,1,0,1.7,0.1,2.1c0.1,0.4,0.3,0.7,0.6,0.9c0.3,0.2,0.8,0.2,1.4,0.2c0.4,0,0.7,0,1,0v-2.1
		H1086.1z M1092.3,165.7v-10.3h7.3v2.1h-4.7v1.9h4v2.1h-4v2h4.7v2.1H1092.3z M1105.6,165.8c-1.5,0-2.8-0.1-3.9-0.3v-2
		c1.2,0.1,2.3,0.2,3.1,0.2c0.5,0,0.9,0,1.1-0.1c0.3,0,0.4-0.1,0.6-0.2c0.1-0.1,0.2-0.2,0.2-0.3c0-0.1,0-0.3,0-0.5
		c0-0.3,0-0.4-0.1-0.5c0-0.1-0.1-0.2-0.2-0.2c-0.1,0-0.3-0.1-0.6-0.1l-1.9-0.2c-0.7-0.1-1.2-0.3-1.6-0.5c-0.4-0.3-0.6-0.6-0.7-1
		c-0.1-0.4-0.2-0.9-0.2-1.6c0-0.9,0.2-1.6,0.5-2c0.3-0.5,0.8-0.8,1.3-0.9c0.6-0.1,1.3-0.2,2.1-0.2c0.6,0,1.2,0,1.7,0.1
		c0.5,0.1,1.1,0.1,1.7,0.2v2c-1.2-0.1-2.2-0.2-2.9-0.2c-0.8,0-1.3,0.1-1.6,0.2c-0.1,0.1-0.2,0.1-0.2,0.3c0,0.1-0.1,0.3-0.1,0.5
		c0,0.3,0,0.4,0.1,0.5c0,0.1,0.1,0.2,0.2,0.2c0.1,0,0.3,0.1,0.6,0.1l2.2,0.3c0.4,0.1,0.8,0.1,1.1,0.3c0.3,0.1,0.5,0.3,0.7,0.7
		c0.3,0.4,0.4,1.1,0.4,2.1c0,1-0.2,1.7-0.5,2.2s-0.7,0.8-1.2,1C1107.1,165.7,1106.4,165.8,1105.6,165.8z"/>
</g>
<g>
	<defs>
		<rect id="SVGID_15_" x="998" y="146" width="134" height="101"/>
	</defs>
	<clipPath id="SVGID_16_">
		<use xlink:href="#SVGID_15_"  style="overflow:visible;"/>
	</clipPath>
	<path class="st8" d="M1016.7,190.8c-0.7-0.8-1.2-1.4-1.5-1.9s-0.5-1.1-0.7-1.8c-0.2-0.7-0.2-1.7-0.2-3s0.1-2.3,0.2-3
		c0.2-0.7,0.4-1.4,0.7-1.8c0.3-0.5,0.8-1.1,1.5-1.8h1.6c-0.5,0.7-0.9,1.2-1.1,1.6c-0.2,0.4-0.4,1-0.5,1.8c-0.1,0.8-0.2,1.9-0.2,3.3
		c0,1.4,0.1,2.5,0.2,3.3s0.3,1.4,0.5,1.8c0.2,0.4,0.6,1,1.1,1.6H1016.7z M1026.4,188.5l-0.6-2h-3.7l-0.6,2h-2.6l3.3-10.3h3.5
		l3.3,10.3H1026.4z M1024,180.5L1024,180.5l-1.3,3.9h2.5L1024,180.5z M1030.6,188.5v-10.3h2.6v8.1h4.1v2.2H1030.6z M1043,184.5v-2
		h3.9v5.8c-0.5,0.1-1.1,0.2-1.8,0.2s-1.3,0.1-1.8,0.1c-1.3,0-2.3-0.1-3-0.4c-0.6-0.3-1.1-0.8-1.3-1.5s-0.4-1.8-0.4-3.4
		c0-1.4,0.1-2.5,0.4-3.2c0.2-0.7,0.7-1.3,1.3-1.6c0.7-0.3,1.6-0.5,2.9-0.5c0.7,0,1.5,0,2.2,0.1s1.2,0.2,1.3,0.2v2
		c-1.1-0.1-2-0.2-2.6-0.2c-1,0-1.7,0.1-2,0.2s-0.6,0.4-0.7,0.8c-0.1,0.4-0.2,1.2-0.2,2.2c0,1,0,1.7,0.1,2.1c0.1,0.4,0.3,0.7,0.6,0.9
		c0.3,0.2,0.8,0.2,1.4,0.2c0.4,0,0.7,0,1,0v-2.1H1043z M1053.5,188.6c-1.5,0-2.5-0.2-3.1-0.5c-0.6-0.3-1-0.8-1.2-1.5
		c-0.2-0.7-0.2-1.8-0.2-3.4c0-1.6,0.1-2.7,0.2-3.4c0.2-0.7,0.5-1.2,1.2-1.5s1.6-0.5,3.1-0.5s2.5,0.2,3.1,0.5s1,0.8,1.1,1.5
		c0.2,0.7,0.2,1.8,0.2,3.4c0,1.6-0.1,2.7-0.2,3.4c-0.1,0.7-0.5,1.2-1.1,1.5C1056,188.5,1055,188.6,1053.5,188.6z M1053.5,186.5
		c0.7,0,1.1-0.1,1.3-0.2c0.2-0.1,0.4-0.3,0.4-0.7s0.1-1.1,0.1-2.3c0-1.1,0-1.9-0.1-2.3c-0.1-0.4-0.2-0.6-0.4-0.7s-0.7-0.2-1.3-0.2
		s-1.1,0.1-1.3,0.2s-0.4,0.4-0.4,0.7c-0.1,0.4-0.1,1.1-0.1,2.3c0,1.1,0,1.9,0.1,2.3c0.1,0.4,0.2,0.6,0.4,0.7
		C1052.4,186.5,1052.9,186.5,1053.5,186.5z M1064.1,188.5v-10.3h2.6v8.1h4.1v2.2H1064.1z M1072.3,179.4v-2h2.5v2H1072.3z
		 M1072.3,188.5v-7.7h2.4v7.7H1072.3z M1079.7,188.6c-0.5,0-1,0-1.6-0.1c-0.6,0-1.1-0.1-1.5-0.2v-1.7c0.9,0.1,1.7,0.1,2.4,0.1
		c0.5,0,0.8,0,1,0s0.3-0.1,0.4-0.2c0.1-0.1,0.1-0.2,0.1-0.4c0-0.1,0-0.3-0.1-0.3c0-0.1-0.1-0.1-0.2-0.1c-0.1,0-0.3-0.1-0.5-0.1
		l-1.8-0.2c-0.6-0.1-1-0.3-1.2-0.7s-0.3-0.9-0.3-1.7c0-0.7,0.1-1.2,0.4-1.5s0.6-0.6,1.1-0.7s1-0.2,1.7-0.2c0.5,0,1,0,1.5,0.1
		c0.5,0,0.9,0.1,1.2,0.2v1.7c-0.8-0.1-1.6-0.1-2.2-0.1c-0.4,0-0.8,0-0.9,0c-0.2,0-0.3,0.1-0.4,0.1c-0.1,0.1-0.1,0.2-0.1,0.4
		c0,0.2,0,0.3,0,0.3c0,0.1,0.1,0.1,0.2,0.1c0.1,0,0.3,0.1,0.5,0.1l1.8,0.2c0.4,0.1,0.7,0.1,0.9,0.3c0.2,0.1,0.4,0.3,0.5,0.7
		s0.2,0.8,0.2,1.4c0,0.7-0.1,1.2-0.4,1.6c-0.2,0.4-0.6,0.6-1,0.7C1080.9,188.6,1080.4,188.6,1079.7,188.6z M1085.1,188.5v-5.8h-1.4
		v-1.9h1.4v-2.2h2.4v2.2h1.6v1.9h-1.6v5.8H1085.1z M1090.6,179.4v-2h2.5v2H1090.6z M1090.6,188.5v-7.7h2.4v7.7H1090.6z
		 M1099.6,184.5c0-0.6,0-1-0.1-1.2c0-0.2-0.1-0.4-0.3-0.4c-0.1-0.1-0.4-0.1-0.7-0.1c-0.3,0-0.6,0-0.7,0.1s-0.3,0.3-0.3,0.5
		c-0.1,0.2-0.1,0.6-0.1,1.1v4h-2.4v-7.7h2.3l0.1,0.9h0.1c0.4-0.7,1.1-1,2.2-1c0.7,0,1.1,0.1,1.5,0.3c0.3,0.2,0.6,0.5,0.7,1
		c0.1,0.4,0.2,1,0.2,1.7v4.8h-2.4V184.5z M1107.2,191.6c-0.5,0-1,0-1.5-0.1c-0.5,0-0.9-0.1-1.2-0.1v-1.7c0.8,0,1.5,0,2.1,0
		c0.7,0,1.2,0,1.4-0.1s0.4-0.2,0.5-0.4c0.1-0.2,0.1-0.6,0.1-1.1v-0.6h-0.1c-0.2,0.4-0.5,0.6-0.8,0.7s-0.8,0.2-1.3,0.2
		c-0.6,0-1.1-0.1-1.5-0.3s-0.6-0.6-0.8-1.2c-0.2-0.5-0.2-1.3-0.2-2.3c0-1,0.1-1.8,0.3-2.4s0.4-1,0.8-1.2c0.4-0.2,0.8-0.3,1.5-0.3
		c0.5,0,0.9,0.1,1.3,0.2s0.7,0.4,0.9,0.8h0.1l0.1-0.9h2.3v6.8c0,1-0.1,1.8-0.2,2.3c-0.2,0.5-0.5,0.9-1.1,1.2
		C1109.2,191.5,1108.3,191.6,1107.2,191.6z M1107.4,186.5c0.3,0,0.5,0,0.7-0.1c0.1-0.1,0.3-0.2,0.3-0.4c0.1-0.1,0.1-0.3,0.1-0.5
		c0-0.2,0-0.5,0-0.9c0-0.4,0-0.6,0-0.8c0-0.2-0.1-0.4-0.1-0.5c-0.1-0.2-0.2-0.3-0.3-0.4c-0.2-0.1-0.4-0.1-0.7-0.1
		c-0.4,0-0.6,0-0.8,0.1c-0.2,0.1-0.3,0.2-0.3,0.5c-0.1,0.2-0.1,0.7-0.1,1.3c0,0.6,0,1,0.1,1.3s0.2,0.4,0.3,0.5
		C1106.8,186.4,1107.1,186.5,1107.4,186.5z M1113,189.8c0.3,0,0.5,0,0.7-0.1c0.1-0.1,0.2-0.2,0.3-0.3c0.1-0.1,0.1-0.4,0.1-0.6v-0.2
		h-0.9v-2.2h2.6v1.7c0,0.8-0.1,1.4-0.2,1.8s-0.4,0.6-0.7,0.8c-0.4,0.2-1,0.2-1.8,0.2V189.8z"/>
</g>
<g>
	<defs>
		<rect id="SVGID_17_" x="998" y="146" width="134" height="101"/>
	</defs>
	<clipPath id="SVGID_18_">
		<use xlink:href="#SVGID_17_"  style="overflow:visible;"/>
	</clipPath>
	<path class="st9" d="M1008.5,212.4c-0.3,0.1-0.8,0.1-1.3,0.2s-1,0.1-1.4,0.1c-1.3,0-2.3-0.2-2.9-0.5s-1-0.8-1.2-1.6
		s-0.3-1.8-0.3-3.2c0-1.4,0.1-2.5,0.3-3.2s0.6-1.2,1.2-1.6c0.6-0.3,1.6-0.5,2.9-0.5c0.5,0,0.9,0,1.4,0.1s0.9,0.1,1.2,0.2v2
		c-1-0.1-1.7-0.1-2-0.1c-0.8,0-1.4,0.1-1.7,0.2s-0.5,0.4-0.6,0.8c-0.1,0.4-0.1,1.1-0.1,2.2c0,1.1,0,1.8,0.1,2.2
		c0.1,0.4,0.3,0.7,0.6,0.8s0.9,0.2,1.7,0.2c0.7,0,1.4,0,2.1-0.1V212.4z M1013.7,212.7c-1.1,0-2-0.1-2.5-0.3c-0.5-0.2-0.8-0.6-1-1.1
		s-0.2-1.3-0.2-2.5c0-1.2,0.1-2,0.2-2.5s0.5-0.9,1-1.1c0.5-0.2,1.3-0.3,2.5-0.3c1.1,0,2,0.1,2.5,0.3c0.5,0.2,0.8,0.6,1,1.1
		s0.2,1.3,0.2,2.5c0,1.1-0.1,2-0.2,2.5s-0.5,0.9-1,1.1C1015.6,212.6,1014.8,212.7,1013.7,212.7z M1013.7,210.8c0.4,0,0.7,0,0.9-0.1
		c0.2-0.1,0.3-0.3,0.3-0.5c0-0.3,0.1-0.7,0.1-1.4c0-0.7,0-1.2-0.1-1.5c0-0.3-0.1-0.4-0.3-0.5c-0.2-0.1-0.4-0.1-0.9-0.1
		c-0.4,0-0.7,0-0.9,0.1c-0.2,0.1-0.3,0.2-0.3,0.5c0,0.3-0.1,0.7-0.1,1.5c0,0.7,0,1.2,0.1,1.4c0,0.3,0.1,0.4,0.3,0.5
		C1013,210.8,1013.3,210.8,1013.7,210.8z M1027.9,208.5c0-0.6,0-0.9-0.1-1.2s-0.1-0.4-0.2-0.4c-0.1-0.1-0.3-0.1-0.6-0.1
		c-0.3,0-0.5,0-0.7,0.1c-0.1,0.1-0.2,0.3-0.3,0.5c0,0.2-0.1,0.6-0.1,1.1v4h-2.4v-4c0-0.6,0-0.9-0.1-1.2c0-0.2-0.1-0.4-0.2-0.4
		c-0.1-0.1-0.3-0.1-0.6-0.1s-0.5,0-0.7,0.1s-0.2,0.3-0.3,0.5c0,0.2-0.1,0.6-0.1,1.1v4h-2.4v-7.7h2.3l0.1,0.9h0.1
		c0.4-0.7,1.1-1,2.1-1c0.6,0,1,0.1,1.4,0.2c0.3,0.2,0.5,0.4,0.7,0.8h0.1c0.4-0.7,1.1-1,2.2-1c0.6,0,1.1,0.1,1.4,0.3
		c0.3,0.2,0.5,0.5,0.7,1c0.1,0.4,0.2,1,0.2,1.7v4.8h-2.4V208.5z M1032.5,204.9h2.3l0.1,0.9h0.1c0.2-0.4,0.5-0.7,0.9-0.8
		c0.4-0.1,0.8-0.2,1.3-0.2c0.6,0,1.1,0.1,1.5,0.3s0.6,0.6,0.8,1.2s0.3,1.4,0.3,2.4c0,1-0.1,1.8-0.2,2.4s-0.4,1-0.8,1.2
		c-0.4,0.2-0.8,0.4-1.5,0.4c-0.5,0-0.9-0.1-1.3-0.2s-0.6-0.4-0.8-0.7h-0.1v3.8h-2.4V204.9z M1036.1,210.6c0.4,0,0.7,0,0.8-0.1
		s0.2-0.2,0.3-0.5c0-0.2,0.1-0.7,0.1-1.3s0-1.1-0.1-1.3c0-0.2-0.1-0.4-0.3-0.5c-0.2-0.1-0.4-0.1-0.8-0.1c-0.3,0-0.5,0-0.7,0.1
		c-0.2,0.1-0.3,0.2-0.3,0.4c-0.1,0.1-0.1,0.3-0.1,0.5s0,0.5,0,0.9c0,0.4,0,0.7,0,0.9c0,0.2,0.1,0.4,0.1,0.5c0.1,0.2,0.2,0.3,0.3,0.4
		S1035.8,210.6,1036.1,210.6z M1048.2,209.4h-4.6c0,0.5,0,0.8,0.1,1c0.1,0.2,0.2,0.3,0.5,0.4c0.3,0.1,0.7,0.1,1.4,0.1
		c0.7,0,1.5,0,2.3-0.1v1.7c-0.3,0.1-0.7,0.1-1.3,0.2c-0.5,0-1.1,0.1-1.6,0.1c-1.2,0-2-0.1-2.6-0.4c-0.5-0.3-0.9-0.6-1-1.2
		c-0.1-0.5-0.2-1.3-0.2-2.4c0-1,0.1-1.8,0.2-2.4c0.2-0.5,0.5-0.9,1-1.2c0.5-0.3,1.3-0.4,2.4-0.4c1.1,0,1.9,0.1,2.3,0.4
		c0.5,0.3,0.8,0.6,0.9,1.1c0.1,0.5,0.2,1.3,0.2,2.4V209.4z M1044.8,206.6c-0.4,0-0.6,0-0.8,0.1c-0.2,0.1-0.3,0.2-0.3,0.4
		c0,0.2-0.1,0.5-0.1,1h2.3c0-0.5,0-0.8-0.1-1c-0.1-0.2-0.2-0.3-0.3-0.4C1045.4,206.6,1045.2,206.6,1044.8,206.6z M1050.8,212.6v-5.8
		h-1.4v-1.9h1.4v-2.2h2.4v2.2h1.7v1.9h-1.7v5.8H1050.8z M1056.3,203.4v-2h2.5v2H1056.3z M1056.3,212.6v-7.7h2.4v7.7H1056.3z
		 M1061.4,212.6v-5.8h-1.4v-1.9h1.4v-2.2h2.4v2.2h1.7v1.9h-1.7v5.8H1061.4z M1066.9,203.4v-2h2.5v2H1066.9z M1066.9,212.6v-7.7h2.4
		v7.7H1066.9z M1074.7,212.7c-1.1,0-2-0.1-2.5-0.3c-0.5-0.2-0.8-0.6-1-1.1s-0.2-1.3-0.2-2.5c0-1.2,0.1-2,0.2-2.5s0.5-0.9,1-1.1
		c0.5-0.2,1.3-0.3,2.5-0.3c1.1,0,2,0.1,2.5,0.3c0.5,0.2,0.8,0.6,1,1.1s0.2,1.3,0.2,2.5c0,1.1-0.1,2-0.2,2.5s-0.5,0.9-1,1.1
		C1076.7,212.6,1075.8,212.7,1074.7,212.7z M1074.7,210.8c0.4,0,0.7,0,0.9-0.1c0.2-0.1,0.3-0.3,0.3-0.5c0-0.3,0.1-0.7,0.1-1.4
		c0-0.7,0-1.2-0.1-1.5c0-0.3-0.1-0.4-0.3-0.5c-0.2-0.1-0.4-0.1-0.9-0.1c-0.4,0-0.7,0-0.9,0.1c-0.2,0.1-0.3,0.2-0.3,0.5
		s-0.1,0.7-0.1,1.5c0,0.7,0,1.2,0.1,1.4s0.1,0.4,0.3,0.5C1074,210.8,1074.3,210.8,1074.7,210.8z M1084.7,208.5c0-0.6,0-1-0.1-1.2
		c0-0.2-0.1-0.4-0.3-0.4c-0.1-0.1-0.4-0.1-0.7-0.1c-0.3,0-0.6,0-0.7,0.1c-0.2,0.1-0.3,0.3-0.3,0.5c-0.1,0.2-0.1,0.6-0.1,1.1v4h-2.4
		v-7.7h2.3l0.1,0.9h0.1c0.4-0.7,1.1-1,2.2-1c0.6,0,1.1,0.1,1.5,0.3c0.3,0.2,0.6,0.5,0.7,1c0.1,0.4,0.2,1,0.2,1.7v4.8h-2.4V208.5z
		 M1099.2,212.6v-4.1h-3.3v4.1h-2.6v-10.3h2.6v4h3.3v-4h2.6v10.3H1099.2z M1107.5,212.7c-1.1,0-2-0.1-2.5-0.3
		c-0.5-0.2-0.8-0.6-1-1.1s-0.2-1.3-0.2-2.5c0-1.2,0.1-2,0.2-2.5s0.5-0.9,1-1.1c0.5-0.2,1.3-0.3,2.5-0.3c1.1,0,2,0.1,2.5,0.3
		c0.5,0.2,0.8,0.6,1,1.1s0.2,1.3,0.2,2.5c0,1.1-0.1,2-0.2,2.5s-0.5,0.9-1,1.1C1109.4,212.6,1108.6,212.7,1107.5,212.7z
		 M1107.5,210.8c0.4,0,0.7,0,0.9-0.1c0.2-0.1,0.3-0.3,0.3-0.5c0-0.3,0.1-0.7,0.1-1.4c0-0.7,0-1.2-0.1-1.5c0-0.3-0.1-0.4-0.3-0.5
		c-0.2-0.1-0.4-0.1-0.9-0.1c-0.4,0-0.7,0-0.9,0.1c-0.2,0.1-0.3,0.2-0.3,0.5s-0.1,0.7-0.1,1.5c0,0.7,0,1.2,0.1,1.4s0.1,0.4,0.3,0.5
		C1106.8,210.8,1107,210.8,1107.5,210.8z M1115.9,212.7c-0.5,0-1,0-1.6-0.1c-0.6,0-1.1-0.1-1.5-0.2v-1.7c0.9,0.1,1.7,0.1,2.4,0.1
		c0.5,0,0.8,0,1,0s0.3-0.1,0.4-0.2c0.1-0.1,0.1-0.2,0.1-0.4c0-0.1,0-0.3-0.1-0.3s-0.1-0.1-0.2-0.1c-0.1,0-0.3-0.1-0.5-0.1l-1.8-0.2
		c-0.6-0.1-1-0.3-1.2-0.7s-0.3-0.9-0.3-1.7c0-0.7,0.1-1.2,0.4-1.5c0.3-0.3,0.6-0.6,1.1-0.7s1-0.2,1.7-0.2c0.5,0,1,0,1.5,0.1
		c0.5,0,0.9,0.1,1.2,0.2v1.7c-0.8-0.1-1.6-0.1-2.2-0.1c-0.4,0-0.8,0-0.9,0c-0.2,0-0.3,0.1-0.4,0.1c-0.1,0.1-0.1,0.2-0.1,0.4
		c0,0.2,0,0.3,0,0.3s0.1,0.1,0.2,0.1s0.3,0.1,0.5,0.1l1.8,0.2c0.4,0.1,0.7,0.1,0.9,0.3s0.4,0.3,0.5,0.7s0.2,0.8,0.2,1.4
		c0,0.7-0.1,1.2-0.4,1.6c-0.2,0.4-0.6,0.6-1,0.7C1117.1,212.6,1116.6,212.7,1115.9,212.7z M1121.3,212.6v-5.8h-1.4v-1.9h1.4v-2.2
		h2.4v2.2h1.7v1.9h-1.7v5.8H1121.3z M1126,213.8c0.3,0,0.5,0,0.7-0.1c0.1-0.1,0.2-0.2,0.3-0.3c0.1-0.1,0.1-0.4,0.1-0.6v-0.2h-0.9
		v-2.2h2.6v1.7c0,0.8-0.1,1.4-0.2,1.8s-0.4,0.6-0.7,0.8c-0.4,0.2-1,0.2-1.8,0.2V213.8z"/>
</g>
<g>
	<defs>
		<rect id="SVGID_19_" x="998" y="146" width="134" height="101"/>
	</defs>
	<clipPath id="SVGID_20_">
		<use xlink:href="#SVGID_19_"  style="overflow:visible;"/>
	</clipPath>
	<path class="st10" d="M1033.7,236.9v-6.6h-0.1l-2.2,6.6h-1.8l-2.2-6.6h-0.1v6.6h-2.4v-10.3h3.6l2,6h0.1l2-6h3.6v10.3H1033.7z
		 M1038.8,236.9v-10.3h7.3v2.1h-4.7v1.9h4v2.1h-4v2h4.7v2.1H1038.8z M1052.5,237.1c-1.4,0-2.5-0.2-3.1-0.5c-0.6-0.3-1-0.8-1.2-1.5
		c-0.2-0.7-0.2-1.8-0.2-3.4c0-1.6,0.1-2.7,0.2-3.4c0.2-0.7,0.5-1.2,1.2-1.5s1.6-0.5,3.1-0.5s2.5,0.2,3.1,0.5s1,0.8,1.1,1.5
		c0.2,0.7,0.2,1.8,0.2,3.4c0,1.6-0.1,2.7-0.2,3.4c-0.2,0.7-0.5,1.2-1.1,1.5C1055,236.9,1053.9,237.1,1052.5,237.1z M1052.5,235
		c0.6,0,1.1-0.1,1.3-0.2c0.2-0.1,0.4-0.3,0.4-0.7s0.1-1.1,0.1-2.3c0-1.1,0-1.9-0.1-2.3c-0.1-0.4-0.2-0.6-0.4-0.7s-0.7-0.2-1.3-0.2
		c-0.7,0-1.1,0.1-1.3,0.2s-0.4,0.4-0.4,0.7c-0.1,0.4-0.1,1.1-0.1,2.3c0,1.1,0,1.9,0.1,2.3c0.1,0.4,0.2,0.6,0.4,0.7
		C1051.4,234.9,1051.8,235,1052.5,235z M1059,238.2c0.3,0,0.5,0,0.7-0.1c0.1-0.1,0.2-0.2,0.3-0.3c0.1-0.1,0.1-0.4,0.1-0.6v-0.2h-0.9
		v-2.2h2.6v1.7c0,0.8-0.1,1.4-0.2,1.8s-0.4,0.6-0.7,0.8c-0.4,0.2-1,0.2-1.8,0.2V238.2z M1074.2,236.9l-0.6-2h-3.7l-0.6,2h-2.6
		l3.3-10.3h3.5l3.3,10.3H1074.2z M1071.8,228.9L1071.8,228.9l-1.3,3.9h2.5L1071.8,228.9z M1079.9,236.9l-3.1-10.3h2.7l2.1,7.4h0.1
		l2.1-7.4h2.6l-3.1,10.3H1079.9z M1096.8,236.9v-6.6h-0.1l-2.2,6.6h-1.8l-2.2-6.6h-0.1v6.6h-2.4v-10.3h3.6l2,6h0.1l2-6h3.6v10.3
		H1096.8z M1101.1,239.2c0.5-0.7,0.9-1.2,1.1-1.6c0.2-0.4,0.4-1,0.5-1.8s0.2-1.9,0.2-3.3c0-1.4-0.1-2.5-0.2-3.3
		c-0.1-0.8-0.3-1.4-0.5-1.8c-0.2-0.4-0.6-1-1.1-1.6h1.6c0.7,0.7,1.2,1.3,1.5,1.8c0.3,0.5,0.6,1.1,0.7,1.8c0.2,0.7,0.2,1.7,0.2,3
		s-0.1,2.3-0.2,3c-0.1,0.7-0.4,1.3-0.7,1.8c-0.3,0.5-0.8,1.1-1.5,1.9H1101.1z"/>
</g>
<g>
	<defs>
		<rect id="SVGID_21_" x="653" y="-43" width="169" height="73"/>
	</defs>
	<clipPath id="SVGID_22_">
		<use xlink:href="#SVGID_21_"  style="overflow:visible;"/>
	</clipPath>
	<path class="st11" d="M664-40c-4.4,0-8,3.6-8,8v50c0,4.4,3.6,8,8,8h146c4.4,0,8-3.6,8-8v-50c0-4.4-3.6-8-8-8H664z"/>
</g>
<g>
	<defs>
		<rect id="SVGID_23_" x="653" y="-43" width="169" height="73"/>
	</defs>
	<clipPath id="SVGID_24_">
		<use xlink:href="#SVGID_23_"  style="overflow:visible;"/>
	</clipPath>
	<path class="st12" d="M664-40c-4.4,0-8,3.6-8,8v50c0,4.4,3.6,8,8,8h146c4.4,0,8-3.6,8-8v-50c0-4.4-3.6-8-8-8H664z"/>
</g>
<g>
	<defs>
		<rect id="SVGID_25_" x="667" y="-33" width="141" height="53"/>
	</defs>
	<clipPath id="SVGID_26_">
		<use xlink:href="#SVGID_25_"  style="overflow:visible;"/>
	</clipPath>
	<path class="st13" d="M686.2-13v-9.1h-3.3v-1.2h7.8v1.2h-3.3v9.1H686.2z M698.4-16.4h-5.2c0,0.7,0,1.3,0.2,1.6
		c0.1,0.3,0.3,0.5,0.7,0.7c0.3,0.1,0.9,0.2,1.7,0.2c0.8,0,1.6-0.1,2.4-0.2v1.1c-0.3,0.1-0.7,0.1-1.2,0.2c-0.5,0-1,0.1-1.5,0.1
		c-1,0-1.8-0.1-2.3-0.4c-0.5-0.2-0.8-0.6-1-1.2c-0.2-0.5-0.2-1.3-0.2-2.4c0-1.1,0.1-1.9,0.2-2.4c0.1-0.5,0.4-0.9,0.9-1.2
		s1.2-0.4,2.3-0.4c1,0,1.7,0.1,2.1,0.4c0.4,0.3,0.7,0.6,0.8,1.2c0.1,0.5,0.2,1.3,0.2,2.4V-16.4z M695.3-19.6c-0.7,0-1.1,0.1-1.4,0.2
		s-0.5,0.3-0.6,0.6c-0.1,0.3-0.1,0.8-0.2,1.5h4.1v-0.1c0-0.7-0.1-1.1-0.2-1.5s-0.3-0.5-0.6-0.6C696.2-19.6,695.8-19.6,695.3-19.6z
		 M703-12.9c-0.9,0-1.5-0.2-1.9-0.5s-0.6-0.9-0.6-1.7c0-0.6,0.1-1.1,0.2-1.4s0.4-0.6,0.7-0.7c0.3-0.1,0.8-0.2,1.4-0.2
		c0.3,0,1.2,0,2.9,0.1v-0.4c0-0.6-0.1-1-0.2-1.3s-0.3-0.4-0.6-0.5c-0.3-0.1-0.8-0.1-1.6-0.1c-0.3,0-0.7,0-1.2,0.1s-0.9,0.1-1.1,0.1
		v-1.1c0.8-0.1,1.7-0.2,2.8-0.2c0.9,0,1.6,0.1,2,0.3c0.4,0.2,0.7,0.5,0.9,0.9c0.2,0.4,0.2,1,0.2,1.8v4.8h-1.1l-0.1-1.1h-0.1
		c-0.2,0.5-0.5,0.8-1,1S703.6-12.9,703-12.9z M703.4-14c0.5,0,0.9,0,1.2-0.1c0.3-0.1,0.5-0.3,0.7-0.5c0.2-0.4,0.3-0.9,0.3-1.5v-0.3
		h-2.5c-0.4,0-0.7,0-0.9,0.1c-0.2,0.1-0.3,0.2-0.4,0.4c-0.1,0.2-0.1,0.4-0.1,0.8c0,0.4,0,0.6,0.1,0.8s0.3,0.3,0.5,0.4
		S702.9-14,703.4-14z M719.1-17.3c0-0.7,0-1.2-0.1-1.5c-0.1-0.3-0.2-0.5-0.4-0.6c-0.2-0.1-0.6-0.1-1.1-0.1c-0.6,0-1,0.1-1.2,0.3
		s-0.4,0.5-0.5,0.8c-0.1,0.4-0.1,0.9-0.1,1.5v3.9h-1.2v-4.3c0-0.7,0-1.2-0.1-1.5c-0.1-0.3-0.2-0.5-0.4-0.6c-0.2-0.1-0.6-0.1-1.1-0.1
		c-0.6,0-1,0.1-1.2,0.3c-0.3,0.2-0.4,0.5-0.5,0.8c-0.1,0.4-0.1,0.9-0.1,1.5v3.9h-1.2v-7.7h1.1l0.1,1.1h0.1c0.2-0.4,0.4-0.7,0.8-0.9
		c0.4-0.2,0.9-0.3,1.6-0.3c0.7,0,1.2,0.1,1.5,0.3s0.6,0.5,0.7,0.9h0.1c0.3-0.8,1.1-1.2,2.4-1.2c0.7,0,1.2,0.1,1.5,0.3
		c0.3,0.2,0.6,0.5,0.7,0.9s0.2,1,0.2,1.7v4.8h-1.2V-17.3z M736.5-13v-8.1h-0.1l-3.5,8.1H732l-3.5-8.1h-0.1v8.1h-1.2v-10.3h1.7l3.5,8
		h0.1l3.5-8h1.7V-13H736.5z M747.1-16.4h-5.2c0,0.7,0,1.3,0.2,1.6c0.1,0.3,0.3,0.5,0.7,0.7c0.3,0.1,0.9,0.2,1.7,0.2
		c0.8,0,1.6-0.1,2.4-0.2v1.1c-0.3,0.1-0.7,0.1-1.2,0.2c-0.5,0-1,0.1-1.5,0.1c-1,0-1.8-0.1-2.3-0.4c-0.5-0.2-0.8-0.6-1-1.2
		c-0.2-0.5-0.2-1.3-0.2-2.4c0-1.1,0.1-1.9,0.2-2.4c0.1-0.5,0.4-0.9,0.9-1.2s1.2-0.4,2.3-0.4c1,0,1.7,0.1,2.1,0.4
		c0.4,0.3,0.7,0.6,0.8,1.2c0.1,0.5,0.2,1.3,0.2,2.4V-16.4z M744-19.6c-0.7,0-1.1,0.1-1.4,0.2s-0.5,0.3-0.6,0.6
		c-0.1,0.3-0.1,0.8-0.2,1.5h4.1v-0.1c0-0.7-0.1-1.1-0.2-1.5s-0.3-0.5-0.6-0.6C745-19.6,744.6-19.6,744-19.6z M759.1-17.3
		c0-0.7,0-1.2-0.1-1.5c-0.1-0.3-0.2-0.5-0.4-0.6c-0.2-0.1-0.6-0.1-1.1-0.1c-0.6,0-1,0.1-1.2,0.3s-0.4,0.5-0.5,0.8
		c-0.1,0.4-0.1,0.9-0.1,1.5v3.9h-1.2v-4.3c0-0.7,0-1.2-0.1-1.5c-0.1-0.3-0.2-0.5-0.4-0.6c-0.2-0.1-0.6-0.1-1.1-0.1
		c-0.6,0-1,0.1-1.2,0.3c-0.3,0.2-0.4,0.5-0.5,0.8c-0.1,0.4-0.1,0.9-0.1,1.5v3.9h-1.2v-7.7h1.1l0.1,1.1h0.1c0.2-0.4,0.4-0.7,0.8-0.9
		c0.4-0.2,0.9-0.3,1.6-0.3c0.7,0,1.2,0.1,1.5,0.3s0.6,0.5,0.7,0.9h0.1c0.3-0.8,1.1-1.2,2.4-1.2c0.7,0,1.2,0.1,1.5,0.3
		c0.3,0.2,0.6,0.5,0.7,0.9s0.2,1,0.2,1.7v4.8h-1.2V-17.3z M767.1-12.9c-0.6,0-1.1-0.1-1.6-0.2c-0.4-0.2-0.7-0.5-0.9-0.9h-0.1
		l-0.1,1.1h-1.1v-11.1h1.2v4.5h0.1c0.2-0.4,0.5-0.7,0.9-0.8c0.4-0.2,0.9-0.2,1.6-0.2c0.8,0,1.3,0.1,1.7,0.3c0.4,0.2,0.7,0.6,0.8,1.2
		c0.2,0.6,0.2,1.4,0.2,2.4s-0.1,1.9-0.2,2.4c-0.2,0.6-0.4,0.9-0.8,1.2S767.8-12.9,767.1-12.9z M766.6-14c0.6,0,1.1-0.1,1.4-0.2
		c0.3-0.1,0.5-0.4,0.6-0.7c0.1-0.4,0.1-1,0.1-1.9c0-0.9,0-1.5-0.1-1.8c-0.1-0.4-0.3-0.6-0.6-0.7s-0.7-0.2-1.4-0.2
		c-0.5,0-0.9,0.1-1.2,0.2c-0.3,0.1-0.5,0.3-0.6,0.6c-0.1,0.2-0.2,0.5-0.2,0.8c0,0.3-0.1,0.7-0.1,1.2c0,0.5,0,0.9,0,1.2
		c0,0.3,0.1,0.6,0.2,0.8c0.1,0.3,0.3,0.4,0.6,0.6C765.7-14.1,766.1-14,766.6-14z M778.6-16.4h-5.2c0,0.7,0,1.3,0.2,1.6
		c0.1,0.3,0.3,0.5,0.7,0.7c0.3,0.1,0.9,0.2,1.7,0.2c0.8,0,1.6-0.1,2.4-0.2v1.1c-0.3,0.1-0.7,0.1-1.2,0.2c-0.5,0-1,0.1-1.5,0.1
		c-1,0-1.8-0.1-2.3-0.4c-0.5-0.2-0.8-0.6-1-1.2c-0.2-0.5-0.2-1.3-0.2-2.4c0-1.1,0.1-1.9,0.2-2.4c0.1-0.5,0.4-0.9,0.9-1.2
		s1.2-0.4,2.3-0.4c1,0,1.7,0.1,2.1,0.4c0.4,0.3,0.7,0.6,0.8,1.2c0.1,0.5,0.2,1.3,0.2,2.4V-16.4z M775.5-19.6c-0.7,0-1.1,0.1-1.4,0.2
		s-0.5,0.3-0.6,0.6c-0.1,0.3-0.1,0.8-0.2,1.5h4.1v-0.1c0-0.7-0.1-1.1-0.2-1.5s-0.3-0.5-0.6-0.6C776.4-19.6,776-19.6,775.5-19.6z
		 M781.1-20.6h1.1l0.1,1.5h0.1c0.2-0.6,0.5-1,0.9-1.2c0.4-0.2,1-0.3,1.7-0.3v1.3c-0.7,0-1.2,0.1-1.6,0.3c-0.4,0.2-0.6,0.5-0.8,1
		c-0.1,0.4-0.2,1-0.2,1.8v3.4h-1.2V-20.6z M789.3-12.9c-0.4,0-0.9,0-1.4-0.1c-0.5,0-1-0.1-1.4-0.1v-1.1c1,0.1,1.9,0.2,2.7,0.2
		c0.5,0,0.9,0,1.1-0.1c0.2-0.1,0.4-0.2,0.5-0.3c0.1-0.2,0.1-0.4,0.1-0.7s0-0.5-0.1-0.7c-0.1-0.1-0.1-0.2-0.3-0.3
		c-0.1,0-0.3-0.1-0.6-0.1l-2-0.2c-0.5,0-0.8-0.2-1.1-0.3c-0.2-0.2-0.4-0.4-0.5-0.7c-0.1-0.3-0.1-0.7-0.1-1.1c0-0.6,0.1-1.1,0.4-1.5
		c0.2-0.3,0.6-0.5,1-0.6c0.4-0.1,1-0.1,1.7-0.1c0.4,0,0.8,0,1.3,0.1c0.4,0,0.8,0.1,1.1,0.1v1.1c-0.8-0.1-1.6-0.2-2.4-0.2
		c-0.5,0-0.8,0-1.1,0.1c-0.2,0-0.4,0.1-0.6,0.3s-0.2,0.4-0.2,0.7c0,0.3,0,0.5,0.1,0.6c0,0.1,0.1,0.2,0.3,0.3
		c0.1,0.1,0.3,0.1,0.6,0.1l2.1,0.2c0.4,0.1,0.8,0.1,1,0.2c0.2,0.1,0.4,0.3,0.5,0.6c0.1,0.3,0.2,0.7,0.2,1.3c0,0.6-0.1,1.1-0.3,1.4
		c-0.2,0.3-0.5,0.6-0.9,0.7C790.5-12.9,790-12.9,789.3-12.9z"/>
</g>
<g>
	<defs>
		<rect id="SVGID_27_" x="667" y="-33" width="141" height="53"/>
	</defs>
	<clipPath id="SVGID_28_">
		<use xlink:href="#SVGID_27_"  style="overflow:visible;"/>
	</clipPath>
	<path class="st14" d="M674.1,11.1c-0.6,0-1.2,0-1.8-0.1c-0.7,0-1.3-0.1-1.8-0.2V9.7c1.3,0.1,2.4,0.2,3.3,0.2c0.5,0,1,0,1.3-0.1
		c0.3,0,0.6-0.1,0.8-0.2c0.2-0.1,0.3-0.3,0.4-0.5s0.1-0.5,0.1-0.9c0-0.5,0-0.8-0.1-1c-0.1-0.2-0.2-0.3-0.4-0.4
		c-0.2-0.1-0.5-0.2-1-0.2l-2.5-0.3c-0.6-0.1-1.1-0.2-1.4-0.4c-0.3-0.2-0.5-0.5-0.6-0.9c-0.1-0.4-0.2-0.8-0.2-1.4
		c0-0.8,0.1-1.4,0.4-1.9c0.3-0.4,0.7-0.7,1.2-0.8s1.2-0.2,2.1-0.2c0.6,0,1.2,0,1.8,0.1s1.1,0.1,1.4,0.2V2c-0.4-0.1-0.8-0.1-1.4-0.1
		c-0.6,0-1.1-0.1-1.6-0.1c-0.6,0-1,0-1.3,0.1c-0.3,0.1-0.6,0.1-0.8,0.3c-0.2,0.1-0.3,0.3-0.4,0.5c-0.1,0.2-0.1,0.5-0.1,0.9
		c0,0.4,0,0.7,0.1,0.9c0.1,0.2,0.2,0.3,0.3,0.4c0.2,0.1,0.5,0.1,0.8,0.2l2.5,0.3c0.6,0.1,1.1,0.2,1.4,0.3c0.3,0.1,0.6,0.4,0.7,0.8
		c0.1,0.4,0.2,0.9,0.2,1.7c0,0.9-0.1,1.6-0.4,2c-0.3,0.4-0.7,0.7-1.1,0.9S674.9,11.1,674.1,11.1z M683.2,11.1
		c-1.1,0-1.8-0.1-2.3-0.3c-0.5-0.2-0.8-0.6-0.9-1.1s-0.2-1.4-0.2-2.5s0.1-2,0.2-2.5s0.4-0.9,0.9-1.1s1.2-0.3,2.3-0.3
		c1.1,0,1.8,0.1,2.3,0.3s0.8,0.6,0.9,1.1s0.2,1.4,0.2,2.5s-0.1,2-0.2,2.5s-0.4,0.9-0.9,1.1C685,11,684.3,11.1,683.2,11.1z M683.2,10
		c0.7,0,1.2-0.1,1.5-0.2c0.3-0.1,0.5-0.4,0.5-0.7s0.1-1,0.1-1.9s0-1.6-0.1-1.9s-0.2-0.6-0.5-0.7c-0.3-0.1-0.8-0.2-1.5-0.2
		c-0.7,0-1.2,0.1-1.5,0.2c-0.3,0.1-0.5,0.4-0.5,0.7s-0.1,1-0.1,1.9s0,1.6,0.1,1.9s0.2,0.6,0.5,0.7C682,9.9,682.5,10,683.2,10z
		 M689.8,4.5h-1.6V3.4h1.6V2.2c0-0.7,0.1-1.2,0.3-1.6c0.2-0.3,0.5-0.5,0.9-0.6c0.4-0.1,1.1-0.1,2-0.1v1c-0.6,0-1,0-1.3,0.1
		c-0.3,0.1-0.5,0.2-0.6,0.3C691,1.4,691,1.7,691,2v1.4h2v1.1h-2V11h-1.2V4.5z M695.5,11V4.5h-1.5V3.4h1.5V1.1h1.2v2.2h1.8v1.1h-1.8
		V11H695.5z M707,11l-1.8-5.5h-0.1l-1.7,5.5H702l-2.4-7.7h1.3l1.9,6.1h0.1l1.9-6.1h1.2l1.9,6.1h0.1l1.9-6.1h1.2l-2.4,7.7H707z
		 M714.9,11.1c-0.9,0-1.5-0.2-1.9-0.5s-0.6-0.9-0.6-1.7c0-0.6,0.1-1.1,0.2-1.4s0.4-0.6,0.7-0.7c0.3-0.1,0.8-0.2,1.4-0.2
		c0.3,0,1.2,0,2.9,0.1V6.2c0-0.6-0.1-1-0.2-1.3s-0.3-0.4-0.6-0.5c-0.3-0.1-0.8-0.1-1.6-0.1c-0.3,0-0.7,0-1.2,0.1
		c-0.5,0-0.9,0.1-1.1,0.1V3.4c0.8-0.1,1.7-0.2,2.8-0.2c0.9,0,1.6,0.1,2,0.3c0.4,0.2,0.7,0.5,0.9,0.9c0.2,0.4,0.2,1,0.2,1.8V11h-1.1
		l-0.1-1.1h-0.1c-0.2,0.5-0.5,0.8-1,1S715.5,11.1,714.9,11.1z M715.4,10c0.5,0,0.9,0,1.2-0.1c0.3-0.1,0.5-0.3,0.7-0.5
		c0.2-0.4,0.3-0.9,0.3-1.5V7.5H715c-0.4,0-0.7,0-0.9,0.1c-0.2,0.1-0.3,0.2-0.4,0.4c-0.1,0.2-0.1,0.4-0.1,0.8c0,0.4,0,0.6,0.1,0.8
		s0.3,0.3,0.5,0.4S714.9,10,715.4,10z M721.7,3.4h1.1l0.1,1.5h0.1c0.2-0.6,0.5-1,0.9-1.2c0.4-0.2,1-0.3,1.7-0.3v1.3
		c-0.7,0-1.2,0.1-1.6,0.3c-0.4,0.2-0.6,0.5-0.8,1c-0.1,0.4-0.2,1-0.2,1.8V11h-1.2V3.4z M733.4,7.6h-5.2c0,0.7,0,1.3,0.2,1.6
		c0.1,0.3,0.3,0.5,0.7,0.7c0.3,0.1,0.9,0.2,1.7,0.2c0.8,0,1.6-0.1,2.4-0.2v1.1c-0.3,0.1-0.7,0.1-1.2,0.2c-0.5,0-1,0.1-1.5,0.1
		c-1,0-1.8-0.1-2.3-0.4c-0.5-0.2-0.8-0.6-1-1.2c-0.2-0.5-0.2-1.3-0.2-2.4c0-1.1,0.1-1.9,0.2-2.4c0.1-0.5,0.4-0.9,0.9-1.2
		c0.5-0.3,1.2-0.4,2.3-0.4c1,0,1.7,0.1,2.1,0.4c0.4,0.3,0.7,0.6,0.8,1.2s0.2,1.3,0.2,2.4V7.6z M730.3,4.3c-0.7,0-1.1,0.1-1.4,0.2
		c-0.3,0.1-0.5,0.3-0.6,0.6c-0.1,0.3-0.1,0.8-0.2,1.5h4.1V6.6c0-0.7-0.1-1.1-0.2-1.5s-0.3-0.5-0.6-0.6
		C731.2,4.4,730.8,4.3,730.3,4.3z M739.7,0.7h3.3c1.4,0,2.4,0.1,3,0.4c0.6,0.3,1,0.7,1.1,1.4c0.2,0.7,0.2,1.8,0.2,3.4
		s-0.1,2.7-0.2,3.4c-0.2,0.7-0.5,1.1-1.1,1.4c-0.6,0.3-1.6,0.4-3,0.4h-3.3V0.7z M742.8,9.8c1.2,0,2-0.1,2.4-0.2
		c0.4-0.1,0.7-0.4,0.8-0.9s0.2-1.4,0.2-2.8c0-1.4-0.1-2.3-0.2-2.8s-0.4-0.8-0.8-0.9s-1.2-0.2-2.3-0.2H741v7.9H742.8z M756.3,7.6
		h-5.2c0,0.7,0,1.3,0.2,1.6c0.1,0.3,0.3,0.5,0.7,0.7c0.3,0.1,0.9,0.2,1.7,0.2c0.8,0,1.6-0.1,2.4-0.2v1.1c-0.3,0.1-0.7,0.1-1.2,0.2
		c-0.5,0-1,0.1-1.5,0.1c-1,0-1.8-0.1-2.3-0.4c-0.5-0.2-0.8-0.6-1-1.2c-0.2-0.5-0.2-1.3-0.2-2.4c0-1.1,0.1-1.9,0.2-2.4
		c0.1-0.5,0.4-0.9,0.9-1.2c0.5-0.3,1.2-0.4,2.3-0.4c1,0,1.7,0.1,2.1,0.4c0.4,0.3,0.7,0.6,0.8,1.2s0.2,1.3,0.2,2.4V7.6z M753.2,4.3
		c-0.7,0-1.1,0.1-1.4,0.2c-0.3,0.1-0.5,0.3-0.6,0.6c-0.1,0.3-0.1,0.8-0.2,1.5h4.1V6.6c0-0.7-0.1-1.1-0.2-1.5s-0.3-0.5-0.6-0.6
		C754.1,4.4,753.7,4.3,753.2,4.3z M760.6,11l-2.8-7.7h1.3l2.3,6.3h0.1l2.3-6.3h1.2l-2.8,7.7H760.6z M766.5,11V9.5h1.4V11H766.5z
		 M781.2,11l-1.1-2.7h-4.7l-1.1,2.7h-1.3L777,0.7h1.6l3.9,10.3H781.2z M777.8,2.1L777.8,2.1l-2,5h3.9L777.8,2.1z M786.6,11
		l-3.7-10.3h1.3l3.2,8.7h0.1l3.2-8.7h1.3L788.2,11H786.6z M803.6,11V2.9h-0.1L800,11H799l-3.5-8.1h-0.1V11h-1.2V0.7h1.7l3.5,8h0.1
		l3.5-8h1.7V11H803.6z"/>
</g>
<g>
	<defs>
		<rect id="SVGID_29_" x="658" y="82" width="153" height="73"/>
	</defs>
	<clipPath id="SVGID_30_">
		<use xlink:href="#SVGID_29_"  style="overflow:visible;"/>
	</clipPath>
	<path class="st15" d="M669,85c-4.4,0-8,3.6-8,8v50c0,4.4,3.6,8,8,8h130c4.4,0,8-3.6,8-8V93c0-4.4-3.6-8-8-8H669z"/>
</g>
<g>
	<defs>
		<rect id="SVGID_31_" x="658" y="82" width="153" height="73"/>
	</defs>
	<clipPath id="SVGID_32_">
		<use xlink:href="#SVGID_31_"  style="overflow:visible;"/>
	</clipPath>
	<path class="st16" d="M669,85c-4.4,0-8,3.6-8,8v50c0,4.4,3.6,8,8,8h130c4.4,0,8-3.6,8-8V93c0-4.4-3.6-8-8-8H669z"/>
</g>
<g>
	<defs>
		<rect id="SVGID_33_" x="672" y="92" width="125" height="53"/>
	</defs>
	<clipPath id="SVGID_34_">
		<use xlink:href="#SVGID_33_"  style="overflow:visible;"/>
	</clipPath>
	<path class="st17" d="M683.2,112v-9.1h-3.3v-1.2h7.8v1.2h-3.3v9.1H683.2z M695.4,108.6h-5.2c0,0.7,0,1.3,0.2,1.6
		c0.1,0.3,0.3,0.5,0.7,0.7c0.3,0.1,0.9,0.2,1.7,0.2c0.8,0,1.6-0.1,2.4-0.2v1.1c-0.3,0.1-0.7,0.1-1.2,0.2c-0.5,0-1,0.1-1.5,0.1
		c-1,0-1.8-0.1-2.3-0.4c-0.5-0.2-0.8-0.6-1-1.2c-0.2-0.5-0.2-1.3-0.2-2.4c0-1.1,0.1-1.9,0.2-2.4c0.1-0.5,0.4-0.9,0.9-1.2
		c0.5-0.3,1.2-0.4,2.3-0.4c1,0,1.7,0.1,2.1,0.4c0.4,0.3,0.7,0.6,0.8,1.2s0.2,1.3,0.2,2.4V108.6z M692.3,105.4
		c-0.7,0-1.1,0.1-1.4,0.2s-0.5,0.3-0.6,0.6s-0.1,0.8-0.2,1.5h4.1v-0.1c0-0.7-0.1-1.1-0.2-1.5s-0.3-0.5-0.6-0.6
		S692.8,105.4,692.3,105.4z M700,112.1c-0.9,0-1.5-0.2-1.9-0.5c-0.4-0.3-0.6-0.9-0.6-1.7c0-0.6,0.1-1,0.2-1.4s0.4-0.6,0.7-0.7
		c0.3-0.1,0.8-0.2,1.4-0.2c0.3,0,1.2,0,2.9,0.1v-0.5c0-0.6-0.1-1-0.2-1.3s-0.3-0.4-0.6-0.5c-0.3-0.1-0.8-0.1-1.6-0.1
		c-0.3,0-0.7,0-1.2,0.1c-0.5,0-0.9,0.1-1.1,0.1v-1.1c0.8-0.1,1.7-0.2,2.8-0.2c0.9,0,1.6,0.1,2,0.3c0.4,0.2,0.7,0.5,0.9,0.9
		c0.2,0.4,0.2,1,0.2,1.8v4.8h-1.1l-0.1-1.1h-0.1c-0.2,0.5-0.5,0.8-1,1S700.6,112.1,700,112.1z M700.4,111c0.5,0,0.9,0,1.2-0.1
		s0.5-0.3,0.7-0.5c0.2-0.4,0.3-0.9,0.3-1.5v-0.3h-2.5c-0.4,0-0.7,0-0.9,0.1c-0.2,0.1-0.3,0.2-0.4,0.4c-0.1,0.2-0.1,0.4-0.1,0.8
		c0,0.4,0,0.6,0.1,0.8c0.1,0.2,0.3,0.3,0.5,0.4S699.9,111,700.4,111z M716.1,107.7c0-0.7,0-1.2-0.1-1.5c-0.1-0.3-0.2-0.5-0.4-0.6
		c-0.2-0.1-0.6-0.1-1.1-0.1c-0.6,0-1,0.1-1.2,0.3s-0.4,0.5-0.5,0.8c-0.1,0.4-0.1,0.9-0.1,1.5v3.9h-1.2v-4.3c0-0.7,0-1.2-0.1-1.5
		c-0.1-0.3-0.2-0.5-0.4-0.6c-0.2-0.1-0.6-0.1-1.1-0.1c-0.6,0-1,0.1-1.2,0.3c-0.3,0.2-0.4,0.5-0.5,0.8c-0.1,0.4-0.1,0.9-0.1,1.5v3.9
		h-1.2v-7.6h1.1l0.1,1.1h0.1c0.2-0.4,0.4-0.7,0.8-0.9c0.4-0.2,0.9-0.3,1.6-0.3c0.7,0,1.2,0.1,1.5,0.3s0.6,0.5,0.7,0.9h0.1
		c0.3-0.8,1.1-1.2,2.4-1.2c0.7,0,1.2,0.1,1.5,0.3c0.3,0.2,0.6,0.5,0.7,0.9c0.1,0.4,0.2,1,0.2,1.7v4.8h-1.2V107.7z M733.5,112v-8.1
		h-0.1l-3.5,8.1H729l-3.5-8.1h-0.1v8.1h-1.2v-10.3h1.7l3.5,8h0.1l3.5-8h1.7V112H733.5z M744.1,108.6h-5.2c0,0.7,0,1.3,0.2,1.6
		c0.1,0.3,0.3,0.5,0.7,0.7c0.3,0.1,0.9,0.2,1.7,0.2c0.8,0,1.6-0.1,2.4-0.2v1.1c-0.3,0.1-0.7,0.1-1.2,0.2c-0.5,0-1,0.1-1.5,0.1
		c-1,0-1.8-0.1-2.3-0.4c-0.5-0.2-0.8-0.6-1-1.2c-0.2-0.5-0.2-1.3-0.2-2.4c0-1.1,0.1-1.9,0.2-2.4c0.1-0.5,0.4-0.9,0.9-1.2
		c0.5-0.3,1.2-0.4,2.3-0.4c1,0,1.7,0.1,2.1,0.4c0.4,0.3,0.7,0.6,0.8,1.2s0.2,1.3,0.2,2.4V108.6z M741,105.4c-0.7,0-1.1,0.1-1.4,0.2
		s-0.5,0.3-0.6,0.6s-0.1,0.8-0.2,1.5h4.1v-0.1c0-0.7-0.1-1.1-0.2-1.5s-0.3-0.5-0.6-0.6S741.6,105.4,741,105.4z M756.1,107.7
		c0-0.7,0-1.2-0.1-1.5c-0.1-0.3-0.2-0.5-0.4-0.6c-0.2-0.1-0.6-0.1-1.1-0.1c-0.6,0-1,0.1-1.2,0.3s-0.4,0.5-0.5,0.8
		c-0.1,0.4-0.1,0.9-0.1,1.5v3.9h-1.2v-4.3c0-0.7,0-1.2-0.1-1.5c-0.1-0.3-0.2-0.5-0.4-0.6c-0.2-0.1-0.6-0.1-1.1-0.1
		c-0.6,0-1,0.1-1.2,0.3c-0.3,0.2-0.4,0.5-0.5,0.8c-0.1,0.4-0.1,0.9-0.1,1.5v3.9h-1.2v-7.6h1.1l0.1,1.1h0.1c0.2-0.4,0.4-0.7,0.8-0.9
		c0.4-0.2,0.9-0.3,1.6-0.3c0.7,0,1.2,0.1,1.5,0.3s0.6,0.5,0.7,0.9h0.1c0.3-0.8,1.1-1.2,2.4-1.2c0.7,0,1.2,0.1,1.5,0.3
		c0.3,0.2,0.6,0.5,0.7,0.9c0.1,0.4,0.2,1,0.2,1.7v4.8h-1.2V107.7z M764.1,112.1c-0.6,0-1.1-0.1-1.6-0.2c-0.4-0.2-0.7-0.5-0.9-0.9
		h-0.1l-0.1,1.1h-1.1v-11.1h1.2v4.5h0.1c0.2-0.4,0.5-0.7,0.9-0.8c0.4-0.2,0.9-0.2,1.6-0.2c0.8,0,1.3,0.1,1.7,0.3
		c0.4,0.2,0.7,0.6,0.8,1.2c0.2,0.6,0.2,1.4,0.2,2.4s-0.1,1.9-0.2,2.4c-0.2,0.6-0.4,0.9-0.8,1.2C765.4,112,764.8,112.1,764.1,112.1z
		 M763.6,111c0.6,0,1.1-0.1,1.4-0.2s0.5-0.4,0.6-0.7c0.1-0.4,0.1-1,0.1-1.9c0-0.9,0-1.5-0.1-1.8c-0.1-0.4-0.3-0.6-0.6-0.7
		s-0.7-0.2-1.4-0.2c-0.5,0-0.9,0.1-1.2,0.2c-0.3,0.1-0.5,0.3-0.6,0.6c-0.1,0.2-0.2,0.5-0.2,0.8c0,0.3-0.1,0.7-0.1,1.2
		c0,0.5,0,0.9,0,1.2c0,0.3,0.1,0.6,0.2,0.8c0.1,0.3,0.3,0.5,0.6,0.6C762.7,110.9,763.1,111,763.6,111z M775.6,108.6h-5.2
		c0,0.7,0,1.3,0.2,1.6c0.1,0.3,0.3,0.5,0.7,0.7c0.3,0.1,0.9,0.2,1.7,0.2c0.8,0,1.6-0.1,2.4-0.2v1.1c-0.3,0.1-0.7,0.1-1.2,0.2
		c-0.5,0-1,0.1-1.5,0.1c-1,0-1.8-0.1-2.3-0.4c-0.5-0.2-0.8-0.6-1-1.2c-0.2-0.5-0.2-1.3-0.2-2.4c0-1.1,0.1-1.9,0.2-2.4
		c0.1-0.5,0.4-0.9,0.9-1.2c0.5-0.3,1.2-0.4,2.3-0.4c1,0,1.7,0.1,2.1,0.4c0.4,0.3,0.7,0.6,0.8,1.2s0.2,1.3,0.2,2.4V108.6z
		 M772.5,105.4c-0.7,0-1.1,0.1-1.4,0.2s-0.5,0.3-0.6,0.6s-0.1,0.8-0.2,1.5h4.1v-0.1c0-0.7-0.1-1.1-0.2-1.5s-0.3-0.5-0.6-0.6
		S773,105.4,772.5,105.4z M778.1,104.4h1.1l0.1,1.5h0.1c0.2-0.6,0.5-1,0.9-1.2c0.4-0.2,1-0.3,1.7-0.3v1.3c-0.7,0-1.2,0.1-1.6,0.3
		c-0.4,0.2-0.6,0.5-0.8,1c-0.1,0.4-0.2,1-0.2,1.8v3.4h-1.2V104.4z M786.3,112.1c-0.4,0-0.9,0-1.4-0.1c-0.5,0-1-0.1-1.4-0.1v-1.1
		c1,0.1,1.9,0.2,2.7,0.2c0.5,0,0.9,0,1.1-0.1c0.2-0.1,0.4-0.2,0.5-0.3c0.1-0.2,0.1-0.4,0.1-0.7s0-0.5-0.1-0.7s-0.1-0.2-0.3-0.3
		c-0.1,0-0.3-0.1-0.6-0.1l-2-0.2c-0.5,0-0.8-0.2-1.1-0.3c-0.2-0.2-0.4-0.4-0.5-0.7c-0.1-0.3-0.1-0.7-0.1-1.1c0-0.7,0.1-1.1,0.4-1.5
		c0.2-0.3,0.6-0.5,1-0.6c0.4-0.1,1-0.1,1.7-0.1c0.4,0,0.8,0,1.3,0.1c0.4,0,0.8,0.1,1.1,0.1v1.1c-0.8-0.1-1.6-0.2-2.4-0.2
		c-0.5,0-0.8,0-1.1,0.1c-0.2,0-0.4,0.1-0.6,0.3s-0.2,0.4-0.2,0.7c0,0.3,0,0.5,0.1,0.6c0,0.1,0.1,0.2,0.3,0.3c0.1,0,0.3,0.1,0.6,0.1
		l2.1,0.2c0.4,0.1,0.8,0.1,1,0.2c0.2,0.1,0.4,0.3,0.5,0.6s0.2,0.7,0.2,1.3c0,0.6-0.1,1.1-0.3,1.4c-0.2,0.3-0.5,0.6-0.9,0.7
		C787.5,112.1,787,112.1,786.3,112.1z"/>
</g>
<g>
	<defs>
		<rect id="SVGID_35_" x="672" y="92" width="125" height="53"/>
	</defs>
	<clipPath id="SVGID_36_">
		<use xlink:href="#SVGID_35_"  style="overflow:visible;"/>
	</clipPath>
	<path class="st18" d="M675.2,124.3h4.5c0.8,0,1.5,0.1,1.9,0.4c0.4,0.3,0.7,0.6,0.9,1.1c0.1,0.5,0.2,1.1,0.2,1.8
		c0,0.7-0.1,1.3-0.2,1.7c-0.1,0.5-0.4,0.8-0.9,1.1s-1.1,0.4-1.9,0.4h-3.2v3.8h-1.3V124.3z M679.3,129.6c0.7,0,1.1-0.1,1.4-0.2
		c0.3-0.1,0.5-0.3,0.6-0.6c0.1-0.3,0.1-0.7,0.1-1.3s0-1-0.1-1.3c-0.1-0.3-0.3-0.5-0.6-0.6c-0.3-0.1-0.8-0.2-1.4-0.2h-2.8v4.2H679.3z
		 M685.1,126.9h1.1l0.1,1.5h0.1c0.2-0.6,0.5-1,0.9-1.2c0.4-0.2,1-0.3,1.6-0.3v1.3c-0.7,0-1.2,0.1-1.6,0.3c-0.4,0.2-0.6,0.5-0.8,1
		s-0.2,1-0.2,1.8v3.4h-1.2V126.9z M693.7,134.7c-1.1,0-1.8-0.1-2.3-0.3s-0.8-0.6-0.9-1.1c-0.1-0.5-0.2-1.4-0.2-2.5
		c0-1.2,0.1-2,0.2-2.5c0.1-0.5,0.4-0.9,0.9-1.1s1.2-0.3,2.3-0.3c1.1,0,1.8,0.1,2.3,0.3s0.8,0.6,0.9,1.1c0.1,0.5,0.2,1.4,0.2,2.5
		c0,1.2-0.1,2-0.2,2.5c-0.1,0.5-0.4,0.9-0.9,1.1S694.8,134.7,693.7,134.7z M693.7,133.6c0.7,0,1.2-0.1,1.5-0.2
		c0.3-0.1,0.5-0.4,0.5-0.7s0.1-1,0.1-1.9s0-1.6-0.1-1.9s-0.2-0.6-0.5-0.7c-0.3-0.1-0.8-0.2-1.5-0.2s-1.2,0.1-1.5,0.2
		c-0.3,0.1-0.5,0.4-0.5,0.7s-0.1,1-0.1,1.9s0,1.6,0.1,1.9s0.2,0.6,0.5,0.7C692.5,133.5,693,133.6,693.7,133.6z M699.6,124.8v-1.4
		h1.3v1.4H699.6z M698.2,136.6c0.4,0,0.8,0,1-0.1c0.2-0.1,0.3-0.1,0.4-0.2c0.1-0.1,0.1-0.3,0.1-0.5v-8.8h1.2v8.5
		c0,0.7-0.1,1.1-0.2,1.4c-0.2,0.3-0.4,0.5-0.8,0.6c-0.4,0.1-0.9,0.1-1.6,0.1V136.6z M709.7,131.2h-5.2c0,0.7,0.1,1.3,0.2,1.6
		s0.3,0.5,0.7,0.7s0.9,0.2,1.7,0.2c0.8,0,1.6-0.1,2.4-0.2v1.1c-0.3,0.1-0.7,0.1-1.2,0.2c-0.5,0-1,0.1-1.5,0.1c-1,0-1.8-0.1-2.3-0.4
		s-0.8-0.6-1-1.2c-0.1-0.5-0.2-1.3-0.2-2.4c0-1.1,0.1-1.9,0.2-2.4s0.4-0.9,0.9-1.2c0.5-0.3,1.2-0.4,2.3-0.4c1,0,1.7,0.1,2.1,0.4
		s0.7,0.6,0.8,1.2c0.1,0.5,0.2,1.3,0.2,2.4V131.2z M706.6,127.9c-0.6,0-1.1,0.1-1.4,0.2s-0.5,0.3-0.6,0.6c-0.1,0.3-0.1,0.8-0.2,1.5
		h4.1v-0.1c0-0.7-0.1-1.1-0.2-1.5s-0.3-0.5-0.6-0.6S707.1,127.9,706.6,127.9z M717.1,134.5c-0.3,0-0.6,0.1-1,0.1
		c-0.4,0-0.8,0.1-1.1,0.1c-0.9,0-1.6-0.1-2.1-0.4c-0.4-0.3-0.7-0.7-0.8-1.2s-0.2-1.3-0.2-2.3c0-1,0.1-1.8,0.2-2.3
		c0.2-0.6,0.4-1,0.9-1.2c0.4-0.3,1.1-0.4,2-0.4c0.3,0,0.7,0,1.1,0.1c0.4,0,0.7,0.1,1,0.1v1.1c-0.6-0.1-1.2-0.2-1.8-0.2
		c-0.6,0-1.1,0.1-1.4,0.2c-0.3,0.2-0.5,0.4-0.6,0.8s-0.2,1-0.2,1.8c0,0.8,0.1,1.5,0.2,1.8c0.1,0.4,0.3,0.6,0.6,0.8
		c0.3,0.1,0.8,0.2,1.4,0.2c0.5,0,1.1,0,1.8-0.1V134.5z M719.9,134.6V128h-1.5v-1.1h1.5v-2.2h1.2v2.2h1.8v1.1h-1.8v6.5H719.9z
		 M728.7,124.3h3.3c1.4,0,2.4,0.1,3,0.4c0.6,0.3,1,0.7,1.1,1.4c0.2,0.7,0.2,1.8,0.2,3.4c0,1.6-0.1,2.7-0.2,3.4
		c-0.2,0.7-0.5,1.1-1.1,1.4c-0.6,0.3-1.6,0.4-3,0.4h-3.3V124.3z M731.8,133.4c1.2,0,2-0.1,2.4-0.2s0.7-0.4,0.8-0.9s0.2-1.4,0.2-2.8
		c0-1.4-0.1-2.3-0.2-2.8s-0.4-0.8-0.8-0.9s-1.2-0.2-2.3-0.2H730v7.9H731.8z M745.2,131.2H740c0,0.7,0.1,1.3,0.2,1.6s0.3,0.5,0.7,0.7
		s0.9,0.2,1.7,0.2c0.8,0,1.6-0.1,2.4-0.2v1.1c-0.3,0.1-0.7,0.1-1.2,0.2c-0.5,0-1,0.1-1.5,0.1c-1,0-1.8-0.1-2.3-0.4s-0.8-0.6-1-1.2
		c-0.1-0.5-0.2-1.3-0.2-2.4c0-1.1,0.1-1.9,0.2-2.4s0.4-0.9,0.9-1.2c0.5-0.3,1.2-0.4,2.3-0.4c1,0,1.7,0.1,2.1,0.4s0.7,0.6,0.8,1.2
		c0.1,0.5,0.2,1.3,0.2,2.4V131.2z M742.1,127.9c-0.6,0-1.1,0.1-1.4,0.2s-0.5,0.3-0.6,0.6c-0.1,0.3-0.1,0.8-0.2,1.5h4.1v-0.1
		c0-0.7-0.1-1.1-0.2-1.5s-0.3-0.5-0.6-0.6S742.7,127.9,742.1,127.9z M749.5,134.6l-2.8-7.7h1.3l2.3,6.3h0.1l2.3-6.3h1.2l-2.8,7.7
		H749.5z M755.5,134.6V133h1.4v1.5H755.5z M770.1,134.6l-1.1-2.7h-4.6l-1.1,2.7H762l3.9-10.3h1.6l3.9,10.3H770.1z M766.7,125.6
		L766.7,125.6l-2,5h3.9L766.7,125.6z M775.6,134.6l-3.7-10.3h1.3l3.2,8.7h0.1l3.2-8.7h1.3l-3.7,10.3H775.6z M792.5,134.6v-8.1h-0.1
		l-3.5,8.1H788l-3.5-8.1h-0.1v8.1h-1.2v-10.3h1.7l3.5,8h0.1l3.5-8h1.7v10.3H792.5z"/>
</g>
<g>
	<defs>
		<rect id="SVGID_37_" x="499" y="-150" width="395" height="273"/>
	</defs>
	<clipPath id="SVGID_38_">
		<use xlink:href="#SVGID_37_"  style="overflow:visible;"/>
	</clipPath>
	<path class="st19" d="M892-146.6C528-148,501,119,661,118.3"/>
</g>
<g>
	<defs>
		<rect id="SVGID_39_" x="499" y="-150" width="395" height="273"/>
	</defs>
	<clipPath id="SVGID_40_">
		<use xlink:href="#SVGID_39_"  style="overflow:visible;"/>
	</clipPath>
	<path class="st20" d="M655.8,121.3l5.2-3l-5.2-3L655.8,121.3z"/>
</g>
<g>
	<defs>
		<rect id="SVGID_41_" x="499" y="-150" width="395" height="273"/>
	</defs>
	<clipPath id="SVGID_42_">
		<use xlink:href="#SVGID_41_"  style="overflow:visible;"/>
	</clipPath>
	<path class="st21" d="M655.8,121.3l5.2-3l-5.2-3L655.8,121.3z"/>
</g>
<g>
	<defs>
		<rect id="SVGID_43_" x="548" y="-148" width="346" height="47"/>
	</defs>
	<clipPath id="SVGID_44_">
		<use xlink:href="#SVGID_43_"  style="overflow:visible;"/>
	</clipPath>
	<path class="st22" d="M892-146C626-146,550-7,656-7"/>
</g>
<g>
	<defs>
		<rect id="SVGID_45_" x="548" y="-52" width="346" height="50"/>
	</defs>
	<clipPath id="SVGID_46_">
		<use xlink:href="#SVGID_45_"  style="overflow:visible;"/>
	</clipPath>
	<path class="st23" d="M892-146C626-146,550-7,656-7"/>
</g>
<g>
	<defs>
		<rect id="SVGID_47_" x="548" y="-103" width="29" height="53"/>
	</defs>
	<clipPath id="SVGID_48_">
		<use xlink:href="#SVGID_47_"  style="overflow:visible;"/>
	</clipPath>
	<path class="st24" d="M892-146C626-146,550-7,656-7"/>
</g>
<g>
	<defs>
		<rect id="SVGID_49_" x="693" y="-103" width="201" height="53"/>
	</defs>
	<clipPath id="SVGID_50_">
		<use xlink:href="#SVGID_49_"  style="overflow:visible;"/>
	</clipPath>
	<path class="st25" d="M892-146C626-146,550-7,656-7"/>
</g>
<g>
	<defs>
		<rect id="SVGID_51_" x="575" y="-103" width="120" height="53"/>
	</defs>
	<clipPath id="SVGID_52_">
		<use xlink:href="#SVGID_51_"  style="overflow:visible;"/>
	</clipPath>
	<path class="st26" d="M892-146C626-146,550-7,656-7"/>
</g>
<g>
	<defs>
		<rect id="SVGID_53_" x="548" y="-148" width="346" height="146"/>
	</defs>
	<clipPath id="SVGID_54_">
		<use xlink:href="#SVGID_53_"  style="overflow:visible;"/>
	</clipPath>
	<path class="st27" d="M650.8-4l5.2-3l-5.2-3V-4z"/>
</g>
<g>
	<defs>
		<rect id="SVGID_55_" x="548" y="-148" width="346" height="146"/>
	</defs>
	<clipPath id="SVGID_56_">
		<use xlink:href="#SVGID_55_"  style="overflow:visible;"/>
	</clipPath>
	<path class="st28" d="M650.8-4l5.2-3l-5.2-3V-4z"/>
</g>
<g>
	<defs>
		<rect id="SVGID_57_" x="575" y="-103" width="120" height="53"/>
	</defs>
	<clipPath id="SVGID_58_">
		<use xlink:href="#SVGID_57_"  style="overflow:visible;"/>
	</clipPath>
	<path class="st29" d="M608.2-84.4l-0.7-2.9h-3.2l-0.7,2.9h-1.1l2.7-10.3h1.5l2.7,10.3H608.2z M605.9-93.4L605.9-93.4l-1.3,5.1h2.6
		L605.9-93.4z M612-84.4l-2.6-10.3h1.2l2.1,8.8h0.1l2.1-8.8h1.1l-2.6,10.3H612z M624.2-84.4v-8.4h-0.1l-2.3,8.4h-1l-2.3-8.4h-0.1
		v8.4h-1.1v-10.3h1.6l2.3,8.4h0.1l2.3-8.4h1.6v10.3H624.2z M630.7-84.4v-10.3h1.1v10.3H630.7z M635.9-84.3c-0.3,0-0.7,0-1.1-0.1
		s-0.7-0.1-1-0.1v-0.9c0.6,0.1,1.3,0.2,2,0.2c0.4,0,0.7-0.1,0.9-0.2c0.2-0.1,0.3-0.2,0.4-0.4c0.1-0.2,0.1-0.4,0.1-0.7
		c0-0.4,0-0.6-0.1-0.8s-0.1-0.3-0.2-0.3s-0.3-0.1-0.5-0.1l-1.5-0.2c-0.5-0.1-0.8-0.3-1-0.5c-0.2-0.3-0.3-0.8-0.3-1.4
		c0-0.6,0.1-1.1,0.3-1.4s0.5-0.5,0.8-0.7c0.3-0.1,0.8-0.2,1.3-0.2c0.3,0,0.6,0,1,0.1c0.4,0,0.6,0.1,0.8,0.2v0.9
		c-0.2-0.1-0.5-0.1-0.8-0.1c-0.3,0-0.7-0.1-1-0.1c-0.5,0-0.8,0.1-1,0.3s-0.3,0.5-0.3,1c0,0.3,0,0.6,0.1,0.7c0,0.2,0.1,0.3,0.2,0.3
		c0.1,0.1,0.3,0.1,0.5,0.1l1.5,0.2c0.3,0,0.6,0.1,0.8,0.2s0.3,0.3,0.4,0.6c0.1,0.3,0.1,0.7,0.1,1.2c0,0.8-0.2,1.4-0.5,1.7
		C637.2-84.5,636.7-84.3,635.9-84.3z M641.7-84.3c-0.3,0-0.7,0-1.1-0.1s-0.7-0.1-1-0.1v-0.9c0.6,0.1,1.3,0.2,2,0.2
		c0.4,0,0.7-0.1,0.9-0.2c0.2-0.1,0.3-0.2,0.4-0.4c0.1-0.2,0.1-0.4,0.1-0.7c0-0.4,0-0.6-0.1-0.8s-0.1-0.3-0.2-0.3s-0.3-0.1-0.5-0.1
		l-1.5-0.2c-0.5-0.1-0.8-0.3-1-0.5c-0.2-0.3-0.3-0.8-0.3-1.4c0-0.6,0.1-1.1,0.3-1.4s0.5-0.5,0.8-0.7c0.3-0.1,0.8-0.2,1.3-0.2
		c0.3,0,0.6,0,1,0.1c0.4,0,0.6,0.1,0.8,0.2v0.9c-0.2-0.1-0.5-0.1-0.8-0.1c-0.3,0-0.7-0.1-1-0.1c-0.5,0-0.8,0.1-1,0.3s-0.3,0.5-0.3,1
		c0,0.3,0,0.6,0.1,0.7c0,0.2,0.1,0.3,0.2,0.3c0.1,0.1,0.3,0.1,0.5,0.1l1.5,0.2c0.3,0,0.6,0.1,0.8,0.2s0.3,0.3,0.4,0.6
		c0.1,0.3,0.1,0.7,0.1,1.2c0,0.8-0.2,1.4-0.5,1.7C643.1-84.5,642.5-84.3,641.7-84.3z M649.5-85.5L649.5-85.5
		c-0.2,0.4-0.4,0.7-0.7,0.9c-0.3,0.2-0.7,0.3-1.3,0.3c-0.6,0-1-0.1-1.3-0.3c-0.3-0.2-0.5-0.5-0.6-0.9s-0.1-1-0.1-1.7v-4.8h1.1v4.5
		c0,0.7,0,1.3,0.1,1.6c0.1,0.3,0.2,0.5,0.4,0.6c0.2,0.1,0.5,0.2,0.9,0.2c0.5,0,0.8-0.1,1-0.3c0.2-0.2,0.3-0.5,0.4-0.9
		c0.1-0.4,0.1-0.9,0.1-1.6v-4h1.1v7.7h-0.9L649.5-85.5z M652.6-94.3v-1.2h1.1v1.2H652.6z M652.6-84.4v-7.7h1.1v7.7H652.6z
		 M659.5-88.9c0-0.7,0-1.2-0.1-1.6c-0.1-0.3-0.2-0.5-0.4-0.6c-0.2-0.1-0.5-0.2-0.9-0.2c-0.5,0-0.8,0.1-1,0.3
		c-0.2,0.2-0.3,0.5-0.4,0.9c0,0.4-0.1,0.9-0.1,1.6v4h-1.1v-7.7h0.9l0.1,1.1h0.1c0.1-0.4,0.3-0.7,0.6-0.9c0.3-0.2,0.7-0.3,1.3-0.3
		c0.6,0,1,0.1,1.3,0.3s0.5,0.5,0.6,0.9c0.1,0.4,0.1,1,0.1,1.7v4.8h-1.1V-88.9z M664.7-81.4c-0.7,0-1.4,0-2-0.1v-0.9
		c0.8,0,1.4,0.1,1.8,0.1c0.6,0,1-0.1,1.3-0.2c0.3-0.2,0.4-0.4,0.5-0.8s0.1-1,0.1-1.8v-0.2h-0.1c-0.1,0.4-0.3,0.7-0.6,0.8
		s-0.7,0.2-1.2,0.2c-0.6,0-1.1-0.1-1.4-0.3c-0.3-0.2-0.5-0.6-0.6-1.2s-0.2-1.4-0.2-2.4c0-1.1,0.1-1.9,0.2-2.4
		c0.1-0.6,0.3-0.9,0.6-1.2c0.3-0.2,0.8-0.3,1.4-0.3c0.4,0,0.8,0.1,1.1,0.2c0.3,0.2,0.5,0.5,0.7,0.9h0.1l0.1-1.1h0.9v6.5
		c0,1.1-0.1,1.9-0.2,2.5s-0.4,1-0.8,1.2C666.2-81.6,665.5-81.4,664.7-81.4z M665-85.3c0.4,0,0.7-0.1,0.9-0.2
		c0.2-0.2,0.4-0.4,0.4-0.7c0.1-0.4,0.2-1.1,0.2-2c0-0.5,0-0.9,0-1.2c0-0.3-0.1-0.5-0.1-0.8c-0.1-0.4-0.2-0.7-0.4-0.8
		c-0.2-0.2-0.5-0.2-0.9-0.2c-0.5,0-0.8,0.1-1,0.2c-0.2,0.1-0.3,0.4-0.4,0.8c-0.1,0.4-0.1,1.1-0.1,2c0,0.9,0,1.6,0.1,2
		c0.1,0.4,0.2,0.7,0.4,0.8C664.2-85.4,664.5-85.3,665-85.3z"/>
</g>
<g>
	<defs>
		<rect id="SVGID_59_" x="575" y="-103" width="120" height="53"/>
	</defs>
	<clipPath id="SVGID_60_">
		<use xlink:href="#SVGID_59_"  style="overflow:visible;"/>
	</clipPath>
	<path class="st30" d="M580.1-57.8c-0.5-0.7-0.8-1.3-1.1-1.8c-0.2-0.5-0.4-1.1-0.5-1.8c-0.1-0.7-0.2-1.7-0.2-3c0-1.3,0.1-2.3,0.2-3
		c0.1-0.7,0.3-1.3,0.5-1.8c0.2-0.5,0.6-1.1,1-1.8h0.9c-0.4,0.7-0.7,1.3-0.9,1.7s-0.3,1-0.4,1.8c-0.1,0.8-0.2,1.8-0.2,3.2
		s0.1,2.4,0.2,3.2s0.3,1.4,0.4,1.8c0.2,0.4,0.5,1,0.9,1.7H580.1z M587.3-60.1l-0.7-2.9h-3.2l-0.7,2.9h-1.1l2.7-10.3h1.5l2.7,10.3
		H587.3z M585-69L585-69l-1.3,5.1h2.6L585-69z M590-60.1v-10.3h1.1v9.3h3.3v1H590z M598.6-64.6v-1h2.6v5.3c-0.4,0.1-0.8,0.1-1.2,0.2
		s-0.9,0.1-1.2,0.1c-0.9,0-1.6-0.1-2-0.4s-0.7-0.8-0.9-1.5c-0.2-0.7-0.3-1.9-0.3-3.4c0-1.5,0.1-2.6,0.3-3.4c0.2-0.7,0.5-1.2,0.9-1.5
		s1.1-0.4,2-0.4c0.4,0,0.8,0,1.3,0.1c0.5,0.1,0.8,0.1,1.1,0.2v0.9c-0.3-0.1-0.6-0.1-1-0.2c-0.4,0-0.7-0.1-0.9-0.1
		c-0.8,0-1.4,0.1-1.7,0.2s-0.5,0.5-0.7,1.1c-0.1,0.6-0.2,1.6-0.2,3c0,1.3,0,2.2,0.1,2.8c0.1,0.6,0.3,1,0.6,1.2
		c0.3,0.2,0.7,0.3,1.4,0.3c0.5,0,1,0,1.3-0.1v-3.6H598.6z M606.2-59.9c-1,0-1.7-0.1-2.1-0.4c-0.4-0.3-0.7-0.7-0.8-1.4
		c-0.1-0.7-0.2-1.8-0.2-3.4c0-1.6,0.1-2.8,0.2-3.4s0.4-1.2,0.8-1.4c0.4-0.3,1.1-0.4,2.1-0.4c1,0,1.7,0.1,2.1,0.4
		c0.4,0.3,0.7,0.7,0.8,1.4s0.2,1.8,0.2,3.4c0,1.6-0.1,2.8-0.2,3.4c-0.1,0.7-0.4,1.2-0.8,1.4C607.8-60.1,607.1-59.9,606.2-59.9z
		 M606.2-60.9c0.6,0,1.1-0.1,1.3-0.2c0.3-0.2,0.4-0.5,0.5-1.1c0.1-0.6,0.1-1.6,0.1-3s0-2.4-0.1-3c-0.1-0.6-0.2-0.9-0.5-1.1
		s-0.7-0.2-1.3-0.2c-0.6,0-1.1,0.1-1.3,0.2s-0.4,0.5-0.5,1.1c-0.1,0.6-0.1,1.6-0.1,3s0,2.4,0.1,3c0.1,0.6,0.2,0.9,0.5,1.1
		C605.1-61,605.5-60.9,606.2-60.9z M616-60.1l-2.6-10.3h1.2l2.1,8.8h0.1l2.1-8.8h1.1l-2.6,10.3H616z M621.3-70v-1.2h1.1v1.2H621.3z
		 M621.3-60.1v-7.7h1.1v7.7H621.3z M624.3-67.7h0.9l0.1,1.4h0.1c0.1-0.6,0.4-1,0.7-1.2s0.8-0.3,1.3-0.3v1.1c-0.5,0-0.9,0.1-1.2,0.3
		c-0.3,0.2-0.5,0.5-0.6,1c-0.1,0.4-0.2,1-0.2,1.7v3.6h-1.1V-67.7z M629.3-60.1v-6.7h-1.1v-0.9h1.1v-2.2h1.1v2.2h1.3v0.9h-1.3v6.7
		H629.3z M636.9-61.1L636.9-61.1c-0.2,0.4-0.4,0.7-0.7,0.9c-0.3,0.2-0.7,0.3-1.3,0.3c-0.6,0-1-0.1-1.3-0.3c-0.3-0.2-0.5-0.5-0.6-0.9
		c-0.1-0.4-0.1-1-0.1-1.7v-4.8h1.1v4.5c0,0.7,0,1.3,0.1,1.6s0.2,0.5,0.4,0.6c0.2,0.1,0.5,0.2,0.9,0.2c0.5,0,0.8-0.1,1-0.3
		c0.2-0.2,0.3-0.5,0.4-0.9s0.1-0.9,0.1-1.6v-4h1.1v7.7H637L636.9-61.1z M641.6-59.9c-0.7,0-1.2-0.2-1.5-0.5
		c-0.3-0.3-0.5-0.9-0.5-1.7c0-0.6,0.1-1,0.2-1.4c0.1-0.3,0.3-0.6,0.6-0.7s0.7-0.2,1.2-0.2c0.3,0,1,0,2,0.1v-0.5c0-0.6,0-1.1-0.1-1.4
		c-0.1-0.3-0.2-0.5-0.5-0.5c-0.2-0.1-0.6-0.1-1.1-0.1c-0.2,0-0.5,0-0.9,0.1c-0.4,0-0.7,0.1-0.9,0.1v-0.9c0.6-0.1,1.4-0.2,2.1-0.2
		c0.7,0,1.2,0.1,1.6,0.3c0.3,0.2,0.6,0.5,0.7,0.9c0.1,0.4,0.2,1,0.2,1.8v4.8h-0.9l-0.1-1.1h-0.1c-0.1,0.5-0.4,0.8-0.7,0.9
		C642.4-60,642-59.9,641.6-59.9z M641.9-60.8c0.3,0,0.6,0,0.9-0.1c0.2-0.1,0.4-0.3,0.5-0.5c0.2-0.4,0.2-0.9,0.2-1.6v-0.5h-1.7
		c-0.3,0-0.6,0-0.7,0.1c-0.2,0.1-0.3,0.2-0.3,0.4c-0.1,0.2-0.1,0.5-0.1,0.9c0,0.4,0,0.7,0.1,0.9c0.1,0.2,0.2,0.3,0.4,0.4
		C641.3-60.9,641.6-60.8,641.9-60.8z M646.6-60.1v-11.1h1.1v11.1H646.6z M659.5-60.1v-8.4h-0.1l-2.3,8.4h-1l-2.3-8.4h-0.1v8.4h-1.1
		v-10.3h1.6l2.3,8.4h0.1l2.3-8.4h1.6v10.3H659.5z M662.8-70v-1.2h1.1v1.2H662.8z M662.9-60.1v-7.7h1.1v7.7H662.9z M669.8-64.5
		c0-0.7,0-1.2-0.1-1.6c-0.1-0.3-0.2-0.5-0.4-0.6c-0.2-0.1-0.5-0.2-0.9-0.2c-0.5,0-0.8,0.1-1,0.3c-0.2,0.2-0.3,0.5-0.4,0.9
		c-0.1,0.4-0.1,0.9-0.1,1.6v4h-1.1v-7.7h0.9l0.1,1.1h0.1c0.1-0.4,0.3-0.7,0.6-0.9c0.3-0.2,0.7-0.3,1.3-0.3c0.6,0,1,0.1,1.3,0.3
		c0.3,0.2,0.5,0.5,0.6,0.9c0.1,0.4,0.1,1,0.1,1.7v4.8h-1.1V-64.5z M677.7-63.5h-3.9c0,0.8,0,1.4,0.1,1.7c0.1,0.4,0.2,0.6,0.5,0.7
		s0.7,0.2,1.2,0.2c0.7,0,1.3-0.1,1.9-0.2v0.9c-0.2,0.1-0.5,0.1-0.9,0.2c-0.4,0-0.8,0.1-1.2,0.1c-0.8,0-1.4-0.1-1.8-0.4
		c-0.4-0.2-0.6-0.6-0.7-1.1s-0.2-1.3-0.2-2.4c0-1.1,0-1.9,0.2-2.4c0.1-0.5,0.3-0.9,0.7-1.2c0.4-0.3,1-0.4,1.8-0.4
		c0.8,0,1.3,0.1,1.6,0.4c0.3,0.2,0.5,0.6,0.6,1.1c0.1,0.5,0.1,1.3,0.1,2.5V-63.5z M675.3-66.9c-0.5,0-0.8,0.1-1,0.2
		c-0.2,0.1-0.3,0.4-0.4,0.7c-0.1,0.3-0.1,0.9-0.1,1.7h2.9v-0.2c0-0.7,0-1.3-0.1-1.6c-0.1-0.3-0.2-0.6-0.4-0.7
		C675.9-66.9,675.6-66.9,675.3-66.9z M679.5-67.7h0.9l0.1,1.4h0.1c0.1-0.6,0.4-1,0.7-1.2s0.8-0.3,1.3-0.3v1.1
		c-0.5,0-0.9,0.1-1.2,0.3c-0.3,0.2-0.5,0.5-0.6,1c-0.1,0.4-0.2,1-0.2,1.7v3.6h-1.1V-67.7z M685.8-59.9c-0.3,0-0.7,0-1.1-0.1
		c-0.4,0-0.7-0.1-1-0.1V-61c0.6,0.1,1.3,0.2,2,0.2c0.4,0,0.7-0.1,0.9-0.1c0.2-0.1,0.3-0.2,0.4-0.4c0.1-0.2,0.1-0.4,0.1-0.7
		c0-0.4,0-0.6-0.1-0.8c0-0.2-0.1-0.3-0.2-0.3c-0.1-0.1-0.3-0.1-0.5-0.1l-1.5-0.2c-0.5-0.1-0.8-0.3-1-0.5c-0.2-0.3-0.3-0.8-0.3-1.4
		c0-0.6,0.1-1.1,0.3-1.4c0.2-0.3,0.5-0.5,0.8-0.7s0.8-0.2,1.3-0.2c0.3,0,0.6,0,1,0.1c0.4,0,0.6,0.1,0.8,0.2v0.9
		c-0.2-0.1-0.5-0.1-0.8-0.1c-0.3,0-0.7-0.1-1-0.1c-0.5,0-0.8,0.1-1,0.3c-0.2,0.2-0.3,0.5-0.3,1c0,0.3,0,0.6,0.1,0.7
		c0,0.2,0.1,0.3,0.2,0.3c0.1,0.1,0.3,0.1,0.5,0.1l1.5,0.2c0.3,0,0.6,0.1,0.8,0.2c0.2,0.1,0.3,0.3,0.4,0.6c0.1,0.3,0.1,0.7,0.1,1.2
		c0,0.8-0.2,1.4-0.5,1.7S686.6-59.9,685.8-59.9z M689-57.8c0.4-0.7,0.7-1.3,0.9-1.7c0.2-0.4,0.3-1,0.4-1.8c0.1-0.8,0.2-1.8,0.2-3.2
		c0-1.4-0.1-2.4-0.2-3.2c-0.1-0.8-0.3-1.4-0.4-1.8c-0.2-0.4-0.5-1-0.9-1.7h0.9c0.5,0.7,0.8,1.3,1,1.8c0.2,0.5,0.4,1.1,0.5,1.8
		c0.1,0.7,0.2,1.7,0.2,3c0,1.3-0.1,2.3-0.2,3c-0.1,0.7-0.3,1.3-0.5,1.8c-0.2,0.5-0.6,1.1-1.1,1.8H689z"/>
</g>
<g>
	<defs>
		<rect id="SVGID_61_" x="398" y="-148" width="590" height="439"/>
	</defs>
	<clipPath id="SVGID_62_">
		<use xlink:href="#SVGID_61_"  style="overflow:visible;"/>
	</clipPath>
	<path class="st31" d="M892-145.7C422-145,400,290,986,207.1"/>
</g>
<g>
	<defs>
		<rect id="SVGID_63_" x="398" y="-148" width="590" height="439"/>
	</defs>
	<clipPath id="SVGID_64_">
		<use xlink:href="#SVGID_63_"  style="overflow:visible;"/>
	</clipPath>
	<path class="st32" d="M981.3,210.8l4.7-3.7l-5.6-2.2L981.3,210.8z"/>
</g>
<g>
	<defs>
		<rect id="SVGID_65_" x="398" y="-148" width="590" height="439"/>
	</defs>
	<clipPath id="SVGID_66_">
		<use xlink:href="#SVGID_65_"  style="overflow:visible;"/>
	</clipPath>
	<path class="st33" d="M981.3,210.8l4.7-3.7l-5.6-2.2L981.3,210.8z"/>
</g>
<g>
	<defs>
		<rect id="SVGID_67_" x="779" y="24" width="209" height="116"/>
	</defs>
	<clipPath id="SVGID_68_">
		<use xlink:href="#SVGID_67_"  style="overflow:visible;"/>
	</clipPath>
	<path class="st34" d="M781,26c84,63,101,36,205,112.4"/>
</g>
<g>
	<defs>
		<rect id="SVGID_69_" x="779" y="24" width="209" height="116"/>
	</defs>
	<clipPath id="SVGID_70_">
		<use xlink:href="#SVGID_69_"  style="overflow:visible;"/>
	</clipPath>
	<path class="st35" d="M986,138.4l-7.8-1.9c3-0.3,4.2-2,3.6-4.9L986,138.4z"/>
</g>
<g>
	<defs>
		<rect id="SVGID_71_" x="779" y="24" width="209" height="116"/>
	</defs>
	<clipPath id="SVGID_72_">
		<use xlink:href="#SVGID_71_"  style="overflow:visible;"/>
	</clipPath>
	<path class="st36" d="M986,138.4l-7.8-1.9c3-0.3,4.2-2,3.6-4.9L986,138.4z"/>
</g>
<g>
	<defs>
		<rect id="SVGID_73_" x="805" y="56" width="183" height="6"/>
	</defs>
	<clipPath id="SVGID_74_">
		<use xlink:href="#SVGID_73_"  style="overflow:visible;"/>
	</clipPath>
	<path class="st37" d="M807,85.6C869,58,932,100,986,139.1"/>
</g>
<g>
	<defs>
		<rect id="SVGID_75_" x="805" y="111" width="183" height="30"/>
	</defs>
	<clipPath id="SVGID_76_">
		<use xlink:href="#SVGID_75_"  style="overflow:visible;"/>
	</clipPath>
	<path class="st38" d="M807,85.6C869,58,932,100,986,139.1"/>
</g>
<g>
	<defs>
		<rect id="SVGID_77_" x="805" y="60" width="80" height="53"/>
	</defs>
	<clipPath id="SVGID_78_">
		<use xlink:href="#SVGID_77_"  style="overflow:visible;"/>
	</clipPath>
	<path class="st39" d="M807,85.6C869,58,932,100,986,139.1"/>
</g>
<g>
	<defs>
		<rect id="SVGID_79_" x="915" y="60" width="73" height="53"/>
	</defs>
	<clipPath id="SVGID_80_">
		<use xlink:href="#SVGID_79_"  style="overflow:visible;"/>
	</clipPath>
	<path class="st40" d="M807,85.6C869,58,932,100,986,139.1"/>
</g>
<g>
	<defs>
		<rect id="SVGID_81_" x="883" y="60" width="34" height="53"/>
	</defs>
	<clipPath id="SVGID_82_">
		<use xlink:href="#SVGID_81_"  style="overflow:visible;"/>
	</clipPath>
	<path class="st41" d="M807,85.6C869,58,932,100,986,139.1"/>
</g>
<g>
	<defs>
		<rect id="SVGID_83_" x="805" y="56" width="183" height="85"/>
	</defs>
	<clipPath id="SVGID_84_">
		<use xlink:href="#SVGID_83_"  style="overflow:visible;"/>
	</clipPath>
	<path class="st42" d="M986,139.1l-7.8-1.9c3-0.3,4.2-2,3.6-5L986,139.1z"/>
</g>
<g>
	<defs>
		<rect id="SVGID_85_" x="805" y="56" width="183" height="85"/>
	</defs>
	<clipPath id="SVGID_86_">
		<use xlink:href="#SVGID_85_"  style="overflow:visible;"/>
	</clipPath>
	<path class="st43" d="M986,139.1l-7.8-1.9c3-0.3,4.2-2,3.6-5L986,139.1z"/>
</g>
<g>
	<defs>
		<rect id="SVGID_87_" x="883" y="60" width="34" height="53"/>
	</defs>
	<clipPath id="SVGID_88_">
		<use xlink:href="#SVGID_87_"  style="overflow:visible;"/>
	</clipPath>
	<path class="st44" d="M892.9,80c-0.2,0.1-0.5,0.1-0.8,0.1s-0.6,0.1-0.9,0.1c-0.9,0-1.6-0.1-2-0.4c-0.4-0.3-0.7-0.8-0.8-1.5
		c-0.1-0.7-0.2-1.8-0.2-3.4c0-1.5,0.1-2.7,0.2-3.4c0.1-0.7,0.4-1.2,0.8-1.5c0.4-0.3,1.1-0.4,2-0.4c0.3,0,0.6,0,0.9,0.1
		c0.3,0,0.6,0.1,0.8,0.1v0.9c-0.6-0.1-1-0.1-1.4-0.1c-0.7,0-1.2,0.1-1.5,0.3c-0.3,0.2-0.5,0.6-0.5,1.1c-0.1,0.6-0.1,1.5-0.1,2.9
		s0,2.4,0.1,2.9c0.1,0.6,0.3,0.9,0.5,1.1c0.3,0.2,0.8,0.3,1.5,0.3c0.5,0,1,0,1.5-0.1V80z M896,80.1c-0.7,0-1.2-0.2-1.5-0.5
		c-0.3-0.3-0.5-0.9-0.5-1.7c0-0.6,0.1-1,0.2-1.4c0.1-0.3,0.3-0.6,0.6-0.7s0.7-0.2,1.2-0.2c0.3,0,1,0,2,0.1v-0.5c0-0.6,0-1.1-0.1-1.4
		c-0.1-0.3-0.2-0.5-0.5-0.5c-0.2-0.1-0.6-0.1-1.1-0.1c-0.2,0-0.5,0-0.9,0.1c-0.4,0-0.7,0.1-0.9,0.1v-0.9c0.7-0.1,1.4-0.2,2.1-0.2
		c0.7,0,1.2,0.1,1.6,0.3c0.3,0.2,0.6,0.5,0.7,0.9s0.2,1,0.2,1.8V80h-0.9L898,79h-0.1c-0.1,0.5-0.4,0.8-0.7,0.9
		C896.9,80.1,896.5,80.1,896,80.1z M896.4,79.2c0.3,0,0.6,0,0.9-0.1c0.2-0.1,0.4-0.3,0.5-0.5c0.2-0.4,0.2-0.9,0.2-1.6v-0.5h-1.7
		c-0.3,0-0.6,0-0.7,0.1c-0.2,0.1-0.3,0.2-0.3,0.4s-0.1,0.5-0.1,0.9c0,0.4,0,0.7,0.1,0.9s0.2,0.3,0.4,0.4S896,79.2,896.4,79.2z
		 M902.9,80.1c-0.3,0-0.7,0-1.1-0.1s-0.7-0.1-1-0.1v-0.9c0.6,0.1,1.3,0.2,2,0.2c0.4,0,0.7,0,0.9-0.1s0.3-0.2,0.4-0.4
		s0.1-0.4,0.1-0.7c0-0.4,0-0.6-0.1-0.8c0-0.2-0.1-0.3-0.2-0.3c-0.1-0.1-0.3-0.1-0.5-0.1l-1.5-0.2c-0.5-0.1-0.8-0.3-1-0.5
		c-0.2-0.3-0.3-0.8-0.3-1.4c0-0.6,0.1-1.1,0.3-1.4c0.2-0.3,0.5-0.5,0.8-0.7c0.3-0.1,0.8-0.2,1.3-0.2c0.3,0,0.6,0,1,0.1
		c0.4,0,0.6,0.1,0.8,0.1v0.9c-0.2-0.1-0.5-0.1-0.8-0.1c-0.3,0-0.7-0.1-1-0.1c-0.5,0-0.8,0.1-1,0.3c-0.2,0.2-0.3,0.5-0.3,1
		c0,0.3,0,0.6,0.1,0.7c0,0.2,0.1,0.3,0.2,0.3c0.1,0.1,0.3,0.1,0.5,0.1l1.5,0.2c0.3,0,0.6,0.1,0.8,0.2c0.2,0.1,0.3,0.3,0.4,0.6
		c0.1,0.3,0.1,0.7,0.1,1.2c0,0.8-0.2,1.4-0.5,1.7C904.3,80,903.7,80.1,902.9,80.1z M910.8,75.5c0-0.7,0-1.2-0.1-1.6
		s-0.2-0.5-0.4-0.6c-0.2-0.1-0.5-0.2-0.9-0.2c-0.5,0-0.8,0.1-1,0.3c-0.2,0.2-0.3,0.5-0.4,0.9S908,75.3,908,76v4h-1.1V68.9h1.1v4.4
		h0.1c0.3-0.7,0.9-1,1.8-1c0.6,0,1,0.1,1.3,0.3c0.3,0.2,0.5,0.5,0.6,0.9c0.1,0.4,0.1,1,0.1,1.7V80h-1.1V75.5z"/>
</g>
<g>
	<defs>
		<rect id="SVGID_89_" x="883" y="60" width="34" height="53"/>
	</defs>
	<clipPath id="SVGID_90_">
		<use xlink:href="#SVGID_89_"  style="overflow:visible;"/>
	</clipPath>
	<path class="st45" d="M894.2,103.5c-0.8,0-1.4-0.1-1.7-0.3s-0.6-0.6-0.7-1.1c-0.1-0.5-0.2-1.4-0.2-2.5s0.1-2,0.2-2.5
		c0.1-0.5,0.3-0.9,0.7-1.1c0.4-0.2,0.9-0.3,1.7-0.3s1.4,0.1,1.7,0.3c0.4,0.2,0.6,0.6,0.7,1.1c0.1,0.5,0.2,1.4,0.2,2.5
		s-0.1,2-0.2,2.5s-0.3,0.9-0.7,1.1S895,103.5,894.2,103.5z M894.2,102.6c0.5,0,0.9-0.1,1.1-0.2s0.3-0.4,0.4-0.8c0-0.4,0.1-1.1,0.1-2
		c0-1,0-1.7-0.1-2s-0.2-0.6-0.4-0.8c-0.2-0.1-0.6-0.2-1.1-0.2c-0.5,0-0.9,0.1-1.1,0.2c-0.2,0.1-0.3,0.4-0.4,0.8
		c-0.1,0.4-0.1,1.1-0.1,2s0,1.6,0.1,2c0.1,0.4,0.2,0.6,0.4,0.8S893.6,102.6,894.2,102.6z M902.5,102.3L902.5,102.3
		c-0.2,0.4-0.4,0.7-0.7,0.9c-0.3,0.2-0.7,0.3-1.3,0.3c-0.6,0-1-0.1-1.3-0.3c-0.3-0.2-0.5-0.5-0.6-0.9c-0.1-0.4-0.1-1-0.1-1.7v-4.8
		h1.1v4.5c0,0.7,0,1.3,0.1,1.6s0.2,0.5,0.4,0.6c0.2,0.1,0.5,0.2,0.9,0.2c0.5,0,0.8-0.1,1-0.3s0.3-0.5,0.4-0.9
		c0.1-0.4,0.1-0.9,0.1-1.6v-4h1.1v7.7h-0.9L902.5,102.3z M906.1,103.4v-6.7h-1.1v-0.9h1.1v-2.2h1.1v2.2h1.3v0.9h-1.3v6.7H906.1z"/>
</g>
</svg>
