<?xml version="1.0" encoding="utf-8"?>
<!-- Generator: Adobe Illustrator 19.0.0, SVG Export Plug-In . SVG Version: 6.00 Build 0)  -->
<svg version="1.1" id="Layer_1" xmlns="http://www.w3.org/2000/svg" xmlns:xlink="http://www.w3.org/1999/xlink" x="0px" y="0px"
	 viewBox="517 -205 686 510" style="enable-background:new 517 -205 686 510;" xml:space="preserve">
<style type="text/css">
	.st0{fill:#FFFFFF;}
	.st1{clip-path:url(#SVGID_2_);fill:#FFFFFF;}
	.st2{clip-path:url(#SVGID_4_);fill:none;stroke:#0D46AA;stroke-width:4;}
	.st3{clip-path:url(#SVGID_6_);fill:#0A5CB9;}
	.st4{clip-path:url(#SVGID_8_);fill:#0A5CB9;}
	.st5{clip-path:url(#SVGID_10_);fill:#FFFFFF;}
	.st6{clip-path:url(#SVGID_12_);fill:none;stroke:#0D46AA;stroke-width:4;}
	.st7{clip-path:url(#SVGID_14_);fill:#0A5CB9;}
	.st8{clip-path:url(#SVGID_16_);fill:#0A5CB9;}
	.st9{clip-path:url(#SVGID_18_);fill:#4F81BD;}
	.st10{clip-path:url(#SVGID_20_);fill:none;stroke:#0D46AA;stroke-width:3;}
	.st11{clip-path:url(#SVGID_22_);fill:#FFFFFF;}
	.st12{clip-path:url(#SVGID_24_);fill:#FFFFFF;}
	.st13{clip-path:url(#SVGID_26_);fill:#4F81BD;}
	.st14{clip-path:url(#SVGID_28_);fill:none;stroke:#0D46AA;stroke-width:3;}
	.st15{clip-path:url(#SVGID_30_);fill:#FFFFFF;}
	.st16{clip-path:url(#SVGID_32_);fill:#FFFFFF;}
	.st17{clip-path:url(#SVGID_34_);fill:none;stroke:#558ED5;stroke-dasharray:6,3;}
	.st18{clip-path:url(#SVGID_36_);fill:#558ED5;}
	.st19{clip-path:url(#SVGID_38_);fill:none;stroke:#558ED5;}
	.st20{clip-path:url(#SVGID_40_);fill:none;stroke:#558ED5;stroke-dasharray:6,3;}
	.st21{clip-path:url(#SVGID_42_);fill:none;stroke:#558ED5;stroke-dasharray:6,3;}
	.st22{clip-path:url(#SVGID_44_);fill:none;stroke:#558ED5;stroke-dasharray:6,3;}
	.st23{clip-path:url(#SVGID_46_);fill:none;stroke:#558ED5;stroke-dasharray:6,3;}
	.st24{opacity:9.803922e-002;clip-path:url(#SVGID_48_);fill:none;stroke:#558ED5;stroke-dasharray:6,3;enable-background:new    ;}
	.st25{clip-path:url(#SVGID_50_);fill:#558ED5;}
	.st26{clip-path:url(#SVGID_52_);fill:none;stroke:#558ED5;}
	.st27{clip-path:url(#SVGID_54_);fill:#030303;}
	.st28{clip-path:url(#SVGID_56_);fill:#030303;}
	.st29{clip-path:url(#SVGID_58_);fill:none;stroke:#558ED5;stroke-dasharray:6,3;}
	.st30{clip-path:url(#SVGID_60_);fill:#558ED5;}
	.st31{clip-path:url(#SVGID_62_);fill:none;stroke:#558ED5;}
	.st32{clip-path:url(#SVGID_64_);fill:none;stroke:#FF4242;stroke-dasharray:6,3;}
	.st33{clip-path:url(#SVGID_66_);fill:#FF4242;}
	.st34{clip-path:url(#SVGID_68_);fill:none;stroke:#FF4242;}
	.st35{clip-path:url(#SVGID_70_);fill:none;stroke:#FF4242;stroke-dasharray:6,3;}
	.st36{clip-path:url(#SVGID_72_);fill:none;stroke:#FF4242;stroke-dasharray:6,3;}
	.st37{clip-path:url(#SVGID_74_);fill:none;stroke:#FF4242;stroke-dasharray:6,3;}
	.st38{clip-path:url(#SVGID_76_);fill:none;stroke:#FF4242;stroke-dasharray:6,3;}
	.st39{opacity:9.803922e-002;clip-path:url(#SVGID_78_);fill:none;stroke:#FF4242;stroke-dasharray:6,3;enable-background:new    ;}
	.st40{clip-path:url(#SVGID_80_);fill:#FF4242;}
	.st41{clip-path:url(#SVGID_82_);fill:none;stroke:#FF4242;}
	.st42{clip-path:url(#SVGID_84_);fill:#030303;}
	.st43{clip-path:url(#SVGID_86_);fill:#030303;}
</style>
<rect x="-845" y="-1234" class="st0" width="3176" height="2846"/>
<g>
	<defs>
		<rect id="SVGID_1_" x="907" y="-191" width="284" height="91"/>
	</defs>
	<clipPath id="SVGID_2_">
		<use xlink:href="#SVGID_1_"  style="overflow:visible;"/>
	</clipPath>
	<path class="st1" d="M918-188c-4.4,0-8,3.6-8,8v68c0,4.4,3.6,8,8,8h261c4.4,0,8-3.6,8-8v-68c0-4.4-3.6-8-8-8H918z"/>
</g>
<g>
	<defs>
		<rect id="SVGID_3_" x="907" y="-191" width="284" height="91"/>
	</defs>
	<clipPath id="SVGID_4_">
		<use xlink:href="#SVGID_3_"  style="overflow:visible;"/>
	</clipPath>
	<path class="st2" d="M918-188c-4.4,0-8,3.6-8,8v68c0,4.4,3.6,8,8,8h261c4.4,0,8-3.6,8-8v-68c0-4.4-3.6-8-8-8H918z"/>
</g>
<g>
	<defs>
		<rect id="SVGID_5_" x="938" y="-172" width="222" height="53"/>
	</defs>
	<clipPath id="SVGID_6_">
		<use xlink:href="#SVGID_5_"  style="overflow:visible;"/>
	</clipPath>
	<path class="st3" d="M945.3-152.2c-1.5,0-2.8-0.1-3.9-0.3v-2c1.2,0.1,2.3,0.2,3.1,0.2c0.5,0,0.9,0,1.1-0.1c0.3,0,0.4-0.1,0.6-0.2
		c0.1-0.1,0.2-0.2,0.2-0.3c0-0.1,0-0.3,0-0.5c0-0.3,0-0.4-0.1-0.5s-0.1-0.2-0.2-0.2s-0.3-0.1-0.6-0.1l-1.9-0.2
		c-0.7-0.1-1.2-0.3-1.6-0.5c-0.4-0.3-0.6-0.6-0.7-1c-0.1-0.4-0.2-0.9-0.2-1.6c0-0.9,0.2-1.6,0.5-2s0.8-0.8,1.3-0.9
		c0.6-0.1,1.3-0.2,2.1-0.2c0.6,0,1.2,0,1.7,0.1c0.5,0.1,1.1,0.1,1.7,0.2v2c-1.2-0.1-2.2-0.2-2.9-0.2c-0.8,0-1.3,0.1-1.6,0.2
		c-0.1,0.1-0.2,0.1-0.2,0.3c0,0.1-0.1,0.3-0.1,0.5c0,0.3,0,0.4,0.1,0.5c0,0.1,0.1,0.2,0.2,0.2c0.1,0,0.3,0.1,0.6,0.1l2.2,0.3
		c0.4,0.1,0.8,0.1,1.1,0.3c0.3,0.1,0.5,0.4,0.7,0.7c0.3,0.4,0.4,1.1,0.4,2.1c0,1-0.2,1.7-0.5,2.2c-0.3,0.5-0.7,0.8-1.2,1
		C946.8-152.3,946.1-152.2,945.3-152.2z M959.3-162.7v5.7c0,1.4-0.1,2.4-0.2,3c-0.2,0.6-0.5,1.1-1.1,1.4s-1.5,0.4-2.8,0.4
		c-1.3,0-2.2-0.1-2.8-0.4s-0.9-0.7-1.1-1.4c-0.2-0.6-0.2-1.6-0.2-3v-5.7h2.6v6.2c0,0.7,0,1.2,0.1,1.5s0.2,0.4,0.4,0.5
		s0.6,0.1,1.1,0.1c0.5,0,0.9,0,1.1-0.1s0.3-0.3,0.4-0.5s0.1-0.8,0.1-1.5v-6.2H959.3z M961.7-162.7h4.9c0.9,0,1.6,0.1,2.1,0.4
		c0.5,0.3,0.8,0.7,0.9,1.1c0.2,0.5,0.2,1.1,0.2,2c0,0.8-0.1,1.4-0.2,1.9c-0.1,0.5-0.5,0.9-0.9,1.2c-0.5,0.3-1.2,0.4-2.1,0.4h-2.3
		v3.3h-2.6V-162.7z M965.5-157.7c0.5,0,0.9,0,1.1-0.1c0.2-0.1,0.4-0.2,0.5-0.4c0.1-0.2,0.1-0.5,0.1-0.9s0-0.8-0.1-0.9
		c-0.1-0.2-0.2-0.3-0.4-0.4c-0.2-0.1-0.6-0.1-1.1-0.1h-1.2v2.8H965.5z M971.8-152.3v-10.3h7.3v2.1h-4.7v1.9h4v2.1h-4v2h4.7v2.1
		H971.8z M987-152.3l-1.3-3.6h-1.8v3.6h-2.6v-10.3h5c1,0,1.7,0.1,2.2,0.4c0.5,0.3,0.8,0.6,1,1.1c0.2,0.5,0.2,1.1,0.2,1.9
		c0,0.7-0.1,1.3-0.3,1.9s-0.6,0.9-1.1,1.2l1.6,3.9H987z M985.2-158c0.5,0,0.9,0,1.1-0.1c0.2-0.1,0.4-0.2,0.4-0.3
		c0.1-0.2,0.1-0.4,0.1-0.8c0-0.4,0-0.7-0.1-0.8c-0.1-0.2-0.2-0.3-0.4-0.3c-0.2-0.1-0.6-0.1-1.1-0.1h-1.4v2.5H985.2z M998.3-152.3
		l-0.6-2H994l-0.6,2h-2.6l3.3-10.3h3.5l3.3,10.3H998.3z M995.8-160.4L995.8-160.4l-1.3,3.9h2.5L995.8-160.4z M1002.4-152.3v-10.3
		h2.6v8.1h4.1v2.2H1002.4z M1014.9-156.4v-2h3.9v5.8c-0.5,0.1-1.1,0.2-1.8,0.2s-1.3,0.1-1.8,0.1c-1.3,0-2.3-0.1-3-0.4
		c-0.6-0.3-1.1-0.8-1.3-1.5c-0.2-0.7-0.4-1.8-0.4-3.4c0-1.4,0.1-2.5,0.4-3.2s0.7-1.3,1.3-1.6c0.7-0.3,1.6-0.5,2.9-0.5
		c0.7,0,1.5,0,2.2,0.1c0.7,0.1,1.2,0.2,1.3,0.2v2c-1.1-0.1-2-0.2-2.6-0.2c-1,0-1.7,0.1-2,0.2c-0.4,0.1-0.6,0.4-0.7,0.8
		c-0.1,0.4-0.2,1.2-0.2,2.2c0,1,0,1.7,0.1,2.1c0.1,0.4,0.3,0.7,0.6,0.9c0.3,0.2,0.8,0.2,1.4,0.2c0.4,0,0.7,0,1,0v-2.1H1014.9z
		 M1025.4-152.2c-1.5,0-2.5-0.2-3.1-0.5c-0.6-0.3-1-0.8-1.2-1.5c-0.2-0.7-0.2-1.8-0.2-3.4s0.1-2.7,0.2-3.4c0.2-0.7,0.5-1.2,1.2-1.5
		c0.6-0.3,1.6-0.5,3.1-0.5c1.4,0,2.5,0.2,3.1,0.5c0.6,0.3,1,0.8,1.1,1.5c0.2,0.7,0.2,1.8,0.2,3.4s-0.1,2.7-0.2,3.4
		c-0.1,0.7-0.5,1.2-1.1,1.5C1027.9-152.4,1026.8-152.2,1025.4-152.2z M1025.4-154.3c0.6,0,1.1-0.1,1.3-0.2c0.2-0.1,0.4-0.3,0.4-0.7
		c0.1-0.4,0.1-1.1,0.1-2.3s0-1.9-0.1-2.3c-0.1-0.4-0.2-0.6-0.4-0.7c-0.2-0.1-0.7-0.2-1.3-0.2c-0.7,0-1.1,0.1-1.3,0.2
		c-0.2,0.1-0.4,0.4-0.4,0.7s-0.1,1.1-0.1,2.3s0,1.9,0.1,2.3s0.2,0.6,0.4,0.7C1024.3-154.4,1024.7-154.3,1025.4-154.3z M1035.9-152.2
		c-1.5,0-2.8-0.1-3.9-0.3v-2c1.2,0.1,2.3,0.2,3.1,0.2c0.5,0,0.9,0,1.1-0.1c0.3,0,0.4-0.1,0.6-0.2c0.1-0.1,0.2-0.2,0.2-0.3
		c0-0.1,0-0.3,0-0.5c0-0.3,0-0.4-0.1-0.5c0-0.1-0.1-0.2-0.2-0.2c-0.1,0-0.3-0.1-0.6-0.1l-1.9-0.2c-0.7-0.1-1.2-0.3-1.6-0.5
		c-0.4-0.3-0.6-0.6-0.7-1c-0.1-0.4-0.2-0.9-0.2-1.6c0-0.9,0.2-1.6,0.5-2c0.3-0.5,0.8-0.8,1.3-0.9c0.6-0.1,1.3-0.2,2.1-0.2
		c0.6,0,1.2,0,1.7,0.1c0.5,0.1,1.1,0.1,1.7,0.2v2c-1.2-0.1-2.2-0.2-2.9-0.2c-0.8,0-1.3,0.1-1.6,0.2c-0.1,0.1-0.2,0.1-0.2,0.3
		c0,0.1-0.1,0.3-0.1,0.5c0,0.3,0,0.4,0.1,0.5c0,0.1,0.1,0.2,0.2,0.2c0.1,0,0.3,0.1,0.6,0.1l2.2,0.3c0.4,0.1,0.8,0.1,1.1,0.3
		c0.3,0.1,0.5,0.4,0.7,0.7c0.3,0.4,0.4,1.1,0.4,2.1c0,1-0.2,1.7-0.5,2.2c-0.3,0.5-0.7,0.8-1.2,1
		C1037.4-152.3,1036.7-152.2,1035.9-152.2z M1049.8-152.2c-1.5,0-2.5-0.2-3.1-0.5c-0.6-0.3-1-0.8-1.2-1.5c-0.2-0.7-0.2-1.8-0.2-3.4
		s0.1-2.7,0.2-3.4c0.2-0.7,0.5-1.2,1.2-1.5c0.6-0.3,1.6-0.5,3.1-0.5c1.4,0,2.5,0.2,3.1,0.5c0.6,0.3,1,0.8,1.1,1.5
		c0.2,0.7,0.2,1.8,0.2,3.4s-0.1,2.7-0.2,3.4c-0.1,0.7-0.5,1.2-1.1,1.5C1052.3-152.4,1051.2-152.2,1049.8-152.2z M1049.8-154.3
		c0.6,0,1.1-0.1,1.3-0.2c0.2-0.1,0.4-0.3,0.4-0.7c0.1-0.4,0.1-1.1,0.1-2.3s0-1.9-0.1-2.3c-0.1-0.4-0.2-0.6-0.4-0.7
		c-0.2-0.1-0.7-0.2-1.3-0.2c-0.7,0-1.1,0.1-1.3,0.2c-0.2,0.1-0.4,0.4-0.4,0.7c-0.1,0.4-0.1,1.1-0.1,2.3s0,1.9,0.1,2.3
		c0.1,0.4,0.2,0.6,0.4,0.7C1048.7-154.4,1049.1-154.3,1049.8-154.3z M1062.3-152.3l-1.3-3.6h-1.8v3.6h-2.6v-10.3h4.9
		c1,0,1.7,0.1,2.2,0.4c0.5,0.3,0.8,0.6,1,1.1c0.2,0.5,0.2,1.1,0.2,1.9c0,0.7-0.1,1.3-0.3,1.9c-0.2,0.5-0.6,0.9-1.1,1.2l1.6,3.9
		H1062.3z M1060.4-158c0.5,0,0.9,0,1.1-0.1c0.2-0.1,0.4-0.2,0.4-0.3c0.1-0.2,0.1-0.4,0.1-0.8c0-0.4,0-0.7-0.1-0.8
		c-0.1-0.2-0.2-0.3-0.4-0.3c-0.2-0.1-0.6-0.1-1.1-0.1h-1.4v2.5H1060.4z M1071-156.4v-2h3.9v5.8c-0.5,0.1-1.1,0.2-1.8,0.2
		c-0.7,0.1-1.3,0.1-1.8,0.1c-1.3,0-2.3-0.1-3-0.4c-0.6-0.3-1.1-0.8-1.3-1.5c-0.2-0.7-0.4-1.8-0.4-3.4c0-1.4,0.1-2.5,0.4-3.2
		s0.7-1.3,1.3-1.6c0.7-0.3,1.6-0.5,2.9-0.5c0.7,0,1.5,0,2.2,0.1c0.7,0.1,1.2,0.2,1.3,0.2v2c-1.1-0.1-2-0.2-2.6-0.2
		c-1,0-1.7,0.1-2,0.2c-0.4,0.1-0.6,0.4-0.7,0.8c-0.1,0.4-0.2,1.2-0.2,2.2c0,1,0,1.7,0.1,2.1s0.3,0.7,0.6,0.9s0.8,0.2,1.4,0.2
		c0.4,0,0.7,0,1,0v-2.1H1071z M1083.8-152.3l-0.6-2h-3.7l-0.6,2h-2.6l3.3-10.3h3.5l3.3,10.3H1083.8z M1081.4-160.4L1081.4-160.4
		l-1.3,3.9h2.5L1081.4-160.4z M1094.1-152.3l-3.6-5.9h-0.1v5.9h-2.5v-10.3h2.7l3.3,5.4h0.1v-5.4h2.5v10.3H1094.1z M1099-152.3v-10.3
		h2.6v10.3H1099z M1103.5-152.3v-2l4.7-6.2h-4.5v-2.1h7.8v2l-4.8,6.2h4.8v2.1H1103.5z M1120-152.3l-0.6-2h-3.7l-0.6,2h-2.6l3.3-10.3
		h3.5l3.3,10.3H1120z M1117.6-160.4L1117.6-160.4l-1.3,3.9h2.5L1117.6-160.4z M1125.5-152.3v-8.1h-2.8v-2.2h8.3v2.2h-2.9v8.1H1125.5
		z M1132.5-152.3v-10.3h2.6v10.3H1132.5z M1141.6-152.2c-1.5,0-2.5-0.2-3.1-0.5c-0.6-0.3-1-0.8-1.2-1.5c-0.2-0.7-0.2-1.8-0.2-3.4
		s0.1-2.7,0.2-3.4c0.2-0.7,0.5-1.2,1.2-1.5c0.6-0.3,1.6-0.5,3.1-0.5c1.4,0,2.5,0.2,3.1,0.5c0.6,0.3,1,0.8,1.1,1.5
		c0.2,0.7,0.2,1.8,0.2,3.4s-0.1,2.7-0.2,3.4c-0.1,0.7-0.5,1.2-1.1,1.5C1144.1-152.4,1143.1-152.2,1141.6-152.2z M1141.6-154.3
		c0.6,0,1.1-0.1,1.3-0.2c0.2-0.1,0.4-0.3,0.4-0.7c0.1-0.4,0.1-1.1,0.1-2.3s0-1.9-0.1-2.3c-0.1-0.4-0.2-0.6-0.4-0.7
		c-0.2-0.1-0.7-0.2-1.3-0.2c-0.7,0-1.1,0.1-1.3,0.2c-0.2,0.1-0.4,0.4-0.4,0.7c-0.1,0.4-0.1,1.1-0.1,2.3s0,1.9,0.1,2.3
		c0.1,0.4,0.2,0.6,0.4,0.7C1140.5-154.4,1141-154.3,1141.6-154.3z M1154.4-152.3l-3.6-5.9h-0.1v5.9h-2.5v-10.3h2.7l3.3,5.4h0.1v-5.4
		h2.5v10.3H1154.4z"/>
</g>
<g>
	<defs>
		<rect id="SVGID_7_" x="938" y="-172" width="222" height="53"/>
	</defs>
	<clipPath id="SVGID_8_">
		<use xlink:href="#SVGID_7_"  style="overflow:visible;"/>
	</clipPath>
	<path class="st4" d="M964.6-127.2c-0.7-0.8-1.2-1.4-1.5-1.9c-0.3-0.5-0.5-1.1-0.7-1.8c-0.2-0.7-0.2-1.7-0.2-3c0-1.3,0.1-2.3,0.2-3
		c0.1-0.7,0.4-1.4,0.7-1.8s0.8-1.1,1.5-1.8h1.6c-0.5,0.7-0.9,1.2-1.1,1.6c-0.2,0.4-0.4,1-0.5,1.8s-0.2,1.9-0.2,3.3
		c0,1.4,0.1,2.5,0.2,3.3s0.3,1.4,0.5,1.8c0.2,0.4,0.6,1,1.1,1.6H964.6z M967.7-129.5v-10.3h2.6v10.3H967.7z M975.4-129.4
		c-0.5,0-1,0-1.6-0.1c-0.6,0-1.1-0.1-1.5-0.1v-1.7c0.9,0.1,1.7,0.1,2.4,0.1c0.5,0,0.8,0,1,0c0.2,0,0.3-0.1,0.4-0.2s0.1-0.2,0.1-0.4
		c0-0.1,0-0.3-0.1-0.3c0-0.1-0.1-0.1-0.2-0.1c-0.1,0-0.3-0.1-0.5-0.1l-1.8-0.2c-0.6-0.1-1-0.3-1.2-0.7c-0.2-0.4-0.3-0.9-0.3-1.7
		c0-0.7,0.1-1.2,0.4-1.5c0.3-0.3,0.6-0.6,1.1-0.7c0.4-0.1,1-0.2,1.7-0.2c0.5,0,1,0,1.5,0.1c0.5,0,0.9,0.1,1.2,0.2v1.7
		c-0.8-0.1-1.6-0.1-2.2-0.1c-0.4,0-0.8,0-0.9,0c-0.2,0-0.3,0.1-0.4,0.1c-0.1,0.1-0.1,0.2-0.1,0.4c0,0.1,0,0.3,0,0.3s0.1,0.1,0.2,0.1
		c0.1,0,0.3,0.1,0.5,0.1l1.8,0.2c0.4,0.1,0.7,0.1,0.9,0.3c0.2,0.1,0.4,0.3,0.5,0.7s0.2,0.8,0.2,1.4c0,0.7-0.1,1.2-0.4,1.6
		c-0.2,0.4-0.6,0.6-1,0.7S976.1-129.4,975.4-129.4z M983.1-129.4c-0.5,0-1,0-1.6-0.1c-0.6,0-1.1-0.1-1.5-0.1v-1.7
		c0.9,0.1,1.7,0.1,2.4,0.1c0.5,0,0.8,0,1,0c0.2,0,0.3-0.1,0.4-0.2s0.1-0.2,0.1-0.4c0-0.1,0-0.3-0.1-0.3c0-0.1-0.1-0.1-0.2-0.1
		c-0.1,0-0.3-0.1-0.5-0.1l-1.8-0.2c-0.6-0.1-1-0.3-1.2-0.7c-0.2-0.4-0.3-0.9-0.3-1.7c0-0.7,0.1-1.2,0.4-1.5c0.3-0.3,0.6-0.6,1.1-0.7
		c0.4-0.1,1-0.2,1.7-0.2c0.5,0,1,0,1.5,0.1c0.5,0,0.9,0.1,1.2,0.2v1.7c-0.8-0.1-1.6-0.1-2.2-0.1c-0.4,0-0.8,0-0.9,0
		c-0.2,0-0.3,0.1-0.4,0.1c-0.1,0.1-0.1,0.2-0.1,0.4c0,0.1,0,0.3,0,0.3s0.1,0.1,0.2,0.1c0.1,0,0.3,0.1,0.5,0.1l1.8,0.2
		c0.4,0.1,0.7,0.1,0.9,0.3c0.2,0.1,0.4,0.3,0.5,0.7s0.2,0.8,0.2,1.4c0,0.7-0.1,1.2-0.4,1.6c-0.2,0.4-0.6,0.6-1,0.7
		S983.8-129.4,983.1-129.4z M992.5-130.4h-0.1c-0.4,0.7-1.1,1-2.2,1c-0.6,0-1.1-0.1-1.5-0.3c-0.3-0.2-0.6-0.5-0.7-1
		c-0.1-0.4-0.2-1-0.2-1.7v-4.8h2.4v4c0,0.6,0,0.9,0.1,1.2c0,0.2,0.1,0.4,0.3,0.4s0.4,0.1,0.7,0.1c0.3,0,0.6,0,0.7-0.1
		c0.2-0.1,0.3-0.3,0.3-0.5c0-0.2,0.1-0.6,0.1-1.1v-4h2.4v7.6h-2.3L992.5-130.4z M996.9-138.6v-2h2.5v2H996.9z M996.9-129.5v-7.6h2.4
		v7.6H996.9z M1005.9-133.5c0-0.6,0-0.9-0.1-1.2c0-0.2-0.1-0.4-0.3-0.4s-0.4-0.1-0.7-0.1c-0.3,0-0.6,0-0.7,0.1
		c-0.2,0.1-0.3,0.3-0.3,0.5c0,0.2-0.1,0.6-0.1,1.1v4h-2.4v-7.6h2.3l0.1,0.9h0.1c0.4-0.7,1.1-1,2.2-1c0.7,0,1.1,0.1,1.5,0.3
		c0.3,0.2,0.6,0.5,0.7,1c0.1,0.4,0.2,1,0.2,1.7v4.8h-2.4V-133.5z M1013.5-126.4c-0.5,0-1,0-1.5-0.1c-0.5,0-0.9-0.1-1.2-0.1v-1.7
		c0.8,0,1.5,0,2.1,0c0.7,0,1.2,0,1.4-0.1c0.3-0.1,0.4-0.2,0.5-0.4c0.1-0.2,0.1-0.6,0.1-1.1v-0.6h-0.1c-0.2,0.4-0.5,0.6-0.8,0.7
		c-0.3,0.1-0.8,0.2-1.3,0.2c-0.6,0-1.1-0.1-1.5-0.3c-0.4-0.2-0.6-0.6-0.8-1.2c-0.2-0.5-0.2-1.3-0.2-2.3s0.1-1.8,0.3-2.4
		c0.2-0.6,0.4-1,0.8-1.2c0.4-0.2,0.9-0.3,1.5-0.3c0.5,0,0.9,0.1,1.3,0.2c0.4,0.2,0.7,0.4,0.9,0.8h0.1l0.1-0.9h2.3v6.8
		c0,1-0.1,1.8-0.2,2.3c-0.2,0.5-0.5,0.9-1,1.2S1014.6-126.4,1013.5-126.4z M1013.7-131.5c0.3,0,0.5,0,0.7-0.1
		c0.2-0.1,0.3-0.2,0.3-0.4c0.1-0.1,0.1-0.3,0.1-0.5c0-0.2,0-0.5,0-0.9c0-0.4,0-0.6,0-0.8c0-0.2-0.1-0.4-0.1-0.5
		c-0.1-0.2-0.2-0.3-0.3-0.4c-0.1-0.1-0.4-0.1-0.7-0.1c-0.4,0-0.6,0-0.8,0.1c-0.2,0.1-0.3,0.2-0.3,0.5c0,0.2-0.1,0.7-0.1,1.3
		s0,1,0.1,1.3c0.1,0.2,0.2,0.4,0.3,0.5C1013.1-131.6,1013.4-131.5,1013.7-131.5z M1019.5-134.9v-2.2h2.6v2.2H1019.5z M1019.5-129.5
		v-2.2h2.6v2.2H1019.5z M1034.6-129.5l-0.6-1.9h-3.7l-0.6,1.9h-2.6l3.3-10.3h3.5l3.3,10.3H1034.6z M1032.2-137.5L1032.2-137.5
		l-1.3,3.9h2.5L1032.2-137.5z M1038.8-129.5v-10.3h2.6v8.1h4.1v2.2H1038.8z M1051.3-133.5v-2h3.9v5.8c-0.5,0.1-1.1,0.2-1.8,0.2
		s-1.3,0.1-1.8,0.1c-1.3,0-2.3-0.1-3-0.4c-0.6-0.3-1.1-0.8-1.3-1.5s-0.4-1.8-0.4-3.4c0-1.4,0.1-2.5,0.4-3.2c0.2-0.7,0.7-1.3,1.3-1.6
		s1.6-0.5,2.9-0.5c0.7,0,1.5,0,2.2,0.1c0.7,0.1,1.2,0.2,1.3,0.2v2c-1.1-0.1-2-0.2-2.6-0.2c-1,0-1.7,0.1-2,0.2s-0.6,0.4-0.7,0.8
		c-0.1,0.4-0.2,1.2-0.2,2.2c0,1,0,1.7,0.1,2.1c0.1,0.4,0.3,0.7,0.6,0.9c0.3,0.2,0.8,0.2,1.4,0.2c0.4,0,0.7,0,1,0v-2.1H1051.3z
		 M1061.7-129.4c-1.4,0-2.5-0.2-3.1-0.5c-0.6-0.3-1-0.8-1.2-1.5c-0.2-0.7-0.2-1.8-0.2-3.4c0-1.6,0.1-2.7,0.2-3.4
		c0.2-0.7,0.5-1.2,1.2-1.5c0.6-0.3,1.6-0.5,3.1-0.5s2.5,0.2,3.1,0.5c0.6,0.3,1,0.8,1.1,1.5c0.2,0.7,0.2,1.8,0.2,3.4
		c0,1.6-0.1,2.7-0.2,3.4c-0.2,0.7-0.5,1.2-1.1,1.5S1063.2-129.4,1061.7-129.4z M1061.7-131.5c0.6,0,1.1-0.1,1.3-0.2
		c0.2-0.1,0.4-0.3,0.4-0.7c0.1-0.4,0.1-1.1,0.1-2.3c0-1.1,0-1.9-0.1-2.3c-0.1-0.4-0.2-0.6-0.4-0.7s-0.7-0.2-1.3-0.2
		c-0.7,0-1.1,0.1-1.3,0.2s-0.4,0.4-0.4,0.7c-0.1,0.4-0.1,1.1-0.1,2.3c0,1.1,0,1.9,0.1,2.3c0.1,0.4,0.2,0.6,0.4,0.7
		C1060.6-131.5,1061.1-131.5,1061.7-131.5z M1076.1-129.4c-1.5,0-2.8-0.1-3.9-0.3v-2c1.2,0.1,2.3,0.2,3.1,0.2c0.5,0,0.9,0,1.1-0.1
		s0.4-0.1,0.6-0.2c0.1-0.1,0.2-0.2,0.2-0.3c0-0.1,0-0.3,0-0.5c0-0.3,0-0.4-0.1-0.5s-0.1-0.2-0.2-0.2c-0.1,0-0.3-0.1-0.6-0.1
		l-1.9-0.2c-0.7-0.1-1.2-0.3-1.6-0.5c-0.4-0.3-0.6-0.6-0.7-1s-0.2-0.9-0.2-1.6c0-0.9,0.2-1.6,0.5-2c0.3-0.5,0.8-0.8,1.3-0.9
		c0.6-0.1,1.3-0.2,2.1-0.2c0.6,0,1.2,0,1.7,0.1c0.5,0,1.1,0.1,1.7,0.2v2c-1.2-0.1-2.2-0.2-2.9-0.2c-0.8,0-1.3,0.1-1.6,0.2
		c-0.1,0.1-0.2,0.1-0.2,0.3c0,0.1-0.1,0.3-0.1,0.5c0,0.3,0,0.4,0.1,0.5c0,0.1,0.1,0.2,0.2,0.2c0.1,0,0.3,0.1,0.6,0.1l2.2,0.3
		c0.4,0,0.8,0.1,1.1,0.3s0.5,0.4,0.7,0.7c0.3,0.4,0.4,1.1,0.4,2.1c0,1-0.2,1.7-0.5,2.2s-0.7,0.8-1.2,1
		C1077.6-129.4,1076.9-129.4,1076.1-129.4z M1082.3-129.5v-5.8h-1.4v-1.9h1.4v-2.2h2.4v2.2h1.7v1.9h-1.7v5.8H1082.3z M1087.9-137.1
		h2.3l0.1,1.3h0.1c0.2-0.5,0.5-0.9,0.9-1.1c0.4-0.2,0.9-0.3,1.5-0.3v2.3c-0.7,0-1.1,0.1-1.5,0.2c-0.3,0.2-0.6,0.4-0.7,0.8
		c-0.2,0.4-0.2,0.9-0.2,1.6v2.8h-2.4V-137.1z M1100.8-132.7h-4.6c0,0.5,0,0.8,0.1,1c0.1,0.2,0.2,0.3,0.5,0.4
		c0.3,0.1,0.7,0.1,1.4,0.1c0.7,0,1.5,0,2.3-0.1v1.7c-0.3,0.1-0.7,0.1-1.3,0.2c-0.5,0-1.1,0.1-1.6,0.1c-1.2,0-2-0.1-2.6-0.4
		c-0.5-0.3-0.9-0.6-1-1.2c-0.1-0.5-0.2-1.3-0.2-2.4c0-1,0.1-1.8,0.2-2.4c0.2-0.5,0.5-0.9,1-1.2s1.3-0.4,2.4-0.4
		c1.1,0,1.9,0.1,2.3,0.4c0.5,0.3,0.8,0.6,0.9,1.1s0.2,1.3,0.2,2.4V-132.7z M1097.4-135.5c-0.4,0-0.6,0-0.8,0.1
		c-0.2,0.1-0.3,0.2-0.3,0.4c-0.1,0.2-0.1,0.5-0.1,1h2.3c0-0.5,0-0.8-0.1-1c-0.1-0.2-0.2-0.3-0.3-0.4
		C1098-135.5,1097.7-135.5,1097.4-135.5z M1104.5-129.4c-0.8,0-1.3-0.2-1.7-0.5c-0.4-0.4-0.5-0.9-0.5-1.8c0-0.6,0.1-1.1,0.2-1.4
		c0.1-0.3,0.4-0.6,0.7-0.7s0.8-0.2,1.5-0.2c0.5,0,1.2,0,2.1,0.1v-0.3c0-0.4,0-0.6-0.1-0.8s-0.2-0.3-0.5-0.3c-0.2,0-0.7-0.1-1.3-0.1
		c-0.8,0-1.5,0-2.2,0.1v-1.7c0.9-0.2,1.9-0.3,3-0.3c1.1,0,1.8,0.1,2.3,0.3s0.8,0.5,1,1s0.2,1.1,0.2,1.9v4.6h-2.3l-0.1-0.9h-0.1
		c-0.3,0.4-0.6,0.7-0.9,0.8C1105.5-129.4,1105-129.4,1104.5-129.4z M1105.7-131.1c0.3,0,0.5,0,0.7-0.1c0.2-0.1,0.3-0.2,0.4-0.3
		c0.1-0.2,0.2-0.5,0.2-0.9v-0.3h-1.4c-0.3,0-0.5,0-0.6,0.1c-0.1,0-0.2,0.1-0.2,0.2c0,0.1-0.1,0.3-0.1,0.6c0,0.2,0,0.4,0.1,0.5
		s0.1,0.2,0.3,0.2S1105.3-131.1,1105.7-131.1z M1120.1-133.5c0-0.5,0-0.9-0.1-1.2c0-0.2-0.1-0.4-0.2-0.4c-0.1-0.1-0.3-0.1-0.6-0.1
		c-0.3,0-0.5,0-0.7,0.1c-0.1,0.1-0.2,0.3-0.3,0.5s-0.1,0.6-0.1,1.1v4h-2.4v-4c0-0.5,0-0.9-0.1-1.2c0-0.2-0.1-0.4-0.2-0.4
		c-0.1-0.1-0.3-0.1-0.6-0.1c-0.3,0-0.5,0-0.7,0.1s-0.2,0.3-0.3,0.5c0,0.2-0.1,0.6-0.1,1.1v4h-2.4v-7.6h2.3l0.1,0.9h0.1
		c0.4-0.7,1.1-1,2.1-1c0.6,0,1,0.1,1.4,0.2c0.3,0.2,0.5,0.4,0.7,0.8h0.1c0.4-0.7,1.1-1,2.2-1c0.6,0,1.1,0.1,1.4,0.3
		c0.3,0.2,0.5,0.5,0.7,1s0.2,1,0.2,1.7v4.8h-2.4V-133.5z M1127.7-129.4c-0.5,0-1,0-1.6-0.1c-0.6,0-1.1-0.1-1.5-0.1v-1.7
		c0.9,0.1,1.7,0.1,2.4,0.1c0.5,0,0.8,0,1,0c0.2,0,0.3-0.1,0.4-0.2c0.1-0.1,0.1-0.2,0.1-0.4c0-0.1,0-0.3-0.1-0.3s-0.1-0.1-0.2-0.1
		c-0.1,0-0.3-0.1-0.5-0.1l-1.8-0.2c-0.6-0.1-1-0.3-1.2-0.7s-0.3-0.9-0.3-1.7c0-0.7,0.1-1.2,0.4-1.5c0.3-0.3,0.6-0.6,1.1-0.7
		c0.4-0.1,1-0.2,1.7-0.2c0.5,0,1,0,1.5,0.1c0.5,0,0.9,0.1,1.2,0.2v1.7c-0.8-0.1-1.6-0.1-2.2-0.1c-0.4,0-0.8,0-0.9,0
		c-0.2,0-0.3,0.1-0.4,0.1c-0.1,0.1-0.1,0.2-0.1,0.4c0,0.1,0,0.3,0,0.3s0.1,0.1,0.2,0.1s0.3,0.1,0.5,0.1l1.8,0.2
		c0.4,0.1,0.7,0.1,0.9,0.3s0.4,0.3,0.5,0.7s0.2,0.8,0.2,1.4c0,0.7-0.1,1.2-0.4,1.6c-0.2,0.4-0.6,0.6-1,0.7
		S1128.4-129.4,1127.7-129.4z M1131.8-127.2c0.5-0.7,0.9-1.2,1.1-1.6c0.2-0.4,0.4-1,0.5-1.8s0.2-1.9,0.2-3.3c0-1.4-0.1-2.5-0.2-3.3
		s-0.3-1.4-0.5-1.8c-0.2-0.4-0.6-1-1.1-1.6h1.6c0.7,0.7,1.2,1.3,1.5,1.8c0.3,0.5,0.6,1.1,0.7,1.8c0.2,0.7,0.2,1.7,0.2,3
		c0,1.3-0.1,2.3-0.2,3c-0.1,0.7-0.4,1.3-0.7,1.8c-0.3,0.5-0.8,1.1-1.5,1.9H1131.8z"/>
</g>
<g>
	<defs>
		<rect id="SVGID_9_" x="927" y="159" width="244" height="75"/>
	</defs>
	<clipPath id="SVGID_10_">
		<use xlink:href="#SVGID_9_"  style="overflow:visible;"/>
	</clipPath>
	<path class="st5" d="M938,162c-4.4,0-8,3.6-8,8v52c0,4.4,3.6,8,8,8h221c4.4,0,8-3.6,8-8v-52c0-4.4-3.6-8-8-8H938z"/>
</g>
<g>
	<defs>
		<rect id="SVGID_11_" x="927" y="159" width="244" height="75"/>
	</defs>
	<clipPath id="SVGID_12_">
		<use xlink:href="#SVGID_11_"  style="overflow:visible;"/>
	</clipPath>
	<path class="st6" d="M938,162c-4.4,0-8,3.6-8,8v52c0,4.4,3.6,8,8,8h221c4.4,0,8-3.6,8-8v-52c0-4.4-3.6-8-8-8H938z"/>
</g>
<g>
	<defs>
		<rect id="SVGID_13_" x="942" y="170" width="214" height="53"/>
	</defs>
	<clipPath id="SVGID_14_">
		<use xlink:href="#SVGID_13_"  style="overflow:visible;"/>
	</clipPath>
	<path class="st7" d="M1004.7,189.7v-10.3h7.3v2.1h-4.7v1.9h4v2.1h-4v2h4.7v2.1H1004.7z M1020.2,189.7l-2-3.1h-0.1l-2,3.1h-2.8
		l3.3-5.2l-3.3-5.1h3l1.9,3.1h0.1l1.9-3.1h2.9l-3.3,5.1l3.3,5.2H1020.2z M1031.3,189.5c-0.3,0.1-0.8,0.1-1.3,0.2
		c-0.5,0-1,0.1-1.4,0.1c-1.3,0-2.3-0.2-2.9-0.5c-0.6-0.3-1-0.8-1.2-1.6c-0.2-0.7-0.3-1.8-0.3-3.2c0-1.4,0.1-2.5,0.3-3.2
		c0.2-0.7,0.6-1.2,1.2-1.6c0.6-0.3,1.6-0.5,2.9-0.5c0.4,0,0.9,0,1.4,0.1s0.9,0.1,1.2,0.2v2c-1-0.1-1.7-0.1-2-0.1
		c-0.8,0-1.4,0.1-1.7,0.2s-0.5,0.4-0.6,0.8s-0.1,1.1-0.1,2.2c0,1.1,0,1.8,0.1,2.2c0.1,0.4,0.3,0.7,0.6,0.8s0.9,0.2,1.7,0.2
		c0.7,0,1.4,0,2.1-0.1V189.5z M1039.2,189.7v-4.1h-3.3v4.1h-2.6v-10.3h2.6v4h3.3v-4h2.6v10.3H1039.2z M1050.8,189.7l-0.6-2h-3.7
		l-0.6,2h-2.6l3.3-10.3h3.5l3.3,10.3H1050.8z M1048.3,181.6L1048.3,181.6l-1.3,3.9h2.5L1048.3,181.6z M1061.1,189.7l-3.6-5.9h-0.1
		v5.9h-2.5v-10.3h2.7l3.3,5.4h0.1v-5.4h2.5v10.3H1061.1z M1070.1,185.6v-2h3.9v5.8c-0.5,0.1-1.1,0.2-1.8,0.2s-1.3,0.1-1.8,0.1
		c-1.3,0-2.3-0.1-3-0.4c-0.6-0.3-1.1-0.8-1.3-1.5s-0.4-1.8-0.4-3.4c0-1.4,0.1-2.5,0.4-3.2c0.2-0.7,0.7-1.3,1.3-1.6
		c0.7-0.3,1.6-0.5,2.9-0.5c0.7,0,1.5,0,2.2,0.1c0.7,0.1,1.2,0.2,1.3,0.2v2c-1.1-0.1-2-0.2-2.6-0.2c-1,0-1.7,0.1-2,0.2
		s-0.6,0.4-0.7,0.8s-0.2,1.2-0.2,2.2c0,1,0,1.7,0.1,2.1c0.1,0.4,0.3,0.7,0.6,0.9c0.3,0.2,0.8,0.2,1.4,0.2c0.4,0,0.7,0,1,0v-2.1
		H1070.1z M1076.3,189.7v-10.3h7.3v2.1h-4.7v1.9h4v2.1h-4v2h4.7v2.1H1076.3z M1089.6,189.8c-1.5,0-2.8-0.1-3.9-0.3v-2
		c1.2,0.1,2.3,0.2,3.1,0.2c0.5,0,0.9,0,1.1-0.1c0.3,0,0.4-0.1,0.6-0.2c0.1-0.1,0.2-0.2,0.2-0.3c0-0.1,0-0.3,0-0.5
		c0-0.3,0-0.4-0.1-0.5c0-0.1-0.1-0.2-0.2-0.2c-0.1,0-0.3-0.1-0.6-0.1l-1.9-0.2c-0.7-0.1-1.2-0.3-1.6-0.5c-0.4-0.3-0.6-0.6-0.7-1
		c-0.1-0.4-0.2-0.9-0.2-1.6c0-0.9,0.2-1.6,0.5-2c0.3-0.5,0.8-0.8,1.3-0.9c0.6-0.1,1.3-0.2,2.1-0.2c0.6,0,1.2,0,1.7,0.1
		c0.5,0.1,1.1,0.1,1.7,0.2v2c-1.2-0.1-2.2-0.2-2.9-0.2c-0.8,0-1.3,0.1-1.6,0.2c-0.1,0.1-0.2,0.1-0.2,0.3c0,0.1-0.1,0.3-0.1,0.5
		c0,0.3,0,0.4,0.1,0.5c0,0.1,0.1,0.2,0.2,0.2c0.1,0,0.3,0.1,0.6,0.1l2.2,0.3c0.4,0.1,0.8,0.1,1.1,0.3c0.3,0.1,0.5,0.3,0.7,0.7
		c0.3,0.4,0.4,1.1,0.4,2.1c0,1-0.2,1.7-0.5,2.2s-0.7,0.8-1.2,1C1091.1,189.7,1090.4,189.8,1089.6,189.8z"/>
</g>
<g>
	<defs>
		<rect id="SVGID_15_" x="942" y="170" width="214" height="53"/>
	</defs>
	<clipPath id="SVGID_16_">
		<use xlink:href="#SVGID_15_"  style="overflow:visible;"/>
	</clipPath>
	<path class="st8" d="M947.7,214.8c-0.7-0.8-1.2-1.4-1.5-1.9c-0.3-0.5-0.5-1.1-0.7-1.8c-0.2-0.7-0.2-1.7-0.2-3s0.1-2.3,0.2-3
		c0.1-0.7,0.4-1.4,0.7-1.8s0.8-1.1,1.5-1.8h1.6c-0.5,0.7-0.9,1.2-1.1,1.6c-0.2,0.4-0.4,1-0.5,1.8c-0.1,0.8-0.2,1.9-0.2,3.3
		c0,1.4,0.1,2.5,0.2,3.3s0.3,1.4,0.5,1.8s0.6,1,1.1,1.6H947.7z M957.3,212.5l-0.6-2H953l-0.6,2h-2.6l3.3-10.3h3.5l3.3,10.3H957.3z
		 M954.9,204.5L954.9,204.5l-1.3,3.9h2.5L954.9,204.5z M961.5,212.5v-10.3h2.6v8.1h4.1v2.2H961.5z M974,208.5v-2h3.9v5.8
		c-0.5,0.1-1.1,0.2-1.8,0.2s-1.3,0.1-1.8,0.1c-1.3,0-2.3-0.1-3-0.4c-0.6-0.3-1.1-0.8-1.3-1.5s-0.4-1.8-0.4-3.4
		c0-1.4,0.1-2.5,0.4-3.2c0.2-0.7,0.7-1.3,1.3-1.6c0.7-0.3,1.6-0.5,2.9-0.5c0.7,0,1.5,0,2.2,0.1c0.7,0.1,1.2,0.2,1.3,0.2v2
		c-1.1-0.1-2-0.2-2.6-0.2c-1,0-1.7,0.1-2,0.2s-0.6,0.4-0.7,0.8s-0.2,1.2-0.2,2.2c0,1,0,1.7,0.1,2.1c0.1,0.4,0.3,0.7,0.6,0.9
		s0.8,0.2,1.4,0.2c0.4,0,0.7,0,1,0v-2.1H974z M984.4,212.6c-1.5,0-2.5-0.2-3.1-0.5c-0.6-0.3-1-0.8-1.2-1.5c-0.2-0.7-0.2-1.8-0.2-3.4
		c0-1.6,0.1-2.7,0.2-3.4c0.2-0.7,0.5-1.2,1.2-1.5s1.6-0.5,3.1-0.5s2.5,0.2,3.1,0.5s1,0.8,1.1,1.5c0.1,0.7,0.2,1.8,0.2,3.4
		c0,1.6-0.1,2.7-0.2,3.4c-0.2,0.7-0.5,1.2-1.1,1.5C986.9,212.5,985.9,212.6,984.4,212.6z M984.4,210.5c0.6,0,1.1-0.1,1.3-0.2
		c0.2-0.1,0.4-0.3,0.4-0.7s0.1-1.1,0.1-2.3c0-1.1,0-1.9-0.1-2.3c-0.1-0.4-0.2-0.6-0.4-0.7c-0.2-0.1-0.7-0.2-1.3-0.2
		c-0.7,0-1.1,0.1-1.3,0.2c-0.2,0.1-0.4,0.4-0.4,0.7c-0.1,0.4-0.1,1.1-0.1,2.3c0,1.1,0,1.9,0.1,2.3c0.1,0.4,0.2,0.6,0.4,0.7
		C983.3,210.5,983.8,210.5,984.4,210.5z M995,212.5v-10.3h2.6v8.1h4.1v2.2H995z M1003.2,203.4v-2h2.5v2H1003.2z M1003.2,212.5v-7.7
		h2.4v7.7H1003.2z M1010.6,212.6c-0.5,0-1,0-1.6-0.1c-0.6,0-1.1-0.1-1.5-0.2v-1.7c0.9,0.1,1.7,0.1,2.4,0.1c0.5,0,0.8,0,1,0
		s0.3-0.1,0.4-0.2c0.1-0.1,0.1-0.2,0.1-0.4c0-0.1,0-0.3-0.1-0.3c0-0.1-0.1-0.1-0.2-0.1c-0.1,0-0.3-0.1-0.5-0.1l-1.8-0.2
		c-0.6-0.1-1-0.3-1.2-0.7c-0.2-0.4-0.3-0.9-0.3-1.7c0-0.7,0.1-1.2,0.4-1.5c0.3-0.3,0.6-0.6,1.1-0.7c0.4-0.1,1-0.2,1.7-0.2
		c0.5,0,1,0,1.5,0.1c0.5,0,0.9,0.1,1.2,0.2v1.7c-0.8-0.1-1.6-0.1-2.2-0.1c-0.4,0-0.8,0-0.9,0c-0.2,0-0.3,0.1-0.4,0.1
		s-0.1,0.2-0.1,0.4c0,0.2,0,0.3,0,0.3s0.1,0.1,0.2,0.1c0.1,0,0.3,0.1,0.5,0.1l1.8,0.2c0.4,0.1,0.7,0.1,0.9,0.3
		c0.2,0.1,0.4,0.3,0.5,0.7s0.2,0.8,0.2,1.4c0,0.7-0.1,1.2-0.4,1.6c-0.2,0.4-0.6,0.6-1,0.7C1011.8,212.6,1011.3,212.6,1010.6,212.6z
		 M1016,212.5v-5.8h-1.4v-1.9h1.4v-2.2h2.4v2.2h1.6v1.9h-1.6v5.8H1016z M1021.5,203.4v-2h2.5v2H1021.5z M1021.5,212.5v-7.7h2.4v7.7
		H1021.5z M1030.5,208.5c0-0.6,0-1-0.1-1.2c0-0.2-0.1-0.4-0.3-0.4c-0.1-0.1-0.4-0.1-0.7-0.1c-0.3,0-0.6,0-0.7,0.1
		c-0.2,0.1-0.3,0.3-0.3,0.5c-0.1,0.2-0.1,0.6-0.1,1.1v4h-2.4v-7.7h2.3l0.1,0.9h0.1c0.4-0.7,1.1-1,2.2-1c0.6,0,1.1,0.1,1.5,0.3
		c0.3,0.2,0.6,0.5,0.7,1c0.1,0.4,0.2,1,0.2,1.7v4.8h-2.4V208.5z M1038.1,215.6c-0.5,0-1,0-1.5-0.1c-0.5,0-0.9-0.1-1.2-0.1v-1.7
		c0.8,0,1.5,0,2.1,0c0.7,0,1.2,0,1.4-0.1c0.3-0.1,0.4-0.2,0.5-0.4c0.1-0.2,0.1-0.6,0.1-1.1v-0.6h-0.1c-0.2,0.4-0.5,0.6-0.8,0.7
		c-0.4,0.1-0.8,0.2-1.3,0.2c-0.6,0-1.1-0.1-1.5-0.3c-0.4-0.2-0.6-0.6-0.8-1.2c-0.2-0.5-0.2-1.3-0.2-2.3c0-1,0.1-1.8,0.3-2.4
		s0.4-1,0.8-1.2c0.4-0.2,0.9-0.3,1.5-0.3c0.5,0,0.9,0.1,1.3,0.2s0.7,0.4,0.9,0.8h0.1l0.1-0.9h2.3v6.8c0,1-0.1,1.8-0.2,2.3
		s-0.5,0.9-1.1,1.2C1040.1,215.5,1039.2,215.6,1038.1,215.6z M1038.4,210.5c0.3,0,0.5,0,0.7-0.1c0.2-0.1,0.3-0.2,0.3-0.4
		c0.1-0.1,0.1-0.3,0.1-0.5c0-0.2,0-0.5,0-0.9c0-0.4,0-0.6,0-0.8c0-0.2-0.1-0.4-0.1-0.5c-0.1-0.2-0.2-0.3-0.3-0.4
		c-0.1-0.1-0.4-0.1-0.7-0.1c-0.4,0-0.6,0-0.8,0.1c-0.2,0.1-0.3,0.2-0.3,0.5c0,0.2-0.1,0.7-0.1,1.3c0,0.6,0,1,0.1,1.3
		c0.1,0.2,0.2,0.4,0.3,0.5S1038,210.5,1038.4,210.5z M1043.9,213.8c0.3,0,0.5,0,0.7-0.1c0.1-0.1,0.2-0.2,0.3-0.3
		c0.1-0.1,0.1-0.4,0.1-0.6v-0.2h-0.9v-2.2h2.6v1.7c0,0.8-0.1,1.4-0.2,1.8s-0.4,0.6-0.7,0.8c-0.4,0.2-1,0.2-1.8,0.2V213.8z
		 M1059.2,212.5l-0.6-2h-3.7l-0.6,2h-2.6l3.3-10.3h3.5l3.3,10.3H1059.2z M1056.8,204.5L1056.8,204.5l-1.3,3.9h2.5L1056.8,204.5z
		 M1063.4,212.5v-10.3h2.6v8.1h4.1v2.2H1063.4z M1075.9,208.5v-2h3.9v5.8c-0.5,0.1-1.1,0.2-1.8,0.2s-1.3,0.1-1.8,0.1
		c-1.3,0-2.3-0.1-3-0.4c-0.6-0.3-1.1-0.8-1.3-1.5s-0.4-1.8-0.4-3.4c0-1.4,0.1-2.5,0.4-3.2c0.2-0.7,0.7-1.3,1.3-1.6
		c0.7-0.3,1.6-0.5,2.9-0.5c0.7,0,1.5,0,2.2,0.1c0.7,0.1,1.2,0.2,1.3,0.2v2c-1.1-0.1-2-0.2-2.6-0.2c-1,0-1.7,0.1-2,0.2
		s-0.6,0.4-0.7,0.8s-0.2,1.2-0.2,2.2c0,1,0,1.7,0.1,2.1c0.1,0.4,0.3,0.7,0.6,0.9c0.3,0.2,0.8,0.2,1.4,0.2c0.4,0,0.7,0,1,0v-2.1
		H1075.9z M1086.3,212.6c-1.4,0-2.5-0.2-3.1-0.5c-0.6-0.3-1-0.8-1.2-1.5c-0.2-0.7-0.2-1.8-0.2-3.4c0-1.6,0.1-2.7,0.2-3.4
		c0.2-0.7,0.5-1.2,1.2-1.5s1.6-0.5,3.1-0.5s2.5,0.2,3.1,0.5s1,0.8,1.1,1.5c0.2,0.7,0.2,1.8,0.2,3.4c0,1.6-0.1,2.7-0.2,3.4
		c-0.2,0.7-0.5,1.2-1.1,1.5C1088.8,212.5,1087.8,212.6,1086.3,212.6z M1086.3,210.5c0.6,0,1.1-0.1,1.3-0.2c0.2-0.1,0.4-0.3,0.4-0.7
		s0.1-1.1,0.1-2.3c0-1.1,0-1.9-0.1-2.3c-0.1-0.4-0.2-0.6-0.4-0.7s-0.7-0.2-1.3-0.2c-0.7,0-1.1,0.1-1.3,0.2s-0.4,0.4-0.4,0.7
		c-0.1,0.4-0.1,1.1-0.1,2.3c0,1.1,0,1.9,0.1,2.3c0.1,0.4,0.2,0.6,0.4,0.7C1085.3,210.5,1085.7,210.5,1086.3,210.5z M1100.7,212.6
		c-1.5,0-2.8-0.1-3.9-0.3v-2c1.2,0.1,2.3,0.2,3.1,0.2c0.5,0,0.9,0,1.1-0.1c0.3,0,0.4-0.1,0.6-0.2c0.1-0.1,0.2-0.2,0.2-0.3
		c0-0.1,0-0.3,0-0.5c0-0.3,0-0.4-0.1-0.5c0-0.1-0.1-0.2-0.2-0.2c-0.1,0-0.3-0.1-0.6-0.1l-1.9-0.2c-0.7-0.1-1.2-0.3-1.6-0.5
		c-0.4-0.3-0.6-0.6-0.7-1c-0.1-0.4-0.2-0.9-0.2-1.6c0-0.9,0.2-1.6,0.5-2c0.3-0.5,0.8-0.8,1.3-0.9c0.6-0.1,1.3-0.2,2.1-0.2
		c0.6,0,1.2,0,1.7,0.1c0.5,0.1,1.1,0.1,1.7,0.2v2c-1.2-0.1-2.2-0.2-2.9-0.2c-0.8,0-1.3,0.1-1.6,0.2c-0.1,0.1-0.2,0.1-0.2,0.3
		c0,0.1-0.1,0.3-0.1,0.5c0,0.3,0,0.4,0.1,0.5c0,0.1,0.1,0.2,0.2,0.2c0.1,0,0.3,0.1,0.6,0.1l2.2,0.3c0.4,0.1,0.8,0.1,1.1,0.3
		c0.3,0.1,0.5,0.3,0.7,0.7c0.3,0.4,0.4,1.1,0.4,2.1c0,1-0.2,1.7-0.5,2.2s-0.7,0.8-1.2,1C1102.2,212.6,1101.6,212.6,1100.7,212.6z
		 M1107,212.5v-5.8h-1.4v-1.9h1.4v-2.2h2.4v2.2h1.7v1.9h-1.7v5.8H1107z M1112.5,204.9h2.3l0.1,1.3h0.1c0.2-0.5,0.5-0.9,0.9-1.1
		c0.4-0.2,0.9-0.3,1.5-0.3v2.3c-0.7,0-1.1,0.1-1.5,0.2c-0.3,0.2-0.6,0.4-0.7,0.8s-0.2,0.9-0.2,1.6v2.8h-2.4V204.9z M1125.4,209.3
		h-4.6c0,0.5,0,0.8,0.1,1c0.1,0.2,0.2,0.3,0.5,0.4c0.3,0.1,0.7,0.1,1.4,0.1c0.7,0,1.5,0,2.3-0.1v1.7c-0.3,0.1-0.7,0.1-1.3,0.2
		c-0.5,0-1.1,0.1-1.6,0.1c-1.2,0-2-0.1-2.6-0.4c-0.5-0.3-0.9-0.6-1-1.2c-0.1-0.5-0.2-1.3-0.2-2.4c0-1,0.1-1.8,0.2-2.4
		c0.2-0.5,0.5-0.9,1-1.2c0.5-0.3,1.3-0.4,2.4-0.4c1.1,0,1.9,0.1,2.3,0.4s0.8,0.6,0.9,1.1c0.1,0.5,0.2,1.3,0.2,2.4V209.3z
		 M1122,206.5c-0.4,0-0.6,0-0.8,0.1c-0.2,0.1-0.3,0.2-0.3,0.4c-0.1,0.2-0.1,0.5-0.1,1h2.3c0-0.5,0-0.8-0.1-1
		c-0.1-0.2-0.2-0.3-0.3-0.4C1122.6,206.5,1122.3,206.5,1122,206.5z M1129.1,212.6c-0.8,0-1.3-0.2-1.7-0.5c-0.4-0.4-0.5-1-0.5-1.8
		c0-0.6,0.1-1.1,0.2-1.4c0.1-0.3,0.4-0.6,0.7-0.7s0.8-0.2,1.5-0.2c0.5,0,1.2,0,2.1,0.1v-0.3c0-0.4,0-0.6-0.1-0.8s-0.2-0.3-0.5-0.3
		c-0.2,0-0.7-0.1-1.3-0.1c-0.8,0-1.5,0-2.2,0.1V205c0.9-0.2,1.9-0.3,3-0.3c1.1,0,1.8,0.1,2.3,0.3s0.8,0.5,1,1
		c0.2,0.4,0.2,1.1,0.2,1.9v4.6h-2.3l-0.1-0.9h-0.1c-0.3,0.4-0.6,0.7-0.9,0.8C1130.1,212.6,1129.6,212.6,1129.1,212.6z M1130.3,210.9
		c0.3,0,0.5,0,0.7-0.1s0.3-0.2,0.4-0.3c0.1-0.2,0.2-0.5,0.2-0.9v-0.3h-1.4c-0.3,0-0.5,0-0.6,0.1c-0.1,0-0.2,0.1-0.2,0.2
		c0,0.1-0.1,0.3-0.1,0.6c0,0.2,0,0.4,0.1,0.5c0.1,0.1,0.1,0.2,0.3,0.2C1129.7,210.9,1129.9,210.9,1130.3,210.9z M1144.7,208.5
		c0-0.6,0-0.9-0.1-1.2c0-0.2-0.1-0.4-0.2-0.4c-0.1-0.1-0.3-0.1-0.6-0.1c-0.3,0-0.5,0-0.7,0.1s-0.2,0.3-0.3,0.5
		c0,0.2-0.1,0.6-0.1,1.1v4h-2.4v-4c0-0.6,0-0.9-0.1-1.2c0-0.2-0.1-0.4-0.2-0.4c-0.1-0.1-0.3-0.1-0.6-0.1c-0.3,0-0.5,0-0.7,0.1
		s-0.2,0.3-0.3,0.5c0,0.2-0.1,0.6-0.1,1.1v4h-2.4v-7.7h2.3l0.1,0.9h0.1c0.4-0.7,1.1-1,2.1-1c0.6,0,1,0.1,1.4,0.2
		c0.3,0.2,0.5,0.4,0.7,0.8h0.1c0.4-0.7,1.1-1,2.2-1c0.6,0,1.1,0.1,1.4,0.3c0.3,0.2,0.5,0.5,0.7,1c0.1,0.4,0.2,1,0.2,1.7v4.8h-2.4
		V208.5z M1148.8,214.8c0.5-0.7,0.9-1.2,1.1-1.6s0.4-1,0.5-1.8s0.2-1.9,0.2-3.3c0-1.4-0.1-2.5-0.2-3.3c-0.1-0.8-0.3-1.4-0.5-1.8
		c-0.2-0.4-0.6-1-1.1-1.6h1.6c0.7,0.7,1.2,1.3,1.5,1.8c0.3,0.5,0.6,1.1,0.7,1.8c0.2,0.7,0.2,1.7,0.2,3s-0.1,2.3-0.2,3
		c-0.1,0.7-0.4,1.3-0.7,1.8c-0.3,0.5-0.8,1.1-1.5,1.9H1148.8z"/>
</g>
<g>
	<defs>
		<rect id="SVGID_17_" x="601" y="-43" width="240" height="73"/>
	</defs>
	<clipPath id="SVGID_18_">
		<use xlink:href="#SVGID_17_"  style="overflow:visible;"/>
	</clipPath>
	<path class="st9" d="M612-40c-4.4,0-8,3.6-8,8v50c0,4.4,3.6,8,8,8h217c4.4,0,8-3.6,8-8v-50c0-4.4-3.6-8-8-8H612z"/>
</g>
<g>
	<defs>
		<rect id="SVGID_19_" x="601" y="-43" width="240" height="73"/>
	</defs>
	<clipPath id="SVGID_20_">
		<use xlink:href="#SVGID_19_"  style="overflow:visible;"/>
	</clipPath>
	<path class="st10" d="M612-40c-4.4,0-8,3.6-8,8v50c0,4.4,3.6,8,8,8h217c4.4,0,8-3.6,8-8v-50c0-4.4-3.6-8-8-8H612z"/>
</g>
<g>
	<defs>
		<rect id="SVGID_21_" x="615" y="-33" width="212" height="53"/>
	</defs>
	<clipPath id="SVGID_22_">
		<use xlink:href="#SVGID_21_"  style="overflow:visible;"/>
	</clipPath>
	<path class="st11" d="M669.7-13v-9.1h-3.3v-1.2h7.8v1.2h-3.3v9.1H669.7z M681.9-16.4h-5.2c0,0.7,0,1.3,0.2,1.6
		c0.1,0.3,0.3,0.5,0.7,0.7c0.3,0.1,0.9,0.2,1.7,0.2c0.8,0,1.6-0.1,2.4-0.2v1.1c-0.3,0.1-0.7,0.1-1.2,0.2c-0.5,0-1,0.1-1.5,0.1
		c-1,0-1.8-0.1-2.3-0.4c-0.5-0.2-0.8-0.6-1-1.2c-0.2-0.5-0.2-1.3-0.2-2.4c0-1.1,0.1-1.9,0.2-2.4c0.1-0.5,0.4-0.9,0.9-1.2
		s1.2-0.4,2.3-0.4c1,0,1.7,0.1,2.1,0.4c0.4,0.3,0.7,0.6,0.8,1.2c0.1,0.5,0.2,1.3,0.2,2.4V-16.4z M678.8-19.6c-0.7,0-1.1,0.1-1.4,0.2
		s-0.5,0.3-0.6,0.6c-0.1,0.3-0.1,0.8-0.2,1.5h4.1v-0.1c0-0.7-0.1-1.1-0.2-1.5s-0.3-0.5-0.6-0.6C679.7-19.6,679.3-19.6,678.8-19.6z
		 M686.5-12.9c-0.9,0-1.5-0.2-1.9-0.5s-0.6-0.9-0.6-1.7c0-0.6,0.1-1.1,0.2-1.4s0.4-0.6,0.7-0.7c0.3-0.1,0.8-0.2,1.4-0.2
		c0.3,0,1.2,0,2.9,0.1v-0.4c0-0.6-0.1-1-0.2-1.3s-0.3-0.4-0.6-0.5c-0.3-0.1-0.8-0.1-1.6-0.1c-0.3,0-0.7,0-1.2,0.1s-0.9,0.1-1.1,0.1
		v-1.1c0.8-0.1,1.7-0.2,2.8-0.2c0.9,0,1.6,0.1,2,0.3c0.4,0.2,0.7,0.5,0.9,0.9c0.2,0.4,0.2,1,0.2,1.8v4.8h-1.1l-0.1-1.1h-0.1
		c-0.2,0.5-0.5,0.8-1,1S687.1-12.9,686.5-12.9z M686.9-14c0.5,0,0.9,0,1.2-0.1c0.3-0.1,0.5-0.3,0.7-0.5c0.2-0.4,0.3-0.9,0.3-1.5
		v-0.3h-2.5c-0.4,0-0.7,0-0.9,0.1c-0.2,0.1-0.3,0.2-0.4,0.4c-0.1,0.2-0.1,0.4-0.1,0.8c0,0.4,0,0.6,0.1,0.8s0.3,0.3,0.5,0.4
		S686.4-14,686.9-14z M702.6-17.3c0-0.7,0-1.2-0.1-1.5c-0.1-0.3-0.2-0.5-0.4-0.6c-0.2-0.1-0.6-0.1-1.1-0.1c-0.6,0-1,0.1-1.2,0.3
		s-0.4,0.5-0.5,0.8c-0.1,0.4-0.1,0.9-0.1,1.5v3.9h-1.2v-4.3c0-0.7,0-1.2-0.1-1.5c-0.1-0.3-0.2-0.5-0.4-0.6c-0.2-0.1-0.6-0.1-1.1-0.1
		c-0.6,0-1,0.1-1.2,0.3c-0.3,0.2-0.4,0.5-0.5,0.8c-0.1,0.4-0.1,0.9-0.1,1.5v3.9h-1.2v-7.7h1.1l0.1,1.1h0.1c0.2-0.4,0.4-0.7,0.8-0.9
		c0.4-0.2,0.9-0.3,1.6-0.3c0.7,0,1.2,0.1,1.5,0.3s0.6,0.5,0.7,0.9h0.1c0.3-0.8,1.1-1.2,2.4-1.2c0.7,0,1.2,0.1,1.5,0.3
		c0.3,0.2,0.6,0.5,0.7,0.9s0.2,1,0.2,1.7v4.8h-1.2V-17.3z M720-13v-8.1H720l-3.5,8.1h-0.9l-3.5-8.1h-0.1v8.1h-1.2v-10.3h1.7l3.5,8
		h0.1l3.5-8h1.7V-13H720z M730.6-16.4h-5.2c0,0.7,0,1.3,0.2,1.6c0.1,0.3,0.3,0.5,0.7,0.7c0.3,0.1,0.9,0.2,1.7,0.2
		c0.8,0,1.6-0.1,2.4-0.2v1.1c-0.3,0.1-0.7,0.1-1.2,0.2c-0.5,0-1,0.1-1.5,0.1c-1,0-1.8-0.1-2.3-0.4c-0.5-0.2-0.8-0.6-1-1.2
		c-0.2-0.5-0.2-1.3-0.2-2.4c0-1.1,0.1-1.9,0.2-2.4c0.1-0.5,0.4-0.9,0.9-1.2s1.2-0.4,2.3-0.4c1,0,1.7,0.1,2.1,0.4
		c0.4,0.3,0.7,0.6,0.8,1.2c0.1,0.5,0.2,1.3,0.2,2.4V-16.4z M727.5-19.6c-0.7,0-1.1,0.1-1.4,0.2s-0.5,0.3-0.6,0.6
		c-0.1,0.3-0.1,0.8-0.2,1.5h4.1v-0.1c0-0.7-0.1-1.1-0.2-1.5s-0.3-0.5-0.6-0.6C728.5-19.6,728.1-19.6,727.5-19.6z M742.6-17.3
		c0-0.7,0-1.2-0.1-1.5c-0.1-0.3-0.2-0.5-0.4-0.6c-0.2-0.1-0.6-0.1-1.1-0.1c-0.6,0-1,0.1-1.2,0.3s-0.4,0.5-0.5,0.8
		c-0.1,0.4-0.1,0.9-0.1,1.5v3.9h-1.2v-4.3c0-0.7,0-1.2-0.1-1.5c-0.1-0.3-0.2-0.5-0.4-0.6c-0.2-0.1-0.6-0.1-1.1-0.1
		c-0.6,0-1,0.1-1.2,0.3c-0.3,0.2-0.4,0.5-0.5,0.8c-0.1,0.4-0.1,0.9-0.1,1.5v3.9h-1.2v-7.7h1.1l0.1,1.1h0.1c0.2-0.4,0.4-0.7,0.8-0.9
		c0.4-0.2,0.9-0.3,1.6-0.3c0.7,0,1.2,0.1,1.5,0.3s0.6,0.5,0.7,0.9h0.1c0.3-0.8,1.1-1.2,2.4-1.2c0.7,0,1.2,0.1,1.5,0.3
		c0.3,0.2,0.6,0.5,0.7,0.9s0.2,1,0.2,1.7v4.8h-1.2V-17.3z M750.6-12.9c-0.6,0-1.1-0.1-1.6-0.2c-0.4-0.2-0.7-0.5-0.9-0.9h-0.1
		l-0.1,1.1h-1.1v-11.1h1.2v4.5h0.1c0.2-0.4,0.5-0.7,0.9-0.8c0.4-0.2,0.9-0.2,1.6-0.2c0.8,0,1.3,0.1,1.7,0.3c0.4,0.2,0.7,0.6,0.8,1.2
		c0.2,0.6,0.2,1.4,0.2,2.4s-0.1,1.9-0.2,2.4c-0.2,0.6-0.4,0.9-0.8,1.2S751.3-12.9,750.6-12.9z M750.1-14c0.6,0,1.1-0.1,1.4-0.2
		c0.3-0.1,0.5-0.4,0.6-0.7c0.1-0.4,0.1-1,0.1-1.9c0-0.9,0-1.5-0.1-1.8c-0.1-0.4-0.3-0.6-0.6-0.7s-0.7-0.2-1.4-0.2
		c-0.5,0-0.9,0.1-1.2,0.2c-0.3,0.1-0.5,0.3-0.6,0.6c-0.1,0.2-0.2,0.5-0.2,0.8c0,0.3-0.1,0.7-0.1,1.2c0,0.5,0,0.9,0,1.2
		c0,0.3,0.1,0.6,0.2,0.8c0.1,0.3,0.3,0.4,0.6,0.6C749.2-14.1,749.6-14,750.1-14z M762.1-16.4h-5.2c0,0.7,0,1.3,0.2,1.6
		c0.1,0.3,0.3,0.5,0.7,0.7c0.3,0.1,0.9,0.2,1.7,0.2c0.8,0,1.6-0.1,2.4-0.2v1.1c-0.3,0.1-0.7,0.1-1.2,0.2c-0.5,0-1,0.1-1.5,0.1
		c-1,0-1.8-0.1-2.3-0.4c-0.5-0.2-0.8-0.6-1-1.2c-0.2-0.5-0.2-1.3-0.2-2.4c0-1.1,0.1-1.9,0.2-2.4c0.1-0.5,0.4-0.9,0.9-1.2
		s1.2-0.4,2.3-0.4c1,0,1.7,0.1,2.1,0.4c0.4,0.3,0.7,0.6,0.8,1.2c0.1,0.5,0.2,1.3,0.2,2.4V-16.4z M759-19.6c-0.7,0-1.1,0.1-1.4,0.2
		s-0.5,0.3-0.6,0.6c-0.1,0.3-0.1,0.8-0.2,1.5h4.1v-0.1c0-0.7-0.1-1.1-0.2-1.5s-0.3-0.5-0.6-0.6C759.9-19.6,759.5-19.6,759-19.6z
		 M764.6-20.6h1.1l0.1,1.5h0.1c0.2-0.6,0.5-1,0.9-1.2c0.4-0.2,1-0.3,1.7-0.3v1.3c-0.7,0-1.2,0.1-1.6,0.3c-0.4,0.2-0.6,0.5-0.8,1
		c-0.1,0.4-0.2,1-0.2,1.8v3.4h-1.2V-20.6z M772.8-12.9c-0.4,0-0.9,0-1.4-0.1c-0.5,0-1-0.1-1.4-0.1v-1.1c1,0.1,1.9,0.2,2.7,0.2
		c0.5,0,0.9,0,1.1-0.1c0.2-0.1,0.4-0.2,0.5-0.3c0.1-0.2,0.1-0.4,0.1-0.7s0-0.5-0.1-0.7c-0.1-0.1-0.1-0.2-0.3-0.3
		c-0.1,0-0.3-0.1-0.6-0.1l-2-0.2c-0.5,0-0.8-0.2-1.1-0.3c-0.2-0.2-0.4-0.4-0.5-0.7c-0.1-0.3-0.1-0.7-0.1-1.1c0-0.6,0.1-1.1,0.4-1.5
		c0.2-0.3,0.6-0.5,1-0.6c0.4-0.1,1-0.1,1.7-0.1c0.4,0,0.8,0,1.3,0.1c0.4,0,0.8,0.1,1.1,0.1v1.1c-0.8-0.1-1.6-0.2-2.4-0.2
		c-0.5,0-0.8,0-1.1,0.1c-0.2,0-0.4,0.1-0.6,0.3s-0.2,0.4-0.2,0.7c0,0.3,0,0.5,0.1,0.6c0,0.1,0.1,0.2,0.3,0.3
		c0.1,0.1,0.3,0.1,0.6,0.1l2.1,0.2c0.4,0.1,0.8,0.1,1,0.2c0.2,0.1,0.4,0.3,0.5,0.6c0.1,0.3,0.2,0.7,0.2,1.3c0,0.6-0.1,1.1-0.3,1.4
		c-0.2,0.3-0.5,0.6-0.9,0.7C774-12.9,773.5-12.9,772.8-12.9z"/>
</g>
<g>
	<defs>
		<rect id="SVGID_23_" x="615" y="-33" width="212" height="53"/>
	</defs>
	<clipPath id="SVGID_24_">
		<use xlink:href="#SVGID_23_"  style="overflow:visible;"/>
	</clipPath>
	<path class="st12" d="M622.4,11.1c-0.6,0-1.2,0-1.8-0.1c-0.7,0-1.3-0.1-1.8-0.2V9.7c1.3,0.1,2.4,0.2,3.3,0.2c0.5,0,1,0,1.3-0.1
		c0.3,0,0.6-0.1,0.8-0.2c0.2-0.1,0.3-0.3,0.4-0.5c0.1-0.2,0.1-0.5,0.1-0.9c0-0.5,0-0.8-0.1-1c-0.1-0.2-0.2-0.3-0.4-0.4
		s-0.5-0.2-1-0.2l-2.5-0.3c-0.6-0.1-1.1-0.2-1.4-0.4c-0.3-0.2-0.5-0.5-0.6-0.9c-0.1-0.4-0.2-0.8-0.2-1.4c0-0.8,0.1-1.4,0.4-1.9
		c0.3-0.4,0.7-0.7,1.2-0.8c0.5-0.1,1.2-0.2,2.1-0.2c0.6,0,1.2,0,1.8,0.1c0.6,0.1,1.1,0.1,1.4,0.2V2c-0.4-0.1-0.8-0.1-1.4-0.1
		c-0.6,0-1.1-0.1-1.6-0.1c-0.6,0-1,0-1.4,0.1s-0.6,0.1-0.8,0.3c-0.2,0.1-0.3,0.3-0.4,0.5s-0.1,0.5-0.1,0.9c0,0.4,0,0.7,0.1,0.9
		s0.2,0.3,0.3,0.4c0.2,0.1,0.5,0.1,0.8,0.2l2.5,0.3c0.6,0.1,1.1,0.2,1.4,0.3c0.3,0.1,0.6,0.4,0.7,0.8c0.1,0.4,0.2,0.9,0.2,1.7
		c0,0.9-0.1,1.6-0.4,2c-0.3,0.4-0.7,0.7-1.1,0.9C623.9,11.1,623.2,11.1,622.4,11.1z M631.5,11.1c-1.1,0-1.8-0.1-2.3-0.3
		c-0.5-0.2-0.8-0.6-0.9-1.1s-0.2-1.4-0.2-2.5s0.1-2,0.2-2.5s0.4-0.9,0.9-1.1c0.5-0.2,1.2-0.3,2.3-0.3c1.1,0,1.8,0.1,2.3,0.3
		c0.5,0.2,0.8,0.6,0.9,1.1s0.2,1.4,0.2,2.5s-0.1,2-0.2,2.5s-0.4,0.9-0.9,1.1C633.4,11,632.6,11.1,631.5,11.1z M631.5,10
		c0.7,0,1.2-0.1,1.5-0.2c0.3-0.1,0.5-0.4,0.5-0.7c0.1-0.3,0.1-1,0.1-1.9s0-1.6-0.1-1.9c-0.1-0.3-0.2-0.6-0.5-0.7
		c-0.3-0.1-0.8-0.2-1.5-0.2c-0.7,0-1.2,0.1-1.5,0.2c-0.3,0.1-0.5,0.4-0.5,0.7c-0.1,0.3-0.1,1-0.1,1.9s0,1.6,0.1,1.9
		c0.1,0.3,0.2,0.6,0.5,0.7C630.3,9.9,630.8,10,631.5,10z M638.1,4.5h-1.6V3.4h1.6V2.2c0-0.7,0.1-1.2,0.3-1.6
		c0.2-0.3,0.5-0.5,0.9-0.6c0.4-0.1,1.1-0.1,2-0.1v1c-0.6,0-1,0-1.3,0.1c-0.3,0.1-0.5,0.2-0.6,0.3c-0.1,0.1-0.1,0.4-0.1,0.7v1.4h2
		v1.1h-2V11h-1.2V4.5z M643.8,11V4.5h-1.5V3.4h1.5V1.1h1.2v2.2h1.8v1.1H645V11H643.8z M655.4,11l-1.8-5.5h-0.1l-1.7,5.5h-1.4
		l-2.4-7.7h1.3l1.9,6.1h0.1l1.9-6.1h1.2l1.9,6.1h0.1l1.9-6.1h1.2l-2.4,7.7H655.4z M663.2,11.1c-0.9,0-1.5-0.2-1.9-0.5
		c-0.4-0.3-0.6-0.9-0.6-1.7c0-0.6,0.1-1.1,0.2-1.4s0.4-0.6,0.7-0.7c0.3-0.1,0.8-0.2,1.4-0.2c0.3,0,1.2,0,2.9,0.1V6.2
		c0-0.6-0.1-1-0.2-1.3s-0.3-0.4-0.6-0.5c-0.3-0.1-0.8-0.1-1.6-0.1c-0.3,0-0.7,0-1.2,0.1c-0.5,0-0.9,0.1-1.1,0.1V3.4
		c0.8-0.1,1.7-0.2,2.8-0.2c0.9,0,1.6,0.1,2,0.3s0.7,0.5,0.9,0.9c0.2,0.4,0.2,1,0.2,1.8V11H666L666,9.9h-0.1c-0.2,0.5-0.5,0.8-1,1
		C664.4,11,663.9,11.1,663.2,11.1z M663.7,10c0.5,0,0.9,0,1.2-0.1c0.3-0.1,0.5-0.3,0.7-0.5c0.2-0.4,0.3-0.9,0.3-1.5V7.5h-2.6
		c-0.4,0-0.7,0-0.9,0.1c-0.2,0.1-0.3,0.2-0.4,0.4c-0.1,0.2-0.1,0.4-0.1,0.8c0,0.4,0,0.6,0.1,0.8c0.1,0.2,0.3,0.3,0.5,0.4
		S663.2,10,663.7,10z M670,3.4h1.1l0.1,1.5h0.1c0.2-0.6,0.5-1,0.9-1.2c0.4-0.2,1-0.3,1.6-0.3v1.3c-0.7,0-1.2,0.1-1.6,0.3
		c-0.4,0.2-0.6,0.5-0.8,1c-0.1,0.4-0.2,1-0.2,1.8V11H670V3.4z M681.7,7.6h-5.2c0,0.7,0,1.3,0.2,1.6c0.1,0.3,0.3,0.5,0.7,0.7
		c0.3,0.1,0.9,0.2,1.7,0.2c0.8,0,1.6-0.1,2.4-0.2v1.1c-0.3,0.1-0.7,0.1-1.2,0.2c-0.5,0-1,0.1-1.5,0.1c-1,0-1.8-0.1-2.3-0.4
		c-0.5-0.2-0.8-0.6-1-1.2s-0.2-1.3-0.2-2.4c0-1.1,0.1-1.9,0.2-2.4s0.4-0.9,0.9-1.2c0.5-0.3,1.2-0.4,2.3-0.4c1,0,1.7,0.1,2.1,0.4
		c0.4,0.3,0.7,0.6,0.8,1.2c0.1,0.5,0.2,1.3,0.2,2.4V7.6z M678.6,4.3c-0.6,0-1.1,0.1-1.4,0.2c-0.3,0.1-0.5,0.3-0.6,0.6
		c-0.1,0.3-0.1,0.8-0.2,1.5h4.1V6.6c0-0.7-0.1-1.1-0.2-1.5s-0.3-0.5-0.6-0.6C679.5,4.4,679.1,4.3,678.6,4.3z M688.1,0.7h3.3
		c1.4,0,2.4,0.1,3,0.4c0.6,0.3,1,0.7,1.1,1.4c0.2,0.7,0.2,1.8,0.2,3.4s-0.1,2.7-0.2,3.4s-0.5,1.1-1.1,1.4s-1.6,0.4-3,0.4h-3.3V0.7z
		 M691.1,9.8c1.2,0,2-0.1,2.4-0.2s0.7-0.4,0.8-0.9s0.2-1.4,0.2-2.8c0-1.4-0.1-2.3-0.2-2.8s-0.4-0.8-0.8-0.9
		c-0.4-0.1-1.2-0.2-2.3-0.2h-1.8v7.9H691.1z M704.6,7.6h-5.2c0,0.7,0,1.3,0.2,1.6c0.1,0.3,0.3,0.5,0.7,0.7c0.3,0.1,0.9,0.2,1.7,0.2
		c0.8,0,1.6-0.1,2.4-0.2v1.1c-0.3,0.1-0.7,0.1-1.2,0.2c-0.5,0-1,0.1-1.5,0.1c-1,0-1.8-0.1-2.3-0.4c-0.5-0.2-0.8-0.6-1-1.2
		s-0.2-1.3-0.2-2.4c0-1.1,0.1-1.9,0.2-2.4s0.4-0.9,0.9-1.2c0.5-0.3,1.2-0.4,2.3-0.4c1,0,1.7,0.1,2.1,0.4c0.4,0.3,0.7,0.6,0.8,1.2
		c0.1,0.5,0.2,1.3,0.2,2.4V7.6z M701.5,4.3c-0.6,0-1.1,0.1-1.4,0.2c-0.3,0.1-0.5,0.3-0.6,0.6c-0.1,0.3-0.1,0.8-0.2,1.5h4.1V6.6
		c0-0.7-0.1-1.1-0.2-1.5s-0.3-0.5-0.6-0.6C702.5,4.4,702.1,4.3,701.5,4.3z M708.9,11l-2.8-7.7h1.3l2.3,6.3h0.1l2.3-6.3h1.2l-2.8,7.7
		H708.9z M714.9,11V9.5h1.4V11H714.9z M729.5,11l-1.1-2.7h-4.6l-1.1,2.7h-1.3l3.9-10.3h1.6l3.9,10.3H729.5z M726.1,2.1L726.1,2.1
		l-2,5h3.9L726.1,2.1z M733,11V0.7h1.3v9.1h4.8V11H733z M745.1,6.6V5.4h3.6v5.4c-0.5,0.1-1,0.2-1.7,0.2c-0.6,0.1-1.2,0.1-1.6,0.1
		c-1.3,0-2.2-0.1-2.8-0.4c-0.6-0.3-1-0.8-1.2-1.5c-0.2-0.7-0.3-1.8-0.3-3.4c0-1.5,0.1-2.6,0.3-3.4s0.6-1.2,1.3-1.5
		c0.6-0.3,1.5-0.4,2.8-0.4c0.5,0,1,0,1.6,0.1s1.1,0.1,1.6,0.2V2c-1.1-0.2-2-0.2-2.6-0.2c-1.2,0-2,0.1-2.5,0.2c-0.5,0.1-0.8,0.5-1,1
		s-0.3,1.5-0.3,2.9c0,1.3,0.1,2.2,0.2,2.7s0.4,0.9,0.8,1.1c0.4,0.2,1.1,0.3,2.1,0.3c0.3,0,0.6,0,1,0c0.4,0,0.7-0.1,1-0.1V6.6H745.1z
		 M755.7,11.1c-1.4,0-2.3-0.1-2.9-0.4c-0.6-0.3-0.9-0.7-1.1-1.4c-0.2-0.7-0.2-1.8-0.2-3.5c0-1.6,0.1-2.8,0.2-3.5s0.5-1.1,1.1-1.4
		c0.6-0.3,1.5-0.4,2.9-0.4c1.4,0,2.3,0.1,2.9,0.4c0.6,0.3,0.9,0.7,1.1,1.4s0.2,1.8,0.2,3.5c0,1.6-0.1,2.8-0.2,3.5
		c-0.2,0.7-0.5,1.1-1.1,1.4C758,11,757.1,11.1,755.7,11.1z M755.7,9.9c1,0,1.7-0.1,2.1-0.2c0.4-0.1,0.6-0.5,0.7-1
		c0.1-0.5,0.2-1.5,0.2-2.9s-0.1-2.4-0.2-2.9s-0.3-0.8-0.7-1c-0.4-0.1-1-0.2-2.1-0.2S754,1.8,753.6,2c-0.4,0.1-0.6,0.5-0.7,1
		c-0.1,0.5-0.2,1.5-0.2,2.9s0.1,2.4,0.2,2.9c0.1,0.5,0.3,0.8,0.7,1S754.7,9.9,755.7,9.9z M770,11.1c-0.6,0-1.2,0-1.8-0.1
		c-0.7,0-1.3-0.1-1.8-0.2V9.7c1.3,0.1,2.4,0.2,3.3,0.2c0.5,0,1,0,1.3-0.1c0.3,0,0.6-0.1,0.8-0.2c0.2-0.1,0.3-0.3,0.4-0.5
		c0.1-0.2,0.1-0.5,0.1-0.9c0-0.5,0-0.8-0.1-1c-0.1-0.2-0.2-0.3-0.4-0.4s-0.5-0.2-1-0.2l-2.5-0.3c-0.6-0.1-1.1-0.2-1.4-0.4
		c-0.3-0.2-0.5-0.5-0.6-0.9c-0.1-0.4-0.2-0.8-0.2-1.4c0-0.8,0.1-1.4,0.4-1.9c0.3-0.4,0.7-0.7,1.2-0.8c0.5-0.1,1.2-0.2,2.1-0.2
		c0.6,0,1.2,0,1.8,0.1c0.6,0.1,1.1,0.1,1.4,0.2V2c-0.4-0.1-0.8-0.1-1.4-0.1c-0.6,0-1.1-0.1-1.6-0.1c-0.6,0-1,0-1.4,0.1
		S768,2,767.8,2.1c-0.2,0.1-0.3,0.3-0.4,0.5s-0.1,0.5-0.1,0.9c0,0.4,0,0.7,0.1,0.9s0.2,0.3,0.3,0.4c0.2,0.1,0.5,0.1,0.8,0.2l2.5,0.3
		c0.6,0.1,1.1,0.2,1.4,0.3c0.3,0.1,0.6,0.4,0.7,0.8c0.1,0.4,0.2,0.9,0.2,1.7c0,0.9-0.1,1.6-0.4,2c-0.3,0.4-0.7,0.7-1.1,0.9
		C771.4,11.1,770.8,11.1,770,11.1z M776.5,11V4.5H775V3.4h1.5V1.1h1.2v2.2h1.8v1.1h-1.8V11H776.5z M781.5,3.4h1.1l0.1,1.5h0.1
		c0.2-0.6,0.5-1,0.9-1.2c0.4-0.2,1-0.3,1.6-0.3v1.3c-0.7,0-1.2,0.1-1.6,0.3c-0.4,0.2-0.6,0.5-0.8,1c-0.1,0.4-0.2,1-0.2,1.8V11h-1.2
		V3.4z M793.2,7.6h-5.2c0,0.7,0,1.3,0.2,1.6c0.1,0.3,0.3,0.5,0.7,0.7c0.3,0.1,0.9,0.2,1.7,0.2c0.8,0,1.6-0.1,2.4-0.2v1.1
		c-0.3,0.1-0.7,0.1-1.2,0.2c-0.5,0-1,0.1-1.5,0.1c-1,0-1.8-0.1-2.3-0.4c-0.5-0.2-0.8-0.6-1-1.2s-0.2-1.3-0.2-2.4
		c0-1.1,0.1-1.9,0.2-2.4s0.4-0.9,0.9-1.2c0.5-0.3,1.2-0.4,2.3-0.4c1,0,1.7,0.1,2.1,0.4c0.4,0.3,0.7,0.6,0.8,1.2
		c0.1,0.5,0.2,1.3,0.2,2.4V7.6z M790.1,4.3c-0.6,0-1.1,0.1-1.4,0.2c-0.3,0.1-0.5,0.3-0.6,0.6c-0.1,0.3-0.1,0.8-0.2,1.5h4.1V6.6
		c0-0.7-0.1-1.1-0.2-1.5s-0.3-0.5-0.6-0.6C791,4.4,790.6,4.3,790.1,4.3z M797.7,11.1c-0.9,0-1.5-0.2-1.9-0.5
		c-0.4-0.3-0.6-0.9-0.6-1.7c0-0.6,0.1-1.1,0.2-1.4s0.4-0.6,0.7-0.7c0.3-0.1,0.8-0.2,1.4-0.2c0.3,0,1.2,0,2.9,0.1V6.2
		c0-0.6-0.1-1-0.2-1.3s-0.3-0.4-0.6-0.5c-0.3-0.1-0.8-0.1-1.6-0.1c-0.3,0-0.7,0-1.2,0.1c-0.5,0-0.9,0.1-1.1,0.1V3.4
		c0.8-0.1,1.7-0.2,2.8-0.2c0.9,0,1.6,0.1,2,0.3s0.7,0.5,0.9,0.9c0.2,0.4,0.2,1,0.2,1.8V11h-1.1l-0.1-1.1h-0.1c-0.2,0.5-0.5,0.8-1,1
		C798.9,11,798.4,11.1,797.7,11.1z M798.2,10c0.5,0,0.9,0,1.2-0.1c0.3-0.1,0.5-0.3,0.7-0.5c0.2-0.4,0.3-0.9,0.3-1.5V7.5h-2.5
		c-0.4,0-0.7,0-0.9,0.1c-0.2,0.1-0.3,0.2-0.4,0.4s-0.1,0.4-0.1,0.8c0,0.4,0,0.6,0.1,0.8c0.1,0.2,0.3,0.3,0.5,0.4S797.7,10,798.2,10z
		 M813.9,6.7c0-0.7,0-1.2-0.1-1.5c-0.1-0.3-0.2-0.5-0.4-0.6c-0.2-0.1-0.6-0.1-1.1-0.1c-0.6,0-1,0.1-1.2,0.3s-0.4,0.5-0.5,0.8
		c-0.1,0.3-0.1,0.9-0.1,1.5V11h-1.2V6.7c0-0.7,0-1.2-0.1-1.5s-0.2-0.5-0.4-0.6c-0.2-0.1-0.6-0.1-1.1-0.1c-0.6,0-1,0.1-1.2,0.3
		c-0.3,0.2-0.4,0.5-0.5,0.8c-0.1,0.4-0.1,0.9-0.1,1.5V11h-1.2V3.4h1.1l0.1,1.1h0.1c0.2-0.4,0.4-0.7,0.8-0.9s0.9-0.3,1.6-0.3
		c0.7,0,1.2,0.1,1.5,0.3c0.3,0.2,0.6,0.5,0.7,0.9h0.1c0.3-0.8,1.1-1.2,2.4-1.2c0.7,0,1.2,0.1,1.5,0.3c0.3,0.2,0.6,0.5,0.7,0.9
		c0.1,0.4,0.2,1,0.2,1.7V11h-1.2V6.7z M820.7,11.1c-0.4,0-0.9,0-1.4-0.1c-0.5,0-1-0.1-1.4-0.1V9.8c1,0.1,1.9,0.2,2.7,0.2
		c0.5,0,0.9,0,1.1-0.1c0.2-0.1,0.4-0.2,0.5-0.3s0.1-0.4,0.1-0.7s0-0.5-0.1-0.7c-0.1-0.1-0.1-0.2-0.3-0.3c-0.1,0-0.3-0.1-0.6-0.1
		l-2-0.2c-0.5,0-0.8-0.2-1.1-0.3c-0.2-0.2-0.4-0.4-0.5-0.7s-0.1-0.7-0.1-1.1c0-0.7,0.1-1.1,0.4-1.5c0.2-0.3,0.6-0.5,1-0.6
		c0.4-0.1,1-0.1,1.7-0.1c0.4,0,0.8,0,1.3,0.1s0.8,0.1,1.1,0.1v1.1c-0.8-0.1-1.6-0.2-2.4-0.2c-0.5,0-0.8,0-1.1,0.1
		c-0.2,0-0.4,0.1-0.6,0.3s-0.2,0.4-0.2,0.7c0,0.3,0,0.5,0.1,0.6c0,0.1,0.1,0.2,0.3,0.3s0.3,0.1,0.6,0.1l2.1,0.2
		c0.4,0.1,0.8,0.1,1,0.2c0.2,0.1,0.4,0.3,0.5,0.6c0.1,0.3,0.2,0.7,0.2,1.3c0,0.6-0.1,1.1-0.3,1.4c-0.2,0.3-0.5,0.6-0.9,0.7
		C821.9,11.1,821.4,11.1,820.7,11.1z"/>
</g>
<g>
	<defs>
		<rect id="SVGID_25_" x="607" y="82" width="223" height="73"/>
	</defs>
	<clipPath id="SVGID_26_">
		<use xlink:href="#SVGID_25_"  style="overflow:visible;"/>
	</clipPath>
	<path class="st13" d="M618,85c-4.4,0-8,3.6-8,8v50c0,4.4,3.6,8,8,8h200c4.4,0,8-3.6,8-8V93c0-4.4-3.6-8-8-8H618z"/>
</g>
<g>
	<defs>
		<rect id="SVGID_27_" x="607" y="82" width="223" height="73"/>
	</defs>
	<clipPath id="SVGID_28_">
		<use xlink:href="#SVGID_27_"  style="overflow:visible;"/>
	</clipPath>
	<path class="st14" d="M618,85c-4.4,0-8,3.6-8,8v50c0,4.4,3.6,8,8,8h200c4.4,0,8-3.6,8-8V93c0-4.4-3.6-8-8-8H618z"/>
</g>
<g>
	<defs>
		<rect id="SVGID_29_" x="621" y="92" width="195" height="53"/>
	</defs>
	<clipPath id="SVGID_30_">
		<use xlink:href="#SVGID_29_"  style="overflow:visible;"/>
	</clipPath>
	<path class="st15" d="M667.2,112v-9.1h-3.3v-1.2h7.8v1.2h-3.3v9.1H667.2z M679.4,108.6h-5.2c0,0.7,0,1.3,0.2,1.6
		c0.1,0.3,0.3,0.5,0.7,0.7c0.3,0.1,0.9,0.2,1.7,0.2c0.8,0,1.6-0.1,2.4-0.2v1.1c-0.3,0.1-0.7,0.1-1.2,0.2c-0.5,0-1,0.1-1.5,0.1
		c-1,0-1.8-0.1-2.3-0.4c-0.5-0.2-0.8-0.6-1-1.2c-0.2-0.5-0.2-1.3-0.2-2.4c0-1.1,0.1-1.9,0.2-2.4c0.1-0.5,0.4-0.9,0.9-1.2
		c0.5-0.3,1.2-0.4,2.3-0.4c1,0,1.7,0.1,2.1,0.4c0.4,0.3,0.7,0.6,0.8,1.2s0.2,1.3,0.2,2.4V108.6z M676.3,105.4
		c-0.7,0-1.1,0.1-1.4,0.2s-0.5,0.3-0.6,0.6s-0.1,0.8-0.2,1.5h4.1v-0.1c0-0.7-0.1-1.1-0.2-1.5s-0.3-0.5-0.6-0.6
		S676.8,105.4,676.3,105.4z M684,112.1c-0.9,0-1.5-0.2-1.9-0.5c-0.4-0.3-0.6-0.9-0.6-1.7c0-0.6,0.1-1,0.2-1.4s0.4-0.6,0.7-0.7
		c0.3-0.1,0.8-0.2,1.4-0.2c0.3,0,1.2,0,2.9,0.1v-0.5c0-0.6-0.1-1-0.2-1.3s-0.3-0.4-0.6-0.5c-0.3-0.1-0.8-0.1-1.6-0.1
		c-0.3,0-0.7,0-1.2,0.1c-0.5,0-0.9,0.1-1.1,0.1v-1.1c0.8-0.1,1.7-0.2,2.8-0.2c0.9,0,1.6,0.1,2,0.3c0.4,0.2,0.7,0.5,0.9,0.9
		c0.2,0.4,0.2,1,0.2,1.8v4.8h-1.1l-0.1-1.1h-0.1c-0.2,0.5-0.5,0.8-1,1S684.6,112.1,684,112.1z M684.4,111c0.5,0,0.9,0,1.2-0.1
		s0.5-0.3,0.7-0.5c0.2-0.4,0.3-0.9,0.3-1.5v-0.3h-2.5c-0.4,0-0.7,0-0.9,0.1c-0.2,0.1-0.3,0.2-0.4,0.4c-0.1,0.2-0.1,0.4-0.1,0.8
		c0,0.4,0,0.6,0.1,0.8c0.1,0.2,0.3,0.3,0.5,0.4S683.9,111,684.4,111z M700.1,107.7c0-0.7,0-1.2-0.1-1.5c-0.1-0.3-0.2-0.5-0.4-0.6
		c-0.2-0.1-0.6-0.1-1.1-0.1c-0.6,0-1,0.1-1.2,0.3s-0.4,0.5-0.5,0.8c-0.1,0.4-0.1,0.9-0.1,1.5v3.9h-1.2v-4.3c0-0.7,0-1.2-0.1-1.5
		c-0.1-0.3-0.2-0.5-0.4-0.6c-0.2-0.1-0.6-0.1-1.1-0.1c-0.6,0-1,0.1-1.2,0.3c-0.3,0.2-0.4,0.5-0.5,0.8c-0.1,0.4-0.1,0.9-0.1,1.5v3.9
		h-1.2v-7.6h1.1l0.1,1.1h0.1c0.2-0.4,0.4-0.7,0.8-0.9c0.4-0.2,0.9-0.3,1.6-0.3c0.7,0,1.2,0.1,1.5,0.3s0.6,0.5,0.7,0.9h0.1
		c0.3-0.8,1.1-1.2,2.4-1.2c0.7,0,1.2,0.1,1.5,0.3c0.3,0.2,0.6,0.5,0.7,0.9c0.1,0.4,0.2,1,0.2,1.7v4.8h-1.2V107.7z M717.5,112v-8.1
		h-0.1l-3.5,8.1H713l-3.5-8.1h-0.1v8.1h-1.2v-10.3h1.7l3.5,8h0.1l3.5-8h1.7V112H717.5z M728.1,108.6h-5.2c0,0.7,0,1.3,0.2,1.6
		c0.1,0.3,0.3,0.5,0.7,0.7c0.3,0.1,0.9,0.2,1.7,0.2c0.8,0,1.6-0.1,2.4-0.2v1.1c-0.3,0.1-0.7,0.1-1.2,0.2c-0.5,0-1,0.1-1.5,0.1
		c-1,0-1.8-0.1-2.3-0.4c-0.5-0.2-0.8-0.6-1-1.2c-0.2-0.5-0.2-1.3-0.2-2.4c0-1.1,0.1-1.9,0.2-2.4c0.1-0.5,0.4-0.9,0.9-1.2
		c0.5-0.3,1.2-0.4,2.3-0.4c1,0,1.7,0.1,2.1,0.4c0.4,0.3,0.7,0.6,0.8,1.2s0.2,1.3,0.2,2.4V108.6z M725,105.4c-0.7,0-1.1,0.1-1.4,0.2
		s-0.5,0.3-0.6,0.6s-0.1,0.8-0.2,1.5h4.1v-0.1c0-0.7-0.1-1.1-0.2-1.5s-0.3-0.5-0.6-0.6S725.6,105.4,725,105.4z M740.1,107.7
		c0-0.7,0-1.2-0.1-1.5c-0.1-0.3-0.2-0.5-0.4-0.6c-0.2-0.1-0.6-0.1-1.1-0.1c-0.6,0-1,0.1-1.2,0.3s-0.4,0.5-0.5,0.8
		c-0.1,0.4-0.1,0.9-0.1,1.5v3.9h-1.2v-4.3c0-0.7,0-1.2-0.1-1.5c-0.1-0.3-0.2-0.5-0.4-0.6c-0.2-0.1-0.6-0.1-1.1-0.1
		c-0.6,0-1,0.1-1.2,0.3c-0.3,0.2-0.4,0.5-0.5,0.8c-0.1,0.4-0.1,0.9-0.1,1.5v3.9h-1.2v-7.6h1.1l0.1,1.1h0.1c0.2-0.4,0.4-0.7,0.8-0.9
		c0.4-0.2,0.9-0.3,1.6-0.3c0.7,0,1.2,0.1,1.5,0.3s0.6,0.5,0.7,0.9h0.1c0.3-0.8,1.1-1.2,2.4-1.2c0.7,0,1.2,0.1,1.5,0.3
		c0.3,0.2,0.6,0.5,0.7,0.9c0.1,0.4,0.2,1,0.2,1.7v4.8h-1.2V107.7z M748.1,112.1c-0.6,0-1.1-0.1-1.6-0.2c-0.4-0.2-0.7-0.5-0.9-0.9
		h-0.1l-0.1,1.1h-1.1v-11.1h1.2v4.5h0.1c0.2-0.4,0.5-0.7,0.9-0.8c0.4-0.2,0.9-0.2,1.6-0.2c0.8,0,1.3,0.1,1.7,0.3
		c0.4,0.2,0.7,0.6,0.8,1.2c0.2,0.6,0.2,1.4,0.2,2.4s-0.1,1.9-0.2,2.4c-0.2,0.6-0.4,0.9-0.8,1.2C749.4,112,748.8,112.1,748.1,112.1z
		 M747.6,111c0.6,0,1.1-0.1,1.4-0.2s0.5-0.4,0.6-0.7c0.1-0.4,0.1-1,0.1-1.9c0-0.9,0-1.5-0.1-1.8c-0.1-0.4-0.3-0.6-0.6-0.7
		s-0.7-0.2-1.4-0.2c-0.5,0-0.9,0.1-1.2,0.2c-0.3,0.1-0.5,0.3-0.6,0.6c-0.1,0.2-0.2,0.5-0.2,0.8c0,0.3-0.1,0.7-0.1,1.2
		c0,0.5,0,0.9,0,1.2c0,0.3,0.1,0.6,0.2,0.8c0.1,0.3,0.3,0.5,0.6,0.6C746.7,110.9,747.1,111,747.6,111z M759.6,108.6h-5.2
		c0,0.7,0,1.3,0.2,1.6c0.1,0.3,0.3,0.5,0.7,0.7c0.3,0.1,0.9,0.2,1.7,0.2c0.8,0,1.6-0.1,2.4-0.2v1.1c-0.3,0.1-0.7,0.1-1.2,0.2
		c-0.5,0-1,0.1-1.5,0.1c-1,0-1.8-0.1-2.3-0.4c-0.5-0.2-0.8-0.6-1-1.2c-0.2-0.5-0.2-1.3-0.2-2.4c0-1.1,0.1-1.9,0.2-2.4
		c0.1-0.5,0.4-0.9,0.9-1.2c0.5-0.3,1.2-0.4,2.3-0.4c1,0,1.7,0.1,2.1,0.4c0.4,0.3,0.7,0.6,0.8,1.2s0.2,1.3,0.2,2.4V108.6z
		 M756.5,105.4c-0.7,0-1.1,0.1-1.4,0.2s-0.5,0.3-0.6,0.6s-0.1,0.8-0.2,1.5h4.1v-0.1c0-0.7-0.1-1.1-0.2-1.5s-0.3-0.5-0.6-0.6
		S757,105.4,756.5,105.4z M762.1,104.4h1.1l0.1,1.5h0.1c0.2-0.6,0.5-1,0.9-1.2c0.4-0.2,1-0.3,1.7-0.3v1.3c-0.7,0-1.2,0.1-1.6,0.3
		c-0.4,0.2-0.6,0.5-0.8,1c-0.1,0.4-0.2,1-0.2,1.8v3.4h-1.2V104.4z M770.3,112.1c-0.4,0-0.9,0-1.4-0.1c-0.5,0-1-0.1-1.4-0.1v-1.1
		c1,0.1,1.9,0.2,2.7,0.2c0.5,0,0.9,0,1.1-0.1c0.2-0.1,0.4-0.2,0.5-0.3c0.1-0.2,0.1-0.4,0.1-0.7s0-0.5-0.1-0.7s-0.1-0.2-0.3-0.3
		c-0.1,0-0.3-0.1-0.6-0.1l-2-0.2c-0.5,0-0.8-0.2-1.1-0.3c-0.2-0.2-0.4-0.4-0.5-0.7c-0.1-0.3-0.1-0.7-0.1-1.1c0-0.7,0.1-1.1,0.4-1.5
		c0.2-0.3,0.6-0.5,1-0.6c0.4-0.1,1-0.1,1.7-0.1c0.4,0,0.8,0,1.3,0.1c0.4,0,0.8,0.1,1.1,0.1v1.1c-0.8-0.1-1.6-0.2-2.4-0.2
		c-0.5,0-0.8,0-1.1,0.1c-0.2,0-0.4,0.1-0.6,0.3s-0.2,0.4-0.2,0.7c0,0.3,0,0.5,0.1,0.6c0,0.1,0.1,0.2,0.3,0.3c0.1,0,0.3,0.1,0.6,0.1
		l2.1,0.2c0.4,0.1,0.8,0.1,1,0.2c0.2,0.1,0.4,0.3,0.5,0.6s0.2,0.7,0.2,1.3c0,0.6-0.1,1.1-0.3,1.4c-0.2,0.3-0.5,0.6-0.9,0.7
		C771.5,112.1,771,112.1,770.3,112.1z"/>
</g>
<g>
	<defs>
		<rect id="SVGID_31_" x="621" y="92" width="195" height="53"/>
	</defs>
	<clipPath id="SVGID_32_">
		<use xlink:href="#SVGID_31_"  style="overflow:visible;"/>
	</clipPath>
	<path class="st16" d="M624.1,124.3h4.5c0.8,0,1.5,0.1,1.9,0.4c0.4,0.3,0.7,0.6,0.9,1.1c0.1,0.5,0.2,1.1,0.2,1.8
		c0,0.7-0.1,1.3-0.2,1.7c-0.1,0.5-0.4,0.8-0.9,1.1c-0.4,0.3-1.1,0.4-1.9,0.4h-3.2v3.8h-1.3V124.3z M628.1,129.6
		c0.7,0,1.1-0.1,1.4-0.2c0.3-0.1,0.5-0.3,0.6-0.6s0.1-0.7,0.1-1.3s0-1-0.1-1.3s-0.3-0.5-0.6-0.6c-0.3-0.1-0.8-0.2-1.4-0.2h-2.8v4.2
		H628.1z M633.9,126.9h1.1l0.1,1.5h0.1c0.2-0.6,0.5-1,0.9-1.2c0.4-0.2,1-0.3,1.7-0.3v1.3c-0.7,0-1.2,0.1-1.6,0.3
		c-0.4,0.2-0.6,0.5-0.8,1s-0.2,1-0.2,1.8v3.4h-1.2V126.9z M642.6,134.7c-1.1,0-1.8-0.1-2.3-0.3c-0.5-0.2-0.8-0.6-0.9-1.1
		c-0.1-0.5-0.2-1.4-0.2-2.5c0-1.2,0.1-2,0.2-2.5c0.1-0.5,0.4-0.9,0.9-1.1c0.5-0.2,1.2-0.3,2.3-0.3c1.1,0,1.8,0.1,2.3,0.3
		c0.5,0.2,0.8,0.6,0.9,1.1c0.1,0.5,0.2,1.4,0.2,2.5c0,1.2-0.1,2-0.2,2.5c-0.1,0.5-0.4,0.9-0.9,1.1
		C644.4,134.6,643.6,134.7,642.6,134.7z M642.6,133.6c0.7,0,1.2-0.1,1.5-0.2c0.3-0.1,0.5-0.4,0.5-0.7c0.1-0.3,0.1-1,0.1-1.9
		s0-1.6-0.1-1.9c-0.1-0.3-0.2-0.6-0.5-0.7c-0.3-0.1-0.8-0.2-1.5-0.2s-1.2,0.1-1.5,0.2c-0.3,0.1-0.5,0.4-0.5,0.7
		c-0.1,0.3-0.1,1-0.1,1.9s0,1.6,0.1,1.9c0.1,0.3,0.2,0.6,0.5,0.7C641.3,133.5,641.8,133.6,642.6,133.6z M648.4,124.8v-1.4h1.3v1.4
		H648.4z M647,136.6c0.4,0,0.8,0,1-0.1c0.2-0.1,0.3-0.1,0.4-0.2c0.1-0.1,0.1-0.3,0.1-0.5v-8.8h1.2v8.5c0,0.7-0.1,1.1-0.2,1.4
		s-0.4,0.5-0.8,0.6c-0.4,0.1-0.9,0.1-1.6,0.1V136.6z M658.5,131.2h-5.2c0,0.7,0.1,1.3,0.2,1.6s0.3,0.5,0.7,0.7
		c0.3,0.1,0.9,0.2,1.7,0.2c0.8,0,1.6-0.1,2.4-0.2v1.1c-0.3,0.1-0.7,0.1-1.2,0.2c-0.5,0-1,0.1-1.5,0.1c-1,0-1.8-0.1-2.3-0.4
		s-0.8-0.6-1-1.2s-0.2-1.3-0.2-2.4c0-1.1,0.1-1.9,0.2-2.4c0.1-0.5,0.4-0.9,0.9-1.2c0.5-0.3,1.2-0.4,2.3-0.4c1,0,1.7,0.1,2.1,0.4
		c0.4,0.3,0.7,0.6,0.8,1.2c0.1,0.5,0.2,1.3,0.2,2.4V131.2z M655.4,127.9c-0.7,0-1.1,0.1-1.4,0.2c-0.3,0.1-0.5,0.3-0.6,0.6
		c-0.1,0.3-0.1,0.8-0.2,1.5h4.1v-0.1c0-0.7-0.1-1.1-0.2-1.5s-0.3-0.5-0.6-0.6S655.9,127.9,655.4,127.9z M665.9,134.5
		c-0.3,0-0.6,0.1-1,0.1c-0.4,0-0.8,0.1-1.1,0.1c-0.9,0-1.6-0.1-2.1-0.4c-0.4-0.3-0.7-0.7-0.8-1.2s-0.2-1.3-0.2-2.3
		c0-1,0.1-1.8,0.2-2.3c0.2-0.6,0.4-1,0.9-1.2c0.4-0.3,1.1-0.4,1.9-0.4c0.3,0,0.7,0,1.1,0.1c0.4,0,0.7,0.1,1,0.1v1.1
		c-0.6-0.1-1.2-0.2-1.8-0.2c-0.6,0-1.1,0.1-1.4,0.2c-0.3,0.2-0.5,0.4-0.6,0.8s-0.2,1-0.2,1.8c0,0.8,0.1,1.5,0.2,1.8
		c0.1,0.4,0.3,0.6,0.6,0.8c0.3,0.1,0.8,0.2,1.4,0.2c0.5,0,1.1,0,1.8-0.1V134.5z M668.8,134.6V128h-1.5v-1.1h1.5v-2.2h1.2v2.2h1.8
		v1.1H670v6.5H668.8z M677.5,124.3h3.3c1.4,0,2.4,0.1,3,0.4c0.6,0.3,1,0.7,1.1,1.4c0.2,0.7,0.2,1.8,0.2,3.4c0,1.6-0.1,2.7-0.2,3.4
		c-0.2,0.7-0.5,1.1-1.1,1.4c-0.6,0.3-1.6,0.4-3,0.4h-3.3V124.3z M680.6,133.4c1.2,0,2-0.1,2.4-0.2c0.4-0.1,0.7-0.4,0.8-0.9
		s0.2-1.4,0.2-2.8c0-1.4-0.1-2.3-0.2-2.8s-0.4-0.8-0.8-0.9c-0.4-0.1-1.2-0.2-2.3-0.2h-1.8v7.9H680.6z M694.1,131.2h-5.2
		c0,0.7,0.1,1.3,0.2,1.6s0.3,0.5,0.7,0.7c0.3,0.1,0.9,0.2,1.7,0.2c0.8,0,1.6-0.1,2.4-0.2v1.1c-0.3,0.1-0.7,0.1-1.2,0.2
		c-0.5,0-1,0.1-1.5,0.1c-1,0-1.8-0.1-2.3-0.4s-0.8-0.6-1-1.2s-0.2-1.3-0.2-2.4c0-1.1,0.1-1.9,0.2-2.4c0.1-0.5,0.4-0.9,0.9-1.2
		c0.5-0.3,1.2-0.4,2.3-0.4c1,0,1.7,0.1,2.1,0.4c0.4,0.3,0.7,0.6,0.8,1.2c0.1,0.5,0.2,1.3,0.2,2.4V131.2z M691,127.9
		c-0.7,0-1.1,0.1-1.4,0.2c-0.3,0.1-0.5,0.3-0.6,0.6c-0.1,0.3-0.1,0.8-0.2,1.5h4.1v-0.1c0-0.7-0.1-1.1-0.2-1.5s-0.3-0.5-0.6-0.6
		S691.5,127.9,691,127.9z M698.4,134.6l-2.8-7.7h1.3l2.3,6.3h0.1l2.3-6.3h1.2l-2.8,7.7H698.4z M704.3,134.6V133h1.4v1.5H704.3z
		 M718.9,134.6l-1.1-2.7h-4.7l-1.1,2.7h-1.3l3.9-10.3h1.6l3.9,10.3H718.9z M715.5,125.6L715.5,125.6l-2,5h3.9L715.5,125.6z
		 M722.5,134.6v-10.3h1.3v9.1h4.8v1.2H722.5z M734.5,130.2V129h3.6v5.4c-0.5,0.1-1,0.2-1.7,0.2c-0.6,0.1-1.2,0.1-1.6,0.1
		c-1.3,0-2.2-0.1-2.8-0.4c-0.6-0.3-1-0.8-1.2-1.5c-0.2-0.7-0.3-1.8-0.3-3.4c0-1.5,0.1-2.6,0.3-3.4c0.2-0.7,0.6-1.2,1.3-1.5
		c0.6-0.3,1.5-0.4,2.8-0.4c0.5,0,1,0,1.6,0.1c0.6,0.1,1.1,0.1,1.6,0.2v1.1c-1.1-0.2-2-0.2-2.6-0.2c-1.2,0-2,0.1-2.5,0.2
		c-0.5,0.1-0.8,0.5-1,1c-0.2,0.6-0.3,1.5-0.3,2.9c0,1.3,0.1,2.2,0.2,2.7c0.1,0.5,0.4,0.9,0.8,1.1c0.4,0.2,1.1,0.3,2.1,0.3
		c0.3,0,0.7,0,1.1,0c0.4,0,0.7-0.1,1-0.1v-3.2H734.5z M745.1,134.7c-1.4,0-2.3-0.1-2.9-0.4c-0.6-0.3-0.9-0.7-1.1-1.4
		s-0.2-1.8-0.2-3.5c0-1.6,0.1-2.8,0.2-3.5c0.2-0.7,0.5-1.1,1.1-1.4c0.6-0.3,1.5-0.4,2.9-0.4c1.4,0,2.3,0.1,2.9,0.4
		c0.6,0.3,0.9,0.7,1.1,1.4c0.2,0.7,0.2,1.8,0.2,3.5c0,1.6-0.1,2.8-0.2,3.5s-0.5,1.1-1.1,1.4C747.5,134.6,746.5,134.7,745.1,134.7z
		 M745.1,133.5c1,0,1.7-0.1,2.1-0.2s0.6-0.5,0.7-1c0.1-0.5,0.2-1.5,0.2-2.9c0-1.4-0.1-2.4-0.2-2.9c-0.1-0.5-0.3-0.8-0.7-1
		s-1-0.2-2.1-0.2c-1,0-1.7,0.1-2.1,0.2c-0.4,0.1-0.6,0.5-0.7,1c-0.1,0.5-0.2,1.5-0.2,2.9c0,1.4,0.1,2.4,0.2,2.9
		c0.1,0.5,0.3,0.8,0.7,1C743.4,133.4,744.1,133.5,745.1,133.5z M759.4,134.7c-0.5,0-1.2,0-1.8-0.1c-0.7,0-1.3-0.1-1.8-0.2v-1.2
		c1.3,0.1,2.4,0.2,3.3,0.2c0.5,0,1,0,1.3-0.1c0.3,0,0.6-0.1,0.8-0.2c0.2-0.1,0.3-0.3,0.4-0.5c0.1-0.2,0.1-0.5,0.1-0.9
		c0-0.5,0-0.8-0.1-1c0-0.2-0.2-0.3-0.4-0.4s-0.5-0.2-1-0.2l-2.6-0.3c-0.6-0.1-1.1-0.2-1.4-0.4c-0.3-0.2-0.5-0.5-0.6-0.9
		c-0.1-0.4-0.2-0.8-0.2-1.4c0-0.8,0.1-1.4,0.4-1.9c0.3-0.4,0.7-0.7,1.2-0.8c0.5-0.1,1.2-0.2,2.1-0.2c0.6,0,1.2,0,1.8,0.1
		c0.6,0.1,1.1,0.1,1.4,0.2v1.1c-0.4-0.1-0.9-0.1-1.4-0.1c-0.6,0-1.1-0.1-1.6-0.1c-0.6,0-1,0-1.3,0.1c-0.3,0-0.6,0.1-0.8,0.3
		c-0.2,0.1-0.3,0.3-0.4,0.5c-0.1,0.2-0.1,0.5-0.1,0.9c0,0.4,0,0.7,0.1,0.9s0.2,0.3,0.3,0.4c0.2,0.1,0.4,0.1,0.8,0.2l2.5,0.3
		c0.6,0.1,1.1,0.2,1.4,0.3c0.3,0.1,0.6,0.4,0.7,0.8c0.1,0.4,0.2,0.9,0.2,1.7c0,0.9-0.1,1.6-0.4,2c-0.3,0.4-0.7,0.7-1.1,0.9
		C760.9,134.6,760.2,134.7,759.4,134.7z M766,134.6V128h-1.5v-1.1h1.5v-2.2h1.2v2.2h1.8v1.1h-1.8v6.5H766z M770.9,126.9h1.1l0.1,1.5
		h0.1c0.2-0.6,0.5-1,0.9-1.2c0.4-0.2,1-0.3,1.7-0.3v1.3c-0.7,0-1.2,0.1-1.6,0.3c-0.4,0.2-0.6,0.5-0.8,1s-0.2,1-0.2,1.8v3.4h-1.2
		V126.9z M782.6,131.2h-5.2c0,0.7,0.1,1.3,0.2,1.6s0.3,0.5,0.7,0.7c0.3,0.1,0.9,0.2,1.7,0.2c0.8,0,1.6-0.1,2.4-0.2v1.1
		c-0.3,0.1-0.7,0.1-1.2,0.2c-0.5,0-1,0.1-1.5,0.1c-1,0-1.8-0.1-2.3-0.4s-0.8-0.6-1-1.2s-0.2-1.3-0.2-2.4c0-1.1,0.1-1.9,0.2-2.4
		c0.1-0.5,0.4-0.9,0.9-1.2c0.5-0.3,1.2-0.4,2.3-0.4c1,0,1.7,0.1,2.1,0.4c0.4,0.3,0.7,0.6,0.8,1.2c0.1,0.5,0.2,1.3,0.2,2.4V131.2z
		 M779.5,127.9c-0.7,0-1.1,0.1-1.4,0.2c-0.3,0.1-0.5,0.3-0.6,0.6c-0.1,0.3-0.1,0.8-0.2,1.5h4.1v-0.1c0-0.7-0.1-1.1-0.2-1.5
		s-0.3-0.5-0.6-0.6S780,127.9,779.5,127.9z M787.2,134.7c-0.9,0-1.5-0.2-1.9-0.5c-0.4-0.3-0.6-0.9-0.6-1.7c0-0.6,0.1-1.1,0.2-1.4
		c0.1-0.3,0.4-0.6,0.7-0.7c0.3-0.1,0.8-0.2,1.4-0.2c0.3,0,1.2,0,2.9,0.1v-0.5c0-0.6-0.1-1-0.2-1.3s-0.3-0.4-0.6-0.5
		c-0.3-0.1-0.8-0.1-1.6-0.1c-0.3,0-0.7,0-1.2,0.1c-0.5,0-0.9,0.1-1.1,0.1V127c0.8-0.1,1.7-0.2,2.8-0.2c0.9,0,1.6,0.1,2,0.3
		c0.4,0.2,0.7,0.5,0.9,0.9c0.1,0.4,0.2,1,0.2,1.8v4.8H790l-0.1-1.1h-0.1c-0.2,0.5-0.5,0.8-1,1C788.4,134.6,787.8,134.7,787.2,134.7z
		 M787.6,133.6c0.5,0,0.9,0,1.2-0.1c0.3-0.1,0.5-0.3,0.7-0.5c0.2-0.4,0.3-0.9,0.3-1.5v-0.3h-2.5c-0.4,0-0.7,0-0.9,0.1
		c-0.2,0.1-0.3,0.2-0.4,0.4c-0.1,0.2-0.1,0.4-0.1,0.8c0,0.4,0,0.6,0.1,0.8c0.1,0.2,0.3,0.3,0.5,0.4S787.1,133.6,787.6,133.6z
		 M803.4,130.3c0-0.7,0-1.2-0.1-1.5c-0.1-0.3-0.2-0.5-0.4-0.6c-0.2-0.1-0.6-0.1-1.1-0.1c-0.6,0-1,0.1-1.2,0.3s-0.4,0.5-0.5,0.8
		s-0.1,0.9-0.1,1.5v3.9h-1.2v-4.3c0-0.7,0-1.2-0.1-1.5c-0.1-0.3-0.2-0.5-0.4-0.6c-0.2-0.1-0.6-0.1-1.1-0.1c-0.6,0-1,0.1-1.2,0.3
		c-0.3,0.2-0.4,0.5-0.5,0.8c-0.1,0.4-0.1,0.9-0.1,1.5v3.9h-1.2v-7.7h1.1l0.1,1.1h0.1c0.1-0.4,0.4-0.7,0.8-0.9
		c0.4-0.2,0.9-0.3,1.6-0.3c0.7,0,1.2,0.1,1.5,0.3c0.3,0.2,0.6,0.5,0.7,0.9h0.1c0.3-0.8,1.1-1.2,2.4-1.2c0.7,0,1.2,0.1,1.5,0.3
		c0.3,0.2,0.6,0.5,0.7,0.9s0.2,1,0.2,1.7v4.8h-1.2V130.3z M810.1,134.7c-0.4,0-0.9,0-1.4-0.1c-0.5,0-1-0.1-1.4-0.1v-1.1
		c1,0.1,1.9,0.2,2.7,0.2c0.5,0,0.9,0,1.1-0.1c0.2-0.1,0.4-0.2,0.5-0.3c0.1-0.2,0.1-0.4,0.1-0.7s0-0.5-0.1-0.7s-0.1-0.2-0.3-0.3
		s-0.3-0.1-0.6-0.1l-2-0.2c-0.5,0-0.8-0.2-1.1-0.3s-0.4-0.4-0.5-0.7s-0.1-0.7-0.1-1.1c0-0.6,0.1-1.1,0.4-1.5c0.2-0.3,0.6-0.5,1-0.6
		c0.4-0.1,1-0.1,1.7-0.1c0.4,0,0.8,0,1.3,0.1c0.5,0,0.8,0.1,1.1,0.1v1.1c-0.8-0.1-1.6-0.2-2.4-0.2c-0.5,0-0.8,0-1,0.1
		c-0.2,0-0.4,0.1-0.6,0.3s-0.2,0.4-0.2,0.7c0,0.3,0,0.5,0.1,0.6c0,0.1,0.1,0.2,0.3,0.3c0.1,0,0.3,0.1,0.6,0.1l2.1,0.2
		c0.4,0.1,0.8,0.1,1,0.2c0.2,0.1,0.4,0.3,0.5,0.6c0.1,0.3,0.2,0.7,0.2,1.3c0,0.6-0.1,1.1-0.3,1.4c-0.2,0.3-0.5,0.6-0.9,0.7
		C811.3,134.6,810.8,134.7,810.1,134.7z"/>
</g>
<g>
	<defs>
		<rect id="SVGID_33_" x="483" y="-150" width="429" height="273"/>
	</defs>
	<clipPath id="SVGID_34_">
		<use xlink:href="#SVGID_33_"  style="overflow:visible;"/>
	</clipPath>
	<path class="st17" d="M910-146.5C512-148,485,119,610,118.5"/>
</g>
<g>
	<defs>
		<rect id="SVGID_35_" x="483" y="-150" width="429" height="273"/>
	</defs>
	<clipPath id="SVGID_36_">
		<use xlink:href="#SVGID_35_"  style="overflow:visible;"/>
	</clipPath>
	<path class="st18" d="M604.8,121.5l5.2-3l-5.2-3L604.8,121.5z"/>
</g>
<g>
	<defs>
		<rect id="SVGID_37_" x="483" y="-150" width="429" height="273"/>
	</defs>
	<clipPath id="SVGID_38_">
		<use xlink:href="#SVGID_37_"  style="overflow:visible;"/>
	</clipPath>
	<path class="st19" d="M604.8,121.5l5.2-3l-5.2-3L604.8,121.5z"/>
</g>
<g>
	<defs>
		<rect id="SVGID_39_" x="554" y="-148" width="358" height="46"/>
	</defs>
	<clipPath id="SVGID_40_">
		<use xlink:href="#SVGID_39_"  style="overflow:visible;"/>
	</clipPath>
	<path class="st20" d="M910-146C610-146,556-9,604-8.4"/>
</g>
<g>
	<defs>
		<rect id="SVGID_41_" x="554" y="-53" width="358" height="49"/>
	</defs>
	<clipPath id="SVGID_42_">
		<use xlink:href="#SVGID_41_"  style="overflow:visible;"/>
	</clipPath>
	<path class="st21" d="M910-146C610-146,556-9,604-8.4"/>
</g>
<g>
	<defs>
		<rect id="SVGID_43_" x="554" y="-104" width="34" height="53"/>
	</defs>
	<clipPath id="SVGID_44_">
		<use xlink:href="#SVGID_43_"  style="overflow:visible;"/>
	</clipPath>
	<path class="st22" d="M910-146C610-146,556-9,604-8.4"/>
</g>
<g>
	<defs>
		<rect id="SVGID_45_" x="666" y="-104" width="246" height="53"/>
	</defs>
	<clipPath id="SVGID_46_">
		<use xlink:href="#SVGID_45_"  style="overflow:visible;"/>
	</clipPath>
	<path class="st23" d="M910-146C610-146,556-9,604-8.4"/>
</g>
<g>
	<defs>
		<rect id="SVGID_47_" x="586" y="-104" width="82" height="53"/>
	</defs>
	<clipPath id="SVGID_48_">
		<use xlink:href="#SVGID_47_"  style="overflow:visible;"/>
	</clipPath>
	<path class="st24" d="M910-146C610-146,556-9,604-8.4"/>
</g>
<g>
	<defs>
		<rect id="SVGID_49_" x="554" y="-148" width="358" height="144"/>
	</defs>
	<clipPath id="SVGID_50_">
		<use xlink:href="#SVGID_49_"  style="overflow:visible;"/>
	</clipPath>
	<path class="st25" d="M598.8-5.5l5.2-2.9l-5.2-3.1L598.8-5.5z"/>
</g>
<g>
	<defs>
		<rect id="SVGID_51_" x="554" y="-148" width="358" height="144"/>
	</defs>
	<clipPath id="SVGID_52_">
		<use xlink:href="#SVGID_51_"  style="overflow:visible;"/>
	</clipPath>
	<path class="st26" d="M598.8-5.5l5.2-2.9l-5.2-3.1L598.8-5.5z"/>
</g>
<g>
	<defs>
		<rect id="SVGID_53_" x="586" y="-104" width="82" height="53"/>
	</defs>
	<clipPath id="SVGID_54_">
		<use xlink:href="#SVGID_53_"  style="overflow:visible;"/>
	</clipPath>
	<path class="st27" d="M594.8-84.3l-0.7-2.9h-3.2l-0.7,2.9h-1.1l2.7-10.3h1.5l2.7,10.3H594.8z M592.5-93.3L592.5-93.3l-1.3,5.1h2.6
		L592.5-93.3z M597.5-84.3v-10.3h1.1v9.3h3.3v1H597.5z M606.1-88.9v-1h2.6v5.3c-0.3,0.1-0.8,0.1-1.2,0.2c-0.5,0.1-0.9,0.1-1.2,0.1
		c-0.9,0-1.6-0.1-2-0.4c-0.4-0.3-0.7-0.8-0.9-1.5c-0.2-0.7-0.3-1.9-0.3-3.4c0-1.5,0.1-2.6,0.3-3.4c0.2-0.7,0.5-1.2,0.9-1.5
		c0.4-0.3,1.1-0.4,2-0.4c0.4,0,0.8,0,1.3,0.1s0.8,0.1,1.1,0.2v0.9c-0.3-0.1-0.6-0.1-1-0.2s-0.7-0.1-0.9-0.1c-0.8,0-1.4,0.1-1.7,0.2
		c-0.3,0.2-0.5,0.5-0.7,1.1s-0.2,1.6-0.2,3c0,1.3,0,2.2,0.1,2.8c0.1,0.6,0.3,1,0.6,1.2c0.3,0.2,0.7,0.3,1.4,0.3c0.5,0,1,0,1.3-0.1
		v-3.6H606.1z M613.7-84.2c-1,0-1.7-0.1-2.1-0.4c-0.4-0.3-0.7-0.7-0.8-1.4c-0.1-0.7-0.2-1.8-0.2-3.4s0.1-2.8,0.2-3.4
		c0.1-0.7,0.4-1.2,0.8-1.4c0.4-0.3,1.1-0.4,2.1-0.4c1,0,1.7,0.1,2.1,0.4c0.4,0.3,0.7,0.7,0.8,1.4c0.1,0.7,0.2,1.8,0.2,3.4
		s-0.1,2.8-0.2,3.4c-0.1,0.7-0.4,1.2-0.8,1.4C615.3-84.4,614.6-84.2,613.7-84.2z M613.7-85.2c0.6,0,1.1-0.1,1.3-0.2
		c0.3-0.2,0.4-0.5,0.5-1.1c0.1-0.6,0.1-1.6,0.1-3s0-2.4-0.1-3c-0.1-0.6-0.2-0.9-0.5-1.1c-0.3-0.1-0.7-0.2-1.3-0.2
		c-0.6,0-1.1,0.1-1.3,0.2c-0.3,0.2-0.4,0.5-0.5,1.1c-0.1,0.6-0.1,1.6-0.1,3s0,2.4,0.1,3c0.1,0.6,0.2,0.9,0.5,1.1
		C612.6-85.3,613-85.2,613.7-85.2z M624.1-84.2c-0.9,0-1.8-0.1-2.6-0.2v-1c0.3,0.1,0.7,0.1,1.2,0.1c0.4,0,0.8,0.1,1.1,0.1
		c0.4,0,0.7,0,1-0.1s0.4-0.2,0.6-0.3c0.1-0.1,0.2-0.3,0.3-0.6c0-0.3,0.1-0.6,0.1-1c0-0.6,0-0.9-0.1-1.2s-0.1-0.4-0.3-0.5
		c-0.1-0.1-0.4-0.2-0.8-0.2l-1.7-0.3c-0.4-0.1-0.7-0.2-0.9-0.4c-0.2-0.2-0.3-0.5-0.4-0.8c-0.1-0.3-0.1-0.8-0.1-1.4
		c0-1,0.2-1.8,0.7-2.2c0.4-0.4,1.1-0.7,2.1-0.7c0.9,0,1.7,0.1,2.3,0.2v0.9c-0.7-0.1-1.3-0.2-2-0.2c-0.4,0-0.8,0-1,0.1
		c-0.3,0.1-0.4,0.2-0.6,0.3c-0.1,0.1-0.2,0.3-0.3,0.6c0,0.2-0.1,0.5-0.1,0.8c0,0.5,0,0.8,0.1,1c0,0.2,0.1,0.3,0.2,0.4
		s0.3,0.1,0.6,0.2l1.7,0.3c0.4,0.1,0.8,0.2,1,0.3s0.4,0.4,0.6,0.7c0.1,0.3,0.2,0.9,0.2,1.7c0,0.8-0.1,1.4-0.2,1.8
		c-0.2,0.4-0.4,0.8-0.8,1S624.8-84.2,624.1-84.2z M628.8-84.3v-6.7h-1.1V-92h1.1v-2.2h1.1v2.2h1.3v0.9h-1.3v6.7H628.8z M632.6-92
		h0.9l0.1,1.4h0.1c0.1-0.6,0.4-1,0.7-1.2c0.3-0.2,0.8-0.3,1.3-0.3v1.1c-0.5,0-0.9,0.1-1.2,0.3c-0.3,0.2-0.5,0.5-0.6,1
		c-0.1,0.4-0.2,1-0.2,1.7v3.6h-1.1V-92z M641.7-87.8h-3.9c0,0.8,0,1.4,0.1,1.7c0.1,0.4,0.2,0.6,0.5,0.7s0.7,0.2,1.2,0.2
		c0.7,0,1.3-0.1,1.9-0.2v0.9c-0.2,0.1-0.5,0.1-0.9,0.2c-0.4,0-0.8,0.1-1.2,0.1c-0.8,0-1.4-0.1-1.8-0.4c-0.4-0.2-0.6-0.6-0.7-1.1
		s-0.2-1.3-0.2-2.4s0-1.9,0.1-2.4s0.3-0.9,0.7-1.2c0.4-0.3,1-0.4,1.8-0.4c0.8,0,1.3,0.1,1.6,0.4c0.3,0.2,0.5,0.6,0.6,1.1
		c0.1,0.5,0.1,1.3,0.1,2.5V-87.8z M639.3-91.2c-0.5,0-0.8,0.1-1,0.2c-0.2,0.1-0.3,0.4-0.4,0.7s-0.1,0.9-0.1,1.7h2.9v-0.2
		c0-0.7,0-1.3-0.1-1.6c-0.1-0.3-0.2-0.6-0.4-0.7C640-91.2,639.7-91.2,639.3-91.2z M645.1-84.2c-0.7,0-1.2-0.2-1.5-0.5
		c-0.3-0.3-0.5-0.9-0.5-1.7c0-0.6,0.1-1,0.2-1.4c0.1-0.3,0.3-0.6,0.6-0.7c0.3-0.1,0.7-0.2,1.2-0.2c0.3,0,0.9,0,2,0.1v-0.5
		c0-0.6,0-1.1-0.1-1.4c-0.1-0.3-0.2-0.5-0.5-0.5c-0.2-0.1-0.6-0.1-1.1-0.1c-0.2,0-0.5,0-0.9,0.1c-0.4,0-0.7,0.1-0.9,0.1v-0.9
		c0.7-0.1,1.4-0.2,2.1-0.2c0.7,0,1.2,0.1,1.6,0.3c0.3,0.2,0.6,0.5,0.7,0.9s0.2,1,0.2,1.8v4.8h-0.9l-0.1-1.1H647
		c-0.1,0.5-0.4,0.8-0.7,0.9S645.5-84.2,645.1-84.2z M645.4-85.1c0.3,0,0.6,0,0.9-0.1c0.2-0.1,0.4-0.3,0.5-0.5
		c0.2-0.4,0.2-0.9,0.2-1.6v-0.5h-1.7c-0.3,0-0.6,0-0.7,0.1s-0.3,0.2-0.3,0.4s-0.1,0.5-0.1,0.9c0,0.4,0,0.7,0.1,0.9s0.2,0.3,0.4,0.4
		C644.8-85.2,645.1-85.1,645.4-85.1z M657.5-88.8c0-0.7,0-1.2-0.1-1.6c-0.1-0.3-0.2-0.5-0.3-0.6c-0.2-0.1-0.4-0.2-0.8-0.2
		c-0.4,0-0.8,0.1-1,0.3S655-90.4,655-90c0,0.4-0.1,0.9-0.1,1.7v4h-1.1v-4.5c0-0.7,0-1.3-0.1-1.6c-0.1-0.3-0.2-0.5-0.3-0.6
		s-0.4-0.2-0.8-0.2c-0.4,0-0.8,0.1-1,0.3c-0.2,0.2-0.3,0.5-0.4,0.9c-0.1,0.4-0.1,0.9-0.1,1.6v4h-1.1V-92h0.9l0.1,1.1h0.1
		c0.1-0.4,0.3-0.7,0.6-0.9c0.3-0.2,0.7-0.3,1.2-0.3c0.5,0,1,0.1,1.2,0.3c0.3,0.2,0.4,0.5,0.5,0.9h0.1c0.1-0.4,0.3-0.7,0.6-0.9
		s0.7-0.3,1.2-0.3c0.5,0,0.9,0.1,1.2,0.3c0.3,0.2,0.5,0.5,0.5,0.9c0.1,0.4,0.1,1,0.1,1.7v4.8h-1.1V-88.8z M662.6-84.2
		c-0.3,0-0.7,0-1.1-0.1c-0.4,0-0.7-0.1-1-0.1v-0.9c0.6,0.1,1.3,0.2,2,0.2c0.4,0,0.7,0,0.9-0.2c0.2-0.1,0.3-0.2,0.4-0.4
		c0.1-0.2,0.1-0.4,0.1-0.7c0-0.4,0-0.6-0.1-0.8s-0.1-0.3-0.2-0.3c-0.1-0.1-0.3-0.1-0.5-0.1l-1.5-0.2c-0.5-0.1-0.8-0.3-1-0.5
		c-0.2-0.3-0.3-0.8-0.3-1.4c0-0.6,0.1-1.1,0.3-1.4c0.2-0.3,0.5-0.5,0.8-0.7c0.3-0.1,0.8-0.2,1.3-0.2c0.3,0,0.6,0,1,0.1
		c0.3,0,0.6,0.1,0.8,0.2v0.9c-0.2-0.1-0.5-0.1-0.8-0.1s-0.7-0.1-1-0.1c-0.5,0-0.8,0.1-1,0.3s-0.3,0.5-0.3,1c0,0.3,0,0.6,0.1,0.7
		s0.1,0.3,0.2,0.3s0.3,0.1,0.5,0.1l1.5,0.2c0.3,0,0.6,0.1,0.8,0.2s0.3,0.3,0.4,0.6c0.1,0.3,0.1,0.7,0.1,1.2c0,0.8-0.2,1.4-0.5,1.7
		S663.4-84.2,662.6-84.2z"/>
</g>
<g>
	<defs>
		<rect id="SVGID_55_" x="586" y="-104" width="82" height="53"/>
	</defs>
	<clipPath id="SVGID_56_">
		<use xlink:href="#SVGID_55_"  style="overflow:visible;"/>
	</clipPath>
	<path class="st28" d="M608.6-61.4v-10.3h1.1v10.3H608.6z M613.7-61.3c-0.3,0-0.7,0-1.1-0.1s-0.7-0.1-1-0.1v-0.9
		c0.6,0.1,1.3,0.2,2,0.2c0.4,0,0.7,0,0.9-0.1s0.3-0.2,0.4-0.4s0.1-0.4,0.1-0.7c0-0.4,0-0.6-0.1-0.8c0-0.2-0.1-0.3-0.2-0.3
		c-0.1-0.1-0.3-0.1-0.5-0.1l-1.5-0.2c-0.5-0.1-0.8-0.3-1-0.5c-0.2-0.3-0.3-0.8-0.3-1.4c0-0.6,0.1-1.1,0.3-1.4
		c0.2-0.3,0.5-0.5,0.8-0.7c0.3-0.1,0.8-0.2,1.3-0.2c0.3,0,0.6,0,1,0.1c0.4,0,0.6,0.1,0.8,0.1v0.9c-0.2-0.1-0.5-0.1-0.8-0.1
		c-0.3,0-0.7-0.1-1-0.1c-0.5,0-0.8,0.1-1,0.3c-0.2,0.2-0.3,0.5-0.3,1c0,0.3,0,0.6,0.1,0.7c0,0.2,0.1,0.3,0.2,0.3
		c0.1,0.1,0.3,0.1,0.5,0.1l1.5,0.2c0.3,0,0.6,0.1,0.8,0.2c0.2,0.1,0.3,0.3,0.4,0.6c0.1,0.3,0.1,0.7,0.1,1.2c0,0.8-0.2,1.4-0.5,1.7
		C615.1-61.5,614.5-61.3,613.7-61.3z M619.5-61.3c-0.3,0-0.7,0-1.1-0.1s-0.7-0.1-1-0.1v-0.9c0.6,0.1,1.3,0.2,2,0.2
		c0.4,0,0.7,0,0.9-0.1s0.3-0.2,0.4-0.4s0.1-0.4,0.1-0.7c0-0.4,0-0.6-0.1-0.8c0-0.2-0.1-0.3-0.2-0.3c-0.1-0.1-0.3-0.1-0.5-0.1
		l-1.5-0.2c-0.5-0.1-0.8-0.3-1-0.5c-0.2-0.3-0.3-0.8-0.3-1.4c0-0.6,0.1-1.1,0.3-1.4c0.2-0.3,0.5-0.5,0.8-0.7
		c0.3-0.1,0.8-0.2,1.3-0.2c0.3,0,0.6,0,1,0.1c0.4,0,0.6,0.1,0.8,0.1v0.9c-0.2-0.1-0.5-0.1-0.8-0.1c-0.3,0-0.7-0.1-1-0.1
		c-0.5,0-0.8,0.1-1,0.3c-0.2,0.2-0.3,0.5-0.3,1c0,0.3,0,0.6,0.1,0.7c0,0.2,0.1,0.3,0.2,0.3c0.1,0.1,0.3,0.1,0.5,0.1l1.5,0.2
		c0.3,0,0.6,0.1,0.8,0.2c0.2,0.1,0.3,0.3,0.4,0.6c0.1,0.3,0.1,0.7,0.1,1.2c0,0.8-0.2,1.4-0.5,1.7C620.9-61.5,620.3-61.3,619.5-61.3z
		 M627.4-62.5L627.4-62.5c-0.2,0.4-0.4,0.7-0.7,0.9c-0.3,0.2-0.7,0.3-1.3,0.3c-0.6,0-1-0.1-1.3-0.3c-0.3-0.2-0.5-0.5-0.6-0.9
		c-0.1-0.4-0.1-1-0.1-1.7v-4.8h1.1v4.5c0,0.7,0,1.3,0.1,1.6s0.2,0.5,0.4,0.6c0.2,0.1,0.5,0.2,0.9,0.2c0.5,0,0.8-0.1,1-0.3
		c0.2-0.2,0.3-0.5,0.4-0.9s0.1-0.9,0.1-1.6v-4h1.1v7.7h-0.9L627.4-62.5z M630.5-71.3v-1.2h1.1v1.2H630.5z M630.5-61.4v-7.7h1.1v7.7
		H630.5z M637.4-65.9c0-0.7,0-1.2-0.1-1.6c-0.1-0.3-0.2-0.5-0.4-0.6c-0.2-0.1-0.5-0.2-0.9-0.2c-0.5,0-0.8,0.1-1,0.3
		c-0.2,0.2-0.3,0.5-0.4,0.9c-0.1,0.4-0.1,0.9-0.1,1.6v4h-1.1v-7.7h0.9l0.1,1.1h0.1c0.1-0.4,0.3-0.7,0.6-0.9c0.3-0.2,0.7-0.3,1.3-0.3
		c0.6,0,1,0.1,1.3,0.3c0.3,0.2,0.5,0.5,0.6,0.9c0.1,0.4,0.1,1,0.1,1.7v4.8h-1.1V-65.9z M642.6-58.4c-0.7,0-1.4,0-2-0.1v-0.9
		c0.8,0,1.4,0.1,1.8,0.1c0.6,0,1-0.1,1.3-0.2c0.3-0.1,0.4-0.4,0.5-0.8c0.1-0.4,0.1-1,0.1-1.8v-0.2h-0.1c-0.1,0.4-0.3,0.7-0.6,0.8
		c-0.3,0.2-0.7,0.2-1.2,0.2c-0.6,0-1.1-0.1-1.4-0.3s-0.5-0.6-0.6-1.2s-0.2-1.4-0.2-2.4c0-1.1,0.1-1.9,0.2-2.4
		c0.1-0.6,0.3-0.9,0.6-1.2c0.3-0.2,0.8-0.3,1.4-0.3c0.5,0,0.8,0.1,1.1,0.2c0.3,0.2,0.5,0.5,0.7,0.9h0.1l0.1-1.1h0.9v6.5
		c0,1.1-0.1,1.9-0.2,2.5s-0.4,1-0.8,1.2C644-58.6,643.4-58.4,642.6-58.4z M642.9-62.3c0.4,0,0.7-0.1,0.9-0.2
		c0.2-0.2,0.4-0.4,0.4-0.7c0.1-0.4,0.2-1.1,0.2-2c0-0.5,0-0.9,0-1.2c0-0.3-0.1-0.5-0.1-0.8c-0.1-0.4-0.2-0.7-0.5-0.8
		c-0.2-0.2-0.5-0.2-0.9-0.2c-0.5,0-0.8,0.1-1,0.2s-0.3,0.4-0.4,0.8c-0.1,0.4-0.1,1.1-0.1,2c0,0.9,0,1.6,0.1,2
		c0.1,0.4,0.2,0.7,0.4,0.8C642.1-62.4,642.4-62.3,642.9-62.3z"/>
</g>
<g>
	<defs>
		<rect id="SVGID_57_" x="382" y="-148" width="550" height="439"/>
	</defs>
	<clipPath id="SVGID_58_">
		<use xlink:href="#SVGID_57_"  style="overflow:visible;"/>
	</clipPath>
	<path class="st29" d="M910-145.8C406-145,384,290,930,212.8"/>
</g>
<g>
	<defs>
		<rect id="SVGID_59_" x="382" y="-148" width="550" height="439"/>
	</defs>
	<clipPath id="SVGID_60_">
		<use xlink:href="#SVGID_59_"  style="overflow:visible;"/>
	</clipPath>
	<path class="st30" d="M925.3,216.5l4.7-3.7l-5.6-2.2L925.3,216.5z"/>
</g>
<g>
	<defs>
		<rect id="SVGID_61_" x="382" y="-148" width="550" height="439"/>
	</defs>
	<clipPath id="SVGID_62_">
		<use xlink:href="#SVGID_61_"  style="overflow:visible;"/>
	</clipPath>
	<path class="st31" d="M925.3,216.5l4.7-3.7l-5.6-2.2L925.3,216.5z"/>
</g>
<g>
	<defs>
		<rect id="SVGID_63_" x="762" y="24" width="242" height="140"/>
	</defs>
	<clipPath id="SVGID_64_">
		<use xlink:href="#SVGID_63_"  style="overflow:visible;"/>
	</clipPath>
	<path class="st32" d="M764.7,26C849,89,866,62,1002.2,162"/>
</g>
<g>
	<defs>
		<rect id="SVGID_65_" x="762" y="24" width="242" height="140"/>
	</defs>
	<clipPath id="SVGID_66_">
		<use xlink:href="#SVGID_65_"  style="overflow:visible;"/>
	</clipPath>
	<path class="st33" d="M1002.2,162l-7.8-1.9c3-0.3,4.2-2,3.6-4.9L1002.2,162z"/>
</g>
<g>
	<defs>
		<rect id="SVGID_67_" x="762" y="24" width="242" height="140"/>
	</defs>
	<clipPath id="SVGID_68_">
		<use xlink:href="#SVGID_67_"  style="overflow:visible;"/>
	</clipPath>
	<path class="st34" d="M1002.2,162l-7.8-1.9c3-0.3,4.2-2,3.6-4.9L1002.2,162z"/>
</g>
<g>
	<defs>
		<rect id="SVGID_69_" x="790" y="56" width="213" height="9"/>
	</defs>
	<clipPath id="SVGID_70_">
		<use xlink:href="#SVGID_69_"  style="overflow:visible;"/>
	</clipPath>
	<path class="st35" d="M792.3,85c60.8-27,123.8,15,209.3,77"/>
</g>
<g>
	<defs>
		<rect id="SVGID_71_" x="790" y="114" width="213" height="50"/>
	</defs>
	<clipPath id="SVGID_72_">
		<use xlink:href="#SVGID_71_"  style="overflow:visible;"/>
	</clipPath>
	<path class="st36" d="M792.3,85c60.8-27,123.8,15,209.3,77"/>
</g>
<g>
	<defs>
		<rect id="SVGID_73_" x="790" y="63" width="83" height="53"/>
	</defs>
	<clipPath id="SVGID_74_">
		<use xlink:href="#SVGID_73_"  style="overflow:visible;"/>
	</clipPath>
	<path class="st37" d="M792.3,85c60.8-27,123.8,15,209.3,77"/>
</g>
<g>
	<defs>
		<rect id="SVGID_75_" x="903" y="63" width="100" height="53"/>
	</defs>
	<clipPath id="SVGID_76_">
		<use xlink:href="#SVGID_75_"  style="overflow:visible;"/>
	</clipPath>
	<path class="st38" d="M792.3,85c60.8-27,123.8,15,209.3,77"/>
</g>
<g>
	<defs>
		<rect id="SVGID_77_" x="871" y="63" width="34" height="53"/>
	</defs>
	<clipPath id="SVGID_78_">
		<use xlink:href="#SVGID_77_"  style="overflow:visible;"/>
	</clipPath>
	<path class="st39" d="M792.3,85c60.8-27,123.8,15,209.3,77"/>
</g>
<g>
	<defs>
		<rect id="SVGID_79_" x="790" y="56" width="213" height="108"/>
	</defs>
	<clipPath id="SVGID_80_">
		<use xlink:href="#SVGID_79_"  style="overflow:visible;"/>
	</clipPath>
	<path class="st40" d="M1001.6,162l-7.8-1.9c3-0.3,4.2-2,3.6-5L1001.6,162z"/>
</g>
<g>
	<defs>
		<rect id="SVGID_81_" x="790" y="56" width="213" height="108"/>
	</defs>
	<clipPath id="SVGID_82_">
		<use xlink:href="#SVGID_81_"  style="overflow:visible;"/>
	</clipPath>
	<path class="st41" d="M1001.6,162l-7.8-1.9c3-0.3,4.2-2,3.6-5L1001.6,162z"/>
</g>
<g>
	<defs>
		<rect id="SVGID_83_" x="871" y="63" width="34" height="53"/>
	</defs>
	<clipPath id="SVGID_84_">
		<use xlink:href="#SVGID_83_"  style="overflow:visible;"/>
	</clipPath>
	<path class="st42" d="M880.9,83c-0.2,0.1-0.5,0.1-0.8,0.1s-0.6,0.1-0.9,0.1c-0.9,0-1.6-0.1-2-0.4c-0.4-0.3-0.7-0.8-0.8-1.5
		c-0.1-0.7-0.2-1.8-0.2-3.4c0-1.5,0.1-2.7,0.2-3.4c0.1-0.7,0.4-1.2,0.8-1.5c0.4-0.3,1.1-0.4,2-0.4c0.3,0,0.6,0,0.9,0.1
		c0.3,0,0.6,0.1,0.8,0.1v0.9c-0.6-0.1-1-0.1-1.4-0.1c-0.7,0-1.2,0.1-1.5,0.3c-0.3,0.2-0.5,0.6-0.5,1.1c-0.1,0.6-0.1,1.5-0.1,2.9
		s0,2.4,0.1,2.9c0.1,0.6,0.3,0.9,0.5,1.1c0.3,0.2,0.8,0.3,1.5,0.3c0.5,0,1,0,1.5-0.1V83z M884,83.1c-0.7,0-1.2-0.2-1.5-0.5
		c-0.3-0.3-0.5-0.9-0.5-1.7c0-0.6,0.1-1,0.2-1.4c0.1-0.3,0.3-0.6,0.6-0.7s0.7-0.2,1.2-0.2c0.3,0,1,0,2,0.1v-0.5c0-0.6,0-1.1-0.1-1.4
		c-0.1-0.3-0.2-0.5-0.5-0.5c-0.2-0.1-0.6-0.1-1.1-0.1c-0.2,0-0.5,0-0.9,0.1c-0.4,0-0.7,0.1-0.9,0.1v-0.9c0.7-0.1,1.4-0.2,2.1-0.2
		c0.7,0,1.2,0.1,1.6,0.3c0.3,0.2,0.6,0.5,0.7,0.9s0.2,1,0.2,1.8V83h-0.9L886,82h-0.1c-0.1,0.5-0.4,0.8-0.7,0.9
		C884.9,83.1,884.5,83.1,884,83.1z M884.4,82.2c0.3,0,0.6,0,0.9-0.1c0.2-0.1,0.4-0.3,0.5-0.5c0.2-0.4,0.2-0.9,0.2-1.6v-0.5h-1.7
		c-0.3,0-0.6,0-0.7,0.1c-0.2,0.1-0.3,0.2-0.3,0.4s-0.1,0.5-0.1,0.9c0,0.4,0,0.7,0.1,0.9s0.2,0.3,0.4,0.4S884,82.2,884.4,82.2z
		 M890.9,83.1c-0.3,0-0.7,0-1.1-0.1s-0.7-0.1-1-0.1v-0.9c0.6,0.1,1.3,0.2,2,0.2c0.4,0,0.7,0,0.9-0.1s0.3-0.2,0.4-0.4
		s0.1-0.4,0.1-0.7c0-0.4,0-0.6-0.1-0.8c0-0.2-0.1-0.3-0.2-0.3c-0.1-0.1-0.3-0.1-0.5-0.1l-1.5-0.2c-0.5-0.1-0.8-0.3-1-0.5
		c-0.2-0.3-0.3-0.8-0.3-1.4c0-0.6,0.1-1.1,0.3-1.4c0.2-0.3,0.5-0.5,0.8-0.7c0.3-0.1,0.8-0.2,1.3-0.2c0.3,0,0.6,0,1,0.1
		c0.4,0,0.6,0.1,0.8,0.1v0.9c-0.2-0.1-0.5-0.1-0.8-0.1c-0.3,0-0.7-0.1-1-0.1c-0.5,0-0.8,0.1-1,0.3c-0.2,0.2-0.3,0.5-0.3,1
		c0,0.3,0,0.6,0.1,0.7c0,0.2,0.1,0.3,0.2,0.3c0.1,0.1,0.3,0.1,0.5,0.1l1.5,0.2c0.3,0,0.6,0.1,0.8,0.2c0.2,0.1,0.3,0.3,0.4,0.6
		c0.1,0.3,0.1,0.7,0.1,1.2c0,0.8-0.2,1.4-0.5,1.7C892.3,83,891.7,83.1,890.9,83.1z M898.8,78.5c0-0.7,0-1.2-0.1-1.6
		s-0.2-0.5-0.4-0.6c-0.2-0.1-0.5-0.2-0.9-0.2c-0.5,0-0.8,0.1-1,0.3c-0.2,0.2-0.3,0.5-0.4,0.9S896,78.3,896,79v4h-1.1V71.9h1.1v4.4
		h0.1c0.3-0.7,0.9-1,1.8-1c0.6,0,1,0.1,1.3,0.3c0.3,0.2,0.5,0.5,0.6,0.9c0.1,0.4,0.1,1,0.1,1.7V83h-1.1V78.5z"/>
</g>
<g>
	<defs>
		<rect id="SVGID_85_" x="871" y="63" width="34" height="53"/>
	</defs>
	<clipPath id="SVGID_86_">
		<use xlink:href="#SVGID_85_"  style="overflow:visible;"/>
	</clipPath>
	<path class="st43" d="M882.2,106.5c-0.8,0-1.4-0.1-1.7-0.3s-0.6-0.6-0.7-1.1c-0.1-0.5-0.2-1.4-0.2-2.5s0.1-2,0.2-2.5
		c0.1-0.5,0.3-0.9,0.7-1.1c0.4-0.2,0.9-0.3,1.7-0.3s1.4,0.1,1.7,0.3c0.4,0.2,0.6,0.6,0.7,1.1c0.1,0.5,0.2,1.4,0.2,2.5
		s-0.1,2-0.2,2.5s-0.3,0.9-0.7,1.1S883,106.5,882.2,106.5z M882.2,105.6c0.5,0,0.9-0.1,1.1-0.2s0.3-0.4,0.4-0.8c0-0.4,0.1-1.1,0.1-2
		c0-1,0-1.7-0.1-2s-0.2-0.6-0.4-0.8c-0.2-0.1-0.6-0.2-1.1-0.2c-0.5,0-0.9,0.1-1.1,0.2c-0.2,0.1-0.3,0.4-0.4,0.8
		c-0.1,0.4-0.1,1.1-0.1,2s0,1.6,0.1,2c0.1,0.4,0.2,0.6,0.4,0.8S881.6,105.6,882.2,105.6z M890.5,105.3L890.5,105.3
		c-0.2,0.4-0.4,0.7-0.7,0.9c-0.3,0.2-0.7,0.3-1.3,0.3c-0.6,0-1-0.1-1.3-0.3c-0.3-0.2-0.5-0.5-0.6-0.9c-0.1-0.4-0.1-1-0.1-1.7v-4.8
		h1.1v4.5c0,0.7,0,1.3,0.1,1.6s0.2,0.5,0.4,0.6c0.2,0.1,0.5,0.2,0.9,0.2c0.5,0,0.8-0.1,1-0.3s0.3-0.5,0.4-0.9
		c0.1-0.4,0.1-0.9,0.1-1.6v-4h1.1v7.7h-0.9L890.5,105.3z M894.1,106.4v-6.7h-1.1v-0.9h1.1v-2.2h1.1v2.2h1.3v0.9h-1.3v6.7H894.1z"/>
</g>
</svg>
