<?xml version="1.0" encoding="utf-8"?>
<!-- Generator: Adobe Illustrator 19.0.0, SVG Export Plug-In . SVG Version: 6.00 Build 0)  -->
<svg version="1.1" xmlns="http://www.w3.org/2000/svg" xmlns:xlink="http://www.w3.org/1999/xlink" x="0px" y="0px"
	 viewBox="0 0 727 330.7" style="enable-background:new 0 0 727 330.7;" xml:space="preserve">
<style type="text/css">
	.st0{display:none;}
	.st1{display:inline;stroke:#FFFFFF;stroke-miterlimit:10;}
	.st2{fill:none;stroke:#3170B2;stroke-width:3;stroke-miterlimit:10;}
	.st3{fill:none;stroke:#4A9C40;stroke-width:3;stroke-miterlimit:10;}
	.st4{fill:none;stroke:#FFFFFF;stroke-width:2;stroke-miterlimit:10;}
	.st5{fill:#FFFFFF;}
	.st6{fill:none;stroke:#C4433E;stroke-width:3;stroke-miterlimit:10;}
	.st7{display:inline;fill:none;}
	.st8{display:inline;}
	.st9{display:inline;fill:#FFFFFF;}
	.st10{font-family:'Saira-Regular';}
	.st11{font-size:20px;}
	.st12{fill:none;}
</style>
<g id="Layer_1">
</g>
<g id="Layer_2" class="st0">
	<rect id="XMLID_1_" class="st1" width="727" height="330.7"/>
</g>
<g id="Layer_7">
</g>
<g id="Layer_4">
	<line id="XMLID_5_" class="st2" x1="37" y1="278.3" x2="715" y2="261.5"/>
	<line id="XMLID_7_" class="st3" x1="37" y1="193.3" x2="715" y2="124"/>
	<g id="XMLID_11_">
		<g id="XMLID_24_">
			<path id="XMLID_27_" class="st4" d="M356,1c20,54.5,78.7,93.8,126,111c46.3,16.8,99.1,18.4,152.4,18.6"/>
			<g id="XMLID_25_">
				<path id="XMLID_26_" class="st5" d="M630.8,130.4l-4.3-7.2l0.2-0.2l11.7,4.7c4.1,0.9,8.2,1.9,12.3,2.8
					c-4.1,0.9-8.2,1.7-12.3,2.6l-11.8,4.6l-0.2-0.1L630.8,130.4z"/>
			</g>
		</g>
	</g>
	<path id="XMLID_4_" class="st6" d="M37,290c283-8.9,346.8-19,438.2-49.7C597.3,199.3,679,117,715,36"/>
</g>
<g id="Layer_4_copy" class="st0">
	<path id="XMLID_x5F_9_x5F__1_" class="st7" d="M34,287c283-8.9,346.8-19,438.2-49.7C594.3,196.3,676,114,712,33"/>
	<text id="XMLID_6_" class="st8">	<textPath  xlink:href="#XMLID_x5F_9_x5F__1_" startOffset="47.0705%">
<tspan  class="st5 st10 st11">Advanced Algos</tspan>	</textPath>
</text>
	<text id="XMLID_12_" transform="matrix(0 -1 1 0 27.0005 152)" class="st9 st10 st11">Intelligence</text>
	<text id="XMLID_13_" transform="matrix(1 0 0 1 629.0006 321.6667)" class="st9 st10 st11">Time</text>
	<g id="XMLID_10_" class="st8">
		<path id="XMLID_x5F_17_x5F_" class="st12" d="M37,274.3l678-16.8"/>
		<text id="XMLID_222_">		<textPath  xlink:href="#XMLID_x5F_17_x5F_" startOffset="14.7437%">
<tspan  class="st5 st10 st11">Amateur / Open Source</tspan>		</textPath>
</text>
	</g>
	<g id="XMLID_8_" class="st8">
		<path id="XMLID_x5F_21_x5F_" class="st12" d="M37,189.3L715,120"/>
		<text id="XMLID_224_">		<textPath  xlink:href="#XMLID_x5F_21_x5F_" startOffset="15.21%">
<tspan  class="st5 st10 st11">Institutional Investors</tspan>		</textPath>
</text>
	</g>
</g>
<g id="Layer_4_copy_2">
	<g id="XMLID_52_">
		<path id="XMLID_84_" class="st5" d="M467.2,239l-2.5-3l-5.9,1.9l-0.2,3.9l-1.7,0.5l0.7-14.7l2.1-0.7l9.2,11.5L467.2,239z
			 M459.2,229.1L459.2,229.1l-0.4,7.1l4.9-1.6L459.2,229.1z"/>
		<path id="XMLID_81_" class="st5" d="M472,237.1c-0.6-0.1-1.1-0.5-1.6-1.1s-0.9-1.6-1.4-2.9c-0.5-1.3-0.7-2.4-0.8-3.2
			c0-0.8,0.1-1.4,0.5-1.9s1.1-0.9,2-1.2c0.8-0.3,1.5-0.4,2.1-0.4c0.6,0,1.1,0.2,1.5,0.7l0.1,0l-1.9-5.6l1.5-0.5l4.8,14l-1.4,0.5
			l-0.5-1.3l-0.1,0c-0.1,0.7-0.3,1.2-0.8,1.6c-0.5,0.4-1.1,0.7-1.9,1C473.4,237.1,472.6,237.2,472,237.1z M475.9,234.3
			c0.3-0.3,0.5-0.7,0.5-1.1c0-0.3,0-0.7-0.1-1.1s-0.3-0.9-0.5-1.6c-0.2-0.5-0.4-1-0.5-1.3c-0.2-0.3-0.3-0.6-0.5-0.8
			c-0.3-0.3-0.7-0.5-1.1-0.6c-0.4,0-1,0-1.7,0.3c-0.8,0.3-1.3,0.5-1.6,0.8c-0.3,0.3-0.4,0.7-0.4,1.2s0.2,1.3,0.6,2.4
			c0.4,1.1,0.7,1.9,1,2.3c0.3,0.4,0.6,0.7,1,0.7c0.4,0,1-0.1,1.8-0.4C475.1,234.9,475.5,234.6,475.9,234.3z"/>
		<path id="XMLID_79_" class="st5" d="M484.6,233l-7.1-8.3l1.6-0.6l5.7,6.8l0.1,0l-0.1-8.9l1.6-0.6l0,10.9L484.6,233z"/>
		<path id="XMLID_76_" class="st5" d="M491.8,229.7c-0.7-0.2-1.2-0.8-1.6-1.9c-0.3-0.7-0.4-1.3-0.4-1.8c0-0.5,0.2-0.9,0.5-1.2
			s0.9-0.7,1.6-1c0.4-0.1,1.6-0.6,3.6-1.3l-0.2-0.6c-0.3-0.7-0.6-1.2-0.8-1.5c-0.3-0.3-0.6-0.3-1-0.3c-0.4,0.1-1.1,0.3-2,0.6
			c-0.4,0.2-0.9,0.4-1.5,0.7c-0.6,0.3-1,0.5-1.3,0.7l-0.5-1.3c0.9-0.6,2-1.1,3.3-1.6c1.1-0.4,2-0.7,2.6-0.6c0.6,0,1.2,0.2,1.5,0.7
			c0.4,0.4,0.8,1.2,1.2,2.1l2.3,5.9l-1.4,0.5l-0.6-1.3l-0.1,0c0,0.7-0.3,1.3-0.8,1.7c-0.5,0.4-1.1,0.8-1.9,1.1
			C493.4,229.8,492.5,229.9,491.8,229.7z M496,227c0.3-0.3,0.5-0.6,0.6-1c0.1-0.5,0-1.2-0.3-2l-0.2-0.4l-3.2,1.3
			c-0.5,0.2-0.9,0.4-1.1,0.6c-0.2,0.2-0.3,0.4-0.3,0.6c0,0.3,0.1,0.6,0.3,1.1c0.2,0.4,0.4,0.8,0.6,0.9c0.2,0.2,0.5,0.2,0.8,0.2
			s0.8-0.2,1.5-0.4C495.1,227.6,495.6,227.3,496,227z"/>
		<path id="XMLID_74_" class="st5" d="M506.5,218.1c-0.4-0.9-0.7-1.5-1-1.8c-0.3-0.3-0.6-0.5-0.9-0.5c-0.4,0-0.9,0.2-1.6,0.5
			c-0.8,0.3-1.3,0.7-1.5,1.1c-0.3,0.4-0.3,0.8-0.3,1.3c0.1,0.5,0.3,1.1,0.7,1.9l2.1,4.8l-1.5,0.6l-4-9.4l1.3-0.6l0.6,1.3l0.1,0
			c0-0.6,0.2-1.1,0.6-1.5c0.4-0.5,1-0.9,1.9-1.3s1.6-0.5,2.2-0.5s1,0.3,1.4,0.8s0.8,1.1,1.1,2l2.5,5.9l-1.5,0.6L506.5,218.1z"/>
		<path id="XMLID_72_" class="st5" d="M518.1,219.3c-0.4,0.3-0.9,0.5-1.3,0.7c-1.1,0.5-2.1,0.7-2.7,0.6c-0.7-0.1-1.2-0.4-1.7-1
			s-0.9-1.5-1.5-2.7c-0.6-1.2-0.9-2.2-1-3c-0.1-0.8,0-1.4,0.4-2c0.4-0.6,1.1-1.1,2.2-1.5c0.4-0.2,0.9-0.4,1.4-0.5
			c0.5-0.2,0.9-0.3,1.3-0.4l0.6,1.3c-0.8,0.2-1.5,0.5-2.2,0.8c-0.8,0.4-1.3,0.7-1.6,1c-0.3,0.3-0.4,0.8-0.3,1.3
			c0.1,0.5,0.4,1.3,0.8,2.3c0.5,1,0.9,1.7,1.2,2.1s0.7,0.6,1.2,0.6c0.4,0,1.1-0.2,1.9-0.5c0.6-0.3,1.3-0.7,2.1-1.2l0.6,1.3
			C518.9,218.8,518.5,219,518.1,219.3z"/>
		<path id="XMLID_69_" class="st5" d="M527.1,210l-6.3,3c0.4,0.9,0.8,1.5,1.1,1.8c0.3,0.3,0.7,0.5,1.2,0.4c0.5,0,1.2-0.3,2.1-0.7
			c0.9-0.4,1.9-1,2.8-1.6l0.6,1.3c-0.3,0.3-0.8,0.6-1.4,0.9s-1.2,0.6-1.7,0.9c-1.2,0.6-2.2,0.9-2.9,0.9c-0.7,0-1.3-0.3-1.8-0.8
			c-0.5-0.6-1-1.5-1.7-2.8c-0.6-1.3-1-2.3-1.1-3s0-1.4,0.4-2s1.3-1.2,2.5-1.8c1.2-0.6,2.1-0.8,2.7-0.7s1.2,0.4,1.6,0.9
			c0.4,0.6,1,1.5,1.6,2.8L527.1,210z M519.8,208.8c-0.3,0.3-0.4,0.7-0.3,1.1s0.3,1.1,0.7,1.9l4.9-2.3l-0.1-0.1
			c-0.4-0.8-0.7-1.3-1-1.6s-0.7-0.4-1-0.4c-0.4,0-0.9,0.2-1.5,0.5C520.7,208.2,520.1,208.5,519.8,208.8z"/>
		<path id="XMLID_66_" class="st5" d="M532.4,212c-0.6,0-1.2-0.3-1.7-0.9c-0.5-0.6-1.1-1.5-1.8-2.7c-0.6-1.3-1-2.3-1.2-3
			c-0.2-0.8-0.1-1.4,0.3-1.9c0.3-0.5,0.9-1,1.8-1.5c0.8-0.4,1.5-0.6,2-0.7c0.6-0.1,1.1,0.1,1.6,0.5l0.1-0.1l-2.7-5.3l1.4-0.7
			l6.8,13.2l-1.3,0.7l-0.7-1.2l-0.1,0.1c0,0.7-0.2,1.2-0.6,1.7c-0.4,0.5-1,0.9-1.7,1.2C533.8,211.8,533,212,532.4,212z M535.9,208.7
			c0.3-0.3,0.4-0.7,0.3-1.1c0-0.3-0.1-0.7-0.3-1s-0.4-0.9-0.7-1.5c-0.3-0.5-0.5-0.9-0.7-1.2c-0.2-0.3-0.4-0.6-0.6-0.8
			c-0.3-0.3-0.7-0.4-1.2-0.4s-1,0.2-1.6,0.5c-0.7,0.4-1.2,0.7-1.5,1c-0.3,0.3-0.3,0.7-0.2,1.2s0.4,1.3,0.9,2.3c0.5,1,1,1.7,1.3,2.1
			c0.3,0.4,0.7,0.6,1.1,0.5c0.4,0,1-0.2,1.8-0.6C535.2,209.4,535.6,209,535.9,208.7z"/>
		<path id="XMLID_63_" class="st5" d="M554.5,200.4l-3-2.5l-5.4,3l0.6,3.9l-1.5,0.9l-2.2-14.5l1.9-1.1l11.3,9.5L554.5,200.4z
			 M544.8,192.3L544.8,192.3l1,7.1l4.5-2.5L544.8,192.3z"/>
		<path id="XMLID_61_" class="st5" d="M558,198.4l-7.6-12.8l1.4-0.8l7.5,12.8L558,198.4z"/>
		<path id="XMLID_58_" class="st5" d="M564.5,199.1l-0.7-1.2c1.1-0.6,2.1-1.1,2.8-1.6c0.9-0.5,1.5-1,1.8-1.4s0.4-0.8,0.2-1.3
			c-0.1-0.5-0.5-1.2-1-2l-0.2-0.4l-0.1,0.1c0.1,0.6-0.1,1.1-0.4,1.6c-0.3,0.5-0.9,0.9-1.6,1.4c-0.9,0.5-1.6,0.8-2.2,0.8
			s-1.2-0.2-1.8-0.7c-0.6-0.5-1.2-1.4-2-2.6c-0.7-1.2-1.2-2.2-1.4-2.9s-0.2-1.4,0.1-1.9s0.9-1.1,1.7-1.6c0.7-0.4,1.3-0.7,2-0.8
			c0.6-0.1,1.2,0,1.7,0.4l0.1-0.1l-0.7-1.3l1.2-0.8l4.7,7.6c0.8,1.2,1.2,2.2,1.4,2.9c0.2,0.7,0.1,1.4-0.2,2.1
			c-0.4,0.6-1.1,1.3-2.3,2C566.4,198.2,565.4,198.7,564.5,199.1z M566.2,191.5c0.2-0.3,0.3-0.7,0.3-1.1c0-0.3-0.1-0.7-0.3-1
			s-0.4-0.8-0.8-1.4c-0.4-0.6-0.6-1-0.9-1.3c-0.2-0.3-0.5-0.5-0.7-0.7c-0.4-0.3-0.8-0.3-1.2-0.3c-0.4,0.1-0.9,0.3-1.5,0.6
			c-0.7,0.4-1.2,0.8-1.4,1.2s-0.3,0.7-0.1,1.2c0.1,0.5,0.5,1.2,1.1,2.2c0.6,1,1.1,1.6,1.4,2c0.4,0.3,0.7,0.5,1.2,0.4
			c0.4-0.1,1-0.3,1.7-0.8C565.5,192.2,565.9,191.8,566.2,191.5z"/>
		<path id="XMLID_55_" class="st5" d="M573,188.9c-0.7,0.1-1.3-0.1-1.8-0.6s-1.2-1.4-2.1-2.7c-0.9-1.3-1.4-2.3-1.6-3
			c-0.2-0.7-0.2-1.3,0.2-1.9c0.4-0.6,1.1-1.3,2.3-2c1.2-0.8,2.1-1.2,2.8-1.3c0.7-0.1,1.3,0.1,1.8,0.6c0.5,0.5,1.2,1.4,2.1,2.7
			s1.4,2.3,1.6,3s0.2,1.3-0.2,1.9c-0.4,0.6-1.1,1.3-2.3,2C574.6,188.4,573.6,188.8,573,188.9z M576.5,185c0.2-0.3,0.2-0.7,0.1-1.2
			c-0.2-0.4-0.6-1.2-1.3-2.2s-1.2-1.7-1.5-2.1c-0.3-0.3-0.7-0.5-1.1-0.4s-1,0.4-1.8,0.9c-0.8,0.5-1.3,1-1.6,1.3
			c-0.2,0.4-0.2,0.7-0.1,1.2s0.6,1.2,1.3,2.2c0.7,1,1.2,1.7,1.5,2.1c0.3,0.3,0.7,0.5,1.1,0.4c0.4-0.1,1-0.4,1.8-0.9
			C575.8,185.8,576.3,185.4,576.5,185z"/>
		<path id="XMLID_53_" class="st5" d="M583.1,182.5c-0.6,0.3-1.1,0.6-1.6,0.9l-0.8-1.2c1.2-0.6,2.2-1.3,3.1-1.9
			c0.6-0.4,0.9-0.7,1.2-1s0.3-0.5,0.3-0.7c0-0.2-0.2-0.5-0.4-0.8c-0.2-0.3-0.4-0.6-0.6-0.7c-0.2-0.1-0.3-0.1-0.5-0.1
			s-0.4,0.2-0.8,0.3l-2.4,1.3c-0.5,0.3-1,0.4-1.4,0.5c-0.4,0-0.7-0.1-1.1-0.3c-0.3-0.2-0.6-0.6-1-1.1c-0.5-0.7-0.7-1.3-0.7-1.9
			c0-0.5,0.2-1,0.6-1.4c0.4-0.4,1-0.9,1.7-1.4c0.4-0.3,0.9-0.6,1.4-0.9c0.5-0.3,1-0.5,1.4-0.7l0.8,1.2c-0.9,0.5-1.9,1-2.8,1.6
			c-0.5,0.3-0.9,0.6-1.1,0.9c-0.2,0.2-0.4,0.5-0.4,0.7c0,0.3,0.1,0.6,0.3,0.9c0.2,0.3,0.4,0.5,0.6,0.6c0.2,0.1,0.3,0.1,0.5,0.1
			s0.4-0.1,0.7-0.3l2.5-1.3c0.5-0.3,0.9-0.4,1.3-0.5c0.3,0,0.7,0.1,1,0.3s0.7,0.7,1.2,1.3c0.5,0.7,0.7,1.3,0.8,1.8s-0.1,1-0.5,1.4
			c-0.3,0.4-0.9,0.9-1.6,1.4C584.3,181.9,583.7,182.2,583.1,182.5z"/>
	</g>
	<g id="XMLID_147_">
		<path id="XMLID_148_" class="st5" d="M634,321.7v-12.1h-4.4v-1.7H640v1.7h-4.3v12.1H634z"/>
		<path id="XMLID_150_" class="st5" d="M642.3,308.7v-1.9h1.7v1.9H642.3z M642.4,321.7v-10.2h1.6v10.2H642.4z"/>
		<path id="XMLID_153_" class="st5" d="M660,315.9c0-1,0-1.6-0.2-2c-0.1-0.4-0.3-0.7-0.6-0.8s-0.8-0.2-1.5-0.2
			c-0.7,0-1.3,0.1-1.6,0.4c-0.3,0.3-0.6,0.6-0.7,1.1c-0.1,0.5-0.1,1.2-0.1,2.1v5.3h-1.6v-5.7c0-1,0-1.6-0.1-2
			c-0.1-0.4-0.3-0.7-0.6-0.8c-0.3-0.1-0.8-0.2-1.5-0.2c-0.7,0-1.3,0.1-1.6,0.4c-0.3,0.3-0.6,0.6-0.7,1.1c-0.1,0.5-0.1,1.1-0.1,2v5.3
			h-1.6v-10.2h1.4l0.1,1.4h0.1c0.2-0.5,0.5-0.9,1-1.2c0.5-0.3,1.2-0.4,2.1-0.4c0.9,0,1.5,0.1,2,0.4c0.5,0.3,0.8,0.7,0.9,1.2h0.1
			c0.4-1.1,1.5-1.6,3.2-1.6c0.9,0,1.6,0.1,2,0.4s0.8,0.7,0.9,1.3c0.2,0.6,0.2,1.3,0.2,2.3v6.4H660V315.9z"/>
		<path id="XMLID_155_" class="st5" d="M673.3,317.1h-7c0,1,0.1,1.7,0.2,2.1c0.1,0.4,0.4,0.7,0.9,0.9c0.4,0.2,1.2,0.3,2.3,0.3
			c1,0,2.1-0.1,3.3-0.2v1.4c-0.4,0.1-1,0.1-1.7,0.2c-0.7,0.1-1.3,0.1-1.9,0.1c-1.4,0-2.4-0.2-3-0.5s-1.1-0.8-1.3-1.5
			c-0.2-0.7-0.3-1.8-0.3-3.2c0-1.4,0.1-2.5,0.3-3.2c0.2-0.7,0.6-1.2,1.2-1.6c0.6-0.3,1.6-0.5,3-0.5c1.3,0,2.2,0.2,2.8,0.5
			c0.6,0.3,0.9,0.9,1.1,1.5c0.2,0.7,0.2,1.8,0.2,3.2V317.1z M667.3,313c-0.4,0.2-0.6,0.4-0.8,0.9s-0.2,1.1-0.2,2h5.4v-0.2
			c0-0.9-0.1-1.5-0.2-1.9s-0.4-0.7-0.8-0.8c-0.3-0.1-0.9-0.2-1.6-0.2C668.3,312.8,667.7,312.9,667.3,313z"/>
	</g>
	<g id="XMLID_186_">
		<path id="XMLID_187_" class="st5" d="M27,150H13.2v-1.7H27V150z"/>
		<path id="XMLID_189_" class="st5" d="M21.3,137.6c-0.9,0-1.6,0.1-2,0.2s-0.7,0.3-0.8,0.7c-0.1,0.3-0.2,0.9-0.2,1.7
			c0,0.8,0.1,1.5,0.4,1.9s0.6,0.6,1.1,0.7c0.5,0.1,1.1,0.1,2,0.1H27v1.6H16.8v-1.4l1.4-0.1v-0.1c-0.5-0.2-0.9-0.6-1.2-1.1
			c-0.3-0.5-0.4-1.3-0.4-2.3s0.1-1.7,0.4-2.2c0.3-0.5,0.7-0.8,1.3-1s1.3-0.3,2.3-0.3H27v1.6H21.3z"/>
		<path id="XMLID_191_" class="st5" d="M27,131.7h-8.7v2.1h-1.5v-2.1h-3v-1.6h3v-2.4h1.5v2.4H27V131.7z"/>
		<path id="XMLID_193_" class="st5" d="M22.5,117.3v7c1,0,1.7-0.1,2.1-0.2c0.4-0.1,0.7-0.4,0.9-0.9c0.2-0.4,0.3-1.2,0.3-2.3
			c0-1-0.1-2.1-0.2-3.3h1.4c0.1,0.4,0.1,1,0.2,1.7c0.1,0.7,0.1,1.3,0.1,1.9c0,1.4-0.2,2.4-0.5,3c-0.3,0.6-0.8,1.1-1.5,1.3
			c-0.7,0.2-1.8,0.3-3.2,0.3c-1.4,0-2.5-0.1-3.2-0.3c-0.7-0.2-1.2-0.6-1.6-1.2s-0.5-1.6-0.5-3c0-1.3,0.2-2.2,0.5-2.8
			c0.3-0.6,0.9-0.9,1.5-1.1c0.7-0.2,1.8-0.2,3.2-0.2H22.5z M18.4,123.3c0.2,0.4,0.4,0.6,0.9,0.8c0.4,0.1,1.1,0.2,2,0.2v-5.4h-0.2
			c-0.9,0-1.5,0.1-1.9,0.2s-0.7,0.4-0.8,0.8c-0.1,0.3-0.2,0.9-0.2,1.6C18.1,122.3,18.2,123,18.4,123.3z"/>
		<path id="XMLID_196_" class="st5" d="M27,114.3H12.1v-1.6H27V114.3z"/>
		<path id="XMLID_198_" class="st5" d="M27,109.2H12.1v-1.6H27V109.2z"/>
		<path id="XMLID_200_" class="st5" d="M14,104.2h-1.9v-1.7H14V104.2z M27,104.1H16.8v-1.6H27V104.1z"/>
		<path id="XMLID_203_" class="st5" d="M30.9,98.9h-1.4c0.1-1.3,0.1-2.4,0.1-3.3c0-1-0.1-1.8-0.3-2.2s-0.5-0.8-1-0.9
			c-0.5-0.1-1.2-0.2-2.3-0.2h-0.4v0.1c0.5,0.3,0.9,0.6,1.1,1.2s0.3,1.2,0.3,2.1c0,1-0.1,1.8-0.5,2.3c-0.3,0.5-0.8,0.9-1.5,1.1
			c-0.7,0.2-1.8,0.3-3.2,0.3c-1.4,0-2.5-0.1-3.2-0.3c-0.7-0.2-1.3-0.6-1.6-1.1s-0.5-1.3-0.5-2.3c0-0.8,0.1-1.5,0.3-2.1
			c0.2-0.6,0.6-1,1.3-1.3v-0.1l-1.4-0.1v-1.5h8.9c1.4,0,2.5,0.1,3.3,0.3c0.7,0.2,1.3,0.6,1.6,1.3s0.5,1.7,0.5,3
			C31.1,96.7,31.1,97.9,30.9,98.9z M25.3,93.5c-0.2-0.4-0.4-0.7-0.8-0.8c-0.3-0.1-0.6-0.2-1-0.3c-0.4,0-0.9-0.1-1.6-0.1
			c-0.7,0-1.2,0-1.6,0c-0.4,0-0.7,0.1-1,0.3c-0.4,0.2-0.7,0.5-0.9,0.9c-0.2,0.4-0.3,0.9-0.3,1.6c0,0.9,0.1,1.5,0.3,1.8
			c0.2,0.4,0.5,0.6,1,0.8c0.5,0.1,1.3,0.2,2.4,0.2c1.1,0,1.9-0.1,2.4-0.2c0.5-0.1,0.8-0.4,1-0.8c0.2-0.4,0.3-1,0.3-1.8
			C25.5,94.4,25.5,93.9,25.3,93.5z"/>
		<path id="XMLID_206_" class="st5" d="M22.5,79.1v7c1,0,1.7-0.1,2.1-0.2c0.4-0.1,0.7-0.4,0.9-0.9c0.2-0.4,0.3-1.2,0.3-2.3
			c0-1-0.1-2.1-0.2-3.3h1.4c0.1,0.4,0.1,1,0.2,1.7c0.1,0.7,0.1,1.3,0.1,1.9c0,1.4-0.2,2.4-0.5,3c-0.3,0.6-0.8,1.1-1.5,1.3
			c-0.7,0.2-1.8,0.3-3.2,0.3c-1.4,0-2.5-0.1-3.2-0.3c-0.7-0.2-1.2-0.6-1.6-1.2s-0.5-1.6-0.5-3c0-1.3,0.2-2.2,0.5-2.8
			c0.3-0.6,0.9-0.9,1.5-1.1c0.7-0.2,1.8-0.2,3.2-0.2H22.5z M18.4,85.1c0.2,0.4,0.4,0.6,0.9,0.8c0.4,0.1,1.1,0.2,2,0.2v-5.4h-0.2
			c-0.9,0-1.5,0.1-1.9,0.2s-0.7,0.4-0.8,0.8c-0.1,0.3-0.2,0.9-0.2,1.6C18.1,84.1,18.2,84.7,18.4,85.1z"/>
		<path id="XMLID_209_" class="st5" d="M21.3,69.1c-0.9,0-1.6,0.1-2,0.2s-0.7,0.3-0.8,0.7c-0.1,0.3-0.2,0.9-0.2,1.7
			c0,0.8,0.1,1.5,0.4,1.9c0.3,0.4,0.6,0.6,1.1,0.7c0.5,0.1,1.1,0.1,2,0.1H27V76H16.8v-1.4l1.4-0.1v-0.1c-0.5-0.2-0.9-0.6-1.2-1.1
			c-0.3-0.5-0.4-1.3-0.4-2.3s0.1-1.7,0.4-2.2c0.3-0.5,0.7-0.8,1.3-1s1.3-0.3,2.3-0.3H27v1.6H21.3z"/>
		<path id="XMLID_211_" class="st5" d="M27.1,58.9c0.1,0.5,0.1,1,0.1,1.5c0,1.3-0.2,2.2-0.5,2.8c-0.4,0.6-0.9,1-1.6,1.1
			c-0.7,0.2-1.7,0.3-3.1,0.3c-1.3,0-2.4-0.1-3.1-0.3C18,64,17.5,63.6,17.2,63c-0.3-0.6-0.5-1.5-0.5-2.6c0-0.5,0-0.9,0.1-1.5
			c0.1-0.5,0.1-0.9,0.2-1.3h1.4c-0.1,0.8-0.2,1.6-0.2,2.4c0,0.9,0.1,1.5,0.3,1.9c0.2,0.4,0.6,0.7,1.1,0.8c0.5,0.1,1.3,0.2,2.4,0.2
			c1.1,0,1.9-0.1,2.5-0.2c0.5-0.1,0.9-0.4,1-0.8c0.2-0.4,0.3-1,0.3-1.9c0-0.7-0.1-1.4-0.2-2.4h1.4C27,57.9,27,58.4,27.1,58.9z"/>
		<path id="XMLID_213_" class="st5" d="M22.5,46.7v7c1,0,1.7-0.1,2.1-0.2c0.4-0.1,0.7-0.4,0.9-0.9c0.2-0.4,0.3-1.2,0.3-2.3
			c0-1-0.1-2.1-0.2-3.3h1.4c0.1,0.4,0.1,1,0.2,1.7c0.1,0.7,0.1,1.3,0.1,1.9c0,1.4-0.2,2.4-0.5,3c-0.3,0.6-0.8,1.1-1.5,1.3
			c-0.7,0.2-1.8,0.3-3.2,0.3c-1.4,0-2.5-0.1-3.2-0.3c-0.7-0.2-1.2-0.6-1.6-1.2s-0.5-1.6-0.5-3c0-1.3,0.2-2.2,0.5-2.8
			c0.3-0.6,0.9-0.9,1.5-1.1c0.7-0.2,1.8-0.2,3.2-0.2H22.5z M18.4,52.7c0.2,0.4,0.4,0.6,0.9,0.8c0.4,0.1,1.1,0.2,2,0.2v-5.4h-0.2
			c-0.9,0-1.5,0.1-1.9,0.2s-0.7,0.4-0.8,0.8c-0.1,0.3-0.2,0.9-0.2,1.6C18.1,51.7,18.2,52.3,18.4,52.7z"/>
	</g>
	<g id="XMLID_130_">
		<g id="XMLID_524_">
			<path id="XMLID_617_" class="st5" d="M88.2,273l-1.5-3.6l-6.2,0.2l-1.3,3.7l-1.7,0l4.9-13.9l2.2-0.1L90,273L88.2,273z
				 M83.4,261.2l-0.1,0l-2.4,6.7l5.1-0.1L83.4,261.2z"/>
			<path id="XMLID_564_" class="st5" d="M104.7,266.9c0-1-0.1-1.6-0.2-2s-0.3-0.7-0.6-0.8c-0.3-0.1-0.8-0.2-1.5-0.2
				c-0.7,0-1.3,0.2-1.6,0.4s-0.6,0.6-0.6,1.1s-0.1,1.2-0.1,2.1l0.1,5.3l-1.6,0l-0.1-5.7c0-1-0.1-1.6-0.2-2s-0.3-0.7-0.6-0.8
				c-0.3-0.1-0.8-0.2-1.5-0.2c-0.7,0-1.3,0.2-1.6,0.4c-0.3,0.3-0.6,0.6-0.6,1.1s-0.1,1.2-0.1,2l0.1,5.3l-1.6,0L92,262.7l1.4,0
				l0.1,1.4l0.1,0c0.2-0.5,0.5-0.9,1-1.2c0.5-0.3,1.2-0.4,2.1-0.5c0.9,0,1.5,0.1,2,0.3s0.8,0.6,1,1.2l0.1,0c0.4-1.1,1.4-1.6,3.1-1.7
				c0.9,0,1.6,0.1,2,0.4c0.5,0.3,0.8,0.7,1,1.2c0.2,0.5,0.3,1.3,0.3,2.3l0.2,6.4l-1.6,0L104.7,266.9z"/>
			<path id="XMLID_561_" class="st5" d="M110.1,272c-0.5-0.4-0.8-1.2-0.9-2.3c0-0.8,0.1-1.4,0.2-1.8s0.5-0.8,0.9-1
				c0.4-0.2,1.1-0.3,1.9-0.3c0.4,0,1.7,0,3.8,0l0-0.6c0-0.8-0.1-1.4-0.3-1.7c-0.2-0.3-0.4-0.5-0.9-0.6c-0.4-0.1-1.1-0.1-2.1-0.1
				c-0.4,0-1,0-1.6,0.1s-1.1,0.1-1.5,0.2l0-1.4c1-0.2,2.3-0.3,3.7-0.4c1.2,0,2.1,0.1,2.7,0.3c0.6,0.2,1,0.6,1.2,1.2
				c0.2,0.5,0.3,1.3,0.4,2.4l0.2,6.4l-1.5,0l-0.1-1.4l-0.1,0c-0.3,0.6-0.7,1.1-1.3,1.3c-0.6,0.2-1.3,0.3-2.2,0.4
				C111.5,272.6,110.6,272.4,110.1,272z M114.9,270.9c0.4-0.1,0.7-0.4,0.9-0.7c0.3-0.5,0.4-1.2,0.4-2l0-0.5l-3.4,0.1
				c-0.6,0-1,0.1-1.2,0.2c-0.3,0.1-0.4,0.2-0.5,0.5c-0.1,0.2-0.1,0.6-0.1,1.1c0,0.5,0.1,0.8,0.2,1.1s0.4,0.4,0.7,0.5
				c0.3,0.1,0.8,0.1,1.5,0.1C113.9,271.1,114.5,271,114.9,270.9z"/>
			<path id="XMLID_559_" class="st5" d="M122.1,272.2l-0.2-8.7l-2.1,0.1l0-1.5l2.1-0.1l-0.1-3l1.6,0l0.1,3l2.4-0.1l0,1.5l-2.4,0.1
				l0.2,8.7L122.1,272.2z"/>
			<path id="XMLID_556_" class="st5" d="M136.4,267.3l-7,0.2c0,1,0.1,1.7,0.3,2.1c0.1,0.4,0.4,0.7,0.9,0.8s1.2,0.2,2.3,0.2
				c1,0,2.1-0.1,3.3-0.3l0,1.4c-0.4,0.1-1,0.2-1.7,0.2c-0.7,0.1-1.3,0.1-1.9,0.1c-1.4,0-2.4-0.1-3-0.4c-0.7-0.3-1.1-0.8-1.3-1.5
				c-0.2-0.7-0.3-1.8-0.4-3.2c0-1.4,0-2.5,0.2-3.2s0.6-1.2,1.2-1.6c0.6-0.4,1.6-0.6,3-0.6c1.3,0,2.2,0.1,2.8,0.4
				c0.6,0.3,1,0.8,1.1,1.5c0.2,0.7,0.3,1.8,0.3,3.2L136.4,267.3z M130.2,263.3c-0.4,0.2-0.6,0.5-0.7,0.9c-0.1,0.4-0.2,1.1-0.2,2
				l5.4-0.1l0-0.2c0-0.9-0.1-1.5-0.3-1.9c-0.2-0.4-0.4-0.7-0.8-0.8c-0.4-0.1-0.9-0.2-1.6-0.2C131.2,263.1,130.6,263.2,130.2,263.3z"
				/>
			<path id="XMLID_554_" class="st5" d="M146.5,270.1l-0.1,0c-0.2,0.5-0.6,0.9-1.1,1.2c-0.5,0.3-1.3,0.4-2.2,0.5
				c-1,0-1.7-0.1-2.2-0.4c-0.5-0.3-0.9-0.7-1-1.2s-0.3-1.3-0.3-2.3l-0.2-6.4l1.6,0l0.1,5.7c0,1,0.1,1.6,0.2,2
				c0.1,0.4,0.4,0.7,0.7,0.8c0.3,0.1,0.9,0.2,1.7,0.2c0.8,0,1.5-0.2,1.8-0.4c0.4-0.3,0.6-0.7,0.7-1.1c0.1-0.5,0.1-1.1,0.1-2
				l-0.1-5.3l1.6,0l0.3,10.2l-1.5,0L146.5,270.1z"/>
			<path id="XMLID_552_" class="st5" d="M151.3,261.2l1.4,0l0.1,1.9l0.1,0c0.2-0.8,0.6-1.4,1.2-1.7c0.6-0.3,1.3-0.5,2.2-0.5l0,1.7
				c-0.9,0-1.6,0.2-2.1,0.5s-0.8,0.7-1,1.3c-0.2,0.6-0.2,1.4-0.2,2.4l0.1,4.6l-1.6,0L151.3,261.2z"/>
			<path id="XMLID_550_" class="st5" d="M161.7,272.3l5.4-16.1l1.5,0l-5.4,16.1L161.7,272.3z"/>
			<path id="XMLID_547_" class="st5" d="M177,270.4c-0.8-0.3-1.3-1-1.5-1.9c-0.2-0.9-0.4-2.4-0.4-4.6s0-3.7,0.2-4.6
				c0.2-0.9,0.7-1.5,1.4-1.9c0.8-0.4,2-0.6,3.9-0.6c1.8,0,3.1,0.1,3.9,0.4c0.8,0.3,1.3,1,1.5,1.9s0.4,2.4,0.4,4.6
				c0.1,2.2,0,3.7-0.2,4.6c-0.2,0.9-0.7,1.5-1.4,1.9c-0.8,0.4-2,0.6-3.9,0.6C179,270.9,177.7,270.8,177,270.4z M183.6,269
				c0.5-0.2,0.8-0.6,0.9-1.3c0.1-0.7,0.2-2,0.1-3.9s-0.2-3.2-0.3-3.9c-0.2-0.7-0.5-1.1-1-1.3c-0.5-0.2-1.4-0.2-2.8-0.2
				c-1.4,0-2.3,0.1-2.8,0.3c-0.5,0.2-0.8,0.6-0.9,1.3c-0.1,0.7-0.2,2-0.1,3.9s0.2,3.2,0.3,3.9c0.2,0.7,0.5,1.1,1,1.3
				c0.5,0.2,1.4,0.2,2.8,0.2C182.2,269.2,183.1,269.1,183.6,269z"/>
			<path id="XMLID_544_" class="st5" d="M189.5,260.3l1.4,0l0.1,1.4l0.1,0c0.3-0.6,0.7-1,1.2-1.3s1.3-0.4,2.1-0.4
				c1,0,1.8,0.1,2.3,0.4c0.5,0.3,0.9,0.8,1.2,1.5s0.4,1.8,0.4,3.2c0,1.4,0,2.5-0.3,3.2c-0.2,0.8-0.6,1.3-1.1,1.6s-1.3,0.5-2.3,0.5
				c-0.9,0-1.6-0.1-2.1-0.3c-0.5-0.2-1-0.6-1.2-1.1l-0.1,0l0.1,5.3l-1.6,0L189.5,260.3z M195.9,268.7c0.4-0.2,0.6-0.5,0.7-1
				c0.1-0.5,0.2-1.3,0.1-2.5c0-1.1-0.1-2-0.3-2.5c-0.1-0.5-0.4-0.8-0.8-1c-0.4-0.2-1-0.2-1.9-0.2c-0.7,0-1.2,0.1-1.6,0.3
				c-0.4,0.2-0.7,0.5-0.8,0.9c-0.1,0.3-0.2,0.6-0.2,1c0,0.4,0,0.9,0,1.5c0,0.7,0,1.2,0.1,1.5c0,0.4,0.1,0.7,0.2,0.9
				c0.2,0.4,0.5,0.7,0.9,0.9c0.4,0.2,1,0.3,1.6,0.2C195,268.9,195.6,268.9,195.9,268.7z"/>
			<path id="XMLID_541_" class="st5" d="M209.7,265.5l-7,0.2c0,1,0.1,1.7,0.3,2.1c0.1,0.4,0.4,0.7,0.9,0.8s1.2,0.2,2.3,0.2
				c1,0,2.1-0.1,3.3-0.3l0,1.4c-0.4,0.1-1,0.2-1.7,0.2c-0.7,0.1-1.3,0.1-1.9,0.1c-1.4,0-2.4-0.1-3-0.4c-0.7-0.3-1.1-0.8-1.3-1.5
				c-0.2-0.7-0.3-1.8-0.4-3.2c0-1.4,0-2.5,0.2-3.2s0.6-1.2,1.2-1.6c0.6-0.4,1.6-0.6,3-0.6c1.3,0,2.2,0.1,2.8,0.4
				c0.6,0.3,1,0.8,1.1,1.5c0.2,0.7,0.3,1.8,0.3,3.2L209.7,265.5z M203.5,261.5c-0.4,0.2-0.6,0.5-0.7,0.9c-0.1,0.4-0.2,1.1-0.2,2
				l5.4-0.1l0-0.2c0-0.9-0.1-1.5-0.3-1.9c-0.2-0.4-0.4-0.7-0.8-0.8c-0.4-0.1-0.9-0.2-1.6-0.2C204.5,261.2,203.9,261.3,203.5,261.5z"
				/>
			<path id="XMLID_539_" class="st5" d="M219.6,264c0-0.9-0.1-1.6-0.2-2c-0.1-0.4-0.4-0.7-0.7-0.8c-0.3-0.1-0.9-0.2-1.7-0.2
				c-0.8,0-1.5,0.2-1.8,0.4c-0.4,0.3-0.6,0.6-0.7,1.1c-0.1,0.5-0.1,1.1-0.1,2l0.1,5.3l-1.6,0l-0.3-10.2l1.4,0l0.1,1.4l0.1,0
				c0.2-0.5,0.6-0.9,1.1-1.2c0.5-0.3,1.3-0.4,2.2-0.5s1.7,0.1,2.2,0.4s0.9,0.7,1,1.2s0.3,1.3,0.3,2.3l0.2,6.4l-1.6,0L219.6,264z"/>
			<path id="XMLID_537_" class="st5" d="M231.9,269.5c-0.9,0-1.7-0.1-2.4-0.1l0-1.6c1.7,0.1,3.2,0.2,4.3,0.2c0.7,0,1.3-0.1,1.7-0.1
				c0.4-0.1,0.8-0.2,1.1-0.4c0.3-0.2,0.4-0.4,0.5-0.7c0.1-0.3,0.1-0.7,0.1-1.3c0-0.6-0.1-1.1-0.1-1.3c-0.1-0.3-0.2-0.4-0.5-0.6
				c-0.2-0.1-0.7-0.2-1.3-0.2l-3.4-0.3c-0.8-0.1-1.5-0.3-1.9-0.5c-0.4-0.3-0.7-0.7-0.9-1.2c-0.2-0.5-0.2-1.1-0.3-1.9
				c0-1.1,0.1-1.9,0.5-2.5c0.4-0.6,0.9-1,1.6-1.2c0.7-0.2,1.6-0.3,2.8-0.3c0.8,0,1.6,0,2.4,0s1.4,0.1,1.9,0.2l0,1.5
				c-0.5-0.1-1.1-0.1-1.9-0.1c-0.7,0-1.4,0-2.1,0c-0.7,0-1.3,0.1-1.8,0.1c-0.5,0.1-0.8,0.2-1.1,0.4c-0.3,0.2-0.5,0.4-0.5,0.7
				s-0.1,0.6-0.1,1.1c0,0.5,0.1,0.9,0.1,1.2c0.1,0.2,0.2,0.4,0.5,0.5c0.2,0.1,0.6,0.2,1.1,0.2l3.4,0.3c0.8,0.1,1.4,0.2,1.9,0.4
				c0.4,0.2,0.8,0.5,1,1.1c0.2,0.5,0.3,1.2,0.3,2.3c0,1.2-0.1,2.1-0.5,2.7c-0.4,0.6-0.8,1-1.5,1.2c-0.6,0.2-1.5,0.3-2.6,0.3
				C233.6,269.6,232.8,269.6,231.9,269.5z"/>
			<path id="XMLID_534_" class="st5" d="M243,268.9c-0.6-0.3-1-0.7-1.2-1.4c-0.2-0.7-0.3-1.8-0.3-3.4s0-2.7,0.2-3.4s0.5-1.2,1.1-1.5
				c0.6-0.3,1.6-0.5,3-0.5c1.4,0,2.4,0.1,3,0.4c0.6,0.3,1,0.7,1.2,1.4c0.2,0.7,0.3,1.8,0.3,3.4s0,2.7-0.2,3.4
				c-0.1,0.7-0.5,1.2-1.1,1.5s-1.6,0.5-3,0.5C244.7,269.3,243.6,269.2,243,268.9z M248.1,267.5c0.4-0.2,0.6-0.5,0.7-1
				c0.1-0.5,0.1-1.3,0.1-2.6s-0.1-2.1-0.2-2.6c-0.1-0.5-0.3-0.8-0.7-0.9s-1.1-0.2-2-0.2c-1,0-1.6,0.1-2,0.3s-0.6,0.5-0.7,1
				c-0.1,0.5-0.1,1.3-0.1,2.6c0,1.3,0.1,2.1,0.2,2.6s0.3,0.8,0.7,0.9c0.4,0.2,1.1,0.2,2,0.2C247,267.8,247.7,267.7,248.1,267.5z"/>
			<path id="XMLID_532_" class="st5" d="M260.5,267.3l-0.1,0c-0.2,0.5-0.6,0.9-1.1,1.2c-0.5,0.3-1.3,0.4-2.2,0.5
				c-1,0-1.7-0.1-2.2-0.4c-0.5-0.3-0.9-0.7-1-1.2s-0.3-1.3-0.3-2.3l-0.2-6.4l1.6,0l0.1,5.7c0,1,0.1,1.6,0.2,2
				c0.1,0.4,0.4,0.7,0.7,0.8c0.3,0.1,0.9,0.2,1.7,0.2c0.8,0,1.5-0.2,1.8-0.4c0.4-0.3,0.6-0.7,0.7-1.1c0.1-0.5,0.1-1.1,0.1-2
				l-0.1-5.3l1.6,0l0.3,10.2l-1.5,0L260.5,267.3z"/>
			<path id="XMLID_530_" class="st5" d="M265.3,258.4l1.4,0l0.1,1.9l0.1,0c0.2-0.8,0.6-1.4,1.2-1.7c0.6-0.3,1.3-0.5,2.2-0.5l0,1.7
				c-0.9,0-1.6,0.2-2.1,0.5s-0.8,0.7-1,1.3c-0.2,0.6-0.2,1.4-0.2,2.4l0.1,4.6l-1.6,0L265.3,258.4z"/>
			<path id="XMLID_528_" class="st5" d="M278,268.4c-0.5,0.1-1,0.1-1.5,0.1c-1.3,0-2.2-0.1-2.8-0.5c-0.6-0.3-1-0.9-1.2-1.6
				s-0.3-1.7-0.3-3.1c0-1.3,0-2.4,0.2-3.1c0.2-0.7,0.6-1.3,1.1-1.6c0.6-0.4,1.4-0.6,2.6-0.6c0.5,0,0.9,0,1.5,0c0.5,0,1,0.1,1.3,0.1
				l0,1.4c-0.8-0.1-1.6-0.2-2.4-0.2c-0.9,0-1.5,0.1-1.9,0.3c-0.4,0.2-0.6,0.6-0.8,1.1c-0.1,0.5-0.2,1.3-0.1,2.4
				c0,1.1,0.1,1.9,0.3,2.4s0.4,0.9,0.8,1c0.4,0.2,1,0.3,1.9,0.2c0.7,0,1.4-0.1,2.4-0.3l0,1.4C278.9,268.3,278.5,268.3,278,268.4z"/>
			<path id="XMLID_525_" class="st5" d="M290.1,263.5l-7,0.2c0,1,0.1,1.7,0.3,2.1c0.1,0.4,0.4,0.7,0.9,0.8s1.2,0.2,2.3,0.2
				c1,0,2.1-0.1,3.3-0.3l0,1.4c-0.4,0.1-1,0.2-1.7,0.2c-0.7,0.1-1.3,0.1-1.9,0.1c-1.4,0-2.4-0.1-3-0.4c-0.7-0.3-1.1-0.8-1.3-1.5
				c-0.2-0.7-0.3-1.8-0.4-3.2c0-1.4,0-2.5,0.2-3.2s0.6-1.2,1.2-1.6c0.6-0.4,1.6-0.6,3-0.6c1.3,0,2.2,0.1,2.8,0.4
				c0.6,0.3,1,0.8,1.1,1.5c0.2,0.7,0.3,1.8,0.3,3.2L290.1,263.5z M284,259.5c-0.4,0.2-0.6,0.5-0.7,0.9c-0.1,0.4-0.2,1.1-0.2,2
				l5.4-0.1l0-0.2c0-0.9-0.1-1.5-0.3-1.9c-0.2-0.4-0.4-0.7-0.8-0.8c-0.4-0.1-0.9-0.2-1.6-0.2C285,259.3,284.3,259.4,284,259.5z"/>
		</g>
	</g>
	<g id="XMLID_15_">
		<g id="XMLID_565_">
			<path id="XMLID_614_" class="st5" d="M81.3,184.7L79.9,171l1.7-0.2l1.4,13.7L81.3,184.7z"/>
			<path id="XMLID_612_" class="st5" d="M93,177.8c-0.1-0.9-0.2-1.6-0.4-2c-0.2-0.4-0.4-0.6-0.8-0.7s-0.9-0.1-1.7,0
				c-0.8,0.1-1.4,0.3-1.8,0.6c-0.4,0.3-0.6,0.7-0.6,1.2c-0.1,0.5,0,1.1,0.1,2l0.5,5.2l-1.6,0.2l-1-10.1l1.4-0.1l0.2,1.4l0.1,0
				c0.2-0.5,0.5-1,1-1.3c0.5-0.3,1.2-0.5,2.2-0.6c1-0.1,1.7,0,2.3,0.2c0.5,0.2,0.9,0.6,1.1,1.1s0.4,1.3,0.5,2.3l0.6,6.3l-1.6,0.2
				L93,177.8z"/>
			<path id="XMLID_610_" class="st5" d="M100.1,182.9c-0.7,0-1.3,0-1.8,0l-0.1-1.4c1.3,0,2.5,0,3.6-0.1c0.7-0.1,1.2-0.2,1.5-0.3
				c0.3-0.1,0.5-0.3,0.6-0.5c0.1-0.2,0.1-0.5,0.1-0.9s-0.1-0.7-0.2-0.9s-0.2-0.3-0.4-0.3c-0.2,0-0.4-0.1-0.9-0.1l-2.7,0
				c-0.6,0-1.1-0.1-1.4-0.3s-0.6-0.4-0.8-0.8c-0.2-0.4-0.3-0.8-0.3-1.5c-0.1-0.9,0-1.5,0.3-2s0.7-0.8,1.2-1c0.5-0.2,1.3-0.3,2.2-0.4
				c0.5-0.1,1.1-0.1,1.7-0.1c0.6,0,1.1,0,1.5,0l0.1,1.4c-1.1-0.1-2.1,0-3.2,0.1c-0.6,0.1-1.1,0.1-1.4,0.2c-0.3,0.1-0.5,0.3-0.7,0.5
				c-0.2,0.2-0.2,0.6-0.2,1c0,0.4,0.1,0.7,0.2,0.8c0.1,0.2,0.2,0.3,0.4,0.3c0.2,0.1,0.4,0.1,0.8,0.1l2.8,0c0.6,0,1,0.1,1.4,0.2
				c0.3,0.1,0.6,0.4,0.7,0.7s0.3,0.9,0.4,1.7c0.1,0.8,0,1.5-0.2,2c-0.2,0.5-0.6,0.8-1.1,1s-1.2,0.4-2.1,0.4
				C101.5,182.8,100.8,182.9,100.1,182.9z"/>
			<path id="XMLID_608_" class="st5" d="M109.3,181.9l-0.9-8.7l-2,0.2l-0.2-1.5l2-0.2l-0.3-2.9l1.6-0.2l0.3,2.9l2.4-0.2l0.2,1.5
				L110,173l0.9,8.7L109.3,181.9z"/>
			<path id="XMLID_605_" class="st5" d="M114.2,168.3l-0.2-1.9l1.7-0.2l0.2,1.9L114.2,168.3z M115.6,181.2l-1-10.1l1.6-0.2l1,10.1
				L115.6,181.2z"/>
			<path id="XMLID_603_" class="st5" d="M121.5,180.6l-0.9-8.7l-2,0.2l-0.2-1.5l2-0.2l-0.3-2.9l1.6-0.2l0.3,2.9l2.4-0.2l0.2,1.5
				l-2.4,0.2l0.9,8.7L121.5,180.6z"/>
			<path id="XMLID_601_" class="st5" d="M134.6,177.8l-0.1,0c-0.2,0.5-0.5,1-1,1.3c-0.5,0.3-1.2,0.5-2.2,0.6c-1,0.1-1.7,0-2.2-0.2
				s-0.9-0.6-1.1-1.1c-0.2-0.5-0.4-1.3-0.5-2.3l-0.6-6.3l1.6-0.2l0.6,5.7c0.1,1,0.2,1.6,0.4,2c0.2,0.4,0.4,0.6,0.7,0.7
				c0.3,0.1,0.9,0.1,1.7,0c0.8-0.1,1.4-0.3,1.8-0.6c0.4-0.3,0.6-0.7,0.6-1.2s0-1.2,0-2l-0.5-5.2l1.6-0.2l1,10.1l-1.5,0.1
				L134.6,177.8z"/>
			<path id="XMLID_599_" class="st5" d="M140.6,178.7l-0.9-8.7l-2,0.2l-0.2-1.5l2-0.2l-0.3-2.9l1.6-0.2l0.3,2.9l2.4-0.2l0.2,1.5
				l-2.4,0.2l0.9,8.7L140.6,178.7z"/>
			<path id="XMLID_596_" class="st5" d="M145.5,165.1l-0.2-1.9l1.7-0.2l0.2,1.9L145.5,165.1z M146.9,178l-1-10.1l1.6-0.2l1,10.1
				L146.9,178z"/>
			<path id="XMLID_593_" class="st5" d="M152.9,177.2c-0.6-0.2-1.1-0.7-1.3-1.3c-0.2-0.7-0.4-1.8-0.6-3.3c-0.2-1.6-0.2-2.7-0.1-3.4
				c0.1-0.7,0.4-1.2,1-1.6c0.6-0.3,1.6-0.6,3-0.7c1.4-0.1,2.4-0.1,3.1,0.1c0.6,0.2,1.1,0.7,1.3,1.3c0.2,0.7,0.4,1.8,0.6,3.3
				c0.2,1.6,0.2,2.7,0.1,3.4c-0.1,0.7-0.4,1.2-1,1.6c-0.6,0.3-1.6,0.6-3,0.7C154.5,177.4,153.5,177.4,152.9,177.2z M157.8,175.3
				c0.4-0.2,0.6-0.5,0.6-1c0-0.5,0-1.3-0.1-2.6c-0.1-1.2-0.3-2.1-0.4-2.5c-0.1-0.4-0.4-0.7-0.8-0.9c-0.4-0.1-1.1-0.2-2-0.1
				c-1,0.1-1.6,0.3-2,0.5s-0.6,0.5-0.6,1c0,0.5,0,1.3,0.1,2.6s0.3,2.1,0.4,2.5c0.1,0.4,0.4,0.7,0.8,0.9c0.4,0.1,1.1,0.2,2,0.1
				S157.4,175.5,157.8,175.3z"/>
			<path id="XMLID_591_" class="st5" d="M169.7,169.9c-0.1-0.9-0.2-1.6-0.4-2c-0.2-0.4-0.4-0.6-0.8-0.7s-0.9-0.1-1.7,0
				c-0.8,0.1-1.4,0.3-1.8,0.6c-0.4,0.3-0.6,0.7-0.6,1.2c-0.1,0.5,0,1.1,0.1,2l0.5,5.2l-1.6,0.2l-1-10.1l1.4-0.1l0.2,1.4l0.1,0
				c0.2-0.5,0.5-1,1-1.3c0.5-0.3,1.2-0.5,2.2-0.6c1-0.1,1.7,0,2.3,0.2c0.5,0.2,0.9,0.6,1.1,1.1s0.4,1.3,0.5,2.3l0.6,6.3l-1.6,0.2
				L169.7,169.9z"/>
			<path id="XMLID_588_" class="st5" d="M175.4,174.6c-0.6-0.4-0.9-1.1-1-2.2c-0.1-0.8,0-1.4,0.1-1.9c0.1-0.5,0.4-0.8,0.8-1.1
				c0.4-0.2,1-0.4,1.8-0.5c0.4,0,1.7-0.1,3.8-0.3l-0.1-0.6c-0.1-0.8-0.2-1.4-0.4-1.7s-0.5-0.5-0.9-0.6c-0.4-0.1-1.1,0-2.1,0.1
				c-0.4,0-1,0.1-1.6,0.2s-1.1,0.2-1.5,0.3l-0.1-1.4c1-0.3,2.2-0.5,3.7-0.7c1.2-0.1,2.1-0.1,2.7,0.1c0.6,0.2,1.1,0.5,1.3,1.1
				c0.3,0.5,0.4,1.3,0.5,2.4l0.6,6.3l-1.5,0.1l-0.2-1.4l-0.1,0c-0.2,0.7-0.6,1.1-1.2,1.4c-0.6,0.3-1.3,0.4-2.1,0.5
				C176.9,175.1,176,175,175.4,174.6z M180.1,173.2c0.4-0.2,0.7-0.4,0.8-0.8c0.2-0.5,0.3-1.2,0.2-2l0-0.5l-3.4,0.3
				c-0.6,0.1-1,0.1-1.2,0.2c-0.3,0.1-0.4,0.3-0.5,0.5s-0.1,0.6,0,1.1c0,0.5,0.1,0.8,0.3,1c0.1,0.2,0.4,0.3,0.7,0.4s0.8,0,1.5,0
				C179.2,173.4,179.7,173.3,180.1,173.2z"/>
			<path id="XMLID_586_" class="st5" d="M186.7,174l-1.5-14.8l1.6-0.2l1.5,14.8L186.7,174z"/>
			<path id="XMLID_584_" class="st5" d="M196.7,172.9l-1.4-13.7l1.7-0.2l1.4,13.7L196.7,172.9z"/>
			<path id="XMLID_582_" class="st5" d="M208.4,166c-0.1-0.9-0.2-1.6-0.4-2c-0.2-0.4-0.4-0.6-0.8-0.7s-0.9-0.1-1.7,0
				c-0.8,0.1-1.4,0.3-1.8,0.6c-0.4,0.3-0.6,0.7-0.6,1.2c-0.1,0.5,0,1.1,0.1,2l0.5,5.2l-1.6,0.2l-1-10.1l1.4-0.1l0.2,1.4l0.1,0
				c0.2-0.5,0.5-1,1-1.3c0.5-0.3,1.2-0.5,2.2-0.6c1-0.1,1.7,0,2.3,0.2c0.5,0.2,0.9,0.6,1.1,1.1c0.2,0.5,0.4,1.3,0.5,2.3l0.6,6.3
				l-1.6,0.2L208.4,166z"/>
			<path id="XMLID_580_" class="st5" d="M216.6,170.9l-4.8-9.8l1.7-0.2l3.9,8l0.1,0l2.1-8.7l1.7-0.2l-2.7,10.5L216.6,170.9z"/>
			<path id="XMLID_577_" class="st5" d="M232,164.8l-6.9,0.7c0.1,1,0.2,1.7,0.4,2c0.2,0.4,0.5,0.7,1,0.8c0.5,0.1,1.2,0.1,2.3,0
				c1-0.1,2.1-0.3,3.2-0.5l0.1,1.4c-0.4,0.1-1,0.2-1.6,0.4c-0.7,0.1-1.3,0.2-1.9,0.3c-1.4,0.1-2.4,0.1-3.1-0.2
				c-0.7-0.3-1.1-0.7-1.4-1.4c-0.3-0.7-0.5-1.7-0.6-3.2c-0.1-1.4-0.2-2.5-0.1-3.2c0.1-0.7,0.5-1.3,1.1-1.7s1.6-0.7,2.9-0.8
				c1.3-0.1,2.2-0.1,2.8,0.2c0.6,0.3,1,0.8,1.2,1.4c0.2,0.7,0.4,1.7,0.6,3.2L232,164.8z M225.6,161.3c-0.4,0.2-0.6,0.5-0.7,0.9
				c-0.1,0.4-0.1,1.1,0,2l5.4-0.6l0-0.2c-0.1-0.9-0.2-1.5-0.4-1.9c-0.2-0.4-0.5-0.6-0.8-0.7c-0.4-0.1-0.9-0.1-1.6,0
				C226.6,161,226,161.1,225.6,161.3z"/>
			<path id="XMLID_575_" class="st5" d="M237,168.9c-0.7,0-1.3,0-1.8,0l-0.1-1.4c1.3,0,2.5,0,3.6-0.1c0.7-0.1,1.2-0.2,1.5-0.3
				c0.3-0.1,0.5-0.3,0.6-0.5c0.1-0.2,0.1-0.5,0.1-0.9s-0.1-0.7-0.2-0.9s-0.2-0.3-0.4-0.3c-0.2,0-0.4-0.1-0.9-0.1l-2.7,0
				c-0.6,0-1.1-0.1-1.4-0.3c-0.3-0.2-0.6-0.4-0.8-0.8c-0.2-0.4-0.3-0.8-0.3-1.5c-0.1-0.9,0-1.5,0.3-2s0.7-0.8,1.2-1
				c0.5-0.2,1.3-0.3,2.2-0.4c0.5-0.1,1.1-0.1,1.7-0.1c0.6,0,1.1,0,1.5,0l0.1,1.4c-1.1-0.1-2.1,0-3.2,0.1c-0.6,0.1-1.1,0.1-1.4,0.2
				c-0.3,0.1-0.5,0.3-0.7,0.5c-0.2,0.2-0.2,0.6-0.2,1c0,0.4,0.1,0.7,0.2,0.8c0.1,0.2,0.2,0.3,0.4,0.3c0.2,0.1,0.4,0.1,0.8,0.1l2.8,0
				c0.6,0,1,0.1,1.4,0.2c0.3,0.1,0.6,0.4,0.7,0.7s0.3,0.9,0.4,1.7c0.1,0.8,0,1.5-0.2,2c-0.2,0.5-0.6,0.8-1.1,1s-1.2,0.4-2.1,0.4
				C238.3,168.9,237.7,168.9,237,168.9z"/>
			<path id="XMLID_573_" class="st5" d="M246.2,167.9l-0.9-8.7l-2,0.2l-0.2-1.5l2-0.2l-0.3-2.9l1.6-0.2l0.3,2.9l2.4-0.2l0.2,1.5
				l-2.4,0.2l0.9,8.7L246.2,167.9z"/>
			<path id="XMLID_570_" class="st5" d="M253.3,166.9c-0.6-0.2-1.1-0.7-1.3-1.3c-0.2-0.7-0.4-1.8-0.6-3.3c-0.2-1.6-0.2-2.7-0.1-3.4
				c0.1-0.7,0.4-1.2,1-1.6c0.6-0.3,1.6-0.6,3-0.7c1.4-0.1,2.4-0.1,3.1,0.1c0.6,0.2,1.1,0.7,1.3,1.3c0.2,0.7,0.4,1.8,0.6,3.3
				c0.2,1.6,0.2,2.7,0.1,3.4c-0.1,0.7-0.4,1.2-1,1.6c-0.6,0.3-1.6,0.6-3,0.7C255,167.2,254,167.1,253.3,166.9z M258.3,165.1
				c0.4-0.2,0.6-0.5,0.6-1c0-0.5,0-1.3-0.1-2.6s-0.3-2.1-0.4-2.5c-0.1-0.4-0.4-0.7-0.8-0.9c-0.4-0.1-1.1-0.2-2-0.1
				c-1,0.1-1.6,0.3-2,0.5s-0.6,0.5-0.6,1c0,0.5,0,1.3,0.1,2.6s0.3,2.1,0.4,2.5c0.1,0.4,0.4,0.7,0.8,0.9c0.4,0.1,1.1,0.2,2,0.1
				S257.9,165.3,258.3,165.1z"/>
			<path id="XMLID_568_" class="st5" d="M262.8,155.9l1.4-0.1l0.3,1.9l0.1,0c0.2-0.8,0.5-1.4,1-1.8c0.5-0.4,1.2-0.6,2.1-0.7l0.2,1.7
				c-0.9,0.1-1.6,0.3-2.1,0.6c-0.5,0.3-0.8,0.8-0.9,1.4c-0.1,0.6-0.1,1.4,0,2.4l0.5,4.5l-1.6,0.2L262.8,155.9z"/>
			<path id="XMLID_566_" class="st5" d="M272.7,165.3c-0.7,0-1.3,0-1.8,0l-0.1-1.4c1.3,0,2.5,0,3.6-0.1c0.7-0.1,1.2-0.2,1.5-0.3
				c0.3-0.1,0.5-0.3,0.6-0.5c0.1-0.2,0.1-0.5,0.1-0.9s-0.1-0.7-0.2-0.9s-0.2-0.3-0.4-0.3c-0.2,0-0.4-0.1-0.9-0.1l-2.7,0
				c-0.6,0-1.1-0.1-1.4-0.3s-0.6-0.4-0.8-0.8c-0.2-0.4-0.3-0.8-0.3-1.5c-0.1-0.9,0-1.5,0.3-2s0.7-0.8,1.2-1c0.5-0.2,1.3-0.3,2.2-0.4
				c0.5-0.1,1.1-0.1,1.7-0.1c0.6,0,1.1,0,1.5,0l0.1,1.4c-1.1-0.1-2.1,0-3.2,0.1c-0.6,0.1-1.1,0.1-1.4,0.2c-0.3,0.1-0.5,0.3-0.7,0.5
				c-0.2,0.2-0.2,0.6-0.2,1c0,0.4,0.1,0.7,0.2,0.8c0.1,0.2,0.2,0.3,0.4,0.3s0.4,0.1,0.8,0.1l2.8,0c0.6,0,1,0.1,1.4,0.2
				c0.3,0.1,0.6,0.4,0.7,0.7s0.3,0.9,0.4,1.7c0.1,0.8,0,1.5-0.2,2c-0.2,0.5-0.6,0.8-1.1,1s-1.2,0.4-2.1,0.4
				C274,165.2,273.4,165.2,272.7,165.3z"/>
		</g>
	</g>
</g>
<g id="Layer_3">
	<g id="XMLID_49_">
		<g id="XMLID_105_">
			<polyline id="XMLID_110_" class="st4" points="37,17.3 37,296 698.7,296 			"/>
			<g id="XMLID_108_">
				<path id="XMLID_109_" class="st5" d="M37,20.9l7.2,4.4l0.2-0.2l-4.7-11.8C38.8,9.2,37.9,5.1,37,1c-0.9,4.1-1.8,8.2-2.7,12.3
					L29.6,25l0.1,0.2L37,20.9z"/>
			</g>
			<g id="XMLID_106_">
				<path id="XMLID_107_" class="st5" d="M695.1,296l-4.4-7.2l0.2-0.2l11.8,4.7c4.1,0.9,8.2,1.8,12.3,2.7c-4.1,0.9-8.2,1.8-12.3,2.7
					l-11.8,4.7l-0.2-0.1L695.1,296z"/>
			</g>
		</g>
	</g>
</g>
<g id="Layer_5" class="st0">
</g>
</svg>
