<?xml version="1.0" encoding="utf-8"?>
<!-- Generator: Adobe Illustrator 19.0.0, SVG Export Plug-In . SVG Version: 6.00 Build 0)  -->
<svg version="1.1" xmlns="http://www.w3.org/2000/svg" xmlns:xlink="http://www.w3.org/1999/xlink" x="0px" y="0px"
	 viewBox="0 0 1067 330.7" style="enable-background:new 0 0 1067 330.7;" xml:space="preserve">
<style type="text/css">
	.st0{display:none;}
	.st1{display:inline;stroke:#FFFFFF;stroke-miterlimit:10;}
	.st2{fill:none;stroke:#3170B2;stroke-width:5;stroke-miterlimit:10;}
	.st3{fill:none;stroke:#4A9C40;stroke-width:5;stroke-miterlimit:10;}
	.st4{fill:none;stroke:#ECC42E;stroke-width:5;stroke-miterlimit:10;}
	.st5{fill:none;stroke:#C4433E;stroke-width:5;stroke-miterlimit:10;}
	.st6{display:inline;fill:#FFFFFF;}
	.st7{font-family:'Saira-Regular';}
	.st8{font-size:24px;}
	.st9{display:inline;}
	.st10{fill:#FFFFFF;}
	.st11{fill:none;}
	.st12{fill:none;stroke:#FFFFFF;stroke-width:3;stroke-miterlimit:10;}
</style>
<g id="Layer_1">
</g>
<g id="Layer_2" class="st0">
	<rect id="XMLID_1_" class="st1" width="1067" height="330.7"/>
</g>
<g id="Layer_7">
</g>
<g id="Layer_4">
	<line id="XMLID_5_" class="st2" x1="37" y1="277" x2="1055" y2="251.5"/>
	<line id="XMLID_7_" class="st3" x1="37" y1="229" x2="1055" y2="124"/>
	<path id="XMLID_4_" class="st4" d="M994.4,130.3c29.4-33.9,48-70.9,60.6-108.6"/>
	<path id="XMLID_11_" class="st5" d="M37,290"/>
	<path id="XMLID_14_" class="st5" d="M37,290c328.3,0,649.6-7.6,778.2-49.7c85-27.8,141.1-66.3,179.1-110.1"/>
</g>
<g id="Layer_4_copy" class="st0">
	<text id="XMLID_12_" transform="matrix(0 -1 1 0 27.0005 178)" class="st6 st7 st8">Intelligence</text>
	<g id="XMLID_13_" class="st9">
		<text id="XMLID_35_" transform="matrix(1 0 0 1 950.0006 322.6667)" class="st10 st7 st8">Time</text>
	</g>
	<g id="XMLID_10_" class="st9">
		<path id="XMLID_x5F_16_x5F_" class="st11" d="M187,266.3l678-16.8"/>
		<text id="XMLID_118_">		<textPath  xlink:href="#XMLID_x5F_16_x5F_" startOffset="14.7437%">
<tspan  class="st10 st7" style="font-size:23px;">Amateur / Open Source</tspan>		</textPath>
</text>
	</g>
	<g id="XMLID_8_" class="st9">
		<path id="XMLID_x5F_17_x5F_" class="st11" d="M184.2,205.8l678-69.3"/>
		<text id="XMLID_261_">		<textPath  xlink:href="#XMLID_x5F_17_x5F_" startOffset="15.21%">
<tspan  class="st10 st7 st8">Institutional Investors</tspan>		</textPath>
</text>
	</g>
	<g id="XMLID_9_" class="st9">
		<path id="XMLID_x5F_18_x5F_" class="st11" d="M32,284c328.3,0,649.6-7.6,778.2-49.7C961,185,1021,102,1050,15.7"/>
		<text id="XMLID_262_">		<textPath  xlink:href="#XMLID_x5F_18_x5F_" startOffset="43.801%">
<tspan  class="st10 st7" style="font-size:23px;">Advanced Algos                 Superalgos</tspan>		</textPath>
</text>
	</g>
</g>
<g id="Layer_4_copy_2">
	<g id="XMLID_231_">
		<path id="XMLID_232_" class="st10" d="M27,175.6H10.5v-2.1H27V175.6z"/>
		<path id="XMLID_234_" class="st10" d="M20.1,160.8c-1.1,0-1.9,0.1-2.4,0.2c-0.5,0.1-0.8,0.4-1,0.8c-0.2,0.4-0.2,1.1-0.2,2
			c0,1,0.2,1.7,0.5,2.2c0.3,0.5,0.8,0.8,1.3,0.9c0.6,0.1,1.4,0.2,2.4,0.2H27v1.9H14.8v-1.7l1.7-0.1v-0.1c-0.6-0.3-1.1-0.7-1.4-1.3
			c-0.3-0.6-0.5-1.5-0.5-2.7s0.2-2.1,0.5-2.7c0.3-0.6,0.8-1,1.5-1.2c0.7-0.2,1.6-0.3,2.8-0.3H27v1.9H20.1z"/>
		<path id="XMLID_236_" class="st10" d="M27,153.7H16.5v2.5h-1.8v-2.5h-3.6v-1.9h3.6v-2.9h1.8v2.9H27V153.7z"/>
		<path id="XMLID_238_" class="st10" d="M21.6,136.4v8.4c1.2,0,2-0.1,2.5-0.2c0.5-0.2,0.8-0.5,1-1c0.2-0.5,0.3-1.4,0.3-2.7
			c0-1.2-0.1-2.5-0.3-3.9h1.7c0.1,0.5,0.2,1.2,0.2,2c0.1,0.8,0.1,1.6,0.1,2.3c0,1.6-0.2,2.9-0.6,3.6c-0.4,0.8-1,1.3-1.8,1.5
			s-2.1,0.4-3.9,0.4c-1.7,0-3-0.1-3.8-0.3c-0.8-0.2-1.5-0.7-1.9-1.5c-0.4-0.8-0.6-2-0.6-3.6c0-1.5,0.2-2.6,0.6-3.3
			c0.4-0.7,1-1.1,1.8-1.3c0.8-0.2,2.1-0.3,3.9-0.3H21.6z M16.6,143.6c0.2,0.5,0.5,0.8,1,0.9c0.5,0.2,1.3,0.2,2.4,0.3v-6.5h-0.2
			c-1.1,0-1.8,0.1-2.3,0.3c-0.5,0.2-0.8,0.5-1,0.9c-0.2,0.4-0.2,1.1-0.2,1.9C16.3,142.4,16.4,143.1,16.6,143.6z"/>
		<path id="XMLID_241_" class="st10" d="M27,132.7H9.2v-1.9H27V132.7z"/>
		<path id="XMLID_243_" class="st10" d="M27,126.6H9.2v-1.9H27V126.6z"/>
		<path id="XMLID_245_" class="st10" d="M11.4,120.6H9.2v-2.1h2.2V120.6z M27,120.5H14.8v-1.9H27V120.5z"/>
		<path id="XMLID_248_" class="st10" d="M31.7,114.3H30c0.1-1.5,0.1-2.8,0.1-3.9c0-1.2-0.1-2.1-0.3-2.7c-0.2-0.6-0.6-0.9-1.2-1.1
			c-0.6-0.2-1.5-0.3-2.7-0.3h-0.5v0.1c0.6,0.3,1.1,0.8,1.3,1.4c0.3,0.6,0.4,1.5,0.4,2.5c0,1.2-0.2,2.2-0.5,2.8
			c-0.4,0.6-1,1.1-1.9,1.3s-2.2,0.4-3.8,0.4c-1.7,0-3-0.1-3.9-0.4c-0.9-0.3-1.5-0.7-1.9-1.4c-0.4-0.6-0.6-1.6-0.6-2.8
			c0-1,0.1-1.8,0.4-2.5s0.8-1.2,1.5-1.5v-0.1l-1.7-0.1v-1.8h10.7c1.7,0,3,0.1,3.9,0.4c0.9,0.2,1.5,0.8,2,1.5c0.4,0.8,0.6,2,0.6,3.6
			C31.9,111.7,31.9,113.1,31.7,114.3z M24.9,107.8c-0.2-0.5-0.5-0.8-0.9-1c-0.4-0.2-0.8-0.3-1.2-0.3s-1.1-0.1-1.9-0.1
			c-0.8,0-1.5,0-1.9,0.1c-0.5,0-0.8,0.1-1.2,0.3c-0.5,0.2-0.8,0.6-1,1c-0.2,0.5-0.3,1.1-0.3,1.9c0,1,0.1,1.8,0.3,2.2
			s0.6,0.7,1.2,0.9c0.6,0.2,1.6,0.2,2.9,0.2c1.4,0,2.3-0.1,2.9-0.2c0.6-0.2,1-0.5,1.2-0.9s0.3-1.2,0.3-2.2
			C25.2,108.9,25.1,108.3,24.9,107.8z"/>
		<path id="XMLID_251_" class="st10" d="M21.6,90.5v8.4c1.2,0,2-0.1,2.5-0.2c0.5-0.2,0.8-0.5,1-1c0.2-0.5,0.3-1.4,0.3-2.7
			c0-1.2-0.1-2.5-0.3-3.9h1.7c0.1,0.5,0.2,1.2,0.2,2c0.1,0.8,0.1,1.6,0.1,2.3c0,1.6-0.2,2.9-0.6,3.6c-0.4,0.8-1,1.3-1.8,1.5
			c-0.8,0.2-2.1,0.4-3.9,0.4c-1.7,0-3-0.1-3.8-0.3c-0.8-0.2-1.5-0.7-1.9-1.5c-0.4-0.8-0.6-2-0.6-3.6c0-1.5,0.2-2.6,0.6-3.3
			c0.4-0.7,1-1.1,1.8-1.3c0.8-0.2,2.1-0.3,3.9-0.3H21.6z M16.6,97.7c0.2,0.5,0.5,0.8,1,0.9c0.5,0.2,1.3,0.2,2.4,0.3v-6.5h-0.2
			c-1.1,0-1.8,0.1-2.3,0.3c-0.5,0.2-0.8,0.5-1,0.9c-0.2,0.4-0.2,1.1-0.2,1.9C16.3,96.5,16.4,97.2,16.6,97.7z"/>
		<path id="XMLID_254_" class="st10" d="M20.1,78.5c-1.1,0-1.9,0.1-2.4,0.2c-0.5,0.1-0.8,0.4-1,0.8c-0.2,0.4-0.2,1.1-0.2,2
			c0,1,0.2,1.7,0.5,2.2c0.3,0.5,0.8,0.8,1.3,0.9s1.4,0.2,2.4,0.2H27v1.9H14.8v-1.7l1.7-0.1v-0.1c-0.6-0.3-1.1-0.7-1.4-1.3
			c-0.3-0.6-0.5-1.5-0.5-2.7s0.2-2.1,0.5-2.7c0.3-0.6,0.8-1,1.5-1.2c0.7-0.2,1.6-0.3,2.8-0.3H27v1.9H20.1z"/>
		<path id="XMLID_256_" class="st10" d="M27.1,66.2c0.1,0.6,0.1,1.2,0.1,1.8c0,1.5-0.2,2.6-0.6,3.3s-1.1,1.2-1.9,1.4
			c-0.8,0.2-2.1,0.3-3.7,0.3c-1.6,0-2.9-0.1-3.7-0.4c-0.9-0.2-1.5-0.7-1.9-1.4c-0.4-0.7-0.6-1.7-0.6-3.1c0-0.5,0-1.1,0.1-1.7
			s0.1-1.1,0.2-1.6h1.7c-0.2,1-0.3,1.9-0.3,2.8c0,1,0.1,1.8,0.4,2.2c0.2,0.5,0.7,0.8,1.3,0.9c0.6,0.2,1.6,0.2,2.9,0.2
			c1.3,0,2.3-0.1,2.9-0.3c0.6-0.2,1-0.5,1.3-1s0.3-1.2,0.3-2.3c0-0.8-0.1-1.7-0.2-2.9h1.7C27,65.1,27,65.6,27.1,66.2z"/>
		<path id="XMLID_258_" class="st10" d="M21.6,51.6V60c1.2,0,2-0.1,2.5-0.2c0.5-0.2,0.8-0.5,1-1c0.2-0.5,0.3-1.4,0.3-2.7
			c0-1.2-0.1-2.5-0.3-3.9h1.7c0.1,0.5,0.2,1.2,0.2,2c0.1,0.8,0.1,1.6,0.1,2.3c0,1.6-0.2,2.9-0.6,3.6c-0.4,0.8-1,1.3-1.8,1.5
			c-0.8,0.2-2.1,0.4-3.9,0.4c-1.7,0-3-0.1-3.8-0.3c-0.8-0.2-1.5-0.7-1.9-1.5c-0.4-0.8-0.6-2-0.6-3.6c0-1.5,0.2-2.6,0.6-3.3
			c0.4-0.7,1-1.1,1.8-1.3c0.8-0.2,2.1-0.3,3.9-0.3H21.6z M16.6,58.8c0.2,0.5,0.5,0.8,1,0.9c0.5,0.2,1.3,0.2,2.4,0.3v-6.5h-0.2
			c-1.1,0-1.8,0.1-2.3,0.3c-0.5,0.2-0.8,0.5-1,0.9c-0.2,0.4-0.2,1.1-0.2,1.9C16.3,57.6,16.4,58.4,16.6,58.8z"/>
	</g>
	<g id="XMLID_220_">
		<g id="XMLID_322_">
			<path id="XMLID_331_" class="st10" d="M956,322.7v-14.5h-5.2v-2h12.5v2H958v14.5H956z"/>
			<path id="XMLID_328_" class="st10" d="M966,307.1v-2.2h2.1v2.2H966z M966.1,322.7v-12.2h1.9v12.2H966.1z"/>
			<path id="XMLID_326_" class="st10" d="M987.2,315.8c0-1.2-0.1-2-0.2-2.4c-0.1-0.5-0.4-0.8-0.7-1s-0.9-0.2-1.8-0.2
				c-0.9,0-1.6,0.2-2,0.5s-0.7,0.7-0.8,1.3c-0.1,0.6-0.2,1.4-0.2,2.5v6.3h-1.9v-6.9c0-1.2-0.1-2-0.2-2.4c-0.1-0.5-0.4-0.8-0.7-1
				c-0.4-0.2-0.9-0.2-1.8-0.2c-0.9,0-1.6,0.2-2,0.5c-0.4,0.3-0.7,0.8-0.8,1.3c-0.1,0.6-0.2,1.4-0.2,2.4v6.3h-1.9v-12.2h1.7l0.1,1.7
				h0.1c0.2-0.6,0.7-1.1,1.2-1.4c0.6-0.3,1.4-0.5,2.5-0.5c1.1,0,1.9,0.2,2.4,0.5c0.5,0.3,0.9,0.8,1.1,1.5h0.2
				c0.5-1.3,1.8-1.9,3.8-1.9c1.1,0,1.9,0.2,2.4,0.5c0.5,0.3,0.9,0.8,1.1,1.5c0.2,0.7,0.3,1.6,0.3,2.8v7.7h-1.9V315.8z"/>
			<path id="XMLID_323_" class="st10" d="M1003.1,317.2h-8.4c0,1.2,0.1,2,0.2,2.5c0.2,0.5,0.5,0.8,1,1s1.4,0.3,2.7,0.3
				c1.2,0,2.5-0.1,3.9-0.3v1.7c-0.5,0.1-1.2,0.2-2,0.2c-0.8,0.1-1.6,0.1-2.3,0.1c-1.6,0-2.9-0.2-3.6-0.6c-0.8-0.4-1.3-1-1.5-1.8
				c-0.2-0.8-0.4-2.1-0.4-3.9c0-1.7,0.1-3,0.3-3.8c0.2-0.8,0.7-1.5,1.5-1.9c0.8-0.4,2-0.6,3.6-0.6c1.5,0,2.6,0.2,3.3,0.6
				c0.7,0.4,1.1,1,1.3,1.8c0.2,0.8,0.3,2.1,0.3,3.9V317.2z M995.9,312.3c-0.5,0.2-0.8,0.5-0.9,1s-0.2,1.3-0.3,2.4h6.5v-0.2
				c0-1.1-0.1-1.8-0.3-2.3c-0.2-0.5-0.5-0.8-0.9-1s-1.1-0.2-1.9-0.2C997.1,312,996.4,312.1,995.9,312.3z"/>
		</g>
	</g>
	<g id="XMLID_175_">
		<g id="XMLID_561_">
			<path id="XMLID_655_" class="st10" d="M239.9,265l-1.7-4.2l-7.1,0.2l-1.5,4.2l-2,0l5.6-16l2.5-0.1l6.4,15.7L239.9,265z
				 M234.4,251.4l-0.1,0l-2.7,7.7l5.9-0.1L234.4,251.4z"/>
			<path id="XMLID_601_" class="st10" d="M258.9,257.9c0-1.1-0.1-1.9-0.2-2.3c-0.1-0.5-0.4-0.8-0.7-0.9c-0.3-0.1-0.9-0.2-1.7-0.2
				c-0.9,0-1.5,0.2-1.9,0.5c-0.4,0.3-0.6,0.7-0.7,1.3s-0.1,1.3-0.1,2.4l0.1,6l-1.9,0l-0.2-6.6c0-1.1-0.1-1.9-0.2-2.3
				c-0.1-0.5-0.4-0.8-0.7-0.9c-0.3-0.1-0.9-0.2-1.7-0.2c-0.9,0-1.5,0.2-1.9,0.5c-0.4,0.3-0.6,0.7-0.7,1.3s-0.1,1.3-0.1,2.3l0.1,6
				l-1.9,0l-0.3-11.7l1.7,0l0.1,1.7l0.1,0c0.2-0.6,0.6-1.1,1.2-1.4c0.6-0.3,1.3-0.5,2.4-0.5c1,0,1.8,0.1,2.3,0.4
				c0.5,0.3,0.9,0.7,1.1,1.4l0.2,0c0.5-1.2,1.7-1.9,3.6-1.9c1,0,1.8,0.1,2.3,0.4c0.5,0.3,0.9,0.8,1.1,1.4c0.2,0.6,0.3,1.5,0.3,2.6
				l0.2,7.3l-1.9,0L258.9,257.9z"/>
			<path id="XMLID_598_" class="st10" d="M265.1,263.8c-0.6-0.5-1-1.4-1-2.6c0-0.9,0.1-1.6,0.3-2.1c0.2-0.5,0.6-0.9,1.1-1.1
				c0.5-0.2,1.2-0.4,2.2-0.4c0.4,0,1.9,0,4.4,0l0-0.7c0-0.9-0.1-1.6-0.3-1.9c-0.2-0.4-0.5-0.6-1-0.7c-0.5-0.1-1.3-0.1-2.4-0.1
				c-0.5,0-1.1,0.1-1.8,0.1s-1.3,0.1-1.7,0.2l0-1.6c1.2-0.2,2.6-0.4,4.2-0.4c1.4,0,2.4,0.1,3.1,0.3c0.7,0.3,1.2,0.7,1.4,1.3
				c0.2,0.6,0.4,1.6,0.4,2.8l0.2,7.3l-1.7,0l-0.1-1.6l-0.1,0c-0.3,0.7-0.8,1.2-1.5,1.5c-0.7,0.3-1.5,0.4-2.5,0.4
				C266.7,264.5,265.7,264.3,265.1,263.8z M270.6,262.5c0.5-0.1,0.8-0.4,1-0.8c0.3-0.6,0.5-1.3,0.4-2.3l0-0.5l-3.9,0.1
				c-0.6,0-1.1,0.1-1.4,0.2c-0.3,0.1-0.5,0.3-0.6,0.6c-0.1,0.3-0.2,0.7-0.2,1.3c0,0.6,0.1,1,0.2,1.2c0.1,0.3,0.4,0.4,0.8,0.5
				c0.4,0.1,1,0.1,1.8,0.1C269.5,262.7,270.1,262.7,270.6,262.5z"/>
			<path id="XMLID_596_" class="st10" d="M278.9,264l-0.2-10l-2.4,0.1l0-1.7l2.4-0.1l-0.1-3.4l1.9,0l0.1,3.4l2.8-0.1l0,1.7l-2.8,0.1
				l0.2,10L278.9,264z"/>
			<path id="XMLID_593_" class="st10" d="M295.3,258.4l-8,0.2c0,1.1,0.1,1.9,0.3,2.4c0.2,0.5,0.5,0.8,1,1c0.5,0.2,1.4,0.3,2.6,0.2
				c1.2,0,2.4-0.1,3.7-0.3l0,1.6c-0.5,0.1-1.1,0.2-1.9,0.3c-0.8,0.1-1.5,0.1-2.2,0.1c-1.6,0-2.7-0.1-3.5-0.5
				c-0.8-0.3-1.3-0.9-1.5-1.7s-0.4-2-0.4-3.7c0-1.6,0-2.8,0.2-3.7c0.2-0.8,0.6-1.4,1.4-1.9c0.7-0.4,1.9-0.6,3.4-0.7
				c1.5,0,2.5,0.1,3.2,0.5c0.7,0.4,1.1,1,1.3,1.7c0.2,0.8,0.3,2,0.4,3.7L295.3,258.4z M288.3,253.8c-0.4,0.2-0.7,0.5-0.8,1
				c-0.1,0.5-0.2,1.3-0.2,2.3l6.2-0.2l0-0.2c0-1-0.1-1.8-0.3-2.2s-0.5-0.8-0.9-0.9c-0.4-0.1-1-0.2-1.8-0.2
				C289.4,253.5,288.7,253.6,288.3,253.8z"/>
			<path id="XMLID_591_" class="st10" d="M306.9,261.7l-0.1,0c-0.2,0.6-0.7,1.1-1.3,1.4c-0.6,0.3-1.5,0.5-2.6,0.5
				c-1.1,0-2-0.1-2.6-0.4c-0.6-0.3-1-0.8-1.2-1.4c-0.2-0.6-0.3-1.5-0.4-2.6l-0.2-7.3l1.9,0l0.2,6.6c0,1.1,0.1,1.9,0.3,2.3
				c0.1,0.5,0.4,0.8,0.8,0.9c0.4,0.1,1,0.2,1.9,0.2c1,0,1.7-0.2,2.1-0.5c0.4-0.3,0.7-0.8,0.8-1.3s0.2-1.3,0.1-2.3l-0.1-6l1.9,0
				l0.3,11.7l-1.7,0L306.9,261.7z"/>
			<path id="XMLID_589_" class="st10" d="M312.4,251.4l1.7,0l0.1,2.2l0.1,0c0.3-0.9,0.7-1.6,1.3-1.9c0.6-0.4,1.5-0.6,2.5-0.6l0,2
				c-1.1,0-1.9,0.2-2.4,0.5s-0.9,0.8-1.1,1.5c-0.2,0.7-0.3,1.6-0.3,2.7l0.1,5.2l-1.9,0L312.4,251.4z"/>
			<path id="XMLID_587_" class="st10" d="M324.5,264.1l6.2-18.5l1.7,0l-6.3,18.5L324.5,264.1z"/>
			<path id="XMLID_584_" class="st10" d="M342,262c-0.9-0.4-1.5-1.1-1.7-2.1c-0.3-1-0.4-2.8-0.5-5.3c-0.1-2.5,0-4.3,0.2-5.3
				c0.2-1,0.8-1.8,1.6-2.2c0.9-0.4,2.3-0.7,4.4-0.7c2.1-0.1,3.6,0.1,4.5,0.5c0.9,0.4,1.5,1.1,1.7,2.1c0.3,1,0.4,2.8,0.5,5.3
				c0.1,2.5,0,4.3-0.2,5.3c-0.2,1-0.8,1.8-1.6,2.2c-0.9,0.4-2.3,0.7-4.4,0.7C344.3,262.6,342.9,262.4,342,262z M349.6,260.3
				c0.5-0.2,0.9-0.7,1-1.5c0.1-0.8,0.2-2.3,0.1-4.5c-0.1-2.2-0.2-3.7-0.4-4.5c-0.2-0.8-0.6-1.3-1.1-1.5s-1.6-0.3-3.2-0.2
				c-1.6,0-2.6,0.2-3.2,0.4c-0.6,0.2-0.9,0.7-1.1,1.5c-0.1,0.8-0.2,2.3-0.1,4.5c0.1,2.2,0.2,3.7,0.4,4.5c0.2,0.8,0.6,1.3,1.1,1.5
				c0.6,0.2,1.6,0.3,3.2,0.2C348,260.6,349,260.5,349.6,260.3z"/>
			<path id="XMLID_581_" class="st10" d="M356.4,250.4l1.7,0l0.1,1.7l0.1,0c0.3-0.7,0.8-1.2,1.4-1.5c0.7-0.3,1.5-0.4,2.4-0.5
				c1.2,0,2.1,0.1,2.7,0.5c0.6,0.3,1.1,0.9,1.3,1.8s0.4,2.1,0.5,3.7c0,1.6-0.1,2.9-0.3,3.7c-0.2,0.9-0.6,1.5-1.2,1.8
				c-0.6,0.4-1.5,0.6-2.6,0.6c-1,0-1.8-0.1-2.4-0.3c-0.6-0.2-1.1-0.6-1.4-1.3l-0.1,0l0.2,6.1l-1.9,0L356.4,250.4z M363.8,260
				c0.4-0.2,0.7-0.6,0.8-1.1c0.1-0.6,0.2-1.5,0.1-2.8c0-1.3-0.1-2.3-0.3-2.8s-0.5-0.9-0.9-1.1c-0.4-0.2-1.1-0.3-2.1-0.2
				c-0.8,0-1.4,0.1-1.9,0.4c-0.5,0.2-0.8,0.6-0.9,1c-0.1,0.3-0.2,0.7-0.2,1.2c0,0.4,0,1,0,1.8c0,0.8,0,1.3,0.1,1.8
				c0,0.4,0.1,0.8,0.3,1.1c0.2,0.5,0.5,0.8,1,1s1.1,0.3,1.9,0.3C362.7,260.3,363.4,260.2,363.8,260z"/>
			<path id="XMLID_578_" class="st10" d="M379.6,256.3l-8,0.2c0,1.1,0.1,1.9,0.3,2.4c0.2,0.5,0.5,0.8,1,1c0.5,0.2,1.4,0.3,2.6,0.2
				c1.2,0,2.4-0.1,3.7-0.3l0,1.6c-0.5,0.1-1.1,0.2-1.9,0.3c-0.8,0.1-1.5,0.1-2.2,0.1c-1.6,0-2.7-0.1-3.5-0.5
				c-0.8-0.3-1.3-0.9-1.5-1.7s-0.4-2-0.4-3.7c0-1.6,0-2.8,0.2-3.7c0.2-0.8,0.6-1.4,1.4-1.9c0.7-0.4,1.9-0.6,3.4-0.7
				c1.5,0,2.5,0.1,3.2,0.5c0.7,0.4,1.1,1,1.3,1.7c0.2,0.8,0.3,2,0.4,3.7L379.6,256.3z M372.5,251.7c-0.4,0.2-0.7,0.5-0.8,1
				c-0.1,0.5-0.2,1.3-0.2,2.3l6.2-0.2l0-0.2c0-1-0.1-1.8-0.3-2.2c-0.2-0.5-0.5-0.8-0.9-0.9c-0.4-0.1-1-0.2-1.8-0.2
				C373.7,251.4,373,251.5,372.5,251.7z"/>
			<path id="XMLID_576_" class="st10" d="M391,254.6c0-1.1-0.1-1.9-0.3-2.3c-0.1-0.5-0.4-0.8-0.8-0.9c-0.4-0.1-1-0.2-1.9-0.2
				c-1,0-1.7,0.2-2.1,0.5c-0.4,0.3-0.7,0.7-0.8,1.3c-0.1,0.5-0.1,1.3-0.1,2.3l0.1,6l-1.9,0l-0.3-11.7l1.7,0l0.1,1.7l0.1,0
				c0.2-0.6,0.7-1.1,1.3-1.4c0.6-0.3,1.5-0.5,2.6-0.5c1.1,0,2,0.1,2.6,0.4c0.6,0.3,1,0.8,1.2,1.4c0.2,0.6,0.3,1.5,0.4,2.6l0.2,7.3
				l-1.9,0L391,254.6z"/>
			<path id="XMLID_574_" class="st10" d="M405.1,261c-1,0-2-0.1-2.8-0.2l0-1.8c2,0.2,3.7,0.2,5,0.2c0.8,0,1.5-0.1,2-0.2
				c0.5-0.1,0.9-0.2,1.2-0.4c0.3-0.2,0.5-0.5,0.6-0.8c0.1-0.4,0.1-0.8,0.1-1.4c0-0.7-0.1-1.2-0.2-1.5c-0.1-0.3-0.3-0.5-0.6-0.6
				s-0.8-0.2-1.5-0.3l-3.9-0.3c-1-0.1-1.7-0.3-2.2-0.6c-0.5-0.3-0.8-0.8-1-1.3s-0.3-1.3-0.3-2.2c0-1.3,0.2-2.2,0.6-2.9
				c0.4-0.7,1-1.1,1.8-1.3c0.8-0.2,1.8-0.4,3.2-0.4c0.9,0,1.8,0,2.7,0c0.9,0.1,1.7,0.1,2.2,0.2l0,1.7c-0.6-0.1-1.3-0.1-2.2-0.2
				c-0.9,0-1.7,0-2.4,0c-0.9,0-1.5,0.1-2.1,0.2s-0.9,0.2-1.2,0.4c-0.3,0.2-0.5,0.4-0.6,0.8c-0.1,0.3-0.1,0.7-0.1,1.3
				c0,0.6,0.1,1.1,0.2,1.4s0.3,0.5,0.5,0.6c0.3,0.1,0.7,0.2,1.3,0.3l3.9,0.3c0.9,0.1,1.6,0.2,2.2,0.4c0.5,0.2,0.9,0.6,1.1,1.2
				c0.2,0.5,0.4,1.4,0.4,2.6c0,1.4-0.2,2.4-0.6,3.1c-0.4,0.7-1,1.1-1.7,1.4c-0.7,0.2-1.7,0.3-3,0.4C407.1,261,406.2,261,405.1,261z"
				/>
			<path id="XMLID_571_" class="st10" d="M417.9,260.3c-0.7-0.3-1.2-0.9-1.4-1.6c-0.2-0.8-0.3-2.1-0.4-3.9c0-1.8,0-3.1,0.2-3.9
				c0.2-0.8,0.6-1.4,1.3-1.7c0.7-0.3,1.9-0.5,3.5-0.6c1.6,0,2.8,0.1,3.5,0.4c0.7,0.3,1.2,0.9,1.4,1.6c0.2,0.8,0.3,2.1,0.4,3.9
				c0,1.8,0,3.1-0.2,3.9c-0.2,0.8-0.6,1.4-1.3,1.7c-0.7,0.3-1.9,0.5-3.5,0.6C419.8,260.7,418.7,260.6,417.9,260.3z M423.7,258.6
				c0.4-0.2,0.7-0.6,0.8-1.1c0.1-0.5,0.1-1.5,0.1-3c0-1.4-0.1-2.4-0.2-3c-0.1-0.5-0.4-0.9-0.8-1.1c-0.4-0.2-1.2-0.3-2.3-0.2
				c-1.1,0-1.9,0.1-2.3,0.4s-0.7,0.6-0.8,1.1s-0.1,1.5-0.1,3c0,1.4,0.1,2.4,0.2,3c0.1,0.5,0.4,0.9,0.8,1.1s1.2,0.3,2.3,0.2
				C422.5,258.9,423.3,258.8,423.7,258.6z"/>
			<path id="XMLID_569_" class="st10" d="M438.1,258.4l-0.1,0c-0.2,0.6-0.7,1.1-1.3,1.4c-0.6,0.3-1.5,0.5-2.6,0.5
				c-1.1,0-2-0.1-2.6-0.4c-0.6-0.3-1-0.8-1.2-1.4c-0.2-0.6-0.3-1.5-0.4-2.6l-0.2-7.3l1.9,0l0.2,6.6c0,1.1,0.1,1.9,0.3,2.3
				c0.1,0.5,0.4,0.8,0.8,0.9c0.4,0.1,1,0.2,1.9,0.2c1,0,1.7-0.2,2.1-0.5c0.4-0.3,0.7-0.8,0.8-1.3s0.2-1.3,0.1-2.3l-0.1-6l1.9,0
				l0.3,11.7l-1.7,0L438.1,258.4z"/>
			<path id="XMLID_567_" class="st10" d="M443.6,248.2l1.7,0l0.1,2.2l0.1,0c0.3-0.9,0.7-1.6,1.3-1.9c0.6-0.4,1.5-0.6,2.5-0.6l0,2
				c-1.1,0-1.9,0.2-2.4,0.5s-0.9,0.8-1.1,1.5c-0.2,0.7-0.3,1.6-0.3,2.7l0.1,5.2l-1.9,0L443.6,248.2z"/>
			<path id="XMLID_565_" class="st10" d="M458.1,259.7c-0.6,0.1-1.2,0.1-1.7,0.1c-1.4,0-2.5-0.1-3.2-0.5c-0.7-0.4-1.1-1-1.3-1.8
				c-0.2-0.8-0.3-2-0.4-3.6c0-1.5,0-2.7,0.3-3.6c0.2-0.8,0.6-1.5,1.3-1.9s1.7-0.6,3-0.7c0.5,0,1.1,0,1.7,0.1c0.6,0,1.1,0.1,1.5,0.2
				l0,1.7c-0.9-0.1-1.8-0.2-2.7-0.2c-1,0-1.7,0.2-2.1,0.4c-0.4,0.2-0.7,0.7-0.9,1.2c-0.1,0.6-0.2,1.5-0.2,2.8c0,1.3,0.1,2.2,0.3,2.8
				c0.2,0.6,0.5,1,0.9,1.2c0.5,0.2,1.2,0.3,2.2,0.3c0.8,0,1.7-0.1,2.7-0.3l0,1.6C459.2,259.5,458.7,259.6,458.1,259.7z"/>
			<path id="XMLID_562_" class="st10" d="M472,254l-8,0.2c0,1.1,0.1,1.9,0.3,2.4c0.2,0.5,0.5,0.8,1,1c0.5,0.2,1.4,0.3,2.6,0.2
				c1.2,0,2.4-0.1,3.7-0.3l0,1.6c-0.5,0.1-1.1,0.2-1.9,0.3c-0.8,0.1-1.5,0.1-2.2,0.1c-1.6,0-2.7-0.1-3.5-0.5
				c-0.8-0.3-1.3-0.9-1.5-1.7s-0.4-2-0.4-3.7c0-1.6,0-2.8,0.2-3.7c0.2-0.8,0.6-1.4,1.4-1.9c0.7-0.4,1.9-0.6,3.4-0.7
				c1.5,0,2.5,0.1,3.2,0.5c0.7,0.4,1.1,1,1.3,1.7c0.2,0.8,0.3,2,0.4,3.7L472,254z M465,249.4c-0.4,0.2-0.7,0.5-0.8,1
				c-0.1,0.5-0.2,1.3-0.2,2.3l6.2-0.2l0-0.2c0-1-0.1-1.8-0.3-2.2s-0.5-0.8-0.9-0.9c-0.4-0.1-1-0.2-1.8-0.2
				C466.1,249.2,465.4,249.3,465,249.4z"/>
		</g>
	</g>
	<g id="XMLID_124_">
		<g id="XMLID_602_">
			<path id="XMLID_652_" class="st10" d="M228.9,201.2l-1.7-16.4l2.1-0.2l1.7,16.4L228.9,201.2z"/>
			<path id="XMLID_650_" class="st10" d="M242.9,192.9c-0.1-1.1-0.3-1.9-0.5-2.4c-0.2-0.5-0.5-0.8-0.9-0.9s-1.1-0.1-2,0
				c-1,0.1-1.7,0.3-2.2,0.7c-0.4,0.4-0.7,0.8-0.7,1.4c-0.1,0.6,0,1.4,0.1,2.4l0.6,6.3l-1.9,0.2l-1.2-12.2l1.7-0.2l0.3,1.7l0.1,0
				c0.2-0.6,0.6-1.2,1.2-1.6s1.5-0.6,2.6-0.8c1.2-0.1,2.1,0,2.7,0.2s1.1,0.7,1.4,1.4c0.3,0.6,0.5,1.5,0.6,2.7l0.8,7.6l-1.9,0.2
				L242.9,192.9z"/>
			<path id="XMLID_648_" class="st10" d="M251.5,199c-0.8,0-1.6,0-2.2,0l-0.2-1.7c1.6,0,3,0,4.3-0.2c0.8-0.1,1.4-0.2,1.8-0.3
				s0.6-0.4,0.7-0.6s0.1-0.6,0.1-1.1c-0.1-0.5-0.1-0.8-0.2-1s-0.3-0.3-0.5-0.4c-0.2-0.1-0.5-0.1-1-0.1l-3.2,0
				c-0.7,0-1.3-0.1-1.7-0.3c-0.4-0.2-0.7-0.5-0.9-1s-0.3-1-0.4-1.8c-0.1-1,0-1.8,0.3-2.4s0.8-0.9,1.4-1.2c0.6-0.2,1.5-0.4,2.6-0.5
				c0.6-0.1,1.3-0.1,2-0.1s1.3,0,1.8,0.1l0.2,1.7c-1.3-0.1-2.6,0-3.9,0.1c-0.7,0.1-1.3,0.2-1.7,0.3c-0.4,0.1-0.7,0.3-0.8,0.6
				c-0.2,0.3-0.2,0.7-0.2,1.2c0,0.5,0.1,0.8,0.2,1c0.1,0.2,0.3,0.3,0.5,0.4s0.5,0.1,1,0.1l3.3,0c0.7,0,1.3,0.1,1.6,0.2
				c0.4,0.1,0.7,0.4,0.9,0.9c0.2,0.4,0.4,1.1,0.5,2c0.1,1,0,1.8-0.3,2.3s-0.7,1-1.3,1.2c-0.6,0.2-1.5,0.4-2.5,0.5
				C253.1,199,252.3,199,251.5,199z"/>
			<path id="XMLID_646_" class="st10" d="M262.5,197.8l-1.1-10.4l-2.5,0.3l-0.2-1.8l2.5-0.3l-0.4-3.5l1.9-0.2l0.4,3.5l2.9-0.3
				l0.2,1.8l-2.9,0.3l1.1,10.4L262.5,197.8z"/>
			<path id="XMLID_643_" class="st10" d="M268.4,181.5l-0.2-2.2l2.1-0.2l0.2,2.2L268.4,181.5z M270.1,197l-1.2-12.2l1.9-0.2
				l1.2,12.2L270.1,197z"/>
			<path id="XMLID_641_" class="st10" d="M277.1,196.3l-1.1-10.4l-2.5,0.3l-0.2-1.8l2.5-0.3l-0.4-3.5l1.9-0.2l0.4,3.5l2.9-0.3
				l0.2,1.8l-2.9,0.3l1.1,10.4L277.1,196.3z"/>
			<path id="XMLID_639_" class="st10" d="M292.8,193l-0.1,0c-0.2,0.6-0.6,1.2-1.2,1.6c-0.6,0.4-1.5,0.6-2.6,0.8
				c-1.2,0.1-2.1,0-2.7-0.2c-0.6-0.3-1.1-0.7-1.4-1.4c-0.3-0.6-0.5-1.5-0.6-2.7l-0.8-7.6l1.9-0.2l0.7,6.9c0.1,1.1,0.3,2,0.5,2.4
				s0.5,0.8,0.9,0.9c0.4,0.1,1.1,0.1,2,0c1-0.1,1.7-0.3,2.2-0.7s0.7-0.8,0.8-1.4c0.1-0.6,0.1-1.4-0.1-2.4l-0.6-6.3l1.9-0.2l1.2,12.2
				l-1.7,0.2L292.8,193z"/>
			<path id="XMLID_637_" class="st10" d="M300,194l-1.1-10.4l-2.5,0.3l-0.2-1.8l2.5-0.3l-0.4-3.5l1.9-0.2l0.4,3.5l2.9-0.3l0.2,1.8
				l-2.9,0.3l1.1,10.4L300,194z"/>
			<path id="XMLID_634_" class="st10" d="M305.9,177.7l-0.2-2.2l2.1-0.2l0.2,2.2L305.9,177.7z M307.6,193.2l-1.2-12.2l1.9-0.2
				l1.2,12.2L307.6,193.2z"/>
			<path id="XMLID_631_" class="st10" d="M314.8,192.1c-0.8-0.3-1.3-0.8-1.6-1.6c-0.3-0.8-0.5-2.1-0.7-4c-0.2-1.9-0.2-3.2-0.1-4.1
				c0.1-0.8,0.5-1.5,1.2-1.9s1.9-0.7,3.6-0.9c1.7-0.2,2.9-0.1,3.7,0.1s1.3,0.8,1.6,1.6c0.3,0.8,0.5,2.1,0.7,4
				c0.2,1.9,0.2,3.2,0.1,4.1s-0.5,1.5-1.2,1.9c-0.7,0.4-1.9,0.7-3.6,0.9C316.8,192.5,315.5,192.4,314.8,192.1z M320.7,190
				c0.4-0.3,0.7-0.7,0.7-1.2s0-1.6-0.2-3.1s-0.3-2.5-0.5-3.1c-0.2-0.5-0.5-0.9-0.9-1s-1.3-0.2-2.4-0.1c-1.2,0.1-2,0.3-2.4,0.6
				c-0.4,0.3-0.7,0.7-0.7,1.2s0,1.6,0.2,3.1s0.3,2.5,0.5,3.1c0.2,0.5,0.5,0.9,1,1c0.5,0.2,1.3,0.2,2.5,0.1
				C319.5,190.4,320.3,190.2,320.7,190z"/>
			<path id="XMLID_629_" class="st10" d="M335,183.5c-0.1-1.1-0.3-1.9-0.5-2.4c-0.2-0.5-0.5-0.8-0.9-0.9s-1.1-0.1-2,0
				c-1,0.1-1.7,0.3-2.2,0.7c-0.4,0.4-0.7,0.8-0.7,1.4c-0.1,0.6,0,1.4,0.1,2.4l0.6,6.3l-1.9,0.2l-1.2-12.2l1.7-0.2l0.3,1.7l0.1,0
				c0.2-0.6,0.6-1.2,1.2-1.6s1.5-0.6,2.6-0.8c1.2-0.1,2.1,0,2.7,0.2s1.1,0.7,1.4,1.4c0.3,0.6,0.5,1.5,0.6,2.7l0.8,7.6l-1.9,0.2
				L335,183.5z"/>
			<path id="XMLID_626_" class="st10" d="M341.9,189.1c-0.7-0.5-1.1-1.3-1.2-2.7c-0.1-0.9-0.1-1.7,0.1-2.2c0.2-0.5,0.5-1,1-1.3
				c0.5-0.3,1.2-0.5,2.2-0.6c0.5,0,2-0.2,4.6-0.3l-0.1-0.7c-0.1-1-0.3-1.6-0.5-2c-0.2-0.4-0.6-0.6-1.1-0.7c-0.5-0.1-1.3,0-2.5,0.1
				c-0.5,0.1-1.1,0.1-1.9,0.3c-0.8,0.1-1.4,0.3-1.8,0.4l-0.2-1.7c1.2-0.4,2.7-0.6,4.4-0.8c1.4-0.1,2.5-0.1,3.3,0.1
				c0.7,0.2,1.3,0.7,1.6,1.3c0.3,0.6,0.5,1.6,0.7,2.8l0.8,7.6l-1.7,0.2l-0.3-1.7l-0.1,0c-0.3,0.8-0.7,1.4-1.5,1.7s-1.6,0.5-2.6,0.6
				C343.6,189.7,342.6,189.6,341.9,189.1z M347.5,187.3c0.5-0.2,0.8-0.5,1-0.9c0.3-0.6,0.4-1.4,0.3-2.4l-0.1-0.5l-4.1,0.4
				c-0.7,0.1-1.2,0.2-1.5,0.3c-0.3,0.1-0.5,0.3-0.6,0.6c-0.1,0.3-0.1,0.7-0.1,1.3c0.1,0.6,0.2,1,0.3,1.2s0.5,0.4,0.9,0.5
				c0.4,0.1,1,0.1,1.8,0C346.4,187.7,347,187.5,347.5,187.3z"/>
			<path id="XMLID_624_" class="st10" d="M355.3,188.3l-1.8-17.7l1.9-0.2l1.8,17.7L355.3,188.3z"/>
			<path id="XMLID_622_" class="st10" d="M367.3,187.1l-1.7-16.4l2.1-0.2l1.7,16.4L367.3,187.1z"/>
			<path id="XMLID_620_" class="st10" d="M381.4,178.7c-0.1-1.1-0.3-1.9-0.5-2.4c-0.2-0.5-0.5-0.8-0.9-0.9s-1.1-0.1-2,0
				c-1,0.1-1.7,0.3-2.2,0.7c-0.4,0.4-0.7,0.8-0.7,1.4c-0.1,0.6,0,1.4,0.1,2.4l0.6,6.3l-1.9,0.2l-1.2-12.2l1.7-0.2l0.3,1.7l0.1,0
				c0.2-0.6,0.6-1.2,1.2-1.6s1.5-0.6,2.6-0.8c1.2-0.1,2.1,0,2.7,0.2s1.1,0.7,1.4,1.4c0.3,0.6,0.5,1.5,0.6,2.7l0.8,7.6l-1.9,0.2
				L381.4,178.7z"/>
			<path id="XMLID_618_" class="st10" d="M391.2,184.7l-5.7-11.7l2-0.2l4.6,9.7l0.2,0l2.6-10.4l2-0.2l-3.2,12.6L391.2,184.7z"/>
			<path id="XMLID_615_" class="st10" d="M409.8,177.3l-8.3,0.9c0.1,1.2,0.3,2,0.5,2.5c0.2,0.5,0.6,0.8,1.1,0.9
				c0.6,0.1,1.5,0.2,2.7,0c1.2-0.1,2.5-0.3,3.9-0.7l0.2,1.7c-0.5,0.1-1.2,0.3-2,0.4s-1.6,0.3-2.3,0.3c-1.6,0.2-2.9,0.1-3.7-0.2
				c-0.8-0.3-1.4-0.9-1.7-1.7c-0.3-0.8-0.6-2.1-0.8-3.8c-0.2-1.7-0.2-3-0.1-3.8c0.1-0.9,0.5-1.5,1.3-2c0.7-0.5,1.9-0.8,3.5-1
				c1.5-0.2,2.7-0.1,3.4,0.3c0.7,0.3,1.2,0.9,1.5,1.7c0.3,0.8,0.5,2.1,0.7,3.8L409.8,177.3z M402.1,173.1c-0.4,0.2-0.7,0.6-0.8,1.1
				c-0.1,0.5-0.1,1.3,0,2.4l6.5-0.7l0-0.2c-0.1-1.1-0.3-1.8-0.5-2.3s-0.6-0.8-1-0.9c-0.4-0.1-1.1-0.1-1.9,0
				C403.2,172.7,402.5,172.9,402.1,173.1z"/>
			<path id="XMLID_613_" class="st10" d="M415.8,182.3c-0.8,0-1.6,0-2.2,0l-0.2-1.7c1.6,0,3,0,4.3-0.2c0.8-0.1,1.4-0.2,1.8-0.3
				s0.6-0.4,0.7-0.6s0.1-0.6,0.1-1.1c-0.1-0.5-0.1-0.8-0.2-1c-0.1-0.2-0.3-0.3-0.5-0.4c-0.2-0.1-0.5-0.1-1-0.1l-3.2,0
				c-0.7,0-1.3-0.1-1.7-0.3c-0.4-0.2-0.7-0.5-0.9-1s-0.3-1-0.4-1.8c-0.1-1,0-1.8,0.3-2.4s0.8-0.9,1.4-1.2s1.5-0.4,2.6-0.5
				c0.6-0.1,1.3-0.1,2-0.1s1.3,0,1.8,0.1l0.2,1.7c-1.3-0.1-2.6,0-3.9,0.1c-0.7,0.1-1.3,0.2-1.7,0.3c-0.4,0.1-0.7,0.3-0.8,0.6
				c-0.2,0.3-0.2,0.7-0.2,1.2c0,0.5,0.1,0.8,0.2,1c0.1,0.2,0.3,0.3,0.5,0.4c0.2,0.1,0.5,0.1,1,0.1l3.3,0c0.7,0,1.3,0.1,1.6,0.2
				c0.4,0.1,0.7,0.4,0.9,0.9c0.2,0.4,0.4,1.1,0.5,2c0.1,1,0,1.8-0.3,2.3s-0.7,1-1.3,1.2c-0.6,0.2-1.5,0.4-2.5,0.5
				C417.3,182.2,416.6,182.2,415.8,182.3z"/>
			<path id="XMLID_611_" class="st10" d="M426.7,181l-1.1-10.4l-2.5,0.3l-0.2-1.8l2.5-0.3l-0.4-3.5l1.9-0.2l0.4,3.5l2.9-0.3l0.2,1.8
				l-2.9,0.3l1.1,10.4L426.7,181z"/>
			<path id="XMLID_608_" class="st10" d="M435.3,179.8c-0.8-0.3-1.3-0.8-1.6-1.6c-0.3-0.8-0.5-2.1-0.7-4c-0.2-1.9-0.2-3.2-0.1-4.1
				c0.1-0.8,0.5-1.5,1.2-1.9s1.9-0.7,3.6-0.9c1.7-0.2,2.9-0.1,3.7,0.1c0.8,0.3,1.3,0.8,1.6,1.6c0.3,0.8,0.5,2.1,0.7,4
				c0.2,1.9,0.2,3.2,0.1,4.1s-0.5,1.5-1.2,1.9c-0.7,0.4-1.9,0.7-3.6,0.9C437.3,180.1,436.1,180.1,435.3,179.8z M441.2,177.6
				c0.4-0.3,0.7-0.7,0.7-1.2s0-1.6-0.2-3.1s-0.3-2.5-0.5-3.1c-0.2-0.5-0.5-0.9-0.9-1s-1.3-0.2-2.4-0.1c-1.2,0.1-2,0.3-2.4,0.6
				c-0.4,0.3-0.7,0.7-0.7,1.2s0,1.6,0.2,3.1s0.3,2.5,0.5,3.1c0.2,0.5,0.5,0.9,1,1c0.5,0.2,1.3,0.2,2.5,0.1
				C440,178.1,440.8,177.9,441.2,177.6z"/>
			<path id="XMLID_606_" class="st10" d="M446.7,166.7l1.7-0.2l0.3,2.3l0.1,0c0.2-1,0.6-1.7,1.2-2.1c0.6-0.4,1.5-0.7,2.6-0.8
				l0.2,2.1c-1.1,0.1-1.9,0.4-2.5,0.8s-0.9,0.9-1.1,1.7c-0.2,0.7-0.2,1.7,0,2.8l0.6,5.4l-1.9,0.2L446.7,166.7z"/>
			<path id="XMLID_603_" class="st10" d="M458.6,177.9c-0.8,0-1.6,0-2.2,0l-0.2-1.7c1.6,0,3,0,4.3-0.2c0.8-0.1,1.4-0.2,1.8-0.3
				s0.6-0.4,0.7-0.6s0.1-0.6,0.1-1.1c-0.1-0.5-0.1-0.8-0.2-1s-0.3-0.3-0.5-0.4c-0.2-0.1-0.5-0.1-1-0.1l-3.2,0
				c-0.7,0-1.3-0.1-1.7-0.3c-0.4-0.2-0.7-0.5-0.9-1s-0.3-1-0.4-1.8c-0.1-1,0-1.8,0.3-2.4s0.8-0.9,1.4-1.2s1.5-0.4,2.6-0.5
				c0.6-0.1,1.3-0.1,2-0.1s1.3,0,1.8,0.1l0.2,1.7c-1.3-0.1-2.6,0-3.9,0.1c-0.7,0.1-1.3,0.2-1.7,0.3c-0.4,0.1-0.7,0.3-0.8,0.6
				c-0.2,0.3-0.2,0.7-0.2,1.2c0,0.5,0.1,0.8,0.2,1c0.1,0.2,0.3,0.3,0.5,0.4c0.2,0.1,0.5,0.1,1,0.1l3.3,0c0.7,0,1.3,0.1,1.6,0.2
				c0.4,0.1,0.7,0.4,0.9,0.9c0.2,0.4,0.4,1.1,0.5,2c0.1,1,0,1.8-0.3,2.3s-0.7,1-1.3,1.2c-0.6,0.2-1.5,0.4-2.5,0.5
				C460.1,177.8,459.4,177.9,458.6,177.9z"/>
		</g>
	</g>
	<g id="XMLID_43_">
		<g id="XMLID_665_">
			<path id="XMLID_722_" class="st10" d="M766.6,245.8l-2.5-3.8l-7,1.4l-0.7,4.5l-2,0.4l2.6-16.7l2.4-0.5l9.1,14.3L766.6,245.8z
				 M758.8,233.5l-0.1,0l-1.3,8l5.8-1.2L758.8,233.5z"/>
			<path id="XMLID_719_" class="st10" d="M772.2,244.2c-0.7-0.2-1.2-0.7-1.7-1.5c-0.4-0.8-0.8-1.9-1.2-3.5c-0.4-1.6-0.5-2.8-0.5-3.7
				s0.3-1.6,0.8-2.1c0.5-0.5,1.3-0.9,2.4-1.1c1-0.2,1.8-0.3,2.5-0.2c0.7,0.1,1.2,0.4,1.6,0.9l0.1,0l-1.5-6.7l1.8-0.4l3.9,16.6
				l-1.6,0.4l-0.4-1.6l-0.1,0c-0.2,0.8-0.5,1.3-1.1,1.7s-1.3,0.7-2.2,0.9C773.8,244.4,772.9,244.4,772.2,244.2z M777,241.5
				c0.4-0.3,0.6-0.7,0.7-1.2c0.1-0.4,0.1-0.8,0-1.2c-0.1-0.4-0.2-1.1-0.4-1.8c-0.1-0.6-0.3-1.2-0.4-1.6c-0.1-0.4-0.3-0.7-0.5-1
				c-0.3-0.4-0.7-0.7-1.2-0.8c-0.5-0.1-1.2-0.1-1.9,0.1c-0.9,0.2-1.6,0.5-2,0.8s-0.6,0.7-0.6,1.3s0.1,1.5,0.4,2.8
				c0.3,1.3,0.6,2.2,0.9,2.7c0.3,0.5,0.6,0.8,1.1,0.9c0.5,0.1,1.2,0,2.1-0.2C776,242.1,776.6,241.8,777,241.5z"/>
			<path id="XMLID_717_" class="st10" d="M787.1,241l-7.1-10.3l1.9-0.5l5.8,8.5l0.2,0l0.9-10.2l1.8-0.5l-1.2,12.4L787.1,241z"/>
			<path id="XMLID_714_" class="st10" d="M795.8,238.1c-0.7-0.3-1.3-1.1-1.6-2.3c-0.3-0.9-0.3-1.6-0.3-2.1c0.1-0.5,0.3-1,0.7-1.4
				c0.4-0.4,1.1-0.7,2-0.9c0.4-0.1,1.8-0.5,4.2-1.1l-0.2-0.7c-0.3-0.9-0.5-1.5-0.8-1.8c-0.3-0.3-0.7-0.5-1.1-0.4
				c-0.5,0-1.3,0.2-2.3,0.5c-0.5,0.1-1.1,0.3-1.8,0.6c-0.7,0.3-1.2,0.5-1.6,0.7l-0.5-1.6c1.1-0.5,2.4-1,4-1.5
				c1.3-0.4,2.4-0.5,3.1-0.5s1.3,0.4,1.7,0.9c0.4,0.5,0.8,1.4,1.1,2.6l2.1,7l-1.6,0.5l-0.5-1.5l-0.1,0c-0.1,0.8-0.5,1.4-1.1,1.8
				s-1.4,0.8-2.3,1C797.5,238.4,796.5,238.4,795.8,238.1z M800.8,235.5c0.4-0.3,0.7-0.6,0.8-1.1c0.2-0.6,0.1-1.4-0.2-2.3l-0.1-0.5
				l-3.8,1.1c-0.6,0.2-1.1,0.4-1.3,0.5c-0.3,0.2-0.4,0.4-0.5,0.7s0,0.7,0.2,1.3c0.2,0.5,0.3,0.9,0.5,1.1c0.2,0.2,0.5,0.3,0.9,0.3
				c0.4,0,1-0.1,1.7-0.3C799.8,236,800.3,235.7,800.8,235.5z"/>
			<path id="XMLID_712_" class="st10" d="M814.1,226.1c-0.3-1-0.7-1.7-0.9-2.1c-0.3-0.4-0.6-0.6-1-0.6s-1,0.1-1.9,0.4
				c-0.9,0.3-1.5,0.7-1.9,1.1c-0.3,0.4-0.5,0.9-0.4,1.5c0.1,0.5,0.3,1.3,0.6,2.3l1.9,5.7l-1.8,0.6l-3.7-11.1l1.6-0.5l0.6,1.5l0.1,0
				c0.1-0.6,0.3-1.2,0.8-1.7s1.2-0.9,2.3-1.3c1.1-0.4,1.9-0.5,2.6-0.4s1.2,0.5,1.6,1c0.4,0.5,0.8,1.3,1.1,2.4l2.3,7l-1.8,0.6
				L814.1,226.1z"/>
			<path id="XMLID_710_" class="st10" d="M827.3,228.6c-0.5,0.3-1.1,0.5-1.6,0.7c-1.4,0.5-2.4,0.6-3.2,0.5s-1.4-0.6-1.8-1.3
				c-0.5-0.7-0.9-1.8-1.5-3.3c-0.5-1.5-0.8-2.6-0.9-3.5c-0.1-0.9,0.2-1.6,0.7-2.2c0.5-0.6,1.4-1.1,2.6-1.6c0.5-0.2,1-0.3,1.6-0.5
				c0.6-0.1,1.1-0.2,1.5-0.3l0.6,1.6c-0.9,0.1-1.8,0.4-2.6,0.7c-0.9,0.3-1.6,0.7-1.9,1c-0.3,0.4-0.5,0.9-0.4,1.5
				c0.1,0.6,0.3,1.5,0.7,2.7c0.4,1.2,0.8,2.1,1.2,2.6c0.3,0.5,0.8,0.8,1.3,0.8c0.5,0.1,1.2-0.1,2.2-0.4c0.7-0.3,1.5-0.6,2.5-1.1
				l0.5,1.5C828.3,228.1,827.8,228.3,827.3,228.6z"/>
			<path id="XMLID_707_" class="st10" d="M838.5,218.7l-7.5,2.8c0.4,1,0.8,1.8,1.1,2.2c0.3,0.4,0.7,0.6,1.3,0.6
				c0.5,0,1.4-0.2,2.5-0.6c1.1-0.4,2.2-0.9,3.4-1.6l0.6,1.5c-0.4,0.3-1,0.6-1.7,0.9c-0.7,0.3-1.4,0.6-2.1,0.9
				c-1.5,0.6-2.6,0.8-3.5,0.7c-0.8-0.1-1.5-0.5-2-1.1c-0.5-0.7-1-1.8-1.6-3.3c-0.6-1.5-0.9-2.7-1-3.5c-0.1-0.8,0.1-1.6,0.7-2.2
				c0.5-0.6,1.5-1.2,3-1.8c1.4-0.5,2.4-0.7,3.2-0.6s1.4,0.5,1.8,1.2c0.4,0.7,1,1.8,1.6,3.4L838.5,218.7z M830.4,216.7
				c-0.3,0.3-0.5,0.7-0.5,1.2c0,0.5,0.2,1.3,0.6,2.3l5.8-2.2l-0.1-0.2c-0.4-0.9-0.7-1.6-1-2c-0.3-0.4-0.7-0.6-1.1-0.6
				c-0.4,0-1,0.1-1.8,0.4C831.3,216.1,830.7,216.4,830.4,216.7z"/>
			<path id="XMLID_704_" class="st10" d="M844.4,221.6c-0.7-0.1-1.3-0.5-1.9-1.2s-1.1-1.8-1.7-3.3c-0.6-1.5-1-2.7-1.1-3.6
				c-0.1-0.9,0.1-1.6,0.5-2.2c0.4-0.6,1.2-1,2.2-1.5c0.9-0.4,1.7-0.6,2.4-0.6c0.7,0,1.3,0.2,1.8,0.7l0.1-0.1l-2.6-6.3l1.7-0.7
				l6.4,15.8l-1.6,0.6l-0.7-1.5l-0.1,0.1c0,0.8-0.3,1.4-0.8,1.9s-1.2,0.9-2.1,1.3C846,221.5,845.1,221.7,844.4,221.6z M848.7,218.1
				c0.3-0.4,0.5-0.8,0.5-1.3c0-0.4-0.1-0.8-0.2-1.2s-0.4-1-0.7-1.8c-0.2-0.6-0.5-1.1-0.7-1.5c-0.2-0.4-0.4-0.7-0.6-0.9
				c-0.3-0.4-0.8-0.6-1.3-0.6c-0.5,0-1.2,0.1-1.9,0.4c-0.9,0.4-1.5,0.7-1.8,1c-0.3,0.3-0.4,0.8-0.4,1.4c0.1,0.6,0.4,1.5,0.9,2.7
				c0.5,1.2,0.9,2.1,1.3,2.6s0.8,0.7,1.2,0.7c0.5,0,1.2-0.2,2.1-0.5C847.8,218.8,848.4,218.5,848.7,218.1z"/>
			<path id="XMLID_701_" class="st10" d="M871,210.5l-3.2-3.2l-6.5,2.9l0.3,4.5l-1.8,0.8l-1.1-16.9l2.3-1l12,11.9L871,210.5z
				 M860.6,200.2l-0.1,0l0.5,8.1l5.4-2.4L860.6,200.2z"/>
			<path id="XMLID_699_" class="st10" d="M875.1,208.5l-7.4-15.4l1.7-0.8l7.4,15.4L875.1,208.5z"/>
			<path id="XMLID_696_" class="st10" d="M882.5,210l-0.7-1.5c1.4-0.6,2.5-1.1,3.4-1.6c1.1-0.5,1.8-1,2.1-1.4
				c0.4-0.4,0.5-0.9,0.4-1.5c-0.1-0.6-0.4-1.4-1-2.4l-0.2-0.5l-0.1,0.1c0,0.7-0.2,1.3-0.6,1.8c-0.4,0.5-1.1,1-2,1.4
				c-1.1,0.5-1.9,0.8-2.6,0.8c-0.7,0-1.4-0.4-2-1s-1.3-1.7-2-3.1c-0.7-1.4-1.2-2.6-1.3-3.5c-0.2-0.9,0-1.6,0.3-2.2
				c0.4-0.6,1.1-1.2,2.1-1.7c0.8-0.4,1.6-0.7,2.3-0.7c0.7-0.1,1.4,0.1,2,0.6l0.1-0.1L882,192l1.5-0.8l4.6,9.1
				c0.8,1.5,1.2,2.6,1.4,3.5c0.2,0.9,0,1.6-0.5,2.3c-0.5,0.7-1.4,1.4-2.8,2.1C884.8,209.1,883.6,209.6,882.5,210z M885.1,201.4
				c0.3-0.4,0.5-0.8,0.5-1.2c0-0.4-0.1-0.8-0.3-1.2c-0.2-0.4-0.4-1-0.8-1.7c-0.4-0.7-0.6-1.2-0.9-1.6c-0.2-0.4-0.5-0.7-0.8-0.9
				c-0.4-0.3-0.8-0.5-1.3-0.4c-0.5,0-1.1,0.2-1.8,0.6c-0.9,0.4-1.5,0.8-1.8,1.2s-0.4,0.8-0.3,1.4c0.1,0.6,0.5,1.4,1.1,2.6
				c0.6,1.2,1.1,2,1.5,2.4s0.8,0.6,1.3,0.6s1.1-0.3,2-0.7C884.3,202.1,884.8,201.8,885.1,201.4z"/>
			<path id="XMLID_693_" class="st10" d="M893.1,199.1c-0.8,0-1.4-0.2-2-0.8c-0.5-0.6-1.3-1.7-2.1-3.3s-1.4-2.8-1.6-3.5
				c-0.2-0.8-0.1-1.5,0.4-2.1s1.4-1.3,2.8-2.1c1.4-0.8,2.5-1.2,3.3-1.2c0.8,0,1.4,0.2,2,0.8c0.5,0.6,1.3,1.7,2.1,3.3
				c0.9,1.6,1.4,2.8,1.6,3.5c0.2,0.8,0.1,1.5-0.4,2.1c-0.5,0.6-1.4,1.3-2.8,2.1C895,198.6,893.9,199,893.1,199.1z M897.5,194.9
				c0.3-0.4,0.3-0.8,0.2-1.3c-0.2-0.5-0.6-1.4-1.3-2.7c-0.7-1.3-1.2-2.1-1.6-2.5c-0.3-0.4-0.7-0.6-1.2-0.6c-0.5,0-1.2,0.3-2.2,0.9
				c-1,0.5-1.6,1-1.9,1.4c-0.3,0.4-0.3,0.8-0.2,1.3s0.6,1.4,1.3,2.7c0.7,1.3,1.2,2.1,1.6,2.5s0.8,0.6,1.2,0.6c0.5,0,1.2-0.3,2.2-0.9
				S897.3,195.3,897.5,194.9z"/>
			<path id="XMLID_691_" class="st10" d="M905.4,192.7c-0.7,0.4-1.4,0.6-1.9,0.9l-0.8-1.4c1.4-0.6,2.6-1.3,3.7-1.9
				c0.7-0.4,1.1-0.7,1.4-1s0.4-0.5,0.4-0.8c0-0.3-0.2-0.6-0.4-1c-0.2-0.4-0.5-0.7-0.6-0.8s-0.4-0.2-0.6-0.2s-0.5,0.1-0.9,0.3
				l-2.8,1.3c-0.6,0.3-1.2,0.4-1.6,0.4c-0.4,0-0.8-0.2-1.2-0.5c-0.3-0.3-0.7-0.8-1.1-1.4c-0.5-0.9-0.7-1.6-0.7-2.2
				c0.1-0.6,0.3-1.1,0.8-1.6c0.5-0.5,1.2-1,2.1-1.5c0.5-0.3,1.1-0.6,1.7-0.9c0.6-0.3,1.2-0.5,1.6-0.7l0.8,1.4
				c-1.1,0.4-2.2,1-3.3,1.6c-0.6,0.4-1.1,0.7-1.3,0.9s-0.4,0.5-0.5,0.8c-0.1,0.3,0.1,0.7,0.3,1.1c0.2,0.4,0.4,0.6,0.6,0.8
				c0.2,0.1,0.3,0.2,0.5,0.2s0.5-0.1,0.9-0.3l2.9-1.3c0.6-0.3,1.1-0.4,1.5-0.4c0.4,0,0.8,0.1,1.1,0.4s0.8,0.8,1.2,1.6
				c0.5,0.8,0.7,1.5,0.7,2.1c0,0.6-0.2,1.1-0.7,1.6c-0.4,0.5-1.1,1-2,1.5C906.7,192,906.1,192.3,905.4,192.7z"/>
			<path id="XMLID_689_" class="st10" d="M988.3,125.6c-0.7,0.7-1.4,1.4-2,1.9l-1.4-1.2c1.5-1.4,2.6-2.6,3.5-3.6
				c0.5-0.6,0.9-1.1,1.2-1.6c0.3-0.4,0.4-0.8,0.5-1.2c0.1-0.4,0-0.7-0.2-1c-0.2-0.3-0.5-0.7-1-1c-0.5-0.5-1-0.8-1.2-0.9
				s-0.6-0.1-0.8,0c-0.3,0.1-0.7,0.4-1.2,0.9l-2.9,2.7c-0.7,0.6-1.3,1-1.9,1.2c-0.6,0.1-1.1,0.1-1.7-0.2c-0.5-0.2-1.1-0.7-1.8-1.3
				c-1-0.8-1.5-1.6-1.7-2.4c-0.2-0.8-0.1-1.5,0.2-2.2c0.4-0.7,1-1.6,1.8-2.6c0.6-0.7,1.2-1.3,1.9-2c0.7-0.6,1.2-1.1,1.6-1.5l1.3,1.1
				c-0.5,0.4-1,0.9-1.6,1.5c-0.6,0.6-1.1,1.2-1.6,1.8c-0.6,0.6-1,1.2-1.3,1.6c-0.3,0.4-0.4,0.8-0.5,1.2c-0.1,0.4,0,0.7,0.2,1
				s0.5,0.6,0.9,1c0.5,0.4,0.9,0.7,1.1,0.8c0.3,0.1,0.5,0.1,0.8,0c0.3-0.1,0.6-0.4,1.1-0.8l2.9-2.6c0.7-0.6,1.3-1.1,1.8-1.3
				c0.5-0.2,1.1-0.2,1.7,0c0.6,0.2,1.3,0.7,2.2,1.5c1.1,0.9,1.7,1.8,1.9,2.5c0.2,0.8,0.2,1.5-0.1,2.2c-0.3,0.7-0.9,1.5-1.7,2.4
				C989.7,124.1,989.1,124.8,988.3,125.6z"/>
			<path id="XMLID_687_" class="st10" d="M999.8,108.9l-0.1,0.1c0.3,0.6,0.4,1.2,0.3,1.9s-0.5,1.4-1.2,2.3c-0.7,0.9-1.3,1.5-1.9,1.7
				s-1.2,0.3-1.8,0s-1.4-0.7-2.3-1.4l-5.8-4.5l1.1-1.5l5.2,4.1c0.9,0.7,1.5,1.1,2,1.3c0.4,0.2,0.8,0.2,1.2,0
				c0.4-0.2,0.8-0.7,1.4-1.4c0.6-0.8,0.9-1.4,0.9-2c0-0.5-0.1-1-0.5-1.5c-0.4-0.4-0.9-1-1.7-1.6l-4.8-3.7l1.1-1.5l9.2,7.2l-1,1.3
				L999.8,108.9z"/>
			<path id="XMLID_684_" class="st10" d="M995.2,98.1l1-1.4l1.4,0.9l0.1-0.1c-0.4-0.7-0.5-1.3-0.3-2c0.2-0.7,0.5-1.4,1.1-2.2
				c0.7-1,1.3-1.6,2-1.9c0.6-0.3,1.4-0.3,2.2,0c0.8,0.3,1.9,0.9,3.2,1.8c1.3,0.9,2.3,1.8,2.8,2.5c0.6,0.7,0.8,1.4,0.7,2.1
				c-0.1,0.7-0.4,1.5-1.1,2.5c-0.6,0.8-1.1,1.4-1.7,1.8c-0.6,0.4-1.2,0.5-1.9,0.4l-0.1,0.1l5,3.5l-1.1,1.5L995.2,98.1z M1007.4,98
				c0.1-0.5-0.1-0.9-0.4-1.3c-0.4-0.4-1.1-1-2.2-1.8s-1.9-1.2-2.4-1.5c-0.5-0.2-1-0.2-1.4,0c-0.4,0.2-0.9,0.8-1.5,1.6
				c-0.5,0.6-0.7,1.2-0.8,1.7c-0.1,0.5,0,1,0.3,1.4c0.2,0.3,0.5,0.6,0.8,0.9c0.3,0.3,0.8,0.6,1.4,1.1c0.6,0.4,1.1,0.8,1.5,1
				c0.4,0.2,0.7,0.4,1,0.4c0.5,0.1,1,0.1,1.4-0.2s0.9-0.7,1.3-1.4C1007,99.1,1007.3,98.4,1007.4,98z"/>
			<path id="XMLID_681_" class="st10" d="M1013.5,82.7l-4.3,6.8c0.9,0.6,1.7,1,2.1,1.1c0.5,0.1,0.9,0,1.4-0.3c0.4-0.3,1-1,1.6-2
				c0.6-1,1.2-2.1,1.8-3.3l1.4,0.9c-0.2,0.5-0.5,1-0.8,1.7c-0.4,0.7-0.7,1.3-1.1,1.9c-0.8,1.3-1.6,2.2-2.3,2.6
				c-0.7,0.4-1.5,0.5-2.3,0.3c-0.8-0.2-1.9-0.8-3.3-1.7c-1.4-0.9-2.3-1.6-2.9-2.2c-0.6-0.6-0.8-1.3-0.8-2.2c0.1-0.8,0.5-1.9,1.4-3.2
				c0.8-1.2,1.5-2,2.2-2.4c0.7-0.3,1.4-0.4,2.2-0.1c0.8,0.3,1.8,0.9,3.3,1.8L1013.5,82.7z M1005.8,85.9c-0.1,0.5,0,0.9,0.4,1.3
				c0.3,0.4,0.9,0.9,1.8,1.5l3.4-5.3l-0.2-0.1c-0.9-0.5-1.5-0.9-2-1c-0.5-0.1-0.9,0-1.3,0.2c-0.3,0.3-0.7,0.7-1.2,1.4
				C1006.2,84.8,1005.8,85.5,1005.8,85.9z"/>
			<path id="XMLID_679_" class="st10" d="M1009.7,76.2l0.8-1.4l2,1.1l0.1-0.1c-0.7-0.7-1-1.4-0.9-2.2c0-0.7,0.3-1.5,0.8-2.4l1.7,1
				c-0.5,0.9-0.8,1.7-0.8,2.3s0.2,1.2,0.7,1.8c0.5,0.5,1.2,1.1,2.2,1.6l4.5,2.7l-0.9,1.6L1009.7,76.2z"/>
			<path id="XMLID_676_" class="st10" d="M1023.7,74.3c-0.7,0.3-1.7,0.2-2.8-0.5c-0.8-0.4-1.4-0.9-1.7-1.3c-0.3-0.4-0.5-0.9-0.5-1.5
				c0-0.6,0.3-1.3,0.7-2.1c0.2-0.4,0.9-1.7,2.2-3.8l-0.6-0.3c-0.8-0.4-1.4-0.7-1.8-0.7c-0.4,0-0.8,0.1-1.1,0.5c-0.3,0.4-0.7,1-1.3,2
				c-0.2,0.4-0.5,1-0.8,1.7c-0.3,0.7-0.5,1.2-0.7,1.6l-1.4-0.8c0.4-1.2,1-2.5,1.7-3.9c0.7-1.2,1.3-2.1,1.8-2.5
				c0.6-0.5,1.2-0.6,1.9-0.5c0.7,0.1,1.5,0.4,2.6,1l6.5,3.5l-0.8,1.5l-1.5-0.7l-0.1,0.1c0.5,0.6,0.7,1.3,0.5,2.1
				c-0.1,0.7-0.4,1.5-0.9,2.4C1025.2,73.3,1024.5,74,1023.7,74.3z M1025.4,68.9c0.1-0.5,0-0.9-0.2-1.3c-0.3-0.5-0.9-1.1-1.8-1.5
				l-0.5-0.3l-1.9,3.4c-0.3,0.6-0.5,1-0.6,1.3c-0.1,0.3,0,0.6,0.2,0.8c0.2,0.2,0.5,0.5,1,0.8c0.5,0.3,0.9,0.4,1.2,0.4
				c0.3,0,0.6-0.1,0.8-0.4s0.6-0.8,1-1.5C1025,70,1025.3,69.4,1025.4,68.9z"/>
			<path id="XMLID_674_" class="st10" d="M1030.4,62.9l-15.3-7.7l0.8-1.7l15.3,7.7L1030.4,62.9z"/>
			<path id="XMLID_671_" class="st10" d="M1037.3,59.2l-1.5-0.7c0.7-1.3,1.3-2.4,1.7-3.3c0.5-1.1,0.8-1.9,0.8-2.5
				c0-0.6-0.2-1-0.6-1.4c-0.4-0.4-1.2-0.8-2.3-1.3l-0.5-0.2l0,0.1c0.4,0.5,0.6,1.1,0.6,1.8c0,0.7-0.3,1.5-0.7,2.3
				c-0.5,1.1-1,1.8-1.6,2.2c-0.6,0.4-1.3,0.6-2.2,0.4s-2-0.5-3.5-1.2c-1.5-0.7-2.5-1.3-3.2-1.9c-0.7-0.6-1-1.2-1.1-1.9
				c-0.1-0.7,0.2-1.6,0.6-2.6c0.4-0.8,0.8-1.5,1.4-2c0.5-0.5,1.2-0.7,1.9-0.7l0.1-0.1l-1.5-0.8l0.7-1.5l9.3,4.3
				c1.5,0.7,2.6,1.3,3.3,1.9c0.7,0.6,1,1.3,1.1,2.1c0.1,0.9-0.3,2-0.9,3.4C1038.6,57,1037.9,58.2,1037.3,59.2z M1034.1,50.8
				c0-0.5-0.1-0.9-0.4-1.2c-0.2-0.3-0.6-0.5-1-0.8c-0.4-0.2-0.9-0.5-1.6-0.8c-0.7-0.3-1.3-0.6-1.7-0.7c-0.4-0.1-0.8-0.2-1.1-0.2
				c-0.5,0-0.9,0.1-1.3,0.5c-0.4,0.3-0.7,0.8-1,1.5c-0.4,0.9-0.6,1.6-0.6,2s0.2,0.9,0.7,1.3c0.4,0.4,1.3,0.8,2.5,1.4
				c1.2,0.5,2.1,0.9,2.6,1c0.6,0.1,1,0,1.4-0.3c0.4-0.3,0.7-0.9,1.2-1.8C1033.9,51.9,1034,51.3,1034.1,50.8z"/>
			<path id="XMLID_668_" class="st10" d="M1039.1,43.5c-0.6,0.5-1.3,0.7-2.1,0.6c-0.8-0.1-2-0.5-3.7-1.2s-2.8-1.3-3.5-1.8
				c-0.7-0.5-1-1.1-1-1.9c0-0.8,0.3-1.9,0.9-3.4c0.6-1.5,1.2-2.5,1.8-3c0.6-0.5,1.3-0.7,2.1-0.6s2,0.5,3.7,1.2
				c1.7,0.7,2.8,1.3,3.5,1.8c0.7,0.5,1,1.1,1,1.9c0,0.8-0.3,1.9-0.9,3.4C1040.3,42,1039.7,43,1039.1,43.5z M1039.9,37.6
				c0-0.5-0.3-0.9-0.7-1.2c-0.5-0.3-1.3-0.7-2.7-1.3s-2.3-0.9-2.8-1c-0.5-0.1-1,0-1.3,0.3s-0.7,1-1.2,2s-0.6,1.8-0.6,2.3
				s0.2,0.9,0.7,1.2c0.5,0.3,1.3,0.7,2.7,1.3c1.3,0.6,2.3,0.9,2.8,1c0.5,0.1,1,0,1.3-0.3c0.4-0.3,0.7-1,1.2-2
				C1039.8,38.8,1040,38,1039.9,37.6z"/>
			<path id="XMLID_666_" class="st10" d="M1044.8,30.5c-0.3,0.7-0.6,1.4-0.9,1.9l-1.5-0.6c0.7-1.4,1.3-2.6,1.7-3.8
				c0.3-0.7,0.4-1.3,0.5-1.7s0-0.7-0.2-0.9c-0.2-0.2-0.5-0.4-0.9-0.5c-0.4-0.2-0.8-0.2-1-0.2c-0.2,0-0.4,0.1-0.5,0.2
				c-0.1,0.1-0.3,0.4-0.5,0.8l-1.4,2.7c-0.3,0.6-0.7,1.1-1,1.3c-0.4,0.3-0.8,0.4-1.2,0.4c-0.5,0-1-0.2-1.7-0.4
				c-0.9-0.4-1.6-0.8-1.9-1.3s-0.5-1.1-0.4-1.7c0.1-0.6,0.3-1.5,0.7-2.5c0.2-0.6,0.5-1.2,0.8-1.8s0.6-1.1,0.8-1.6l1.5,0.6
				c-0.6,1.1-1.1,2.2-1.6,3.4c-0.2,0.7-0.4,1.2-0.5,1.5c-0.1,0.4,0,0.7,0.1,1c0.2,0.3,0.5,0.5,0.9,0.7c0.4,0.2,0.7,0.2,0.9,0.2
				c0.2,0,0.4-0.1,0.5-0.2c0.1-0.1,0.3-0.4,0.5-0.8l1.5-2.8c0.3-0.6,0.6-1,0.9-1.3c0.3-0.3,0.7-0.4,1.1-0.4c0.5,0,1.1,0.2,1.9,0.5
				c0.9,0.3,1.5,0.7,1.9,1.2c0.4,0.5,0.5,1,0.5,1.7s-0.3,1.4-0.6,2.4C1045.4,29.1,1045.1,29.8,1044.8,30.5z"/>
		</g>
	</g>
</g>
<g id="Layer_3">
	<g id="XMLID_49_">
		<g id="XMLID_29_">
			<polyline id="XMLID_37_" class="st12" points="37,25.5 37,296 1030.5,296 			"/>
			<g id="XMLID_32_">
				<path id="XMLID_36_" class="st10" d="M37,30.8l10.8,6.6l0.2-0.4l-7-17.6C39.7,13.3,38.4,7.1,37,1c-1.4,6.1-2.7,12.3-4.1,18.4
					l-7,17.6l0.2,0.4L37,30.8z"/>
			</g>
			<g id="XMLID_30_">
				<path id="XMLID_31_" class="st10" d="M1025.2,296l-6.6-10.8l0.4-0.2l17.6,7c6.1,1.4,12.3,2.7,18.4,4.1
					c-6.1,1.4-12.3,2.7-18.4,4.1l-17.6,7l-0.4-0.2L1025.2,296z"/>
			</g>
		</g>
	</g>
</g>
<g id="Layer_5" class="st0">
</g>
</svg>
