<svg xmlns="http://www.w3.org/2000/svg" viewBox="0 0 120 24"><defs><style>.cls-1{fill:#4d4d4d;}.cls-2{fill:#2a96ff;}.cls-3{fill:#fff;}</style></defs><title>aa-comm-logo</title><g id="Layer_4" data-name="Layer 4"><path class="cls-1" d="M27.54,15.7l-.19-1.53H26.19L26,15.7H24.47L25.62,8h2.32L29.1,15.7Zm-.73-6.2h-.08l-.39,3.31h.86Z"/><path class="cls-1" d="M30.76,15.7V8H32.3v6.3h1.42V15.7Z"/><path class="cls-1" d="M37.34,12.54V11.18h1.85v4.38a5.7,5.7,0,0,1-.83.17,7.78,7.78,0,0,1-.94.06,2.28,2.28,0,0,1-1.35-.32,1.74,1.74,0,0,1-.62-1.14,12.66,12.66,0,0,1-.18-2.49,11.78,11.78,0,0,1,.19-2.49,1.75,1.75,0,0,1,.67-1.14,2.68,2.68,0,0,1,1.46-.32A4.93,4.93,0,0,1,38.4,8a4.64,4.64,0,0,1,.78.16V9.41A8,8,0,0,0,38,9.3a2,2,0,0,0-.81.11c-.15.08-.25.29-.3.62a14.11,14.11,0,0,0-.08,1.81c0,.83,0,1.42,0,1.76a1.29,1.29,0,0,0,.17.68.55.55,0,0,0,.45.17,1.34,1.34,0,0,0,.35,0V12.54Z"/><path class="cls-1" d="M41.57,15.45a1.68,1.68,0,0,1-.52-1.1,20.7,20.7,0,0,1-.1-2.51,20.62,20.62,0,0,1,.1-2.5,1.66,1.66,0,0,1,.52-1.1,3.06,3.06,0,0,1,2.84,0,1.67,1.67,0,0,1,.53,1.1,23.25,23.25,0,0,1,.1,2.5,23.34,23.34,0,0,1-.1,2.51,1.69,1.69,0,0,1-.53,1.1,3.14,3.14,0,0,1-2.84,0Zm1.77-1.18a1.26,1.26,0,0,0,.12-.59c0-.32,0-.93,0-1.84s0-1.51,0-1.83a1.35,1.35,0,0,0-.12-.6A.44.44,0,0,0,43,9.3a.43.43,0,0,0-.34.11,1.35,1.35,0,0,0-.12.6q0,.48,0,1.83c0,.91,0,1.52,0,1.84a1.26,1.26,0,0,0,.12.59.4.4,0,0,0,.34.12A.41.41,0,0,0,43.34,14.27Z"/><path class="cls-1" d="M46.86,8h2.19c1.11,0,1.67.65,1.67,1.95a2.8,2.8,0,0,1-.22,1.25,1.09,1.09,0,0,1-.68.56v0a1.16,1.16,0,0,1,.74.54,2.81,2.81,0,0,1,.23,1.31,2.49,2.49,0,0,1-.41,1.55,1.61,1.61,0,0,1-1.32.51h-2.2Zm2.19,3.08a.39.39,0,0,0,.14-.24,2.52,2.52,0,0,0,.05-.57,2.71,2.71,0,0,0,0-.58.32.32,0,0,0-.14-.23.73.73,0,0,0-.34,0h-.35v1.74h.35A.58.58,0,0,0,49.05,11.06Zm0,3.19A.31.31,0,0,0,49.2,14a3,3,0,0,0,0-.62,2.83,2.83,0,0,0-.05-.6.39.39,0,0,0-.14-.24.58.58,0,0,0-.33-.07h-.35v1.83h.35A.73.73,0,0,0,49.07,14.25Z"/><path class="cls-1" d="M53.08,15.45a1.64,1.64,0,0,1-.52-1.1,20.15,20.15,0,0,1-.11-2.51,20.07,20.07,0,0,1,.11-2.5,1.62,1.62,0,0,1,.52-1.1,3.06,3.06,0,0,1,2.84,0,1.66,1.66,0,0,1,.52,1.1,20.84,20.84,0,0,1,.1,2.5,20.93,20.93,0,0,1-.1,2.51,1.68,1.68,0,0,1-.52,1.1,3.14,3.14,0,0,1-2.84,0Zm1.76-1.18a1.14,1.14,0,0,0,.12-.59c0-.32,0-.93,0-1.84s0-1.51,0-1.83a1.22,1.22,0,0,0-.12-.6.42.42,0,0,0-.34-.11.44.44,0,0,0-.35.11A1.35,1.35,0,0,0,54,10q0,.48,0,1.83c0,.91,0,1.52,0,1.84a1.26,1.26,0,0,0,.12.59.41.41,0,0,0,.35.12C54.67,14.39,54.79,14.35,54.84,14.27Z"/><path class="cls-1" d="M59.23,15.7V9.41H58.1V8h3.8V9.41H60.77V15.7Z"/><path class="cls-1" d="M64.36,15.74a6.58,6.58,0,0,1-.81-.15V14.32a12.33,12.33,0,0,0,1.25.07,2.61,2.61,0,0,0,.46,0,.36.36,0,0,0,.22-.13.71.71,0,0,0,.1-.26c0-.11,0-.26,0-.44a4.44,4.44,0,0,0,0-.63.36.36,0,0,0-.15-.26,1.26,1.26,0,0,0-.42-.16l-.82-.19a.79.79,0,0,1-.57-.6,5,5,0,0,1-.16-1.45,3.61,3.61,0,0,1,.24-1.48,1.29,1.29,0,0,1,.67-.69,2.78,2.78,0,0,1,1.09-.18,5.35,5.35,0,0,1,1,.08,3.05,3.05,0,0,1,.51.11V9.36a1.87,1.87,0,0,0-.35,0c-.19,0-.42,0-.66,0l-.53,0a.4.4,0,0,0-.24.13.49.49,0,0,0-.12.26c0,.1,0,.26,0,.47s0,.39,0,.5a.45.45,0,0,0,.11.23.57.57,0,0,0,.27.11l.71.17a1.74,1.74,0,0,1,.55.25A1.1,1.1,0,0,1,67,12a4.23,4.23,0,0,1,.13,1.24,4.36,4.36,0,0,1-.23,1.64,1.27,1.27,0,0,1-.63.72,2.71,2.71,0,0,1-1.08.17A6.62,6.62,0,0,1,64.36,15.74Z"/><path class="cls-2" d="M72.43,15.76l-.49,0a1.91,1.91,0,0,1-1.19-.29,1.69,1.69,0,0,1-.51-1.09,17.13,17.13,0,0,1-.14-2.57,17,17,0,0,1,.14-2.55,1.75,1.75,0,0,1,.51-1.1,1.91,1.91,0,0,1,1.19-.3,4.73,4.73,0,0,1,.52,0,1.4,1.4,0,0,1,.4.11v.54a2.73,2.73,0,0,0-.81-.11,1.49,1.49,0,0,0-.9.21,1.38,1.38,0,0,0-.34.89c0,.44-.08,1.2-.08,2.27s0,1.84.08,2.28a1.34,1.34,0,0,0,.34.88,1.42,1.42,0,0,0,.9.22l.44,0a2.81,2.81,0,0,0,.4-.08v.56A2.5,2.5,0,0,1,72.43,15.76Z"/><path class="cls-2" d="M75.38,15.5a1.56,1.56,0,0,1-.5-1.07,19.48,19.48,0,0,1-.12-2.59,19.4,19.4,0,0,1,.12-2.58,1.56,1.56,0,0,1,.5-1.07,2.78,2.78,0,0,1,2.51,0,1.56,1.56,0,0,1,.5,1.07,19.4,19.4,0,0,1,.12,2.58,19.48,19.48,0,0,1-.12,2.59,1.56,1.56,0,0,1-.5,1.07,2.86,2.86,0,0,1-2.51,0ZM77.46,15a1.28,1.28,0,0,0,.33-.85,20.58,20.58,0,0,0,.09-2.35,20.49,20.49,0,0,0-.09-2.34,1.28,1.28,0,0,0-.33-.85,1.39,1.39,0,0,0-.83-.18,1.44,1.44,0,0,0-.83.18,1.34,1.34,0,0,0-.32.85,20.74,20.74,0,0,0-.09,2.34,20.49,20.49,0,0,0,.09,2.34,1.35,1.35,0,0,0,.32.86,1.44,1.44,0,0,0,.83.18A1.39,1.39,0,0,0,77.46,15Z"/><path class="cls-2" d="M85,15.7V9.18H85L83.5,15.7h-.68L81.39,9.18h-.06V15.7h-.59V8h.93l1.48,6.62h.07L84.71,8h.91V15.7Z"/><path class="cls-2" d="M92.24,15.7V9.18h-.06L90.72,15.7h-.67L88.61,9.18h0V15.7H88V8h.93l1.48,6.62h.07L91.93,8h.91V15.7Z"/><path class="cls-2" d="M98.67,8v4.4a17.5,17.5,0,0,1-.1,2.16,1.46,1.46,0,0,1-.47,1,1.86,1.86,0,0,1-1.18.29,1.89,1.89,0,0,1-1.2-.29,1.46,1.46,0,0,1-.47-1,17.5,17.5,0,0,1-.1-2.16V8h.62v4.78a11.78,11.78,0,0,0,.07,1.59,1,1,0,0,0,.3.68,1.2,1.2,0,0,0,.78.19,1.18,1.18,0,0,0,.76-.19,1,1,0,0,0,.3-.68,11.78,11.78,0,0,0,.07-1.59V8Z"/><path class="cls-2" d="M103.85,15.7l-2.24-6.12h0V15.7H101V8h.66L103.85,14h0V8h.6V15.7Z"/><path class="cls-2" d="M106.85,15.7V8h.61V15.7Z"/><path class="cls-2" d="M110.91,15.7V8.57h-1.42V8H113v.59h-1.41V15.7Z"/><path class="cls-2" d="M116.24,15.7V12.64L114.63,8h.64l1.28,3.85h.06L117.89,8h.62l-1.64,4.66V15.7Z"/><circle class="cls-2" cx="9.57" cy="11.56" r="8.69"/><path class="cls-3" d="M13.67,9.77c.85-1.43,1.21-3.41.19-4.14s-2.68.2-3.9,1.57C9.15,5.72,7.62,4.42,6.48,4.94S5.32,7.58,5.89,9c-1.66,0-3.5.67-3.62,1.9s1.67,2.3,3.21,2.54c-.85,1.43-1.2,3.39-.18,4.12S8.16,17.22,9.15,16c.81,1.46,2.35,2.77,3.5,2.25s1.12-2.59.61-4c1.63,0,3.45-.68,3.57-1.9S15.4,10.16,13.67,9.77ZM6.43,13.89c.44.27,1,.68,1.5,1a1.28,1.28,0,0,1-1.26-.1A1.16,1.16,0,0,1,6.43,13.89ZM7.72,8.47a1.41,1.41,0,0,1,.66-1,1,1,0,0,1,.88.19C8.85,7.91,8.23,8.24,7.72,8.47Zm5.56,3.12a1.2,1.2,0,0,1,.56,1.18,1,1,0,0,1-.68.64A18.23,18.23,0,0,1,13.28,11.59Zm.28-4.49c.62.54.45,1.65-.05,2.63a2.11,2.11,0,0,1-.47-.2c.42-1,.5-2.13-.16-2.6l-.11-.06A1,1,0,0,1,13.56,7.1ZM7.64,6c.75-.26,1.61.4,2.2,1.3a3.11,3.11,0,0,1-.33.22C8.86,6.71,8,6.14,7.26,6.46a1.05,1.05,0,0,0-.3.22A1.18,1.18,0,0,1,7.64,6ZM3.77,10.44C3.92,9.68,4.89,9.26,6,9.19a2.39,2.39,0,0,1,0,.43c-1.06.15-2,.64-2.11,1.42v.1A1.14,1.14,0,0,1,3.77,10.44Zm1.9,5.69c-.62-.54-.45-1.64,0-2.62a2.43,2.43,0,0,1,.46.23c-.41,1-.48,2.1.17,2.57l.17.07A1.2,1.2,0,0,1,5.67,16.13Zm5.9,1.09c-.78.27-1.65-.43-2.25-1.35l.33-.21c.66.83,1.57,1.42,2.29,1.09a.85.85,0,0,0,.25-.17A1.06,1.06,0,0,1,11.57,17.22Zm3.84-4.41c-.16.78-1.14,1.19-2.2,1.26a1.91,1.91,0,0,1-.05-.42c1.08-.15,2.09-.64,2.17-1.44,0,0,0-.07,0-.11A1.17,1.17,0,0,1,15.41,12.81Z"/><path class="cls-2" d="M7,12.89a8.64,8.64,0,0,1,2.35,1.55c.57,1,1.64,1.82,2.39,1.44s.71-1.63.29-2.76a8.22,8.22,0,0,1,.13-2.8c.57-1,.78-2.35.08-2.81s-1.92.3-2.52,1.14A8.16,8.16,0,0,1,7.22,9.93c-1.11,0-2.38.51-2.43,1.35S6,12.76,7,12.89Z"/><path class="cls-3" d="M7.83,13.24a7.4,7.4,0,0,1,2.23.78c.66.67,1.71,1.15,2.24.69s.25-1.48-.33-2.31a7.37,7.37,0,0,1-.47-2.31c.27-.91.16-2.07-.51-2.31s-1.5.64-1.81,1.45a7.05,7.05,0,0,1-1.8,1.56c-.91.24-1.84.9-1.71,1.6S7,13.35,7.83,13.24Z"/><path class="cls-2" d="M11,12.15a3.84,3.84,0,0,1-.24-1.24c.16-.49.11-1.11-.26-1.24s-.83.32-1,.75a3.75,3.75,0,0,1-1,.81c-.5.11-1,.46-1,.83s.71.53,1.18.48A4.36,4.36,0,0,1,10,13c.36.37.93.64,1.23.4S11.32,12.6,11,12.15Z"/><path class="cls-2" d="M10.66,12.69c-.17.15-.52,0-.74-.2a2.32,2.32,0,0,0-.73-.24c-.28,0-.66,0-.71-.25s.25-.43.54-.52a2.25,2.25,0,0,0,.57-.5c.09-.26.35-.54.57-.47s.27.43.19.72a2.3,2.3,0,0,0,.18.73C10.72,12.22,10.83,12.54,10.66,12.69Z"/></g></svg>