<svg xmlns="http://www.w3.org/2000/svg" viewBox="0 0 120 24"><defs><style>.cls-1{fill:#fff;}.cls-2{fill:#2a96ff;}</style></defs><title>aa-comm-logo-dark</title><g id="Layer_4" data-name="Layer 4"><path class="cls-1" d="M27.54,16.14l-.19-1.54H26.19L26,16.14H24.47l1.15-7.72h2.32l1.16,7.72Zm-.73-6.2h-.08l-.39,3.31h.86Z"/><path class="cls-1" d="M30.76,16.14V8.42H32.3v6.3h1.42v1.42Z"/><path class="cls-1" d="M37.34,13V11.62h1.85V16a5.84,5.84,0,0,1-.83.16,6.22,6.22,0,0,1-.94.07,2.28,2.28,0,0,1-1.35-.32,1.74,1.74,0,0,1-.62-1.14,12.66,12.66,0,0,1-.18-2.49,11.78,11.78,0,0,1,.19-2.49,1.7,1.7,0,0,1,.67-1.14,2.68,2.68,0,0,1,1.46-.32,6.19,6.19,0,0,1,.81.06,5.9,5.9,0,0,1,.78.16v1.3A8.26,8.26,0,0,0,38,9.73a1.83,1.83,0,0,0-.81.12c-.15.08-.25.29-.3.62a14.11,14.11,0,0,0-.08,1.81c0,.83,0,1.42,0,1.76a1.32,1.32,0,0,0,.17.68.55.55,0,0,0,.45.16,2,2,0,0,0,.35,0V13Z"/><path class="cls-1" d="M41.57,15.88a1.63,1.63,0,0,1-.52-1.09,20.82,20.82,0,0,1-.1-2.51,20.93,20.93,0,0,1,.1-2.51,1.66,1.66,0,0,1,.52-1.09,3.06,3.06,0,0,1,2.84,0,1.67,1.67,0,0,1,.53,1.1,23.11,23.11,0,0,1,.1,2.5,23.11,23.11,0,0,1-.1,2.5,1.64,1.64,0,0,1-.53,1.1,3.06,3.06,0,0,1-2.84,0Zm1.77-1.17a1.34,1.34,0,0,0,.12-.59c0-.32,0-.93,0-1.84s0-1.52,0-1.83a1.35,1.35,0,0,0-.12-.6A.41.41,0,0,0,43,9.73a.4.4,0,0,0-.34.12,1.35,1.35,0,0,0-.12.6c0,.31,0,.93,0,1.83s0,1.52,0,1.84a1.34,1.34,0,0,0,.12.59.4.4,0,0,0,.34.12A.41.41,0,0,0,43.34,14.71Z"/><path class="cls-1" d="M46.86,8.42h2.19c1.11,0,1.67.65,1.67,1.94a2.74,2.74,0,0,1-.22,1.25,1.07,1.07,0,0,1-.68.57v0a1.16,1.16,0,0,1,.74.54,2.86,2.86,0,0,1,.23,1.32,2.49,2.49,0,0,1-.41,1.55,1.61,1.61,0,0,1-1.32.51h-2.2Zm2.19,3.08a.39.39,0,0,0,.14-.24,2.52,2.52,0,0,0,.05-.57,2.71,2.71,0,0,0,0-.58.3.3,0,0,0-.14-.23.71.71,0,0,0-.34-.06h-.35v1.74h.35A.69.69,0,0,0,49.05,11.5Zm0,3.19a.31.31,0,0,0,.13-.24,3,3,0,0,0,0-.62,2.7,2.7,0,0,0-.05-.6.42.42,0,0,0-.14-.25.69.69,0,0,0-.33-.06h-.35v1.83h.35A.73.73,0,0,0,49.07,14.69Z"/><path class="cls-1" d="M53.08,15.88a1.59,1.59,0,0,1-.52-1.09,20.26,20.26,0,0,1-.11-2.51,20.38,20.38,0,0,1,.11-2.51,1.61,1.61,0,0,1,.52-1.09,3.06,3.06,0,0,1,2.84,0,1.66,1.66,0,0,1,.52,1.1,20.73,20.73,0,0,1,.1,2.5,20.73,20.73,0,0,1-.1,2.5,1.64,1.64,0,0,1-.52,1.1,3.06,3.06,0,0,1-2.84,0Zm1.76-1.17a1.2,1.2,0,0,0,.12-.59c0-.32,0-.93,0-1.84s0-1.52,0-1.83a1.22,1.22,0,0,0-.12-.6c-.05-.08-.17-.12-.34-.12a.41.41,0,0,0-.35.12,1.35,1.35,0,0,0-.12.6c0,.31,0,.93,0,1.83s0,1.52,0,1.84a1.34,1.34,0,0,0,.12.59.41.41,0,0,0,.35.12C54.67,14.83,54.79,14.79,54.84,14.71Z"/><path class="cls-1" d="M59.23,16.14V9.85H58.1V8.42h3.8V9.85H60.77v6.29Z"/><path class="cls-1" d="M64.36,16.18a6.58,6.58,0,0,1-.81-.15V14.76a12.33,12.33,0,0,0,1.25.07,2.61,2.61,0,0,0,.46,0,.36.36,0,0,0,.22-.13.78.78,0,0,0,.1-.26c0-.11,0-.26,0-.45a4.37,4.37,0,0,0,0-.62.4.4,0,0,0-.15-.27,1.59,1.59,0,0,0-.42-.15l-.82-.19a.79.79,0,0,1-.57-.61,4.92,4.92,0,0,1-.16-1.44,3.58,3.58,0,0,1,.24-1.48,1.29,1.29,0,0,1,.67-.69,2.78,2.78,0,0,1,1.09-.18,5.42,5.42,0,0,1,1,.07,2.68,2.68,0,0,1,.51.12V9.8a1.87,1.87,0,0,0-.35,0,6.52,6.52,0,0,0-.66,0,3.42,3.42,0,0,0-.53,0,.35.35,0,0,0-.24.13.45.45,0,0,0-.12.25c0,.11,0,.27,0,.48s0,.39,0,.49a.38.38,0,0,0,.11.23.57.57,0,0,0,.27.12l.71.17a1.39,1.39,0,0,1,.55.25,1.06,1.06,0,0,1,.37.58,4.23,4.23,0,0,1,.13,1.24,4.27,4.27,0,0,1-.23,1.63,1.26,1.26,0,0,1-.63.73,2.91,2.91,0,0,1-1.08.17C65,16.23,64.67,16.21,64.36,16.18Z"/><path class="cls-2" d="M72.43,16.2l-.49,0a2,2,0,0,1-1.19-.29,1.69,1.69,0,0,1-.51-1.09,17.13,17.13,0,0,1-.14-2.57,16.82,16.82,0,0,1,.14-2.55,1.72,1.72,0,0,1,.51-1.1,1.91,1.91,0,0,1,1.19-.3,3.12,3.12,0,0,1,.52,0,1.4,1.4,0,0,1,.4.11V9a3.1,3.1,0,0,0-.81-.11,1.48,1.48,0,0,0-.9.22,1.37,1.37,0,0,0-.34.88c0,.44-.08,1.2-.08,2.28s0,1.84.08,2.28a1.37,1.37,0,0,0,.34.88,1.42,1.42,0,0,0,.9.22l.44,0,.4-.08v.56A2.5,2.5,0,0,1,72.43,16.2Z"/><path class="cls-2" d="M75.38,15.94a1.57,1.57,0,0,1-.5-1.08,19.2,19.2,0,0,1-.12-2.58,19.2,19.2,0,0,1,.12-2.58,1.61,1.61,0,0,1,.5-1.08,2.86,2.86,0,0,1,2.51,0,1.61,1.61,0,0,1,.5,1.08,19.2,19.2,0,0,1,.12,2.58,19.2,19.2,0,0,1-.12,2.58,1.57,1.57,0,0,1-.5,1.08,2.86,2.86,0,0,1-2.51,0Zm2.08-.46a1.28,1.28,0,0,0,.33-.85,20.58,20.58,0,0,0,.09-2.35,20.37,20.37,0,0,0-.09-2.34,1.31,1.31,0,0,0-.33-.86,1.39,1.39,0,0,0-.83-.18,1.44,1.44,0,0,0-.83.18,1.38,1.38,0,0,0-.32.86,20.49,20.49,0,0,0-.09,2.34,20.49,20.49,0,0,0,.09,2.34,1.38,1.38,0,0,0,.32.86,1.44,1.44,0,0,0,.83.18A1.39,1.39,0,0,0,77.46,15.48Z"/><path class="cls-2" d="M85,16.14V9.62H85L83.5,16.14h-.68L81.39,9.62h-.06v6.52h-.59V8.42h.93L83.15,15h.07l1.49-6.62h.91v7.72Z"/><path class="cls-2" d="M92.24,16.14V9.62h-.06l-1.46,6.52h-.67L88.61,9.62h0v6.52H88V8.42h.93L90.37,15h.07l1.49-6.62h.91v7.72Z"/><path class="cls-2" d="M98.67,8.42v4.4a17.62,17.62,0,0,1-.1,2.16,1.46,1.46,0,0,1-.47,1,1.93,1.93,0,0,1-1.18.29,2,2,0,0,1-1.2-.29,1.46,1.46,0,0,1-.47-1,17.62,17.62,0,0,1-.1-2.16V8.42h.62V13.2a11.88,11.88,0,0,0,.07,1.59,1,1,0,0,0,.3.67,1.2,1.2,0,0,0,.78.2,1.17,1.17,0,0,0,.76-.2,1,1,0,0,0,.3-.67,11.88,11.88,0,0,0,.07-1.59V8.42Z"/><path class="cls-2" d="M103.85,16.14,101.61,10h0v6.13H101V8.42h.66l2.22,6.06h0V8.42h.6v7.72Z"/><path class="cls-2" d="M106.85,16.14V8.42h.61v7.72Z"/><path class="cls-2" d="M110.91,16.14V9h-1.42V8.42H113V9h-1.41v7.14Z"/><path class="cls-2" d="M116.24,16.14V13.08l-1.61-4.66h.64l1.28,3.85h.06l1.28-3.85h.62l-1.64,4.66v3.06Z"/><circle class="cls-2" cx="9.57" cy="12" r="8.69"/><path class="cls-1" d="M13.67,10.21c.85-1.43,1.21-3.41.19-4.14s-2.68.2-3.9,1.56C9.15,6.16,7.62,4.86,6.48,5.38S5.32,8,5.89,9.46c-1.66,0-3.5.67-3.62,1.89s1.67,2.31,3.21,2.55c-.85,1.43-1.2,3.39-.18,4.11s2.86-.36,3.85-1.55c.81,1.46,2.35,2.77,3.5,2.24s1.12-2.58.61-4c1.63,0,3.45-.68,3.57-1.91S15.4,10.6,13.67,10.21ZM6.43,14.33c.44.26,1,.68,1.5,1a1.28,1.28,0,0,1-1.26-.09A1.16,1.16,0,0,1,6.43,14.33ZM7.72,8.91a1.39,1.39,0,0,1,.66-1,.93.93,0,0,1,.88.19C8.85,8.35,8.23,8.68,7.72,8.91ZM13.28,12a1.2,1.2,0,0,1,.56,1.18,1,1,0,0,1-.68.64A18.23,18.23,0,0,1,13.28,12Zm.28-4.49c.62.54.45,1.65-.05,2.63A1.83,1.83,0,0,1,13,10c.42-1,.5-2.13-.16-2.59l-.11-.06A1,1,0,0,1,13.56,7.54ZM7.64,6.44c.75-.25,1.61.41,2.2,1.3A3,3,0,0,1,9.51,8C8.86,7.15,8,6.58,7.26,6.9a1.05,1.05,0,0,0-.3.22A1.23,1.23,0,0,1,7.64,6.44ZM3.77,10.88C3.92,10.12,4.89,9.7,6,9.62a2.46,2.46,0,0,1,0,.43c-1.06.15-2,.64-2.11,1.43v.1A1.15,1.15,0,0,1,3.77,10.88Zm1.9,5.68c-.62-.53-.45-1.63,0-2.61a3,3,0,0,1,.46.22c-.41,1-.48,2.11.17,2.57a.89.89,0,0,0,.17.08A1.16,1.16,0,0,1,5.67,16.56Zm5.9,1.1c-.78.26-1.65-.43-2.25-1.35l.33-.22c.66.84,1.57,1.43,2.29,1.1a1.1,1.1,0,0,0,.25-.17A1.06,1.06,0,0,1,11.57,17.66Zm3.84-4.41c-.16.77-1.14,1.18-2.2,1.26a1.91,1.91,0,0,1-.05-.42c1.08-.15,2.09-.64,2.17-1.44,0,0,0-.07,0-.11A1.16,1.16,0,0,1,15.41,13.25Z"/><path class="cls-2" d="M7,13.33a8.2,8.2,0,0,1,2.35,1.55c.57.95,1.64,1.82,2.39,1.44s.71-1.63.29-2.77a8.17,8.17,0,0,1,.13-2.79c.57-1,.78-2.35.08-2.81s-1.92.3-2.52,1.14a8.38,8.38,0,0,1-2.53,1.28c-1.11,0-2.38.51-2.43,1.35S6,13.2,7,13.33Z"/><path class="cls-1" d="M7.83,13.68a7.14,7.14,0,0,1,2.23.78c.66.66,1.71,1.15,2.24.68s.25-1.47-.33-2.31a7.31,7.31,0,0,1-.47-2.3c.27-.91.16-2.08-.51-2.31s-1.5.64-1.81,1.45a7.25,7.25,0,0,1-1.8,1.56c-.91.24-1.84.9-1.71,1.6S7,13.78,7.83,13.68Z"/><path class="cls-2" d="M11,12.58a3.74,3.74,0,0,1-.24-1.24c.16-.48.11-1.1-.26-1.24s-.83.32-1,.75a3.78,3.78,0,0,1-1,.82c-.5.11-1,.45-1,.83s.71.52,1.18.48a4.07,4.07,0,0,1,1.22.45c.36.36.93.63,1.23.39S11.32,13,11,12.58Z"/><path class="cls-2" d="M10.66,13.12c-.17.15-.52,0-.74-.2a2.59,2.59,0,0,0-.73-.23c-.28,0-.66,0-.71-.25s.25-.44.54-.52a2.3,2.3,0,0,0,.57-.51c.09-.25.35-.53.57-.47s.27.44.19.73a2.37,2.37,0,0,0,.18.73C10.72,12.66,10.83,13,10.66,13.12Z"/></g></svg>