<svg id="Layer_1" data-name="Layer 1" xmlns="http://www.w3.org/2000/svg" viewBox="0 0 98 140"><defs><style>.cls-1{fill:#4d4d4d;}.cls-2{fill:#2a96ff;}.cls-3{fill:#fff;}</style></defs><title>aa-comm-logo-vert</title><path class="cls-1" d="M10.39,110.47,10,107.32H7.63l-.39,3.15H4.1l2.36-15.8h4.75l2.37,15.8ZM8.9,97.77H8.73l-.8,6.77H9.7Z"/><path class="cls-1" d="M17,110.47V94.67h3.15v12.88H23v2.92Z"/><path class="cls-1" d="M30.41,104v-2.78h3.78v9a10.89,10.89,0,0,1-1.69.34,14.74,14.74,0,0,1-1.93.14,4.8,4.8,0,0,1-2.76-.65,3.67,3.67,0,0,1-1.27-2.35,26.35,26.35,0,0,1-.36-5.08,25.33,25.33,0,0,1,.38-5.1,3.59,3.59,0,0,1,1.36-2.33,5.45,5.45,0,0,1,3-.66,13.26,13.26,0,0,1,1.68.13,9.26,9.26,0,0,1,1.58.33v2.64a18.36,18.36,0,0,0-2.43-.23,3.75,3.75,0,0,0-1.67.25c-.3.16-.5.58-.61,1.26a29.6,29.6,0,0,0-.16,3.71c0,1.7,0,2.89.08,3.59a2.73,2.73,0,0,0,.36,1.39,1.11,1.11,0,0,0,.92.35,4.17,4.17,0,0,0,.71-.07V104Z"/><path class="cls-1" d="M39.05,109.94A3.35,3.35,0,0,1,38,107.7a43,43,0,0,1-.21-5.13A43.08,43.08,0,0,1,38,97.43a3.32,3.32,0,0,1,1.06-2.23A4.6,4.6,0,0,1,42,94.48a4.54,4.54,0,0,1,2.9.72,3.34,3.34,0,0,1,1.07,2.25,42.91,42.91,0,0,1,.21,5.12,43,43,0,0,1-.21,5.12,3.38,3.38,0,0,1-1.07,2.25,4.61,4.61,0,0,1-2.9.71A4.67,4.67,0,0,1,39.05,109.94Zm3.62-2.4a2.78,2.78,0,0,0,.24-1.22q.06-1,.06-3.75c0-1.86,0-3.11-.06-3.76a2.72,2.72,0,0,0-.24-1.21,1.13,1.13,0,0,0-1.42,0A2.46,2.46,0,0,0,41,98.81c0,.65-.06,1.9-.06,3.76s0,3.1.06,3.75a2.51,2.51,0,0,0,.24,1.22,1.17,1.17,0,0,0,1.42,0Z"/><path class="cls-1" d="M49.85,94.67h4.48q3.42,0,3.42,4a5.78,5.78,0,0,1-.45,2.56,2.17,2.17,0,0,1-1.39,1.16v.09a2.38,2.38,0,0,1,1.51,1.1,5.8,5.8,0,0,1,.47,2.69,5,5,0,0,1-.84,3.17,3.23,3.23,0,0,1-2.7,1.06h-4.5Zm4.48,6.3a.74.74,0,0,0,.3-.49,5.49,5.49,0,0,0,.09-1.17,6.63,6.63,0,0,0-.07-1.19.65.65,0,0,0-.29-.47,1.69,1.69,0,0,0-.7-.11H53v3.56h.71A1.28,1.28,0,0,0,54.33,101Zm0,6.52a.69.69,0,0,0,.28-.49,7.42,7.42,0,0,0,.07-1.26,5.89,5.89,0,0,0-.09-1.23.77.77,0,0,0-.3-.51,1.4,1.4,0,0,0-.67-.12H53v3.74h.71A1.35,1.35,0,0,0,54.37,107.49Z"/><path class="cls-1" d="M62.56,109.94a3.4,3.4,0,0,1-1.07-2.24,46,46,0,0,1-.2-5.13,46,46,0,0,1,.2-5.14,3.37,3.37,0,0,1,1.07-2.23,4.58,4.58,0,0,1,2.91-.72,4.54,4.54,0,0,1,2.9.72,3.34,3.34,0,0,1,1.07,2.25,42.91,42.91,0,0,1,.21,5.12,43,43,0,0,1-.21,5.12,3.38,3.38,0,0,1-1.07,2.25,4.61,4.61,0,0,1-2.9.71A4.65,4.65,0,0,1,62.56,109.94Zm3.62-2.4a2.78,2.78,0,0,0,.24-1.22q.06-1,.06-3.75c0-1.86,0-3.11-.06-3.76a2.72,2.72,0,0,0-.24-1.21.82.82,0,0,0-.71-.25.85.85,0,0,0-.72.25,2.72,2.72,0,0,0-.24,1.21c0,.65-.05,1.9-.05,3.76s0,3.1.05,3.75a2.78,2.78,0,0,0,.24,1.22.88.88,0,0,0,.72.24A.85.85,0,0,0,66.18,107.54Z"/><path class="cls-1" d="M75.14,110.47V97.58H72.82V94.67H80.6v2.91H78.28v12.89Z"/><path class="cls-1" d="M85.62,110.54a13.94,13.94,0,0,1-1.66-.3v-2.6c1,.09,1.85.14,2.55.14a5.25,5.25,0,0,0,.94-.06.69.69,0,0,0,.46-.26,1.49,1.49,0,0,0,.2-.54,6.92,6.92,0,0,0,0-.91,7.47,7.47,0,0,0-.07-1.28.74.74,0,0,0-.31-.54,2.33,2.33,0,0,0-.86-.31l-1.67-.39a1.63,1.63,0,0,1-1.16-1.24,10.07,10.07,0,0,1-.34-3,7.3,7.3,0,0,1,.5-3,2.72,2.72,0,0,1,1.36-1.41,5.93,5.93,0,0,1,2.23-.37,11.21,11.21,0,0,1,2,.15,5.75,5.75,0,0,1,1,.24v2.62a3.35,3.35,0,0,0-.7-.09c-.41,0-.86-.05-1.37-.05a7.08,7.08,0,0,0-1.07.06.7.7,0,0,0-.49.27.94.94,0,0,0-.24.51,6,6,0,0,0-.06,1,6.12,6.12,0,0,0,.06,1,.83.83,0,0,0,.22.47,1.18,1.18,0,0,0,.55.24l1.44.35a3,3,0,0,1,1.14.5,2.4,2.4,0,0,1,.75,1.19,8.82,8.82,0,0,1,.27,2.53,9.17,9.17,0,0,1-.47,3.35,2.52,2.52,0,0,1-1.3,1.48,5.57,5.57,0,0,1-2.2.36A16.23,16.23,0,0,1,85.62,110.54Z"/><path class="cls-2" d="M10.14,133.55a9.19,9.19,0,0,1-1,.07A4,4,0,0,1,6.7,133a3.46,3.46,0,0,1-1-2.24,36,36,0,0,1-.27-5.25,35.67,35.67,0,0,1,.27-5.22,3.49,3.49,0,0,1,1-2.25,3.91,3.91,0,0,1,2.44-.61,7.65,7.65,0,0,1,1,.08,3.14,3.14,0,0,1,.84.22v1.1a6.25,6.25,0,0,0-1.68-.23,2.89,2.89,0,0,0-1.83.45,2.81,2.81,0,0,0-.7,1.8c-.1.9-.16,2.46-.16,4.66s.06,3.76.16,4.66a2.82,2.82,0,0,0,.7,1.81,2.89,2.89,0,0,0,1.83.45,7.7,7.7,0,0,0,.91-.07,6.8,6.8,0,0,0,.81-.16v1.14A6.06,6.06,0,0,1,10.14,133.55Z"/><path class="cls-2" d="M14.54,133a3.28,3.28,0,0,1-1-2.21,40.31,40.31,0,0,1-.24-5.28,40.31,40.31,0,0,1,.24-5.28,3.26,3.26,0,0,1,1-2.2,4.26,4.26,0,0,1,2.57-.6,4.28,4.28,0,0,1,2.57.6,3.25,3.25,0,0,1,1,2.2,40.31,40.31,0,0,1,.24,5.28,40.31,40.31,0,0,1-.24,5.28,3.28,3.28,0,0,1-1,2.21,4.28,4.28,0,0,1-2.57.6A4.26,4.26,0,0,1,14.54,133Zm4.27-.94a2.7,2.7,0,0,0,.66-1.75,40,40,0,0,0,.19-4.8,40,40,0,0,0-.19-4.8,2.65,2.65,0,0,0-.66-1.74,2.87,2.87,0,0,0-1.7-.37,2.87,2.87,0,0,0-1.7.37,2.73,2.73,0,0,0-.67,1.75,43.19,43.19,0,0,0-.18,4.79,42.94,42.94,0,0,0,.18,4.79,2.76,2.76,0,0,0,.67,1.76,3,3,0,0,0,1.7.37A3,3,0,0,0,18.81,132.08Z"/><path class="cls-2" d="M32.62,133.43V120.09H32.5l-3,13.34H28.14L25.2,120.09h-.11v13.34H23.87v-15.8h1.91l3,13.55h.13L32,117.63h1.86v15.8Z"/><path class="cls-2" d="M45.77,133.43V120.09h-.11l-3,13.34H41.29l-2.93-13.34h-.12v13.34H37v-15.8h1.91l3,13.55h.14l3-13.55H47v15.8Z"/><path class="cls-2" d="M57.3,117.63v9a32.66,32.66,0,0,1-.21,4.42,3,3,0,0,1-1,2,3.9,3.9,0,0,1-2.43.6,3.92,3.92,0,0,1-2.44-.6,2.92,2.92,0,0,1-1-2,32.66,32.66,0,0,1-.21-4.42v-9h1.26v9.79a26.74,26.74,0,0,0,.14,3.25,2.07,2.07,0,0,0,.61,1.37,3.27,3.27,0,0,0,3.17,0,2.17,2.17,0,0,0,.61-1.37,27.29,27.29,0,0,0,.13-3.25v-9.79Z"/><path class="cls-2" d="M66.26,133.43l-4.57-12.54H61.6v12.54H60.38v-15.8h1.36L66.26,130h.09v-12.4h1.22v15.8Z"/><path class="cls-2" d="M70.77,133.43v-15.8H72v15.8Z"/><path class="cls-2" d="M77.45,133.43v-14.6H74.56v-1.2h7.07v1.2H78.74v14.6Z"/><path class="cls-2" d="M86.74,133.43v-6.27l-3.3-9.53h1.31l2.61,7.88h.14l2.62-7.88h1.26L88,127.16v6.27Z"/><circle class="cls-2" cx="49" cy="40.56" r="33.96"/><path class="cls-3" d="M65.05,33.55c3.31-5.59,4.74-13.33.73-16.19s-10.46.79-15.23,6.13c-3.15-5.76-9.17-10.85-13.61-8.83s-4.53,10.31-2.29,16c-6.51-.06-13.72,2.61-14.18,7.4S27,47,33,48c-3.3,5.59-4.7,13.25-.69,16.1s11.17-1.41,15-6.07c3.19,5.7,9.2,10.82,13.7,8.76S65.43,56.68,63.43,51c6.39,0,13.49-2.66,14-7.44S71.83,35.09,65.05,33.55ZM36.73,49.66c1.72,1.05,4,2.67,5.88,4.06-1.84.6-3.81.7-4.92-.39A4.52,4.52,0,0,1,36.73,49.66Zm5-21.18c.45-1.72,1.29-3.27,2.61-3.85s2.46.15,3.41.75C46.2,26.28,43.76,27.56,41.77,28.48Zm21.77,12.2c1.64,1.35,2.61,3,2.18,4.6a4,4,0,0,1-2.66,2.52C63.07,45.82,63.26,43.17,63.54,40.68Zm1.09-17.56c2.41,2.11,1.74,6.45-.21,10.29a9,9,0,0,1-1.83-.81c1.62-3.93,1.94-8.33-.63-10.16a3,3,0,0,0-.44-.22A3.87,3.87,0,0,1,64.63,23.12ZM41.47,18.83c2.93-1,6.28,1.58,8.61,5.09a13.3,13.3,0,0,1-1.28.86c-2.56-3.2-6.06-5.43-8.8-4.18a4,4,0,0,0-1.2.87A4.86,4.86,0,0,1,41.47,18.83ZM26.33,36.18c.59-3,4.38-4.61,8.51-4.91A9.43,9.43,0,0,1,35,33c-4.16.58-8,2.51-8.27,5.56,0,.13,0,.26,0,.39A4.38,4.38,0,0,1,26.33,36.18Zm7.42,22.23c-2.4-2.1-1.76-6.4.18-10.22a12.73,12.73,0,0,1,1.79.87c-1.59,3.9-1.87,8.23.68,10a3.19,3.19,0,0,0,.65.3A4.63,4.63,0,0,1,33.75,58.41Zm23.08,4.28c-3,1-6.45-1.68-8.8-5.28a14.25,14.25,0,0,1,1.32-.84c2.58,3.25,6.13,5.58,8.94,4.29a3.72,3.72,0,0,0,1-.69A4.16,4.16,0,0,1,56.83,62.69Zm15-17.25c-.61,3-4.47,4.63-8.61,4.93a7.7,7.7,0,0,1-.17-1.65c4.2-.57,8.15-2.49,8.46-5.62,0-.14,0-.28,0-.42A4.52,4.52,0,0,1,71.85,45.44Z"/><path class="cls-2" d="M39.08,45.75c1.38.18,8.51,4.88,9.21,6.07,2.21,3.74,6.38,7.1,9.34,5.63s2.77-6.38,1.11-10.81c-.49-1.32-.2-9.72.51-10.93,2.24-3.81,3.08-9.18.32-11s-7.49,1.17-9.84,4.47c-.82,1.15-8.52,5-9.9,5-4.34.05-9.3,2-9.49,5.28S35.1,45.25,39.08,45.75Z"/><path class="cls-3" d="M42.2,47.13c1.15-.14,7.93,2.23,8.75,3,2.56,2.6,6.65,4.48,8.76,2.68s.95-5.77-1.31-9c-.67-1-2.16-7.89-1.83-9,1-3.56.63-8.11-2-9s-5.87,2.5-7.1,5.66c-.43,1.11-5.93,5.82-7,6.12-3.53.93-7.18,3.52-6.66,6.25S38.85,47.53,42.2,47.13Z"/><path class="cls-2" d="M54.66,42.84A14.5,14.5,0,0,1,53.72,38c.6-1.89.41-4.33-1-4.86s-3.24,1.26-3.94,2.94a14.85,14.85,0,0,1-3.92,3.17c-1.95.45-4,1.79-3.71,3.25s2.76,2.07,4.6,1.9a15.93,15.93,0,0,1,4.79,1.75c1.39,1.42,3.63,2.48,4.8,1.54S55.87,44.63,54.66,42.84Z"/><path class="cls-2" d="M53.28,45c-.66.58-2,0-2.87-.79a9.38,9.38,0,0,0-2.88-.9c-1.08.15-2.57-.14-2.76-1s.95-1.7,2.09-2a8.75,8.75,0,0,0,2.22-2c.37-1,1.39-2.11,2.25-1.84s1,1.71.74,2.84a8.57,8.57,0,0,0,.69,2.84C53.53,43.13,54,44.37,53.28,45Z"/></svg>