<svg id="Layer_1" data-name="Layer 1" xmlns="http://www.w3.org/2000/svg" viewBox="0 0 640 420"><defs><style>.cls-1{fill:none;stroke:#e3493c;stroke-miterlimit:10;stroke-width:0.5px;stroke-dasharray:6.02 6.02;}.cls-2{fill:#fff;}.cls-3{fill:#4d4e4e;}.cls-4{fill:#e3493c;}.cls-5{fill:#666;}.cls-6{fill:#aad5ff;}.cls-7{fill:#2a96ff;}.cls-8{fill:#bcd643;}.cls-9{fill:#333;}.cls-10{fill:#4d4d4d;}</style></defs><title>AA-infrastructure-scope</title><ellipse class="cls-1" cx="319.3" cy="181.55" rx="293.3" ry="169.34"/><rect class="cls-2" x="233.33" y="328.21" width="178.22" height="31.15"/><path class="cls-3" d="M241.31,352.93V340.2h-1.7v-1.3h1.7v-4.07h1.46v4.07h2v1.3h-2v12.73Z"/><path class="cls-3" d="M253,344.46a18.26,18.26,0,0,0-.17-2.93,1.75,1.75,0,0,0-.63-1.22,2.72,2.72,0,0,0-1.48-.31,2.07,2.07,0,0,0-1.72.68,3.36,3.36,0,0,0-.66,1.77,32.68,32.68,0,0,0-.12,3.27v7.21h-1.46V332.5h1.46v8.05h.13a2.7,2.7,0,0,1,2.92-1.87,3.4,3.4,0,0,1,2,.51,2.62,2.62,0,0,1,.9,1.61,16,16,0,0,1,.24,3.19v8.94H253Z"/><path class="cls-3" d="M264.57,346.38h-6.32a24.43,24.43,0,0,0,.18,3.54,2.22,2.22,0,0,0,.78,1.51,3.55,3.55,0,0,0,2,.42c.46,0,1,0,1.58-.09a12.46,12.46,0,0,0,1.5-.24v1.27a14.17,14.17,0,0,1-1.49.25,16.12,16.12,0,0,1-1.81.11,4.71,4.71,0,0,1-2.74-.64,3.23,3.23,0,0,1-1.15-2.09,25.37,25.37,0,0,1-.29-4.48,31.92,31.92,0,0,1,.22-4.49,3.12,3.12,0,0,1,1.09-2.09,4.53,4.53,0,0,1,2.79-.68,3.92,3.92,0,0,1,2.51.64,3.07,3.07,0,0,1,1,2,34.45,34.45,0,0,1,.21,4.54Zm-5.46-6.05a2,2,0,0,0-.7,1.41,25.57,25.57,0,0,0-.16,3.49h4.92v-.5a19.42,19.42,0,0,0-.19-3.16,1.91,1.91,0,0,0-.66-1.29,2.79,2.79,0,0,0-1.46-.3A3.35,3.35,0,0,0,259.11,340.33Z"/><path class="cls-4" d="M279.28,352.93l-1.18-5.56h-4.73l-1.16,5.56h-1.54l4.1-18.92h2l4.1,18.92Zm-3.46-16.64h-.17l-2,9.71h4.23Z"/><path class="cls-4" d="M283,352.93V334h1.54V351.5h5v1.43Z"/><path class="cls-4" d="M295.43,344.43v-1.37h3.93v9.59a13,13,0,0,1-1.8.36,13.91,13.91,0,0,1-1.83.14,5,5,0,0,1-3-.72,4.34,4.34,0,0,1-1.38-2.73,35.85,35.85,0,0,1-.4-6.23,36.71,36.71,0,0,1,.38-6.2,4.21,4.21,0,0,1,1.37-2.74,5.25,5.25,0,0,1,3.09-.74,13.56,13.56,0,0,1,1.84.14,9.74,9.74,0,0,1,1.68.36v1.31a14.86,14.86,0,0,0-2.94-.41,5.42,5.42,0,0,0-2.56.44,3,3,0,0,0-1,2.11,38.76,38.76,0,0,0-.29,5.73,48.35,48.35,0,0,0,.21,5.41,3.68,3.68,0,0,0,.87,2.26,3.13,3.13,0,0,0,2.14.6,8.34,8.34,0,0,0,1.2-.08,6.14,6.14,0,0,0,1-.19v-7Z"/><path class="cls-4" d="M303.21,352.43a4,4,0,0,1-1.22-2.64,69.12,69.12,0,0,1,0-12.65,4,4,0,0,1,1.22-2.64,7,7,0,0,1,6.16,0,4,4,0,0,1,1.22,2.64,69.12,69.12,0,0,1,0,12.65,4,4,0,0,1-1.22,2.64,6.95,6.95,0,0,1-6.16,0Zm5.11-1.13a3.19,3.19,0,0,0,.8-2.09,75.12,75.12,0,0,0,0-11.49,3.22,3.22,0,0,0-.8-2.09,3.48,3.48,0,0,0-2-.44,3.54,3.54,0,0,0-2,.44,3.26,3.26,0,0,0-.79,2.11,74.73,74.73,0,0,0,0,11.46,3.2,3.2,0,0,0,.79,2.1,3.46,3.46,0,0,0,2,.44A3.4,3.4,0,0,0,308.32,351.3Z"/><path class="cls-3" d="M318.27,352.93V334h7.1v1.4h-5.56v7.23h4.87v1.43h-4.87v7.45h5.56v1.41Z"/><path class="cls-3" d="M332.35,353.05a10,10,0,0,1-1.29.1,3.89,3.89,0,0,1-2.56-.71,3.52,3.52,0,0,1-1.07-2.15,28.81,28.81,0,0,1-.25-4.35,23.58,23.58,0,0,1,.32-4.48,3.55,3.55,0,0,1,1.11-2.14,3.78,3.78,0,0,1,2.37-.64,9.33,9.33,0,0,1,2.45.31v1.26a8.39,8.39,0,0,0-2.15-.27,2.58,2.58,0,0,0-1.7.46,2.72,2.72,0,0,0-.75,1.68,27.89,27.89,0,0,0-.19,3.77,28.78,28.78,0,0,0,.19,3.87,2.55,2.55,0,0,0,.75,1.65,2.76,2.76,0,0,0,1.76.44,7.76,7.76,0,0,0,1.15-.08,5.61,5.61,0,0,0,1-.22v1.27A9.48,9.48,0,0,1,332.35,353.05Z"/><path class="cls-3" d="M336.63,352.58a2.81,2.81,0,0,1-1.08-2,29.78,29.78,0,0,1-.25-4.65,30.11,30.11,0,0,1,.25-4.66,2.9,2.9,0,0,1,1.08-2,4.93,4.93,0,0,1,2.71-.58,4.83,4.83,0,0,1,2.69.58,3,3,0,0,1,1.09,2,41.71,41.71,0,0,1,0,9.3,2.89,2.89,0,0,1-1.09,2,4.85,4.85,0,0,1-2.69.57A5,5,0,0,1,336.63,352.58Zm4.47-1.15a2.37,2.37,0,0,0,.67-1.57,34.69,34.69,0,0,0,.15-3.92,35.42,35.42,0,0,0-.15-4,2.38,2.38,0,0,0-.67-1.58,2.86,2.86,0,0,0-1.76-.42,2.92,2.92,0,0,0-1.79.42,2.33,2.33,0,0,0-.66,1.58,38.91,38.91,0,0,0-.14,4,37.94,37.94,0,0,0,.14,3.93,2.3,2.3,0,0,0,.66,1.56,2.92,2.92,0,0,0,1.79.42A2.86,2.86,0,0,0,341.1,351.43Z"/><path class="cls-3" d="M347.06,353.05a12.27,12.27,0,0,1-1.43-.23v-1.27a7.25,7.25,0,0,0,1.34.22,16.83,16.83,0,0,0,1.71.08,2.07,2.07,0,0,0,1.8-.67,3.42,3.42,0,0,0,.48-2,9,9,0,0,0-.11-1.64,1,1,0,0,0-.36-.67,2,2,0,0,0-.82-.25l-2.37-.39a2,2,0,0,1-1.52-1,5.52,5.52,0,0,1-.43-2.54,4.24,4.24,0,0,1,.94-3.18,4,4,0,0,1,2.83-.87,13.37,13.37,0,0,1,1.52.1,6,6,0,0,1,1.26.26v1.27a7.07,7.07,0,0,0-1.26-.24A14.44,14.44,0,0,0,349,340a2.29,2.29,0,0,0-1.67.55,2.83,2.83,0,0,0-.56,2,7.5,7.5,0,0,0,.11,1.49,1.1,1.1,0,0,0,.36.66,1.71,1.71,0,0,0,.77.27l2.28.36a2.6,2.6,0,0,1,1.22.47,1.86,1.86,0,0,1,.63,1.09,9.05,9.05,0,0,1,.21,2.23,4.42,4.42,0,0,1-.87,3.09,3.67,3.67,0,0,1-2.81.93A16.19,16.19,0,0,1,347.06,353.05Z"/><path class="cls-3" d="M354.73,358.26V357c1.43.06,2.38.09,2.86.09a3.34,3.34,0,0,0,2.1-.54,2.59,2.59,0,0,0,.87-1.66,21.45,21.45,0,0,0,.19-3.36v-.46h-.14a2.78,2.78,0,0,1-.9,1.48,4.17,4.17,0,0,1-4.07,0,2.67,2.67,0,0,1-.9-1.62,17,17,0,0,1-.23-3.18V338.9H356v8.42a18.18,18.18,0,0,0,.16,2.91,1.73,1.73,0,0,0,.63,1.21,2.87,2.87,0,0,0,1.49.3,2.07,2.07,0,0,0,1.72-.67,3.44,3.44,0,0,0,.66-1.77c.08-.74.12-1.83.12-3.28V338.9h1.46v12a24.19,24.19,0,0,1-.32,4.5,3.62,3.62,0,0,1-1.25,2.26,4.61,4.61,0,0,1-2.83.72C357,358.37,356,358.33,354.73,358.26Z"/><path class="cls-3" d="M366.1,353.05a12.64,12.64,0,0,1-1.43-.23v-1.27a7.23,7.23,0,0,0,1.35.22,16.64,16.64,0,0,0,1.7.08,2.07,2.07,0,0,0,1.8-.67,3.34,3.34,0,0,0,.49-2,9,9,0,0,0-.11-1.64,1.08,1.08,0,0,0-.36-.67,2,2,0,0,0-.83-.25l-2.36-.39a2,2,0,0,1-1.53-1,5.68,5.68,0,0,1-.42-2.54,4.28,4.28,0,0,1,.93-3.18,4,4,0,0,1,2.83-.87,13.39,13.39,0,0,1,1.53.1,5.86,5.86,0,0,1,1.25.26v1.27a6.92,6.92,0,0,0-1.25-.24,14.61,14.61,0,0,0-1.61-.09,2.26,2.26,0,0,0-1.66.55,2.78,2.78,0,0,0-.57,2,7.5,7.5,0,0,0,.11,1.49,1.22,1.22,0,0,0,.36.66,1.76,1.76,0,0,0,.77.27l2.28.36a2.64,2.64,0,0,1,1.23.47,2,2,0,0,1,.63,1.09,9.05,9.05,0,0,1,.21,2.23,4.42,4.42,0,0,1-.87,3.09,3.71,3.71,0,0,1-2.82.93C367.24,353.15,366.69,353.11,366.1,353.05Z"/><path class="cls-3" d="M374.58,352.93V340.2h-1.71v-1.3h1.71v-4.07H376v4.07h2v1.3h-2v12.73Z"/><path class="cls-3" d="M387.42,346.38H381.1a24.43,24.43,0,0,0,.18,3.54,2.22,2.22,0,0,0,.78,1.51,3.55,3.55,0,0,0,2,.42c.46,0,1,0,1.58-.09a12.46,12.46,0,0,0,1.5-.24v1.27a14.37,14.37,0,0,1-1.48.25,16.43,16.43,0,0,1-1.82.11,4.71,4.71,0,0,1-2.74-.64,3.23,3.23,0,0,1-1.15-2.09,25.37,25.37,0,0,1-.29-4.48,31.92,31.92,0,0,1,.22-4.49,3.12,3.12,0,0,1,1.09-2.09,4.57,4.57,0,0,1,2.79-.68,3.92,3.92,0,0,1,2.51.64,3.12,3.12,0,0,1,1,2,36.82,36.82,0,0,1,.2,4.54ZM382,340.33a2,2,0,0,0-.7,1.41,25.57,25.57,0,0,0-.16,3.49H386v-.5a18.32,18.32,0,0,0-.19-3.16,1.91,1.91,0,0,0-.66-1.29,2.77,2.77,0,0,0-1.46-.3A3.35,3.35,0,0,0,382,340.33Z"/><path class="cls-3" d="M401.88,344.46a20.1,20.1,0,0,0-.15-2.94,1.75,1.75,0,0,0-.58-1.21,2.36,2.36,0,0,0-1.39-.31,2.11,2.11,0,0,0-1.73.64,3.15,3.15,0,0,0-.64,1.71,30.55,30.55,0,0,0-.13,3.37v7.21h-1.45v-8.47a19.75,19.75,0,0,0-.16-2.94,1.79,1.79,0,0,0-.57-1.21,2.34,2.34,0,0,0-1.36-.31,2.13,2.13,0,0,0-1.74.68,3.36,3.36,0,0,0-.67,1.78c-.08.75-.12,1.83-.12,3.26v7.21h-1.46v-14H391l.11,2h.16a3.09,3.09,0,0,1,.91-1.6,2.91,2.91,0,0,1,2-.6,3.42,3.42,0,0,1,2,.5,2.72,2.72,0,0,1,.86,1.7h.17a2.92,2.92,0,0,1,.93-1.6,3,3,0,0,1,2-.6,3.26,3.26,0,0,1,2,.51,2.67,2.67,0,0,1,.9,1.61,16.73,16.73,0,0,1,.23,3.16v9h-1.46Z"/><path class="cls-5" d="M221.9,400.77l-1-3h-5.36l-1,3H211.7L216.36,387h3.82l4.66,13.76Zm-3.64-11.08h-.1l-1.86,5.64h3.84Z"/><path class="cls-5" d="M227.62,400.46a2.7,2.7,0,0,1-1.1-1.6,11,11,0,0,1-.35-3.17,12,12,0,0,1,.33-3.18,2.81,2.81,0,0,1,1.08-1.62,3.7,3.7,0,0,1,2-.48,5.29,5.29,0,0,1,1.82.27,2.26,2.26,0,0,1,1.16,1h.15v-5.78h2.65v14.86H232.9l-.07-1.26h-.16a2.29,2.29,0,0,1-1.21,1.11,4.73,4.73,0,0,1-1.79.31A3.77,3.77,0,0,1,227.62,400.46Zm4.28-2.08a1.19,1.19,0,0,0,.58-.61,2.61,2.61,0,0,0,.19-.84,10.82,10.82,0,0,0,.06-1.26,10.45,10.45,0,0,0-.06-1.24,2.67,2.67,0,0,0-.19-.82,1.16,1.16,0,0,0-.56-.63,2.74,2.74,0,0,0-1.11-.19,3.43,3.43,0,0,0-1.33.18,1,1,0,0,0-.52.74,17.61,17.61,0,0,0,0,3.93,1,1,0,0,0,.52.75,3.43,3.43,0,0,0,1.33.18A2.42,2.42,0,0,0,231.9,398.38Z"/><path class="cls-5" d="M240.53,400.77l-3.28-10.2H240l2.24,7.64h.2l2.2-7.64h2.7l-3.26,10.2Z"/><path class="cls-5" d="M249.37,400.23a3,3,0,0,1-.75-2.32,5,5,0,0,1,.28-1.88,1.81,1.81,0,0,1,1-1,5,5,0,0,1,1.95-.31c.69,0,1.73,0,3.12.08v-.38a3.05,3.05,0,0,0-.19-1.26,1,1,0,0,0-.71-.46,11.85,11.85,0,0,0-1.8-.1c-.42,0-.93,0-1.54.06s-1.1.08-1.46.12v-2.06a23.17,23.17,0,0,1,3.88-.32,7.67,7.67,0,0,1,2.92.43,2.23,2.23,0,0,1,1.26,1.28,7.67,7.67,0,0,1,.3,2.43v6.22h-2.5l-.08-1.24h-.14a2.26,2.26,0,0,1-1.3,1.12,6,6,0,0,1-1.92.28A3.24,3.24,0,0,1,249.37,400.23Zm4.62-1.55a1.33,1.33,0,0,0,.65-.49,2.91,2.91,0,0,0,.3-1.5v-.32h-2.4a3.09,3.09,0,0,0-.88.09.56.56,0,0,0-.38.35,2.41,2.41,0,0,0-.1.82,1.69,1.69,0,0,0,.13.78.68.68,0,0,0,.48.33,5,5,0,0,0,1.13.09A3.2,3.2,0,0,0,254,398.68Z"/><path class="cls-5" d="M266.52,395.37a10.29,10.29,0,0,0-.1-1.78.88.88,0,0,0-.45-.65,3.34,3.34,0,0,0-1.2-.15,2.43,2.43,0,0,0-1.27.26,1.23,1.23,0,0,0-.54.82,7.5,7.5,0,0,0-.13,1.62v5.28h-2.66v-10.2h2.5l.08,1.26h.16a2.33,2.33,0,0,1,1.13-1.08,4.94,4.94,0,0,1,1.95-.34,3.85,3.85,0,0,1,2,.44,2.16,2.16,0,0,1,.94,1.28,9.07,9.07,0,0,1,.23,2.26v6.38h-2.67Z"/><path class="cls-5" d="M277.34,400.85a14.54,14.54,0,0,1-1.58.08,5.61,5.61,0,0,1-2.88-.57,2.52,2.52,0,0,1-1.18-1.64,13.35,13.35,0,0,1-.26-3.07,12.29,12.29,0,0,1,.28-3,2.71,2.71,0,0,1,1.21-1.67,5.31,5.31,0,0,1,2.79-.59,14.31,14.31,0,0,1,1.57.09,11.4,11.4,0,0,1,1.37.23v2.06a13.2,13.2,0,0,0-2.24-.18,3.48,3.48,0,0,0-1.52.24,1.23,1.23,0,0,0-.61.85,9.21,9.21,0,0,0-.15,2,8.49,8.49,0,0,0,.16,2,1.17,1.17,0,0,0,.63.84,3.59,3.59,0,0,0,1.53.23c.48,0,1.24-.05,2.28-.16v2.06A9.17,9.17,0,0,1,277.34,400.85Z"/><path class="cls-5" d="M289.63,396.47h-6.36a4.86,4.86,0,0,0,.16,1.52,1,1,0,0,0,.72.59,8.76,8.76,0,0,0,2,.15c.79,0,1.82-.05,3.1-.16v2a12.65,12.65,0,0,1-1.68.23q-1,.09-2,.09a7.83,7.83,0,0,1-3.26-.5,2.39,2.39,0,0,1-1.34-1.56,12.46,12.46,0,0,1-.3-3.18,11.86,11.86,0,0,1,.31-3.13,2.61,2.61,0,0,1,1.3-1.61,6.66,6.66,0,0,1,3.07-.54,6.24,6.24,0,0,1,3,.53,2.34,2.34,0,0,1,1.15,1.56,16.29,16.29,0,0,1,.23,3.19ZM284,392.7a.94.94,0,0,0-.53.63,6.26,6.26,0,0,0-.15,1.5h3.84a5.13,5.13,0,0,0-.16-1.52,1,1,0,0,0-.54-.63,3.34,3.34,0,0,0-1.16-.15A3.68,3.68,0,0,0,284,392.7Z"/><path class="cls-5" d="M293.12,400.46a2.7,2.7,0,0,1-1.1-1.6,11,11,0,0,1-.35-3.17,12,12,0,0,1,.33-3.18,2.81,2.81,0,0,1,1.08-1.62,3.7,3.7,0,0,1,2-.48,5.29,5.29,0,0,1,1.82.27,2.26,2.26,0,0,1,1.16,1h.15v-5.78h2.65v14.86H298.4l-.07-1.26h-.16a2.29,2.29,0,0,1-1.21,1.11,4.73,4.73,0,0,1-1.79.31A3.77,3.77,0,0,1,293.12,400.46Zm4.28-2.08a1.19,1.19,0,0,0,.58-.61,2.61,2.61,0,0,0,.19-.84,10.82,10.82,0,0,0,.06-1.26,10.45,10.45,0,0,0-.06-1.24,2.67,2.67,0,0,0-.19-.82,1.16,1.16,0,0,0-.56-.63,2.74,2.74,0,0,0-1.11-.19A3.43,3.43,0,0,0,295,393a1,1,0,0,0-.52.74,17.61,17.61,0,0,0,0,3.93,1,1,0,0,0,.52.75,3.43,3.43,0,0,0,1.33.18A2.42,2.42,0,0,0,297.4,398.38Z"/><path class="cls-5" d="M317.73,400.77l-1-3h-5.36l-1,3h-2.87L312.19,387H316l4.67,13.76Zm-3.65-11.08H314l-1.86,5.64H316Z"/><path class="cls-5" d="M322.61,400.77V385.91h2.68v14.86Z"/><path class="cls-5" d="M329.9,404.82a13.42,13.42,0,0,1-1.56-.17v-2q1.2.06,2.88.06a7.57,7.57,0,0,0,2-.18,1,1,0,0,0,.75-.67,5.6,5.6,0,0,0,.17-1.71v-.62H334a2.13,2.13,0,0,1-1.14,1,4.78,4.78,0,0,1-1.8.29,3.92,3.92,0,0,1-2.07-.46,2.65,2.65,0,0,1-1.09-1.57,11.44,11.44,0,0,1-.34-3.13,11.3,11.3,0,0,1,.35-3.15,2.81,2.81,0,0,1,1.1-1.6,3.89,3.89,0,0,1,2.05-.47c1.51,0,2.51.48,3,1.42h.16l.08-1.26h2.48v9a12,12,0,0,1-.31,3.16,2.54,2.54,0,0,1-1.36,1.62,7.49,7.49,0,0,1-3.27.54C331.22,404.89,330.57,404.87,329.9,404.82Zm3.35-6.54a1.1,1.1,0,0,0,.57-.49,1.85,1.85,0,0,0,.26-.82,11.75,11.75,0,0,0,.06-1.34,12.07,12.07,0,0,0-.06-1.35,2,2,0,0,0-.24-.81,1.23,1.23,0,0,0-.59-.54,2.77,2.77,0,0,0-1-.16,3.49,3.49,0,0,0-1.33.18,1,1,0,0,0-.51.74,10.68,10.68,0,0,0-.12,1.94,10.09,10.09,0,0,0,.12,1.9,1,1,0,0,0,.51.72,3.49,3.49,0,0,0,1.33.18A2.8,2.8,0,0,0,333.25,398.28Z"/><path class="cls-5" d="M340.63,400.48a2.15,2.15,0,0,1-1.24-1.49,20.73,20.73,0,0,1,0-6.67,2.16,2.16,0,0,1,1.23-1.47,11.71,11.71,0,0,1,6.36,0,2.16,2.16,0,0,1,1.23,1.47,20.73,20.73,0,0,1,0,6.67,2.15,2.15,0,0,1-1.24,1.49,11.39,11.39,0,0,1-6.34,0Zm4.6-2a.94.94,0,0,0,.48-.76,16.06,16.06,0,0,0,.09-2.12,15.88,15.88,0,0,0-.09-2.11.94.94,0,0,0-.48-.74,5.48,5.48,0,0,0-2.86,0,.94.94,0,0,0-.48.74,15.88,15.88,0,0,0-.09,2.11,16.06,16.06,0,0,0,.09,2.12.94.94,0,0,0,.48.76,5.21,5.21,0,0,0,2.86,0Z"/><path class="cls-5" d="M352.65,400.85c-.74-.05-1.39-.12-1.93-.2v-2.08c.48.06,1,.1,1.69.13s1.21.05,1.69.05a6.82,6.82,0,0,0,1.31-.09.8.8,0,0,0,.53-.28,1.17,1.17,0,0,0,.12-.61,1.51,1.51,0,0,0-.07-.56.47.47,0,0,0-.28-.23,4.77,4.77,0,0,0-.73-.13l-2.36-.3a2.57,2.57,0,0,1-1.4-.48,1.82,1.82,0,0,1-.65-1,6.16,6.16,0,0,1-.17-1.59,3.26,3.26,0,0,1,.51-2,2.41,2.41,0,0,1,1.38-.88,9.87,9.87,0,0,1,2.25-.21c.58,0,1.21,0,1.87.09a13.39,13.39,0,0,1,1.61.23v2a30.11,30.11,0,0,0-3.1-.18,12,12,0,0,0-1.24.05,1,1,0,0,0-.58.25.92.92,0,0,0-.18.62,1.65,1.65,0,0,0,.06.54.36.36,0,0,0,.25.23,3.13,3.13,0,0,0,.65.13l2.56.3a3.7,3.7,0,0,1,1.23.35,1.58,1.58,0,0,1,.68.86,5.46,5.46,0,0,1,.23,1.79,3.82,3.82,0,0,1-.46,2.07,2.22,2.22,0,0,1-1.28.92,8.06,8.06,0,0,1-2.18.23C354.06,400.93,353.39,400.91,352.65,400.85Z"/><path class="cls-5" d="M365.86,400.61v-2.38q2.46.24,4.2.24a10.8,10.8,0,0,0,1.59-.09,1.82,1.82,0,0,0,.85-.31.88.88,0,0,0,.33-.48,3.26,3.26,0,0,0,.07-.8,3.46,3.46,0,0,0-.08-.85.68.68,0,0,0-.32-.4,2.51,2.51,0,0,0-.8-.19l-2.94-.34a4.6,4.6,0,0,1-2-.69,2.59,2.59,0,0,1-1-1.32,6.43,6.43,0,0,1-.27-2,4.62,4.62,0,0,1,.64-2.67,3,3,0,0,1,1.72-1.19,11.67,11.67,0,0,1,2.78-.28,22.14,22.14,0,0,1,4.48.4v2.32a29.82,29.82,0,0,0-3.9-.26,6,6,0,0,0-2.38.3.71.71,0,0,0-.4.42,2.65,2.65,0,0,0-.08.78,3,3,0,0,0,.08.86.54.54,0,0,0,.35.37,3.46,3.46,0,0,0,.91.19l3.16.38a5.2,5.2,0,0,1,1.52.37,2,2,0,0,1,.94.89,5.68,5.68,0,0,1,.48,2.66,5.46,5.46,0,0,1-.6,2.86,2.75,2.75,0,0,1-1.61,1.25,9.62,9.62,0,0,1-2.65.29A33.16,33.16,0,0,1,365.86,400.61Z"/><path class="cls-5" d="M383.8,400.85a14.54,14.54,0,0,1-1.58.08,5.61,5.61,0,0,1-2.88-.57,2.52,2.52,0,0,1-1.18-1.64,13.35,13.35,0,0,1-.26-3.07,12.29,12.29,0,0,1,.28-3,2.71,2.71,0,0,1,1.21-1.67,5.31,5.31,0,0,1,2.79-.59,14.31,14.31,0,0,1,1.57.09,11.4,11.4,0,0,1,1.37.23v2.06a13.2,13.2,0,0,0-2.24-.18,3.48,3.48,0,0,0-1.52.24,1.23,1.23,0,0,0-.61.85,9.21,9.21,0,0,0-.15,2,8.49,8.49,0,0,0,.16,2,1.17,1.17,0,0,0,.63.84,3.59,3.59,0,0,0,1.53.23c.48,0,1.24-.05,2.28-.16v2.06A9.17,9.17,0,0,1,383.8,400.85Z"/><path class="cls-5" d="M388.59,400.48a2.15,2.15,0,0,1-1.24-1.49,20.73,20.73,0,0,1,0-6.67,2.16,2.16,0,0,1,1.23-1.47,11.71,11.71,0,0,1,6.36,0,2.16,2.16,0,0,1,1.23,1.47,20.73,20.73,0,0,1,0,6.67,2.15,2.15,0,0,1-1.24,1.49,11.39,11.39,0,0,1-6.34,0Zm4.6-2a.94.94,0,0,0,.48-.76,16.06,16.06,0,0,0,.09-2.12,15.88,15.88,0,0,0-.09-2.11.94.94,0,0,0-.48-.74,5.48,5.48,0,0,0-2.86,0,.94.94,0,0,0-.48.74,15.88,15.88,0,0,0-.09,2.11,16.06,16.06,0,0,0,.09,2.12.94.94,0,0,0,.48.76,5.21,5.21,0,0,0,2.86,0Z"/><path class="cls-5" d="M398.74,390.57h2.5l.08,1.26h.14a2.3,2.3,0,0,1,1.21-1.11,5.08,5.08,0,0,1,1.81-.31,3.86,3.86,0,0,1,2,.47,2.76,2.76,0,0,1,1.09,1.6,15,15,0,0,1,0,6.35,2.8,2.8,0,0,1-1.07,1.62,3.64,3.64,0,0,1-2,.48,5,5,0,0,1-1.81-.28,2.27,2.27,0,0,1-1.17-1h-.16v5.1h-2.66Zm5.92,7.8a1,1,0,0,0,.51-.75,9.73,9.73,0,0,0,.13-1.95,9.91,9.91,0,0,0-.13-2,1,1,0,0,0-.51-.76,3.37,3.37,0,0,0-1.32-.18,2.65,2.65,0,0,0-1.09.18,1.15,1.15,0,0,0-.57.58,2.71,2.71,0,0,0-.22.84,11.46,11.46,0,0,0-.06,1.3c0,.55,0,1,.05,1.31a2.17,2.17,0,0,0,.21.81,1.1,1.1,0,0,0,.58.58,2.74,2.74,0,0,0,1.1.18A3.37,3.37,0,0,0,404.66,398.37Z"/><path class="cls-5" d="M419,396.47h-6.36a5.19,5.19,0,0,0,.16,1.52,1,1,0,0,0,.72.59,8.88,8.88,0,0,0,2,.15c.79,0,1.82-.05,3.1-.16v2a12.19,12.19,0,0,1-1.68.23q-1,.09-2,.09a7.86,7.86,0,0,1-3.26-.5,2.39,2.39,0,0,1-1.34-1.56,12.46,12.46,0,0,1-.3-3.18,12.31,12.31,0,0,1,.31-3.13,2.61,2.61,0,0,1,1.3-1.61,6.69,6.69,0,0,1,3.07-.54,6.24,6.24,0,0,1,3,.53,2.31,2.31,0,0,1,1.15,1.56,15.53,15.53,0,0,1,.23,3.19Zm-5.68-3.77a1,1,0,0,0-.53.63,7.52,7.52,0,0,0-.15,1.5h3.84a5.13,5.13,0,0,0-.16-1.52.91.91,0,0,0-.54-.63,3.34,3.34,0,0,0-1.16-.15A3.68,3.68,0,0,0,413.32,392.7Z"/><ellipse class="cls-6" cx="380.64" cy="176.4" rx="199.86" ry="125.9"/><path class="cls-7" d="M587,176.4c.81,1.61,1.61,3.26,2.41,5-.47.8-.92,1.59-1.42,2.37L586.4,186l.29-2.67-6.54-.52.16-4,6.55.2Z"/><path class="cls-7" d="M584.83,195.54c.57,1.78.91,3.54,1.31,5.36l-1.92,2a25.45,25.45,0,0,1-2,1.9,25,25,0,0,0,.78-2.55l-6.27-1.92,1.08-3.81,6.36,1.62A25.29,25.29,0,0,0,584.83,195.54Z"/><path class="cls-7" d="M578.7,213.7c.12,1.8.3,3.69.26,5.49-1.54,1-3.07,2.05-4.57,3l1.23-2.35-5.78-3.1c.61-1.18,1.29-2.31,1.84-3.52l5.9,2.87Z"/><path class="cls-7" d="M569.32,230.23q-.3,2.66-.68,5.4c-1.61.81-3.35,1.45-5,2.14l1.63-2.05-5.18-4c.87-1,1.57-2.13,2.36-3.19l5.32,3.85Z"/><path class="cls-7" d="M557.46,244.85c-.4,1.78-.91,3.47-1.43,5.2l-5.18,1.43,1.84-1.84-4.56-4.71,2.83-2.78,4.69,4.58C556.29,246.14,556.86,245.48,557.46,244.85Z"/><path class="cls-7" d="M543.83,257.62l-2,4.95c-1.75.33-3.54.54-5.31.76l2.07-1.54-4-5.23c1-.8,2.07-1.65,3.1-2.47l4.11,5.12Z"/><path class="cls-7" d="M528.89,268.63c-.81,1.56-1.63,3.17-2.49,4.73l-5.34.18,2.18-1.34-3.42-5.6c1.13-.68,2.27-1.35,3.37-2.1l3.54,5.52Z"/><path class="cls-7" d="M513,278.08c-.94,1.51-1.9,3-2.91,4.45l-5.3-.27,2.28-1.16-2.92-5.88,3.56-1.76,3,5.82Z"/><path class="cls-7" d="M496.46,286.09c-1,1.44-2.14,2.8-3.25,4.18l-5.24-.69,2.35-1-2.44-6.09,3.68-1.48,2.55,6C494.9,286.78,495.68,286.42,496.46,286.09Z"/><path class="cls-7" d="M479.36,292.76c-1.14,1.36-2.33,2.62-3.53,3.92l-5.17-1.06,2.41-.81-2-6.25,3.78-1.22,2.1,6.22C477.76,293.32,478.56,293,479.36,292.76Z"/><path class="cls-7" d="M461.87,298.18c-1.23,1.27-2.5,2.47-3.78,3.68L453,300.44l2.46-.64-1.58-6.36,3.85-1,1.67,6.34C460.24,298.64,461.05,298.39,461.87,298.18Z"/><path class="cls-7" d="M444.09,302.42c-1.32,1.17-2.65,2.35-4,3.45l-5-1.75,2.49-.47-1.18-6.46,3.91-.71,1.27,6.44Z"/><path class="cls-7" d="M426.09,305.55l-4.19,3.23L417,306.71l2.51-.31-.79-6.51c1.32-.14,2.63-.3,3.94-.51l.88,6.51Z"/><path class="cls-7" d="M408,307.61l-4.36,3c-1.59-.73-3.17-1.52-4.74-2.31l2.53-.15-.42-6.55,4-.32.5,6.55Z"/><polygon class="cls-7" points="389.75 308.65 385.23 311.32 380.64 308.79 383.17 308.73 383.12 302.16 387.09 302.1 387.22 308.66 389.75 308.65"/><path class="cls-7" d="M371.52,308.65c-1.54.86-3.1,1.62-4.66,2.42l-4.45-2.81,2.53.09.32-6.56,4,.19-.23,6.56C369.83,308.6,370.68,308.63,371.52,308.65Z"/><path class="cls-7" d="M353.31,307.61c-1.59.73-3.19,1.51-4.8,2.2l-4.28-3.1,2.53.26.68-6.53c1.32.14,2.63.32,3.95.41l-.6,6.53Z"/><path class="cls-7" d="M335.18,305.55l-4.92,1.91c-1.39-1.06-2.75-2.23-4.1-3.34l2.5.42,1.08-6.47c1.3.25,2.61.4,3.92.6l-1,6.49Z"/><path class="cls-7" d="M317.19,302.42l-5,1.59-2-1.75-1.93-1.82c.83.19,1.65.4,2.48.58l1.47-6.4,3.88.83-1.38,6.42Z"/><path class="cls-7" d="M299.4,298.18l-5.13,1.24c-1.23-1.26-2.47-2.48-3.66-3.8.81.25,1.62.51,2.44.72l1.89-6.29,3.81,1.09L297,297.46Z"/><path class="cls-7" d="M281.91,292.76l-5.21.87c-1.15-1.34-2.3-2.64-3.4-4.05.79.32,1.59.63,2.39.89l2.32-6.13,3.73,1.35-2.22,6.17Z"/><path class="cls-7" d="M264.81,286.09l-5.27.48c-1.06-1.41-2.1-2.83-3.09-4.31.78.36,1.53.75,2.32,1.09l2.78-6,3.62,1.63-2.68,6Z"/><path class="cls-7" d="M248.25,278.08l-5.33.05c-.95-1.47-1.82-3.06-2.71-4.59l2.22,1.3,3.28-5.69c1.13.69,2.31,1.29,3.47,1.93L246,276.83Z"/><path class="cls-7" d="M232.38,268.63c-1.76-.14-3.56-.25-5.34-.45l-2.26-4.85,2.1,1.49,3.82-5.34c1.07.78,2.13,1.57,3.25,2.28l-3.7,5.43Z"/><path class="cls-7" d="M217.44,257.62c-1.78-.28-3.48-.7-5.25-1.09-.61-1.7-1.2-3.37-1.77-5l2,1.71,4.4-4.88,3,2.64-4.26,5C216.11,256.53,216.77,257.08,217.44,257.62Z"/><path class="cls-7" d="M203.81,244.85c-1.69-.56-3.39-1.14-5.12-1.75-.44-1.74-.72-3.58-1.06-5.33l1.67,2,5-4.24c.81,1.05,1.76,2,2.63,3l-4.87,4.4Z"/><path class="cls-7" d="M192,230.23c-1.67-.76-3.19-1.68-4.79-2.58-.11-1.85-.28-3.61-.28-5.44.41.78.91,1.51,1.38,2.25l5.62-3.39,2.1,3.36L190.5,228C190.94,228.8,191.44,229.52,192,230.23Z"/><path class="cls-7" d="M182.57,213.7,180.39,212c-.73-.57-1.46-1.15-2.13-1.77q.36-2.79.77-5.46l.94,2.5,6.16-2.28.68,1.87.34.93.41.9-6.05,2.55Z"/><path class="cls-7" d="M176.44,195.54c-1.16-1.38-2.33-2.82-3.51-4.3.57-1.77,1.29-3.52,1.94-5.21l.35,2.66,6.5-.93a32.26,32.26,0,0,0,.67,3.91l-6.45,1.24Z"/><path class="cls-7" d="M174.28,176.4q-1.22-2.42-2.41-5c.48-.8.92-1.6,1.42-2.37l1.58-2.29-.29,2.66,6.55.53-.16,4-6.56-.2Z"/><path class="cls-7" d="M176.44,157.26a54.53,54.53,0,0,1-1.3-5.37l1.91-2a27.37,27.37,0,0,1,2-1.9,24.26,24.26,0,0,0-.78,2.55l6.27,1.92-1.08,3.81-6.36-1.62C176.81,155.51,176.63,156.38,176.44,157.26Z"/><path class="cls-7" d="M182.57,139.1c-.12-1.8-.29-3.69-.26-5.5,1.54-1,3.07-2,4.57-3l-1.23,2.34,5.78,3.11c-.6,1.17-1.29,2.31-1.84,3.51l-5.9-2.86Z"/><path class="cls-7" d="M192,122.57q.3-2.67.68-5.4c1.61-.81,3.36-1.45,5-2.14l-1.63,2,5.18,4c-.86,1-1.57,2.13-2.36,3.18l-5.32-3.84Z"/><path class="cls-7" d="M203.81,107.94c.4-1.77.91-3.46,1.44-5.19l5.17-1.44-1.84,1.84,4.57,4.72-2.83,2.78-4.7-4.58C205,106.66,204.41,107.31,203.81,107.94Z"/><path class="cls-7" d="M217.44,95.18l2-5c1.75-.32,3.54-.54,5.31-.75L222.71,91l4,5.22c-1,.81-2.06,1.65-3.1,2.48l-4.1-5.12Z"/><path class="cls-7" d="M232.38,84.17c.81-1.57,1.63-3.18,2.49-4.74l5.34-.17L238,80.6l3.42,5.6c-1.13.68-2.27,1.35-3.36,2.1l-3.55-5.52Z"/><path class="cls-7" d="M248.25,74.72c.93-1.51,1.89-3,2.9-4.45l5.3.27-2.28,1.16,2.92,5.88-3.55,1.76-3-5.82Z"/><path class="cls-7" d="M264.81,66.71c1.05-1.44,2.14-2.8,3.25-4.18l5.24.69-2.35,1,2.45,6.08-3.69,1.49-2.54-6C266.37,66,265.59,66.37,264.81,66.71Z"/><path class="cls-7" d="M281.91,60c1.14-1.36,2.34-2.62,3.53-3.92l5.17,1.06L288.2,58l2,6.25-3.78,1.22-2.1-6.22C283.51,59.48,282.71,59.76,281.91,60Z"/><path class="cls-7" d="M299.4,54.62c1.24-1.27,2.5-2.47,3.78-3.68l5.08,1.41L305.8,53l1.59,6.37-3.86,1L301.86,54C301,54.16,300.22,54.4,299.4,54.62Z"/><path class="cls-7" d="M317.19,50.38c1.31-1.17,2.64-2.35,4-3.45l5,1.75-2.49.47,1.18,6.45-3.91.71-1.26-6.44Z"/><path class="cls-7" d="M335.18,47.25,339.37,44l4.86,2.07-2.51.31.79,6.51c-1.32.14-2.63.3-3.94.5l-.88-6.5Z"/><path class="cls-7" d="M353.31,45.19l4.37-3c1.58.72,3.16,1.51,4.73,2.31l-2.53.15.42,6.55-4,.31-.5-6.54Z"/><polygon class="cls-7" points="371.52 44.15 376.04 41.48 380.64 44.01 378.1 44.07 378.15 50.63 374.18 50.7 374.05 44.14 371.52 44.15"/><path class="cls-7" d="M389.75,44.15c1.55-.86,3.1-1.62,4.67-2.42l4.44,2.81-2.53-.09L396,51l-4-.19.23-6.56C391.44,44.2,390.6,44.17,389.75,44.15Z"/><path class="cls-7" d="M408,45.19c1.59-.73,3.19-1.51,4.8-2.2l4.28,3.1-2.52-.26-.69,6.53c-1.32-.14-2.63-.32-3.95-.41l.6-6.53Z"/><path class="cls-7" d="M426.09,47.25,431,45.34c1.38,1.06,2.74,2.23,4.09,3.34l-2.5-.42-1.07,6.47c-1.3-.25-2.62-.4-3.93-.6l1-6.49Z"/><path class="cls-7" d="M444.09,50.38l5-1.59,2,1.75L453,52.35l-2.47-.57-1.47,6.4-3.89-.83,1.38-6.42Z"/><path class="cls-7" d="M461.87,54.62,467,53.38c1.24,1.26,2.47,2.48,3.66,3.8-.81-.25-1.62-.51-2.44-.72l-1.88,6.28-3.82-1.08,1.79-6.32Z"/><path class="cls-7" d="M479.36,60l5.21-.88c1.15,1.35,2.3,2.65,3.4,4.06-.79-.32-1.58-.63-2.39-.9l-2.32,6.14-3.73-1.35,2.22-6.18Z"/><path class="cls-7" d="M496.46,66.71l5.28-.48c1.05,1.41,2.09,2.83,3.08,4.31-.77-.36-1.53-.75-2.31-1.09l-2.79,5.94-3.62-1.62,2.68-6Z"/><path class="cls-7" d="M513,74.72l5.32,0c.95,1.47,1.83,3.06,2.71,4.59L518.84,78l-3.28,5.68c-1.13-.68-2.31-1.28-3.47-1.92L515.26,76Z"/><path class="cls-7" d="M528.89,84.17c1.76.14,3.56.25,5.34.44l2.26,4.86L534.39,88l-3.82,5.34c-1.07-.78-2.12-1.58-3.24-2.29L531,85.61Z"/><path class="cls-7" d="M543.83,95.18c1.78.28,3.49.69,5.25,1.08.61,1.7,1.21,3.38,1.77,5l-2-1.7-4.4,4.87-3-2.63,4.26-5C545.16,96.27,544.5,95.72,543.83,95.18Z"/><path class="cls-7" d="M557.46,107.94c1.69.57,3.4,1.15,5.12,1.76.44,1.73.73,3.58,1.06,5.33L562,113l-5,4.24c-.8-1.05-1.75-2-2.63-3l4.87-4.4Z"/><path class="cls-7" d="M569.32,122.57c1.67.76,3.19,1.68,4.8,2.58.1,1.85.27,3.61.27,5.44-.41-.79-.91-1.51-1.38-2.25l-5.62,3.39-2.1-3.37,5.48-3.6C570.33,124,569.83,123.28,569.32,122.57Z"/><path class="cls-7" d="M578.7,139.1l2.18,1.67c.74.56,1.46,1.14,2.13,1.76-.24,1.86-.49,3.69-.77,5.47l-.94-2.5-6.15,2.27-.69-1.86-.34-.93-.4-.9,6-2.55Z"/><path class="cls-7" d="M584.83,157.26c1.16,1.38,2.34,2.82,3.51,4.29-.57,1.78-1.29,3.53-1.94,5.22l-.35-2.66-6.5.92a34.14,34.14,0,0,0-.66-3.9l6.44-1.24Z"/><ellipse class="cls-4" cx="217.88" cy="181.25" rx="170.92" ry="120.25"/><path class="cls-8" d="M435.89,123.79l-.35,33h-50.3c-12.05-41-53.76-74.39-108.67-88.51-47.21,27.3-76.41,65-76.41,106.62,0,46,35.59,87.11,91.7,114.79,45.63-15.44,80-44.72,92.14-80.1h51.54l.35,33L469,183.19Z"/><path class="cls-9" d="M488.89,217.8l-.31-2.5h-1.89l-.31,2.5h-2.51l1.89-12.59h3.79l1.89,12.59Zm-1.19-10.12h-.13l-.64,5.4h1.41Z"/><path class="cls-9" d="M494.14,217.8V205.21h2.51v10.27H499v2.32Z"/><path class="cls-9" d="M504.85,212.64v-2.21h3v7.14a8.9,8.9,0,0,1-1.35.27A12,12,0,0,1,505,218a3.78,3.78,0,0,1-2.2-.52,2.93,2.93,0,0,1-1-1.87,21.3,21.3,0,0,1-.28-4.05,20.2,20.2,0,0,1,.3-4.07,2.89,2.89,0,0,1,1.09-1.86,4.35,4.35,0,0,1,2.38-.52,9.52,9.52,0,0,1,1.34.1,8.05,8.05,0,0,1,1.26.27v2.1a14.39,14.39,0,0,0-1.94-.18,3.11,3.11,0,0,0-1.33.19,1.35,1.35,0,0,0-.48,1,21.58,21.58,0,0,0-.13,3c0,1.35,0,2.31.06,2.86a2.2,2.2,0,0,0,.29,1.11.89.89,0,0,0,.73.27,2.63,2.63,0,0,0,.57-.05v-3.06Z"/><path class="cls-9" d="M511.75,217.38a2.65,2.65,0,0,1-.86-1.78,52.48,52.48,0,0,1,0-8.19,2.67,2.67,0,0,1,.86-1.78,5,5,0,0,1,4.63,0,2.67,2.67,0,0,1,.85,1.79,52.23,52.23,0,0,1,0,8.17,2.64,2.64,0,0,1-.85,1.79,5,5,0,0,1-4.63,0Zm2.88-1.91a2.12,2.12,0,0,0,.19-1c0-.52,0-1.52,0-3s0-2.48,0-3a2.12,2.12,0,0,0-.19-1,1,1,0,0,0-1.14,0,2.27,2.27,0,0,0-.19,1c0,.52,0,1.52,0,3s0,2.47,0,3a2.27,2.27,0,0,0,.19,1,1,1,0,0,0,1.14,0Z"/><path class="cls-9" d="M520.35,205.21h3.57c1.82,0,2.73,1,2.73,3.16a4.79,4.79,0,0,1-.35,2,1.76,1.76,0,0,1-1.11.92v.07a1.87,1.87,0,0,1,1.2.88,4.6,4.6,0,0,1,.37,2.15,4,4,0,0,1-.67,2.52,2.57,2.57,0,0,1-2.15.84h-3.59Zm3.57,5a.6.6,0,0,0,.24-.39,4.12,4.12,0,0,0,.08-.93,5.23,5.23,0,0,0-.06-.95.48.48,0,0,0-.23-.37,1.26,1.26,0,0,0-.56-.09h-.56v2.83h.56A1,1,0,0,0,523.92,210.23Zm0,5.2a.53.53,0,0,0,.22-.39,5.79,5.79,0,0,0,.06-1,4.45,4.45,0,0,0-.08-1,.63.63,0,0,0-.24-.4,1,1,0,0,0-.53-.1h-.56v3h.56A1.13,1.13,0,0,0,524,215.43Z"/><path class="cls-9" d="M530.49,217.38a2.64,2.64,0,0,1-.85-1.78,49.41,49.41,0,0,1,0-8.19,2.66,2.66,0,0,1,.85-1.78,5,5,0,0,1,4.63,0,2.67,2.67,0,0,1,.85,1.79,49.17,49.17,0,0,1,0,8.17,2.64,2.64,0,0,1-.85,1.79,5,5,0,0,1-4.63,0Zm2.88-1.91a2.12,2.12,0,0,0,.19-1c0-.52.05-1.52.05-3s0-2.48-.05-3a2.12,2.12,0,0,0-.19-1,.65.65,0,0,0-.56-.19.67.67,0,0,0-.57.19,2.12,2.12,0,0,0-.19,1c0,.52,0,1.52,0,3s0,2.47,0,3a2.12,2.12,0,0,0,.19,1,.67.67,0,0,0,.57.19A.65.65,0,0,0,533.37,215.47Z"/><path class="cls-9" d="M540.52,217.8V207.53h-1.85v-2.32h6.2v2.32H543V217.8Z"/><path class="cls-9" d="M548.88,217.86a9.72,9.72,0,0,1-1.33-.24v-2.07a20.29,20.29,0,0,0,2,.11,4.46,4.46,0,0,0,.75,0,.57.57,0,0,0,.37-.21,1.21,1.21,0,0,0,.16-.43,4.73,4.73,0,0,0,0-.73,7.42,7.42,0,0,0,0-1,.64.64,0,0,0-.25-.43,1.82,1.82,0,0,0-.69-.25l-1.33-.31a1.31,1.31,0,0,1-.93-1,8.13,8.13,0,0,1-.26-2.36,5.86,5.86,0,0,1,.39-2.41,2.15,2.15,0,0,1,1.09-1.13,4.73,4.73,0,0,1,1.78-.29,9,9,0,0,1,1.55.12,4.49,4.49,0,0,1,.83.19v2.09a2.15,2.15,0,0,0-.56-.07c-.33,0-.69,0-1.09,0a6,6,0,0,0-.85,0,.62.62,0,0,0-.4.22.75.75,0,0,0-.19.41,5,5,0,0,0,0,.78,5.26,5.26,0,0,0,0,.8.65.65,0,0,0,.18.38,1,1,0,0,0,.43.19l1.16.27a2.48,2.48,0,0,1,.9.41,1.86,1.86,0,0,1,.6,1,6.7,6.7,0,0,1,.22,2,7.29,7.29,0,0,1-.38,2.68,2.08,2.08,0,0,1-1,1.18,4.53,4.53,0,0,1-1.76.28A11.92,11.92,0,0,1,548.88,217.86Z"/><path class="cls-2" d="M488.69,236.21a7.61,7.61,0,0,1-.79,0,3.25,3.25,0,0,1-1.95-.47,2.81,2.81,0,0,1-.84-1.79,39.73,39.73,0,0,1,0-8.35,2.81,2.81,0,0,1,.84-1.79,3.11,3.11,0,0,1,1.95-.49,4.81,4.81,0,0,1,.83.07,2.58,2.58,0,0,1,.67.17v.88a4.93,4.93,0,0,0-1.34-.18,2.27,2.27,0,0,0-1.45.35,2.16,2.16,0,0,0-.56,1.44,53.15,53.15,0,0,0,0,7.43,2.16,2.16,0,0,0,.56,1.44,2.26,2.26,0,0,0,1.45.36,5,5,0,0,0,.73-.06,5.3,5.3,0,0,0,.64-.12v.91A5,5,0,0,1,488.69,236.21Z"/><path class="cls-2" d="M492.2,235.79a2.63,2.63,0,0,1-.82-1.76,46.74,46.74,0,0,1,0-8.42,2.6,2.6,0,0,1,.82-1.76,4.62,4.62,0,0,1,4.1,0,2.65,2.65,0,0,1,.81,1.76,44.41,44.41,0,0,1,0,8.42,2.67,2.67,0,0,1-.81,1.76,4.71,4.71,0,0,1-4.1,0Zm3.4-.75a2.1,2.1,0,0,0,.53-1.4,48.84,48.84,0,0,0,0-7.65,2.07,2.07,0,0,0-.53-1.39,2.27,2.27,0,0,0-1.35-.29,2.3,2.3,0,0,0-1.36.29,2.18,2.18,0,0,0-.53,1.4,48.72,48.72,0,0,0,0,7.64,2.23,2.23,0,0,0,.53,1.4,2.38,2.38,0,0,0,1.36.29A2.35,2.35,0,0,0,495.6,235Z"/><path class="cls-2" d="M506.62,236.12V225.48h-.1l-2.38,10.64H503l-2.34-10.64h-.09v10.64h-1v-12.6h1.52l2.42,10.8h.1l2.44-10.8h1.48v12.6Z"/><path class="cls-2" d="M517.1,236.12V225.48H517l-2.38,10.64h-1.1l-2.34-10.64h-.09v10.64h-1v-12.6h1.52l2.41,10.8h.11l2.44-10.8h1.48v12.6Z"/><path class="cls-2" d="M526.29,223.52v7.18a26.59,26.59,0,0,1-.16,3.52,2.41,2.41,0,0,1-.76,1.57,3.16,3.16,0,0,1-1.93.47,3.22,3.22,0,0,1-2-.47,2.41,2.41,0,0,1-.76-1.57,28.48,28.48,0,0,1-.16-3.52v-7.18h1v7.8a19.73,19.73,0,0,0,.11,2.59,1.71,1.71,0,0,0,.48,1.1,2,2,0,0,0,1.28.32,2,2,0,0,0,1.25-.32,1.71,1.71,0,0,0,.48-1.1,19.73,19.73,0,0,0,.11-2.59v-7.8Z"/><path class="cls-2" d="M533.44,236.12l-3.64-10h-.08v10h-1v-12.6h1.08l3.61,9.89h.07v-9.89h1v12.6Z"/><path class="cls-2" d="M537,236.12v-12.6h1v12.6Z"/><path class="cls-2" d="M542.36,236.12V224.47h-2.3v-.95h5.64v.95h-2.31v11.65Z"/><path class="cls-2" d="M549.77,236.12v-5l-2.64-7.6h1l2.08,6.28h.11l2.09-6.28h1l-2.67,7.6v5Z"/><circle class="cls-2" cx="519.55" cy="162.64" r="26.95"/><path class="cls-7" d="M532.29,157.08c2.63-4.44,3.76-10.58.58-12.86s-8.31.63-12.09,4.87c-2.51-4.57-7.28-8.61-10.8-7s-3.6,8.17-1.82,12.67c-5.17,0-10.89,2.07-11.25,5.87s5.19,7.15,9.95,7.9c-2.62,4.43-3.73,10.51-.55,12.77s8.86-1.11,11.94-4.81c2.52,4.52,7.3,8.59,10.87,6.95s3.47-8,1.88-12.52c5.07,0,10.71-2.11,11.08-5.91S537.66,158.3,532.29,157.08ZM524,164.45c1,1.41,1.44,3.1.51,3.85s-2.7-.1-3.8-1.23a12.86,12.86,0,0,0-3.8-1.39c-1.46.14-3.44-.34-3.65-1.5s1.39-2.22,2.94-2.58a11.84,11.84,0,0,0,3.11-2.52c.55-1.33,2-2.74,3.13-2.33s1.29,2.36.81,3.86A11.64,11.64,0,0,0,524,164.45Zm-10.46-19.06c2.32-.79,5,1.26,6.82,4a10.65,10.65,0,0,1-1,.69c-2-2.55-4.81-4.31-7-3.32a2.83,2.83,0,0,0-.95.69A3.8,3.8,0,0,1,513.58,145.39Zm5,5.2c-1.26.72-3.2,1.73-4.78,2.46a4.42,4.42,0,0,1,2.07-3.05A2.91,2.91,0,0,1,518.59,150.59Zm-16.72,10.73a3.47,3.47,0,0,1-.31-2.16c.46-2.37,3.48-3.65,6.75-3.89a7.11,7.11,0,0,1,.12,1.33c-3.29.46-6.33,2-6.56,4.41C501.86,161.12,501.87,161.22,501.87,161.32Zm2.87.45c.15-2.62,4.09-4.15,7.53-4.19.81,0,4.33-1.66,6.39-2.9a7.55,7.55,0,0,0-.32.72c-.34.87-4.7,4.61-5.59,4.85-2.8.73-5.7,2.79-5.28,5a1.8,1.8,0,0,0,.06.22C505.88,164.53,504.65,163.26,504.74,161.77Zm2.71,15c-1.91-1.66-1.4-5.08.14-8.11a10.61,10.61,0,0,1,1.42.7c-1.26,3.09-1.49,6.52.54,8a3.32,3.32,0,0,0,.51.23A3.67,3.67,0,0,1,507.45,176.8Zm3.12-4a3.62,3.62,0,0,1-.76-2.92c1.37.83,3.19,2.12,4.67,3.22C513,173.56,511.45,173.64,510.57,172.78Zm15.19,7.42c-2.4.82-5.12-1.33-7-4.19.27-.2.62-.42,1-.67,2,2.58,4.87,4.43,7.1,3.41a3,3,0,0,0,.77-.55A3.32,3.32,0,0,1,525.76,180.2Zm.64-4.16c-2.35,1.17-5.66-1.5-7.41-4.47-.37-.63-3-2.49-5-3.7l.21,0c.91-.11,6.3,1.77,6.94,2.42,2,2.06,5.29,3.56,7,2.13l.17-.18C528.2,174,527.67,175.4,526.4,176Zm1.28-17.25c-.4.67-.63,4.17-.59,6.55l-.08-.12c-.54-.77-1.71-6.25-1.45-7.15.83-2.83.5-6.44-1.58-7.17a2.1,2.1,0,0,0-.9-.1c1.69-1.1,3.55-1.6,4.86-.74C530.13,151.5,529.46,155.77,527.68,158.79Zm2.16-10.54c-.11-.07-.24-.1-.36-.17a3.1,3.1,0,0,1,2.47.72c1.91,1.67,1.38,5.12-.17,8.16a6.28,6.28,0,0,1-1.44-.64C531.62,153.2,531.87,149.71,529.84,148.25Zm1.25,14.48c1.3,1.08,2.07,2.35,1.73,3.65a3.18,3.18,0,0,1-2.11,2A55.72,55.72,0,0,1,531.09,162.73Zm6.59,3.78c-.48,2.41-3.54,3.68-6.84,3.91a7.09,7.09,0,0,1-.13-1.31c3.34-.44,6.47-2,6.71-4.45a1.88,1.88,0,0,0,0-.34A3.59,3.59,0,0,1,537.68,166.51Z"/><path d="M78.49,211.89l-.23-1.82H76.9l-.23,1.82H74.86l1.36-9.12H79l1.36,9.12Zm-.86-7.33h-.09l-.47,3.91h1Z"/><path d="M82.56,202.77h2.21a2.71,2.71,0,0,1,1.68.4,1.92,1.92,0,0,1,.61,1.27,34.86,34.86,0,0,1,0,5.78,1.92,1.92,0,0,1-.61,1.27,2.71,2.71,0,0,1-1.68.4H82.56Zm2.21,7.46a.55.55,0,0,0,.43-.13,1.57,1.57,0,0,0,.15-.69c0-.37,0-1.06,0-2.08s0-1.71,0-2.08a1.57,1.57,0,0,0-.15-.69.55.55,0,0,0-.43-.13h-.41v5.8Z"/><path d="M90.43,211.89l-1.23-9.12H91l.76,7.24h.13l.7-7.24h1.8l-1.23,9.12Z"/><path d="M99.55,211.89l-.22-1.82H98l-.23,1.82H95.92l1.36-9.12H100l1.36,9.12Zm-.86-7.33H98.6l-.47,3.91h1Z"/><path d="M106.81,211.89l-1.42-4.57h0v4.57h-1.72v-9.12h1.68l1.3,4.14h.06v-4.14h1.74v9.12Z"/><path d="M113.86,211.93a3.91,3.91,0,0,1-.67.07,2.36,2.36,0,0,1-1.56-.43,2.14,2.14,0,0,1-.66-1.37,18.36,18.36,0,0,1-.16-2.87,18,18,0,0,1,.17-2.86,2.25,2.25,0,0,1,.67-1.38,2.3,2.3,0,0,1,1.54-.43,4.17,4.17,0,0,1,.71.06,1.94,1.94,0,0,1,.51.14v1.53a5.75,5.75,0,0,0-.88-.07.9.9,0,0,0-.63.17,1.28,1.28,0,0,0-.22.74c0,.37,0,1.07,0,2.1s0,1.73,0,2.1a1.28,1.28,0,0,0,.22.74.9.9,0,0,0,.63.17,5,5,0,0,0,.91-.07v1.49A2.24,2.24,0,0,1,113.86,211.93Z"/><path d="M116.76,211.89v-9.12h3.66v1.66h-1.84v2h1.62v1.66h-1.62v2.12h1.84v1.66Z"/><path d="M122.81,202.77H125a2.73,2.73,0,0,1,1.68.4,1.92,1.92,0,0,1,.61,1.27,34.86,34.86,0,0,1,0,5.78,1.92,1.92,0,0,1-.61,1.27,2.73,2.73,0,0,1-1.68.4h-2.21Zm2.21,7.46a.55.55,0,0,0,.43-.13,1.57,1.57,0,0,0,.15-.69c0-.37,0-1.06,0-2.08s0-1.71,0-2.08a1.57,1.57,0,0,0-.15-.69.55.55,0,0,0-.43-.13h-.41v5.8Z"/><path class="cls-2" d="M83.6,227.8l-1.25-3.18H77.18l-1.26,3.18h-1l4.3-11h1.22l4.3,11Zm-3.8-9.75h-.08l-2.21,5.61H82Z"/><path class="cls-2" d="M87.58,227.8v-11h1v10h5.31v1Z"/><path class="cls-2" d="M100.6,223V222h3.72v5.58c-.52.09-1.1.16-1.74.22s-1.2.09-1.68.09a7.68,7.68,0,0,1-2.94-.42A2.34,2.34,0,0,1,96.67,226a13.63,13.63,0,0,1-.35-3.62,13.27,13.27,0,0,1,.36-3.63,2.33,2.33,0,0,1,1.3-1.57,7.84,7.84,0,0,1,2.92-.4c.53,0,1.12,0,1.75.08a16.25,16.25,0,0,1,1.63.22v.91a20.09,20.09,0,0,0-2.8-.26,11.2,11.2,0,0,0-2.73.22,1.64,1.64,0,0,0-1.09,1.16,11.61,11.61,0,0,0-.32,3.27,13.71,13.71,0,0,0,.24,3.07,1.79,1.79,0,0,0,1,1.26,6.14,6.14,0,0,0,2.37.33c.34,0,.76,0,1.25-.05s.88-.07,1.19-.11V223Z"/><path class="cls-2" d="M108.9,227.52a2,2,0,0,1-1.14-1.48,27.73,27.73,0,0,1,0-7.43,2,2,0,0,1,1.14-1.48,11.71,11.71,0,0,1,6.07,0,2,2,0,0,1,1.14,1.48,27.73,27.73,0,0,1,0,7.43,2,2,0,0,1-1.14,1.48,11.44,11.44,0,0,1-6.07,0Zm5.41-.78a1.37,1.37,0,0,0,.83-1.11,27.41,27.41,0,0,0,0-6.61,1.41,1.41,0,0,0-.83-1.11,12.38,12.38,0,0,0-4.75,0,1.41,1.41,0,0,0-.83,1.11,27.41,27.41,0,0,0,0,6.61,1.37,1.37,0,0,0,.83,1.11,12.38,12.38,0,0,0,4.75,0Z"/><path class="cls-2" d="M121.49,227.87c-.7,0-1.31-.09-1.82-.15v-1c.56.06,1.17.1,1.83.15s1.22.06,1.66.06a10.25,10.25,0,0,0,1.39-.07,2.45,2.45,0,0,0,.9-.3,1,1,0,0,0,.48-.64,4.5,4.5,0,0,0,.12-1.15,6.66,6.66,0,0,0-.08-1.24.72.72,0,0,0-.43-.5,4.09,4.09,0,0,0-1.2-.25l-2.79-.3a3,3,0,0,1-1.45-.45,1.53,1.53,0,0,1-.61-.88,6.37,6.37,0,0,1-.13-1.47,3.5,3.5,0,0,1,.42-1.9A2.07,2.07,0,0,1,121,217a8.56,8.56,0,0,1,2.2-.22c.61,0,1.23,0,1.85.06a12,12,0,0,1,1.47.17v.91c-.42-.05-.93-.1-1.53-.13s-1.14-.06-1.63-.06a8.93,8.93,0,0,0-1.52.1,2.37,2.37,0,0,0-.9.3,1,1,0,0,0-.46.6,3.67,3.67,0,0,0-.11,1,3.87,3.87,0,0,0,.1,1.05.78.78,0,0,0,.4.5,2.89,2.89,0,0,0,.94.23l2.71.28a6.1,6.1,0,0,1,1.61.34,1.34,1.34,0,0,1,.76.86,6.43,6.43,0,0,1,.17,1.75,4.07,4.07,0,0,1-.43,2.12,1.84,1.84,0,0,1-1.17.88,8.26,8.26,0,0,1-2,.2Q122.54,227.93,121.49,227.87Z"/><path class="cls-2" d="M100,176.66a17.7,17.7,0,0,1,5.77.93c1.88,1.32,4.63,2,5.74.68s0-3.68-1.82-5.46a17.52,17.52,0,0,1-2.14-5.39c.26-2.33-.51-5.11-2.24-5.38s-3.36,2.19-3.78,4.3a17,17,0,0,1-3.69,4.57c-2.08,1-4.06,3-3.43,4.62S98,177.28,100,176.66Z"/><path class="cls-2" d="M107.76,152.64c2.82.12,4,5.84,3.54,10.32-.14,1.42,3.17,9.43,3.75,10.75a4.39,4.39,0,0,0,1.82,1.82c-2.14-5.8-2.33-10.45-1.93-11.54,1.82-5,1-11.82-1.71-13.4-1.85-1.06-5.89-1.49-8.46,2.74A4.2,4.2,0,0,1,107.76,152.64Z"/><path class="cls-2" d="M85.3,177c-1.3-2.49,3.06-6.38,7.17-8.22,1.3-.59,6.58-7.46,7.43-8.62a4.38,4.38,0,0,0,.67-2.49c-3.95,4.75-7.89,7.24-9,7.45-5.28.94-10.75,5-10.74,8.17,0,2.14,1.64,5.84,6.59,6A4.18,4.18,0,0,1,85.3,177Z"/><path class="cls-2" d="M117.78,184.76c-1.51,2.38-7,.55-10.7-2.09-1.16-.84-9.75-2-11.18-2.13a4.35,4.35,0,0,0-2.49.67c6.09,1,10.22,3.21,11,4.09,3.45,4.1,9.73,6.8,12.46,5.22,1.84-1.07,4.23-4.35,1.86-8.69A4.17,4.17,0,0,1,117.78,184.76Z"/><path d="M287.75,269.42c-1.19-.12-2.24-.27-3.15-.43v-4q3.43.34,5.77.34a11.75,11.75,0,0,0,1.77-.09,1.06,1.06,0,0,0,.76-.43,2.2,2.2,0,0,0,.23-1.15,3,3,0,0,0-.18-1.22.91.91,0,0,0-.61-.5,5.52,5.52,0,0,0-1.35-.12h-3.07v-4.21H291a4.81,4.81,0,0,0,1.27-.13.85.85,0,0,0,.55-.46,2.8,2.8,0,0,0,.16-1.09,2.41,2.41,0,0,0-.2-1.14,1,1,0,0,0-.74-.42,16.22,16.22,0,0,0-1.93-.08c-.79,0-1.69,0-2.71.11s-1.91.16-2.67.25v-4c.87-.17,1.89-.31,3.08-.43A31.53,31.53,0,0,1,291,250a15.1,15.1,0,0,1,4.63.57,4.48,4.48,0,0,1,2.42,1.67,5,5,0,0,1,.73,2.8,4.91,4.91,0,0,1-.81,3.07,4.42,4.42,0,0,1-2.54,1.45v.11a5.83,5.83,0,0,1,2,.77,3.08,3.08,0,0,1,1.13,1.39,6.28,6.28,0,0,1,.39,2.44,5.87,5.87,0,0,1-.67,2.94,4.32,4.32,0,0,1-2.4,1.78,14.83,14.83,0,0,1-4.88.63Q289.53,269.6,287.75,269.42Z"/><path d="M99.91,124.61V111L96.5,112.4v-4.35l5.22-2.62h3.93v19.18Z"/><path d="M518,120.26h8.89v4.35H512.57v-2.79a30.4,30.4,0,0,1,.16-3.67,4.08,4.08,0,0,1,2.85-3.55c.87-.37,1.8-.74,2.79-1.12l1.25-.5a6.23,6.23,0,0,0,1.06-.51,1,1,0,0,0,.4-.53,3.52,3.52,0,0,0,.1-1,1.58,1.58,0,0,0-.22-1,1.16,1.16,0,0,0-.77-.39,10,10,0,0,0-1.71-.1,48.67,48.67,0,0,0-5.52.42v-4.07a32.5,32.5,0,0,1,3.37-.46q1.95-.18,3.57-.18a14.6,14.6,0,0,1,3.71.39,4.34,4.34,0,0,1,2.41,1.58,5.76,5.76,0,0,1,.9,3.49,7.61,7.61,0,0,1-.78,3.86,4.33,4.33,0,0,1-2.28,1.85l-2.46,1c-.31.13-.65.27-1,.4l-1.1.41-.69.32a.84.84,0,0,0-.35.32,1.43,1.43,0,0,0-.18.5,5.39,5.39,0,0,0,0,.78Z"/><path class="cls-3" d="M252.76,149.93l-.78-3.64h-3.09l-.76,3.64h-1l2.69-12.39h1.29l2.68,12.39ZM250.49,139h-.11l-1.33,6.35h2.77Z"/><path class="cls-3" d="M260.51,149.93l-.77-3.64h-3.1l-.75,3.64h-1l2.68-12.39h1.3l2.68,12.39ZM258.24,139h-.1l-1.34,6.35h2.78Z"/><path class="cls-3" d="M269.87,149.93V139.47h-.09l-2.34,10.46h-1.08l-2.3-10.46H264v10.46h-1V137.54h1.5l2.37,10.62H267l2.4-10.62h1.45v12.39Z"/><path class="cls-3" d="M273.28,149.84a1.41,1.41,0,0,1-.68-.8,4.63,4.63,0,0,1-.23-1.63,5.48,5.48,0,0,1,.19-1.6,1.41,1.41,0,0,1,.62-.81,2.64,2.64,0,0,1,1.25-.24q.57,0,2.07.09v-.76a8,8,0,0,0-.14-1.76,1,1,0,0,0-.49-.71,3,3,0,0,0-1.21-.17,9,9,0,0,0-1,.06c-.37,0-.68.09-.93.14v-.83a9.63,9.63,0,0,1,2.16-.22,3.45,3.45,0,0,1,1.58.29,1.59,1.59,0,0,1,.74,1,7.63,7.63,0,0,1,.22,2.13v5.89h-.83l-.07-1.3h-.09a1.63,1.63,0,0,1-.69,1.14,2.45,2.45,0,0,1-1.24.3A2.87,2.87,0,0,1,273.28,149.84Zm2.45-.81a1.11,1.11,0,0,0,.55-.78,8.22,8.22,0,0,0,.22-2v-.7h-1.88a1.91,1.91,0,0,0-.82.13.79.79,0,0,0-.38.52,5,5,0,0,0-.11,1.2,4.11,4.11,0,0,0,.12,1.14.82.82,0,0,0,.4.54,2,2,0,0,0,.88.16A2.45,2.45,0,0,0,275.73,149Z"/><path class="cls-3" d="M280,150a8.74,8.74,0,0,1-.93-.16V149a5.4,5.4,0,0,0,.88.14,10.73,10.73,0,0,0,1.12.05,1.35,1.35,0,0,0,1.18-.44,2.23,2.23,0,0,0,.31-1.3,5.49,5.49,0,0,0-.07-1.07.68.68,0,0,0-.24-.44,1.21,1.21,0,0,0-.54-.17l-1.54-.25a1.3,1.3,0,0,1-1-.64,3.59,3.59,0,0,1-.28-1.66,2.78,2.78,0,0,1,.61-2.08,2.64,2.64,0,0,1,1.85-.57,8.51,8.51,0,0,1,1,.06,3.77,3.77,0,0,1,.82.18v.82a4.52,4.52,0,0,0-.82-.15,9.24,9.24,0,0,0-1.05-.06,1.51,1.51,0,0,0-1.09.36,1.87,1.87,0,0,0-.37,1.33,5.34,5.34,0,0,0,.07,1,.71.71,0,0,0,.24.43,1,1,0,0,0,.5.18l1.5.24a1.91,1.91,0,0,1,.8.3,1.39,1.39,0,0,1,.41.72,6,6,0,0,1,.14,1.46,2.93,2.93,0,0,1-.57,2,2.45,2.45,0,0,1-1.85.6A10.64,10.64,0,0,1,280,150Z"/><path class="cls-3" d="M285.61,149.93v-8.34h-1.12v-.84h1.12v-2.67h.95v2.67h1.31v.84h-1.31v8.34Z"/><path class="cls-3" d="M294.07,145.64h-4.14a15.49,15.49,0,0,0,.12,2.31,1.39,1.39,0,0,0,.51,1,2.26,2.26,0,0,0,1.3.28,10.19,10.19,0,0,0,1-.06,8.24,8.24,0,0,0,1-.15v.83a8.45,8.45,0,0,1-1,.16,9.84,9.84,0,0,1-1.19.07,3.13,3.13,0,0,1-1.79-.41,2.16,2.16,0,0,1-.76-1.37,17.43,17.43,0,0,1-.18-2.94,20.84,20.84,0,0,1,.14-2.94,2.07,2.07,0,0,1,.71-1.37,3,3,0,0,1,1.83-.44,2.59,2.59,0,0,1,1.65.42,2.08,2.08,0,0,1,.62,1.33,22.62,22.62,0,0,1,.14,3Zm-3.57-4a1.26,1.26,0,0,0-.46.92,17,17,0,0,0-.11,2.29h3.22v-.33a12.6,12.6,0,0,0-.12-2.07,1.24,1.24,0,0,0-.44-.84,1.7,1.7,0,0,0-.95-.2A2.16,2.16,0,0,0,290.5,141.68Z"/><path class="cls-3" d="M295.64,140.75h.81l.07,1.72h.09a2.36,2.36,0,0,1,.73-1.47,2.12,2.12,0,0,1,1.36-.4v1a1.69,1.69,0,0,0-1.66.87,6.51,6.51,0,0,0-.45,2.82v4.63h-.95Z"/><path class="cls-3" d="M300.83,150a8.54,8.54,0,0,1-.94-.16V149a5.4,5.4,0,0,0,.88.14,10.85,10.85,0,0,0,1.12.05,1.35,1.35,0,0,0,1.18-.44,2.23,2.23,0,0,0,.31-1.3,5.49,5.49,0,0,0-.07-1.07.72.72,0,0,0-.23-.44,1.31,1.31,0,0,0-.54-.17l-1.55-.25a1.3,1.3,0,0,1-1-.64,3.59,3.59,0,0,1-.28-1.66,2.78,2.78,0,0,1,.61-2.08,2.65,2.65,0,0,1,1.86-.57,8.47,8.47,0,0,1,1,.06,3.77,3.77,0,0,1,.82.18v.82a4.52,4.52,0,0,0-.82-.15,9.24,9.24,0,0,0-1.05-.06,1.51,1.51,0,0,0-1.09.36,1.87,1.87,0,0,0-.37,1.33,4.4,4.4,0,0,0,.08,1,.66.66,0,0,0,.23.43,1,1,0,0,0,.5.18l1.5.24a1.86,1.86,0,0,1,.8.3,1.39,1.39,0,0,1,.41.72,6,6,0,0,1,.14,1.46,2.93,2.93,0,0,1-.57,2,2.44,2.44,0,0,1-1.84.6A10.34,10.34,0,0,1,300.83,150Z"/><path class="cls-3" d="M310.33,149.93V138.48h-2.27v-.94h5.54v.94h-2.26v11.45Z"/><path class="cls-3" d="M318.79,145.64h-4.14a15.49,15.49,0,0,0,.12,2.31,1.39,1.39,0,0,0,.51,1,2.28,2.28,0,0,0,1.3.28,10.19,10.19,0,0,0,1-.06,8.24,8.24,0,0,0,1-.15v.83a8.45,8.45,0,0,1-1,.16,9.73,9.73,0,0,1-1.19.07,3.13,3.13,0,0,1-1.79-.41,2.16,2.16,0,0,1-.76-1.37,17.43,17.43,0,0,1-.18-2.94,20.84,20.84,0,0,1,.14-2.94,2.07,2.07,0,0,1,.71-1.37,3,3,0,0,1,1.83-.44A2.57,2.57,0,0,1,318,141a2.09,2.09,0,0,1,.63,1.33,23.08,23.08,0,0,1,.13,3Zm-3.57-4a1.26,1.26,0,0,0-.46.92,17,17,0,0,0-.11,2.29h3.22v-.33a12.6,12.6,0,0,0-.12-2.07,1.24,1.24,0,0,0-.44-.84,1.7,1.7,0,0,0-.95-.2A2.16,2.16,0,0,0,315.22,141.68Z"/><path class="cls-3" d="M321,149.84a1.41,1.41,0,0,1-.68-.8,4.63,4.63,0,0,1-.23-1.63,5.48,5.48,0,0,1,.19-1.6,1.41,1.41,0,0,1,.62-.81,2.64,2.64,0,0,1,1.25-.24q.57,0,2.07.09v-.76a8,8,0,0,0-.14-1.76,1,1,0,0,0-.49-.71,3,3,0,0,0-1.21-.17,9.14,9.14,0,0,0-1,.06c-.37,0-.68.09-.93.14v-.83a9.63,9.63,0,0,1,2.16-.22,3.45,3.45,0,0,1,1.58.29,1.59,1.59,0,0,1,.74,1,7.63,7.63,0,0,1,.22,2.13v5.89h-.83l-.07-1.3h-.09a1.63,1.63,0,0,1-.69,1.14,2.41,2.41,0,0,1-1.23.3A2.92,2.92,0,0,1,321,149.84Zm2.45-.81a1.11,1.11,0,0,0,.55-.78,8.22,8.22,0,0,0,.22-2v-.7h-1.88a1.91,1.91,0,0,0-.82.13.79.79,0,0,0-.38.52,5,5,0,0,0-.11,1.2,4.11,4.11,0,0,0,.12,1.14.85.85,0,0,0,.4.54,2,2,0,0,0,.88.16A2.45,2.45,0,0,0,323.4,149Z"/><path class="cls-3" d="M334.82,144.38a13.82,13.82,0,0,0-.1-1.92,1.25,1.25,0,0,0-.38-.8,1.64,1.64,0,0,0-.91-.19,1.39,1.39,0,0,0-1.14.41,2.23,2.23,0,0,0-.42,1.12c-.05.48-.08,1.21-.08,2.21v4.72h-1v-5.55a13.82,13.82,0,0,0-.1-1.92,1.2,1.2,0,0,0-.38-.8,1.59,1.59,0,0,0-.89-.19,1.38,1.38,0,0,0-1.14.44,2.21,2.21,0,0,0-.44,1.17c-.05.48-.08,1.19-.08,2.13v4.72h-.95v-9.18h.81l.07,1.29h.11a2.09,2.09,0,0,1,.59-1,1.93,1.93,0,0,1,1.32-.39,2.18,2.18,0,0,1,1.34.33,1.73,1.73,0,0,1,.57,1.11h.1a2,2,0,0,1,.61-1,2,2,0,0,1,1.34-.39,2.16,2.16,0,0,1,1.31.33,1.8,1.8,0,0,1,.59,1.06,10.82,10.82,0,0,1,.15,2.07v5.87h-.95Z"/><path class="cls-2" d="M144,108.93l-.77-3.64h-3.1l-.75,3.64h-1L141,96.54h1.3L145,108.93ZM141.71,98h-.11l-1.33,6.35H143Z"/><path class="cls-2" d="M151.73,108.93l-.78-3.64h-3.09l-.76,3.64h-1l2.68-12.39h1.3l2.68,12.39ZM149.46,98h-.11L148,104.39h2.77Z"/><path class="cls-2" d="M154.23,96.54H157a2.46,2.46,0,0,1,1.68.49,2.12,2.12,0,0,1,.69,1.27,11.45,11.45,0,0,1,.15,2.08,11.19,11.19,0,0,1-.16,2,2.22,2.22,0,0,1-.7,1.29,2.42,2.42,0,0,1-1.66.49h-1.82v4.74h-1Zm2.72,6.73A1.57,1.57,0,0,0,158,103a1.54,1.54,0,0,0,.45-.91,11.59,11.59,0,0,0,.1-1.67,11.85,11.85,0,0,0-.1-1.7,1.63,1.63,0,0,0-.44-.91,1.57,1.57,0,0,0-1.08-.31h-1.73v5.81Z"/><path class="cls-2" d="M161,108.93V95.55H162v13.38Z"/><path class="cls-2" d="M164.3,108.84a1.41,1.41,0,0,1-.68-.8,4.63,4.63,0,0,1-.23-1.63,5.48,5.48,0,0,1,.19-1.6,1.41,1.41,0,0,1,.62-.81,2.64,2.64,0,0,1,1.25-.24q.57,0,2.07.09v-.76a8,8,0,0,0-.14-1.76,1,1,0,0,0-.49-.71,3,3,0,0,0-1.21-.17,9,9,0,0,0-1,.06c-.37,0-.68.09-.93.14v-.83a9.63,9.63,0,0,1,2.16-.22,3.45,3.45,0,0,1,1.58.29,1.59,1.59,0,0,1,.74,1,7.63,7.63,0,0,1,.22,2.13v5.89h-.83l-.07-1.3h-.09a1.63,1.63,0,0,1-.69,1.14,2.45,2.45,0,0,1-1.24.3A2.87,2.87,0,0,1,164.3,108.84Zm2.45-.81a1.11,1.11,0,0,0,.55-.78,8.22,8.22,0,0,0,.22-2v-.7h-1.88a1.91,1.91,0,0,0-.82.13.79.79,0,0,0-.38.52,5,5,0,0,0-.11,1.2,4.11,4.11,0,0,0,.12,1.14.82.82,0,0,0,.4.54,2,2,0,0,0,.88.16A2.45,2.45,0,0,0,166.75,108Z"/><path class="cls-2" d="M170.79,108.93v-8.34h-1.11v-.84h1.11V97.08h1v2.67h1.31v.84h-1.31v8.34Z"/><path class="cls-2" d="M175.22,100.59H174.1v-.84h1.12V98a4.25,4.25,0,0,1,.23-1.61,1.24,1.24,0,0,1,.71-.68,5,5,0,0,1,1.42-.16v.76a2.69,2.69,0,0,0-.88.11.7.7,0,0,0-.41.43,2.76,2.76,0,0,0-.12,1v2h1.41v.84h-1.41v8.34h-.95Z"/><path class="cls-2" d="M179.57,108.7a1.84,1.84,0,0,1-.71-1.3,29.15,29.15,0,0,1,0-6.1,1.89,1.89,0,0,1,.71-1.32,3.23,3.23,0,0,1,1.77-.38,3.18,3.18,0,0,1,1.77.38,2,2,0,0,1,.71,1.32,27.36,27.36,0,0,1,0,6.09,1.92,1.92,0,0,1-.71,1.31,3.2,3.2,0,0,1-1.77.37A3.24,3.24,0,0,1,179.57,108.7Zm2.93-.76a1.57,1.57,0,0,0,.44-1,24,24,0,0,0,.1-2.57,24.58,24.58,0,0,0-.1-2.59,1.6,1.6,0,0,0-.44-1,2.56,2.56,0,0,0-2.33,0,1.55,1.55,0,0,0-.43,1,25.36,25.36,0,0,0-.09,2.59,24.73,24.73,0,0,0,.09,2.58,1.51,1.51,0,0,0,.43,1,2.56,2.56,0,0,0,2.33,0Z"/><path class="cls-2" d="M185.6,99.75h.81l.08,1.72h.09a2.36,2.36,0,0,1,.72-1.47,2.16,2.16,0,0,1,1.36-.4v1a1.69,1.69,0,0,0-1.65.87,6.51,6.51,0,0,0-.45,2.82v4.63h-1Z"/><path class="cls-2" d="M198,103.38a13.82,13.82,0,0,0-.1-1.92,1.2,1.2,0,0,0-.38-.8,1.64,1.64,0,0,0-.91-.19,1.36,1.36,0,0,0-1.13.41A2.15,2.15,0,0,0,195,102c-.05.48-.08,1.21-.08,2.21v4.72H194v-5.55a13.82,13.82,0,0,0-.1-1.92,1.2,1.2,0,0,0-.38-.8,1.59,1.59,0,0,0-.89-.19,1.35,1.35,0,0,0-1.13.44,2.13,2.13,0,0,0-.44,1.17,18.61,18.61,0,0,0-.09,2.13v4.72H190V99.75h.81l.07,1.29H191a2.09,2.09,0,0,1,.59-1.05,1.93,1.93,0,0,1,1.32-.39,2.18,2.18,0,0,1,1.34.33,1.73,1.73,0,0,1,.57,1.11h.1a1.77,1.77,0,0,1,1.95-1.44,2.14,2.14,0,0,1,1.31.33,1.8,1.8,0,0,1,.59,1.06,10.82,10.82,0,0,1,.15,2.07v5.87h-1Z"/><path class="cls-2" d="M146.71,130.06a9.18,9.18,0,0,1-.48-2.2,34.36,34.36,0,0,1-.15-3.66,31.5,31.5,0,0,1,.16-3.65,10.54,10.54,0,0,1,.48-2.2,17.43,17.43,0,0,1,1-2.18h.89a18.93,18.93,0,0,0-1,2,10.21,10.21,0,0,0-.46,2.16,36.9,36.9,0,0,0-.16,3.82,33.75,33.75,0,0,0,.17,3.81,11,11,0,0,0,.46,2.17,18.36,18.36,0,0,0,1,2.07h-.89A19.21,19.21,0,0,1,146.71,130.06Z"/><path class="cls-2" d="M154.74,129.55l-.77-3.64h-3.1l-.75,3.64h-1l2.68-12.39h1.3l2.68,12.39Zm-2.26-10.89h-.11L151,125h2.77Z"/><path class="cls-2" d="M162.5,129.55l-.78-3.64h-3.09l-.76,3.64h-1l2.68-12.39h1.3l2.68,12.39Zm-2.27-10.89h-.11L158.79,125h2.77Z"/><path class="cls-2" d="M168.31,129.64a7.43,7.43,0,0,1-.78.05,3.15,3.15,0,0,1-1.92-.47,2.69,2.69,0,0,1-.82-1.75,28.18,28.18,0,0,1-.22-4.12,27.89,27.89,0,0,1,.22-4.09,2.72,2.72,0,0,1,.82-1.76,3.08,3.08,0,0,1,1.92-.48,5.73,5.73,0,0,1,.81.06,2.38,2.38,0,0,1,.66.17v.87a4.76,4.76,0,0,0-1.31-.18,2.22,2.22,0,0,0-1.43.35,2.07,2.07,0,0,0-.55,1.41,33.84,33.84,0,0,0-.13,3.65,33.93,33.93,0,0,0,.13,3.66,2.07,2.07,0,0,0,.55,1.41,2.29,2.29,0,0,0,1.43.35,6.38,6.38,0,0,0,.71-.05,5.08,5.08,0,0,0,.64-.13v.9A5.48,5.48,0,0,1,168.31,129.64Z"/><path class="cls-2" d="M170.49,129.55V116.17h.95v13.38Z"/><path class="cls-2" d="M173.94,129.32a1.88,1.88,0,0,1-.71-1.3,29.15,29.15,0,0,1,0-6.1,1.93,1.93,0,0,1,.71-1.32,3.23,3.23,0,0,1,1.77-.38,3.18,3.18,0,0,1,1.77.38,1.93,1.93,0,0,1,.71,1.32,27.36,27.36,0,0,1,0,6.09,1.88,1.88,0,0,1-.71,1.31,3.2,3.2,0,0,1-1.77.37A3.24,3.24,0,0,1,173.94,129.32Zm2.93-.76a1.57,1.57,0,0,0,.44-1,24,24,0,0,0,.1-2.57,24.58,24.58,0,0,0-.1-2.59,1.6,1.6,0,0,0-.44-1,2.56,2.56,0,0,0-2.33,0,1.55,1.55,0,0,0-.43,1A25.36,25.36,0,0,0,174,125a24.73,24.73,0,0,0,.09,2.58,1.51,1.51,0,0,0,.43,1,2.56,2.56,0,0,0,2.33,0Z"/><path class="cls-2" d="M184.08,128.25H184a1.93,1.93,0,0,1-.62,1.05,2,2,0,0,1-1.36.39,2.24,2.24,0,0,1-1.34-.33,1.75,1.75,0,0,1-.59-1.06,10.71,10.71,0,0,1-.16-2.08v-5.85h1v5.54a12.34,12.34,0,0,0,.11,1.92,1.15,1.15,0,0,0,.41.8,1.85,1.85,0,0,0,1,.2,1.35,1.35,0,0,0,1.13-.45,2.21,2.21,0,0,0,.43-1.16c0-.48.08-1.19.08-2.14v-4.71h1v9.18h-.8Z"/><path class="cls-2" d="M187.45,129.3a2.21,2.21,0,0,1-.67-1.37,16.75,16.75,0,0,1-.19-3,17.79,17.79,0,0,1,.18-3,2.19,2.19,0,0,1,.67-1.38,2.32,2.32,0,0,1,1.49-.4,2,2,0,0,1,1.21.31,1.61,1.61,0,0,1,.62,1h.09v-5.35h1v13.38H191l-.07-1.3h-.09a1.66,1.66,0,0,1-.68,1.14,2.29,2.29,0,0,1-1.21.3A2.36,2.36,0,0,1,187.45,129.3Zm2.76-.76a1.51,1.51,0,0,0,.48-1,8.48,8.48,0,0,0,.14-1.18c0-.41,0-1,0-1.66a13.26,13.26,0,0,0-.14-2.27,2,2,0,0,0-.52-1.07,1.55,1.55,0,0,0-1.05-.31,1.62,1.62,0,0,0-1,.26,1.65,1.65,0,0,0-.43,1,27.69,27.69,0,0,0,0,5.15,1.57,1.57,0,0,0,.45,1,1.72,1.72,0,0,0,1.09.27A1.6,1.6,0,0,0,190.21,128.54Z"/><path class="cls-2" d="M146.38,148.67V146h-2.63v-.86h2.63v-2.63h.85v2.63h2.64V146h-2.64v2.63Z"/><path class="cls-2" d="M159.81,150.17l-.78-3.64h-3.09l-.76,3.64h-1l2.68-12.39h1.3l2.68,12.39Zm-2.27-10.89h-.11l-1.33,6.35h2.77Z"/><path class="cls-2" d="M167.56,150.17l-.77-3.64h-3.1l-.76,3.64h-1l2.68-12.39h1.29l2.69,12.39Zm-2.27-10.89h-.11l-1.33,6.35h2.77Z"/><path class="cls-2" d="M175.32,150.17l-1.71-10.52h-.09l-1.69,10.52h-1.28l-1.85-12.39h1l1.46,10.75h.11L173,137.78h1.21l1.73,10.75H176l1.46-10.75h1l-1.85,12.39Z"/><path class="cls-2" d="M184.34,145.88H180.2a15.49,15.49,0,0,0,.12,2.31,1.4,1.4,0,0,0,.51,1,2.34,2.34,0,0,0,1.29.27,10.37,10.37,0,0,0,1-.06,8.24,8.24,0,0,0,1-.15v.83a8.45,8.45,0,0,1-1,.16,9.84,9.84,0,0,1-1.19.07,3.13,3.13,0,0,1-1.79-.41,2.16,2.16,0,0,1-.76-1.37,17.43,17.43,0,0,1-.18-2.94,20.84,20.84,0,0,1,.14-2.94,2,2,0,0,1,.71-1.37,3,3,0,0,1,1.83-.44,2.54,2.54,0,0,1,1.64.42,2,2,0,0,1,.63,1.33,22.62,22.62,0,0,1,.14,3Zm-3.57-4a1.26,1.26,0,0,0-.46.92,15.44,15.44,0,0,0-.11,2.29h3.22v-.33a11.33,11.33,0,0,0-.13-2.07,1.19,1.19,0,0,0-.43-.84,1.7,1.7,0,0,0-1-.2A2.16,2.16,0,0,0,180.77,141.92Z"/><path class="cls-2" d="M187.56,150a1.73,1.73,0,0,1-.68-1.14h-.09l-.07,1.3h-.81V136.79h1v5.35H187a1.65,1.65,0,0,1,.62-1,2.08,2.08,0,0,1,1.22-.31,2.24,2.24,0,0,1,1.47.4,2.19,2.19,0,0,1,.67,1.38,17.79,17.79,0,0,1,.18,3,16.8,16.8,0,0,1-.19,3,1.83,1.83,0,0,1-2.13,1.75A2.31,2.31,0,0,1,187.56,150Zm2-.82a1.68,1.68,0,0,0,.44-1,27.69,27.69,0,0,0,0-5.15,1.65,1.65,0,0,0-.44-1,1.76,1.76,0,0,0-1.1-.26,1.51,1.51,0,0,0-1,.28,1.54,1.54,0,0,0-.48.94,14.51,14.51,0,0,0-.18,2.65c0,.61,0,1.11,0,1.51a7.37,7.37,0,0,0,.13,1.1,1.63,1.63,0,0,0,.49,1,1.5,1.5,0,0,0,1,.3A1.83,1.83,0,0,0,189.6,149.19Z"/><path class="cls-2" d="M192.54,150.81a9.49,9.49,0,0,0,.46-2.16,45.8,45.8,0,0,0,0-7.65,9.51,9.51,0,0,0-.46-2.15c-.2-.52-.51-1.21-.94-2.06h.86a18,18,0,0,1,1,2.18,9.94,9.94,0,0,1,.48,2.2,31.11,31.11,0,0,1,.17,3.65,33.88,33.88,0,0,1-.16,3.66,10,10,0,0,1-.47,2.21,17.11,17.11,0,0,1-1,2.18h-.86A20.9,20.9,0,0,0,192.54,150.81Z"/><path class="cls-2" d="M139.94,256.93l-.78-3.64h-3.09l-.76,3.64h-1L137,244.54h1.29L141,256.93ZM137.67,246h-.11l-1.33,6.35H139Z"/><path class="cls-2" d="M147.69,256.93l-.77-3.64h-3.1l-.76,3.64h-1l2.68-12.39H146l2.69,12.39ZM145.42,246h-.11L144,252.39h2.77Z"/><path class="cls-2" d="M156.52,257a7.43,7.43,0,0,1-.78.05,3.15,3.15,0,0,1-1.92-.47,2.69,2.69,0,0,1-.82-1.75,28.18,28.18,0,0,1-.22-4.12,27.89,27.89,0,0,1,.22-4.09,2.72,2.72,0,0,1,.82-1.76,3.08,3.08,0,0,1,1.92-.48,5.73,5.73,0,0,1,.81.06,2.38,2.38,0,0,1,.66.17v.87a4.76,4.76,0,0,0-1.31-.18,2.22,2.22,0,0,0-1.43.35,2.07,2.07,0,0,0-.55,1.41,51.45,51.45,0,0,0,0,7.31,2.07,2.07,0,0,0,.55,1.41,2.29,2.29,0,0,0,1.43.35,6.38,6.38,0,0,0,.71,0,5.08,5.08,0,0,0,.64-.13v.9A5.48,5.48,0,0,1,156.52,257Z"/><path class="cls-2" d="M159.33,256.7a1.88,1.88,0,0,1-.71-1.3,29.15,29.15,0,0,1,0-6.1,1.93,1.93,0,0,1,.71-1.32,3.25,3.25,0,0,1,1.78-.38,3.17,3.17,0,0,1,1.76.38,1.93,1.93,0,0,1,.71,1.32,27.36,27.36,0,0,1,0,6.09,1.88,1.88,0,0,1-.71,1.31,3.18,3.18,0,0,1-1.76.37A3.26,3.26,0,0,1,159.33,256.7Zm2.93-.76a1.48,1.48,0,0,0,.44-1,21.55,21.55,0,0,0,.1-2.57,22.06,22.06,0,0,0-.1-2.59,1.5,1.5,0,0,0-.44-1,1.81,1.81,0,0,0-1.15-.28,1.86,1.86,0,0,0-1.17.28,1.5,1.5,0,0,0-.43,1,25.36,25.36,0,0,0-.09,2.59,24.73,24.73,0,0,0,.09,2.58,1.47,1.47,0,0,0,.43,1,1.86,1.86,0,0,0,1.17.28A1.81,1.81,0,0,0,162.26,255.94Z"/><path class="cls-2" d="M165.37,247.75h.81l.07,1.72h.09a2.36,2.36,0,0,1,.73-1.47,2.12,2.12,0,0,1,1.36-.4v1a1.69,1.69,0,0,0-1.66.87,6.51,6.51,0,0,0-.45,2.82v4.63h-.95Z"/><path class="cls-2" d="M169.76,247.75h.81l.07,1.29h.09a1.73,1.73,0,0,1,.68-1.14,2.31,2.31,0,0,1,1.23-.3,1.83,1.83,0,0,1,2.13,1.76,17.66,17.66,0,0,1,.19,3,17.87,17.87,0,0,1-.18,3,2.19,2.19,0,0,1-.67,1.37,2.24,2.24,0,0,1-1.47.4,2.06,2.06,0,0,1-1.22-.31,1.65,1.65,0,0,1-.62-1h-.09v4.61h-1Zm3.69,8.19a1.62,1.62,0,0,0,.44-1,30.19,30.19,0,0,0,0-5.15,1.65,1.65,0,0,0-.44-1,1.76,1.76,0,0,0-1.1-.26,1.54,1.54,0,0,0-1,.29,1.66,1.66,0,0,0-.49,1,16.92,16.92,0,0,0-.14,2.58,13.51,13.51,0,0,0,.13,2.41,2,2,0,0,0,.51,1.13,1.4,1.4,0,0,0,1,.33A1.76,1.76,0,0,0,173.45,255.94Z"/><path class="cls-2" d="M177.27,256.7a1.88,1.88,0,0,1-.71-1.3,29.15,29.15,0,0,1,0-6.1,1.93,1.93,0,0,1,.71-1.32,3.23,3.23,0,0,1,1.77-.38,3.18,3.18,0,0,1,1.77.38,1.93,1.93,0,0,1,.71,1.32,27.36,27.36,0,0,1,0,6.09,1.88,1.88,0,0,1-.71,1.31,3.2,3.2,0,0,1-1.77.37A3.24,3.24,0,0,1,177.27,256.7Zm2.93-.76a1.57,1.57,0,0,0,.44-1,24,24,0,0,0,.1-2.57,24.58,24.58,0,0,0-.1-2.59,1.6,1.6,0,0,0-.44-1,1.85,1.85,0,0,0-1.16-.28,1.81,1.81,0,0,0-1.16.28,1.5,1.5,0,0,0-.44,1,25.36,25.36,0,0,0-.09,2.59,24.73,24.73,0,0,0,.09,2.58,1.47,1.47,0,0,0,.44,1,1.81,1.81,0,0,0,1.16.28A1.85,1.85,0,0,0,180.2,255.94Z"/><path class="cls-2" d="M183.31,247.75h.81l.07,1.72h.09A2.31,2.31,0,0,1,185,248a2.12,2.12,0,0,1,1.36-.4v1a1.69,1.69,0,0,0-1.66.87,6.51,6.51,0,0,0-.45,2.82v4.63h-.95Z"/><path class="cls-2" d="M188.16,256.84a1.41,1.41,0,0,1-.68-.8,4.63,4.63,0,0,1-.23-1.63,5.48,5.48,0,0,1,.19-1.6,1.37,1.37,0,0,1,.62-.81,2.6,2.6,0,0,1,1.24-.24c.39,0,1.08,0,2.08.09v-.76a8,8,0,0,0-.14-1.76,1,1,0,0,0-.5-.71,2.92,2.92,0,0,0-1.2-.17,9,9,0,0,0-1,.06c-.37,0-.68.09-.93.14v-.83a9.63,9.63,0,0,1,2.16-.22,3.45,3.45,0,0,1,1.58.29,1.59,1.59,0,0,1,.74,1,7.63,7.63,0,0,1,.22,2.13v5.89h-.83l-.07-1.3h-.09a1.63,1.63,0,0,1-.69,1.14,2.45,2.45,0,0,1-1.24.3A2.87,2.87,0,0,1,188.16,256.84Zm2.45-.81a1.11,1.11,0,0,0,.55-.78,8.22,8.22,0,0,0,.22-2v-.7H189.5a2,2,0,0,0-.83.13.77.77,0,0,0-.37.52,4.49,4.49,0,0,0-.11,1.2,4.11,4.11,0,0,0,.12,1.14.82.82,0,0,0,.4.54,2,2,0,0,0,.88.16A2.45,2.45,0,0,0,190.61,256Z"/><path class="cls-2" d="M194.65,256.93v-8.34h-1.11v-.84h1.11v-2.67h1v2.67h1.31v.84h-1.31v8.34Z"/><path class="cls-2" d="M203.12,252.64H199a15.85,15.85,0,0,0,.11,2.31,1.39,1.39,0,0,0,.52,1,2.24,2.24,0,0,0,1.29.28,10.37,10.37,0,0,0,1-.06,8.58,8.58,0,0,0,1-.15v.83a8.85,8.85,0,0,1-1,.16,9.84,9.84,0,0,1-1.19.07,3.09,3.09,0,0,1-1.79-.41,2.16,2.16,0,0,1-.76-1.37,16.22,16.22,0,0,1-.19-2.94,20.48,20.48,0,0,1,.15-2.94,2,2,0,0,1,.71-1.37,3,3,0,0,1,1.82-.44,2.56,2.56,0,0,1,1.65.42,2,2,0,0,1,.63,1.33,22.62,22.62,0,0,1,.14,3Zm-3.58-4a1.34,1.34,0,0,0-.46.92,17.45,17.45,0,0,0-.1,2.29h3.22v-.33a11.33,11.33,0,0,0-.13-2.07,1.23,1.23,0,0,0-.43-.84,1.7,1.7,0,0,0-.95-.2A2.23,2.23,0,0,0,199.54,248.68Z"/><path class="cls-2" d="M154.39,277.55,152.68,267h-.09l-1.69,10.52h-1.28l-1.85-12.39h1l1.46,10.75h.11l1.69-10.75h1.21L155,275.91h.09l1.46-10.75h1l-1.85,12.39Z"/><path class="cls-2" d="M163.41,273.26h-4.14a15.49,15.49,0,0,0,.12,2.31,1.43,1.43,0,0,0,.51,1,2.3,2.3,0,0,0,1.3.28,10.19,10.19,0,0,0,1-.06,8.24,8.24,0,0,0,1-.15v.83a8.45,8.45,0,0,1-1,.16,9.73,9.73,0,0,1-1.19.07,3.13,3.13,0,0,1-1.79-.41,2.11,2.11,0,0,1-.75-1.37,16.22,16.22,0,0,1-.19-2.94,20.84,20.84,0,0,1,.14-2.94,2.07,2.07,0,0,1,.71-1.37,3,3,0,0,1,1.83-.44,2.56,2.56,0,0,1,1.65.42,2,2,0,0,1,.63,1.33,23.08,23.08,0,0,1,.13,3Zm-3.57-4a1.26,1.26,0,0,0-.46.92,17,17,0,0,0-.11,2.29h3.22v-.33a12.6,12.6,0,0,0-.12-2.07,1.27,1.27,0,0,0-.43-.84,1.76,1.76,0,0,0-1-.2A2.16,2.16,0,0,0,159.84,269.3Z"/><path class="cls-2" d="M166.63,277.39a1.73,1.73,0,0,1-.68-1.14h-.09l-.07,1.3H165V264.17h1v5.35H166a1.65,1.65,0,0,1,.62-1,2.08,2.08,0,0,1,1.22-.31,2.24,2.24,0,0,1,1.47.4A2.19,2.19,0,0,1,170,270a17.79,17.79,0,0,1,.18,3,16.8,16.8,0,0,1-.19,3,2.26,2.26,0,0,1-.66,1.36,2.31,2.31,0,0,1-1.47.39A2.34,2.34,0,0,1,166.63,277.39Zm2-.83a1.62,1.62,0,0,0,.44-1,27.69,27.69,0,0,0,0-5.15,1.65,1.65,0,0,0-.44-1,1.74,1.74,0,0,0-1.1-.26,1.51,1.51,0,0,0-1,.28,1.65,1.65,0,0,0-.48.94,14.51,14.51,0,0,0-.18,2.65c0,.61,0,1.11,0,1.51a7.37,7.37,0,0,0,.13,1.1,1.63,1.63,0,0,0,.49,1,1.5,1.5,0,0,0,1,.3A1.74,1.74,0,0,0,168.67,276.56Z"/><path class="cls-2" d="M172.64,277.63a8.31,8.31,0,0,1-.93-.16v-.82a5.22,5.22,0,0,0,.88.14,10.54,10.54,0,0,0,1.11,0,1.34,1.34,0,0,0,1.18-.44,2.22,2.22,0,0,0,.32-1.3,5.31,5.31,0,0,0-.08-1.07.64.64,0,0,0-.23-.44,1.31,1.31,0,0,0-.54-.17l-1.55-.25a1.29,1.29,0,0,1-1-.64,3.73,3.73,0,0,1-.28-1.66,2.78,2.78,0,0,1,.62-2.08,2.61,2.61,0,0,1,1.85-.57,8.64,8.64,0,0,1,1,.06,4.07,4.07,0,0,1,.82.18v.82a4.7,4.7,0,0,0-.82-.15,9.24,9.24,0,0,0-1.05-.06,1.49,1.49,0,0,0-1.09.36,1.82,1.82,0,0,0-.37,1.33,4.55,4.55,0,0,0,.07,1,.71.71,0,0,0,.24.43.94.94,0,0,0,.5.18l1.49.24a1.81,1.81,0,0,1,.8.3,1.33,1.33,0,0,1,.42.72,6.1,6.1,0,0,1,.13,1.46,3,3,0,0,1-.56,2,2.46,2.46,0,0,1-1.85.6A10.34,10.34,0,0,1,172.64,277.63Z"/><path class="cls-2" d="M177.58,265.49v-1.32h1v1.32Zm0,12.06v-9.18h1v9.18Z"/><path class="cls-2" d="M181,277.55v-8.34h-1.11v-.84H181V265.7h1v2.67h1.31v.84H182v8.34Z"/><path class="cls-2" d="M189.51,273.26h-4.14a17.45,17.45,0,0,0,.11,2.31,1.39,1.39,0,0,0,.52,1,2.24,2.24,0,0,0,1.29.28,10.37,10.37,0,0,0,1-.06,8.58,8.58,0,0,0,1-.15v.83a8.85,8.85,0,0,1-1,.16,9.84,9.84,0,0,1-1.19.07,3.11,3.11,0,0,1-1.79-.41,2.16,2.16,0,0,1-.76-1.37,17.2,17.2,0,0,1-.19-2.94,20.48,20.48,0,0,1,.15-2.94,2,2,0,0,1,.71-1.37,3,3,0,0,1,1.82-.44,2.56,2.56,0,0,1,1.65.42,2,2,0,0,1,.63,1.33,22.62,22.62,0,0,1,.14,3Zm-3.58-4a1.34,1.34,0,0,0-.46.92,17.45,17.45,0,0,0-.1,2.29h3.22v-.33a11.33,11.33,0,0,0-.13-2.07,1.23,1.23,0,0,0-.43-.84,1.7,1.7,0,0,0-.95-.2A2.23,2.23,0,0,0,185.93,269.3Z"/><path class="cls-3" d="M384.4,97.93l-.77-3.64h-3.1l-.75,3.64h-1l2.68-12.39h1.3l2.68,12.39ZM382.13,87H382l-1.34,6.35h2.77Z"/><path class="cls-3" d="M386.82,97.93V84.55h1V97.93Z"/><path class="cls-3" d="M389.59,101.42v-.83c1,0,1.62,0,1.93,0a2.55,2.55,0,0,0,1.41-.3,1.64,1.64,0,0,0,.59-1.06,14.19,14.19,0,0,0,.14-2.33v-.21h-.09a1.72,1.72,0,0,1-.62,1,2.14,2.14,0,0,1-1.22.3,2.36,2.36,0,0,1-1.48-.39,2.22,2.22,0,0,1-.68-1.38,23.61,23.61,0,0,1,0-5.9,2.22,2.22,0,0,1,.68-1.37A2.8,2.8,0,0,1,393,88.9a1.65,1.65,0,0,1,.67,1.14h.09l.08-1.29h.82v7.77a17.48,17.48,0,0,1-.19,3,2.35,2.35,0,0,1-.83,1.48,3.24,3.24,0,0,1-1.93.47C391.17,101.49,390.48,101.47,389.59,101.42Zm3.4-4.57a1.66,1.66,0,0,0,.51-1,14.66,14.66,0,0,0,.16-2.55,14.5,14.5,0,0,0-.13-2.43,1.92,1.92,0,0,0-.52-1.11,1.47,1.47,0,0,0-1-.31,1.72,1.72,0,0,0-1.08.26,1.55,1.55,0,0,0-.46,1,21.35,21.35,0,0,0-.11,2.56,21,21,0,0,0,.11,2.55,1.53,1.53,0,0,0,.46,1,1.79,1.79,0,0,0,1.08.25A1.5,1.5,0,0,0,393,96.85Z"/><path class="cls-3" d="M397.11,97.7a1.84,1.84,0,0,1-.71-1.3,19.92,19.92,0,0,1-.16-3.05,20,20,0,0,1,.16-3,1.89,1.89,0,0,1,.71-1.32,3.23,3.23,0,0,1,1.77-.38,3.18,3.18,0,0,1,1.77.38,2,2,0,0,1,.71,1.32,27.36,27.36,0,0,1,0,6.09,1.92,1.92,0,0,1-.71,1.31,3.2,3.2,0,0,1-1.77.37A3.24,3.24,0,0,1,397.11,97.7Zm2.93-.76a1.57,1.57,0,0,0,.44-1,24,24,0,0,0,.1-2.57,24.58,24.58,0,0,0-.1-2.59,1.6,1.6,0,0,0-.44-1,2.56,2.56,0,0,0-2.33,0,1.55,1.55,0,0,0-.43,1,25.36,25.36,0,0,0-.09,2.59,24.73,24.73,0,0,0,.09,2.58,1.51,1.51,0,0,0,.43,1,2.56,2.56,0,0,0,2.33,0Z"/><path class="cls-3" d="M404.8,97.77a1.73,1.73,0,0,1-.68-1.14H404l-.08,1.3h-.81V84.55h1V89.9h.09a1.65,1.65,0,0,1,.62-1A2,2,0,0,1,406,88.6a2.27,2.27,0,0,1,1.48.4,2.24,2.24,0,0,1,.67,1.38,17.79,17.79,0,0,1,.18,3,17.61,17.61,0,0,1-.19,3,2.26,2.26,0,0,1-.67,1.37,2.31,2.31,0,0,1-1.47.39A2.27,2.27,0,0,1,404.8,97.77Zm2-.83a1.57,1.57,0,0,0,.45-1,30.19,30.19,0,0,0,0-5.15,1.6,1.6,0,0,0-.45-1,1.71,1.71,0,0,0-1.09-.26,1.51,1.51,0,0,0-1,.28,1.54,1.54,0,0,0-.48.94,14.51,14.51,0,0,0-.18,2.65c0,.61,0,1.11,0,1.51a7.33,7.33,0,0,0,.14,1.1,1.57,1.57,0,0,0,.49,1,1.5,1.5,0,0,0,1,.3A1.7,1.7,0,0,0,406.83,96.94Z"/><path class="cls-3" d="M410.67,97.7a1.84,1.84,0,0,1-.71-1.3,19.92,19.92,0,0,1-.16-3.05,20,20,0,0,1,.16-3,1.89,1.89,0,0,1,.71-1.32,3.23,3.23,0,0,1,1.77-.38,3.18,3.18,0,0,1,1.77.38,2,2,0,0,1,.71,1.32,27.36,27.36,0,0,1,0,6.09,1.92,1.92,0,0,1-.71,1.31,3.2,3.2,0,0,1-1.77.37A3.24,3.24,0,0,1,410.67,97.7Zm2.92-.76a1.52,1.52,0,0,0,.45-1,24.77,24.77,0,0,0,.09-2.57,25.36,25.36,0,0,0-.09-2.59,1.55,1.55,0,0,0-.45-1,1.79,1.79,0,0,0-1.15-.28,1.86,1.86,0,0,0-1.17.28,1.5,1.5,0,0,0-.43,1,25.36,25.36,0,0,0-.09,2.59,24.73,24.73,0,0,0,.09,2.58,1.47,1.47,0,0,0,.43,1,1.86,1.86,0,0,0,1.17.28A1.79,1.79,0,0,0,413.59,96.94Z"/><path class="cls-3" d="M417.3,97.93V89.59h-1.12v-.84h1.12V86.08h.95v2.67h1.32v.84h-1.32v8.34Z"/><path class="cls-3" d="M425.34,97.93V86.48h-2.26v-.94h5.54v.94h-2.27V97.93Z"/><path class="cls-3" d="M433.8,93.64h-4.13a15.85,15.85,0,0,0,.11,2.31,1.43,1.43,0,0,0,.51,1,2.3,2.3,0,0,0,1.3.28,10.37,10.37,0,0,0,1-.06,8.58,8.58,0,0,0,1-.15v.83a8.69,8.69,0,0,1-1,.16,9.57,9.57,0,0,1-1.18.07,3.09,3.09,0,0,1-1.79-.41,2.16,2.16,0,0,1-.76-1.37,16.22,16.22,0,0,1-.19-2.94,22.51,22.51,0,0,1,.14-2.94,2.08,2.08,0,0,1,.72-1.37,3,3,0,0,1,1.82-.44A2.56,2.56,0,0,1,433,89a2,2,0,0,1,.63,1.33,23.08,23.08,0,0,1,.13,3Zm-3.57-4a1.3,1.3,0,0,0-.46.92,17.45,17.45,0,0,0-.1,2.29h3.22v-.33a12.34,12.34,0,0,0-.13-2.07,1.23,1.23,0,0,0-.43-.84,1.72,1.72,0,0,0-.95-.2A2.23,2.23,0,0,0,430.23,89.68Z"/><path class="cls-3" d="M436,97.84a1.39,1.39,0,0,1-.69-.8,4.66,4.66,0,0,1-.22-1.63,5.16,5.16,0,0,1,.19-1.6,1.34,1.34,0,0,1,.62-.81,2.6,2.6,0,0,1,1.24-.24c.39,0,1.07,0,2.07.09v-.76a8.17,8.17,0,0,0-.13-1.76,1,1,0,0,0-.5-.71,2.92,2.92,0,0,0-1.2-.17,9.32,9.32,0,0,0-1,.06c-.36,0-.67.09-.92.14v-.83a9.57,9.57,0,0,1,2.16-.22,3.4,3.4,0,0,1,1.57.29,1.57,1.57,0,0,1,.75,1,8.11,8.11,0,0,1,.21,2.13v5.89h-.82l-.07-1.3h-.09a1.64,1.64,0,0,1-.7,1.14,2.39,2.39,0,0,1-1.23.3A2.84,2.84,0,0,1,436,97.84Zm2.45-.81a1.1,1.1,0,0,0,.54-.78,7.77,7.77,0,0,0,.22-2v-.7h-1.87a2,2,0,0,0-.83.13.79.79,0,0,0-.38.52,5.06,5.06,0,0,0-.1,1.2,4.18,4.18,0,0,0,.11,1.14.86.86,0,0,0,.41.54,1.94,1.94,0,0,0,.88.16A2.45,2.45,0,0,0,438.42,97Z"/><path class="cls-3" d="M449.83,92.38a12.39,12.39,0,0,0-.1-1.92,1.16,1.16,0,0,0-.38-.8,1.62,1.62,0,0,0-.91-.19,1.38,1.38,0,0,0-1.13.41,2.06,2.06,0,0,0-.42,1.12,20.07,20.07,0,0,0-.08,2.21v4.72h-1V92.38a12.39,12.39,0,0,0-.1-1.92,1.2,1.2,0,0,0-.37-.8,1.63,1.63,0,0,0-.9-.19,1.36,1.36,0,0,0-1.13.44,2.13,2.13,0,0,0-.44,1.17,19.12,19.12,0,0,0-.08,2.13v4.72h-1V88.75h.81l.08,1.29h.1a2,2,0,0,1,.6-1.05,1.9,1.9,0,0,1,1.31-.39,2.18,2.18,0,0,1,1.34.33,1.73,1.73,0,0,1,.57,1.11h.11a1.75,1.75,0,0,1,1.94-1.44,2.17,2.17,0,0,1,1.32.33,1.79,1.79,0,0,1,.58,1.06,10.82,10.82,0,0,1,.15,2.07v5.87h-.95Z"/><path class="cls-3" d="M453.34,98a8.74,8.74,0,0,1-.93-.16V97a5.22,5.22,0,0,0,.88.14,10.54,10.54,0,0,0,1.11,0,1.34,1.34,0,0,0,1.18-.44,2.22,2.22,0,0,0,.32-1.3,6.44,6.44,0,0,0-.07-1.07.68.68,0,0,0-.24-.44,1.31,1.31,0,0,0-.54-.17l-1.55-.25a1.32,1.32,0,0,1-1-.64,3.75,3.75,0,0,1-.27-1.66,2.78,2.78,0,0,1,.61-2.08,2.63,2.63,0,0,1,1.85-.57,8.51,8.51,0,0,1,1,.06,3.92,3.92,0,0,1,.82.18v.82a4.7,4.7,0,0,0-.82-.15,9.24,9.24,0,0,0-1.05-.06,1.49,1.49,0,0,0-1.09.36,1.82,1.82,0,0,0-.37,1.33,4.55,4.55,0,0,0,.07,1,.71.71,0,0,0,.24.43.94.94,0,0,0,.5.18l1.49.24a1.91,1.91,0,0,1,.81.3,1.39,1.39,0,0,1,.41.72,6.1,6.1,0,0,1,.13,1.46,3,3,0,0,1-.56,2,2.46,2.46,0,0,1-1.85.6A10.64,10.64,0,0,1,453.34,98Z"/><path class="cls-3" d="M369,269a7.6,7.6,0,0,1-.78.05,3.15,3.15,0,0,1-1.92-.47,2.69,2.69,0,0,1-.82-1.75,28.18,28.18,0,0,1-.22-4.12,27.89,27.89,0,0,1,.22-4.09,2.72,2.72,0,0,1,.82-1.76,3.08,3.08,0,0,1,1.92-.48,5.73,5.73,0,0,1,.81.06,2.49,2.49,0,0,1,.66.17v.87a4.76,4.76,0,0,0-1.31-.18,2.2,2.2,0,0,0-1.43.35,2.07,2.07,0,0,0-.55,1.41,51.45,51.45,0,0,0,0,7.31,2.07,2.07,0,0,0,.55,1.41,2.27,2.27,0,0,0,1.43.35,6.38,6.38,0,0,0,.71,0,5.08,5.08,0,0,0,.64-.13v.9A5.48,5.48,0,0,1,369,269Z"/><path class="cls-3" d="M371.83,268.7a1.88,1.88,0,0,1-.71-1.3,29.15,29.15,0,0,1,0-6.1,1.93,1.93,0,0,1,.71-1.32,3.25,3.25,0,0,1,1.78-.38,3.17,3.17,0,0,1,1.76.38,1.93,1.93,0,0,1,.71,1.32,27.36,27.36,0,0,1,0,6.09,1.88,1.88,0,0,1-.71,1.31,3.18,3.18,0,0,1-1.76.37A3.26,3.26,0,0,1,371.83,268.7Zm2.93-.76a1.52,1.52,0,0,0,.44-1,21.55,21.55,0,0,0,.1-2.57,22.06,22.06,0,0,0-.1-2.59,1.55,1.55,0,0,0-.44-1,1.81,1.81,0,0,0-1.15-.28,1.86,1.86,0,0,0-1.17.28,1.5,1.5,0,0,0-.43,1,25.36,25.36,0,0,0-.09,2.59,24.73,24.73,0,0,0,.09,2.58,1.47,1.47,0,0,0,.43,1,1.86,1.86,0,0,0,1.17.28A1.81,1.81,0,0,0,374.76,267.94Z"/><path class="cls-3" d="M385.82,263.38a14.24,14.24,0,0,0-.09-1.92,1.25,1.25,0,0,0-.38-.8,1.64,1.64,0,0,0-.91-.19,1.39,1.39,0,0,0-1.14.41,2.23,2.23,0,0,0-.42,1.12c-.05.48-.08,1.21-.08,2.21v4.72h-.95v-5.55a13.82,13.82,0,0,0-.1-1.92,1.25,1.25,0,0,0-.38-.8,1.59,1.59,0,0,0-.89-.19,1.37,1.37,0,0,0-1.14.44,2.21,2.21,0,0,0-.44,1.17c0,.48-.08,1.19-.08,2.13v4.72h-.95v-9.18h.81l.07,1.29h.11a2,2,0,0,1,.59-1.05,1.93,1.93,0,0,1,1.32-.39,2.18,2.18,0,0,1,1.34.33,1.68,1.68,0,0,1,.56,1.11h.11a2,2,0,0,1,.61-1.05,2,2,0,0,1,1.34-.39,2.16,2.16,0,0,1,1.31.33,1.74,1.74,0,0,1,.58,1.06,9.92,9.92,0,0,1,.16,2.07v5.87h-1Z"/><path class="cls-3" d="M396.48,263.38a13.82,13.82,0,0,0-.1-1.92,1.2,1.2,0,0,0-.38-.8,1.64,1.64,0,0,0-.91-.19,1.36,1.36,0,0,0-1.13.41,2.15,2.15,0,0,0-.43,1.12c0,.48-.08,1.21-.08,2.21v4.72h-.95v-5.55a13.82,13.82,0,0,0-.1-1.92,1.2,1.2,0,0,0-.38-.8,1.57,1.57,0,0,0-.89-.19,1.36,1.36,0,0,0-1.13.44,2.13,2.13,0,0,0-.44,1.17,18.61,18.61,0,0,0-.09,2.13v4.72h-1v-9.18h.81l.07,1.29h.11a2,2,0,0,1,.6-1.05,1.88,1.88,0,0,1,1.31-.39,2.18,2.18,0,0,1,1.34.33,1.73,1.73,0,0,1,.57,1.11h.1a1.77,1.77,0,0,1,1.95-1.44,2.14,2.14,0,0,1,1.31.33,1.75,1.75,0,0,1,.59,1.06,10.82,10.82,0,0,1,.15,2.07v5.87h-.95Z"/><path class="cls-3" d="M403.28,267.63h-.09a2,2,0,0,1-.62,1.05,2.06,2.06,0,0,1-1.36.39,2.22,2.22,0,0,1-1.34-.33,1.71,1.71,0,0,1-.6-1.06,10.86,10.86,0,0,1-.15-2.08v-5.85h.95v5.54a12.34,12.34,0,0,0,.11,1.92,1.15,1.15,0,0,0,.41.8,1.89,1.89,0,0,0,1,.2,1.33,1.33,0,0,0,1.12-.45,2.13,2.13,0,0,0,.43-1.16,18.69,18.69,0,0,0,.09-2.14v-4.71h1v9.18h-.81Z"/><path class="cls-3" d="M410,263.38a12.43,12.43,0,0,0-.11-1.92,1.17,1.17,0,0,0-.41-.8,1.9,1.9,0,0,0-1-.19,1.33,1.33,0,0,0-1.12.44,2.13,2.13,0,0,0-.43,1.16,19.21,19.21,0,0,0-.08,2.14v4.72h-1v-9.18h.81l.07,1.29h.09a2,2,0,0,1,.62-1.05,2.06,2.06,0,0,1,1.36-.39,2.22,2.22,0,0,1,1.34.33,1.71,1.71,0,0,1,.6,1.06,10.91,10.91,0,0,1,.15,2.09v5.85H410Z"/><path class="cls-3" d="M412.69,256.87v-1.32h1v1.32Zm0,12.06v-9.18h1v9.18Z"/><path class="cls-3" d="M416.16,268.93v-8.34H415v-.84h1.12v-2.67h.95v2.67h1.31v.84h-1.31v8.34Z"/><path class="cls-3" d="M419.9,272.42v-.83c.94,0,1.56.05,1.88.05a2.14,2.14,0,0,0,1.37-.35,1.63,1.63,0,0,0,.57-1.09,14.45,14.45,0,0,0,.13-2.19v-.31h-.09a1.83,1.83,0,0,1-.6,1,2.74,2.74,0,0,1-2.66,0,1.72,1.72,0,0,1-.59-1.06,11,11,0,0,1-.15-2.08v-5.81h.95v5.5a12,12,0,0,0,.11,1.91,1.09,1.09,0,0,0,.42.79,1.73,1.73,0,0,0,1,.2,1.36,1.36,0,0,0,1.12-.44,2.13,2.13,0,0,0,.43-1.16,18.69,18.69,0,0,0,.09-2.14v-4.66h.95v7.84a15.6,15.6,0,0,1-.21,3,2.34,2.34,0,0,1-.82,1.48,3,3,0,0,1-1.85.47C421.42,272.49,420.74,272.47,419.9,272.42Z"/><path class="cls-3" d="M435.53,268.93l-1.71-10.52h-.09L432,268.93h-1.28l-1.86-12.39h1l1.46,10.75h.11l1.69-10.75h1.2l1.73,10.75h.09l1.46-10.75h1l-1.85,12.39Z"/><path class="cls-3" d="M444.55,264.64h-4.14a15.85,15.85,0,0,0,.11,2.31,1.39,1.39,0,0,0,.52,1,2.24,2.24,0,0,0,1.29.28,10.37,10.37,0,0,0,1-.06,8.58,8.58,0,0,0,1-.15v.83a8.85,8.85,0,0,1-1,.16,9.84,9.84,0,0,1-1.19.07,3.09,3.09,0,0,1-1.79-.41,2.16,2.16,0,0,1-.76-1.37,16.22,16.22,0,0,1-.19-2.94,20.48,20.48,0,0,1,.15-2.94,2,2,0,0,1,.71-1.37,3,3,0,0,1,1.82-.44,2.56,2.56,0,0,1,1.65.42,2,2,0,0,1,.63,1.33,22.62,22.62,0,0,1,.14,3Zm-3.58-4a1.34,1.34,0,0,0-.46.92,17.45,17.45,0,0,0-.1,2.29h3.22v-.33a11.33,11.33,0,0,0-.13-2.07,1.23,1.23,0,0,0-.43-.84,1.7,1.7,0,0,0-.95-.2A2.23,2.23,0,0,0,441,260.68Z"/><path class="cls-3" d="M447.77,268.77a1.78,1.78,0,0,1-.69-1.14H447l-.08,1.3h-.81V255.55h1v5.35h.09a1.61,1.61,0,0,1,.62-1,2,2,0,0,1,1.21-.31,2.27,2.27,0,0,1,1.48.4,2.24,2.24,0,0,1,.66,1.38,23.23,23.23,0,0,1,0,5.93,2.26,2.26,0,0,1-.67,1.37,2.31,2.31,0,0,1-1.47.39A2.27,2.27,0,0,1,447.77,268.77Zm2-.83a1.53,1.53,0,0,0,.44-1,27.69,27.69,0,0,0,0-5.15,1.55,1.55,0,0,0-.44-1,1.71,1.71,0,0,0-1.09-.26,1.55,1.55,0,0,0-1,.28,1.58,1.58,0,0,0-.47.94,14.51,14.51,0,0,0-.18,2.65c0,.61,0,1.11,0,1.51a7.33,7.33,0,0,0,.14,1.1,1.57,1.57,0,0,0,.48,1,1.55,1.55,0,0,0,1,.3A1.7,1.7,0,0,0,449.8,267.94Z"/><path class="cls-3" d="M453.78,269a8.54,8.54,0,0,1-.94-.16V268a5.4,5.4,0,0,0,.88.14,10.85,10.85,0,0,0,1.12.05,1.35,1.35,0,0,0,1.18-.44,2.23,2.23,0,0,0,.31-1.3,5.49,5.49,0,0,0-.07-1.07A.72.72,0,0,0,456,265a1.31,1.31,0,0,0-.54-.17l-1.55-.25a1.3,1.3,0,0,1-1-.64,3.59,3.59,0,0,1-.28-1.66,2.78,2.78,0,0,1,.61-2.08,2.65,2.65,0,0,1,1.86-.57,8.47,8.47,0,0,1,1,.06,3.77,3.77,0,0,1,.82.18v.82a4.52,4.52,0,0,0-.82-.15,9.24,9.24,0,0,0-1.05-.06,1.51,1.51,0,0,0-1.09.36,1.87,1.87,0,0,0-.37,1.33,4.4,4.4,0,0,0,.08,1,.66.66,0,0,0,.23.43,1,1,0,0,0,.5.18l1.5.24a1.86,1.86,0,0,1,.8.3,1.39,1.39,0,0,1,.41.72,6,6,0,0,1,.14,1.46,2.93,2.93,0,0,1-.57,2,2.44,2.44,0,0,1-1.84.6A10.34,10.34,0,0,1,453.78,269Z"/><path class="cls-3" d="M458.71,256.87v-1.32h1v1.32Zm0,12.06v-9.18h.95v9.18Z"/><path class="cls-3" d="M462.18,268.93v-8.34h-1.12v-.84h1.12v-2.67h.95v2.67h1.32v.84h-1.32v8.34Z"/><path class="cls-3" d="M470.64,264.64H466.5a15.49,15.49,0,0,0,.12,2.31,1.43,1.43,0,0,0,.51,1,2.28,2.28,0,0,0,1.3.28,10.19,10.19,0,0,0,1-.06,8.24,8.24,0,0,0,1-.15v.83a8.45,8.45,0,0,1-1,.16,9.73,9.73,0,0,1-1.19.07,3.13,3.13,0,0,1-1.79-.41,2.11,2.11,0,0,1-.75-1.37,16.22,16.22,0,0,1-.19-2.94,20.84,20.84,0,0,1,.14-2.94,2.07,2.07,0,0,1,.71-1.37,3,3,0,0,1,1.83-.44,2.57,2.57,0,0,1,1.65.42,2,2,0,0,1,.63,1.33,23.08,23.08,0,0,1,.13,3Zm-3.57-4a1.26,1.26,0,0,0-.46.92,17,17,0,0,0-.11,2.29h3.22v-.33a12.6,12.6,0,0,0-.12-2.07,1.27,1.27,0,0,0-.43-.84,1.76,1.76,0,0,0-1-.2A2.16,2.16,0,0,0,467.07,260.68Z"/><path class="cls-3" d="M264.09,101.93l-.78-3.64h-3.09l-.76,3.64h-1l2.68-12.39h1.3l2.68,12.39ZM261.82,91h-.11l-1.33,6.35h2.77Z"/><path class="cls-3" d="M271.84,101.93l-.78-3.64H268l-.76,3.64h-1l2.69-12.39h1.29l2.68,12.39ZM269.57,91h-.11l-1.33,6.35h2.77Z"/><path class="cls-3" d="M278.62,101.93V90.48h-2.26v-.94h5.54v.94h-2.27v11.45Z"/><path class="cls-3" d="M287.09,97.64H283a15.85,15.85,0,0,0,.11,2.31,1.39,1.39,0,0,0,.52,1,2.24,2.24,0,0,0,1.29.28,10.37,10.37,0,0,0,1-.06,8.58,8.58,0,0,0,1-.15v.83a8.85,8.85,0,0,1-1,.16,9.84,9.84,0,0,1-1.19.07,3.09,3.09,0,0,1-1.79-.41,2.16,2.16,0,0,1-.76-1.37,16.22,16.22,0,0,1-.19-2.94,20.48,20.48,0,0,1,.15-2.94,2,2,0,0,1,.71-1.37,3,3,0,0,1,1.82-.44,2.56,2.56,0,0,1,1.65.42,2,2,0,0,1,.63,1.33,22.62,22.62,0,0,1,.14,3Zm-3.58-4a1.34,1.34,0,0,0-.46.92,17.45,17.45,0,0,0-.1,2.29h3.22v-.33a11.33,11.33,0,0,0-.13-2.07,1.23,1.23,0,0,0-.43-.84,1.7,1.7,0,0,0-.95-.2A2.23,2.23,0,0,0,283.51,93.68Z"/><path class="cls-3" d="M288.65,101.93V88.55h1v13.38Z"/><path class="cls-3" d="M296.32,97.64h-4.14a17.45,17.45,0,0,0,.11,2.31,1.39,1.39,0,0,0,.52,1,2.24,2.24,0,0,0,1.29.28,10.37,10.37,0,0,0,1-.06,8.58,8.58,0,0,0,1-.15v.83a8.85,8.85,0,0,1-1,.16,9.84,9.84,0,0,1-1.19.07,3.11,3.11,0,0,1-1.79-.41,2.16,2.16,0,0,1-.76-1.37,17.2,17.2,0,0,1-.19-2.94,20.48,20.48,0,0,1,.15-2.94,2,2,0,0,1,.71-1.37,3,3,0,0,1,1.83-.44,2.54,2.54,0,0,1,1.64.42,2,2,0,0,1,.63,1.33,22.62,22.62,0,0,1,.14,3Zm-3.58-4a1.34,1.34,0,0,0-.46.92,17.45,17.45,0,0,0-.1,2.29h3.22v-.33a11.33,11.33,0,0,0-.13-2.07,1.23,1.23,0,0,0-.43-.84,1.7,1.7,0,0,0-.95-.2A2.23,2.23,0,0,0,292.74,93.68Z"/><path class="cls-3" d="M298,105.42v-.83c1,0,1.61,0,1.92,0a2.61,2.61,0,0,0,1.42-.3,1.63,1.63,0,0,0,.58-1.06A13.14,13.14,0,0,0,302,101v-.21h-.09a1.67,1.67,0,0,1-.62,1,2.12,2.12,0,0,1-1.21.3,2.39,2.39,0,0,1-1.49-.39,2.22,2.22,0,0,1-.67-1.38,17.6,17.6,0,0,1-.18-2.94,16.55,16.55,0,0,1,.19-3,2.21,2.21,0,0,1,.67-1.37,2.36,2.36,0,0,1,1.48-.39,2.29,2.29,0,0,1,1.21.3A1.66,1.66,0,0,1,302,94h.09l.07-1.29H303v7.77a17.27,17.27,0,0,1-.2,3A2.31,2.31,0,0,1,302,105a3.23,3.23,0,0,1-1.92.47C299.53,105.49,298.84,105.47,298,105.42Zm3.4-4.57a1.6,1.6,0,0,0,.5-1,14.66,14.66,0,0,0,.16-2.55,16.1,16.1,0,0,0-.12-2.43,2,2,0,0,0-.52-1.11,1.49,1.49,0,0,0-1-.31,1.73,1.73,0,0,0-1.09.26,1.6,1.6,0,0,0-.45,1,19,19,0,0,0-.12,2.56,18.67,18.67,0,0,0,.12,2.55,1.57,1.57,0,0,0,.45,1,1.81,1.81,0,0,0,1.09.25A1.5,1.5,0,0,0,301.36,100.85Z"/><path class="cls-3" d="M304.77,92.75h.81l.07,1.72h.09a2.42,2.42,0,0,1,.73-1.47,2.14,2.14,0,0,1,1.36-.4v1a1.7,1.7,0,0,0-1.66.87,6.54,6.54,0,0,0-.44,2.82v4.63h-1Z"/><path class="cls-3" d="M309.63,101.84a1.39,1.39,0,0,1-.69-.8,4.66,4.66,0,0,1-.22-1.63,5.16,5.16,0,0,1,.19-1.6,1.34,1.34,0,0,1,.62-.81,2.6,2.6,0,0,1,1.24-.24q.57,0,2.07.09v-.76a7.43,7.43,0,0,0-.14-1.76,1,1,0,0,0-.49-.71,2.94,2.94,0,0,0-1.21-.17,9.29,9.29,0,0,0-1,.06c-.36,0-.67.09-.92.14v-.83a9.51,9.51,0,0,1,2.16-.22,3.4,3.4,0,0,1,1.57.29,1.6,1.6,0,0,1,.75,1,8.11,8.11,0,0,1,.21,2.13v5.89H313l-.08-1.3h-.09a1.63,1.63,0,0,1-.69,1.14,2.39,2.39,0,0,1-1.23.3A2.84,2.84,0,0,1,309.63,101.84Zm2.44-.81a1.08,1.08,0,0,0,.55-.78,7.77,7.77,0,0,0,.22-2v-.7H311a2,2,0,0,0-.83.13.79.79,0,0,0-.38.52,5,5,0,0,0-.11,1.2,4.11,4.11,0,0,0,.12,1.14.83.83,0,0,0,.41.54,1.94,1.94,0,0,0,.88.16A2.37,2.37,0,0,0,312.07,101Z"/><path class="cls-3" d="M323.49,96.38a12.39,12.39,0,0,0-.1-1.92,1.2,1.2,0,0,0-.38-.8,1.62,1.62,0,0,0-.91-.19,1.38,1.38,0,0,0-1.13.41,2.06,2.06,0,0,0-.42,1.12,19.5,19.5,0,0,0-.09,2.21v4.72h-.95V96.38a12.39,12.39,0,0,0-.1-1.92,1.16,1.16,0,0,0-.38-.8,1.57,1.57,0,0,0-.89-.19,1.36,1.36,0,0,0-1.13.44,2.13,2.13,0,0,0-.44,1.17,19.12,19.12,0,0,0-.08,2.13v4.72h-1V92.75h.81l.07,1.29h.11a2,2,0,0,1,.6-1.05,1.88,1.88,0,0,1,1.31-.39,2.18,2.18,0,0,1,1.34.33,1.73,1.73,0,0,1,.57,1.11h.11a1.91,1.91,0,0,1,.61-1.05,2,2,0,0,1,1.33-.39,2.17,2.17,0,0,1,1.32.33,1.79,1.79,0,0,1,.58,1.06,10.82,10.82,0,0,1,.15,2.07v5.87h-.95Z"/><path class="cls-3" d="M275.31,122.64a7.43,7.43,0,0,1-.78,0,3.17,3.17,0,0,1-1.92-.47,2.74,2.74,0,0,1-.82-1.75,28.53,28.53,0,0,1-.21-4.12,28.24,28.24,0,0,1,.21-4.09,2.77,2.77,0,0,1,.82-1.76,3.1,3.1,0,0,1,1.92-.48,5.87,5.87,0,0,1,.82.06,2.6,2.6,0,0,1,.66.17v.87a4.78,4.78,0,0,0-1.32-.18,2.22,2.22,0,0,0-1.43.35,2.17,2.17,0,0,0-.55,1.41c-.08.71-.12,1.93-.12,3.65s0,3,.12,3.66a2.17,2.17,0,0,0,.55,1.41,2.29,2.29,0,0,0,1.43.35,6.07,6.07,0,0,0,.71,0,5.08,5.08,0,0,0,.64-.13v.9A5.16,5.16,0,0,1,275.31,122.64Z"/><path class="cls-3" d="M281.58,117a12.43,12.43,0,0,0-.11-1.92,1.17,1.17,0,0,0-.41-.8,1.9,1.9,0,0,0-1-.19,1.33,1.33,0,0,0-1.12.44,2.21,2.21,0,0,0-.43,1.16,19.21,19.21,0,0,0-.08,2.14v4.72h-1V109.17h1v5.28h.09a1.75,1.75,0,0,1,1.9-1.23,2.28,2.28,0,0,1,1.35.33,1.75,1.75,0,0,1,.59,1.06,10.91,10.91,0,0,1,.15,2.09v5.85h-.95Z"/><path class="cls-3" d="M284.85,122.46a1.39,1.39,0,0,1-.69-.8,4.66,4.66,0,0,1-.22-1.63,5.54,5.54,0,0,1,.18-1.6,1.39,1.39,0,0,1,.63-.81,2.57,2.57,0,0,1,1.24-.24q.57,0,2.07.09v-.76a8,8,0,0,0-.14-1.76,1,1,0,0,0-.49-.71,2.94,2.94,0,0,0-1.21-.17,9.14,9.14,0,0,0-1,.06c-.36,0-.67.09-.93.14v-.83a9.63,9.63,0,0,1,2.16-.22,3.42,3.42,0,0,1,1.58.29,1.63,1.63,0,0,1,.75,1,8.11,8.11,0,0,1,.21,2.13v5.89h-.83l-.07-1.3H288a1.63,1.63,0,0,1-.69,1.14,2.39,2.39,0,0,1-1.23.3A2.84,2.84,0,0,1,284.85,122.46Zm2.44-.81a1.11,1.11,0,0,0,.55-.78,7.77,7.77,0,0,0,.22-2v-.7h-1.87a1.93,1.93,0,0,0-.83.13.79.79,0,0,0-.38.52,5,5,0,0,0-.11,1.2,4.06,4.06,0,0,0,.12,1.14.85.85,0,0,0,.4.54,2,2,0,0,0,.89.16A2.37,2.37,0,0,0,287.29,121.65Z"/><path class="cls-3" d="M294.84,117a12.43,12.43,0,0,0-.11-1.92,1.14,1.14,0,0,0-.42-.8,1.84,1.84,0,0,0-1-.19,1.33,1.33,0,0,0-1.12.44,2.13,2.13,0,0,0-.43,1.16,18.69,18.69,0,0,0-.09,2.14v4.72h-.95v-9.18h.81l.07,1.29h.09a2,2,0,0,1,.62-1,2.06,2.06,0,0,1,1.36-.39,2.22,2.22,0,0,1,1.34.33,1.71,1.71,0,0,1,.6,1.06,10.91,10.91,0,0,1,.15,2.09v5.85h-1Z"/><path class="cls-3" d="M301.62,117a12.43,12.43,0,0,0-.11-1.92,1.14,1.14,0,0,0-.42-.8,1.86,1.86,0,0,0-1-.19,1.31,1.31,0,0,0-1.12.44,2.21,2.21,0,0,0-.44,1.16c-.05.48-.08,1.19-.08,2.14v4.72h-1v-9.18h.81l.07,1.29h.09a2,2,0,0,1,.62-1,2.06,2.06,0,0,1,1.36-.39,2.22,2.22,0,0,1,1.34.33,1.76,1.76,0,0,1,.6,1.06,10.91,10.91,0,0,1,.15,2.09v5.85h-.95Z"/><path class="cls-3" d="M309.23,118.26h-4.14a17.45,17.45,0,0,0,.11,2.31,1.39,1.39,0,0,0,.52,1,2.24,2.24,0,0,0,1.29.28,10.37,10.37,0,0,0,1-.06,8.24,8.24,0,0,0,1-.15v.83a8.85,8.85,0,0,1-1,.16,9.84,9.84,0,0,1-1.19.07,3.11,3.11,0,0,1-1.79-.41,2.16,2.16,0,0,1-.76-1.37,17.2,17.2,0,0,1-.19-2.94,20.48,20.48,0,0,1,.15-2.94,2,2,0,0,1,.71-1.37,3,3,0,0,1,1.82-.44,2.56,2.56,0,0,1,1.65.42,2,2,0,0,1,.63,1.33,22.62,22.62,0,0,1,.14,3Zm-3.58-4a1.34,1.34,0,0,0-.46.92,17.45,17.45,0,0,0-.1,2.29h3.22v-.33a11.33,11.33,0,0,0-.13-2.07,1.23,1.23,0,0,0-.43-.84,1.7,1.7,0,0,0-.95-.2A2.23,2.23,0,0,0,305.65,114.3Z"/><path class="cls-3" d="M310.8,122.55V109.17h.95v13.38Z"/><path class="cls-10" d="M276.31,226.8l-.44-1.6h-3.06l-.43,1.6H269.6l2.82-9.49h3.92l2.83,9.49Zm-1.93-7.11h-.11l-.91,3.42h2Z"/><path class="cls-10" d="M283,226.8v-9.49h2.83v7.24h3.47v2.25Z"/><path class="cls-10" d="M297.13,223.13v-2h3.64v5.44a14.65,14.65,0,0,1-1.71.22q-1,.09-1.71.09a7.24,7.24,0,0,1-2.73-.4,2.26,2.26,0,0,1-1.24-1.42,10,10,0,0,1-.35-3,9.73,9.73,0,0,1,.35-3,2.31,2.31,0,0,1,1.25-1.44,6.58,6.58,0,0,1,2.72-.43,15,15,0,0,1,1.84.11c.65.07,1.16.15,1.54.22v2l-1.22-.13c-.51,0-.92-.06-1.21-.06a7.17,7.17,0,0,0-1.72.13.84.84,0,0,0-.6.64,9.28,9.28,0,0,0-.13,1.94,11.25,11.25,0,0,0,.1,1.82,1,1,0,0,0,.43.75,2.15,2.15,0,0,0,1.09.2l.76,0v-1.67Z"/><path class="cls-10" d="M306.18,226.49a1.91,1.91,0,0,1-1.07-1.34,22.91,22.91,0,0,1,0-6.19,1.91,1.91,0,0,1,1.07-1.34,7.15,7.15,0,0,1,2.9-.42,7.24,7.24,0,0,1,2.91.42,1.91,1.91,0,0,1,1.07,1.34,24,24,0,0,1,0,6.19,1.91,1.91,0,0,1-1.07,1.34,7.24,7.24,0,0,1-2.91.42A7.15,7.15,0,0,1,306.18,226.49Zm3.85-1.85c.16-.09.26-.3.3-.64s.06-1,.06-1.95,0-1.61-.06-2-.14-.55-.3-.63a2.24,2.24,0,0,0-.95-.13,2.18,2.18,0,0,0-.94.13c-.16.08-.26.29-.3.62a16.69,16.69,0,0,0-.07,2,16.46,16.46,0,0,0,.07,2,.79.79,0,0,0,.3.63,2.18,2.18,0,0,0,.94.13A2.24,2.24,0,0,0,310,224.64Z"/><path class="cls-2" d="M276.47,240.59l-1.09-2.76h-4.49l-1.09,2.76h-.91l3.73-9.49h1.06l3.72,9.49Zm-3.3-8.46h-.07L271.18,237h3.91Z"/><path class="cls-2" d="M285.44,240.59l-1.53-3.88h-3.6v3.88h-.88V231.1h4.3a3,3,0,0,1,1.67.37,1.65,1.65,0,0,1,.72.95,5.65,5.65,0,0,1,.16,1.49,4.3,4.3,0,0,1-.29,1.71,1.67,1.67,0,0,1-1.22.94l1.62,4Zm-.74-4.93a1,1,0,0,0,.57-.62,3.76,3.76,0,0,0,.13-1.13,4.74,4.74,0,0,0-.11-1.14,1,1,0,0,0-.52-.62,2.85,2.85,0,0,0-1.29-.22h-3.17v4h3A3.14,3.14,0,0,0,284.7,235.66Z"/><path class="cls-2" d="M288.67,240.59V231.1h6v.83h-5.16v3.44h4.51v.83h-4.51v3.56h5.16v.83Z"/><path class="cls-2" d="M303.23,240.59l-5.43-7.82h-.06v7.82h-.85V231.1h.89l5.39,7.74h.06V231.1h.84v9.49Z"/><path class="cls-2" d="M313.67,240.59l-1.09-2.76H308.1L307,240.59h-.91l3.73-9.49h1.06l3.72,9.49Zm-3.29-8.46h-.07L308.39,237h3.9Z"/><path class="cls-2" d="M309.53,176.76l-17-9.76-17,9.89.08,19.64,17.05,9.75,17-9.88ZM298.24,190c1.05,2.07,1.32,5.28-.34,6.2s-4.17-.93-5.52-3.08c-.42-.68-4.63-3.06-5.43-3.16-2.7-.33-5.25-1.54-5.22-3.43s2.86-3.14,5.35-3.27a19.26,19.26,0,0,0,5.53-3.08c1.32-1.9,3.9-3.77,5.53-2.79s1.3,4,.17,6.24A18.66,18.66,0,0,0,298.24,190Zm-5.75-20.43,5.6,3.2a11.33,11.33,0,0,0-5.38,4.28c-.67,1-7,4.46-8.12,4.52-2.59.14-5.41,1.09-6.86,2.62l0-6Zm.14,34.23-14.86-8.5,0-6.58c1.36,1.43,3.95,2.35,6.64,2.69,1.18.14,7.35,3.63,8,4.63a11.07,11.07,0,0,0,5.5,4.7Zm9.34-5.45a10.65,10.65,0,0,0-1-6.89c-.54-1.06-.42-8.32.11-9.35a11,11,0,0,0,1.19-6.95l5.09,2.91.07,17.11Z"/></svg>