<?xml version="1.0" encoding="utf-8"?>
<!-- Generator: Adobe Illustrator 19.0.0, SVG Export Plug-In . SVG Version: 6.00 Build 0)  -->
<svg version="1.1" xmlns="http://www.w3.org/2000/svg" xmlns:xlink="http://www.w3.org/1999/xlink" x="0px" y="0px"
	 viewBox="-603 856 792 320" style="enable-background:new -603 856 792 320;" xml:space="preserve">
<style type="text/css">
	.st0{fill:#2A96FF;}
	.st1{fill:none;stroke:#FFFFFF;stroke-width:0.5;stroke-miterlimit:10;stroke-dasharray:5.97,5.97;}
	.st2{fill:#AAD5FF;}
	.st3{fill:#E3493C;}
	.st4{fill:#333333;}
	.st5{fill:#FFFFFF;}
	.st6{fill:#E4E4E4;}
</style>
<g id="Layer_1">
	<ellipse class="st0" cx="-14.5" cy="1012" rx="173.9" ry="128.3"/>
	<ellipse class="st1" cx="-401.6" cy="980.6" rx="189.4" ry="109.4"/>
	<title>ALGO-infrastructure-scope</title>
	<ellipse class="st2" cx="-365.2" cy="975.2" rx="74" ry="42.7"/>
	<path class="st0" d="M-284.7,975.2c0.4,0.9,0.8,1.9,1.2,2.9s0.6,2,0.9,3.1c-0.6,0.9-1.3,1.8-1.9,2.6c-0.6,0.8-1.4,1.6-2.1,2.3
		c0.3-1,0.6-2,0.9-2.9l-6.4-1.6l0.4-1.9l0.3-2l6.5,0.6C-284.7,977.3-284.7,976.3-284.7,975.2z"/>
	<path class="st0" d="M-291.6,995.6c-0.2,1-0.4,1.9-0.6,2.9s-0.5,1.9-0.8,2.9c-1.8,0.7-3.6,1.3-5.5,1.8c0.7-0.6,1.4-1.3,2-2
		l-4.6-4.6c1-0.9,1.8-1.9,2.7-2.9l5,4.2C-292.8,997.1-292.2,996.3-291.6,995.6z"/>
	<path class="st0" d="M-306.4,1009.1c-0.4,0.8-0.9,1.6-1.4,2.4c-0.5,0.8-1,1.6-1.5,2.4c-1.9,0.1-3.7,0-5.5,0l2.4-1.2l-3-5.8
		c1.1-0.6,2.3-1.2,3.4-1.9l3.4,5.6C-308,1010.1-307.2,1009.6-306.4,1009.1z"/>
	<path class="st0" d="M-323.7,1017.6c-1.2,1.4-2.4,2.7-3.7,4c-1.8-0.4-3.6-0.7-5.3-1.2c0.8-0.2,1.7-0.5,2.5-0.7l-1.8-6.3
		c1.3-0.4,2.5-0.8,3.8-1.2l2.1,6.2C-325.4,1018.1-324.5,1017.9-323.7,1017.6z"/>
	<path class="st0" d="M-341.9,1022.4c-1.4,1.1-2.8,2.2-4.3,3.3c-1.7-0.6-3.4-1.3-5-2c0.9-0.1,1.7-0.2,2.6-0.3l-0.8-6.5
		c1.3-0.2,2.6-0.3,3.9-0.6l1,6.5L-341.9,1022.4z"/>
	<path class="st0" d="M-360.5,1024.4c-1.5,0.9-3.1,1.8-4.7,2.7c-1.6-0.9-3.1-1.8-4.7-2.7c0.9,0,1.7,0,2.6,0l0.1-6.6
		c1.3,0,2.6,0,3.9,0l0.1,6.6C-362.2,1024.4-361.4,1024.4-360.5,1024.4z"/>
	<path class="st0" d="M-379.2,1023.7c-1.6,0.7-3.3,1.4-5,2c-1.5-1.1-2.9-2.2-4.3-3.3l2.6,0.4l1-6.5c1.3,0.2,2.6,0.4,3.9,0.6
		l-0.8,6.5C-380.9,1023.5-380,1023.6-379.2,1023.7z"/>
	<path class="st0" d="M-397.6,1020.4c-1.8,0.5-3.5,0.8-5.3,1.2c-1.3-1.3-2.5-2.6-3.7-4c0.8,0.3,1.7,0.6,2.5,0.8l2.1-6.2
		c1.2,0.4,2.5,0.8,3.8,1.2l-1.8,6.3C-399.3,1019.9-398.5,1020.2-397.6,1020.4z"/>
	<path class="st0" d="M-415.5,1013.9c-1.8,0.1-3.7,0.1-5.6,0c-0.5-0.8-1-1.6-1.5-2.4s-1-1.6-1.4-2.4c0.8,0.5,1.5,0.9,2.3,1.4
		l3.4-5.6c1.1,0.7,2.3,1.3,3.4,1.9l-3,5.8L-415.5,1013.9z"/>
	<path class="st0" d="M-431.8,1003.1c-1.9-0.5-3.7-1.1-5.5-1.8c-0.3-1-0.6-1.9-0.8-2.9c-0.2-1-0.4-1.9-0.6-2.9
		c0.6,0.8,1.2,1.5,1.8,2.3l5-4.2c0.9,1,1.7,2,2.7,2.9l-4.6,4.7C-433.2,1001.9-432.5,1002.5-431.8,1003.1z"/>
	<path class="st0" d="M-443.8,986.1c-0.7-0.7-1.4-1.5-2.1-2.3c-0.7-0.8-1.3-1.7-1.9-2.6c0.3-1.1,0.6-2.1,0.9-3.1s0.8-2,1.2-2.9
		c0.1,1,0.1,2.1,0.2,3.1l6.5-0.6l0.3,2l0.4,1.9l-6.4,1.6C-444.4,984.2-444.1,985.2-443.8,986.1z"/>
	<path class="st0" d="M-443.8,964.3c-0.1-1-0.1-2-0.2-3.1c0-1.1,0-2.1,0.1-3.1c0.9-0.6,1.7-1.2,2.5-1.8s1.7-1,2.6-1.5
		c-0.5,0.8-1.1,1.6-1.6,2.4l5.6,3.5l-1,1.7l-0.9,1.8l-6-2.7C-443,962.4-443.4,963.4-443.8,964.3z"/>
	<path class="st0" d="M-431.8,947.3c0.3-0.9,0.7-1.8,1.1-2.6c0.4-0.9,0.8-1.8,1.2-2.6l2.8-0.5l2.8-0.3c-0.8,0.5-1.5,1-2.3,1.5
		l3.8,5.4c-1.1,0.8-2.1,1.5-3.1,2.4l-4.1-5.1l-1.1,0.9L-431.8,947.3z"/>
	<path class="st0" d="M-415.5,936.6c1.1-1.4,2.2-2.9,3.4-4.3l2.7,0.3l2.7,0.4l-2.5,1l2.4,6.1c-1.2,0.5-2.4,1-3.6,1.5l-2.7-6
		C-413.9,935.9-414.7,936.2-415.5,936.6z"/>
	<path class="st0" d="M-397.6,930.1c1.3-1.3,2.6-2.5,4-3.6c1.8,0.5,3.5,1.1,5.2,1.6l-2.6,0.5l1.3,6.4c-1.3,0.2-2.6,0.6-3.9,0.8
		l-1.5-6.4C-395.9,929.7-396.8,929.9-397.6,930.1z"/>
	<path class="st0" d="M-379.2,926.7c1.5-1,2.9-2,4.5-3c1.6,0.7,3.3,1.5,4.8,2.3l-2.6,0.1l0.4,6.6c-1.3,0-2.6,0.2-3.9,0.3l-0.6-6.5
		C-377.5,926.6-378.3,926.7-379.2,926.7z"/>
	<path class="st0" d="M-360.5,926.1c1.6-0.8,3.2-1.6,4.8-2.3c1.5,1,3,2,4.5,3c-0.9-0.1-1.7-0.2-2.6-0.2l-0.6,6.5
		c-1.3-0.1-2.6-0.2-3.9-0.3l0.4-6.6L-360.5,926.1z"/>
	<path class="st0" d="M-341.9,928c1.7-0.5,3.4-1.1,5.2-1.6c1.4,1.2,2.7,2.4,4,3.6c-0.9-0.2-1.7-0.4-2.5-0.6l-1.5,6.4
		c-1.3-0.3-2.6-0.6-3.9-0.8l1.3-6.4L-341.9,928z"/>
	<path class="st0" d="M-323.7,932.9l2.7-0.4l2.7-0.3c1.2,1.4,2.3,2.9,3.4,4.3c-0.8-0.4-1.6-0.7-2.4-1.1l-2.7,6
		c-1.2-0.6-2.4-1-3.6-1.5l2.4-6.1L-323.7,932.9z"/>
	<path class="st0" d="M-306.4,941.3l2.8,0.3l2.8,0.5c0.4,0.8,0.8,1.8,1.2,2.6c0.4,0.9,0.7,1.8,1.1,2.6l-1-0.9l-1.1-0.9l-4.1,5.1
		c-1-0.9-2.1-1.6-3.1-2.4l3.8-5.4C-304.9,942.3-305.7,941.8-306.4,941.3z"/>
	<path class="st0" d="M-291.6,954.9c0.8,0.5,1.7,1,2.6,1.5s1.7,1.1,2.5,1.8c0.1,1.1,0.1,2.1,0.1,3.1c0,1-0.1,2.1-0.2,3.1
		c-0.4-0.9-0.7-1.9-1.2-2.8l-6,2.7l-0.9-1.8l-1-1.7l5.7-3.5C-290.5,956.5-291.1,955.7-291.6,954.9z"/>
	<ellipse class="st3" cx="-457.5" cy="978.4" rx="62.6" ry="59.4"/>
	<polygon class="st3" points="-392.1,950 -375.7,979.3 -392.1,1008.7 -392.2,992.4 -453,992.4 -453,966.3 -392.2,966.3 	"/>
	<path class="st4" d="M-373.4,994.9l-0.2-1.6h-1.2l-0.2,1.6h-1.6l1.2-8.1h2.4l1.2,8.1H-373.4z M-374.2,988.3L-374.2,988.3l-0.5,3.5
		h0.9L-374.2,988.3z"/>
	<path class="st4" d="M-370,994.9v-8.1h1.6v6.6h1.5v1.5H-370z"/>
	<path class="st4" d="M-363.1,991.5v-1.4h2v4.6c-0.3,0.1-0.6,0.1-0.9,0.2c-0.3,0-0.7,0.1-1,0.1c-0.5,0-1-0.1-1.4-0.3
		c-0.4-0.3-0.6-0.7-0.7-1.2c-0.1-0.9-0.2-1.7-0.2-2.6c0-0.9,0-1.8,0.2-2.6c0.1-0.5,0.3-0.9,0.7-1.2c0.5-0.3,1-0.4,1.5-0.3
		c0.3,0,0.6,0,0.9,0.1c0.3,0,0.5,0.1,0.8,0.2v1.4c-0.4-0.1-0.8-0.1-1.3-0.1c-0.3,0-0.6,0-0.9,0.1c-0.2,0.2-0.3,0.4-0.3,0.7
		c-0.1,0.6-0.1,1.3-0.1,1.9c0,0.9,0,1.5,0,1.9c0,0.3,0.1,0.5,0.2,0.7c0.1,0.1,0.3,0.2,0.5,0.2c0.1,0,0.2,0,0.4,0v-2L-363.1,991.5z"
		/>
	<path class="st4" d="M-358.6,994.6c-0.3-0.3-0.5-0.7-0.6-1.1c-0.1-1.8-0.1-3.5,0-5.3c0-0.4,0.2-0.9,0.6-1.1c0.4-0.3,1-0.4,1.5-0.4
		c0.5,0,1.1,0.1,1.5,0.4c0.3,0.3,0.5,0.7,0.5,1.2c0.1,0.9,0.1,1.8,0.1,2.6c0,0.9,0,1.8-0.1,2.6c0,0.4-0.2,0.9-0.5,1.2
		c-0.4,0.3-1,0.4-1.5,0.4C-357.7,995-358.2,994.9-358.6,994.6z M-356.8,993.4c0.1-0.2,0.1-0.4,0.1-0.6c0-0.3,0-1,0-1.9s0-1.6,0-1.9
		c0-0.2,0-0.4-0.1-0.6c-0.1-0.1-0.2-0.1-0.4-0.1c-0.1,0-0.3,0-0.4,0.1c-0.1,0.2-0.1,0.4-0.1,0.6c0,0.3,0,1,0,1.9s0,1.6,0,1.9
		c0,0.2,0,0.4,0.1,0.6c0.1,0.1,0.2,0.2,0.4,0.1C-357,993.5-356.9,993.5-356.8,993.4z"/>
	<path class="st4" d="M-353.1,986.7h2.3c1.2,0,1.8,0.7,1.8,2c0,0.5-0.1,0.9-0.2,1.3c-0.1,0.3-0.4,0.5-0.7,0.6l0,0
		c0.3,0.1,0.6,0.3,0.8,0.6c0.2,0.4,0.3,0.9,0.2,1.4c0,0.6-0.1,1.2-0.4,1.6c-0.4,0.4-0.9,0.6-1.4,0.5h-2.3L-353.1,986.7z M-350.8,990
		c0.1-0.1,0.1-0.2,0.1-0.3c0-0.2,0-0.4,0-0.6c0-0.2,0-0.4,0-0.6c0-0.1-0.1-0.2-0.1-0.2c-0.1,0-0.2-0.1-0.4-0.1h-0.4v1.8h0.4
		C-351,990.1-350.9,990-350.8,990L-350.8,990z M-350.8,993.3c0.1,0,0.1-0.1,0.1-0.3c0-0.2,0-0.4,0-0.7c0-0.2,0-0.4,0-0.6
		c0-0.1-0.1-0.2-0.1-0.3c-0.1,0-0.2-0.1-0.3-0.1h-0.4v1.9h0.4C-351,993.4-350.9,993.4-350.8,993.3L-350.8,993.3z"/>
	<path class="st4" d="M-346.5,994.6c-0.3-0.3-0.5-0.7-0.5-1.1c-0.1-1.8-0.1-3.5,0-5.3c0-0.4,0.2-0.9,0.5-1.1c0.4-0.3,1-0.4,1.5-0.4
		c0.5-0.1,1.1,0.1,1.5,0.4c0.3,0.3,0.5,0.7,0.5,1.2c0.1,0.9,0.1,1.8,0.1,2.6c0,0.9,0,1.8-0.1,2.6c0,0.4-0.2,0.9-0.5,1.2
		c-0.4,0.3-0.9,0.4-1.4,0.4C-345.5,995-346.1,994.9-346.5,994.6z M-344.7,993.4c0.1-0.2,0.1-0.4,0.1-0.6c0-0.3,0-1,0-1.9
		s0-1.6,0-1.9c0-0.2,0-0.4-0.1-0.6c-0.1-0.1-0.2-0.1-0.4-0.1c-0.1,0-0.3,0-0.4,0.1c-0.1,0.2-0.1,0.4-0.1,0.6c0,0.3,0,1,0,1.9
		s0,1.6,0,1.9c0,0.2,0,0.4,0.1,0.6c0.1,0.1,0.2,0.1,0.4,0.1C-344.9,993.5-344.8,993.5-344.7,993.4z"/>
	<path class="st4" d="M-340.1,994.9v-6.6h-1.2v-1.5h4v1.5h-1.2v6.6H-340.1z"/>
	<path class="st4" d="M-334.7,994.9c-0.3,0-0.6-0.1-0.9-0.2v-1.3c0.5,0,1,0.1,1.3,0.1c0.2,0,0.3,0,0.5,0c0.1,0,0.2-0.1,0.2-0.1
		c0.1-0.1,0.1-0.2,0.1-0.3c0-0.2,0-0.3,0-0.5c0-0.2,0-0.4,0-0.7c0-0.1-0.1-0.2-0.2-0.3c-0.1-0.1-0.3-0.1-0.5-0.2l-0.9-0.2
		c-0.3-0.1-0.5-0.3-0.6-0.6c-0.1-0.5-0.2-1-0.2-1.5c0-0.5,0.1-1.1,0.3-1.5c0.1-0.3,0.4-0.6,0.7-0.7c0.4-0.1,0.8-0.2,1.1-0.2
		c0.3,0,0.7,0,1,0.1c0.2,0,0.4,0.1,0.5,0.1v1.3c-0.1,0-0.2,0-0.4,0h-0.7c-0.2,0-0.4,0-0.5,0c-0.1,0-0.2,0.1-0.3,0.1
		c-0.1,0.1-0.1,0.2-0.1,0.3c0,0.2,0,0.3,0,0.5c0,0.2,0,0.3,0,0.5c0,0.1,0.1,0.2,0.1,0.3c0.1,0.1,0.2,0.1,0.3,0.1l0.7,0.2
		c0.2,0,0.4,0.1,0.6,0.3c0.2,0.2,0.3,0.4,0.4,0.6c0.1,0.4,0.2,0.9,0.1,1.3c0,0.6-0.1,1.1-0.3,1.6c-0.1,0.3-0.4,0.6-0.7,0.8
		c-0.4,0.1-0.7,0.2-1.1,0.2C-334.1,994.9-334.4,994.9-334.7,994.9z"/>
	<path class="st5" d="M-373.5,1006.8c-0.2,0-0.3,0-0.5,0c-0.4,0-0.9-0.1-1.3-0.3c-0.3-0.3-0.5-0.7-0.5-1.1c-0.2-1.8-0.2-3.6,0-5.4
		c0-0.4,0.2-0.9,0.5-1.2c0.4-0.2,0.8-0.4,1.3-0.3c0.2,0,0.4,0,0.5,0c0.2,0,0.3,0,0.4,0.1v0.6c-0.3-0.1-0.6-0.1-0.9-0.1
		c-0.6-0.1-1.1,0.2-1.3,0.8c0,0.1,0,0.3,0,0.4c0,0.5-0.1,1.3-0.1,2.4c0,1.1,0,1.9,0.1,2.4c0,0.3,0.1,0.7,0.4,0.9
		c0.3,0.2,0.6,0.3,0.9,0.2c0.2,0,0.3,0,0.5,0c0.1,0,0.3,0,0.4-0.1v0.6C-373.2,1006.7-373.4,1006.7-373.5,1006.8z"/>
	<path class="st5" d="M-371.3,1006.5c-0.3-0.3-0.5-0.7-0.5-1.1c-0.2-1.8-0.2-3.6,0-5.4c0-0.4,0.2-0.8,0.5-1.1c0.8-0.4,1.8-0.4,2.6,0
		c0.3,0.3,0.5,0.7,0.5,1.1c0.2,1.8,0.2,3.6,0,5.4c0,0.4-0.2,0.8-0.5,1.1C-369.5,1006.9-370.4,1006.9-371.3,1006.5z M-369.1,1006
		c0.2-0.2,0.3-0.6,0.4-0.9c0.1-1.6,0.1-3.3,0-4.9c0-0.3-0.1-0.7-0.4-0.9c-0.3-0.2-0.6-0.2-0.9-0.2c-0.3,0-0.6,0-0.9,0.2
		c-0.2,0.2-0.3,0.6-0.3,0.9c-0.1,1.6-0.1,3.3,0,4.9c0,0.3,0.1,0.7,0.3,0.9c0.3,0.1,0.6,0.2,0.9,0.2
		C-369.6,1006.2-369.3,1006.1-369.1,1006z"/>
	<path class="st5" d="M-362,1006.7v-6.9l0,0l-1.5,6.9h-0.7l-1.5-6.9h0v6.9h-0.6v-8.1h1l1.6,7h0.1l1.6-7h1v8.1H-362z"/>
	<path class="st5" d="M-355.2,1006.7v-6.9h-0.1l-1.5,6.9h-0.7l-1.5-6.9h-0.1v6.9h-0.6v-8.1h1l1.6,7h0.1l1.6-7h1v8.1H-355.2z"/>
	<path class="st5" d="M-349.3,998.6v4.6c0,0.8,0,1.5-0.1,2.3c0,0.4-0.2,0.7-0.5,1c-0.4,0.2-0.8,0.3-1.2,0.3c-0.4,0-0.9-0.1-1.3-0.3
		c-0.3-0.3-0.5-0.6-0.5-1c-0.1-0.8-0.1-1.5-0.1-2.3v-4.6h0.7v5c0,0.6,0,1.1,0.1,1.7c0,0.3,0.1,0.5,0.3,0.7c0.2,0.2,0.5,0.2,0.8,0.2
		c0.3,0,0.6,0,0.8-0.2c0.2-0.2,0.3-0.4,0.3-0.7c0.1-0.6,0.1-1.1,0.1-1.7v-5H-349.3z"/>
	<path class="st5" d="M-344.6,1006.7l-2.4-6.5l0,0v6.5h-0.6v-8.1h0.7l2.3,6.4l0,0v-6.4h0.6v8.1H-344.6z"/>
	<path class="st5" d="M-342.3,1006.7v-8.1h0.6v8.1H-342.3z"/>
	<path class="st5" d="M-338.9,1006.7v-7.5h-1.5v-0.6h3.6v0.6h-1.5v7.5H-338.9z"/>
	<path class="st5" d="M-334.1,1006.7v-3.2l-1.7-4.9h0.7l1.4,4.1h0.1l1.4-4.1h0.6l-1.7,4.9v3.2H-334.1z"/>
	<circle class="st5" cx="-353.6" cy="959.3" r="17.4"/>
	<path class="st0" d="M-345.4,955.7c1.7-2.9,2.4-6.8,0.4-8.3c-2-1.5-5.4,0.4-7.8,3.1c-1.6-3-4.7-5.6-7-4.5c-2.3,1-2.3,5.3-1.2,8.2
		c-3.3,0-7,1.3-7.3,3.8c-0.3,2.5,3.4,4.6,6.4,5.1c-1.7,2.9-2.4,6.8-0.4,8.3c2,1.5,5.7-0.7,7.7-3.1c1.6,2.9,4.7,5.5,7,4.5
		s2.2-5.2,1.2-8.1c3.3,0,6.9-1.4,7.2-3.8C-338.9,958.3-341.9,956.4-345.4,955.7z M-350.7,960.4c0.6,0.9,0.9,2,0.3,2.5
		c-0.6,0.5-1.8-0.1-2.5-0.8c-0.8-0.4-1.6-0.7-2.5-0.9c-1,0.1-2.2-0.2-2.4-1c-0.1-0.8,0.9-1.4,1.9-1.7c0.8-0.4,1.4-1,2-1.6
		c0.4-0.9,1.3-1.8,2-1.5c0.7,0.3,0.8,1.5,0.5,2.5C-351.2,958.8-351,959.6-350.7,960.4L-350.7,960.4z M-357.5,948.1
		c1.5-0.5,3.2,0.8,4.4,2.6c-0.2,0.2-0.4,0.3-0.7,0.4c-1.3-1.6-3.1-2.8-4.5-2.1c-0.2,0.1-0.4,0.3-0.6,0.5
		C-358.6,948.8-358.1,948.4-357.5,948.1L-357.5,948.1z M-354.2,951.5c-0.8,0.5-2.1,1.1-3.1,1.6c0.1-0.8,0.6-1.6,1.3-2
		C-355.4,950.9-354.7,951-354.2,951.5L-354.2,951.5z M-365,958.4c-0.2-0.4-0.3-0.9-0.2-1.4c0.3-1.5,2.2-2.4,4.4-2.5
		c0,0.3,0.1,0.6,0.1,0.9c-2.1,0.3-4.1,1.3-4.2,2.9C-365,958.3-365,958.3-365,958.4z M-363.1,958.7c0.1-1.7,2.6-2.7,4.9-2.7
		c1.5-0.4,2.8-1.1,4.1-1.9c-0.1,0.2-0.1,0.3-0.2,0.5c-1,1.2-2.2,2.3-3.6,3.1c-1.8,0.5-3.7,1.8-3.4,3.2c0,0,0,0.1,0,0.1
		C-362.4,960.5-363.2,959.7-363.1,958.7L-363.1,958.7z M-361.4,968.4c-1.2-1.1-0.9-3.3,0.1-5.2c0.3,0.1,0.6,0.3,0.9,0.4
		c-0.8,2-1,4.2,0.4,5.2c0.1,0.1,0.2,0.1,0.3,0.2C-360.3,969-360.9,968.8-361.4,968.4L-361.4,968.4z M-359.4,965.8
		c-0.4-0.5-0.6-1.2-0.5-1.9c0.9,0.5,2.1,1.4,3,2.1C-357.7,966.4-358.7,966.3-359.4,965.8L-359.4,965.8z M-349.6,970.6
		c-1.6,0.5-3.3-0.9-4.5-2.7c0.2-0.2,0.4-0.3,0.7-0.4c1.3,1.7,3.1,2.9,4.6,2.2c0.2-0.1,0.3-0.2,0.5-0.4
		C-348.6,969.9-349,970.4-349.6,970.6L-349.6,970.6z M-349.2,967.9c-1.5,0.8-3.7-1-4.8-2.9c-1-0.9-2.1-1.7-3.3-2.4h0.1
		c1.6,0.3,3.1,0.8,4.5,1.6c1.3,1.3,3.4,2.3,4.5,1.4l0.1-0.1C-347.9,966.4-348.4,967.4-349.2,967.9L-349.2,967.9z M-348.3,956.8
		c-0.3,1.4-0.5,2.8-0.4,4.2l0-0.1c-0.6-1.5-0.9-3-0.9-4.6c0.5-1.8,0.3-4.2-1-4.6c-0.2-0.1-0.4-0.1-0.6-0.1c1.1-0.7,2.3-1,3.1-0.5
		C-346.8,952-347.2,954.8-348.3,956.8L-348.3,956.8z M-347,950c-0.1,0-0.2-0.1-0.2-0.1c0.6-0.1,1.2,0.1,1.6,0.5
		c1.2,1.1,0.9,3.3-0.1,5.3c-0.3-0.1-0.6-0.2-0.9-0.4C-345.8,953.2-345.7,950.9-347,950z M-346.2,959.3c0.8,0.5,1.3,1.4,1.2,2.3
		c-0.2,0.6-0.7,1.1-1.4,1.3C-346.4,961.7-346.3,960.5-346.2,959.3L-346.2,959.3z M-341.9,961.8c-0.3,1.6-2.3,2.4-4.4,2.5
		c-0.1-0.3-0.1-0.6-0.1-0.8c2.2-0.3,4.2-1.3,4.3-2.9c0-0.1,0-0.1,0-0.2C-341.9,960.8-341.8,961.3-341.9,961.8L-341.9,961.8z"/>
	<path d="M-471.8,991.7l-0.1-1.2h-0.9l-0.1,1.2h-1.2l0.9-5.9h1.8l0.9,5.9H-471.8z M-472.4,987L-472.4,987l-0.4,2.5h0.7L-472.4,987z"
		/>
	<path d="M-469.2,985.8h1.4c0.4,0,0.8,0.1,1.1,0.3c0.2,0.2,0.4,0.5,0.4,0.8c0.1,1.2,0.1,2.5,0,3.7c0,0.3-0.2,0.6-0.4,0.8
		c-0.3,0.2-0.7,0.3-1.1,0.3h-1.4V985.8z M-467.8,990.6c0.1,0,0.2,0,0.3-0.1c0.1-0.1,0.1-0.3,0.1-0.4c0-0.2,0-0.7,0-1.3
		c0-0.7,0-1.1,0-1.3c0-0.2,0-0.3-0.1-0.5c-0.1-0.1-0.2-0.1-0.3-0.1h-0.2v3.8H-467.8z"/>
	<path d="M-464.1,991.7l-0.8-5.9h1.2l0.5,4.7h0.1l0.5-4.7h1.2l-0.8,5.9H-464.1z"/>
	<path d="M-458.2,991.7l-0.1-1.2h-0.9l-0.1,1.2h-1.2l0.9-5.9h1.8l0.9,5.9H-458.2z M-458.8,987L-458.8,987l-0.4,2.5h0.7L-458.8,987z"
		/>
	<path d="M-453.5,991.7l-0.9-3l0,0v3h-1.1v-5.9h1.1l0.8,2.7l0,0v-2.7h1.1v5.9H-453.5z"/>
	<path d="M-449,991.7c-0.1,0-0.3,0-0.4,0c-0.4,0-0.7-0.1-1-0.3c-0.2-0.2-0.4-0.5-0.4-0.9c-0.1-0.6-0.1-1.2-0.1-1.9
		c0-0.6,0-1.2,0.1-1.9c0-0.3,0.2-0.7,0.4-0.9c0.3-0.2,0.6-0.3,1-0.3c0.2,0,0.3,0,0.5,0c0.1,0,0.2,0,0.3,0.1v1c-0.2,0-0.4,0-0.6,0
		c-0.1,0-0.3,0-0.4,0.1c-0.1,0.1-0.1,0.3-0.1,0.5c0,0.2,0,0.7,0,1.4c0,0.7,0,1.1,0,1.4c0,0.2,0,0.3,0.1,0.5c0.1,0.1,0.3,0.1,0.4,0.1
		c0.2,0,0.4,0,0.6,0v1C-448.7,991.7-448.9,991.7-449,991.7z"/>
	<path d="M-447.1,991.7v-5.9h2.4v1.1h-1.2v1.3h1v1.1h-1v1.4h1.2v1.1H-447.1z"/>
	<path d="M-443.2,985.8h1.4c0.4,0,0.8,0.1,1.1,0.3c0.2,0.2,0.4,0.5,0.4,0.8c0.1,1.2,0.1,2.5,0,3.7c0,0.3-0.2,0.6-0.4,0.8
		c-0.3,0.2-0.7,0.3-1.1,0.3h-1.4V985.8z M-441.8,990.6c0.1,0,0.2,0,0.3-0.1c0.1-0.1,0.1-0.3,0.1-0.4c0-0.2,0-0.7,0-1.3
		c0-0.7,0-1.1,0-1.3c0-0.2,0-0.3-0.1-0.5c-0.1-0.1-0.2-0.1-0.3-0.1h-0.2v3.8H-441.8z"/>
	<path class="st5" d="M-468.5,1002l-0.8-2.1h-3.3l-0.8,2.1h-0.7l2.8-7.1h0.8l2.8,7.1H-468.5z M-471,995.7L-471,995.7l-1.4,3.6h2.9
		L-471,995.7z"/>
	<path class="st5" d="M-466,1002v-7.1h0.7v6.4h3.4v0.7H-466z"/>
	<path class="st5" d="M-457.5,998.9v-0.6h2.4v3.6c-0.3,0-0.7,0.1-1.1,0.1c-0.4,0-0.8,0.1-1.1,0.1c-0.6,0-1.3-0.1-1.9-0.3
		c-0.4-0.2-0.7-0.6-0.8-1c-0.3-1.5-0.3-3.1,0-4.7c0.1-0.4,0.4-0.8,0.8-1c0.6-0.2,1.2-0.3,1.9-0.3c0.3,0,0.7,0,1.1,0.1
		s0.8,0.1,1.1,0.1v0.6c-0.6-0.1-1.2-0.2-1.8-0.2c-0.6,0-1.2,0-1.8,0.1c-0.3,0.1-0.6,0.4-0.7,0.8c-0.2,0.7-0.2,1.4-0.2,2.1
		c0,0.7,0,1.3,0.1,2c0.1,0.4,0.3,0.7,0.6,0.8c0.5,0.2,1,0.2,1.5,0.2c0.2,0,0.5,0,0.8,0s0.6,0,0.8-0.1v-2.5L-457.5,998.9z"/>
	<path class="st5" d="M-452.2,1001.8c-0.4-0.2-0.7-0.6-0.7-1c-0.2-1.6-0.2-3.2,0-4.8c0.1-0.4,0.3-0.8,0.7-1c1.3-0.3,2.6-0.3,3.9,0
		c0.4,0.2,0.7,0.6,0.7,1c0.2,1.6,0.2,3.2,0,4.8c-0.1,0.4-0.3,0.8-0.7,1C-449.5,1002.1-450.9,1002.1-452.2,1001.8z M-448.7,1001.3
		c0.3-0.1,0.5-0.4,0.5-0.7c0.2-1.4,0.2-2.9,0-4.3c0-0.3-0.2-0.6-0.5-0.7c-1-0.2-2.1-0.2-3.1,0c-0.3,0.1-0.5,0.4-0.5,0.7
		c-0.2,1.4-0.2,2.9,0,4.3c0,0.3,0.2,0.6,0.5,0.7C-450.7,1001.5-449.7,1001.5-448.7,1001.3z"/>
	<path class="st5" d="M-444.1,1002c-0.5,0-0.8-0.1-1.2-0.1v-0.6c0.4,0,0.8,0.1,1.2,0.1s0.8,0,1.1,0c0.3,0,0.6,0,0.9,0
		c0.2,0,0.4-0.1,0.6-0.2c0.2-0.1,0.3-0.2,0.3-0.4c0.1-0.2,0.1-0.5,0.1-0.7c0-0.3,0-0.5-0.1-0.8c0-0.1-0.1-0.3-0.3-0.3
		c-0.3-0.1-0.5-0.1-0.8-0.2l-1.8-0.2c-0.3,0-0.7-0.1-0.9-0.3c-0.2-0.1-0.3-0.3-0.4-0.6c-0.1-0.3-0.1-0.6-0.1-1
		c0-0.4,0.1-0.9,0.3-1.2c0.2-0.3,0.5-0.5,0.8-0.6c0.5-0.1,0.9-0.2,1.4-0.1c0.4,0,0.8,0,1.2,0c0.4,0,0.7,0.1,0.9,0.1v0.6
		c-0.3,0-0.6-0.1-1-0.1h-1.1c-0.3,0-0.7,0-1,0.1c-0.2,0-0.4,0.1-0.6,0.2c-0.1,0.1-0.2,0.2-0.3,0.4c-0.1,0.2-0.1,0.4-0.1,0.7
		c0,0.2,0,0.5,0.1,0.7c0,0.1,0.1,0.3,0.3,0.3c0.2,0.1,0.4,0.1,0.6,0.2l1.8,0.2c0.3,0,0.7,0.1,1,0.2c0.2,0.1,0.4,0.3,0.5,0.6
		c0.1,0.4,0.1,0.8,0.1,1.1c0,0.5-0.1,0.9-0.3,1.4c-0.2,0.3-0.4,0.5-0.8,0.6c-0.4,0.1-0.9,0.1-1.3,0.1L-444.1,1002z"/>
	<path class="st5" d="M-457.9,969c1.3,0,2.5,0.2,3.7,0.6c1.2,0.9,3,1.3,3.7,0.5s0-2.4-1.2-3.5c-0.7-1.1-1.1-2.3-1.4-3.5
		c0.2-1.5-0.3-3.3-1.5-3.5c-1.1-0.2-2.2,1.4-2.4,2.8c-0.6,1.1-1.4,2.1-2.4,3c-1.3,0.6-2.6,1.9-2.2,3
		C-461.1,969.4-459.3,969.3-457.9,969z"/>
	<path class="st5" d="M-452.9,953.4c1.8,0.1,2.6,3.8,2.3,6.7c-0.1,0.9,2,6.1,2.4,6.9c0.3,0.5,0.7,0.9,1.2,1.2
		c-1.4-3.8-1.5-6.8-1.3-7.5c1.2-3.3,0.7-7.6-1.1-8.7c-2-1-4.4-0.3-5.4,1.7c0,0,0,0.1-0.1,0.1C-454.3,953.5-453.6,953.3-452.9,953.4z
		"/>
	<path class="st5" d="M-467.4,969.2c-0.8-1.6,2-4.1,4.6-5.3c0.8-0.4,4.3-4.8,4.8-5.6c0.3-0.5,0.5-1,0.4-1.6
		c-2.6,3.1-5.1,4.7-5.8,4.8c-3.4,0.6-7,3.2-6.9,5.3c0.1,2.2,1.9,3.9,4.1,3.8c0,0,0.1,0,0.1,0C-466.7,970.3-467.2,969.8-467.4,969.2z
		"/>
	<path class="st5" d="M-446.5,974.2c-1,1.5-4.5,0.4-6.9-1.3c-0.8-0.5-6.3-1.3-7.2-1.4c-0.6,0-1.1,0.1-1.6,0.4
		c3.9,0.7,6.6,2.1,7.1,2.7c2.2,2.6,6.3,4.4,8,3.4c1.9-1.2,2.4-3.6,1.3-5.5c0,0,0-0.1-0.1-0.1C-445.8,973-446,973.6-446.5,974.2z"/>
	<ellipse class="st1" cx="-13.3" cy="1012.9" rx="189.9" ry="146.9"/>
	<path class="st2" d="M166,1012c0.8,2.3,1.6,4.6,2.4,7.1c-1,2.2-2.2,4.4-3.2,6.4l0.4-3.7l-6.5-1.1c0.1-0.9,0.2-1.8,0.2-2.7l0.1-2.7
		l6.6,0.4L166,1012z"/>
	<path class="st2" d="M162.6,1038.5c0.3,2.5,0.5,5.1,0.6,7.6c-0.7,0.8-1.5,1.7-2.2,2.4l-2.3,2.2c0.4-1.1,0.8-2.2,1.2-3.3l-6-3.7
		l1.5-4.9l6.1,3.2C162,1040.9,162.3,1039.7,162.6,1038.5z"/>
	<path class="st2" d="M153.7,1062.1c-0.2,2.4-0.5,4.9-0.8,7.4c-1.7,1-3.4,2-5.1,2.9l1.7-2.8l-5.1-5.5l1.3-2.1
		c0.4-0.7,0.8-1.5,1.2-2.2l5.3,5.2L153.7,1062.1z"/>
	<path class="st2" d="M141.2,1081.8c-0.6,2.3-1.1,4.7-1.8,7c-1.8,0.5-3.6,1.1-5.3,1.5l2-2.3l-4.3-6.7c1-1.2,2-2.3,3-3.5l4.5,6.5
		L141.2,1081.8z"/>
	<path class="st2" d="M126.5,1098c-0.8,2.1-1.6,4.4-2.5,6.5l-5.4,0.5l2.2-1.9l-3.5-7.4c1.1-1,2.3-1.9,3.3-2.9l3.7,7.3L126.5,1098z"
		/>
	<path class="st2" d="M110.5,1111.1l-3,6c-1.8,0-3.6-0.2-5.4-0.4l2.3-1.5l-2.9-7.9c1.2-0.8,2.4-1.6,3.6-2.5l3,7.8L110.5,1111.1z"/>
	<path class="st2" d="M93.7,1121.9c-1.1,1.9-2.2,3.7-3.3,5.6l-5.3-1l2.4-1.3l-2.4-8.2l3.7-2l2.5,8.2
		C92.1,1122.8,92.9,1122.4,93.7,1121.9z"/>
	<path class="st2" d="M76.3,1130.6l-3.6,5.2c-1.7-0.5-3.5-1-5.2-1.6l2.5-1l-1.9-8.4c1.3-0.5,2.5-1.1,3.8-1.6l2,8.4L76.3,1130.6z"/>
	<path class="st2" d="M58.5,1137.4c-1.3,1.6-2.6,3.3-3.9,4.9l-5.1-2.1l2.5-0.8l-1.4-8.6c1.3-0.4,2.6-0.7,3.9-1.2l1.5,8.6
		L58.5,1137.4z"/>
	<path class="st2" d="M40.5,1142.6c-1.3,1.5-2.7,3-4.1,4.5l-5-2.5l2.5-0.6l-1-8.7l4-0.8l1.1,8.7C38.8,1143,39.6,1142.8,40.5,1142.6z
		"/>
	<path class="st2" d="M22.2,1146.2c-1.4,1.4-2.9,2.7-4.3,4.1l-4.8-2.9l2.5-0.4l-0.6-8.8l4-0.5l0.7,8.8
		C20.5,1146.4,21.4,1146.3,22.2,1146.2z"/>
	<polygon class="st2" points="3.9,1148.3 -0.6,1152.1 -5.3,1148.8 -2.7,1148.6 -3,1139.8 1,1139.6 1.3,1148.4 	"/>
	<polygon class="st2" points="-14.5,1149 -19.1,1152.4 -23.7,1148.8 -21.1,1148.8 -21,1140 -17,1140.1 -17,1148.9 	"/>
	<path class="st2" d="M-32.9,1148.3l-4.8,3c-1.5-1.3-2.9-2.6-4.4-3.9c0.9,0.1,1.7,0.1,2.5,0.2l0.5-8.8l4,0.4l-0.4,8.8L-32.9,1148.3z
		"/>
	<path class="st2" d="M-51.2,1146.2l-4.9,2.7c-1.4-1.4-2.8-2.8-4.2-4.3c0.8,0.2,1.7,0.3,2.5,0.4l0.9-8.7l4,0.7l-0.8,8.8
		L-51.2,1146.2z"/>
	<path class="st2" d="M-69.4,1142.6l-5,2.3c-1.4-1.5-2.7-3.1-4-4.7l2.5,0.7l1.3-8.6c1.3,0.3,2.6,0.7,3.9,1l-1.2,8.7L-69.4,1142.6z"
		/>
	<path class="st2" d="M-87.5,1137.4c-1.7,0.6-3.4,1.3-5.2,1.9l-3.8-5.1l2.5,0.9l1.7-8.5c1.3,0.5,2.6,1,3.9,1.3l-1.6,8.5
		L-87.5,1137.4z"/>
	<path class="st2" d="M-105.3,1130.6c-1.8,0.5-3.5,0.9-5.3,1.3l-3.5-5.4l2.4,1.1l2.2-8.3l3.8,1.8l-2.1,8.3
		C-106.9,1129.9-106.1,1130.2-105.3,1130.6z"/>
	<path class="st2" d="M-122.7,1121.9l-5.3,0.7c-1.1-1.9-2.1-3.9-3.2-5.8l2.4,1.5l2.7-8.1c1.2,0.8,2.4,1.4,3.7,2.2l-2.6,8.1
		L-122.7,1121.9z"/>
	<path class="st2" d="M-139.5,1111.1c-1.8,0.1-3.6,0-5.4,0c-0.9-2.1-1.9-4-2.7-6.2c0.7,0.6,1.5,1.2,2.2,1.8l3.4-7.6l3.5,2.7
		l-3.2,7.7C-141,1110-140.2,1110.6-139.5,1111.1z"/>
	<path class="st2" d="M-155.5,1098c-1.8-0.2-3.6-0.5-5.4-1c-0.7-2.2-1.5-4.5-2.2-6.7c0.7,0.7,1.4,1.4,2.1,2.1l4.1-6.9l3.2,3.3
		l-3.9,7.1L-155.5,1098z"/>
	<path class="st2" d="M-170.1,1081.8l-2.7-1c-0.9-0.3-1.7-0.8-2.6-1.2c-0.5-2.4-1-4.7-1.4-7.2c0.6,0.9,1.2,1.8,1.8,2.7l4.9-5.9
		l2.7,3.9l-4.7,6.2L-170.1,1081.8z"/>
	<path class="st2" d="M-182.7,1062.1c-0.8-0.5-1.6-1.1-2.4-1.7l-2.4-1.9c-0.2-2.5-0.2-5-0.2-7.6l1.3,3.3l5.7-4.3
		c0.7,1.5,1.4,3,2.1,4.6l-5.6,4.6C-183.7,1060.1-183.2,1061.1-182.7,1062.1z"/>
	<path class="st2" d="M-191.6,1038.5l-2-2.7c-0.3-0.5-0.7-0.9-1-1.3l-0.9-1.5l0.7-3.8c0.2-1.2,0.5-2.5,0.8-3.7
		c0.1,1.2,0.3,2.5,0.6,3.7l6.4-1.9l0.5,2.6c0.1,0.9,0.3,1.7,0.5,2.6l-6.3,2.5L-191.6,1038.5z"/>
	<path class="st2" d="M-194.9,1012c-0.8-2.3-1.6-4.6-2.4-7.1c1-2.2,2.2-4.4,3.2-6.4l-0.4,3.7l6.5,1.1c-0.1,0.9-0.2,1.8-0.2,2.7
		l-0.1,2.7l-6.6-0.4L-194.9,1012z"/>
	<path class="st2" d="M-191.6,985.5c-0.3-2.5-0.5-5.1-0.6-7.6c0.7-0.8,1.5-1.7,2.2-2.4l2.3-2.2c-0.4,1.1-0.8,2.2-1.2,3.3l6,3.7
		l-1.6,4.9l-6.1-3.2C-191,983.1-191.3,984.3-191.6,985.5z"/>
	<path class="st2" d="M-182.7,961.9c0.2-2.4,0.5-4.9,0.8-7.4c1.7-1,3.4-2,5.1-2.9l-1.7,2.8l5.1,5.5l-1.3,2.1
		c-0.4,0.7-0.8,1.5-1.2,2.2l-5.3-5.2L-182.7,961.9z"/>
	<path class="st2" d="M-170.1,942.2c0.6-2.3,1.1-4.7,1.8-7c1.8-0.5,3.6-1.1,5.3-1.5l-2,2.3l4.3,6.7c-1,1.2-2.1,2.3-3,3.5l-4.5-6.5
		L-170.1,942.2z"/>
	<path class="st2" d="M-155.5,926c0.8-2.1,1.6-4.4,2.5-6.5l5.4-0.5l-2.2,2l3.5,7.4c-1.1,1-2.3,1.9-3.3,2.9l-3.7-7.3L-155.5,926z"/>
	<path class="st2" d="M-139.5,912.8l3-6c1.8,0,3.6,0.2,5.4,0.4l-2.3,1.5l2.9,7.9c-1.2,0.8-2.4,1.6-3.6,2.5l-3-7.8L-139.5,912.8z"/>
	<path class="st2" d="M-122.7,902c1.1-1.9,2.2-3.7,3.3-5.6l5.3,1l-2.4,1.3l2.4,8.2l-3.7,1.9l-2.5-8.2
		C-121.1,901.1-121.9,901.6-122.7,902z"/>
	<path class="st2" d="M-105.3,893.4l3.6-5.2c1.7,0.5,3.5,1,5.2,1.6l-2.5,1l1.9,8.4c-1.3,0.5-2.5,1.1-3.8,1.6l-2-8.4L-105.3,893.4z"
		/>
	<path class="st2" d="M-87.5,886.5c1.3-1.6,2.6-3.3,3.9-4.9l5.1,2.1l-2.5,0.8l1.4,8.6c-1.3,0.4-2.6,0.7-3.9,1.2l-1.5-8.6
		L-87.5,886.5z"/>
	<path class="st2" d="M-69.4,881.4c1.3-1.5,2.7-3,4.1-4.5l5,2.5l-2.5,0.6l1,8.7l-4,0.8l-1.1-8.7C-67.8,881-68.6,881.2-69.4,881.4z"
		/>
	<path class="st2" d="M-51.2,877.8c1.4-1.4,2.9-2.7,4.3-4.1l4.8,2.9l-2.5,0.4l0.6,8.8l-4,0.5l-0.7-8.8
		C-49.5,877.6-50.4,877.6-51.2,877.8z"/>
	<polygon class="st2" points="-32.9,875.7 -28.4,871.9 -23.7,875.1 -26.2,875.3 -26,884.1 -30,884.3 -30.3,875.5 	"/>
	<polygon class="st2" points="-14.5,875 -9.9,871.6 -5.3,875.1 -7.9,875.1 -8,883.9 -12,883.9 -11.9,875.1 	"/>
	<path class="st2" d="M3.9,875.7l4.8-3c1.5,1.3,2.9,2.6,4.4,3.9c-0.9-0.1-1.7-0.1-2.5-0.2l-0.5,8.8l-4-0.4l0.4-8.8L3.9,875.7z"/>
	<path class="st2" d="M22.2,877.8l4.9-2.7c1.4,1.4,2.8,2.8,4.2,4.3c-0.8-0.2-1.7-0.3-2.5-0.4l-0.9,8.7l-4-0.7l0.8-8.8L22.2,877.8z"
		/>
	<path class="st2" d="M40.5,881.4l5-2.3c1.4,1.5,2.7,3.1,4,4.7l-2.5-0.7l-1.3,8.6c-1.3-0.3-2.6-0.7-3.9-1l1.2-8.7L40.5,881.4z"/>
	<path class="st2" d="M58.5,886.5c1.7-0.6,3.4-1.3,5.2-1.9l3.8,5.1l-2.5-0.9l-1.7,8.5c-1.3-0.5-2.6-1-3.9-1.3l1.6-8.5L58.5,886.5z"
		/>
	<path class="st2" d="M76.3,893.4c1.8-0.5,3.5-0.9,5.3-1.3l3.5,5.4l-2.4-1.1l-2.2,8.3l-3.8-1.8l2.1-8.3
		C77.9,894.1,77.1,893.8,76.3,893.4z"/>
	<path class="st2" d="M93.7,902l5.3-0.7c1.1,1.9,2.1,3.9,3.2,5.8l-2.4-1.5l-2.7,8.1c-1.2-0.8-2.4-1.4-3.7-2.2l2.6-8.1L93.7,902z"/>
	<path class="st2" d="M110.5,912.8c1.8-0.1,3.6,0,5.4,0c0.9,2.1,1.9,4,2.7,6.2c-0.7-0.6-1.5-1.2-2.2-1.8l-3.4,7.6l-3.5-2.7l3.2-7.7
		C112,913.9,111.3,913.4,110.5,912.8z"/>
	<path class="st2" d="M126.5,926c1.8,0.2,3.6,0.5,5.4,1c0.7,2.2,1.5,4.5,2.2,6.7c-0.7-0.7-1.4-1.4-2.1-2.1l-4,6.9l-3.2-3.3l3.9-7.1
		L126.5,926z"/>
	<path class="st2" d="M141.2,942.2l2.7,1c0.9,0.3,1.7,0.8,2.6,1.2c0.5,2.4,1,4.7,1.4,7.2c-0.6-0.9-1.2-1.8-1.8-2.7l-4.9,5.9
		l-2.7-3.9l4.7-6.2L141.2,942.2z"/>
	<path class="st2" d="M153.7,961.9c0.8,0.5,1.6,1.1,2.4,1.8l2.4,1.9c0.2,2.5,0.2,5,0.2,7.6l-1.3-3.3l-5.7,4.3
		c-0.7-1.5-1.4-3-2.1-4.6l5.6-4.7C154.7,963.9,154.2,962.9,153.7,961.9z"/>
	<path class="st2" d="M162.6,985.5l2,2.7c0.3,0.5,0.7,0.9,1,1.3l0.9,1.5l-0.7,3.8c-0.2,1.2-0.5,2.5-0.8,3.7
		c-0.1-1.2-0.3-2.5-0.6-3.7l-6.4,1.9l-0.5-2.6c-0.1-0.9-0.3-1.7-0.5-2.6l6.3-2.5L162.6,985.5z"/>
	<ellipse class="st3" cx="-79.7" cy="980.4" rx="35.3" ry="37.4"/>
	<polygon class="st3" points="-37.9,972.9 -33,981.3 -37.9,989.8 -37.9,985.1 -56,985.1 -56,977.6 -37.9,977.6 	"/>
	<path class="st4" d="M5.4,1000.9l-0.2-1.6H4l-0.2,1.6H2.2l1.2-8.1h2.5l1.2,8.1H5.4z M4.6,994.3L4.6,994.3l-0.5,3.5h0.9L4.6,994.3z"
		/>
	<path class="st4" d="M8.8,1000.9v-8.1h1.6v6.6h1.5v1.5H8.8z"/>
	<path class="st4" d="M15.7,997.5v-1.4h2v4.6c-0.3,0.1-0.6,0.1-0.9,0.2c-0.3,0-0.7,0.1-1,0.1c-0.5,0-1-0.1-1.4-0.3
		c-0.4-0.3-0.6-0.7-0.7-1.2c-0.2-0.9-0.2-1.7-0.2-2.6c0-0.9,0-1.8,0.2-2.6c0.1-0.5,0.3-0.9,0.7-1.2c0.5-0.3,1-0.4,1.5-0.3
		c0.3,0,0.6,0,0.9,0.1c0.3,0,0.6,0.1,0.8,0.2v1.4c-0.4-0.1-0.8-0.1-1.3-0.1c-0.3,0-0.6,0-0.9,0.1c-0.2,0.1-0.3,0.3-0.3,0.7
		c-0.1,0.6-0.1,1.3-0.1,1.9c0,0.9,0,1.5,0,1.9c0,0.3,0.1,0.5,0.2,0.7c0.1,0.1,0.3,0.2,0.5,0.2c0.1,0,0.2,0,0.4,0v-2L15.7,997.5z"/>
	<path class="st4" d="M20.2,1000.6c-0.3-0.3-0.5-0.7-0.5-1.1c-0.1-1.8-0.1-3.5,0-5.3c0-0.4,0.2-0.9,0.5-1.2c0.4-0.3,1-0.4,1.5-0.4
		c0.5-0.1,1.1,0.1,1.5,0.4c0.3,0.3,0.5,0.7,0.5,1.2c0.1,0.9,0.1,1.8,0.1,2.6c0,0.9,0,1.8-0.1,2.6c0,0.4-0.2,0.9-0.5,1.2
		c-0.4,0.3-1,0.4-1.5,0.4C21.2,1001,20.6,1000.9,20.2,1000.6z M22,999.4c0.1-0.2,0.1-0.4,0.1-0.6c0-0.3,0-1,0-1.9s0-1.6,0-1.9
		c0-0.2,0-0.4-0.1-0.6c-0.1-0.1-0.2-0.1-0.4-0.1c-0.1,0-0.3,0-0.4,0.1c-0.1,0.2-0.1,0.4-0.1,0.6c0,0.3,0,1,0,1.9s0,1.6,0,1.9
		c0,0.2,0,0.4,0.1,0.6c0.1,0.1,0.2,0.1,0.4,0.1C21.8,999.5,21.9,999.4,22,999.4L22,999.4z"/>
	<path class="st4" d="M25.7,992.7H28c1.2,0,1.8,0.7,1.8,2c0,0.5-0.1,0.9-0.2,1.3c-0.1,0.3-0.4,0.5-0.7,0.6l0,0
		c0.3,0.1,0.6,0.3,0.8,0.6c0.2,0.4,0.3,0.9,0.2,1.4c0,0.6-0.1,1.2-0.4,1.6c-0.4,0.4-0.9,0.6-1.4,0.5h-2.3L25.7,992.7z M28,996
		c0.1-0.1,0.1-0.2,0.2-0.3c0-0.2,0-0.4,0-0.6c0-0.2,0-0.4,0-0.6c0-0.1-0.1-0.2-0.2-0.2c-0.1,0-0.2-0.1-0.4-0.1h-0.4v1.8h0.4
		C27.8,996.1,27.9,996,28,996L28,996z M28,999.3c0.1-0.1,0.1-0.2,0.1-0.3c0-0.2,0-0.4,0-0.7c0-0.2,0-0.4,0-0.6
		c0-0.1-0.1-0.2-0.2-0.3c-0.1,0-0.2-0.1-0.3-0.1h-0.4v1.9h0.4C27.8,999.4,28,999.4,28,999.3L28,999.3z"/>
	<path class="st4" d="M32.3,1000.6c-0.3-0.3-0.5-0.7-0.5-1.1c-0.1-1.8-0.1-3.5,0-5.3c0-0.4,0.2-0.9,0.5-1.2c0.4-0.3,1-0.4,1.5-0.4
		c0.5,0,1.1,0.1,1.5,0.4c0.3,0.3,0.5,0.7,0.5,1.2c0.1,0.9,0.1,1.8,0.1,2.6c0,0.9,0,1.8-0.1,2.6c0,0.4-0.2,0.9-0.5,1.2
		c-0.4,0.3-1,0.4-1.5,0.4C33.3,1001,32.7,1000.9,32.3,1000.6z M34.1,999.4c0.1-0.2,0.1-0.4,0.1-0.6c0-0.3,0-1,0-1.9s0-1.6,0-1.9
		c0-0.2,0-0.4-0.1-0.6c-0.1-0.1-0.2-0.1-0.4-0.1c-0.1,0-0.3,0-0.4,0.1c-0.1,0.2-0.1,0.4-0.1,0.6c0,0.3,0,1,0,1.9s0,1.6,0,1.9
		c0,0.2,0,0.4,0.1,0.6c0.1,0.1,0.2,0.2,0.4,0.1C33.9,999.5,34.1,999.5,34.1,999.4L34.1,999.4z"/>
	<path class="st4" d="M38.8,1000.9v-6.6h-1.2v-1.5h4v1.5h-1.2v6.6H38.8z"/>
	<path class="st4" d="M44.2,1000.9c-0.3,0-0.6-0.1-0.9-0.2v-1.3c0.5,0,1,0.1,1.3,0.1c0.2,0,0.3,0,0.5,0c0.1,0,0.2-0.1,0.2-0.1
		c0.1-0.1,0.1-0.2,0.1-0.3c0-0.2,0-0.3,0-0.5c0-0.2,0-0.4,0-0.7c0-0.1-0.1-0.2-0.2-0.3c-0.1-0.1-0.3-0.1-0.4-0.2l-0.9-0.2
		c-0.3-0.1-0.5-0.3-0.6-0.6c-0.1-0.5-0.2-1-0.2-1.5c0-0.5,0.1-1.1,0.3-1.6c0.1-0.3,0.4-0.6,0.7-0.7c0.4-0.1,0.8-0.2,1.1-0.2
		c0.3,0,0.7,0,1,0.1c0.2,0,0.4,0.1,0.5,0.1v1.3c-0.1,0-0.2,0-0.4,0h-0.7c-0.2,0-0.4,0-0.5,0c-0.1,0-0.2,0.1-0.3,0.1
		c-0.1,0.1-0.1,0.2-0.1,0.3c0,0.2,0,0.3,0,0.5c0,0.2,0,0.3,0,0.5c0,0.1,0,0.2,0.1,0.3c0.1,0.1,0.2,0.1,0.3,0.1l0.8,0.2
		c0.2,0,0.4,0.1,0.6,0.3c0.2,0.2,0.3,0.4,0.4,0.6c0.1,0.4,0.2,0.9,0.1,1.3c0,0.6-0.1,1.2-0.2,1.7c-0.1,0.3-0.4,0.6-0.7,0.8
		c-0.4,0.1-0.8,0.2-1.1,0.2C44.8,1001,44.5,1001,44.2,1000.9z"/>
	<path class="st5" d="M5.3,1012.8c-0.2,0-0.3,0-0.5,0c-0.4,0-0.9-0.1-1.3-0.3c-0.3-0.3-0.5-0.7-0.5-1.1c-0.2-1.8-0.2-3.6,0-5.4
		c0-0.4,0.2-0.9,0.5-1.2c0.4-0.2,0.8-0.4,1.3-0.3c0.2,0,0.4,0,0.5,0c0.1,0,0.3,0,0.4,0.1v0.6c-0.3-0.1-0.6-0.1-0.9-0.1
		c-0.3,0-0.7,0-0.9,0.2c-0.2,0.3-0.4,0.6-0.4,0.9c-0.1,0.8-0.1,1.6-0.1,2.4c0,0.8,0,1.6,0.1,2.4c0,0.3,0.1,0.7,0.4,0.9
		c0.3,0.2,0.6,0.3,0.9,0.2c0.2,0,0.3,0,0.5,0c0.1,0,0.3,0,0.4-0.1v0.6C5.6,1012.7,5.5,1012.7,5.3,1012.8z"/>
	<path class="st5" d="M7.6,1012.5c-0.3-0.3-0.5-0.7-0.5-1.1c-0.2-1.8-0.2-3.6,0-5.4c0-0.4,0.2-0.8,0.5-1.1c0.8-0.4,1.8-0.4,2.7,0
		c0.3,0.3,0.5,0.7,0.5,1.1c0.2,1.8,0.2,3.6,0,5.4c0,0.4-0.2,0.8-0.5,1.1C9.4,1012.9,8.4,1012.9,7.6,1012.5z M9.8,1012
		c0.2-0.3,0.3-0.6,0.3-0.9c0.1-1.6,0.1-3.3,0-4.9c0-0.3-0.1-0.7-0.3-0.9c-0.3-0.2-0.6-0.2-0.9-0.2c-0.3,0-0.6,0-0.9,0.2
		c-0.2,0.1-0.3,0.4-0.3,0.9c-0.1,1.6-0.1,3.3,0,4.9c0,0.3,0.1,0.7,0.3,0.9c0.3,0.1,0.6,0.2,0.9,0.2C9.2,1012.2,9.5,1012.1,9.8,1012z
		"/>
	<path class="st5" d="M16.9,1012.7v-6.9h-0.1l-1.5,6.9h-0.7l-1.5-6.9h0v6.9h-0.6v-8.1h1l1.6,7H15l1.6-7h1v8.1H16.9z"/>
	<path class="st5" d="M23.6,1012.7v-6.9h-0.1l-1.5,6.9h-0.7l-1.5-6.9h-0.1v6.9h-0.6v-8.1h1l1.6,7h0.1l1.6-7h1v8.1H23.6z"/>
	<path class="st5" d="M29.6,1004.6v4.6c0,0.8,0,1.5-0.1,2.3c0,0.4-0.2,0.7-0.5,1c-0.4,0.2-0.8,0.3-1.3,0.3c-0.4,0-0.9-0.1-1.3-0.3
		c-0.3-0.3-0.5-0.6-0.5-1c-0.1-0.8-0.1-1.5-0.1-2.3v-4.6h0.7v5c0,0.6,0,1.1,0.1,1.7c0,0.3,0.1,0.5,0.3,0.7c0.2,0.2,0.5,0.2,0.8,0.2
		c0.3,0,0.6,0,0.8-0.2c0.2-0.2,0.3-0.4,0.3-0.7c0.1-0.6,0.1-1.1,0.1-1.7v-5H29.6z"/>
	<path class="st5" d="M34.2,1012.7l-2.3-6.5h0v6.5h-0.6v-8.1h0.7l2.3,6.4l0,0v-6.4h0.6v8.1H34.2z"/>
	<path class="st5" d="M36.5,1012.7v-8.1h0.7v8.1H36.5z"/>
	<path class="st5" d="M40,1012.7v-7.5h-1.5v-0.6h3.7v0.6h-1.5v7.5H40z"/>
	<path class="st5" d="M44.7,1012.7v-3.2l-1.7-4.9h0.7l1.3,4.1h0.1l1.3-4.1h0.7l-1.7,4.9v3.2H44.7z"/>
	<circle class="st5" cx="25.2" cy="965.3" r="17.4"/>
	<path class="st0" d="M33.5,961.7c1.7-2.9,2.4-6.8,0.4-8.3c-2-1.5-5.4,0.4-7.8,3.1c-1.6-3-4.7-5.6-7-4.5c-2.3,1-2.3,5.3-1.2,8.2
		c-3.3,0-7,1.3-7.3,3.8s3.3,4.6,6.4,5.1c-1.7,2.9-2.4,6.8-0.4,8.3c2,1.5,5.7-0.7,7.7-3.1c1.6,2.9,4.7,5.5,7,4.5s2.2-5.2,1.2-8.1
		c3.3,0,6.9-1.4,7.2-3.8C40,964.3,36.9,962.4,33.5,961.7z M28.1,966.4c0.6,0.9,0.9,2,0.3,2.5c-0.6,0.5-1.7-0.1-2.5-0.8
		c-0.8-0.4-1.6-0.7-2.5-0.9c-0.9,0.1-2.2-0.2-2.4-1c-0.1-0.8,0.9-1.4,1.9-1.7c0.8-0.4,1.4-1,2-1.6c0.4-0.9,1.3-1.8,2-1.5
		c0.7,0.3,0.8,1.5,0.5,2.5C27.6,964.8,27.8,965.6,28.1,966.4z M21.4,954.1c1.5-0.5,3.2,0.8,4.4,2.6c-0.2,0.2-0.4,0.3-0.7,0.4
		c-1.3-1.6-3.1-2.8-4.5-2.1c-0.2,0.1-0.4,0.3-0.6,0.5C20.2,954.9,20.7,954.4,21.4,954.1z M24.6,957.5c-0.8,0.5-2.1,1.1-3.1,1.6
		c0.1-0.8,0.6-1.6,1.3-2C23.5,956.9,24.1,957,24.6,957.5z M13.8,964.4c-0.2-0.4-0.3-0.9-0.2-1.4c0.3-1.5,2.3-2.4,4.4-2.5
		c0.1,0.3,0.1,0.6,0.1,0.9c-2.1,0.3-4.1,1.3-4.2,2.9C13.8,964.3,13.8,964.3,13.8,964.4z M15.7,964.7c0.1-1.7,2.6-2.7,4.9-2.7
		c1.5-0.4,2.8-1.1,4.1-1.9c-0.1,0.1-0.1,0.3-0.2,0.5c-1,1.2-2.2,2.3-3.6,3.1c-1.8,0.5-3.7,1.8-3.4,3.2c0,0.1,0,0.1,0,0.2
		C16.4,966.5,15.6,965.7,15.7,964.7z M17.4,974.4c-1.2-1.1-0.9-3.3,0.1-5.2c0.3,0.1,0.6,0.3,0.9,0.4c-0.8,2-1,4.2,0.3,5.2
		c0.1,0.1,0.2,0.1,0.3,0.2C18.5,975,17.9,974.8,17.4,974.4z M19.4,971.8c-0.4-0.5-0.6-1.2-0.5-1.9c0.9,0.5,2.1,1.4,3,2.1
		C21.1,972.4,20.2,972.3,19.4,971.8L19.4,971.8z M29.2,976.6c-1.5,0.5-3.3-0.9-4.5-2.7c0.2-0.2,0.4-0.3,0.7-0.4
		c1.3,1.7,3.1,2.9,4.6,2.2c0.2-0.1,0.4-0.2,0.5-0.4C30.3,975.9,29.8,976.4,29.2,976.6L29.2,976.6z M29.6,973.9
		c-1.5,0.8-3.7-1-4.8-2.9c-1-0.9-2.1-1.7-3.3-2.4h0.1c1.6,0.3,3.1,0.8,4.5,1.6c1.3,1.3,3.4,2.3,4.5,1.4c0,0,0.1-0.1,0.1-0.1
		C30.9,972.4,30.5,973.4,29.6,973.9L29.6,973.9z M30.5,962.8c-0.3,1.4-0.4,2.8-0.4,4.2l0-0.1c-0.6-1.5-0.9-3-0.9-4.6
		c0.5-1.8,0.3-4.2-1-4.6c-0.2-0.1-0.4-0.1-0.6-0.1c1.1-0.7,2.3-1,3.1-0.5C32,958,31.6,960.8,30.5,962.8L30.5,962.8z M31.8,956
		c-0.1,0-0.1-0.1-0.2-0.1c0.6-0.1,1.2,0.1,1.6,0.5c1.2,1.1,0.9,3.3-0.1,5.3c-0.3-0.1-0.6-0.2-0.9-0.4C33,959.2,33.2,956.9,31.8,956
		L31.8,956z M32.7,965.3c0.8,0.5,1.2,1.4,1.1,2.3c-0.2,0.6-0.7,1.1-1.4,1.3C32.4,967.7,32.5,966.5,32.7,965.3L32.7,965.3z
		 M36.9,967.8c-0.3,1.5-2.3,2.4-4.4,2.5c-0.1-0.3-0.1-0.6-0.1-0.8c2.2-0.3,4.2-1.3,4.3-2.9c0-0.1,0-0.1,0-0.2
		C37,966.8,37,967.3,36.9,967.8L36.9,967.8z"/>
	<path d="M-94,993.7l-0.1-1.2H-95l-0.1,1.2h-1.2l0.9-5.9h1.8l0.9,5.9H-94z M-94.5,989L-94.5,989l-0.4,2.5h0.7L-94.5,989z"/>
	<path d="M-91.4,987.8h1.4c0.4,0,0.8,0.1,1.1,0.3c0.2,0.2,0.4,0.5,0.4,0.8c0.1,1.2,0.1,2.5,0,3.7c0,0.3-0.2,0.6-0.4,0.8
		c-0.3,0.2-0.7,0.3-1.1,0.3h-1.4V987.8z M-89.9,992.6c0.1,0,0.2,0,0.3-0.1c0.1-0.1,0.1-0.3,0.1-0.4c0-0.2,0-0.7,0-1.3s0-1.1,0-1.3
		c0-0.2,0-0.3-0.1-0.5c-0.1-0.1-0.2-0.1-0.3-0.1h-0.3v3.8H-89.9z"/>
	<path d="M-86.3,993.7l-0.8-5.9h1.2l0.5,4.7h0.1l0.5-4.7h1.2l-0.8,5.9H-86.3z"/>
	<path d="M-80.4,993.7l-0.1-1.2h-0.9l-0.2,1.2h-1.2l0.9-5.9h1.8l0.9,5.9H-80.4z M-80.9,989L-80.9,989l-0.4,2.5h0.7L-80.9,989z"/>
	<path d="M-75.7,993.7l-0.9-3l0,0v3h-1.1v-5.9h1.1l0.8,2.7h0v-2.7h1.1v5.9H-75.7z"/>
	<path d="M-71.1,993.7c-0.1,0-0.3,0-0.4,0c-0.4,0-0.7-0.1-1-0.3c-0.2-0.2-0.4-0.5-0.4-0.9c-0.1-0.6-0.1-1.2-0.1-1.9
		c0-0.6,0-1.2,0.1-1.9c0-0.7,0.6-1.2,1.3-1.2c0,0,0.1,0,0.1,0c0.2,0,0.3,0,0.5,0c0.1,0,0.2,0,0.3,0.1v1c-0.2,0-0.4,0-0.6,0
		c-0.1,0-0.3,0-0.4,0.1c-0.1,0.1-0.1,0.3-0.1,0.5c0,0.2,0,0.7,0,1.3c0,0.7,0,1.1,0,1.4c0,0.2,0,0.3,0.1,0.5c0.1,0.1,0.3,0.1,0.4,0.1
		c0.2,0,0.4,0,0.6,0v1C-70.9,993.7-71,993.7-71.1,993.7z"/>
	<path d="M-69.3,993.7v-5.9h2.4v1.1h-1.2v1.3h1.1v1.1h-1.1v1.4h1.2v1.1H-69.3z"/>
	<path d="M-65.4,987.8h1.4c0.4,0,0.8,0.1,1.1,0.3c0.2,0.2,0.4,0.5,0.4,0.8c0.1,1.2,0.1,2.5,0,3.7c0,0.3-0.2,0.6-0.4,0.8
		c-0.3,0.2-0.7,0.3-1.1,0.3h-1.4V987.8z M-63.9,992.6c0.1,0,0.2,0,0.3-0.1c0.1-0.1,0.1-0.3,0.1-0.4c0-0.2,0-0.7,0-1.3s0-1.1,0-1.3
		c0-0.2,0-0.3-0.1-0.5c-0.1-0.1-0.2-0.1-0.3-0.1h-0.3v3.8H-63.9z"/>
	<path class="st5" d="M-90.7,1004l-0.8-2.1h-3.3l-0.8,2.1h-0.7l2.8-7.1h0.8l2.8,7.1H-90.7z M-93.1,997.7L-93.1,997.7l-1.5,3.6h2.9
		L-93.1,997.7z"/>
	<path class="st5" d="M-88.1,1004v-7.1h0.7v6.4h3.5v0.7H-88.1z"/>
	<path class="st5" d="M-79.7,1000.9v-0.6h2.4v3.6c-0.3,0-0.7,0.1-1.1,0.1c-0.4,0-0.8,0.1-1.1,0.1c-0.6,0-1.3-0.1-1.9-0.3
		c-0.4-0.2-0.7-0.6-0.8-1c-0.3-1.5-0.3-3.1,0-4.7c0.1-0.4,0.4-0.8,0.8-1c0.6-0.2,1.2-0.3,1.9-0.3c0.3,0,0.7,0,1.1,0.1
		c0.3,0,0.7,0.1,1,0.1v0.6c-0.6-0.1-1.2-0.1-1.8-0.2c-0.6,0-1.2,0-1.8,0.1c-0.3,0.1-0.6,0.4-0.7,0.8c-0.2,0.7-0.2,1.4-0.2,2.1
		c0,0.7,0,1.3,0.2,2c0.1,0.4,0.3,0.7,0.6,0.8c0.5,0.2,1,0.2,1.5,0.2c0.2,0,0.5,0,0.8,0s0.6,0,0.8-0.1v-2.5L-79.7,1000.9z"/>
	<path class="st5" d="M-74.3,1003.8c-0.4-0.2-0.7-0.6-0.7-1c-0.2-1.6-0.2-3.2,0-4.8c0.1-0.4,0.3-0.8,0.7-1c1.3-0.3,2.6-0.3,3.9,0
		c0.4,0.2,0.7,0.6,0.7,1c0.2,1.6,0.2,3.2,0,4.8c-0.1,0.4-0.3,0.8-0.7,1C-71.7,1004.1-73.1,1004.1-74.3,1003.8z M-70.8,1003.3
		c0.3-0.1,0.5-0.4,0.5-0.7c0.2-1.4,0.2-2.9,0-4.3c0-0.3-0.2-0.6-0.5-0.7c-1-0.2-2.1-0.2-3.1,0c-0.3,0.1-0.5,0.4-0.5,0.7
		c-0.2,1.4-0.2,2.9,0,4.3c0,0.3,0.2,0.6,0.5,0.7C-72.9,1003.5-71.9,1003.5-70.8,1003.3z"/>
	<path class="st5" d="M-66.2,1004c-0.5,0-0.8-0.1-1.2-0.1v-0.6c0.3,0,0.8,0.1,1.2,0.1s0.8,0,1.1,0c0.3,0,0.6,0,0.9,0
		c0.2,0,0.4-0.1,0.6-0.2c0.2-0.1,0.3-0.2,0.3-0.4c0.1-0.2,0.1-0.5,0.1-0.7c0-0.3,0-0.5-0.1-0.8c0-0.1-0.1-0.3-0.3-0.3
		c-0.2-0.1-0.5-0.1-0.8-0.2l-1.8-0.2c-0.3,0-0.7-0.1-0.9-0.3c-0.2-0.1-0.3-0.3-0.4-0.6c-0.1-0.3-0.1-0.6-0.1-1
		c0-0.4,0.1-0.9,0.3-1.2c0.2-0.3,0.5-0.5,0.8-0.6c0.5-0.1,0.9-0.2,1.4-0.1c0.4,0,0.8,0,1.2,0s0.7,0.1,1,0.1v0.6
		c-0.3,0-0.6-0.1-1-0.1H-65c-0.3,0-0.7,0-1,0.1c-0.2,0-0.4,0.1-0.6,0.2c-0.1,0.1-0.2,0.2-0.3,0.4c-0.1,0.2-0.1,0.4-0.1,0.7
		c0,0.2,0,0.5,0.1,0.7c0,0.1,0.1,0.3,0.3,0.3c0.2,0.1,0.4,0.1,0.6,0.2l1.8,0.2c0.3,0,0.7,0.1,1,0.2c0.2,0.1,0.4,0.3,0.5,0.6
		c0.1,0.4,0.1,0.8,0.1,1.1c0,0.5-0.1,0.9-0.3,1.4c-0.2,0.3-0.4,0.5-0.8,0.6c-0.4,0.1-0.9,0.1-1.3,0.1L-66.2,1004z"/>
	<path class="st5" d="M-80.1,971c1.3,0,2.5,0.2,3.7,0.6c1.2,0.9,3,1.3,3.7,0.5s0-2.4-1.2-3.5c-0.7-1.1-1.1-2.3-1.4-3.5
		c0.2-1.5-0.3-3.3-1.4-3.5c-1.1-0.2-2.2,1.4-2.4,2.8c-0.6,1.1-1.4,2.1-2.4,3c-1.3,0.6-2.6,1.9-2.2,3S-81.4,971.3-80.1,971z"/>
	<path class="st5" d="M-75.1,955.4c1.8,0.1,2.6,3.8,2.3,6.7c-0.1,0.9,2,6.1,2.4,6.9c0.3,0.5,0.7,0.9,1.2,1.2
		c-1.4-3.8-1.5-6.8-1.3-7.5c1.2-3.3,0.7-7.6-1.1-8.7c-2-1-4.4-0.3-5.4,1.7c0,0,0,0.1,0,0.1C-76.4,955.5-75.8,955.3-75.1,955.4z"/>
	<path class="st5" d="M-89.6,971.2c-0.8-1.6,2-4.1,4.6-5.3c0.8-0.4,4.3-4.8,4.8-5.6c0.3-0.5,0.5-1,0.4-1.6c-2.5,3.1-5.1,4.7-5.8,4.8
		c-3.4,0.6-6.9,3.2-6.9,5.3c0.1,2.2,1.9,3.9,4.1,3.8c0,0,0.1,0,0.1,0C-88.9,972.3-89.3,971.8-89.6,971.2z"/>
	<path class="st5" d="M-68.6,976.2c-1,1.5-4.6,0.4-6.9-1.3c-0.8-0.5-6.3-1.3-7.2-1.4c-0.6,0-1.1,0.1-1.6,0.4
		c3.9,0.7,6.6,2.1,7.1,2.7c2.2,2.6,6.3,4.4,8,3.4c1.9-1.2,2.4-3.6,1.3-5.5c0,0,0-0.1-0.1-0.1C-68,975-68.2,975.6-68.6,976.2z"/>
	<path class="st5" d="M-485,956.4h5.7v2.8h-9.3v-1.8c0-0.8,0-1.6,0.1-2.4c0.1-0.5,0.2-1,0.5-1.4c0.3-0.4,0.8-0.8,1.3-0.9
		c0.6-0.2,1.2-0.5,1.8-0.7l0.8-0.3c0.2-0.1,0.5-0.2,0.7-0.3c0.1-0.1,0.2-0.2,0.3-0.3c0-0.2,0.1-0.4,0.1-0.6c0-0.2,0-0.4-0.1-0.6
		c-0.1-0.1-0.3-0.2-0.5-0.3c-0.4,0-0.7-0.1-1.1-0.1c-1.2,0-2.4,0.1-3.6,0.3v-2.6c0.7-0.1,1.4-0.2,2.2-0.3c0.8-0.1,1.6-0.1,2.3-0.1
		c0.8,0,1.6,0.1,2.4,0.3c0.6,0.1,1.2,0.5,1.6,1c0.4,0.7,0.6,1.5,0.6,2.3c0.1,0.9-0.1,1.7-0.5,2.5c-0.3,0.6-0.9,1-1.5,1.2l-1.6,0.6
		l-0.6,0.3l-0.7,0.3c-0.2,0.1-0.3,0.1-0.4,0.2c-0.1,0-0.2,0.1-0.2,0.2c-0.1,0.1-0.1,0.2-0.1,0.3c0,0.2,0,0.3,0,0.5L-485,956.4z"/>
	<path class="st5" d="M-317.5,978.3c-0.8-0.1-1.5-0.2-2-0.3v-2.6c1.5,0.2,2.7,0.2,3.7,0.2c0.4,0,0.8,0,1.1-0.1
		c0.2,0,0.4-0.1,0.5-0.3c0.1-0.2,0.2-0.5,0.1-0.8c0-0.3,0-0.5-0.1-0.8c-0.1-0.2-0.2-0.3-0.4-0.3c-0.3-0.1-0.6-0.1-0.9-0.1h-2v-2.7h2
		c0.3,0,0.6,0,0.8-0.1c0.2,0,0.3-0.2,0.4-0.3c0.1-0.2,0.1-0.5,0.1-0.7c0-0.3,0-0.5-0.1-0.7c-0.1-0.2-0.3-0.3-0.5-0.3
		c-0.4,0-0.8,0-1.3,0c-0.5,0-1.1,0-1.8,0.1s-1.2,0.1-1.7,0.2v-2.7c0.6-0.1,1.2-0.2,2-0.3c0.7-0.1,1.4-0.1,2-0.1c1,0,2,0.1,3,0.4
		c0.6,0.2,1.2,0.5,1.6,1.1c0.3,0.5,0.5,1.2,0.5,1.8c0.1,0.7-0.1,1.4-0.5,2c-0.4,0.5-1,0.8-1.6,0.9v0.1c0.4,0.1,0.9,0.3,1.3,0.5
		c0.3,0.2,0.6,0.5,0.7,0.9c0.2,0.5,0.3,1,0.3,1.6c0,0.7-0.1,1.3-0.4,1.9c-0.4,0.6-0.9,1-1.5,1.2c-1,0.3-2.1,0.4-3.1,0.4
		C-316.1,978.4-316.8,978.3-317.5,978.3z"/>
	<path class="st5" d="M-100,958.4h5.7v2.8h-9.3v-1.8c0-0.8,0-1.6,0.1-2.4c0.1-0.5,0.2-1,0.5-1.4c0.3-0.4,0.8-0.8,1.3-0.9
		c0.6-0.2,1.2-0.5,1.8-0.7l0.8-0.3c0.2-0.1,0.5-0.2,0.7-0.3c0.1-0.1,0.2-0.2,0.3-0.3c0-0.2,0.1-0.4,0.1-0.6c0-0.2,0-0.4-0.1-0.6
		c-0.1-0.1-0.3-0.2-0.5-0.3c-0.4,0-0.7-0.1-1.1-0.1c-1.2,0-2.4,0.1-3.6,0.3v-2.6c0.7-0.1,1.4-0.2,2.2-0.3c0.8-0.1,1.6-0.1,2.3-0.1
		c0.8,0,1.6,0.1,2.4,0.3c0.6,0.1,1.2,0.5,1.5,1c0.4,0.7,0.6,1.5,0.6,2.3c0.1,0.9-0.1,1.7-0.5,2.5c-0.3,0.6-0.9,1-1.5,1.2l-1.6,0.6
		l-0.6,0.3l-0.7,0.3c-0.2,0.1-0.3,0.1-0.5,0.2c-0.1,0-0.2,0.1-0.2,0.2c-0.1,0.1-0.1,0.2-0.1,0.3c0,0.2,0,0.3,0,0.5L-100,958.4z"/>
	<path class="st5" d="M56.5,980.3c-0.8-0.1-1.5-0.2-2-0.3v-2.6c1.5,0.2,2.7,0.2,3.7,0.2c0.4,0,0.8,0,1.1-0.1c0.2,0,0.4-0.1,0.5-0.3
		c0.1-0.2,0.2-0.5,0.2-0.8c0-0.3,0-0.5-0.1-0.8c-0.1-0.2-0.2-0.3-0.4-0.3c-0.3-0.1-0.6-0.1-0.9-0.1h-2v-2.7h2c0.3,0,0.6,0,0.8-0.1
		c0.2,0,0.3-0.2,0.3-0.3c0.1-0.2,0.1-0.5,0.1-0.7c0-0.3,0-0.5-0.1-0.7c-0.1-0.2-0.3-0.3-0.5-0.3c-0.4,0-0.8,0-1.3,0
		c-0.5,0-1.1,0-1.8,0.1s-1.2,0.1-1.7,0.2v-2.6c0.6-0.1,1.2-0.2,2-0.3c0.7-0.1,1.4-0.1,2-0.1c1,0,2,0.1,3,0.4
		c0.6,0.2,1.2,0.6,1.6,1.1c0.3,0.5,0.5,1.2,0.5,1.8c0.1,0.7-0.1,1.4-0.5,2c-0.4,0.5-1,0.8-1.6,0.9v0.1c0.4,0.1,0.9,0.3,1.3,0.5
		c0.3,0.2,0.6,0.5,0.7,0.9c0.2,0.5,0.3,1,0.3,1.6c0,0.7-0.1,1.3-0.4,1.9c-0.4,0.6-0.9,1-1.5,1.2c-1,0.3-2.1,0.4-3.2,0.4
		C57.9,980.4,57.2,980.4,56.5,980.3z"/>
</g>
<g id="Layer_2">
	<rect x="-434.2" y="1067.1" class="st5" width="28.3" height="16.1"/>
	<path class="st5" d="M-452.3,1081.2v-8.2h-1.1v-0.8h1.1v-2.6h0.9v2.6h1.3v0.8h-1.3v8.2L-452.3,1081.2z"/>
	<path class="st5" d="M-444.7,1075.8c0-0.6,0-1.3-0.1-1.9c0-0.3-0.2-0.6-0.4-0.8c-0.3-0.2-0.7-0.2-1-0.2c-0.4,0-0.8,0.1-1.1,0.4
		c-0.2,0.3-0.4,0.7-0.4,1.1c-0.1,0.5-0.1,1.2-0.1,2.1v4.7h-0.9V1068h0.9v5.2h0.1c0.2-0.8,1-1.3,1.9-1.2c0.5,0,0.9,0.1,1.3,0.3
		c0.3,0.3,0.5,0.6,0.6,1c0.1,0.7,0.2,1.4,0.1,2.1v5.8h-0.9L-444.7,1075.8z"/>
	<path class="st5" d="M-437.2,1077h-4.1c0,0.8,0,1.5,0.1,2.3c0,0.4,0.2,0.8,0.5,1c0.4,0.2,0.8,0.3,1.3,0.3c0.3,0,0.7,0,1-0.1
		c0.3,0,0.7-0.1,1-0.2v0.8c-0.3,0.1-0.7,0.1-1,0.2c-0.4,0-0.8,0.1-1.2,0.1c-0.6,0-1.2-0.1-1.8-0.4c-0.4-0.3-0.7-0.8-0.8-1.3
		c-0.1-1-0.2-1.9-0.2-2.9c0-1,0-1.9,0.1-2.9c0-0.5,0.3-1,0.7-1.3c0.5-0.3,1.2-0.5,1.8-0.4c0.6-0.1,1.1,0.1,1.6,0.4
		c0.4,0.3,0.6,0.8,0.6,1.3c0.1,1,0.2,2,0.1,2.9L-437.2,1077z M-440.7,1073.1c-0.3,0.2-0.4,0.5-0.5,0.9c-0.1,0.8-0.1,1.5-0.1,2.3h3.2
		v-0.3c0-0.7,0-1.4-0.1-2c0-0.3-0.2-0.6-0.4-0.8c-0.3-0.2-0.6-0.2-0.9-0.2C-440,1072.8-440.4,1072.9-440.7,1073.1z"/>
	<path class="st3" d="M-427.7,1081.2l-0.8-3.6h-3l-0.8,3.6h-1l2.7-12.2h1.3l2.7,12.2L-427.7,1081.2z M-429.9,1070.5L-429.9,1070.5
		l-1.4,6.3h2.7L-429.9,1070.5z"/>
	<path class="st3" d="M-425.2,1081.2V1069h1v11.3h3.2v0.9H-425.2z"/>
	<path class="st3" d="M-417.2,1075.7v-0.9h2.5v6.2c-0.4,0.1-0.8,0.2-1.2,0.2c-0.4,0.1-0.8,0.1-1.2,0.1c-0.7,0-1.3-0.1-1.9-0.5
		c-0.5-0.5-0.8-1.1-0.9-1.8c-0.2-1.3-0.3-2.7-0.3-4c0-1.3,0-2.7,0.2-4c0.1-0.7,0.4-1.3,0.9-1.8c0.6-0.4,1.3-0.5,2-0.5
		c0.4,0,0.8,0,1.2,0.1c0.4,0,0.7,0.1,1.1,0.2v0.8c-0.6-0.2-1.3-0.2-1.9-0.3c-0.6,0-1.1,0.1-1.6,0.3c-0.4,0.3-0.6,0.8-0.7,1.4
		c-0.2,1.2-0.2,2.5-0.2,3.7c0,1.2,0,2.3,0.1,3.5c0,0.5,0.2,1,0.6,1.5c0.4,0.3,0.9,0.4,1.4,0.4c0.3,0,0.5,0,0.8-0.1
		c0.2,0,0.4-0.1,0.6-0.1v-4.6L-417.2,1075.7z"/>
	<path class="st3" d="M-412.1,1080.9c-0.5-0.4-0.8-1.1-0.8-1.7c-0.3-2.7-0.3-5.4,0-8.2c0-0.7,0.3-1.3,0.8-1.7c1.3-0.6,2.7-0.6,4,0
		c0.5,0.5,0.8,1.1,0.8,1.7c0.2,2.7,0.2,5.4,0,8.2c0,0.6-0.3,1.3-0.8,1.7C-409.3,1081.5-410.8,1081.5-412.1,1080.9z M-408.8,1080.2
		c0.3-0.4,0.5-0.9,0.5-1.4c0.2-2.5,0.2-5,0-7.4c0-0.5-0.2-1-0.5-1.3c-0.8-0.4-1.8-0.4-2.6,0c-0.3,0.4-0.5,0.9-0.5,1.4
		c-0.2,2.5-0.2,4.9,0,7.4c0,0.5,0.2,1,0.5,1.4C-410.6,1080.6-409.6,1080.6-408.8,1080.2L-408.8,1080.2z"/>
	<path class="st5" d="M-402.4,1081.2V1069h4.6v0.9h-3.6v4.7h3.1v0.9h-3.1v4.8h3.6v0.9L-402.4,1081.2z"/>
	<path class="st5" d="M-393.2,1081.3c-0.3,0-0.6,0.1-0.8,0.1c-0.6,0-1.2-0.1-1.6-0.4c-0.4-0.4-0.6-0.9-0.7-1.4
		c-0.1-0.9-0.2-1.9-0.2-2.8c0-1,0-1.9,0.2-2.9c0.1-0.5,0.3-1,0.7-1.4c0.4-0.3,1-0.4,1.5-0.4c0.5,0,1.1,0.1,1.6,0.2v0.8
		c-0.4-0.1-0.9-0.2-1.4-0.2c-0.4,0-0.8,0.1-1.1,0.3c-0.3,0.3-0.5,0.7-0.5,1.1c-0.1,0.8-0.1,1.6-0.1,2.4c0,0.8,0,1.7,0.1,2.5
		c0,0.4,0.2,0.8,0.5,1.1c0.3,0.2,0.7,0.3,1.1,0.3c0.3,0,0.5,0,0.8-0.1c0.2,0,0.4-0.1,0.7-0.1v0.8
		C-392.7,1081.2-392.9,1081.3-393.2,1081.3z"/>
	<path class="st5" d="M-390.4,1081c-0.4-0.3-0.7-0.8-0.7-1.3c-0.2-2-0.2-4,0-6c0-0.5,0.3-1,0.7-1.3c0.5-0.3,1.1-0.4,1.7-0.4
		c0.6-0.1,1.2,0.1,1.7,0.4c0.4,0.3,0.7,0.8,0.7,1.3c0.2,2,0.2,4,0,6c-0.1,0.5-0.3,1-0.7,1.3c-0.5,0.3-1.1,0.4-1.7,0.4
		C-389.3,1081.4-389.9,1081.3-390.4,1081z M-387.5,1080.3c0.3-0.3,0.4-0.6,0.4-1c0.1-0.8,0.1-1.7,0.1-2.5c0-0.9,0-1.7-0.1-2.6
		c0-0.4-0.2-0.7-0.4-1c-0.3-0.2-0.7-0.3-1.1-0.3c-0.4,0-0.8,0.1-1.1,0.3c-0.3,0.3-0.4,0.6-0.4,1c-0.1,0.9-0.1,1.7-0.1,2.6
		c0,0.8,0,1.7,0.1,2.5c0,0.4,0.2,0.7,0.4,1c0.3,0.2,0.7,0.3,1.1,0.3C-388.2,1080.6-387.8,1080.5-387.5,1080.3z"/>
	<path class="st5" d="M-383.6,1081.3c-0.4-0.1-0.7-0.1-0.9-0.2v-0.8c0.3,0.1,0.6,0.1,0.9,0.1c0.4,0,0.7,0.1,1.1,0.1
		c0.4,0.1,0.9-0.1,1.2-0.4c0.2-0.4,0.3-0.8,0.3-1.3c0-0.4,0-0.7-0.1-1.1c0-0.2-0.1-0.3-0.2-0.4c-0.2-0.1-0.3-0.1-0.5-0.2l-1.5-0.3
		c-0.4,0-0.8-0.3-1-0.6c-0.2-0.5-0.3-1.1-0.3-1.6c-0.1-0.7,0.1-1.4,0.6-2c0.5-0.4,1.2-0.6,1.8-0.6c0.3,0,0.7,0,1,0.1
		c0.3,0,0.5,0.1,0.8,0.2v0.8c-0.3-0.1-0.5-0.1-0.8-0.2c-0.3,0-0.7-0.1-1-0.1c-0.4,0-0.8,0.1-1.1,0.4c-0.3,0.4-0.4,0.8-0.4,1.3
		c0,0.3,0,0.7,0.1,1c0,0.2,0.1,0.3,0.2,0.4c0.2,0.1,0.3,0.2,0.5,0.2l1.5,0.2c0.3,0,0.6,0.1,0.8,0.3c0.2,0.2,0.4,0.4,0.4,0.7
		c0.1,0.5,0.1,1,0.1,1.4c0.1,0.7-0.1,1.4-0.6,2c-0.5,0.4-1.2,0.7-1.8,0.6C-382.9,1081.4-383.2,1081.4-383.6,1081.3z"/>
	<path class="st5" d="M-378.6,1084.7v-0.8c0.9,0,1.5,0.1,1.9,0.1c0.5,0,1-0.1,1.4-0.4c0.3-0.3,0.5-0.7,0.6-1.1
		c0.1-0.7,0.1-1.4,0.1-2.2v-0.3h-0.1c-0.1,0.4-0.3,0.7-0.6,1c-0.4,0.3-0.9,0.4-1.3,0.3c-0.5,0-0.9-0.1-1.3-0.3
		c-0.3-0.3-0.5-0.6-0.6-1c-0.1-0.7-0.2-1.4-0.1-2.1v-5.7h0.9v5.4c0,0.6,0,1.3,0.1,1.9c0,0.3,0.2,0.6,0.4,0.8c0.3,0.2,0.7,0.2,1,0.2
		c0.4,0,0.8-0.1,1.1-0.4c0.3-0.3,0.4-0.7,0.4-1.1c0-0.5,0.1-1.2,0.1-2.1v-4.6h0.9v7.7c0,1,0,1.9-0.2,2.9c-0.1,0.6-0.4,1.1-0.8,1.5
		c-0.5,0.3-1.2,0.5-1.8,0.5C-377.1,1084.7-377.8,1084.7-378.6,1084.7z"/>
	<path class="st5" d="M-371.2,1081.3c-0.4-0.1-0.7-0.1-0.9-0.2v-0.8c0.3,0.1,0.6,0.1,0.9,0.1c0.4,0,0.7,0.1,1.1,0.1
		c0.4,0.1,0.9-0.1,1.2-0.4c0.2-0.4,0.3-0.8,0.3-1.3c0-0.4,0-0.7-0.1-1.1c0-0.2-0.1-0.3-0.2-0.4c-0.2-0.1-0.4-0.1-0.5-0.2l-1.5-0.3
		c-0.4,0-0.8-0.3-1-0.6c-0.2-0.5-0.3-1.1-0.3-1.6c-0.1-0.7,0.1-1.4,0.6-2c0.5-0.4,1.2-0.6,1.8-0.6c0.3,0,0.7,0,1,0.1
		c0.3,0,0.5,0.1,0.8,0.2v0.8c-0.3-0.1-0.5-0.1-0.8-0.2c-0.3,0-0.7-0.1-1-0.1c-0.4,0-0.8,0.1-1.1,0.4c-0.3,0.4-0.4,0.8-0.4,1.3
		c0,0.3,0,0.7,0.1,1c0,0.2,0.1,0.3,0.2,0.4c0.2,0.1,0.3,0.2,0.5,0.2l1.5,0.2c0.3,0,0.6,0.1,0.8,0.3c0.2,0.2,0.4,0.4,0.4,0.7
		c0.1,0.5,0.1,1,0.1,1.4c0.1,0.7-0.1,1.4-0.6,2c-0.5,0.4-1.2,0.7-1.8,0.6C-370.5,1081.4-370.8,1081.4-371.2,1081.3z"/>
	<path class="st5" d="M-365.7,1081.2v-8.2h-1.1v-0.8h1.1v-2.6h0.9v2.6h1.3v0.8h-1.3v8.2L-365.7,1081.2z"/>
	<path class="st5" d="M-357.3,1077h-4.1c0,0.8,0,1.5,0.1,2.3c0,0.4,0.2,0.8,0.5,1c0.4,0.2,0.8,0.3,1.3,0.3c0.3,0,0.7,0,1-0.1
		c0.3,0,0.7-0.1,1-0.2v0.8c-0.3,0.1-0.7,0.1-1,0.2c-0.4,0-0.8,0.1-1.2,0.1c-0.6,0-1.2-0.1-1.8-0.4c-0.4-0.3-0.7-0.8-0.8-1.3
		c-0.1-1-0.2-1.9-0.2-2.9c0-1,0-1.9,0.2-2.9c0-0.5,0.3-1,0.7-1.3c0.5-0.3,1.2-0.5,1.8-0.4c0.6-0.1,1.1,0.1,1.6,0.4
		c0.4,0.3,0.6,0.8,0.6,1.3c0.1,1,0.1,2,0.1,2.9L-357.3,1077z M-360.9,1073.1c-0.3,0.2-0.4,0.6-0.5,0.9c-0.1,0.8-0.1,1.5-0.1,2.3h3.2
		v-0.3c0-0.7,0-1.4-0.1-2c0-0.3-0.2-0.6-0.4-0.8c-0.3-0.2-0.6-0.2-0.9-0.2C-360.1,1072.8-360.5,1072.9-360.9,1073.1z"/>
	<path class="st5" d="M-347.9,1075.8c0-0.6,0-1.3-0.1-1.9c0-0.3-0.1-0.6-0.4-0.8c-0.3-0.2-0.6-0.2-0.9-0.2c-0.4,0-0.8,0.1-1.1,0.4
		c-0.2,0.3-0.4,0.7-0.4,1.1c0,0.5-0.1,1.2-0.1,2.2v4.7h-0.9v-5.5c0-0.6,0-1.3-0.1-1.9c0-0.3-0.1-0.6-0.4-0.8
		c-0.3-0.2-0.6-0.2-0.9-0.2c-0.4,0-0.8,0.1-1.1,0.4c-0.3,0.3-0.4,0.7-0.4,1.1c-0.1,0.7-0.1,1.4-0.1,2.1v4.7h-0.9v-9.1h0.8l0.1,1.3
		h0.1c0.1-0.4,0.3-0.7,0.6-1c0.4-0.3,0.8-0.4,1.3-0.4c0.5,0,0.9,0.1,1.3,0.3c0.3,0.3,0.5,0.7,0.6,1.1h0.1c0.1-0.4,0.3-0.7,0.6-1
		c0.4-0.3,0.8-0.5,1.3-0.5c0.5,0,0.9,0.1,1.3,0.3c0.3,0.3,0.5,0.6,0.6,1c0.1,0.7,0.2,1.3,0.2,2v5.8h-0.9L-347.9,1075.8z"/>
	<path class="st6" d="M-422,1119.2l-7.3-11.4h-0.1v11.4h-3.6v-17.9h3.8l7,10.7h0.1v-10.7h3.6v17.9H-422z"/>
	<path class="st6" d="M-412.6,1118.7c-1-0.5-1.8-1.4-2-2.5c-0.5-3.9-0.5-7.8,0-11.7c0.2-1.1,1-2.1,2-2.5c3.4-1,7.1-1,10.5,0
		c1,0.5,1.8,1.4,2,2.5c0.5,3.9,0.5,7.8,0,11.7c-0.2,1.1-1,2.1-2,2.5C-405.5,1119.7-409.2,1119.7-412.6,1118.7z M-404.6,1115.9
		c0.5-0.3,0.9-0.8,0.9-1.4c0.3-2.8,0.3-5.7,0-8.5c0-0.6-0.4-1.1-0.9-1.4c-0.9-0.2-1.8-0.3-2.8-0.3c-0.9-0.1-1.9,0-2.8,0.3
		c-0.5,0.3-0.8,0.8-0.9,1.4c-0.3,2.8-0.3,5.7,0,8.5c0,0.6,0.4,1.1,0.9,1.4c0.9,0.2,1.8,0.3,2.8,0.3
		C-406.4,1116.3-405.5,1116.2-404.6,1115.9L-404.6,1115.9z"/>
	<path class="st6" d="M-382.1,1119.2l-3.3-12h-0.1l-3.3,12h-4.6l-4.4-17.9h3.7l3.2,13.4h0.1l3.5-13.4h3.8l3.5,13.4h0.1l3-13.4h3.8
		l-4.4,17.9H-382.1z"/>
	<path class="st6" d="M-83,1119.2v-14.5h-5.2v-3.3h14.1v3.3h-5.2v14.5H-83z"/>
	<path class="st6" d="M-60.5,1119.2v-7.3h-7.1v7.3h-3.7v-17.9h3.7v7.2h7.1v-7.2h3.7v17.9H-60.5z"/>
	<path class="st6" d="M-52.9,1119.2v-17.9h12.3v3.2h-8.6v4h7.4v3.2h-7.4v4.2h8.6v3.2L-52.9,1119.2z"/>
	<path class="st6" d="M-30.6,1119.2v-17.9h11.8v3.2h-8.1v4.5h7.1v3.2h-7.1v7L-30.6,1119.2z"/>
	<path class="st6" d="M-1.8,1101.3v9.9c0.1,1.7-0.1,3.5-0.5,5.2c-0.2,1-0.9,1.9-1.9,2.3c-3.1,0.9-6.3,0.9-9.4,0
		c-1-0.4-1.7-1.3-1.9-2.3c-0.4-1.7-0.5-3.5-0.5-5.2v-9.9h3.7v10.8c0,0.9,0,1.9,0.2,2.8c0.1,0.5,0.4,0.9,0.9,1.1
		c1.5,0.4,3.2,0.4,4.7,0c0.4-0.2,0.8-0.6,0.8-1.1c0.1-0.9,0.2-1.9,0.2-2.8v-10.8H-1.8z"/>
	<path class="st6" d="M6.2,1119.2v-14.5H1v-3.3h14.1v3.3H9.9v14.5H6.2z"/>
	<path class="st6" d="M31.9,1101.3v9.9c0.1,1.7-0.1,3.5-0.5,5.2c-0.2,1-0.9,1.9-1.9,2.3c-3.1,0.9-6.3,0.9-9.4,0
		c-1-0.4-1.7-1.3-1.9-2.3c-0.4-1.7-0.5-3.5-0.5-5.2v-9.9h3.7v10.8c0,0.9,0,1.9,0.2,2.8c0.1,0.5,0.4,0.9,0.9,1.1
		c1.5,0.4,3.2,0.4,4.7,0c0.4-0.2,0.8-0.6,0.8-1.1c0.1-0.9,0.2-1.9,0.2-2.8v-10.8H31.9z"/>
	<path class="st6" d="M46,1119.2l-2.6-6.5h-4v6.5h-3.7v-17.9h8.4c1.2-0.1,2.4,0.2,3.5,0.7c0.8,0.4,1.3,1.1,1.6,1.9
		c0.3,1,0.4,2.1,0.4,3.1c0,2.8-0.8,4.6-2.5,5.2l2.9,7L46,1119.2z M44.8,1109.3c0.4-0.1,0.7-0.4,0.9-0.7c0.3-1.1,0.3-2.2,0-3.2
		c-0.2-0.4-0.5-0.6-0.9-0.7c-0.7-0.2-1.5-0.2-2.2-0.2h-3.3v5h3.3C43.3,1109.6,44.1,1109.5,44.8,1109.3L44.8,1109.3z"/>
	<path class="st6" d="M53.1,1119.2v-17.9h12.3v3.2h-8.6v4h7.4v3.2h-7.4v4.2h8.6v3.2L53.1,1119.2z"/>
	<rect x="-44.2" y="1067.3" class="st5" width="28.3" height="16.1"/>
	<path class="st5" d="M-62.5,1081.2v-8.2h-1.1v-0.8h1.1v-2.6h0.9v2.6h1.3v0.8h-1.3v8.2L-62.5,1081.2z"/>
	<path class="st5" d="M-54.8,1075.8c0-0.6,0-1.3-0.1-1.9c0-0.3-0.2-0.6-0.4-0.8c-0.3-0.2-0.7-0.2-1-0.2c-0.4,0-0.8,0.1-1.1,0.4
		c-0.2,0.3-0.4,0.7-0.4,1.1c-0.1,0.7-0.1,1.4-0.1,2.1v4.7h-0.9V1068h0.9v5.2h0.1c0.2-0.8,1.1-1.3,1.9-1.2c0.5,0,0.9,0.1,1.3,0.3
		c0.3,0.3,0.5,0.6,0.6,1c0.1,0.7,0.2,1.4,0.2,2.1v5.8h-0.9L-54.8,1075.8z"/>
	<path class="st5" d="M-47.3,1077h-4.1c0,0.8,0,1.5,0.1,2.3c0,0.4,0.2,0.8,0.5,1c0.4,0.2,0.8,0.3,1.3,0.3c0.3,0,0.7,0,1-0.1
		c0.3,0,0.7-0.1,1-0.2v0.8c-0.3,0.1-0.7,0.1-1,0.2c-0.4,0-0.8,0.1-1.2,0.1c-0.6,0-1.2-0.1-1.8-0.4c-0.4-0.3-0.7-0.8-0.7-1.3
		c-0.2-1-0.2-1.9-0.2-2.9c0-1,0-1.9,0.1-2.9c0.1-0.5,0.3-1,0.7-1.3c0.5-0.3,1.2-0.5,1.8-0.4c0.6,0,1.1,0.1,1.6,0.4
		c0.4,0.3,0.6,0.8,0.6,1.3c0.1,1,0.2,2,0.1,2.9L-47.3,1077z M-50.9,1073.1c-0.3,0.2-0.4,0.6-0.5,0.9c-0.1,0.7-0.1,1.5-0.1,2.3h3.2
		v-0.3c0-0.7,0-1.4-0.1-2c0-0.3-0.2-0.6-0.4-0.8c-0.3-0.2-0.6-0.2-0.9-0.2C-50.1,1072.8-50.5,1072.9-50.9,1073.1z"/>
	<path class="st3" d="M-37.8,1081.2l-0.8-3.6h-3l-0.8,3.6h-1l2.6-12.2h1.3l2.6,12.2L-37.8,1081.2z M-40.1,1070.5h-0.1l-1.3,6.3h2.7
		L-40.1,1070.5z"/>
	<path class="st3" d="M-35.4,1081.2V1069h1v11.3h3.2v0.9H-35.4z"/>
	<path class="st3" d="M-27.3,1075.7v-0.9h2.5v6.2c-0.4,0.1-0.8,0.2-1.2,0.2c-0.4,0.1-0.8,0.1-1.2,0.1c-0.7,0-1.3-0.1-1.9-0.5
		c-0.5-0.5-0.8-1.1-0.9-1.8c-0.2-1.3-0.3-2.7-0.3-4c0-1.3,0-2.7,0.2-4c0.1-0.7,0.4-1.3,0.9-1.8c0.6-0.4,1.3-0.5,2-0.5
		c0.4,0,0.8,0,1.2,0.1c0.4,0,0.7,0.1,1.1,0.2v0.8c-0.6-0.2-1.3-0.2-1.9-0.3c-0.6,0-1.1,0.1-1.7,0.3c-0.4,0.3-0.6,0.8-0.7,1.4
		c-0.1,1.2-0.2,2.5-0.2,3.7c0,1.2,0,2.3,0.1,3.5c0,0.5,0.2,1,0.6,1.5c0.4,0.3,0.9,0.4,1.4,0.4c0.3,0,0.5,0,0.8-0.1l0.6-0.1v-4.6
		L-27.3,1075.7z"/>
	<path class="st3" d="M-22.2,1080.9c-0.5-0.4-0.8-1.1-0.8-1.7c-0.3-2.7-0.3-5.4,0-8.2c0-0.7,0.3-1.3,0.8-1.7c1.3-0.6,2.7-0.6,4,0
		c0.5,0.4,0.8,1.1,0.8,1.7c0.3,2.7,0.3,5.4,0,8.2c0,0.7-0.3,1.3-0.8,1.7C-19.5,1081.5-21,1081.5-22.2,1080.9z M-18.9,1080.2
		c0.3-0.4,0.5-0.9,0.5-1.4c0.2-2.5,0.2-5,0-7.4c0-0.5-0.2-1-0.5-1.3c-0.8-0.4-1.8-0.4-2.6,0c-0.3,0.4-0.5,0.9-0.5,1.4
		c-0.2,2.5-0.2,4.9,0,7.4c0,0.5,0.2,1,0.5,1.4C-20.7,1080.6-19.8,1080.6-18.9,1080.2L-18.9,1080.2z"/>
	<path class="st5" d="M-12.5,1081.2V1069h4.6v0.9h-3.6v4.7h3.1v0.9h-3.1v4.8h3.6v0.9L-12.5,1081.2z"/>
	<path class="st5" d="M-3.4,1081.3c-0.3,0-0.6,0.1-0.8,0.1c-0.6,0-1.2-0.1-1.7-0.4c-0.4-0.4-0.6-0.9-0.7-1.4
		c-0.1-0.9-0.2-1.9-0.2-2.8c0-1,0-1.9,0.2-2.9c0.1-0.5,0.3-1,0.7-1.4c0.5-0.3,1-0.4,1.5-0.4c0.5,0,1.1,0.1,1.6,0.2v0.8
		c-0.5-0.1-0.9-0.2-1.4-0.2c-0.4,0-0.8,0.1-1.1,0.3c-0.3,0.3-0.4,0.7-0.5,1.1c-0.1,0.8-0.1,1.6-0.1,2.4c0,0.8,0,1.7,0.1,2.5
		c0,0.4,0.2,0.8,0.5,1.1c0.3,0.2,0.7,0.3,1.1,0.3c0.3,0,0.5,0,0.8-0.1c0.2,0,0.4-0.1,0.7-0.1v0.8L-3.4,1081.3z"/>
	<path class="st5" d="M-0.6,1081c-0.4-0.3-0.7-0.8-0.7-1.3c-0.2-2-0.2-4,0-6c0-0.5,0.3-1,0.7-1.3c1.1-0.5,2.4-0.5,3.5,0
		c0.4,0.3,0.6,0.8,0.7,1.3c0.2,2,0.2,4,0,6c0,0.5-0.3,1-0.7,1.3C1.8,1081.5,0.6,1081.5-0.6,1081L-0.6,1081z M2.3,1080.3
		c0.3-0.3,0.4-0.6,0.4-1c0.1-0.8,0.1-1.7,0.1-2.5c0-0.9,0-1.7-0.1-2.6c0-0.4-0.2-0.7-0.4-1c-0.7-0.4-1.6-0.4-2.3,0
		c-0.3,0.3-0.4,0.6-0.4,1c-0.1,0.9-0.1,1.7-0.1,2.6c0,0.8,0,1.7,0.1,2.5c0,0.4,0.2,0.7,0.4,1C0.8,1080.6,1.6,1080.6,2.3,1080.3
		L2.3,1080.3z"/>
	<path class="st5" d="M6.2,1081.3c-0.4-0.1-0.7-0.1-0.9-0.2v-0.8c0.3,0.1,0.6,0.1,0.9,0.1c0.4,0,0.7,0.1,1.1,0.1
		c0.4,0.1,0.9-0.1,1.2-0.4c0.2-0.4,0.3-0.8,0.3-1.3c0-0.4,0-0.7-0.1-1.1c0-0.2-0.1-0.3-0.2-0.4c-0.2-0.1-0.4-0.1-0.5-0.2l-1.5-0.3
		c-0.4,0-0.8-0.3-1-0.6c-0.2-0.5-0.3-1.1-0.3-1.6c-0.1-0.7,0.1-1.4,0.6-2c0.5-0.4,1.2-0.6,1.8-0.6c0.3,0,0.7,0,1,0.1
		c0.3,0,0.5,0.1,0.8,0.2v0.8c-0.3-0.1-0.5-0.1-0.8-0.2c-0.3,0-0.7-0.1-1-0.1c-0.4,0-0.8,0.1-1.1,0.4c-0.3,0.4-0.4,0.8-0.4,1.3
		c0,0.3,0,0.7,0.1,1c0,0.2,0.1,0.3,0.2,0.4c0.2,0.1,0.3,0.2,0.5,0.2l1.5,0.2c0.3,0,0.6,0.1,0.8,0.3c0.2,0.2,0.4,0.4,0.4,0.7
		c0.1,0.5,0.1,1,0.1,1.4c0.1,0.7-0.1,1.4-0.6,2c-0.5,0.4-1.2,0.7-1.8,0.6C7,1081.4,6.6,1081.4,6.2,1081.3z"/>
	<path class="st5" d="M11.2,1084.7v-0.8c0.9,0,1.5,0.1,1.8,0.1c0.5,0,1-0.1,1.4-0.4c0.3-0.3,0.5-0.7,0.6-1.1
		c0.1-0.7,0.1-1.4,0.1-2.2v-0.3H15c-0.1,0.4-0.3,0.7-0.6,1c-0.4,0.3-0.9,0.4-1.3,0.3c-0.5,0-0.9-0.1-1.3-0.3c-0.3-0.3-0.5-0.6-0.6-1
		c-0.1-0.7-0.2-1.4-0.2-2.1v-5.7h1v5.4c0,0.6,0,1.3,0.1,1.9c0,0.3,0.2,0.6,0.4,0.8c0.3,0.2,0.7,0.2,1,0.2c0.4,0,0.8-0.1,1.1-0.4
		c0.2-0.3,0.4-0.7,0.4-1.2c0.1-0.7,0.1-1.4,0.1-2.1v-4.6h1v7.7c0,1,0,1.9-0.2,2.9c-0.1,0.6-0.4,1.1-0.8,1.5
		c-0.5,0.3-1.2,0.5-1.8,0.5C12.7,1084.7,12.1,1084.7,11.2,1084.7z"/>
	<path class="st5" d="M18.6,1081.3c-0.4-0.1-0.7-0.1-0.9-0.2v-0.8c0.3,0.1,0.6,0.1,0.9,0.1c0.4,0,0.7,0.1,1.1,0.1
		c0.4,0.1,0.9-0.1,1.2-0.4c0.2-0.4,0.3-0.8,0.3-1.3c0-0.4,0-0.7-0.1-1.1c0-0.2-0.1-0.3-0.2-0.4c-0.2-0.1-0.3-0.1-0.5-0.2l-1.5-0.3
		c-0.4,0-0.8-0.3-1-0.6c-0.2-0.5-0.3-1.1-0.3-1.6c-0.1-0.7,0.1-1.4,0.6-2c0.5-0.5,1.2-0.7,1.9-0.6c0.3,0,0.7,0,1,0.1
		c0.3,0,0.5,0.1,0.8,0.2v0.8c-0.3-0.1-0.5-0.1-0.8-0.2c-0.3,0-0.7-0.1-1-0.1c-0.4,0-0.8,0.1-1.1,0.4c-0.3,0.4-0.4,0.8-0.4,1.3
		c0,0.3,0,0.7,0.1,1c0,0.2,0.1,0.3,0.2,0.4c0.2,0.1,0.3,0.2,0.5,0.2l1.5,0.2c0.3,0,0.6,0.1,0.8,0.3c0.2,0.2,0.4,0.4,0.4,0.7
		c0.1,0.5,0.2,1,0.1,1.4c0.1,0.7-0.1,1.4-0.6,2c-0.5,0.4-1.2,0.7-1.8,0.6C19.4,1081.4,19,1081.4,18.6,1081.3z"/>
	<path class="st5" d="M24.2,1081.2v-8.2h-1.1v-0.8h1.1v-2.6h0.9v2.6h1.3v0.8h-1.3v8.2L24.2,1081.2z"/>
	<path class="st5" d="M32.5,1077h-4.1c0,0.8,0,1.5,0.1,2.3c0,0.4,0.2,0.8,0.5,1c0.4,0.2,0.8,0.3,1.3,0.3c0.3,0,0.7,0,1-0.1
		c0.3,0,0.7-0.1,1-0.2v0.8c-0.3,0.1-0.7,0.1-1,0.2c-0.4,0-0.8,0.1-1.2,0.1c-0.6,0-1.2-0.1-1.8-0.4c-0.4-0.3-0.7-0.8-0.7-1.3
		c-0.2-1-0.2-1.9-0.2-2.9c0-1,0-1.9,0.1-2.9c0.1-0.5,0.3-1,0.7-1.3c0.5-0.3,1.2-0.5,1.8-0.4c0.6,0,1.1,0.1,1.6,0.4
		c0.4,0.3,0.6,0.8,0.6,1.3c0.1,1,0.2,2,0.1,2.9L32.5,1077z M29,1073.1c-0.3,0.2-0.4,0.6-0.5,0.9c-0.1,0.7-0.1,1.5-0.1,2.3h3.2v-0.3
		c0-0.7,0-1.4-0.1-2c0-0.3-0.2-0.6-0.4-0.8c-0.3-0.2-0.6-0.2-0.9-0.2C29.7,1072.8,29.3,1072.9,29,1073.1z"/>
	<path class="st5" d="M41.9,1075.8c0-0.6,0-1.3-0.1-1.9c0-0.3-0.2-0.6-0.4-0.8c-0.3-0.2-0.6-0.2-0.9-0.2c-0.4,0-0.8,0.1-1.1,0.4
		c-0.2,0.3-0.4,0.7-0.4,1.1c-0.1,0.7-0.1,1.5-0.1,2.2v4.7H38v-5.5c0-0.6,0-1.3-0.1-1.9c0-0.3-0.2-0.6-0.4-0.8
		c-0.3-0.2-0.6-0.2-0.9-0.2c-0.4,0-0.8,0.1-1.1,0.4c-0.3,0.3-0.4,0.7-0.4,1.1c0,0.5-0.1,1.2-0.1,2.1v4.7h-0.9v-9.1h0.8l0.1,1.3H35
		c0.1-0.4,0.3-0.7,0.6-1c0.4-0.3,0.8-0.4,1.3-0.4c0.5,0,0.9,0.1,1.3,0.3c0.3,0.3,0.5,0.7,0.6,1.1h0.1c0.1-0.4,0.3-0.7,0.6-1
		c0.4-0.3,0.8-0.4,1.3-0.4c0.5,0,0.9,0.1,1.3,0.3c0.3,0.3,0.5,0.6,0.6,1c0.1,0.7,0.2,1.3,0.2,2v5.8h-0.9L41.9,1075.8z"/>
	<path class="st5" d="M-466.1,1080.2v-8.8l-2.2,0.9v-2.8l3.4-1.7h2.5v12.4H-466.1z"/>
	<path class="st5" d="M-77.1,1080.2v-8.8l-2.2,0.9v-2.8l3.4-1.7h2.5v12.4H-77.1z"/>
</g>
</svg>
