<svg xmlns="http://www.w3.org/2000/svg" xmlns:xlink="http://www.w3.org/1999/xlink" viewBox="0 0 216 72"><defs><style>.cls-1,.cls-10,.cls-11,.cls-12,.cls-4,.cls-6,.cls-7,.cls-8,.cls-9{fill:none;}.cls-2{isolation:isolate;}.cls-3{clip-path:url(#clip-path);}.cls-4{stroke:#00adee;stroke-width:0.13px;}.cls-10,.cls-11,.cls-12,.cls-16,.cls-19,.cls-4,.cls-6,.cls-7,.cls-8,.cls-9{stroke-miterlimit:10;}.cls-5{fill:url(#radial-gradient);}.cls-10,.cls-11,.cls-16,.cls-19,.cls-6,.cls-7,.cls-8{stroke:#2a96ff;}.cls-11,.cls-12,.cls-16,.cls-19,.cls-6,.cls-7,.cls-8,.cls-9{stroke-width:0.25px;}.cls-10,.cls-13,.cls-17,.cls-18,.cls-23,.cls-6{opacity:0.4;}.cls-13,.cls-15,.cls-20,.cls-22,.cls-23,.cls-6,.cls-8{mix-blend-mode:multiply;}.cls-14,.cls-16,.cls-7{opacity:0.5;}.cls-15,.cls-20,.cls-8{opacity:0.3;}.cls-9{stroke:#e3493c;}.cls-12{stroke:#fff;}.cls-13,.cls-15,.cls-21{fill:#231f20;}.cls-14,.cls-17,.cls-19{fill:#2a96ff;}.cls-16{fill:#fff;}.cls-22{opacity:0.77;}.cls-24{fill:#e3493c;}</style><clipPath id="clip-path"><rect class="cls-1" x="-61.68" y="151.2" width="576" height="756"/></clipPath><radialGradient id="radial-gradient" cx="107.57" cy="36.66" r="115.25" gradientTransform="translate(0.12 23.82) rotate(0.57) scale(1 0.32)" gradientUnits="userSpaceOnUse"><stop offset="0.68" stop-color="#fff"/><stop offset="1" stop-color="#f2f2f2"/></radialGradient></defs><title>basics-develop</title><g class="cls-2"><g id="grid"><g class="cls-3"><line class="cls-4" x1="1.32" y1="925.2" x2="1.32" y2="-154.8"/><line class="cls-4" x1="10.32" y1="925.2" x2="10.32" y2="-154.8"/><line class="cls-4" x1="19.32" y1="925.2" x2="19.32" y2="-154.8"/><line class="cls-4" x1="28.32" y1="925.2" x2="28.32" y2="-154.8"/><line class="cls-4" x1="37.32" y1="925.2" x2="37.32" y2="-154.8"/><line class="cls-4" x1="46.32" y1="925.2" x2="46.32" y2="-154.8"/><line class="cls-4" x1="55.32" y1="925.2" x2="55.32" y2="-154.8"/><line class="cls-4" x1="64.32" y1="925.2" x2="64.32" y2="-154.8"/><line class="cls-4" x1="73.32" y1="925.2" x2="73.32" y2="-154.8"/><line class="cls-4" x1="82.32" y1="925.2" x2="82.32" y2="-154.8"/><line class="cls-4" x1="91.32" y1="925.2" x2="91.32" y2="-154.8"/><line class="cls-4" x1="100.32" y1="925.2" x2="100.32" y2="-154.8"/><line class="cls-4" x1="109.32" y1="925.2" x2="109.32" y2="-154.8"/><line class="cls-4" x1="118.32" y1="925.2" x2="118.32" y2="-154.8"/><line class="cls-4" x1="127.32" y1="925.2" x2="127.32" y2="-154.8"/><line class="cls-4" x1="136.32" y1="925.2" x2="136.32" y2="-154.8"/><line class="cls-4" x1="145.32" y1="925.2" x2="145.32" y2="-154.8"/><line class="cls-4" x1="154.32" y1="925.2" x2="154.32" y2="-154.8"/><line class="cls-4" x1="163.32" y1="925.2" x2="163.32" y2="-154.8"/><line class="cls-4" x1="172.32" y1="925.2" x2="172.32" y2="-154.8"/><line class="cls-4" x1="181.32" y1="925.2" x2="181.32" y2="-154.8"/><line class="cls-4" x1="190.32" y1="925.2" x2="190.32" y2="-154.8"/><line class="cls-4" x1="199.32" y1="925.2" x2="199.32" y2="-154.8"/><line class="cls-4" x1="208.32" y1="925.2" x2="208.32" y2="-154.8"/><line class="cls-4" x1="891.63" y1="610.85" x2="-43.68" y2="70.85"/><line class="cls-4" x1="896.13" y1="603.05" x2="-39.18" y2="63.05"/><line class="cls-4" x1="900.63" y1="595.26" x2="-34.68" y2="55.26"/><line class="cls-4" x1="905.13" y1="587.46" x2="-30.18" y2="47.46"/><line class="cls-4" x1="909.63" y1="579.67" x2="-25.68" y2="39.67"/><line class="cls-4" x1="914.13" y1="571.88" x2="-21.18" y2="31.88"/><line class="cls-4" x1="918.63" y1="564.08" x2="-16.68" y2="24.08"/><line class="cls-4" x1="923.13" y1="556.29" x2="-12.18" y2="16.29"/><line class="cls-4" x1="927.63" y1="548.49" x2="-7.68" y2="8.49"/><line class="cls-4" x1="932.13" y1="540.7" x2="-3.18" y2="0.7"/><line class="cls-4" x1="936.63" y1="532.91" x2="1.32" y2="-7.1"/><line class="cls-4" x1="941.13" y1="525.11" x2="5.82" y2="-14.89"/><line class="cls-4" x1="945.63" y1="517.32" x2="10.32" y2="-22.68"/><line class="cls-4" x1="950.13" y1="509.52" x2="14.82" y2="-30.48"/><line class="cls-4" x1="954.63" y1="501.73" x2="19.32" y2="-38.27"/><line class="cls-4" x1="959.13" y1="493.93" x2="23.82" y2="-46.07"/><line class="cls-4" x1="963.63" y1="486.14" x2="28.32" y2="-53.86"/><line class="cls-4" x1="968.13" y1="478.34" x2="32.82" y2="-61.66"/><line class="cls-4" x1="972.63" y1="470.55" x2="37.32" y2="-69.45"/><line class="cls-4" x1="977.13" y1="462.76" x2="41.82" y2="-77.24"/><line class="cls-4" x1="981.63" y1="454.96" x2="46.32" y2="-85.04"/><line class="cls-4" x1="986.13" y1="447.17" x2="50.82" y2="-92.83"/><line class="cls-4" x1="990.63" y1="439.37" x2="55.32" y2="-100.63"/><line class="cls-4" x1="995.13" y1="431.58" x2="59.82" y2="-108.42"/><line class="cls-4" x1="999.63" y1="423.78" x2="64.32" y2="-116.22"/><line class="cls-4" x1="1004.13" y1="415.99" x2="68.82" y2="-124.01"/><line class="cls-4" x1="1008.63" y1="408.2" x2="73.32" y2="-131.8"/><line class="cls-4" x1="1013.13" y1="400.4" x2="77.82" y2="-139.6"/><line class="cls-4" x1="1017.63" y1="392.61" x2="82.32" y2="-147.39"/><line class="cls-4" x1="1022.13" y1="384.81" x2="86.82" y2="-155.19"/><line class="cls-4" x1="1026.63" y1="377.02" x2="91.32" y2="-162.98"/><line class="cls-4" x1="1031.13" y1="369.23" x2="95.82" y2="-170.77"/><line class="cls-4" x1="1035.63" y1="361.43" x2="100.32" y2="-178.57"/><line class="cls-4" x1="-313.04" y1="610.88" x2="622.27" y2="70.88"/><line class="cls-4" x1="-317.54" y1="603.08" x2="617.77" y2="63.08"/><line class="cls-4" x1="-322.04" y1="595.29" x2="613.27" y2="55.29"/><line class="cls-4" x1="-326.54" y1="587.5" x2="608.77" y2="47.5"/><line class="cls-4" x1="-331.04" y1="579.7" x2="604.27" y2="39.7"/><line class="cls-4" x1="-335.54" y1="571.91" x2="599.77" y2="31.91"/><line class="cls-4" x1="-340.04" y1="564.11" x2="595.27" y2="24.11"/><line class="cls-4" x1="-344.54" y1="556.32" x2="590.77" y2="16.32"/><line class="cls-4" x1="-349.04" y1="548.53" x2="586.27" y2="8.52"/><line class="cls-4" x1="-353.54" y1="540.73" x2="581.77" y2="0.73"/><line class="cls-4" x1="-358.04" y1="532.94" x2="577.27" y2="-7.06"/><line class="cls-4" x1="-362.54" y1="525.14" x2="572.77" y2="-14.86"/><line class="cls-4" x1="-367.04" y1="517.35" x2="568.27" y2="-22.65"/><line class="cls-4" x1="-371.54" y1="509.55" x2="563.77" y2="-30.45"/><line class="cls-4" x1="-376.04" y1="501.76" x2="559.27" y2="-38.24"/><line class="cls-4" x1="-380.54" y1="493.96" x2="554.77" y2="-46.04"/><line class="cls-4" x1="-385.04" y1="486.17" x2="550.27" y2="-53.83"/><line class="cls-4" x1="-389.54" y1="478.38" x2="545.77" y2="-61.62"/><line class="cls-4" x1="-394.04" y1="470.58" x2="541.27" y2="-69.42"/><line class="cls-4" x1="-398.54" y1="462.79" x2="536.77" y2="-77.21"/><line class="cls-4" x1="-403.04" y1="454.99" x2="532.27" y2="-85.01"/><line class="cls-4" x1="-407.54" y1="447.2" x2="527.77" y2="-92.8"/><line class="cls-4" x1="-412.04" y1="439.41" x2="523.27" y2="-100.59"/><line class="cls-4" x1="-416.54" y1="431.61" x2="518.77" y2="-108.39"/><line class="cls-4" x1="-421.04" y1="423.82" x2="514.27" y2="-116.18"/><line class="cls-4" x1="-425.54" y1="416.02" x2="509.77" y2="-123.98"/><line class="cls-4" x1="-430.04" y1="408.23" x2="505.27" y2="-131.77"/><line class="cls-4" x1="-434.54" y1="400.43" x2="500.77" y2="-139.57"/><line class="cls-4" x1="-439.04" y1="392.64" x2="496.27" y2="-147.36"/><line class="cls-4" x1="-443.54" y1="384.85" x2="491.77" y2="-155.15"/><line class="cls-4" x1="-448.04" y1="377.05" x2="487.27" y2="-162.95"/><line class="cls-4" x1="-452.54" y1="369.26" x2="482.77" y2="-170.74"/><line class="cls-4" x1="-457.04" y1="361.46" x2="478.27" y2="-178.54"/><line class="cls-4" x1="-461.54" y1="353.67" x2="473.77" y2="-186.33"/></g></g><g id="robots"><rect class="cls-5" x="-2.18" y="-1.84" width="219.5" height="77.01"/><path class="cls-6" d="M80.84,37.45a16.09,16.09,0,0,1,7.25-12.56c4-2.3,7.26-.42,7.26,4.19a16.1,16.1,0,0,1-7.26,12.56C84.1,44,80.84,42.06,80.84,37.45Z"/><path class="cls-6" d="M84.62,35.27a7.7,7.7,0,0,1,3.47-6c1.91-1.1,3.47-.2,3.47,2a7.68,7.68,0,0,1-3.47,6C86.18,38.38,84.62,37.47,84.62,35.27Z"/><path class="cls-7" d="M112.08,10.94l1.55-5.2-.81-.61s-17.5,9.76-21.15,12.72c-3.08,2.5-4.48,11-4.48,11s-5,4.69-5,6.75a3.05,3.05,0,0,0,1.37,2.33,24,24,0,0,0,4.15,1.73l.29.09,7.34-7.43,5.23-2.19,2.11-5.29-.81-.61L95.34,28v-.88L108,19.41l2.07-5-.81-.61L98.47,20.26l1.15-2.12Z"/><path class="cls-8" d="M88,39.75s-5-1.49-5-3.55,5-6.74,5-6.74,1.4-8.5,4.49-11c3.64-2.95,21.14-12.71,21.14-12.71l-1.55,5.2-12.46,7.2-2,3.76L110,14.38l-2.07,5L95.34,27.12v2l7.34-4.24-2.11,5.29-5.23,2.19Z"/><path class="cls-7" d="M108.41,12l1-2.25L94.48,18.08l-1.57,6.09-3.5,8.63-.79.51c-.26-.35-.73-.42-1.27-.11a3.29,3.29,0,0,0-1.48,2.56c0,.94.67,1.33,1.48.86a3.34,3.34,0,0,0,1.42-2.08l1.32-.89,1.35,0,6.88-3.55.46-1.31-7.25,3.64-1.1.4L93,26.52l8.17-4.58.88-1.55-7.64,4.42,1.71-5.7Z"/><line class="cls-9" x1="35.05" y1="14.53" x2="197.48" y2="14.53"/><line class="cls-9" x1="35.05" y1="65.38" x2="197.48" y2="65.38"/><polygon class="cls-9" points="13.03 27.25 13.03 52.67 35.05 65.38 57.07 52.67 57.06 27.25 35.05 14.54 13.03 27.25"/><polygon class="cls-9" points="13.03 27.25 35.05 39.96 35.05 65.38 13.03 52.67 13.03 27.25"/><polygon class="cls-9" points="35.05 39.96 57.06 27.25 57.07 52.67 35.05 65.38 35.05 39.96"/><path class="cls-9" d="M39.92,49.85a13.6,13.6,0,0,1,6.14-10.62c3.37-1.95,6.13-.36,6.13,3.54A13.62,13.62,0,0,1,46.06,53.4C42.68,55.34,39.92,53.75,39.92,49.85Z"/><circle class="cls-10" cx="35.05" cy="39.96" r="22.02"/><path class="cls-9" d="M16,41.68c0-5.1,3.61-7.18,8-4.63s8,8.8,8,13.89-3.61,7.19-8,4.64S16,46.78,16,41.68Z"/><polygon class="cls-9" points="76.41 27.25 76.41 52.67 98.42 65.38 120.44 52.67 120.44 27.25 98.42 14.54 76.41 27.25"/><polygon class="cls-9" points="76.41 27.25 98.42 39.96 98.42 65.38 76.41 52.67 76.41 27.25"/><polygon class="cls-9" points="98.42 39.96 120.44 27.25 120.44 52.67 98.42 65.38 98.42 39.96"/><polygon class="cls-9" points="76.41 27.25 98.42 14.54 120.44 27.25 98.42 39.96 76.41 27.25"/><path class="cls-11" d="M77.68,46.35c0-9.73,6.68-21.68,14.85-26.54s14.86-.89,14.86,8.84S100.7,50.33,92.53,55.19,77.68,56.08,77.68,46.35Z"/><circle class="cls-11" cx="98.42" cy="39.96" r="22.02"/><path class="cls-12" d="M85,50.33c0-9.84,7-21.92,15.49-26.84s15.5-.9,15.5,8.94-7,21.92-15.5,26.84S85,60.17,85,50.33Z"/><path class="cls-11" d="M88.3,58.65a4.58,4.58,0,0,0,.75-.19Z"/><path class="cls-11" d="M79.4,38a4.26,4.26,0,0,0-.81.83C78.85,38.52,79.12,38.24,79.4,38Z"/><path class="cls-11" d="M85.76,38.24c-2.54-1.46-4.82-1.45-6.36-.26-.28.26-.55.54-.81.83a12.12,12.12,0,0,0,9.1,20.13,12.42,12.42,0,0,0,2.61-.29l.75-.19c1.88-.69,3.09-2.7,3.09-5.71C94.14,47.43,90.37,40.9,85.76,38.24Z"/><path class="cls-11" d="M79.26,46.23c-2-1.16-3.67-.21-3.67,2.12a8.15,8.15,0,0,0,3.67,6.36c2,1.16,3.67.21,3.67-2.12A8.15,8.15,0,0,0,79.26,46.23Zm0,7.3a5.87,5.87,0,0,1-2.65-4.59c0-1.68,1.19-2.37,2.65-1.53A5.87,5.87,0,0,1,81.91,52C81.91,53.68,80.72,54.37,79.26,53.53Z"/><path class="cls-11" d="M77.85,49.38c0-1.2.85-1.69,1.88-1.09a4.19,4.19,0,0,1,1.89,3.27c0,1.2-.85,1.69-1.89,1.09A4.2,4.2,0,0,1,77.85,49.38Z"/><path class="cls-11" d="M78.59,49.12c0-1,.68-1.36,1.52-.88a3.36,3.36,0,0,1,1.51,2.63c0,1-.68,1.35-1.51.87A3.34,3.34,0,0,1,78.59,49.12Z"/><path class="cls-11" d="M82.52,38.52c-5.69-3.29-10.35-.6-10.35,6s4.66,14.65,10.35,17.94,10.35.6,10.35-6S88.22,41.8,82.52,38.52Zm0,20.59a16.62,16.62,0,0,1-7.48-13c0-4.75,3.37-6.69,7.48-4.31A16.59,16.59,0,0,1,90,54.79C90,59.54,86.63,61.48,82.52,59.11Z"/><path class="cls-11" d="M82.48,35h0v0Z"/><path class="cls-11" d="M104.61,18.85c-3.41-1.07-5.29-1-9.43,1.37C90,23.21,85.38,28.81,82.5,35v0l3.39,2h0a38.71,38.71,0,0,1,4.34-7.27,29.48,29.48,0,0,1,8.47-7.77,15.14,15.14,0,0,1,5.91-2.08,9.75,9.75,0,0,1,2.82.1A13,13,0,0,0,104.61,18.85Z"/><path class="cls-11" d="M102.17,50.5a16.08,16.08,0,0,1,7.26-12.56c4-2.31,7.25-.42,7.25,4.18a16.1,16.1,0,0,1-7.25,12.57C105.44,57,102.17,55.11,102.17,50.5Z"/><path class="cls-11" d="M106,48.32a7.71,7.71,0,0,1,3.47-6c1.91-1.1,3.47-.2,3.47,2a7.7,7.7,0,0,1-3.47,6C107.52,51.42,106,50.52,106,48.32Z"/><path class="cls-11" d="M133.41,24l1.56-5.2-.82-.61S116.65,27.94,113,30.89c-3.09,2.51-4.48,11-4.48,11s-5,4.69-5,6.74A3.06,3.06,0,0,0,104.9,51,23.07,23.07,0,0,0,109,52.7l.3.1,7.34-7.44,5.23-2.19L124,37.89l-.82-.61-6.52,3.77v-.89l12.61-7.7,2.07-5-.82-.6L119.8,33.31,121,31.18Z"/><path class="cls-11" d="M109.34,52.8s-5-1.5-5-3.55,5-6.74,5-6.74,1.4-8.51,4.48-11C117.46,28.55,135,18.79,135,18.79L133.41,24,121,31.18l-2,3.76,12.44-7.52-2.07,5-12.61,7.7v2L124,37.89l-2.11,5.28-5.23,2.19Z"/><path class="cls-11" d="M129.75,25l1-2.25-14.93,8.37-1.58,6.1-3.5,8.63-.79.51a.9.9,0,0,0-1.26-.11,3.26,3.26,0,0,0-1.48,2.56c0,.94.66,1.32,1.48.85a3.36,3.36,0,0,0,1.42-2.07l1.31-.89,1.36,0,6.87-3.54.47-1.32-7.25,3.65-1.11.4,2.58-6.36L122.51,35l.89-1.55-7.65,4.41,1.72-5.69Z"/><path class="cls-13" d="M148.84,37.45a16.09,16.09,0,0,1,7.25-12.56c4-2.3,7.26-.42,7.26,4.19a16.1,16.1,0,0,1-7.26,12.56C152.1,44,148.84,42.06,148.84,37.45Z"/><path class="cls-13" d="M152.62,35.27a7.7,7.7,0,0,1,3.47-6c1.91-1.1,3.47-.2,3.47,2a7.68,7.68,0,0,1-3.47,6C154.18,38.38,152.62,37.47,152.62,35.27Z"/><path class="cls-14" d="M180.08,10.94l1.55-5.2-.81-.61s-17.5,9.76-21.14,12.72c-3.09,2.5-4.49,11-4.49,11s-5,4.69-5,6.75a3.05,3.05,0,0,0,1.37,2.33,24,24,0,0,0,4.15,1.73l.29.09,7.34-7.43,5.23-2.19,2.11-5.29-.81-.61L163.34,28v-.88L176,19.41l2.07-5-.81-.61-10.74,6.49,1.15-2.12Z"/><path class="cls-15" d="M156,39.75s-5-1.49-5-3.55,5-6.74,5-6.74,1.4-8.5,4.49-11c3.64-2.95,21.14-12.71,21.14-12.71l-1.55,5.2-12.46,7.2-2,3.76L178,14.38l-2.07,5-12.61,7.71v2l7.34-4.24-2.11,5.29-5.23,2.19Z"/><path class="cls-16" d="M176.41,12l1-2.25-14.94,8.38-1.57,6.09-3.5,8.63-.79.51c-.26-.35-.73-.42-1.27-.11a3.29,3.29,0,0,0-1.48,2.56c0,.94.67,1.33,1.48.86a3.34,3.34,0,0,0,1.42-2.08l1.32-.89,1.36,0,6.87-3.55.46-1.31-7.25,3.64-1.1.4L161,26.52l8.17-4.58.88-1.55-7.64,4.42,1.71-5.7Z"/><polygon class="cls-9" points="144.41 27.25 144.41 52.67 166.42 65.38 188.44 52.67 188.44 27.25 166.42 14.54 144.41 27.25"/><polygon class="cls-9" points="144.41 27.25 166.42 39.96 166.42 65.38 144.41 52.67 144.41 27.25"/><polygon class="cls-9" points="166.42 39.96 188.44 27.25 188.44 52.67 166.42 65.38 166.42 39.96"/><polygon class="cls-9" points="144.41 27.25 166.42 14.54 188.44 27.25 166.42 39.96 144.41 27.25"/><path class="cls-12" d="M145.68,46.35c0-9.73,6.68-21.68,14.85-26.54s14.86-.89,14.86,8.84-6.68,21.68-14.86,26.54S145.68,56.08,145.68,46.35Z"/><circle class="cls-17" cx="166.42" cy="39.96" r="22.02"/><path class="cls-12" d="M153,50.33c0-9.84,7-21.92,15.49-26.84s15.5-.9,15.5,8.94-7,21.92-15.49,26.84S153,60.17,153,50.33Z"/><g class="cls-18"><path class="cls-19" d="M158.3,58.65a4.58,4.58,0,0,0,.75-.19Z"/><path class="cls-19" d="M147.4,38a4.26,4.26,0,0,0-.81.83C146.85,38.52,147.12,38.24,147.4,38Z"/><path class="cls-19" d="M153.76,38.24c-2.54-1.46-4.82-1.45-6.36-.26-.28.26-.55.54-.81.83a12.12,12.12,0,0,0,9.1,20.13,12.42,12.42,0,0,0,2.61-.29l.75-.19c1.88-.69,3.09-2.7,3.09-5.71C162.14,47.43,158.37,40.9,153.76,38.24Z"/></g><path class="cls-13" d="M147.26,46.23c-2-1.16-3.67-.21-3.67,2.12a8.15,8.15,0,0,0,3.67,6.36c2,1.16,3.67.21,3.67-2.12A8.15,8.15,0,0,0,147.26,46.23Zm0,7.3a5.87,5.87,0,0,1-2.65-4.59c0-1.68,1.19-2.37,2.65-1.53A5.87,5.87,0,0,1,149.91,52C149.91,53.68,148.72,54.37,147.26,53.53Z"/><g class="cls-20"><path class="cls-21" d="M145.85,49.38c0-1.2.85-1.69,1.88-1.09a4.19,4.19,0,0,1,1.89,3.27c0,1.2-.85,1.69-1.89,1.09A4.2,4.2,0,0,1,145.85,49.38Z"/></g><g class="cls-22"><path class="cls-21" d="M146.59,49.12c0-1,.68-1.36,1.52-.88a3.36,3.36,0,0,1,1.51,2.63c0,1-.68,1.35-1.51.87A3.34,3.34,0,0,1,146.59,49.12Z"/></g><path class="cls-16" d="M150.52,38.52c-5.69-3.29-10.35-.6-10.35,6s4.66,14.65,10.35,17.94,10.36.6,10.36-6S156.22,41.8,150.52,38.52Zm0,20.59a16.62,16.62,0,0,1-7.48-13c0-4.75,3.37-6.69,7.48-4.31A16.59,16.59,0,0,1,158,54.79C158,59.54,154.63,61.48,150.52,59.11Z"/><g class="cls-23"><path class="cls-21" d="M150.48,35h0v0Z"/><path class="cls-21" d="M172.61,18.85c-3.41-1.07-5.29-1-9.43,1.37-5.19,3-9.8,8.59-12.68,14.75v0l3.39,2h0a38.71,38.71,0,0,1,4.34-7.27,29.48,29.48,0,0,1,8.47-7.77,15.19,15.19,0,0,1,5.91-2.08,9.75,9.75,0,0,1,2.82.1A13,13,0,0,0,172.61,18.85Z"/><path class="cls-24" d="M150.48,35h0v0Z"/><path class="cls-13" d="M172.61,18.85c-3.41-1.07-5.29-1-9.43,1.37-5.19,3-9.8,8.59-12.68,14.75v0l3.39,2h0a38.71,38.71,0,0,1,4.34-7.27,29.48,29.48,0,0,1,8.47-7.77,15.19,15.19,0,0,1,5.91-2.08,9.75,9.75,0,0,1,2.82.1A13,13,0,0,0,172.61,18.85Z"/></g><path class="cls-13" d="M170.18,50.5a16.07,16.07,0,0,1,7.25-12.56c4-2.31,7.25-.42,7.25,4.18a16.1,16.1,0,0,1-7.25,12.57C173.44,57,170.18,55.11,170.18,50.5Z"/><path class="cls-13" d="M174,48.32a7.71,7.71,0,0,1,3.47-6c1.91-1.1,3.47-.2,3.47,2a7.7,7.7,0,0,1-3.47,6C175.52,51.42,174,50.52,174,48.32Z"/><path class="cls-14" d="M201.41,24l1.56-5.2-.82-.61S184.65,27.94,181,30.89c-3.09,2.51-4.48,11-4.48,11s-5,4.69-5,6.74A3.06,3.06,0,0,0,172.9,51a22.84,22.84,0,0,0,4.15,1.72l.29.1,7.34-7.44,5.23-2.19L192,37.89l-.82-.61-6.52,3.77v-.89l12.61-7.7,2.07-5-.82-.6L187.8,33.31,189,31.18Z"/><path class="cls-15" d="M177.34,52.8s-5-1.5-5-3.55,5-6.74,5-6.74,1.4-8.51,4.49-11C185.47,28.55,203,18.79,203,18.79L201.41,24,189,31.18l-2,3.76,12.44-7.52-2.07,5-12.61,7.7v2L192,37.89l-2.11,5.28-5.23,2.19Z"/><path class="cls-16" d="M197.75,25l1-2.25-14.93,8.37-1.58,6.1-3.5,8.63-.79.51c-.26-.35-.72-.42-1.26-.11a3.26,3.26,0,0,0-1.48,2.56c0,.94.66,1.32,1.48.85a3.36,3.36,0,0,0,1.42-2.07l1.31-.89,1.36,0,6.87-3.54.47-1.32-7.25,3.65-1.11.4,2.58-6.36L190.51,35l.89-1.55-7.65,4.41,1.72-5.69Z"/></g></g></svg>