<svg xmlns="http://www.w3.org/2000/svg" viewBox="0 0 216 144"><defs><style>.cls-1{isolation:isolate;}.cls-2{fill:#333;opacity:0.15;}.cls-13,.cls-15,.cls-3{fill:#e6e6e5;}.cls-13,.cls-15,.cls-16,.cls-17,.cls-18,.cls-19,.cls-3,.cls-5{stroke:#e3493c;}.cls-13,.cls-15,.cls-16,.cls-17,.cls-18,.cls-19,.cls-20,.cls-3,.cls-5{stroke-miterlimit:10;stroke-width:0.25px;}.cls-12,.cls-18,.cls-19,.cls-4,.cls-7{fill:#231f20;}.cls-4{opacity:0.36;}.cls-17,.cls-20,.cls-5{fill:#fff;}.cls-13,.cls-5{opacity:0.5;}.cls-6,.cls-8{opacity:0.3;}.cls-11,.cls-14,.cls-6{mix-blend-mode:multiply;}.cls-15,.cls-16,.cls-9{opacity:0.4;}.cls-10,.cls-12,.cls-19{opacity:0.2;}.cls-11{opacity:0.53;}.cls-14{opacity:0.77;}.cls-16{fill:gray;}.cls-17{opacity:0.62;}.cls-20{stroke:#bcd643;}</style></defs><title>how-algo-evolve</title><g class="cls-1"><g id="robots"><path class="cls-2" d="M133.32,119.65c-1-3.36,3.32-4.13,6.2-3.77s9.35-1.07,9.53-2.56,6.45-5.64,10.45-6,9.23.11,10.15-2.27,5-5.3,8.45-3.81,12.11,6.71,13.51,9,2,5.63,3.82,5.8,11.65,2.91,10.23,4.63-11.15,1.42-14.36,0-7.35-3.9-9.38-3.28a58.94,58.94,0,0,0-8.9,3.1,68.69,68.69,0,0,1-16,4.11c-2,.16-1,2.81.6,4.61s10.66,3.35,7.24,6.75-8.2,3.6-11.11,1.18-9.72-4.37-11.36-7.39S134.66,123.93,133.32,119.65Z"/><path class="cls-3" d="M129.39,34.24c0-4.83.6-7.26,1.63-8.1a.46.46,0,0,1,.17-.17l.29-.08.16-.05c2.44-.56,3.45,1.9,7.79-1.54,4.6-3.63,4.08-4.48,7.08-6.31,4.8-2.93,7.37-1.26,9.55-2.63,2.86-1.8,3.58-6.52,5.25-6.57h0c2-.77,5.28,3,9.09,7.24,6.28,6.93,11.7,12.42,11.7,26.28,0,9.71-2.66,21-6.41,24.57-1.16,1.6-2,4.6-4.72,8.25-2.88,3.84-7.27,8.69-10.86,8.74s-14.81,2-17.43,1.16l-.2-.08a4.94,4.94,0,0,1-2-1.42C134.25,76.61,129.39,48.09,129.39,34.24Z"/><path class="cls-3" d="M171,14.73c6,3.47,10.91,12,10.91,18.91S177,43.41,171,39.94,160.08,28,160.08,21,165,11.27,171,14.73Zm0,23.34c5.12,3,9.3.54,9.3-5.37S176.11,19.55,171,16.6s-9.3-.54-9.3,5.37S165.88,35.12,171,38.07Z"/><ellipse class="cls-4" cx="140.31" cy="104.81" rx="1.44" ry="1.71" transform="translate(-8.62 196.97) rotate(-68.51)"/><ellipse class="cls-4" cx="137.64" cy="105.23" rx="1.13" ry="1.34" transform="translate(-10.7 194.74) rotate(-68.51)"/><path class="cls-3" d="M152.23,59.43c0-13.86-5.42-19.35-11.7-26.28s-11.14-12.77-11.14,1.09,4.86,42.37,11.14,49.3S152.23,73.29,152.23,59.43Z"/><path class="cls-3" d="M172.4,45c-5.19-12.85-2.22-20,1-28.75S179,.2,184.14,13s11.37,41.11,8.14,49.89S177.59,57.8,172.4,45Z"/><path class="cls-3" d="M173.41,16.21c1.78-4.85,3.29-9.22,5.16-10-.85,1.81-1.69,4.16-2.6,6.63-3.23,8.78-6.2,15.9-1,28.75,4.3,10.64,12.89,22,17.56,20.59-.08.26-.15.52-.24.75-3.23,8.78-14.69-5.13-19.88-18S170.18,25,173.41,16.21Z"/><path class="cls-5" d="M181.41,13.76a46.16,46.16,0,0,0-3.55-7.07c1.67-1.56,3.59-.31,6.28,6.35,4.07,10.08,8.75,29.65,9,41.85C190.23,39.75,185.58,23.71,181.41,13.76Z"/><path class="cls-5" d="M177,16.75c-3-1.72-5.4-.31-5.4,3.11a12,12,0,0,0,5.4,9.35c3,1.72,5.4.31,5.4-3.11A12,12,0,0,0,177,16.75Zm0,10.73a8.64,8.64,0,0,1-3.9-6.75c0-2.48,1.75-3.49,3.9-2.25a8.65,8.65,0,0,1,3.9,6.75C180.93,27.71,179.17,28.72,177,27.48Z"/><path class="cls-5" d="M177,18c-2.38-1.37-4.32-.25-4.32,2.5A9.59,9.59,0,0,0,177,28c2.37,1.37,4.32.24,4.32-2.5A9.6,9.6,0,0,0,177,18Zm0,8.59a6.9,6.9,0,0,1-3.12-5.4c0-2,1.4-2.79,3.12-1.8a6.93,6.93,0,0,1,3.12,5.4C180.15,26.76,178.74,27.57,177,26.58Z"/><g class="cls-6"><path class="cls-7" d="M174.91,22.11c0-1.26.89-1.77,2-1.14a4.37,4.37,0,0,1,2,3.42c0,1.25-.89,1.76-2,1.14A4.39,4.39,0,0,1,174.91,22.11Z"/></g><g class="cls-8"><path class="cls-5" d="M175.25,22.3c0-1,.74-1.46,1.64-.94a3.62,3.62,0,0,1,1.63,2.83c0,1-.73,1.46-1.63.94A3.63,3.63,0,0,1,175.25,22.3Z"/></g><g class="cls-9"><path class="cls-3" d="M168.6,14.49a5.38,5.38,0,0,0-.79.2Z"/><path class="cls-3" d="M180,36.11a4.13,4.13,0,0,0,.85-.87A10,10,0,0,1,180,36.11Z"/><path class="cls-3" d="M173.35,35.84c2.65,1.53,5,1.52,6.65.27a10,10,0,0,0,.85-.87,12.68,12.68,0,0,0-9.52-21.05,12.9,12.9,0,0,0-2.73.3l-.79.2c-2,.73-3.23,2.82-3.23,6C164.58,26.22,168.53,33.05,173.35,35.84Z"/></g><path class="cls-3" d="M182,42.45c0-13.86-5.42-19.35-11.7-26.28S159.17,3.4,159.17,17.26s4.86,42.37,11.14,49.3S182,56.31,182,42.45Z"/><path class="cls-3" d="M146.09,48.6A12.3,12.3,0,0,0,140.54,39c-3-1.77-5.55-.32-5.55,3.2a12.32,12.32,0,0,0,5.55,9.61C143.59,53.56,146.09,52.12,146.09,48.6Z"/><path class="cls-5" d="M143.57,51.41a12.34,12.34,0,0,0-1.64-11c-2.19-2.75-5.05-2.33-6.34,1a12.34,12.34,0,0,0,1.64,11C139.43,55.11,142.28,54.69,143.57,51.41Z"/><path class="cls-5" d="M174.79,32a12.32,12.32,0,0,0-5.55-9.61c-3.05-1.76-5.54-.32-5.55,3.21a12.33,12.33,0,0,0,5.55,9.61C172.29,37,174.79,35.55,174.79,32Z"/><path class="cls-3" d="M172,32.83a12.29,12.29,0,0,0-5.55-9.61c-3-1.76-5.54-.32-5.54,3.2A12.29,12.29,0,0,0,166.41,36C169.47,37.8,172,36.35,172,32.83Z"/><path class="cls-3" d="M117.8,53.71c-.13-13.85,5.25-19.39,11.46-26.38s11-12.87,11.15,1-4.48,42.42-10.7,49.4S117.92,67.57,117.8,53.71Z"/><path class="cls-5" d="M129.26,27.33c5.44-6.1,9.79-11.36,10.89-3.36l-1.62,1.82c-7.7,8.64-14.35,15.5-14.2,32.66a75,75,0,0,0,3.17,20.78c-5.27,1.4-9.6-13.33-9.7-25.52C117.67,39.86,123.05,34.32,129.26,27.33Z"/><path class="cls-3" d="M126.41,71.35c6.39-7.18,11.29-34.18,12.16-51.2,1.13.71,1.8,3.13,1.84,8.17.12,13.86-4.48,42.42-10.7,49.4-3.31,3.71-6.44.6-8.65-5.21C122.72,73.64,124.54,73.45,126.41,71.35Z"/><path class="cls-3" d="M144,95.71c-1.59-2.72-3.28-3.17-5.31-3.81s-3.65-1.24-2.06,1.49,5.81,7.76,7.83,8.4S145.59,98.44,144,95.71Z"/><path class="cls-3" d="M138.69,91.9a8.77,8.77,0,0,1,3.93,2c-.41-.15-.85-.28-1.3-.42-2-.64-3.65-1.23-2.06,1.49a35.13,35.13,0,0,0,5.63,6.88,1.39,1.39,0,0,1-.43-.06c-2-.64-6.25-5.68-7.83-8.4S136.66,91.26,138.69,91.9Z"/><path class="cls-3" d="M126.17,91.12c-5-6.6-4.4-11.17-3.91-16.73S123,64.28,128,70.88s13,21.93,12.5,27.5S131.17,97.72,126.17,91.12Z"/><path class="cls-3" d="M192.88,76.9c-5.57-6.12-5.39-10.73-5.4-16.32s-.22-10.12,5.35-4,14.91,20.67,14.92,26.26S198.46,83,192.88,76.9Z"/><path class="cls-5" d="M189.88,54a13,13,0,0,1,3,2.62c5.58,6.12,14.91,20.67,14.92,26.26,0,1.8-1,2.45-2.45,2.32C204.39,77.52,195.71,61.61,189.88,54Z"/><path class="cls-3" d="M191.69,55.4c-.62,1.08-.57,3.59-.57,6.35,0,5.59-.17,10.2,5.41,16.32a34.68,34.68,0,0,0,9,7.1c-3.1-.1-8.78-4-12.66-8.27-5.57-6.12-5.39-10.73-5.4-16.32C187.46,55.41,187.29,51.15,191.69,55.4Z"/><path class="cls-5" d="M125.4,68.11c-.07.71-.13,1.45-.2,2.2-.63,7.22-1.41,13.15,5.08,21.71a47.5,47.5,0,0,0,8.37,8.5c-2.94.21-8.76-4.49-12.48-9.4-5-6.6-4.4-11.17-3.91-16.73C122.64,70,122.85,66.23,125.4,68.11Z"/><path class="cls-3" d="M136.72,94.82c.43-4.92-4.44-16-9.55-24.92.25.3.51.62.78,1,5,6.6,13,21.93,12.5,27.5-.34,3.83-4.6,2.08-8.86-1.54C134.38,98.06,136.46,97.74,136.72,94.82Z"/><path class="cls-3" d="M136.09,102c-1.58-2.08-1.39-3.53-1.23-5.29s.22-3.19,1.8-1.11,4.1,6.93,4,8.69S137.68,104.11,136.09,102Z"/><path class="cls-3" d="M134.45,102.88a5.15,5.15,0,0,1-1-4.28c.13-1.43.18-2.59,1.46-.9s3.32,5.61,3.2,7S135.73,104.57,134.45,102.88Z"/><ellipse class="cls-4" cx="210.55" cy="91.13" rx="1.44" ry="1.71" transform="translate(-15.7 129.19) rotate(-32.95)"/><ellipse class="cls-4" cx="204.03" cy="92.17" rx="1.13" ry="1.34" transform="translate(-17.31 125.8) rotate(-32.95)"/><ellipse class="cls-4" cx="199.02" cy="88.09" rx="2.17" ry="2.58" transform="translate(-15.9 122.42) rotate(-32.95)"/><path class="cls-3" d="M201.68,83.67c.29-3.14-.82-4.49-2.1-6.19s-2.25-3.13-2.54,0,.21,9.69,1.49,11.39S201.39,86.81,201.68,83.67Z"/><path class="cls-3" d="M199.58,77.48c.26.35.52.68.76,1-1-1.35-1.8-2.06-2.06.66a32.14,32.14,0,0,0,.91,10.12.82.82,0,0,1-.66-.41c-1.28-1.7-1.78-8.25-1.49-11.39S198.3,75.78,199.58,77.48Z"/><path class="cls-3" d="M206.91,88.56c-1.54-2.11-1.33-3.55-1.14-5.31s.27-3.19,1.82-1.07,4,7,3.79,8.75S208.46,90.67,206.91,88.56Z"/><path class="cls-3" d="M202.09,88.7a5.16,5.16,0,0,1,.62-4.36c.63-1.28,1.1-2.34,1.68-.3s1.07,6.43.44,7.71S202.67,90.74,202.09,88.7Z"/><g class="cls-10"><path class="cls-3" d="M145.39,59.88a6,6,0,0,0,3.06-.79c2.2-1.27,3.41-3.89,3.41-7.4,0-7.07-5-15.71-11.11-19.25-3-1.75-5.92-2-8.12-.75s-3.41,3.9-3.41,7.4c0,7.08,5,15.72,11.12,19.26A10.26,10.26,0,0,0,145.39,59.88ZM135.7,31.71a9.43,9.43,0,0,1,4.64,1.43c5.91,3.41,10.71,11.73,10.71,18.55,0,3.21-1.06,5.59-3,6.7s-4.53.86-7.31-.74C134.84,54.23,130,45.91,130,39.09c0-3.2,1.07-5.58,3-6.7A5.29,5.29,0,0,1,135.7,31.71Z"/></g><path class="cls-3" d="M144.67,57.8a5.27,5.27,0,0,0,2.64-.68c1.89-1.1,2.93-3.35,2.93-6.36,0-6-4.26-13.43-9.49-16.45-2.61-1.51-5.08-1.73-7-.64S130.84,37,130.84,40c0,6,4.26,13.43,9.5,16.46A8.86,8.86,0,0,0,144.67,57.8Zm-8.26-24A7.94,7.94,0,0,1,140.34,35c5,2.89,9.1,10,9.1,15.75,0,2.71-.9,4.71-2.53,5.66s-3.82.71-6.17-.64c-5-2.9-9.09-10-9.09-15.76,0-2.7.9-4.71,2.53-5.65A4.43,4.43,0,0,1,136.41,33.8Z"/><g class="cls-10"><path class="cls-3" d="M172.75,44a6,6,0,0,0,3.06-.79c2.19-1.27,3.4-3.89,3.4-7.4,0-7.07-5-15.71-11.11-19.25-3-1.75-5.92-2-8.11-.75s-3.41,3.9-3.41,7.4c0,7.08,5,15.72,11.11,19.26A10.27,10.27,0,0,0,172.75,44Zm-9.7-28.17a9.43,9.43,0,0,1,4.64,1.43c5.91,3.41,10.72,11.73,10.72,18.55,0,3.21-1.07,5.59-3,6.7s-4.53.86-7.3-.74c-5.91-3.42-10.71-11.74-10.71-18.56,0-3.2,1.06-5.58,3-6.7A5.32,5.32,0,0,1,163.05,15.81Z"/></g><g class="cls-10"><path class="cls-3" d="M172,41.9a5.21,5.21,0,0,0,2.63-.68c1.9-1.1,2.94-3.35,2.94-6.36,0-6.05-4.26-13.43-9.5-16.45-2.61-1.51-5.08-1.73-7-.64s-2.94,3.35-2.94,6.35c0,6.05,4.27,13.43,9.5,16.46A8.79,8.79,0,0,0,172,41.9Zm-8.26-24a7.9,7.9,0,0,1,3.92,1.21c5,2.89,9.1,10,9.1,15.75,0,2.71-.9,4.71-2.53,5.66s-3.82.71-6.16-.64c-5-2.9-9.1-10-9.1-15.76,0-2.7.9-4.71,2.53-5.65A4.44,4.44,0,0,1,163.77,17.9Z"/></g><path class="cls-3" d="M140,34.74c4.32,5.43,5.77,15.14,3.23,21.59s-8.15,7.29-12.46,1.86S125,43.06,127.51,36.61,135.66,29.32,140,34.74Zm-8.55,21.72c3.68,4.62,8.45,3.9,10.62-1.59s.92-13.77-2.75-18.39-8.46-3.91-10.62,1.59S127.74,51.84,131.42,56.46Z"/><g class="cls-8"><path class="cls-5" d="M121.63,70.85a.74.74,0,0,1,1.39-.21,2.72,2.72,0,0,1,.36,2.41.74.74,0,0,1-1.39.21A2.72,2.72,0,0,1,121.63,70.85Z"/></g><g class="cls-11"><path class="cls-7" d="M121.78,71a.61.61,0,0,1,1.15-.18,2.26,2.26,0,0,1,.3,2,.62.62,0,0,1-1.15.17A2.21,2.21,0,0,1,121.78,71Z"/></g><path class="cls-12" d="M127.83,66.78a10.64,10.64,0,0,1,1.42,9.47c-1.12,2.83-3.58,3.19-5.47.81a10.61,10.61,0,0,1-1.42-9.47C123.48,64.76,125.94,64.4,127.83,66.78Zm-3.7,9.4c1.56,2,3.6,1.67,4.52-.68a8.76,8.76,0,0,0-1.17-7.84c-1.57-2-3.6-1.66-4.53.68A8.8,8.8,0,0,0,124.13,76.18Z"/><g class="cls-9"><path class="cls-3" d="M126.45,79.17a2.14,2.14,0,0,0,.5.06A4.26,4.26,0,0,1,126.45,79.17Z"/><path class="cls-3" d="M124.8,64.19a2.66,2.66,0,0,0-.69.31C124.34,64.39,124.56,64.28,124.8,64.19Z"/><path class="cls-3" d="M128.55,65.85c-1.18-1.48-2.55-2-3.75-1.66-.24.09-.46.2-.69.31a7.82,7.82,0,0,0,.71,14.23,8,8,0,0,0,1.63.44,4.26,4.26,0,0,0,.5.06c1.29,0,2.49-.88,3.2-2.69A12,12,0,0,0,128.55,65.85Z"/></g><path class="cls-3" d="M124.27,78a5.77,5.77,0,0,0,.58.08c1.52,0,2.93-1,3.77-3.17a13.94,13.94,0,0,0,0-9,12,12,0,0,1,1.56,10.63c-.71,1.81-1.91,2.72-3.2,2.69a4.26,4.26,0,0,1-.5-.06,8,8,0,0,1-1.63-.44,7.89,7.89,0,0,1-1.84-1A8.63,8.63,0,0,0,124.27,78Z"/><g class="cls-9"><path class="cls-3" d="M186.79,52.89a2.74,2.74,0,0,0-.5,0Z"/><path class="cls-3" d="M191.48,67.22a2.62,2.62,0,0,0,.6-.45A6.7,6.7,0,0,1,191.48,67.22Z"/><path class="cls-3" d="M187.46,66.36c1.46,1.21,2.91,1.45,4,.86a6.7,6.7,0,0,0,.6-.45A7.8,7.8,0,0,0,188.48,53a8,8,0,0,0-1.69-.1l-.5,0c-1.27.24-2.25,1.38-2.58,3.29A12,12,0,0,0,187.46,66.36Z"/></g><g class="cls-8"><path class="cls-5" d="M189.42,57.93c0-.77.55-1.09,1.22-.7a2.68,2.68,0,0,1,1.22,2.1c0,.78-.55,1.09-1.22.71A2.72,2.72,0,0,1,189.42,57.93Z"/></g><g class="cls-11"><path class="cls-7" d="M189.63,58.05c0-.64.46-.9,1-.58a2.24,2.24,0,0,1,1,1.74c0,.64-.46.91-1,.59A2.26,2.26,0,0,1,189.63,58.05Z"/></g><path class="cls-12" d="M189.76,53.59a10.63,10.63,0,0,1,4.79,8.29c0,3-2.16,4.28-4.79,2.76A10.63,10.63,0,0,1,185,56.35C185,53.31,187.13,52.07,189.76,53.59Zm0,10.1c2.18,1.26,4,.23,4-2.29a8.79,8.79,0,0,0-4-6.86c-2.18-1.26-4-.23-4,2.29A8.8,8.8,0,0,0,189.76,63.69Z"/><g class="cls-9"><path class="cls-3" d="M128.24,56.36a4.48,4.48,0,0,0,.81.1Z"/><path class="cls-3" d="M125.56,32.06a4.61,4.61,0,0,0-1.11.51A11.14,11.14,0,0,1,125.56,32.06Z"/><path class="cls-3" d="M131.65,34.76c-1.91-2.4-4.14-3.27-6.09-2.7a11.14,11.14,0,0,0-1.11.51,12.53,12.53,0,0,0-6,6.62,12.69,12.69,0,0,0,7.15,16.45,12.88,12.88,0,0,0,2.65.72l.81.1c2.1,0,4-1.44,5.19-4.37C136.28,46.91,135.11,39.11,131.65,34.76Z"/></g><path class="cls-5" d="M124.35,38.65c-2.13-2.68-4.9-2.27-6.16.92a12,12,0,0,0,1.6,10.68c2.13,2.68,4.9,2.26,6.16-.93A11.94,11.94,0,0,0,124.35,38.65Zm-3.93,10a8.64,8.64,0,0,1-1.15-7.71c.9-2.31,2.91-2.61,4.45-.67A8.64,8.64,0,0,1,124.87,48C124,50.27,122,50.57,120.42,48.64Z"/><path class="cls-5" d="M123.9,39.81c-1.71-2.15-3.93-1.82-4.93.74a9.58,9.58,0,0,0,1.27,8.54c1.71,2.14,3.93,1.81,4.93-.74A9.58,9.58,0,0,0,123.9,39.81Zm-3.15,8a6.92,6.92,0,0,1-.92-6.17c.72-1.84,2.33-2.08,3.56-.53a6.91,6.91,0,0,1,.92,6.17C123.59,49.11,122,49.35,120.75,47.8Z"/><g class="cls-6"><path class="cls-7" d="M120.42,42.86a1.21,1.21,0,0,1,2.26-.34,4.39,4.39,0,0,1,.58,3.91,1.21,1.21,0,0,1-2.26.33A4.37,4.37,0,0,1,120.42,42.86Z"/></g><g class="cls-8"><path class="cls-5" d="M120.66,43.17c.39-1,1.23-1.1,1.87-.28a3.61,3.61,0,0,1,.49,3.23,1,1,0,0,1-1.87.28A3.61,3.61,0,0,1,120.66,43.17Z"/></g><ellipse class="cls-4" cx="144.49" cy="101.69" rx="2.58" ry="2.17"/><path class="cls-3" d="M172.59,50.76c0-17.59-4.67-27.55-14.7-33.74a7.7,7.7,0,0,0-3.77-1.08,9,9,0,0,1,7,.63c10,5.94,14.7,15.51,14.7,32.39,0,13.16-4.14,28.77-9.7,31C170,74.13,172.59,61.64,172.59,50.76Z"/><path class="cls-3" d="M157.79,57.08c0-16.7-4.43-26.17-14-32a7.14,7.14,0,0,0-3.58-1,8.54,8.54,0,0,1,6.65.59c9.54,5.65,14,14.74,14,30.78,0,12.5-3.93,27.33-9.22,29.48C155.31,79.28,157.79,67.42,157.79,57.08Z"/><path class="cls-13" d="M174.63,37.12c0-8.45-3-13.24-9.37-16.21-3.23-1.5-8.54.41-8.86,3.12-1,8.41,3.81,23.56,8.85,27.79S174.63,45.57,174.63,37.12Z"/><path class="cls-5" d="M173.56,42c0-10.68-3.77-16.73-11.85-20.49a7.34,7.34,0,0,0-2.1-.58,7.66,7.66,0,0,1,5.65,0c6.4,3,9.37,7.76,9.37,16.21a29.45,29.45,0,0,1-1.25,8.31C173.49,44.28,173.56,43.13,173.56,42Z"/><path class="cls-13" d="M156.4,24a3,3,0,0,1,1-1.77c.5,9.54,5.14,22.57,10,26.62a3.51,3.51,0,0,0,4.34.56c-1.7,3-4,4.44-6.45,2.38C160.21,47.59,155.39,32.44,156.4,24Z"/><path class="cls-4" d="M173.69,31.17,174,31a24.26,24.26,0,0,1,.65,5.18l-.38.24a19.48,19.48,0,0,1-11.81,2.48c-.53-1.79-2.7-2.35-3-4.15C158,32,169.18,33.77,173.69,31.17Z"/><g class="cls-6"><path class="cls-7" d="M173.81,34c0-.76-.54-1.08-1.21-.69a2.67,2.67,0,0,0-1.2,2.08c0,.77.54,1.08,1.2.7A2.65,2.65,0,0,0,173.81,34Z"/></g><g class="cls-14"><path class="cls-7" d="M173.33,33.81c0-.61-.43-.86-1-.56a2.15,2.15,0,0,0-1,1.68c0,.62.43.87,1,.56A2.15,2.15,0,0,0,173.33,33.81Z"/></g><g class="cls-6"><path class="cls-7" d="M170,35.2c0-.77-.55-1.08-1.21-.7a2.67,2.67,0,0,0-1.2,2.09c0,.76.54,1.08,1.2.69A2.68,2.68,0,0,0,170,35.2Z"/></g><g class="cls-14"><path class="cls-7" d="M169.56,35c0-.62-.43-.87-1-.56a2.13,2.13,0,0,0-1,1.67c0,.62.43.87,1,.56A2.13,2.13,0,0,0,169.56,35Z"/></g><polygon class="cls-15" points="95.72 94.94 96.98 94.4 96.79 83.59 93.39 81.23 91.15 83.92 93.68 94.48 95.72 94.94"/><polygon class="cls-16" points="94.39 93.24 96.43 93.7 96.96 93.47 96.98 94.4 95.72 94.94 93.68 94.48 91.15 83.92 91.93 82.98 94.39 93.24"/><polygon class="cls-15" points="90.84 95.53 92.1 95 91.92 84.19 88.51 81.83 86.27 84.51 88.8 95.08 90.84 95.53"/><polygon class="cls-16" points="89.51 93.84 91.56 94.3 92.09 94.07 92.1 95 90.84 95.53 88.8 95.08 86.27 84.51 87.05 83.58 89.51 93.84"/><polygon class="cls-15" points="85.32 94.84 86.6 94.37 86.95 83.56 83.67 81.04 81.3 83.61 83.3 94.28 85.32 94.84"/><polygon class="cls-16" points="84.08 93.08 86.09 93.64 86.63 93.44 86.6 94.37 85.32 94.84 83.3 94.28 81.3 83.61 82.13 82.71 84.08 93.08"/><path class="cls-3" d="M71.9,35A11,11,0,0,0,67,26.42C64.24,24.85,62,26.13,62,29.27A11,11,0,0,0,67,37.83C69.67,39.4,71.9,38.12,71.9,35Z"/><path class="cls-5" d="M76.37,33.45a11,11,0,0,0-4.94-8.56c-2.72-1.57-5-.29-5,2.85a11,11,0,0,0,5,8.56C74.15,37.87,76.37,36.59,76.37,33.45Z"/><polygon class="cls-15" points="92.69 86.63 96.02 83.8 85.03 52.66 72.35 49.26 68.09 59.31 86 87.37 92.69 86.63"/><polygon class="cls-17" points="91.36 86.77 81.11 57.7 70.03 54.73 72.35 49.26 85.03 52.66 96.02 83.8 92.69 86.63 91.36 86.77"/><polygon class="cls-16" points="75.92 50.22 71.85 59.82 89.22 87.01 86 87.37 68.09 59.31 72.35 49.26 75.92 50.22"/><polygon class="cls-15" points="81.63 53.03 87.27 51.35 85.83 18.34 70.35 11.25 60.38 19.54 72.39 51.71 81.63 53.03"/><polygon class="cls-17" points="78.68 19.56 66.86 14.16 70.35 11.25 85.83 18.34 87.27 51.35 81.63 53.03 80.13 52.81 78.68 19.56"/><polygon class="cls-16" points="70.35 11.25 70.71 11.42 64.71 16.42 76.71 48.59 85.95 49.91 87.19 49.54 87.27 51.35 81.63 53.03 72.39 51.71 60.38 19.54 70.35 11.25"/><g class="cls-9"><path class="cls-3" d="M74.41,16.45a4.1,4.1,0,0,0-.71.18C73.94,16.57,74.17,16.5,74.41,16.45Z"/><path class="cls-3" d="M84.56,35.71a3.92,3.92,0,0,0,.75-.77C85.07,35.21,84.82,35.47,84.56,35.71Z"/><path class="cls-3" d="M78.63,35.47c2.37,1.36,4.5,1.35,5.93.24.26-.24.51-.5.75-.77a11.28,11.28,0,0,0-10.9-18.49c-.24.05-.47.12-.71.18-1.75.65-2.88,2.51-2.88,5.32C70.82,26.9,74.34,33,78.63,35.47Z"/></g><path class="cls-5" d="M80.53,31c2.64,1.53,4.81.28,4.81-2.77a10.68,10.68,0,0,0-4.81-8.33c-2.65-1.53-4.81-.28-4.81,2.77A10.64,10.64,0,0,0,80.53,31Zm0-9.56a7.7,7.7,0,0,1,3.47,6c0,2.2-1.56,3.1-3.47,2a7.7,7.7,0,0,1-3.47-6C77.06,21.27,78.62,20.37,80.53,21.47Z"/><path class="cls-5" d="M80.53,29.92c2.11,1.22,3.84.22,3.84-2.22A8.54,8.54,0,0,0,80.53,21c-2.12-1.22-3.85-.22-3.85,2.22A8.52,8.52,0,0,0,80.53,29.92Zm0-7.65a6.18,6.18,0,0,1,2.78,4.81c0,1.77-1.25,2.49-2.78,1.61a6.16,6.16,0,0,1-2.78-4.81C77.75,22.11,79,21.39,80.53,22.27Z"/><g class="cls-6"><path class="cls-18" d="M82.41,26.26c0,1.12-.79,1.57-1.76,1a3.9,3.9,0,0,1-1.75-3c0-1.12.79-1.58,1.75-1A3.9,3.9,0,0,1,82.41,26.26Z"/></g><g class="cls-8"><path class="cls-5" d="M82.11,26.08c0,.93-.65,1.31-1.46.84A3.21,3.21,0,0,1,79.2,24.4c0-.92.65-1.3,1.45-.84A3.21,3.21,0,0,1,82.11,26.08Z"/></g><g class="cls-8"><path class="cls-5" d="M80.35,55.81c-.32-.59-.92-.73-1.31-.31a1.65,1.65,0,0,0-.13,1.83c.33.59.92.73,1.32.31A1.67,1.67,0,0,0,80.35,55.81Z"/></g><g class="cls-11"><path class="cls-18" d="M78.36,54.65c-.27-.49-.76-.61-1.09-.26a1.38,1.38,0,0,0-.11,1.52c.28.49.77.6,1.1.26A1.38,1.38,0,0,0,78.36,54.65Z"/></g><path class="cls-19" d="M74.5,51.15c-1.56,1.64-1.79,4.89-.5,7.2s3.62,2.87,5.18,1.23,1.79-4.89.51-7.21S76.06,49.5,74.5,51.15Zm4.28,7.7c-1.29,1.36-3.23.91-4.29-1a5.43,5.43,0,0,1,.41-6c1.3-1.36,3.23-.91,4.3,1S80.08,57.49,78.78,58.85Z"/><g class="cls-9"><path class="cls-3" d="M76.57,61.76a3.53,3.53,0,0,1-.46,0Z"/><path class="cls-3" d="M76.81,50.3a3.67,3.67,0,0,1,.67.31C77.26,50.5,77,50.39,76.81,50.3Z"/><path class="cls-3" d="M73.44,51.19a3.08,3.08,0,0,1,3.37-.89c.23.09.45.2.67.31a9.16,9.16,0,0,1,3.82,3.57c1.83,3.3.38,6.61-3.25,7.41a7.3,7.3,0,0,1-1.48.17h-.46a4.35,4.35,0,0,1-3.23-2.44C71.42,56.7,71.68,53,73.44,51.19Z"/></g><path class="cls-16" d="M78.51,61.09H78a5.08,5.08,0,0,1-3.8-2.86,9.43,9.43,0,0,1-.76-7c-1.73,1.87-2,5.5-.53,8.1a4.35,4.35,0,0,0,3.23,2.44h.46a7.3,7.3,0,0,0,1.48-.17A5.74,5.74,0,0,0,79.68,61,9.09,9.09,0,0,1,78.51,61.09Z"/><polygon class="cls-3" points="81.03 24.34 64.47 17.38 55.83 19.54 50.35 19.3 41.08 26.02 39.38 32.5 34.94 34.42 29.89 33.46 16.21 40.18 17.65 85.56 31.57 93.96 61.34 92.04 75.27 77.87 81.03 24.34"/><polygon class="cls-16" points="16.21 40.18 36.14 50.75 31.57 93.96 17.65 85.56 16.21 40.18"/><polygon class="cls-16" points="81.03 24.34 75.27 77.87 61.83 70.19 64.47 17.38 81.03 24.34"/><polygon class="cls-16" points="71.55 82.32 72.27 27.04 55.83 19.54 50.35 19.3 67.95 28.84 69.21 84.12 71.55 82.32"/><polygon class="cls-16" points="52.64 92.4 46.34 40.72 34.94 34.42 29.89 33.46 41.84 42.16 48.5 92.58 52.64 92.4"/><path class="cls-3" d="M33.64,54.58A11,11,0,0,0,28.69,46c-2.71-1.57-4.94-.28-4.94,2.86a11,11,0,0,0,4.94,8.56C31.41,59,33.64,57.71,33.64,54.58Z"/><path class="cls-5" d="M30.64,55.66a11,11,0,0,0-4.95-8.57C23,45.53,20.75,46.81,20.75,50a11,11,0,0,0,4.94,8.56C28.41,60.08,30.64,58.8,30.64,55.66Z"/><polygon class="cls-15" points="47.31 95.39 49.05 91.39 25.47 68.27 12.59 70.8 13.19 81.7 41.63 99 47.31 95.39"/><polygon class="cls-17" points="46.18 96.11 24.17 74.53 12.92 76.74 12.59 70.8 25.47 68.27 49.05 91.39 47.31 95.39 46.18 96.11"/><polygon class="cls-16" points="16.22 70.09 16.79 80.5 44.36 97.27 41.63 99 13.19 81.7 12.59 70.8 16.22 70.09"/><polygon class="cls-15" points="55.98 99.11 56.5 97.85 48.79 90.27 44.71 90.97 44.99 94.45 54.2 100.22 55.98 99.11"/><polygon class="cls-16" points="53.84 98.84 55.62 97.73 55.84 97.2 56.5 97.85 55.98 99.11 54.2 100.22 44.99 94.45 44.89 93.24 53.84 98.84"/><polygon class="cls-15" points="52.91 102.95 53.44 101.69 45.73 94.11 41.65 94.81 41.93 98.3 51.14 104.06 52.91 102.95"/><polygon class="cls-16" points="50.78 102.68 52.55 101.57 52.77 101.04 53.44 101.69 52.91 102.95 51.14 104.06 41.93 98.3 41.83 97.08 50.78 102.68"/><polygon class="cls-15" points="44.31 106.02 45.25 105.03 40.81 95.17 36.75 94.35 35.75 97.7 42.25 106.4 44.31 106.02"/><polygon class="cls-16" points="42.42 104.98 44.47 104.6 44.87 104.18 45.25 105.03 44.31 106.02 42.25 106.4 35.75 97.7 36.1 96.53 42.42 104.98"/><polygon class="cls-15" points="24.73 74.15 30.38 72.47 28.93 39.46 13.45 32.38 3.49 40.66 15.49 72.83 24.73 74.15"/><polygon class="cls-3" points="21.78 40.69 9.96 35.28 13.45 32.38 28.93 39.46 30.38 72.47 24.73 74.15 23.23 73.94 21.78 40.69"/><polygon class="cls-16" points="13.45 32.38 13.82 32.55 7.81 37.54 19.81 69.71 29.05 71.03 30.3 70.66 30.38 72.47 24.73 74.15 15.49 72.83 3.49 40.66 13.45 32.38"/><g class="cls-9"><path class="cls-3" d="M19.55,64.76a4.23,4.23,0,0,0,.7-.18C20,64.65,19.78,64.71,19.55,64.76Z"/><path class="cls-3" d="M9.39,45.5a4,4,0,0,0-.75.78Q9,45.88,9.39,45.5Z"/><path class="cls-3" d="M15.32,45.75c-2.37-1.37-4.49-1.36-5.93-.25q-.39.38-.75.78A11.29,11.29,0,0,0,17.12,65a11.52,11.52,0,0,0,2.43-.27c.23-.05.47-.11.7-.18,1.75-.64,2.88-2.51,2.88-5.31C23.13,54.31,19.61,48.23,15.32,45.75Z"/></g><path class="cls-5" d="M10.54,51.35c-2.64-1.53-4.81-.28-4.81,2.78a10.66,10.66,0,0,0,4.81,8.32c2.65,1.53,4.81.28,4.81-2.77A10.67,10.67,0,0,0,10.54,51.35Zm0,9.56a7.7,7.7,0,0,1-3.47-6c0-2.21,1.56-3.11,3.47-2a7.71,7.71,0,0,1,3.47,6C14,61.11,12.45,62,10.54,60.91Z"/><path class="cls-5" d="M10.54,52.46c-2.11-1.22-3.84-.22-3.84,2.22a8.52,8.52,0,0,0,3.84,6.66c2.12,1.23,3.85.23,3.85-2.22A8.52,8.52,0,0,0,10.54,52.46Zm0,7.65A6.16,6.16,0,0,1,7.76,55.3c0-1.77,1.25-2.49,2.78-1.6a6.14,6.14,0,0,1,2.78,4.81C13.32,60.27,12.07,61,10.54,60.11Z"/><g class="cls-6"><path class="cls-18" d="M8.66,56.13c0-1.12.79-1.58,1.76-1a3.92,3.92,0,0,1,1.75,3c0,1.11-.79,1.57-1.75,1A3.9,3.9,0,0,1,8.66,56.13Z"/></g><g class="cls-8"><path class="cls-5" d="M9,56.3c0-.92.65-1.3,1.46-.84A3.23,3.23,0,0,1,11.87,58c0,.93-.65,1.3-1.45.84A3.21,3.21,0,0,1,9,56.3Z"/></g><g class="cls-8"><path class="cls-5" d="M17.83,77c0-.69.49-1,1.09-.63A2.43,2.43,0,0,1,20,78.26c0,.69-.49,1-1.08.63A2.41,2.41,0,0,1,17.83,77Z"/></g><g class="cls-11"><path class="cls-18" d="M18,77.12c0-.57.4-.81.9-.52a2,2,0,0,1,.9,1.55c0,.57-.41.81-.9.52A2,2,0,0,1,18,77.12Z"/></g><path class="cls-19" d="M21.64,71.61A9.45,9.45,0,0,1,25.91,79c0,2.71-1.92,3.82-4.27,2.46a9.47,9.47,0,0,1-4.26-7.39C17.38,71.36,19.3,70.26,21.64,71.61Zm0,9c1.95,1.13,3.54.21,3.54-2a7.81,7.81,0,0,0-3.54-6.11c-1.94-1.12-3.53-.21-3.53,2A7.83,7.83,0,0,0,21.64,80.61Z"/><g class="cls-9"><path class="cls-3" d="M24.55,82.33a2.09,2.09,0,0,0,.43-.11Z"/><path class="cls-3" d="M18.28,70.46a2.34,2.34,0,0,0-.46.48C18,70.77,18.12,70.61,18.28,70.46Z"/><path class="cls-3" d="M21.94,70.61c-1.46-.84-2.77-.84-3.66-.15-.16.15-.31.31-.46.48A7,7,0,0,0,23.05,82.5a6.83,6.83,0,0,0,1.5-.17l.43-.11c1.08-.39,1.77-1.54,1.77-3.27A10.67,10.67,0,0,0,21.94,70.61Z"/></g><path class="cls-3" d="M22.36,82.08l.51-.13c1.27-.47,2.08-1.82,2.08-3.86a12.51,12.51,0,0,0-3-7.45A10.68,10.68,0,0,1,26.75,79c0,1.73-.69,2.88-1.77,3.27l-.43.11a6.83,6.83,0,0,1-1.5.17,6.69,6.69,0,0,1-1.86-.26A8.91,8.91,0,0,0,22.36,82.08Z"/><path class="cls-3" d="M1.09,72.14a3.14,3.14,0,0,0-.57.58A7.8,7.8,0,0,1,1.09,72.14Z"/><polygon class="cls-16" points="66.63 24.1 56.54 18.34 44.54 26.5 46.22 50.27 55.58 52.67 70.23 44.74 66.63 24.1"/><polygon class="cls-17" points="63.69 28.62 51.59 21.71 56.54 18.34 66.63 24.1 70.23 44.74 66.82 46.59 63.69 28.62"/><polygon class="cls-16" points="48.63 23.71 50.18 45.59 59.54 47.98 69.82 42.42 70.23 44.74 55.58 52.67 46.22 50.27 44.54 26.5 48.63 23.71"/><polygon class="cls-16" points="55.82 52.67 46.22 50.27 44.54 26.5 55.34 29.62 55.82 52.67"/><polygon class="cls-17" points="66.63 24.1 55.34 29.62 44.54 26.5 56.54 18.34 66.63 24.1"/><g class="cls-6"><path class="cls-18" d="M64,32.05c0-.68-.48-1-1.08-.62a2.38,2.38,0,0,0-1.07,1.86c0,.68.48,1,1.07.62A2.37,2.37,0,0,0,64,32.05Z"/></g><g class="cls-14"><path class="cls-18" d="M63.57,31.9c0-.55-.39-.77-.87-.5a1.94,1.94,0,0,0-.86,1.5c0,.54.39.77.86.49A1.89,1.89,0,0,0,63.57,31.9Z"/></g><g class="cls-6"><path class="cls-18" d="M60.63,33.13c0-.68-.49-1-1.08-.62a2.38,2.38,0,0,0-1.07,1.86c0,.68.48,1,1.07.62A2.39,2.39,0,0,0,60.63,33.13Z"/></g><g class="cls-14"><path class="cls-18" d="M60.2,33c0-.55-.38-.77-.86-.5a1.94,1.94,0,0,0-.86,1.5c0,.54.39.77.86.49A1.88,1.88,0,0,0,60.2,33Z"/></g><polygon class="cls-20" points="73.97 56.47 82.95 47.84 101.19 53.19 105.41 48.63 114.66 62.61 87.74 66.23 91.96 61.67 73.97 56.47"/><path class="cls-2" d="M44.21,137.2c-2-1.59-11.17-6.78-11.17-6.78l-7.18-7.58,10.37-4.39,7.19-.8s3.59-3.59,6-4.79,11.17-4.39,11.17-4.39h5.59L69,103.69l4-2,12,6,6,6.78,2.39,12.37-4.39,2.79-3.59-6.78-8.38-3.59-10.77,7.58-17.16,2V134l3.19,5.59-6.38,1.59Z"/></g></g></svg>