<svg xmlns="http://www.w3.org/2000/svg" xmlns:xlink="http://www.w3.org/1999/xlink" viewBox="0 0 216 144"><defs><style>.cls-1,.cls-4{fill:none;}.cls-2{isolation:isolate;}.cls-3{clip-path:url(#clip-path);}.cls-4{stroke:#00adee;stroke-width:0.13px;}.cls-17,.cls-18,.cls-19,.cls-4,.cls-6,.cls-8{stroke-miterlimit:10;}.cls-17,.cls-5{fill:#333;}.cls-5{opacity:0.15;}.cls-18,.cls-19,.cls-6{fill:#e6e6e5;}.cls-19,.cls-6,.cls-8{stroke:#e3493c;}.cls-17,.cls-18,.cls-19,.cls-6,.cls-8{stroke-width:0.25px;}.cls-10,.cls-15,.cls-24,.cls-25,.cls-7{fill:#231f20;}.cls-21,.cls-7{opacity:0.36;}.cls-29,.cls-8{fill:#fff;}.cls-17,.cls-18,.cls-19,.cls-24,.cls-8{opacity:0.5;}.cls-11,.cls-9{opacity:0.3;}.cls-14,.cls-20,.cls-23,.cls-9{mix-blend-mode:multiply;}.cls-12{opacity:0.4;}.cls-13,.cls-15,.cls-23,.cls-29{opacity:0.2;}.cls-14{opacity:0.53;}.cls-16{opacity:0.76;}.cls-17,.cls-18{stroke:#fff;}.cls-20{opacity:0.77;}.cls-22{opacity:0.38;}.cls-25{opacity:0.3;}.cls-26{opacity:0.57;}.cls-27{fill:#e3493c;}.cls-28{opacity:0.19;}</style><clipPath id="clip-path"><rect class="cls-1" x="-61.68" y="344.69" width="576" height="756"/></clipPath></defs><title>how-algo-trade</title><g class="cls-2"><g id="grid"><g class="cls-3"><line class="cls-4" x1="1.32" y1="1118.69" x2="1.32" y2="38.69"/><line class="cls-4" x1="10.32" y1="1118.69" x2="10.32" y2="38.69"/><line class="cls-4" x1="19.32" y1="1118.69" x2="19.32" y2="38.69"/><line class="cls-4" x1="28.32" y1="1118.69" x2="28.32" y2="38.69"/><line class="cls-4" x1="37.32" y1="1118.69" x2="37.32" y2="38.69"/><line class="cls-4" x1="46.32" y1="1118.69" x2="46.32" y2="38.69"/><line class="cls-4" x1="55.32" y1="1118.69" x2="55.32" y2="38.69"/><line class="cls-4" x1="64.32" y1="1118.69" x2="64.32" y2="38.69"/><line class="cls-4" x1="73.32" y1="1118.69" x2="73.32" y2="38.69"/><line class="cls-4" x1="82.32" y1="1118.69" x2="82.32" y2="38.69"/><line class="cls-4" x1="91.32" y1="1118.69" x2="91.32" y2="38.69"/><line class="cls-4" x1="100.32" y1="1118.69" x2="100.32" y2="38.69"/><line class="cls-4" x1="109.32" y1="1118.69" x2="109.32" y2="38.69"/><line class="cls-4" x1="118.32" y1="1118.69" x2="118.32" y2="38.69"/><line class="cls-4" x1="127.32" y1="1118.69" x2="127.32" y2="38.69"/><line class="cls-4" x1="136.32" y1="1118.69" x2="136.32" y2="38.69"/><line class="cls-4" x1="145.32" y1="1118.69" x2="145.32" y2="38.69"/><line class="cls-4" x1="154.32" y1="1118.69" x2="154.32" y2="38.69"/><line class="cls-4" x1="163.32" y1="1118.69" x2="163.32" y2="38.69"/><line class="cls-4" x1="172.32" y1="1118.69" x2="172.32" y2="38.69"/><line class="cls-4" x1="181.32" y1="1118.69" x2="181.32" y2="38.69"/><line class="cls-4" x1="190.32" y1="1118.69" x2="190.32" y2="38.69"/><line class="cls-4" x1="199.32" y1="1118.69" x2="199.32" y2="38.69"/><line class="cls-4" x1="208.32" y1="1118.69" x2="208.32" y2="38.69"/><line class="cls-4" x1="963.63" y1="679.63" x2="28.32" y2="139.63"/><line class="cls-4" x1="968.13" y1="671.84" x2="32.82" y2="131.84"/><line class="cls-4" x1="972.63" y1="664.04" x2="37.32" y2="124.04"/><line class="cls-4" x1="977.13" y1="656.25" x2="41.82" y2="116.25"/><line class="cls-4" x1="981.63" y1="648.45" x2="46.32" y2="108.45"/><line class="cls-4" x1="986.13" y1="640.66" x2="50.82" y2="100.66"/><line class="cls-4" x1="990.63" y1="632.87" x2="55.32" y2="92.87"/><line class="cls-4" x1="995.13" y1="625.07" x2="59.82" y2="85.07"/><line class="cls-4" x1="999.63" y1="617.28" x2="64.32" y2="77.28"/><line class="cls-4" x1="1004.13" y1="609.48" x2="68.82" y2="69.48"/><line class="cls-4" x1="1008.63" y1="601.69" x2="73.32" y2="61.69"/><line class="cls-4" x1="1013.13" y1="593.89" x2="77.82" y2="53.89"/><line class="cls-4" x1="1017.63" y1="586.1" x2="82.32" y2="46.1"/><line class="cls-4" x1="1022.13" y1="578.31" x2="86.82" y2="38.31"/><line class="cls-4" x1="1026.63" y1="570.51" x2="91.32" y2="30.51"/><line class="cls-4" x1="1031.13" y1="562.72" x2="95.82" y2="22.72"/><line class="cls-4" x1="1035.63" y1="554.92" x2="100.32" y2="14.92"/><line class="cls-4" x1="-385.04" y1="679.66" x2="550.27" y2="139.66"/><line class="cls-4" x1="-389.54" y1="671.87" x2="545.77" y2="131.87"/><line class="cls-4" x1="-394.04" y1="664.07" x2="541.27" y2="124.07"/><line class="cls-4" x1="-398.54" y1="656.28" x2="536.77" y2="116.28"/><line class="cls-4" x1="-403.04" y1="648.49" x2="532.27" y2="108.49"/><line class="cls-4" x1="-407.54" y1="640.69" x2="527.77" y2="100.69"/><line class="cls-4" x1="-412.04" y1="632.9" x2="523.27" y2="92.9"/><line class="cls-4" x1="-416.54" y1="625.1" x2="518.77" y2="85.1"/><line class="cls-4" x1="-421.04" y1="617.31" x2="514.27" y2="77.31"/><line class="cls-4" x1="-425.54" y1="609.51" x2="509.77" y2="69.51"/><line class="cls-4" x1="-430.04" y1="601.72" x2="505.27" y2="61.72"/><line class="cls-4" x1="-434.54" y1="593.93" x2="500.77" y2="53.93"/><line class="cls-4" x1="-439.04" y1="586.13" x2="496.27" y2="46.13"/><line class="cls-4" x1="-443.54" y1="578.34" x2="491.77" y2="38.34"/><line class="cls-4" x1="-448.04" y1="570.54" x2="487.27" y2="30.54"/><line class="cls-4" x1="-452.54" y1="562.75" x2="482.77" y2="22.75"/><line class="cls-4" x1="-457.04" y1="554.95" x2="478.27" y2="14.95"/><line class="cls-4" x1="-461.54" y1="547.16" x2="473.77" y2="7.16"/></g></g><g id="robots"><path class="cls-5" d="M21.65,115c-1-3.36,3.32-4.13,6.21-3.77s9.35-1.07,9.52-2.56,6.46-5.64,10.45-6,9.24.1,10.15-2.27,5-5.3,8.46-3.81,12.1,6.71,13.5,9,2,5.63,3.82,5.81S95.41,114.29,94,116s-11.15,1.43-14.36,0-7.34-3.9-9.37-3.28a57.86,57.86,0,0,0-8.91,3.11,69.1,69.1,0,0,1-16,4.11c-2,.16-1,2.8.6,4.61s10.67,3.34,7.24,6.75S45,134.9,42.09,132.48s-9.71-4.36-11.35-7.39S23,119.26,21.65,115Z"/><path class="cls-5" d="M212.16,112.44c1.57-3.27-8.66,2.27-11,2.14s-7.05-2.69-6.85-4.25-3.76-6.88-6.79-7.92-10.08,2.9-10.26.3,9.91-7.39,6.86-6.46-13.86,2.26-15.47,4.37-9.65,4.72-11.09,4.6-15.74,5.92-15,7.93,16.15-5.14,19-6.05,7.85,1.75,9.57,1.46c7.41-1.23,2.43,2.13,6.89,5.92s11.09,3.17,12.59,3.67S187,127.44,185.27,129s-7.54,4.84-12.38,11.56c-2.63,3.65,6.78-2.63,9.6-4.62s9.34-10,11.3-12.83S210.16,116.6,212.16,112.44Z"/><path class="cls-6" d="M17.73,29.57c0-4.83.59-7.26,1.62-8.09a.33.33,0,0,1,.18-.17l.29-.09.15,0c2.44-.57,3.45,1.89,7.79-1.54,4.6-3.64,4.08-4.49,7.08-6.32,4.8-2.93,7.38-1.26,9.55-2.63C47.25,8.9,48,4.18,49.64,4.13h0c2-.77,5.28,3,9.1,7.24,6.28,6.93,11.7,12.42,11.7,26.28,0,9.71-2.67,21-6.42,24.58-1.16,1.59-2,4.59-4.71,8.24-2.89,3.84-7.28,8.69-10.87,8.74s-14.8,2-17.43,1.16l-.19-.08a4.86,4.86,0,0,1-2-1.42C22.58,71.94,17.73,43.42,17.73,29.57Z"/><path class="cls-6" d="M59.33,10.07c6,3.46,10.91,12,10.91,18.9s-4.91,9.77-10.91,6.3-10.92-12-10.92-18.9S53.33,6.6,59.33,10.07Zm0,23.34c5.11,3,9.3.53,9.3-5.37s-4.19-13.15-9.3-16.11S50,11.4,50,17.3,54.21,30.45,59.33,33.41Z"/><ellipse class="cls-7" cx="47.59" cy="96.03" rx="1.71" ry="1.44"/><ellipse class="cls-7" cx="45.25" cy="97.39" rx="1.34" ry="1.13"/><path class="cls-6" d="M40.56,54.76c0-13.85-5.42-19.35-11.7-26.28S17.73,15.71,17.73,29.57s4.85,42.37,11.13,49.3S40.56,68.62,40.56,54.76Z"/><path class="cls-6" d="M60.74,40.29c-5.19-12.85-2.22-20,1-28.75s5.55-16,10.74-3.16,11.36,41.11,8.14,49.88S65.93,53.14,60.74,40.29Z"/><path class="cls-6" d="M61.74,11.54c1.79-4.85,3.29-9.22,5.16-10-.85,1.81-1.69,4.16-2.6,6.63-3.22,8.78-6.19,15.9-1,28.75,4.29,10.64,12.89,22,17.55,20.6a7.14,7.14,0,0,1-.24.74c-3.22,8.78-14.68-5.12-19.87-18S58.52,20.32,61.74,11.54Z"/><path class="cls-8" d="M69.74,9.09A46.19,46.19,0,0,0,66.19,2c1.67-1.56,3.59-.31,6.29,6.36,4.07,10.08,8.75,29.64,9,41.84C78.56,35.09,73.92,19,69.74,9.09Z"/><path class="cls-8" d="M65.36,12.08c-3-1.71-5.4-.31-5.4,3.12a12,12,0,0,0,5.4,9.34c3,1.72,5.4.32,5.4-3.11A12,12,0,0,0,65.36,12.08Zm0,10.73a8.64,8.64,0,0,1-3.9-6.75c0-2.47,1.76-3.49,3.9-2.25a8.64,8.64,0,0,1,3.9,6.75C69.26,23,67.51,24.05,65.36,22.81Z"/><path class="cls-8" d="M65.36,13.33C63,12,61,13.08,61,15.82a9.6,9.6,0,0,0,4.32,7.48c2.38,1.37,4.32.25,4.32-2.49A9.56,9.56,0,0,0,65.36,13.33Zm0,8.58a6.93,6.93,0,0,1-3.12-5.4c0-2,1.41-2.79,3.12-1.8a6.9,6.9,0,0,1,3.12,5.4C68.48,22.09,67.08,22.9,65.36,21.91Z"/><g class="cls-9"><path class="cls-10" d="M63.25,17.44c0-1.25.88-1.77,2-1.14a4.38,4.38,0,0,1,2,3.42c0,1.25-.88,1.77-2,1.14A4.38,4.38,0,0,1,63.25,17.44Z"/></g><g class="cls-11"><path class="cls-8" d="M63.58,17.64c0-1,.74-1.47,1.64-.95a3.63,3.63,0,0,1,1.63,2.83c0,1-.73,1.47-1.63.95A3.64,3.64,0,0,1,63.58,17.64Z"/></g><g class="cls-12"><path class="cls-6" d="M56.94,9.82a4.81,4.81,0,0,0-.79.21C56.41,10,56.67,9.88,56.94,9.82Z"/><path class="cls-6" d="M68.34,31.45a4.69,4.69,0,0,0,.84-.88C68.91,30.88,68.63,31.17,68.34,31.45Z"/><path class="cls-6" d="M61.68,31.17c2.66,1.54,5,1.52,6.66.28.29-.28.57-.57.84-.88a12.67,12.67,0,0,0-9.52-21,12.81,12.81,0,0,0-2.72.3c-.27.06-.53.13-.79.21-2,.72-3.23,2.81-3.23,6C52.92,21.56,56.86,28.39,61.68,31.17Z"/></g><path class="cls-6" d="M70.34,37.78c0-13.85-5.42-19.34-11.7-26.27S47.51-1.27,47.51,12.59,52.36,55,58.64,61.89,70.34,51.64,70.34,37.78Z"/><path class="cls-6" d="M34.42,43.93a12.31,12.31,0,0,0-5.54-9.61c-3.06-1.76-5.55-.32-5.55,3.2a12.28,12.28,0,0,0,5.55,9.61C31.93,48.89,34.42,47.45,34.42,43.93Z"/><path class="cls-8" d="M31.06,45.14a12.32,12.32,0,0,0-5.55-9.61C22.46,33.77,20,35.21,20,38.74a12.33,12.33,0,0,0,5.55,9.61C28.56,50.11,31.06,48.67,31.06,45.14Z"/><path class="cls-8" d="M63.13,27.36a12.3,12.3,0,0,0-5.55-9.61C54.53,16,52,17.43,52,21a12.29,12.29,0,0,0,5.55,9.61C60.63,32.32,63.13,30.88,63.13,27.36Z"/><path class="cls-6" d="M60.3,28.16a12.33,12.33,0,0,0-5.55-9.61c-3-1.76-5.55-.32-5.55,3.21a12.32,12.32,0,0,0,5.55,9.61C57.8,33.13,60.3,31.69,60.3,28.16Z"/><path class="cls-6" d="M7.92,56.73c-5.19-12.85-2.22-20,1-28.75s5.55-16,10.74-3.16S31,65.93,27.8,74.7,13.11,69.58,7.92,56.73Z"/><path class="cls-8" d="M8.92,28c2.82-7.66,4.95-14.15,8.9-7.11-.28.74-.56,1.51-.84,2.28C13,34,9.31,42.83,15.73,58.74A75,75,0,0,0,26.3,76.92C21.9,80.15,12.48,68,7.92,56.73,2.73,43.88,5.7,36.76,8.92,28Z"/><path class="cls-6" d="M22.39,70c3.32-9-2-35.94-7.44-52.1,1.31.25,2.82,2.26,4.71,6.94C24.85,37.66,31,65.93,27.8,74.7c-1.72,4.67-5.77,2.92-10-1.67C19.8,73.46,21.42,72.62,22.39,70Z"/><ellipse class="cls-7" cx="49.95" cy="90.85" rx="2.58" ry="2.17"/><path class="cls-6" d="M47.69,86.21c-2.48-1.95-4.22-1.75-6.34-1.61s-3.85.19-1.38,2.14,8.25,5.1,10.38,5S50.16,88.16,47.69,86.21Z"/><path class="cls-6" d="M41.35,84.6a8.74,8.74,0,0,1,4.39.43c-.44,0-.89,0-1.36.08-2.12.14-3.85.19-1.37,2.14a34.48,34.48,0,0,0,7.75,4.34,1.23,1.23,0,0,1-.41.1c-2.13.15-7.9-3-10.38-5S39.23,84.75,41.35,84.6Z"/><path class="cls-6" d="M29.42,88.47c-7.08-4.31-8.19-8.78-9.78-14.14s-3.06-9.65,4-5.35,20.11,15.65,21.7,21S36.49,92.77,29.42,88.47Z"/><path class="cls-6" d="M93.41,61.75c-8.17,1.35-11.94-1.31-16.63-4.34s-8.62-5.32-.45-6.67,25.46-1.27,30.15,1.76S101.58,60.4,93.41,61.75Z"/><path class="cls-8" d="M72.53,51.79a12.87,12.87,0,0,1,3.8-1c8.17-1.35,25.46-1.27,30.15,1.76,1.51,1,1.54,2.14.61,3.32C100.19,52.42,82.11,51.06,72.53,51.79Z"/><path class="cls-6" d="M74.72,51.05c.57,1.12,2.7,2.44,5,3.93,4.7,3,8.46,5.69,16.63,4.34a34.38,34.38,0,0,0,10.87-3.69c-1.78,2.54-8.15,5.18-13.83,6.12-8.17,1.35-11.94-1.31-16.63-4.34C72.43,54.61,68.76,52.43,74.72,51.05Z"/><path class="cls-8" d="M20.27,67.34c.19.69.41,1.4.62,2.12,2.05,7,3.51,12.75,12.68,18.34a47.39,47.39,0,0,0,10.9,4.84c-2.65,1.28-9.79-1-15-4.17-7.08-4.31-8.19-8.78-9.78-14.14C18.39,70.09,17.21,66.52,20.27,67.34Z"/><path class="cls-6" d="M40.59,88.05c-1.4-4.74-10-13.23-18-19.69.34.18.7.39,1.09.62,7.07,4.31,20.11,15.65,21.7,21,1.08,3.69-3.52,3.62-8.8,1.81C39.6,91.91,41.42,90.85,40.59,88.05Z"/><path class="cls-6" d="M42.64,95c-2.23-1.36-2.59-2.77-3.09-4.46s-1-3.05,1.27-1.69,6.36,4.94,6.86,6.63S44.88,96.33,42.64,95Z"/><path class="cls-6" d="M41.43,96.37a5.13,5.13,0,0,1-2.5-3.61c-.41-1.38-.78-2.48,1-1.37s5.15,4,5.55,5.37S43.24,97.48,41.43,96.37Z"/><ellipse class="cls-7" cx="114.96" cy="54.66" rx="1.71" ry="1.44"/><ellipse class="cls-7" cx="112.28" cy="60.7" rx="1.34" ry="1.13"/><ellipse class="cls-7" cx="106.14" cy="62.69" rx="2.58" ry="2.17"/><path class="cls-6" d="M103.87,58.05c-2.47-1.95-4.21-1.76-6.33-1.61s-3.85.19-1.38,2.14,8.25,5.1,10.37,5S106.35,60,103.87,58.05Z"/><path class="cls-6" d="M97.54,56.44l1.27-.08c-1.69.14-2.71.4-.56,2.09a32.5,32.5,0,0,0,9,4.75.88.88,0,0,1-.71.33c-2.12.15-7.89-3-10.37-5S95.41,56.59,97.54,56.44Z"/><path class="cls-6" d="M110.83,56.32c-2.62.14-3.71-.82-5.08-1.93s-2.53-2,.08-2.11,8,.46,9.42,1.57S113.44,56.17,110.83,56.32Z"/><path class="cls-6" d="M108.32,60.44A5.12,5.12,0,0,1,105,57.55c-.73-1.23-1.37-2.2.66-1.58s6,2.61,6.71,3.83S110.35,61.06,108.32,60.44Z"/><g class="cls-13"><path class="cls-6" d="M33.73,55.22a6,6,0,0,0,3.06-.79c2.19-1.27,3.4-3.9,3.4-7.4,0-7.08-5-15.72-11.11-19.26C26,26,23.16,25.76,21,27s-3.41,3.9-3.41,7.4c0,7.08,5,15.72,11.11,19.26A10.29,10.29,0,0,0,33.73,55.22ZM24,27a9.43,9.43,0,0,1,4.64,1.43C34.58,31.88,39.39,40.21,39.39,47c0,3.2-1.07,5.58-3,6.7s-4.53.85-7.3-.75c-5.91-3.41-10.71-11.74-10.71-18.56,0-3.2,1.06-5.58,3-6.7A5.32,5.32,0,0,1,24,27Z"/></g><path class="cls-6" d="M33,53.13a5.21,5.21,0,0,0,2.63-.68c1.9-1.09,2.94-3.35,2.94-6.36,0-6-4.26-13.43-9.5-16.45-2.61-1.5-5.08-1.73-7-.64s-2.94,3.35-2.94,6.36c0,6,4.27,13.43,9.5,16.45A8.79,8.79,0,0,0,33,53.13Zm-8.26-24a8,8,0,0,1,3.92,1.21c5,2.9,9.1,10,9.1,15.75,0,2.71-.9,4.72-2.53,5.66s-3.82.71-6.16-.64c-5-2.89-9.1-10-9.1-15.75,0-2.71.9-4.72,2.53-5.66A4.44,4.44,0,0,1,24.75,29.13Z"/><g class="cls-13"><path class="cls-6" d="M61.08,39.32a6,6,0,0,0,3.06-.79c2.2-1.27,3.41-3.9,3.41-7.4,0-7.08-5-15.72-11.12-19.26-3-1.75-5.91-2-8.11-.75s-3.41,3.9-3.41,7.4c0,7.08,5,15.72,11.12,19.26A10.28,10.28,0,0,0,61.08,39.32Zm-9.7-28.18A9.49,9.49,0,0,1,56,12.57C61.93,16,66.74,24.31,66.74,31.13c0,3.2-1.07,5.58-3,6.7s-4.54.85-7.31-.75c-5.91-3.41-10.71-11.74-10.71-18.56,0-3.2,1.07-5.58,3-6.69A5.22,5.22,0,0,1,51.38,11.14Z"/></g><g class="cls-13"><path class="cls-6" d="M60.36,37.23A5.27,5.27,0,0,0,63,36.55c1.89-1.09,2.93-3.35,2.93-6.36,0-6-4.26-13.43-9.5-16.45-2.6-1.5-5.08-1.73-7-.64s-2.93,3.35-2.93,6.36c0,6.05,4.26,13.43,9.5,16.45A8.73,8.73,0,0,0,60.36,37.23Zm-8.26-24A8,8,0,0,1,56,14.44c5,2.9,9.09,10,9.09,15.75,0,2.71-.9,4.72-2.53,5.66s-3.82.71-6.16-.64c-5-2.89-9.09-10-9.09-15.75,0-2.71.89-4.72,2.53-5.66A4.41,4.41,0,0,1,52.1,13.23Z"/></g><path class="cls-6" d="M21.6,31c6,3.47,10.91,12,10.91,18.91s-4.91,9.76-10.91,6.3-10.91-12-10.91-18.91S15.6,27.49,21.6,31Zm0,23.34c5.11,3,9.3.54,9.3-5.37s-4.19-13.15-9.3-16.1-9.3-.54-9.3,5.37S16.49,51.34,21.6,54.29Z"/><g class="cls-11"><path class="cls-8" d="M17.76,71.27c0-.78.55-1.09,1.22-.71a2.72,2.72,0,0,1,1.22,2.11c0,.78-.55,1.09-1.22.71A2.72,2.72,0,0,1,17.76,71.27Z"/></g><g class="cls-14"><path class="cls-10" d="M18,71.39c0-.64.45-.9,1-.58a2.24,2.24,0,0,1,1,1.74c0,.64-.46.9-1,.58A2.21,2.21,0,0,1,18,71.39Z"/></g><path class="cls-15" d="M22,65.21a10.63,10.63,0,0,1,4.79,8.29c0,3-2.16,4.29-4.79,2.77A10.66,10.66,0,0,1,17.25,68C17.25,64.93,19.41,63.69,22,65.21Zm0,10.1c2.18,1.26,4,.23,4-2.28a8.8,8.8,0,0,0-4-6.87c-2.18-1.26-4-.23-4,2.29A8.79,8.79,0,0,0,22,75.31Z"/><g class="cls-12"><path class="cls-6" d="M25.3,77.25a2.42,2.42,0,0,0,.48-.13Z"/><path class="cls-6" d="M18.27,63.91a2.67,2.67,0,0,0-.52.54A6.63,6.63,0,0,1,18.27,63.91Z"/><path class="cls-6" d="M22.37,64.08c-1.64-.94-3.11-.94-4.1-.17a6.63,6.63,0,0,0-.52.54,7.82,7.82,0,0,0,5.87,13,8.47,8.47,0,0,0,1.68-.18l.48-.13c1.22-.45,2-1.74,2-3.68A12,12,0,0,0,22.37,64.08Z"/></g><path class="cls-6" d="M22.84,77q.29-.06.57-.15c1.43-.52,2.35-2,2.35-4.32a14,14,0,0,0-3.33-8.37,12,12,0,0,1,5.35,9.32c0,1.94-.78,3.23-2,3.68l-.48.13a8.47,8.47,0,0,1-1.68.18,7.93,7.93,0,0,1-2.09-.29A9.6,9.6,0,0,0,22.84,77Z"/><g class="cls-12"><path class="cls-6" d="M75.13,48.23a2.67,2.67,0,0,0-.5,0A4,4,0,0,1,75.13,48.23Z"/><path class="cls-6" d="M79.81,62.55a3.26,3.26,0,0,0,.61-.44C80.22,62.26,80,62.41,79.81,62.55Z"/><path class="cls-6" d="M75.8,61.69c1.45,1.21,2.91,1.45,4,.86.21-.14.41-.29.61-.44a7.82,7.82,0,0,0-3.61-13.79,8,8,0,0,0-1.68-.09,4,4,0,0,0-.5,0c-1.28.23-2.26,1.37-2.59,3.29A12,12,0,0,0,75.8,61.69Z"/></g><g class="cls-11"><path class="cls-8" d="M77.76,53.26c0-.77.54-1.09,1.21-.7a2.7,2.7,0,0,1,1.22,2.11c0,.77-.55,1.09-1.22.7A2.69,2.69,0,0,1,77.76,53.26Z"/></g><g class="cls-14"><path class="cls-10" d="M78,53.38c0-.64.45-.9,1-.58a2.23,2.23,0,0,1,1,1.75c0,.64-.45.9-1,.58A2.25,2.25,0,0,1,78,53.38Z"/></g><path class="cls-15" d="M78.09,48.92a10.6,10.6,0,0,1,4.79,8.29c0,3-2.15,4.29-4.79,2.77a10.63,10.63,0,0,1-4.79-8.3C73.3,48.64,75.46,47.4,78.09,48.92Zm0,10.11c2.18,1.26,4,.23,4-2.29a8.81,8.81,0,0,0-4-6.87c-2.18-1.26-4-.23-4,2.29A8.8,8.8,0,0,0,78.09,59Z"/><g class="cls-12"><path class="cls-6" d="M18.61,55.36a4.06,4.06,0,0,0,.78-.2A7.44,7.44,0,0,1,18.61,55.36Z"/><path class="cls-6" d="M7.21,33.74a4.39,4.39,0,0,0-.85.87C6.63,34.31,6.91,34,7.21,33.74Z"/><path class="cls-6" d="M13.86,34c-2.66-1.54-5-1.53-6.65-.28-.3.28-.58.57-.85.87a12.67,12.67,0,0,0,9.52,21.06,12.28,12.28,0,0,0,2.73-.31,7.44,7.44,0,0,0,.78-.2c2-.72,3.24-2.82,3.24-6C22.63,43.63,18.68,36.8,13.86,34Z"/></g><path class="cls-8" d="M8.5,40.31c-3-1.71-5.4-.31-5.4,3.12a12,12,0,0,0,5.4,9.34c3,1.72,5.4.32,5.4-3.11A12,12,0,0,0,8.5,40.31ZM8.5,51a8.64,8.64,0,0,1-3.9-6.75c0-2.47,1.76-3.49,3.9-2.25a8.67,8.67,0,0,1,3.9,6.75C12.4,51.27,10.64,52.28,8.5,51Z"/><path class="cls-8" d="M8.5,41.56c-2.38-1.38-4.32-.25-4.32,2.49A9.57,9.57,0,0,0,8.5,51.53c2.37,1.37,4.32.25,4.32-2.5A9.58,9.58,0,0,0,8.5,41.56Zm0,8.58a6.9,6.9,0,0,1-3.12-5.4c0-2,1.4-2.79,3.12-1.8a6.93,6.93,0,0,1,3.12,5.4C11.62,50.32,10.21,51.13,8.5,50.14Z"/><g class="cls-9"><path class="cls-10" d="M6.38,45.67c0-1.26.89-1.77,2-1.14a4.39,4.39,0,0,1,2,3.42c0,1.25-.89,1.77-2,1.14A4.39,4.39,0,0,1,6.38,45.67Z"/></g><g class="cls-11"><path class="cls-8" d="M6.72,45.86c0-1,.74-1.46,1.64-.94A3.62,3.62,0,0,1,10,47.75c0,1-.73,1.47-1.63,1A3.64,3.64,0,0,1,6.72,45.86Z"/></g><g class="cls-16"><polygon class="cls-17" points="105.53 41.87 96.51 43.93 93.79 52.78 100.09 59.56 109.11 57.49 111.83 48.65 105.53 41.87"/><polygon class="cls-17" points="105.53 41.87 102.81 50.71 93.79 52.78 96.51 43.93 105.53 41.87"/><polygon class="cls-17" points="102.81 50.71 109.11 57.49 100.09 59.56 93.79 52.78 102.81 50.71"/><path class="cls-17" d="M98.3,51.74A8.93,8.93,0,0,1,106,54.1c1.73,1.87,1.12,3.86-1.36,4.43a8.93,8.93,0,0,1-7.66-2.36C95.2,54.3,95.82,52.31,98.3,51.74Z"/><polygon class="cls-17" points="105.53 41.87 111.83 48.65 109.11 57.49 102.81 50.71 105.53 41.87"/><circle class="cls-17" cx="102.81" cy="50.71" r="8.02"/><path class="cls-17" d="M101,42.9c2.48-.57,3.9,1,3.15,3.39a8.87,8.87,0,0,1-5.87,5.45c-2.48.57-3.9-1-3.15-3.39A8.9,8.9,0,0,1,101,42.9Z"/><path class="cls-18" d="M104.17,46.29c.75-2.43,2.78-2.9,4.51-1a8.89,8.89,0,0,1,1.79,7.81c-.75,2.43-2.78,2.9-4.51,1A8.89,8.89,0,0,1,104.17,46.29Z"/><path class="cls-18" d="M105.09,47.28c.53-1.72,2-2.05,3.19-.73a6.28,6.28,0,0,1,1.27,5.53c-.53,1.72-2,2.05-3.19.73A6.28,6.28,0,0,1,105.09,47.28Z"/><path class="cls-6" d="M105.74,48a1.23,1.23,0,0,1,2.26-.52,4.48,4.48,0,0,1,.9,3.92,1.23,1.23,0,0,1-2.26.52A4.48,4.48,0,0,1,105.74,48Z"/></g><path class="cls-6" d="M60.92,46.09c0-17.58-4.66-27.55-14.7-33.74a7.66,7.66,0,0,0-3.77-1.07,9,9,0,0,1,7,.62c10,6,14.71,15.51,14.71,32.4,0,13.15-4.14,28.76-9.71,31C58.31,69.46,60.92,57,60.92,46.09Z"/><path class="cls-6" d="M46.12,52.42c0-16.71-4.43-26.18-14-32.06a7.39,7.39,0,0,0-3.59-1,8.53,8.53,0,0,1,6.66.6c9.53,5.64,14,14.73,14,30.77C49.2,63.21,45.26,78,40,80.19,43.64,74.62,46.12,62.75,46.12,52.42Z"/><path class="cls-19" d="M63,32.45c0-8.45-3-13.23-9.38-16.21-3.23-1.5-8.53.41-8.86,3.12-1,8.42,3.82,23.57,8.85,27.79S63,40.9,63,32.45Z"/><path class="cls-8" d="M61.89,37.34c0-10.68-3.76-16.73-11.85-20.49A7.27,7.27,0,0,0,48,16.27a7.63,7.63,0,0,1,5.64,0C60,19.22,63,24,63,32.45a29.58,29.58,0,0,1-1.26,8.32C61.82,39.61,61.89,38.46,61.89,37.34Z"/><path class="cls-19" d="M44.73,19.36a3,3,0,0,1,1-1.76c.51,9.54,5.15,22.57,10,26.61a3.51,3.51,0,0,0,4.35.56c-1.71,3-4,4.44-6.46,2.38C48.55,42.93,43.73,27.78,44.73,19.36Z"/><path class="cls-7" d="M62,26.51l.27-.17A24.4,24.4,0,0,1,63,31.52l-.39.24a19.47,19.47,0,0,1-11.8,2.48c-.54-1.79-2.7-2.35-3-4.14C46.36,27.37,57.52,29.11,62,26.51Z"/><g class="cls-9"><path class="cls-10" d="M62.14,29.32c0-.77-.54-1.08-1.2-.7a2.65,2.65,0,0,0-1.21,2.09c0,.76.54,1.08,1.21.69A2.67,2.67,0,0,0,62.14,29.32Z"/></g><g class="cls-20"><path class="cls-10" d="M61.67,29.15c0-.62-.44-.87-1-.56a2.16,2.16,0,0,0-1,1.67c0,.62.44.87,1,.56A2.14,2.14,0,0,0,61.67,29.15Z"/></g><g class="cls-9"><path class="cls-10" d="M58.37,30.53c0-.77-.54-1.08-1.21-.7A2.68,2.68,0,0,0,56,31.92c0,.77.54,1.08,1.2.7A2.68,2.68,0,0,0,58.37,30.53Z"/></g><g class="cls-20"><path class="cls-10" d="M57.9,30.36c0-.62-.44-.87-1-.56a2.16,2.16,0,0,0-1,1.68c0,.61.44.86,1,.56A2.17,2.17,0,0,0,57.9,30.36Z"/></g><ellipse class="cls-7" cx="145.93" cy="53.48" rx="4.61" ry="4.24" transform="translate(60.29 183.18) rotate(-76.69)"/><path class="cls-7" d="M149.94,54.85a4.5,4.5,0,0,1-1.54,1.36,4,4,0,0,1-5.64-2.06,4.84,4.84,0,0,1-.12-3.41,4.91,4.91,0,0,0-.59,4.79,4,4,0,0,0,5.64,2.06A4.7,4.7,0,0,0,149.94,54.85Z"/><path class="cls-6" d="M172.85,45.94l.78-4s2.55-1.53,2-2.91-1.46-.93-1.46-.93a10,10,0,0,1-6.88,1.37c-1.77-.39-9,3.58-10.85,4.58s-2.55,3.59-2.55,3.59l-7.4,3.9s-2,1.45-1.32,3.14,3.41.09,3.41.09l3.78,1.77ZM151.9,54.33c0-.87-.05-2.35,1.1-2.7s6-2.65,6.8-3a7.33,7.33,0,0,1,1.86-.35l9.71-4.73-.28,1-8.94,4.58a15.36,15.36,0,0,1-4.39,3.31C155.2,53.73,151.92,55.2,151.9,54.33Z"/><g class="cls-13"><path class="cls-8" d="M152.53,56.45l8.12-4.2a14.19,14.19,0,0,0,1.14-1.12l9-4.58.27-1-9.71,4.73-.27,0a14.05,14.05,0,0,1-3.27,2.22c-2.56,1.23-5.84,2.7-5.86,1.83v-.17a3.91,3.91,0,0,0-.35,2l.67.32Z"/><path class="cls-8" d="M146.1,53.5l7.4-3.89s.66-2.61,2.55-3.6,9.08-5,10.84-4.58a9.92,9.92,0,0,0,6.88-1.37s.74-.37,1.32.67a1.65,1.65,0,0,0,.5-1.68c-.59-1.39-1.46-.93-1.46-.93a10,10,0,0,1-6.88,1.37c-1.77-.39-9,3.58-10.85,4.58s-2.55,3.59-2.55,3.59l-7.4,3.9s-1.9,1.37-1.36,3A5,5,0,0,1,146.1,53.5Z"/></g><path class="cls-6" d="M171.3,42.51l-9.64,4.71a6.93,6.93,0,0,0-1.86.35c-.81.3-5.6,2.58-6.75,2.93S152,52.19,152,53.07a1.58,1.58,0,0,1,1-1.44c1.15-.36,6-2.65,6.8-3a7.33,7.33,0,0,1,1.86-.35l.48-.23h0L171,43.53Z"/><path class="cls-6" d="M172.85,45.94l.78-4s2.55-1.53,2-2.91a1.65,1.65,0,0,0-.1-.19,5.17,5.17,0,0,1-1.94,2l-.78,4L152.38,55.4l-3.76-1.76s-2.67,1.59-3.39-.08a2.7,2.7,0,0,1-.09-.36,1.94,1.94,0,0,0,0,1.5c.72,1.69,3.41.09,3.41.09l3.78,1.77Z"/><path class="cls-7" d="M144,51.77a3.35,3.35,0,0,1,3.22.22,1.1,1.1,0,0,1-.19,2,3.33,3.33,0,0,1-3.21-.22A1.1,1.1,0,0,1,144,51.77Z"/><path class="cls-8" d="M144.05,52.89a3.32,3.32,0,0,1,3.22.22,1.09,1.09,0,0,1-.18,2,3.32,3.32,0,0,1-3.22-.21A1.1,1.1,0,0,1,144.05,52.89Z"/><path class="cls-6" d="M198.13,27.53l9-3.15-.53-.84S187.25,28.14,182.9,30c-3.68,1.58-5.83.54-8.54,2.37s-3.74,4.77-4.45,6.8a3.2,3.2,0,0,0,.43,2.71,21.39,21.39,0,0,0,3.18,2.9,21.43,21.43,0,0,0,2.68,0l2-2.51,1.57-3.68h5l-.53-.84-4.76-.61-.58-2.27,14.17-4,2-.54-.53-.83-12,3.31,1.79-1.76Z"/><path class="cls-8" d="M198.76,26.08l9-3.15-.53-.84s-19.33,4.6-23.68,6.46c-3.68,1.58-5.83.54-8.54,2.37s-3.74,4.77-4.45,6.8a3.2,3.2,0,0,0,.44,2.7,21,21,0,0,0,3.17,2.91,21.32,21.32,0,0,0,2.68,0l2-2.5,1.57-3.68h5l-.53-.84-4.76-.61-.58-2.27,14.17-4,2-.54-.53-.83-12,3.31,1.79-1.77Z"/><ellipse class="cls-7" cx="177.17" cy="41.16" rx="5.8" ry="5.34" transform="translate(96.33 204.09) rotate(-76.69)"/><path class="cls-6" d="M174.94,44.25a6.44,6.44,0,0,1,5.33-2.53c1.81.2,2.37,1.66,1.25,3.26a6.44,6.44,0,0,1-5.33,2.53C174.38,47.31,173.82,45.85,174.94,44.25Z"/><path class="cls-8" d="M174.54,43.05a6.43,6.43,0,0,1,5.33-2.54c1.81.2,2.37,1.67,1.24,3.27a6.42,6.42,0,0,1-5.32,2.53C174,46.11,173.42,44.64,174.54,43.05Z"/><g class="cls-21"><path class="cls-10" d="M172.1,50.4a3.12,3.12,0,0,1-1-1.36,4.8,4.8,0,0,1,1-4.46c2.26-3.2,7.05-5.48,10.68-5.08a4,4,0,0,1,3.55,2.31,4.85,4.85,0,0,1-1,4.47c-2.26,3.2-7.05,5.48-10.68,5.07A4.88,4.88,0,0,1,172.1,50.4ZM185,40.82a4.54,4.54,0,0,0-2.35-.87c-3.5-.38-8.11,1.81-10.29,4.9a4.39,4.39,0,0,0-.91,4,3.61,3.61,0,0,0,3.23,2c3.5.38,8.11-1.81,10.29-4.9a4.36,4.36,0,0,0,.9-4A2.72,2.72,0,0,0,185,40.82Z"/></g><g class="cls-21"><path class="cls-10" d="M173.06,49.69a2.77,2.77,0,0,1-.86-1.17,4.16,4.16,0,0,1,.83-3.83,11,11,0,0,1,9.12-4.34,3.42,3.42,0,0,1,3.06,2,4.16,4.16,0,0,1-.83,3.83,11,11,0,0,1-9.13,4.34A4.2,4.2,0,0,1,173.06,49.69Zm11-8.16a3.84,3.84,0,0,0-2-.73A10.49,10.49,0,0,0,173.36,45a3.71,3.71,0,0,0-.77,3.39,3,3,0,0,0,2.72,1.72,10.51,10.51,0,0,0,8.74-4.15,3.74,3.74,0,0,0,.77-3.39A2.37,2.37,0,0,0,184.09,41.53Z"/></g><path class="cls-7" d="M180.88,36.49c-3.56-.39-8.27,1.85-10.48,5s-1.11,6,2.45,6.41,8.27-1.85,10.48-5S184.44,36.88,180.88,36.49Zm-7.44,10.56c-3-.34-4-2.8-2.09-5.47a10.77,10.77,0,0,1,8.94-4.24c3,.33,4,2.79,2.08,5.46A10.78,10.78,0,0,1,173.44,47.05Z"/><path class="cls-6" d="M140.18,56.14l-.34-.34a2.58,2.58,0,0,0,.45-.64,1.07,1.07,0,0,0,.05-1,1.52,1.52,0,0,0-.58-.18l-.34-.34a4.21,4.21,0,0,1,2.23-1,1.5,1.5,0,0,1,1.23.28h0l.32.34,0,.05,0,0h0a.91.91,0,0,1,0,1,3.93,3.93,0,0,1-2.83,1.83Z"/><path class="cls-15" d="M140.63,55.5a1,1,0,0,0-.87-1.5A4.36,4.36,0,0,1,142,53c1.14-.13,1.73.47,1.32,1.35a3.93,3.93,0,0,1-2.83,1.83h-.3A2.41,2.41,0,0,0,140.63,55.5Z"/><g class="cls-22"><path class="cls-8" d="M140.63,55.5a2.41,2.41,0,0,1-.45.64l-.34-.34a2.58,2.58,0,0,0,.45-.64,1.07,1.07,0,0,0,.05-1A.93.93,0,0,1,140.63,55.5Z"/></g><path class="cls-6" d="M141,56.72h0l-.61-.29a1.62,1.62,0,0,1-.55-.46,3.74,3.74,0,0,1-.62-3.18,1.29,1.29,0,0,1,.4-.6l.34-.31a.88.88,0,0,1,1-.19h0l.67.26h0a1.69,1.69,0,0,1,.59.48,3.72,3.72,0,0,1,.62,3.17,1.19,1.19,0,0,1-.45.64h0l-.52.4h0A.86.86,0,0,1,141,56.72Zm.6-1.54a2.39,2.39,0,0,0-.4-2,1,1,0,0,0-.35-.29.91.91,0,0,0-.21.35,2.39,2.39,0,0,0,.4,2,1.1,1.1,0,0,0,.34.29A.89.89,0,0,0,141.55,55.18Z"/><g class="cls-23"><path class="cls-10" d="M142.33,55.92a4.26,4.26,0,0,0-.72-3.67,1.77,1.77,0,0,0-.7-.56h0l.67.26h0a1.69,1.69,0,0,1,.59.48,3.72,3.72,0,0,1,.62,3.17,1.19,1.19,0,0,1-.45.64h0l-.52.4h0A1.38,1.38,0,0,0,142.33,55.92Z"/></g><path class="cls-8" d="M139.78,56a3.74,3.74,0,0,1-.62-3.18c.33-.93,1.13-1,1.8-.21a3.74,3.74,0,0,1,.62,3.18C141.25,56.69,140.45,56.79,139.78,56Zm1.77-.78a2.37,2.37,0,0,0-.4-2c-.43-.53-1-.47-1.16.13a2.38,2.38,0,0,0,.4,2C140.82,55.85,141.34,55.79,141.55,55.19Z"/><path class="cls-6" d="M131.88,54l-1.95-.37-.14.4A25,25,0,0,0,134,55.14c1.51.19,1.05.6,2.19.55s1.29.35,1.66-.11c0,0-1.14.11-1.45-.41s.71,0,.48-.25c0-.06-.25-.46-.25-.46l-.41-.33-.43.32-4.65-1.29-.56.05v.37l3.69.81-.78.2Z"/><ellipse class="cls-7" cx="138.09" cy="54.63" rx="2.64" ry="2.87" transform="translate(-1.27 105.93) rotate(-41.79)"/><path class="cls-7" d="M140.53,53.59a3.07,3.07,0,0,0-2-1.22,2.49,2.49,0,0,0-2.86,2.4,2.77,2.77,0,0,0,.3,1.39,2.94,2.94,0,0,1-.6-1.88,2.5,2.5,0,0,1,2.86-2.4A3,3,0,0,1,140.53,53.59Z"/><path class="cls-6" d="M133,51l-2-.7-.07-.6a20,20,0,0,1,4.32,1.15c1.53.66,1.15-.13,2.27.62s1.34.33,1.62,1.15c0,0-1.1-.84-1.5-.36s.7.43.42.62a3.92,3.92,0,0,0-.32.44l-.47.17-.36-.67-4.84-1.17-.54-.4.08-.47,3.79,1.2-.73-.73Z"/><g class="cls-21"><path class="cls-24" d="M131.32,54.16,135,55l-.78.19-1.6-.55-1.94-.38,0,.1-.87-.28.14-.4,1.38.27Z"/><path class="cls-24" d="M137.14,55.76h0c-.08-.13,0-.17.05-.19l.36,0h.27C137.6,55.85,137.46,55.82,137.14,55.76Z"/><path class="cls-24" d="M136.59,55a.52.52,0,0,0-.22,0l-2.14-.59h0l-.2,0-2.18-.6-.41,0-.9-.2v-.37l.56-.05,4.65,1.29.43-.32.41.33.19.37Z"/></g><g class="cls-21"><polygon class="cls-24" points="137.59 53.37 137.29 53.48 137.18 53.27 137.59 53.37"/><path class="cls-24" d="M138.3,52.05c-1.12-.76-.73,0-2.27-.63a19.6,19.6,0,0,0-4.32-1.14l0,.26-.72-.25-.07-.6a20,20,0,0,1,4.32,1.15c1.53.66,1.15-.13,2.27.62s1.3.4,1.56,1A4.39,4.39,0,0,1,138.3,52.05Z"/><polygon class="cls-24" points="131.78 50.82 131.78 50.87 133.77 51.57 134.53 51.69 135.42 51.97 135.25 51.79 135.45 51.82 136.19 52.55 132.39 51.35 132.33 51.69 132.09 51.64 131.55 51.24 131.63 50.77 131.78 50.82"/></g><path class="cls-6" d="M127.59,56.05l-3.87.1,1.65.49s6.71.55,8.6.37c1.6-.15,1.1.5,2.31.12s1.57.7,2,0a2.82,2.82,0,0,0-.34-1c-.25-.48-.13-.73-.36-1-.05-.07-.53-.1-.53-.1l-.68.05-.45.53-6-.23-.86,0,.17.39,5.13.23-.84.47Z"/><path class="cls-8" d="M124.67,56.18s6.71.55,8.6.37c1.59-.16,1.09.5,2.3.12s1.58.69,2,0a2.82,2.82,0,0,0-.34-1A2.35,2.35,0,0,1,137,55h0s.48,0,.53.1c.23.27.11.52.36,1a2.82,2.82,0,0,1,.34,1c-.41.71-.77-.36-2,0s-.71-.27-2.31-.12c-1.89.18-8.6-.37-8.6-.37l-1.65-.49.77,0Z"/><polygon class="cls-8" points="129.18 55.73 129.17 55.73 129 55.34 129.86 55.39 133.53 55.53 132.88 55.9 129.18 55.73"/><path class="cls-6" d="M199.05,51c.25-.91.11-1.44-.31-1.73l-.08,0-.12-.05-.07,0c-1.07-.41-1.66-.07-3.45-1.26s-1.61-1.35-2.87-2.07c-2-1.15-3.27-1.15-4.18-1.68-1.21-.7-1.29-1.68-2-1.89h0c-.86-.39-2.55-.08-4.49.24-3.2.54-5.94.9-6.65,3.52a5.41,5.41,0,0,0,1.63,5.44,20,20,0,0,0,1.7,2.15,12.16,12.16,0,0,0,4.47,3c1.62.45,6.59,2.2,7.82,2.38h.09a3.24,3.24,0,0,0,1,0C194.66,58.36,198.33,53.57,199.05,51Z"/><path class="cls-19" d="M185,64.3c-10.56-1.24-15.65.75-17.44,6.09-.9,2.7,6.29,9.68,9.77,10.37C188.19,82.9,201,82,204.78,78.1S195.6,65.54,185,64.3Z"/><path class="cls-8" d="M179.6,77.5c-3.66-.37-4.89-3.12-2.73-6.1a12.83,12.83,0,0,1,10.57-4.73c3.66.37,4.89,3.12,2.73,6.1A12.83,12.83,0,0,1,179.6,77.5Z"/><path class="cls-7" d="M181,75.57c-2.36-.24-3.15-2-1.76-3.92A8.26,8.26,0,0,1,186,68.6c2.36.24,3.15,2,1.76,3.93A8.24,8.24,0,0,1,181,75.57Z"/><path class="cls-7" d="M182,74.41c-1.52.15-2.25-.86-1.62-2.25a5.33,5.33,0,0,1,3.9-2.82c1.52-.15,2.25.86,1.62,2.26A5.36,5.36,0,0,1,182,74.41Z"/><path class="cls-7" d="M181.37,73c-1,.24-1.62-.4-1.31-1.42a3.72,3.72,0,0,1,2.46-2.27c1-.24,1.63.4,1.31,1.41A3.71,3.71,0,0,1,181.37,73Z"/><path class="cls-6" d="M183.43,68.86l-.49.1a2.92,2.92,0,0,1,.05.87,1.15,1.15,0,0,1-.49.93,1.57,1.57,0,0,1-.6-.2l-.49.1A5,5,0,0,0,182.79,73a1.58,1.58,0,0,0,1.24.51h0l.47-.11.06,0h0c.31-.09.52-.4.57-.89a4.66,4.66,0,0,0-1.48-3.45C183.6,69,183.51,68.92,183.43,68.86Z"/><path class="cls-15" d="M183.47,69.73c-.1,1-.76,1.28-1.57.83a5,5,0,0,0,1.38,2.36c.93.83,1.78.65,1.89-.41a4.66,4.66,0,0,0-1.48-3.45c-.09-.08-.18-.14-.26-.2A3.25,3.25,0,0,1,183.47,69.73Z"/><g class="cls-22"><path class="cls-8" d="M183.47,69.73a3.25,3.25,0,0,0,0-.87l-.49.1a2.92,2.92,0,0,1,.05.87,1.15,1.15,0,0,1-.49.93C183,70.8,183.4,70.44,183.47,69.73Z"/></g><path class="cls-6" d="M184.42,68.8h0l-.7-.11a1.61,1.61,0,0,0-.73.08,3.75,3.75,0,0,0-2.28,2.53,1.38,1.38,0,0,0,0,.79l.13.5a1,1,0,0,0,.78.82h0l.73.17h0a1.63,1.63,0,0,0,.77-.07A3.79,3.79,0,0,0,185.45,71a1.55,1.55,0,0,0,0-.87h0l-.24-.69h0A1,1,0,0,0,184.42,68.8Zm-.31,1.79a2.45,2.45,0,0,1-1.47,1.63,1,1,0,0,1-.46,0,1,1,0,0,1,0-.46,2.42,2.42,0,0,1,1.47-1.63,1.05,1.05,0,0,1,.45-.05A.89.89,0,0,1,184.11,70.59Z"/><g class="cls-23"><path class="cls-10" d="M185.2,70.4a4.36,4.36,0,0,1-2.63,2.93,1.81,1.81,0,0,1-.93.08h0l.73.17h0a1.63,1.63,0,0,0,.77-.07A3.79,3.79,0,0,0,185.45,71a1.55,1.55,0,0,0,0-.87h0l-.24-.69h0A1.59,1.59,0,0,1,185.2,70.4Z"/></g><path class="cls-8" d="M183,68.77a3.75,3.75,0,0,0-2.28,2.53c-.23,1.06.43,1.65,1.46,1.31a3.77,3.77,0,0,0,2.28-2.53C184.67,69,184,68.43,183,68.77Zm1.12,1.82a2.42,2.42,0,0,1-1.47,1.63c-.66.22-1.09-.16-.94-.84a2.42,2.42,0,0,1,1.47-1.64C183.83,69.53,184.26,69.91,184.11,70.59Z"/><path class="cls-6" d="M182.61,65.76l-.49-.08a3.24,3.24,0,0,1-.27.83,1.16,1.16,0,0,1-.78.69,1.49,1.49,0,0,1-.5-.4l-.49-.08a5,5,0,0,0,.45,2.69,1.54,1.54,0,0,0,1,.92h0l.48.07h.09c.33,0,.63-.19.86-.63a4.65,4.65,0,0,0-.15-3.75A1.89,1.89,0,0,0,182.61,65.76Z"/><path class="cls-15" d="M182.34,66.59a1,1,0,0,1-1.77.21,5,5,0,0,0,.45,2.69c.56,1.12,1.43,1.25,1.91.3a4.65,4.65,0,0,0-.15-3.75,1.89,1.89,0,0,0-.17-.28A3.37,3.37,0,0,1,182.34,66.59Z"/><g class="cls-22"><path class="cls-8" d="M182.34,66.59a3.37,3.37,0,0,0,.27-.83l-.49-.08a3.24,3.24,0,0,1-.27.83,1.16,1.16,0,0,1-.78.69C181.53,67.42,182,67.23,182.34,66.59Z"/></g><path class="cls-6" d="M183.56,66.06h0l-.61-.35a1.71,1.71,0,0,0-.71-.19,3.78,3.78,0,0,0-3,1.55,1.46,1.46,0,0,0-.27.75l-.06.51a1,1,0,0,0,.44,1v0l.63.42h0a1.47,1.47,0,0,0,.74.21,3.77,3.77,0,0,0,3-1.54,1.55,1.55,0,0,0,.27-.82h0l0-.74h0A1,1,0,0,0,183.56,66.06Zm-.93,1.56a2.47,2.47,0,0,1-2,1,1.14,1.14,0,0,1-.45-.12,1.07,1.07,0,0,1,.17-.43,2.47,2.47,0,0,1,2-1,1,1,0,0,1,.44.12A1,1,0,0,1,182.63,67.62Z"/><g class="cls-23"><path class="cls-10" d="M183.71,67.83a4.35,4.35,0,0,1-3.51,1.79,1.77,1.77,0,0,1-.89-.26v0l.63.42h0a1.47,1.47,0,0,0,.74.21,3.77,3.77,0,0,0,3-1.54,1.55,1.55,0,0,0,.27-.82h0l0-.74h0A1.68,1.68,0,0,1,183.71,67.83Z"/></g><path class="cls-8" d="M182.23,65.51a3.78,3.78,0,0,0-3,1.55c-.59.91-.19,1.69.89,1.75a3.76,3.76,0,0,0,3-1.54C183.71,66.36,183.31,65.57,182.23,65.51Zm.4,2.11a2.47,2.47,0,0,1-2,1c-.7,0-1-.55-.58-1.13a2.42,2.42,0,0,1,2-1C182.75,66.53,183,67,182.63,67.62Z"/><path class="cls-6" d="M182.52,62.48l-.46-.19a3.39,3.39,0,0,1-.45.75,1.17,1.17,0,0,1-.93.48,1.45,1.45,0,0,1-.39-.5l-.46-.19a5.06,5.06,0,0,0-.2,2.72,1.52,1.52,0,0,0,.73,1.12h0l.45.18.06,0h0a.94.94,0,0,0,1-.41,4.66,4.66,0,0,0,.74-3.68A2.42,2.42,0,0,0,182.52,62.48Z"/><path class="cls-15" d="M182.06,63.23a1,1,0,0,1-1.77-.21,5.06,5.06,0,0,0-.2,2.72c.29,1.21,1.1,1.55,1.79.74a4.66,4.66,0,0,0,.74-3.68,2.42,2.42,0,0,0-.1-.32A3.07,3.07,0,0,1,182.06,63.23Z"/><g class="cls-22"><path class="cls-8" d="M182.06,63.23a3.07,3.07,0,0,0,.46-.75l-.46-.19a3.39,3.39,0,0,1-.45.75,1.17,1.17,0,0,1-.93.48C181.08,63.85,181.59,63.77,182.06,63.23Z"/></g><path class="cls-6" d="M183.37,63h0l-.52-.48a1.51,1.51,0,0,0-.64-.35,3.74,3.74,0,0,0-3.31.79,1.45,1.45,0,0,0-.44.66l-.18.49a1,1,0,0,0,.19,1.11v0l.51.55h0a1.54,1.54,0,0,0,.67.38,3.79,3.79,0,0,0,3.32-.78,1.53,1.53,0,0,0,.45-.74h0l.2-.71h0A1,1,0,0,0,183.37,63Zm-1.27,1.3a2.44,2.44,0,0,1-2.14.51,1.22,1.22,0,0,1-.41-.22,1,1,0,0,1,.27-.38A2.43,2.43,0,0,1,182,63.7a1,1,0,0,1,.41.22A1.08,1.08,0,0,1,182.1,64.3Z"/><g class="cls-23"><path class="cls-10" d="M183.1,64.76a4.39,4.39,0,0,1-3.83.92,1.77,1.77,0,0,1-.8-.47v0l.51.55h0a1.54,1.54,0,0,0,.67.38,3.79,3.79,0,0,0,3.32-.78,1.53,1.53,0,0,0,.45-.74h0l.2-.71h0A1.72,1.72,0,0,1,183.1,64.76Z"/></g><path class="cls-8" d="M182.21,62.16a3.74,3.74,0,0,0-3.31.79,1,1,0,0,0,.45,1.91,3.77,3.77,0,0,0,3.31-.79A1,1,0,0,0,182.21,62.16Zm-.11,2.14a2.44,2.44,0,0,1-2.14.51.67.67,0,0,1-.29-1.24,2.41,2.41,0,0,1,2.13-.51A.68.68,0,0,1,182.1,64.3Z"/><path class="cls-6" d="M183.32,59.42l-.4-.29a3.55,3.55,0,0,1-.62.61,1.15,1.15,0,0,1-1,.26,1.64,1.64,0,0,1-.26-.58l-.4-.29a5,5,0,0,0-.82,2.6,1.54,1.54,0,0,0,.45,1.26h0l.4.28.05,0,0,0h0a1,1,0,0,0,1.05-.17,4.71,4.71,0,0,0,1.57-3.42C183.34,59.63,183.33,59.52,183.32,59.42Z"/><path class="cls-15" d="M182.7,60a1,1,0,0,1-1.68-.62,5,5,0,0,0-.82,2.6c0,1.25.7,1.76,1.57,1.14a4.71,4.71,0,0,0,1.57-3.42c0-.11,0-.22,0-.32A3.3,3.3,0,0,1,182.7,60Z"/><g class="cls-22"><path class="cls-8" d="M182.7,60a3.3,3.3,0,0,0,.62-.62l-.4-.29a3.55,3.55,0,0,1-.62.61,1.15,1.15,0,0,1-1,.26C181.6,60.41,182.12,60.46,182.7,60Z"/></g><path class="cls-6" d="M184,60.12h0l-.39-.59a1.45,1.45,0,0,0-.54-.49,3.79,3.79,0,0,0-3.41,0,1.63,1.63,0,0,0-.58.55l-.28.43a1,1,0,0,0-.08,1.12v0l.36.66h0a1.73,1.73,0,0,0,.57.53,3.79,3.79,0,0,0,3.41,0,1.5,1.5,0,0,0,.61-.62h0l.36-.63v0A1,1,0,0,0,184,60.12Zm-1.54,1a2.42,2.42,0,0,1-2.19,0,1.06,1.06,0,0,1-.35-.3,1.08,1.08,0,0,1,.35-.31,2.42,2.42,0,0,1,2.19,0,1.08,1.08,0,0,1,.35.31A1.06,1.06,0,0,1,182.48,61.08Z"/><g class="cls-23"><path class="cls-10" d="M183.35,61.77a4.34,4.34,0,0,1-3.94,0,1.66,1.66,0,0,1-.67-.64v0l.36.66h0a1.73,1.73,0,0,0,.57.53,3.79,3.79,0,0,0,3.41,0,1.5,1.5,0,0,0,.61-.62h0l.36-.63v0A1.75,1.75,0,0,1,183.35,61.77Z"/></g><path class="cls-8" d="M183.09,59a3.79,3.79,0,0,0-3.41,0,1,1,0,0,0,0,2,3.73,3.73,0,0,0,3.41,0A1,1,0,0,0,183.09,59Zm-.61,2a2.42,2.42,0,0,1-2.19,0,.66.66,0,0,1,0-1.26,2.42,2.42,0,0,1,2.19,0A.66.66,0,0,1,182.48,61.08Z"/><path class="cls-6" d="M184.66,56.36l-.37-.32a3.44,3.44,0,0,1-.67.56,1.16,1.16,0,0,1-1,.16,1.47,1.47,0,0,1-.21-.6l-.37-.33A5,5,0,0,0,181,58.35a1.57,1.57,0,0,0,.34,1.3h0l.37.31.05,0,0,0h0a1,1,0,0,0,1.06-.08,4.74,4.74,0,0,0,1.87-3.26A1.82,1.82,0,0,0,184.66,56.36Z"/><path class="cls-15" d="M184,56.92c-.84.5-1.48.16-1.61-.76a5,5,0,0,0-1,2.52c-.11,1.24.54,1.82,1.46,1.27a4.74,4.74,0,0,0,1.87-3.26,1.82,1.82,0,0,0,0-.33A3.12,3.12,0,0,1,184,56.92Z"/><g class="cls-22"><path class="cls-8" d="M184,56.92a3.12,3.12,0,0,0,.67-.56l-.37-.32a3.44,3.44,0,0,1-.67.56,1.16,1.16,0,0,1-1,.16C182.87,57.2,183.38,57.29,184,56.92Z"/></g><path class="cls-6" d="M185.3,57.12h0l-.33-.62a1.67,1.67,0,0,0-.5-.54,3.79,3.79,0,0,0-3.39-.3,1.57,1.57,0,0,0-.63.5l-.32.4a1,1,0,0,0-.18,1.11v0l.31.69h0a1.63,1.63,0,0,0,.52.58,3.82,3.82,0,0,0,3.4.3,1.44,1.44,0,0,0,.66-.56h0l.41-.6h0A1,1,0,0,0,185.3,57.12Zm-1.61.83a2.45,2.45,0,0,1-2.19-.2,1.1,1.1,0,0,1-.32-.33,1.09,1.09,0,0,1,.37-.28,2.46,2.46,0,0,1,2.19.2,1.1,1.1,0,0,1,.32.33A1.09,1.09,0,0,1,183.69,58Z"/><g class="cls-23"><path class="cls-10" d="M184.49,58.71a4.38,4.38,0,0,1-3.92-.35,1.75,1.75,0,0,1-.62-.7v0l.31.69h0a1.63,1.63,0,0,0,.52.58,3.82,3.82,0,0,0,3.4.3,1.44,1.44,0,0,0,.66-.56h0l.41-.6h0A1.68,1.68,0,0,1,184.49,58.71Z"/></g><path class="cls-8" d="M184.47,56a3.79,3.79,0,0,0-3.39-.3,1,1,0,0,0-.18,2,3.79,3.79,0,0,0,3.4.3C185.28,57.46,185.35,56.58,184.47,56Zm-.78,2a2.45,2.45,0,0,1-2.19-.2.67.67,0,0,1,.11-1.26,2.42,2.42,0,0,1,2.19.19A.68.68,0,0,1,183.69,58Z"/><path class="cls-6" d="M186.16,53.33l-.34-.36a3.28,3.28,0,0,1-.73.5,1.14,1.14,0,0,1-1,.06,1.53,1.53,0,0,1-.15-.62l-.34-.36A5,5,0,0,0,182.27,55a1.57,1.57,0,0,0,.21,1.32h0l.34.34,0,0,0,0h0a1,1,0,0,0,1.07,0,4.67,4.67,0,0,0,2.17-3.06C186.14,53.54,186.15,53.44,186.16,53.33Z"/><path class="cls-15" d="M185.43,53.83c-.88.41-1.49,0-1.53-.92a5,5,0,0,0-1.29,2.41c-.23,1.23.37,1.86,1.34,1.4a4.67,4.67,0,0,0,2.17-3.06c0-.12,0-.22,0-.33A3.28,3.28,0,0,1,185.43,53.83Z"/><g class="cls-22"><path class="cls-8" d="M185.43,53.83a3.28,3.28,0,0,0,.73-.5l-.34-.36a3.28,3.28,0,0,1-.73.5,1.14,1.14,0,0,1-1,.06C184.29,54,184.79,54.13,185.43,53.83Z"/></g><path class="cls-6" d="M186.72,54.15h0l-.27-.65a1.48,1.48,0,0,0-.45-.58,3.76,3.76,0,0,0-3.35-.63,1.69,1.69,0,0,0-.67.43l-.35.37a1,1,0,0,0-.29,1.1v0l.23.72h0a1.59,1.59,0,0,0,.46.62,3.77,3.77,0,0,0,3.35.63,1.53,1.53,0,0,0,.72-.49h0l.47-.56h0A1,1,0,0,0,186.72,54.15Zm-1.69.67a2.43,2.43,0,0,1-2.16-.41.91.91,0,0,1-.28-.36,1,1,0,0,1,.39-.24,2.43,2.43,0,0,1,2.16.41.91.91,0,0,1,.28.36A.93.93,0,0,1,185,54.82Z"/><g class="cls-23"><path class="cls-10" d="M185.76,55.65a4.36,4.36,0,0,1-3.87-.72,1.83,1.83,0,0,1-.55-.75v0l.23.72h0a1.59,1.59,0,0,0,.46.62,3.77,3.77,0,0,0,3.35.63,1.53,1.53,0,0,0,.72-.49h0l.47-.56h0A1.76,1.76,0,0,1,185.76,55.65Z"/></g><path class="cls-8" d="M186,52.91a3.76,3.76,0,0,0-3.35-.63,1,1,0,0,0-.36,1.93,3.76,3.76,0,0,0,3.35.63A1,1,0,0,0,186,52.91Zm-1,1.91a2.43,2.43,0,0,1-2.16-.41.67.67,0,0,1,.23-1.24,2.42,2.42,0,0,1,2.16.4A.67.67,0,0,1,185,54.82Z"/><path class="cls-6" d="M188,50.56l-.28-.41a3,3,0,0,1-.79.37,1.16,1.16,0,0,1-1-.09,1.47,1.47,0,0,1-.05-.64l-.28-.41A5.07,5.07,0,0,0,184,51.55a1.53,1.53,0,0,0,0,1.34h0l.28.4a.1.1,0,0,1,0,.05l0,0h0a1,1,0,0,0,1.05.19A4.69,4.69,0,0,0,188,50.87C188,50.76,188,50.66,188,50.56Z"/><path class="cls-15" d="M187.25,50.93c-.94.28-1.48-.22-1.37-1.14A5.07,5.07,0,0,0,184.23,52c-.42,1.18.07,1.9,1.1,1.6A4.69,4.69,0,0,0,188,50.87c0-.11.06-.21.09-.31A3,3,0,0,1,187.25,50.93Z"/><g class="cls-22"><path class="cls-8" d="M187.25,50.93a3,3,0,0,0,.79-.37l-.28-.41a3,3,0,0,1-.79.37,1.16,1.16,0,0,1-1-.09C186.09,50.92,186.56,51.13,187.25,50.93Z"/></g><path class="cls-6" d="M188.47,51.46h0l-.17-.69a1.55,1.55,0,0,0-.35-.65A3.8,3.8,0,0,0,184.74,49a1.59,1.59,0,0,0-.73.32l-.41.31a1,1,0,0,0-.45,1v0l.13.75h0a1.64,1.64,0,0,0,.36.69,3.81,3.81,0,0,0,3.21,1.14,1.43,1.43,0,0,0,.78-.37h0l.55-.48v0A1,1,0,0,0,188.47,51.46Zm-1.78.39a2.45,2.45,0,0,1-2.06-.74,1.11,1.11,0,0,1-.23-.4,1,1,0,0,1,.43-.17,2.42,2.42,0,0,1,2.07.73,1,1,0,0,1,.22.41A1,1,0,0,1,186.69,51.85Z"/><g class="cls-23"><path class="cls-10" d="M187.29,52.79a4.41,4.41,0,0,1-3.72-1.32,1.86,1.86,0,0,1-.42-.83v0l.13.75h0a1.64,1.64,0,0,0,.36.69,3.81,3.81,0,0,0,3.21,1.14,1.43,1.43,0,0,0,.78-.37h0l.55-.48v0A1.72,1.72,0,0,1,187.29,52.79Z"/></g><path class="cls-8" d="M188,50.11A3.8,3.8,0,0,0,184.74,49a1,1,0,0,0-.66,1.86A3.82,3.82,0,0,0,187.29,52C188.36,51.77,188.65,50.94,188,50.11Zm-1.26,1.74a2.48,2.48,0,0,1-2.07-.74.67.67,0,0,1,.43-1.19,2.42,2.42,0,0,1,2.07.73A.67.67,0,0,1,186.69,51.85Z"/><path class="cls-6" d="M189.62,47.27l-.35-.35a3.24,3.24,0,0,1-.71.51,1.18,1.18,0,0,1-1.05.09,1.76,1.76,0,0,1-.16-.62l-.35-.35A5,5,0,0,0,185.77,49,1.54,1.54,0,0,0,186,50.3h0l.35.33a.12.12,0,0,0,.05,0l0,0h0a.94.94,0,0,0,1.06,0,4.7,4.7,0,0,0,2.1-3.11C189.6,47.48,189.61,47.38,189.62,47.27Z"/><path class="cls-15" d="M188.9,47.78c-.87.44-1.49,0-1.55-.88a5,5,0,0,0-1.23,2.43c-.21,1.24.41,1.86,1.36,1.38a4.7,4.7,0,0,0,2.1-3.11c0-.12,0-.22,0-.33A3.29,3.29,0,0,1,188.9,47.78Z"/><g class="cls-22"><path class="cls-8" d="M188.9,47.78a3.29,3.29,0,0,0,.72-.51l-.35-.35a3.24,3.24,0,0,1-.71.51,1.18,1.18,0,0,1-1.05.09C187.76,48,188.26,48.1,188.9,47.78Z"/></g><path class="cls-6" d="M190.2,48.08h0l-.29-.65a1.68,1.68,0,0,0-.46-.57,3.76,3.76,0,0,0-3.36-.55,1.53,1.53,0,0,0-.66.44l-.35.38a1,1,0,0,0-.26,1.1v0l.25.71h0a1.53,1.53,0,0,0,.47.61,3.77,3.77,0,0,0,3.36.55,1.46,1.46,0,0,0,.71-.5h0l.45-.57v0A1,1,0,0,0,190.2,48.08Zm-1.68.7a2.41,2.41,0,0,1-2.17-.36,1.15,1.15,0,0,1-.29-.35,1.09,1.09,0,0,1,.39-.25,2.43,2.43,0,0,1,2.17.36.92.92,0,0,1,.29.35A.94.94,0,0,1,188.52,48.78Z"/><g class="cls-23"><path class="cls-10" d="M189.27,49.6a4.39,4.39,0,0,1-3.89-.64,1.77,1.77,0,0,1-.56-.74v0l.25.71h0a1.53,1.53,0,0,0,.47.61,3.77,3.77,0,0,0,3.36.55,1.46,1.46,0,0,0,.71-.5h0l.45-.57v0A1.76,1.76,0,0,1,189.27,49.6Z"/></g><path class="cls-8" d="M189.45,46.85a3.76,3.76,0,0,0-3.36-.55,1,1,0,0,0-.32,1.94,3.8,3.8,0,0,0,3.36.55A1,1,0,0,0,189.45,46.85Zm-.93,1.93a2.41,2.41,0,0,1-2.17-.36c-.54-.44-.44-1,.21-1.25a2.47,2.47,0,0,1,2.17.36C189.27,48,189.18,48.53,188.52,48.78Z"/><path class="cls-6" d="M190.66,43.83l-.39-.3a3,3,0,0,1-.63.61,1.17,1.17,0,0,1-1,.25,1.52,1.52,0,0,1-.25-.59l-.4-.29a5,5,0,0,0-.85,2.58,1.52,1.52,0,0,0,.43,1.27h0l.39.28.05,0,0,0h0a1,1,0,0,0,1-.16,4.71,4.71,0,0,0,1.61-3.39A3.25,3.25,0,0,0,190.66,43.83Z"/><path class="cls-15" d="M190,44.44a1,1,0,0,1-1.67-.64,5,5,0,0,0-.86,2.59c0,1.25.69,1.77,1.56,1.16a4.71,4.71,0,0,0,1.61-3.39,3.25,3.25,0,0,0,0-.33A3.24,3.24,0,0,1,190,44.44Z"/><g class="cls-22"><path class="cls-8" d="M190,44.44a3.24,3.24,0,0,0,.62-.61l-.39-.3a3,3,0,0,1-.63.61,1.17,1.17,0,0,1-1,.25C188.93,44.8,189.45,44.85,190,44.44Z"/></g><path class="cls-6" d="M191.36,44.54h0l-.38-.6a1.53,1.53,0,0,0-.54-.49,3.79,3.79,0,0,0-3.41,0,1.53,1.53,0,0,0-.58.54l-.29.43a1,1,0,0,0-.09,1.13v0l.36.66h0a1.53,1.53,0,0,0,.56.54,3.79,3.79,0,0,0,3.41,0,1.5,1.5,0,0,0,.62-.6h0l.36-.63v0A1,1,0,0,0,191.36,44.54Zm-1.55.94a2.47,2.47,0,0,1-2.2,0,1.17,1.17,0,0,1-.34-.32,1,1,0,0,1,.35-.29,2.44,2.44,0,0,1,2.2,0,1.15,1.15,0,0,1,.34.31A1,1,0,0,1,189.81,45.48Z"/><g class="cls-23"><path class="cls-10" d="M190.67,46.18a4.37,4.37,0,0,1-3.94,0,1.69,1.69,0,0,1-.66-.64v0l.36.66h0a1.53,1.53,0,0,0,.56.54,3.79,3.79,0,0,0,3.41,0,1.5,1.5,0,0,0,.62-.6h0l.36-.63v0A1.67,1.67,0,0,1,190.67,46.18Z"/></g><path class="cls-8" d="M190.44,43.44a3.79,3.79,0,0,0-3.41,0,1,1,0,0,0,0,2,3.77,3.77,0,0,0,3.4,0A1,1,0,0,0,190.44,43.44Zm-.63,2a2.44,2.44,0,0,1-2.2,0,.67.67,0,0,1,0-1.27,2.41,2.41,0,0,1,2.19,0A.66.66,0,0,1,189.81,45.48Z"/><path class="cls-6" d="M190.83,40.12l-.46-.19a3,3,0,0,1-.46.74,1.13,1.13,0,0,1-.93.48,1.46,1.46,0,0,1-.38-.5l-.46-.19a5.06,5.06,0,0,0-.21,2.72,1.55,1.55,0,0,0,.73,1.12h0l.45.18.06,0h0a.93.93,0,0,0,1-.4,4.68,4.68,0,0,0,.74-3.69A2.8,2.8,0,0,0,190.83,40.12Z"/><path class="cls-15" d="M190.37,40.86a1,1,0,0,1-1.77-.21,5,5,0,0,0-.21,2.72c.29,1.22,1.09,1.55,1.79.75a4.68,4.68,0,0,0,.74-3.69,2.8,2.8,0,0,0-.09-.31A3,3,0,0,1,190.37,40.86Z"/><g class="cls-22"><path class="cls-8" d="M190.37,40.86a3,3,0,0,0,.46-.74l-.46-.19a3,3,0,0,1-.46.74,1.13,1.13,0,0,1-.93.48C189.39,41.48,189.9,41.41,190.37,40.86Z"/></g><path class="cls-6" d="M191.68,40.64h0l-.51-.48a1.63,1.63,0,0,0-.64-.36,3.79,3.79,0,0,0-3.32.78,1.62,1.62,0,0,0-.44.67l-.17.48a1,1,0,0,0,.18,1.12v0l.51.55h0a1.54,1.54,0,0,0,.67.38,3.79,3.79,0,0,0,3.32-.78,1.56,1.56,0,0,0,.46-.73h0l.2-.71h0A1,1,0,0,0,191.68,40.64Zm-1.28,1.29a2.44,2.44,0,0,1-2.14.51,1.16,1.16,0,0,1-.4-.22.9.9,0,0,1,.26-.38,2.44,2.44,0,0,1,2.14-.5,1,1,0,0,1,.41.22A1.09,1.09,0,0,1,190.4,41.93Z"/><g class="cls-23"><path class="cls-10" d="M191.41,42.4a4.37,4.37,0,0,1-3.84.9,1.68,1.68,0,0,1-.8-.46v0l.51.55h0a1.54,1.54,0,0,0,.67.38,3.79,3.79,0,0,0,3.32-.78,1.56,1.56,0,0,0,.46-.73h0l.2-.71h0A1.74,1.74,0,0,1,191.41,42.4Z"/></g><path class="cls-8" d="M190.52,39.79a3.79,3.79,0,0,0-3.32.78,1,1,0,0,0,.45,1.92,3.79,3.79,0,0,0,3.32-.78A1,1,0,0,0,190.52,39.79Zm-.12,2.14a2.44,2.44,0,0,1-2.14.51A.67.67,0,0,1,188,41.2a2.44,2.44,0,0,1,2.14-.5A.67.67,0,0,1,190.4,41.93Z"/><path class="cls-6" d="M190.46,36.52l-.47-.15a3.23,3.23,0,0,1-.39.79,1.12,1.12,0,0,1-.87.57,1.39,1.39,0,0,1-.44-.46l-.47-.14a5,5,0,0,0,.07,2.72,1.56,1.56,0,0,0,.83,1h0l.46.13.07,0h0a.93.93,0,0,0,.94-.5,4.73,4.73,0,0,0,.37-3.74A2.08,2.08,0,0,0,190.46,36.52Z"/><path class="cls-15" d="M190.08,37.3a1,1,0,0,1-1.79,0,5.06,5.06,0,0,0,.07,2.73c.41,1.18,1.25,1.43,1.86.56a4.73,4.73,0,0,0,.37-3.74,2.08,2.08,0,0,0-.13-.3A3.15,3.15,0,0,1,190.08,37.3Z"/><g class="cls-22"><path class="cls-8" d="M190.08,37.3a3.15,3.15,0,0,0,.38-.78l-.47-.15a3.23,3.23,0,0,1-.39.79,1.12,1.12,0,0,1-.87.57C189.16,38,189.67,37.89,190.08,37.3Z"/></g><path class="cls-6" d="M191.36,37h0l-.56-.43a1.53,1.53,0,0,0-.67-.28,3.75,3.75,0,0,0-3.22,1.11,1.48,1.48,0,0,0-.37.71l-.13.49a1,1,0,0,0,.3,1.09v0l.56.5h0a1.61,1.61,0,0,0,.71.31,3.76,3.76,0,0,0,3.22-1.11,1.45,1.45,0,0,0,.38-.78h0l.13-.72h0A1,1,0,0,0,191.36,37Zm-1.14,1.42a2.43,2.43,0,0,1-2.08.71,1,1,0,0,1-.43-.17,1,1,0,0,1,.23-.4,2.44,2.44,0,0,1,2.08-.72,1,1,0,0,1,.42.17A1.1,1.1,0,0,1,190.22,38.37Z"/><g class="cls-23"><path class="cls-10" d="M191.26,38.73A4.4,4.4,0,0,1,187.54,40a1.73,1.73,0,0,1-.84-.39v0l.56.5h0a1.61,1.61,0,0,0,.71.31,3.76,3.76,0,0,0,3.22-1.11,1.45,1.45,0,0,0,.38-.78h0l.13-.72h0A1.66,1.66,0,0,1,191.26,38.73Z"/></g><path class="cls-8" d="M190.12,36.23a3.75,3.75,0,0,0-3.22,1.11,1,1,0,0,0,.64,1.86,3.79,3.79,0,0,0,3.22-1.12A1,1,0,0,0,190.12,36.23Zm.1,2.14a2.44,2.44,0,0,1-2.08.71c-.69-.13-.87-.67-.41-1.2a2.42,2.42,0,0,1,2.07-.71C190.49,37.3,190.67,37.84,190.22,38.37Z"/><path class="cls-6" d="M189,32.91h-.5a3,3,0,0,1-.11.87,1.13,1.13,0,0,1-.64.82,1.34,1.34,0,0,1-.56-.3l-.5,0a5,5,0,0,0,.94,2.56,1.55,1.55,0,0,0,1.13.72h0l.48,0h.1c.32,0,.58-.3.72-.78a4.71,4.71,0,0,0-.84-3.66Z"/><path class="cls-15" d="M188.91,33.77a1,1,0,0,1-1.7.54,4.92,4.92,0,0,0,.94,2.56c.76,1,1.63,1,1.93-.06a4.71,4.71,0,0,0-.84-3.66l-.22-.24A3.26,3.26,0,0,1,188.91,33.77Z"/><g class="cls-22"><path class="cls-8" d="M188.91,33.77a3.26,3.26,0,0,0,.11-.86h-.5a3,3,0,0,1-.11.87,1.13,1.13,0,0,1-.64.82C188.27,34.74,188.71,34.46,188.91,33.77Z"/></g><path class="cls-6" d="M190,33h0l-.67-.23a1.56,1.56,0,0,0-.73,0,3.76,3.76,0,0,0-2.69,2.08,1.58,1.58,0,0,0-.13.79l0,.51a1,1,0,0,0,.63.94l0,0,.69.29h0a1.6,1.6,0,0,0,.78.07,3.8,3.8,0,0,0,2.69-2.09,1.5,1.5,0,0,0,.11-.86h0l-.11-.72h0A1,1,0,0,0,190,33Zm-.63,1.7a2.45,2.45,0,0,1-1.74,1.35,1.13,1.13,0,0,1-.46,0,1,1,0,0,1,.09-.45A2.43,2.43,0,0,1,189,34.25a1.14,1.14,0,0,1,.46,0A1.09,1.09,0,0,1,189.38,34.73Z"/><g class="cls-23"><path class="cls-10" d="M190.49,34.74a4.38,4.38,0,0,1-3.12,2.42,1.69,1.69,0,0,1-.92-.1l0,0,.69.29h0a1.6,1.6,0,0,0,.78.07,3.8,3.8,0,0,0,2.69-2.09,1.5,1.5,0,0,0,.11-.86h0l-.11-.72h0A1.64,1.64,0,0,1,190.49,34.74Z"/></g><path class="cls-8" d="M188.6,32.74a3.76,3.76,0,0,0-2.69,2.08c-.41,1,.13,1.7,1.2,1.56a3.8,3.8,0,0,0,2.69-2.09C190.21,33.29,189.67,32.59,188.6,32.74Zm.78,2a2.42,2.42,0,0,1-1.74,1.35c-.69.09-1-.36-.77-1a2.43,2.43,0,0,1,1.73-1.35C189.3,33.64,189.64,34.09,189.38,34.73Z"/><path class="cls-6" d="M187.1,29.73l-.49.07a3.67,3.67,0,0,1,0,.88,1.1,1.1,0,0,1-.54.89,1.47,1.47,0,0,1-.59-.23l-.49.08a5.1,5.1,0,0,0,1.25,2.43,1.53,1.53,0,0,0,1.21.57h0l.48-.08H188a.93.93,0,0,0,.62-.86,4.67,4.67,0,0,0-1.29-3.53A2.25,2.25,0,0,0,187.1,29.73Z"/><path class="cls-15" d="M187.09,30.6c-.15,1-.83,1.23-1.62.74a5,5,0,0,0,1.25,2.43c.88.89,1.74.75,1.91-.3a4.67,4.67,0,0,0-1.29-3.53,2.25,2.25,0,0,0-.24-.21A3.15,3.15,0,0,1,187.09,30.6Z"/><g class="cls-22"><path class="cls-8" d="M187.09,30.6a3.15,3.15,0,0,0,0-.87l-.49.07a3.67,3.67,0,0,1,0,.88,1.1,1.1,0,0,1-.54.89C186.58,31.64,187,31.31,187.09,30.6Z"/></g><path class="cls-6" d="M188.09,29.73h0l-.69-.15a1.69,1.69,0,0,0-.73,0,3.8,3.8,0,0,0-2.42,2.4,1.56,1.56,0,0,0,0,.8l.1.5a1,1,0,0,0,.74.86l0,0,.72.21h0a1.46,1.46,0,0,0,.77,0A3.76,3.76,0,0,0,189,32a1.47,1.47,0,0,0,0-.86h0l-.2-.71h0A1,1,0,0,0,188.09,29.73Zm-.41,1.76A2.41,2.41,0,0,1,186.12,33a1.06,1.06,0,0,1-.46,0,1.06,1.06,0,0,1,0-.46,2.43,2.43,0,0,1,1.56-1.55,1.24,1.24,0,0,1,.46,0A1.05,1.05,0,0,1,187.68,31.49Z"/><g class="cls-23"><path class="cls-10" d="M188.78,31.37A4.41,4.41,0,0,1,186,34.15a1.84,1.84,0,0,1-.93,0l0,0,.72.21h0a1.46,1.46,0,0,0,.77,0A3.76,3.76,0,0,0,189,32a1.47,1.47,0,0,0,0-.86h0l-.2-.71h0A1.75,1.75,0,0,1,188.78,31.37Z"/></g><path class="cls-8" d="M186.66,29.61a3.8,3.8,0,0,0-2.42,2.4c-.28,1.05.34,1.67,1.39,1.4A3.77,3.77,0,0,0,188,31C188.33,30,187.7,29.33,186.66,29.61Zm1,1.88A2.39,2.39,0,0,1,186.12,33c-.67.18-1.08-.22-.89-.9a2.44,2.44,0,0,1,1.55-1.55C187.46,30.42,187.86,30.82,187.68,31.49Z"/><path class="cls-6" d="M184.21,27.1l-.45.22a3.05,3.05,0,0,1,.26.83,1.16,1.16,0,0,1-.25,1,1.55,1.55,0,0,1-.63,0l-.45.22a5.11,5.11,0,0,0,1.92,1.94,1.55,1.55,0,0,0,1.32.19h0l.43-.23.06,0h0a.94.94,0,0,0,.34-1,4.71,4.71,0,0,0-2.29-3A2.38,2.38,0,0,0,184.21,27.1Z"/><path class="cls-15" d="M184.46,27.93c.14,1-.43,1.43-1.32,1.2a5,5,0,0,0,1.91,1.94c1.11.58,1.89.2,1.74-.86a4.71,4.71,0,0,0-2.29-3,2.38,2.38,0,0,0-.29-.13A3.13,3.13,0,0,1,184.46,27.93Z"/><g class="cls-22"><path class="cls-8" d="M184.46,27.93a3.13,3.13,0,0,0-.25-.83l-.45.22a3.05,3.05,0,0,1,.26.83,1.16,1.16,0,0,1-.25,1C184.28,29.08,184.57,28.64,184.46,27.93Z"/></g><path class="cls-6" d="M185.15,26.8h0l-.71.06a1.69,1.69,0,0,0-.69.26,3.75,3.75,0,0,0-1.58,3,1.53,1.53,0,0,0,.21.77l.25.45a1,1,0,0,0,1,.59l0,0,.75,0h0a1.55,1.55,0,0,0,.73-.25,3.78,3.78,0,0,0,1.59-3,1.48,1.48,0,0,0-.26-.82h0l-.4-.62h0A1,1,0,0,0,185.15,26.8Zm.14,1.81a2.41,2.41,0,0,1-1,1.94,1.11,1.11,0,0,1-.44.17,1,1,0,0,1-.1-.45,2.41,2.41,0,0,1,1-1.94,1.07,1.07,0,0,1,.43-.17A1.14,1.14,0,0,1,185.29,28.61Z"/><g class="cls-23"><path class="cls-10" d="M186.3,28.16a4.37,4.37,0,0,1-1.83,3.49,1.75,1.75,0,0,1-.88.29l0,0,.75,0h0a1.55,1.55,0,0,0,.73-.25,3.78,3.78,0,0,0,1.59-3,1.48,1.48,0,0,0-.26-.82h0l-.4-.62h0A1.61,1.61,0,0,1,186.3,28.16Z"/></g><path class="cls-8" d="M183.75,27.12a3.75,3.75,0,0,0-1.58,3c0,1.08.82,1.49,1.74.92a3.76,3.76,0,0,0,1.58-3C185.45,27,184.67,26.54,183.75,27.12Zm1.54,1.49a2.44,2.44,0,0,1-1,1.95c-.59.37-1.1.1-1.13-.6a2.46,2.46,0,0,1,1-1.94C184.76,27.65,185.26,27.91,185.29,28.61Z"/><path class="cls-6" d="M175.25,14.76c-5.8,6.14-6.93,11.66-4.33,18.21,1.31,3.32,6.48,5.57,8.58,3.83,6.51-5.42,13.43-19.74,12.67-26.27S181.06,8.62,175.25,14.76Z"/><path class="cls-8" d="M174.52,24.2C179.47,19,188.3,15,188.94,20.6a11,11,0,0,1-.16,3c2.32-4.92,3.76-9.91,3.39-13.08-.75-6.53-11.11-1.91-16.92,4.23-5.19,5.49-6.63,10.49-5,16.17A17.81,17.81,0,0,1,174.52,24.2Z"/><path class="cls-8" d="M174.13,19.18c5.86-6.2,16-11,18-5.76a11.93,11.93,0,0,0,.08-2.89c-.75-6.53-11.11-1.91-16.92,4.23-3.42,3.62-5.2,7-5.57,10.55A25.48,25.48,0,0,1,174.13,19.18Z"/><path class="cls-6" d="M175.87,24.62c-1.93,1.25-2.58,2.64-2.31,4.54.13,1,1.35,1.89,2,1.56,2.07-1,4.81-4.35,5-6.13S177.8,23.37,175.87,24.62Z"/><path class="cls-8" d="M175.89,25.09c-1.8,1.17-2.4,2.46-2.15,4.22.12.9,1.26,1.76,1.88,1.46,1.92-.95,4.48-4.05,4.68-5.7S177.68,23.93,175.89,25.09Z"/><path class="cls-8" d="M176.6,26.53a1.53,1.53,0,0,0-.84,1.63c.05.35.49.68.73.56a4,4,0,0,0,1.82-2.21C178.39,25.87,177.29,26.08,176.6,26.53Z"/><path class="cls-25" d="M175.82,29.44a2,2,0,0,1-.68-2.29,3.43,3.43,0,0,1,.61-1.29,2.78,2.78,0,0,0-1,1.66,2,2,0,0,0,.69,2.29c.36.28,1.07.2,1.19-.13l0-.1A1,1,0,0,1,175.82,29.44Z"/><path class="cls-6" d="M176.57,42.42c-.25.92-.11,1.45.31,1.73a.19.19,0,0,0,.07.06l.13,0,.07,0c1.07.41,1.66.07,3.44,1.26s1.62,1.35,2.88,2.07c2,1.15,3.27,1.15,4.18,1.68,1.21.69,1.29,1.67,2,1.89h0c.86.4,2.54.08,4.49-.24,3.2-.53,5.94-.9,6.65-3.52A5.42,5.42,0,0,0,199.22,42a23,23,0,0,0-1.7-2.14,12.24,12.24,0,0,0-4.47-3c-1.62-.45-6.59-2.21-7.82-2.38h-.09a3.6,3.6,0,0,0-1,0C181,35,177.29,39.8,176.57,42.42Z"/><path class="cls-7" d="M185.72,41.61c-2.05-1.18-2.05-3.12,0-4.31a8.3,8.3,0,0,1,7.46,0c2,1.19,2,3.13,0,4.31A8.3,8.3,0,0,1,185.72,41.61Z"/><path class="cls-7" d="M186.84,40.44c-1.32-.76-1.32-2,0-2.78a5.36,5.36,0,0,1,4.81,0c1.32.77,1.32,2,0,2.78A5.36,5.36,0,0,1,186.84,40.44Z"/><path class="cls-7" d="M187.27,38.65a1,1,0,0,1,0-1.93,3.73,3.73,0,0,1,3.35,0,1,1,0,0,1,0,1.93A3.67,3.67,0,0,1,187.27,38.65Z"/><path class="cls-7" d="M182.29,54.65c-2.06-1.19-2.06-3.13,0-4.31a8.28,8.28,0,0,1,7.45,0c2,1.18,2,3.12,0,4.31A8.28,8.28,0,0,1,182.29,54.65Z"/><path class="cls-7" d="M183,54.54c-1.32-.77-1.32-2,0-2.78a5.36,5.36,0,0,1,4.81,0c1.32.77,1.32,2,0,2.78A5.36,5.36,0,0,1,183,54.54Z"/><path class="cls-7" d="M182.82,54.93a1,1,0,0,1,0-1.94,3.73,3.73,0,0,1,3.35,0,1,1,0,0,1,0,1.94A3.73,3.73,0,0,1,182.82,54.93Z"/><path class="cls-25" d="M175.58,27.33a1.5,1.5,0,0,0,.52,1.72c.26.21.8.15.89-.1a4,4,0,0,0-.21-2.78C176.4,25.67,175.77,26.55,175.58,27.33Z"/><path class="cls-8" d="M176.19,27.12a.88.88,0,0,0-.17,1.06c.09.18.39.29.5.18a2.36,2.36,0,0,0,.62-1.55C177.07,26.44,176.5,26.74,176.19,27.12Z"/><path class="cls-7" d="M174.52,15.81l-.15-.08A25.7,25.7,0,0,0,172,18.92l.41.22c4.68,2.28,11.78,2.91,17.55,1.82.43-1.07.81-2.13,1.14-3.15C185.5,18.65,178.94,18,174.52,15.81Z"/><path class="cls-8" d="M195,10.34a22.87,22.87,0,0,0-16.25-3.2c-4.87,1.15-5.52,4.47-1.45,7.38a22.87,22.87,0,0,0,16.25,3.2C198.39,16.57,199.05,13.25,195,10.34Zm-3.44,5.38a17.15,17.15,0,0,1-11.1-2.18c-2.81-1.86-2.4-3.91.9-4.56a17.2,17.2,0,0,1,11.09,2.19C195.24,13,194.84,15.07,191.54,15.72Z"/><path class="cls-8" d="M197.8,8.06c-5.37-3.83-15-5.73-21.42-4.22s-7.28,5.89-1.92,9.72,15,5.74,21.42,4.22S203.16,11.9,197.8,8.06Zm-4.54,7.1a22.67,22.67,0,0,1-14.63-2.89c-3.7-2.44-3.17-5.14,1.18-6a22.66,22.66,0,0,1,14.63,2.88C198.14,11.6,197.6,14.3,193.26,15.16Z"/><circle class="cls-6" cx="199.96" cy="49.09" r="5.46"/><circle class="cls-7" cx="207.91" cy="52.09" r="4.33"/><path class="cls-7" d="M209.89,48.25A4.32,4.32,0,0,1,204.73,55a4.33,4.33,0,0,0,6.85-5.24A4.37,4.37,0,0,0,209.89,48.25Z"/><path class="cls-6" d="M204.28,23.17l.6-9.53-1,.26s-3.33,19.85-3.31,24.55c0,4-1.79,5.74-1.15,8.87s3,5,4.57,6.29a3.07,3.07,0,0,0,2.7.39,23.88,23.88,0,0,0,4-2.16,23.54,23.54,0,0,0,1-2.57l-1.55-2.64L207.32,44l2-4.75-1,.25-2.45,4.37-2.34-.13L205.38,29l.3-2.1-1,.26L203,39.69l-.94-2.23Z"/><path class="cls-8" d="M203.84,21.25l.6-9.53-1,.26s-3.33,19.85-3.31,24.55c0,4-1.79,5.74-1.15,8.87s3,5,4.58,6.29a3,3,0,0,0,2.69.39,24.64,24.64,0,0,0,4-2.16,23.54,23.54,0,0,0,1-2.57l-1.55-2.65-2.81-2.6,2-4.76-1,.26L205.41,42l-2.35-.13,1.88-14.72.3-2.1-1,.26L202.6,37.77l-.94-2.24Z"/><path class="cls-6" d="M192.85,52.86a6.5,6.5,0,0,1-.21-5.84c.87-1.64,2.39-1.69,3.38-.12a6.5,6.5,0,0,1,.21,5.84C195.36,54.38,193.84,54.44,192.85,52.86Z"/><path class="cls-8" d="M194.7,52.46a6.46,6.46,0,0,1-.21-5.84c.87-1.64,2.39-1.7,3.37-.12a6.46,6.46,0,0,1,.21,5.84C197.2,54,195.68,54,194.7,52.46Z"/><circle class="cls-7" cx="201.18" cy="84.87" r="4.33"/><path class="cls-7" d="M204.67,82.3a4.32,4.32,0,0,1-7.62,3.81,4.32,4.32,0,1,0,7.62-3.81Z"/><path class="cls-6" d="M211.51,58.79,208.87,56s.34-2.9-1.1-3.15-1.6.71-1.6.71A10.65,10.65,0,0,1,203.09,60c-1.37,1.24-2.6,9.24-3,11.32a5.6,5.6,0,0,0,1.28,4L200,83.42s-.09,2.45,1.66,2.75,2.12-2.75,2.12-2.75l3.67-2.16Zm-6.06,21.63c-.69-.45-1.88-1.2-1.46-2.33s1.53-6.31,1.79-7.14a7.38,7.38,0,0,1,.85-1.72l2.15-10.47.63.76-1.81,9.77a14.85,14.85,0,0,1,0,5.36C207,77.4,206.13,80.87,205.45,80.42Z"/><g class="cls-13"><path class="cls-8" d="M207.48,81l1.61-8.88a13.22,13.22,0,0,0-.18-1.54l1.8-9.76-.63-.77-2.15,10.47-.15.24a14.07,14.07,0,0,1-.23,3.86c-.59,2.75-1.42,6.22-2.1,5.77l-.14-.09a3.37,3.37,0,0,0,1.38,1.37l.65-.38Z"/><path class="cls-8" d="M201.3,84.74l1.41-8.14a5.59,5.59,0,0,1-1.27-4c.36-2.07,1.59-10.08,2.95-11.32a10.6,10.6,0,0,0,3.08-6.37s.16-.8,1.32-.73c-.14-.62-.42-1.19-1-1.3-1.44-.25-1.6.71-1.6.71A10.65,10.65,0,0,1,203.09,60c-1.37,1.24-2.6,9.24-3,11.32a5.6,5.6,0,0,0,1.28,4L200,83.42s-.07,2.29,1.52,2.7A4.51,4.51,0,0,1,201.3,84.74Z"/></g><path class="cls-6" d="M207.9,58.24l-2.14,10.41a7.43,7.43,0,0,0-.84,1.7c-.25.83-1.37,6-1.78,7.1s.66,1.8,1.35,2.25a1.45,1.45,0,0,1-.5-1.61c.42-1.14,1.53-6.31,1.79-7.14a7.38,7.38,0,0,1,.85-1.72l.1-.52h0l1.8-9.71Z"/><path class="cls-6" d="M211.51,58.79,208.87,56s.34-2.9-1.1-3.15l-.21,0a4.8,4.8,0,0,1,.43,2.67l2.62,2.74-4,22.33-3.64,2.14s-.37,3-2.11,2.74a1.7,1.7,0,0,1-.34-.12,1.7,1.7,0,0,0,1.17.81c1.76.31,2.12-2.75,2.12-2.75l3.67-2.16Z"/><path class="cls-7" d="M198.66,85.57A3.66,3.66,0,0,1,200.77,83c1-.36,1.64.19,1.46,1.22a3.66,3.66,0,0,1-2.11,2.53C199.14,87.15,198.48,86.6,198.66,85.57Z"/><path class="cls-8" d="M199.59,86.09a3.61,3.61,0,0,1,2.1-2.52c1-.36,1.64.19,1.46,1.22A3.65,3.65,0,0,1,201,87.31C200.06,87.67,199.41,87.12,199.59,86.09Z"/><g class="cls-21"><path class="cls-10" d="M196.32,57.71a3.16,3.16,0,0,1-1.58.5,4.22,4.22,0,0,1-3.6-2.35,13,13,0,0,1-.42-11.71,3.72,3.72,0,0,1,7-.25,13,13,0,0,1,.42,11.71A5.47,5.47,0,0,1,196.32,57.71Zm-3.55-15.29a5,5,0,0,0-1.67,1.93,12.55,12.55,0,0,0,.4,11.29,3.3,3.3,0,0,0,6.27-.23,12.46,12.46,0,0,0-.4-11.28c-.9-1.43-2-2.2-3.22-2.15A2.65,2.65,0,0,0,192.77,42.42Z"/></g><g class="cls-21"><path class="cls-10" d="M196.06,56.58a2.76,2.76,0,0,1-1.37.43,3.64,3.64,0,0,1-3.09-2,11.05,11.05,0,0,1-.35-10,3.19,3.19,0,0,1,6-.22,11.11,11.11,0,0,1,.36,10A4.77,4.77,0,0,1,196.06,56.58Zm-3-13a4.17,4.17,0,0,0-1.42,1.64,10.61,10.61,0,0,0,.35,9.58,2.78,2.78,0,0,0,5.28-.19,10.61,10.61,0,0,0-.34-9.58,3.23,3.23,0,0,0-2.71-1.82A2.24,2.24,0,0,0,193,43.55Z"/></g><path class="cls-7" d="M195,43.48a12.77,12.77,0,0,0,.42,11.5c1.93,3.09,4.92,3,6.63-.24a12.77,12.77,0,0,0-.41-11.5C199.65,40.15,196.66,40.26,195,43.48Zm6.53,10.42c-1.46,2.75-4,2.85-5.65.21a10.86,10.86,0,0,1-.36-9.79c1.46-2.75,4-2.84,5.66-.21A10.86,10.86,0,0,1,201.48,53.9Z"/><path class="cls-6" d="M197.84,88.79l.23.4a2.64,2.64,0,0,1,.74-.29,1.07,1.07,0,0,1,.95.15,1.41,1.41,0,0,1,0,.58l.23.4a4.67,4.67,0,0,0,1.65-1.88,1.41,1.41,0,0,0,.08-1.22h0l-.23-.37,0-.06,0,0h0a.85.85,0,0,0-.94-.24,4.33,4.33,0,0,0-2.57,2.28C197.9,88.61,197.87,88.7,197.84,88.79Z"/><path class="cls-15" d="M198.58,88.5c.88-.19,1.33.3,1.18,1.13a4.64,4.64,0,0,0,1.65-1.87c.46-1.05.05-1.74-.9-1.53a4.33,4.33,0,0,0-2.57,2.28c0,.1-.07.19-.1.28A3.43,3.43,0,0,1,198.58,88.5Z"/><g class="cls-22"><path class="cls-8" d="M198.58,88.5a3.43,3.43,0,0,0-.74.29l.23.4a2.64,2.64,0,0,1,.74-.29,1.07,1.07,0,0,1,.95.15C199.64,88.59,199.23,88.36,198.58,88.5Z"/></g><path class="cls-6" d="M197.51,88h0l.11.63a1.41,1.41,0,0,0,.28.62,3.49,3.49,0,0,0,2.85,1.25,1.44,1.44,0,0,0,.69-.25l.39-.26a.9.9,0,0,0,.48-.91v0l-.06-.69h0a1.27,1.27,0,0,0-.28-.65,3.45,3.45,0,0,0-2.85-1.25,1.28,1.28,0,0,0-.74.28h0l-.54.41h0A.87.87,0,0,0,197.51,88Zm1.64-.24a2.24,2.24,0,0,1,1.84.8,1,1,0,0,1,.18.39.94.94,0,0,1-.4.12,2.22,2.22,0,0,1-1.84-.8.86.86,0,0,1-.18-.39A.9.9,0,0,1,199.15,87.71Z"/><g class="cls-23"><path class="cls-10" d="M198.67,86.81a4,4,0,0,1,3.3,1.45,1.53,1.53,0,0,1,.33.78v0l-.06-.69h0a1.27,1.27,0,0,0-.28-.65,3.45,3.45,0,0,0-2.85-1.25,1.28,1.28,0,0,0-.74.28h0l-.54.41h0A1.53,1.53,0,0,1,198.67,86.81Z"/></g><path class="cls-8" d="M197.89,89.21a3.49,3.49,0,0,0,2.85,1.25c1-.11,1.31-.86.72-1.65a3.43,3.43,0,0,0-2.85-1.25C197.63,87.67,197.3,88.41,197.89,89.21Zm1.26-1.5a2.21,2.21,0,0,1,1.84.8c.38.52.17,1-.47,1.06a2.24,2.24,0,0,1-1.84-.8C198.31,88.25,198.51,87.78,199.15,87.71Z"/><path class="cls-6" d="M197.45,97.07,197.24,99l-.42,0a23.34,23.34,0,0,1,.18-4.17c.25-1.47-.27-1.11.11-2.18s0-1.29.59-1.54c0,0-.44,1,0,1.45s.2-.67.38-.4c.05.06.37.33.37.33l.2.46-.43.33L198.05,98l-.2.52-.35-.09.29-3.65-.41.69Z"/><circle class="cls-7" cx="198.68" cy="91.08" r="2.7"/><path class="cls-7" d="M200.38,89a2.69,2.69,0,0,1-2.55,4.36,2.75,2.75,0,0,1-1.23-.58,2.65,2.65,0,0,0,1.62,1A2.69,2.69,0,0,0,200.38,89Z"/><path class="cls-6" d="M200.68,96.64l.09,2,.55.19a18.73,18.73,0,0,0,.16-4.32c-.19-1.58.46-1,.06-2.27s.07-1.33-.62-1.77c0,0,.47,1.22-.1,1.5s-.2-.75-.46-.53a4.35,4.35,0,0,1-.52.21l-.3.41.54.48-.28,4.8.22.6.47,0,0-3.84.48.85Z"/><g class="cls-21"><path class="cls-24" d="M197.16,97.56l.3-3.65-.42.69.07,1.62-.2,1.91-.11,0c0,.53,0,.88,0,.88l.42,0,.15-1.36Z"/><path class="cls-24" d="M197.32,91.74h0c.1.1.16.06.19,0s.06-.25.09-.35a.43.43,0,0,1,0,0,1.68,1.68,0,0,1,.08-.2C197.37,91.29,197.36,91.43,197.32,91.74Z"/><path class="cls-24" d="M197.91,92.42a.66.66,0,0,1-.07.2l-.06,2.15v0l0,.2-.05,2.18-.15.38-.07.89.35.09.2-.52.13-4.66.43-.33-.2-.46-.3-.26Z"/></g><g class="cls-21"><polygon class="cls-24" points="199.74 91.82 199.54 92.08 199.71 92.23 199.74 91.82"/><path class="cls-24" d="M201.21,91.42c.39,1.22-.26.69-.06,2.27A19.37,19.37,0,0,1,201,98l-.25-.09,0,.74.55.19a18.73,18.73,0,0,0,.16-4.32c-.19-1.58.46-1,.06-2.27s0-1.31-.51-1.68A3.34,3.34,0,0,0,201.21,91.42Z"/><polygon class="cls-24" points="200.49 97.83 200.44 97.82 200.35 95.8 200.46 95.05 200.45 94.16 200.56 94.36 200.59 94.16 200.11 93.31 200.15 97.14 199.81 97.13 199.8 97.36 200.02 97.96 200.49 97.99 200.49 97.83"/></g><path class="cls-6" d="M194.28,100.69l-1.21,3.62v-1.66s1.42-6.44,2.14-8.18c.61-1.48-.16-1.14.55-2.2s-.2-1.63.59-1.87a2.6,2.6,0,0,1,.84.53c.38.34.65.27.85.55A1.88,1.88,0,0,1,198,92l-.24.63-.65.32-1.52,5.74-.2.82-.33-.24,1.27-4.88-.69.69Z"/><path class="cls-8" d="M193.31,103.41s1.42-6.44,2.14-8.18c.61-1.48-.16-1.14.55-2.2s-.21-1.63.58-1.87a2.49,2.49,0,0,1,.84.53A1.94,1.94,0,0,0,198,92v0a1.88,1.88,0,0,0,.06-.51c-.2-.28-.47-.21-.85-.55a2.6,2.6,0,0,0-.84-.53c-.79.24.12.8-.59,1.87s.06.72-.55,2.2c-.72,1.74-2.14,8.18-2.14,8.18v1.66l.25-.72Z"/><polygon class="cls-8" points="195.04 99.26 195.04 99.26 195.37 99.5 195.57 98.68 196.5 95.19 195.96 95.73 195.04 99.26"/><path class="cls-7" d="M171.57,75.05a13.3,13.3,0,0,1,6-10.38,10.84,10.84,0,0,1,1.36-.78,4.42,4.42,0,0,0-3.38.83,12,12,0,0,0-5.43,9.41c0,2,.88,2.54,2.16,3.74A5.32,5.32,0,0,1,171.57,75.05Z"/><path class="cls-7" d="M192.39,78.4a11.34,11.34,0,0,1,4.42-8.58,2.6,2.6,0,0,1,2.05-.6c-1.54-1-2.12-1.64-3.92-.48-2.68,1.74-4.87,6-4.87,9.46,0,3.1.68,4.08,4,3.6C193.06,81.42,192.39,80.23,192.39,78.4Z"/><g class="cls-26"><path class="cls-27" d="M131.55,56.82a14.57,14.57,0,0,1,3.92-2.72c1.86-.28,3.89-1.42,3.77-2.85s-2.12-2.14-4.17-2.19a14.3,14.3,0,0,1-4.31-2c-1.17-1.51-3.2-2.72-4.37-1.9s-.74,3.2.21,4.68a14.31,14.31,0,0,1,.42,4.79c-.69,1.75-.71,4.06.59,4.67S130.7,58.34,131.55,56.82Z"/><g class="cls-28"><path d="M127.3,53.19a14.05,14.05,0,0,0-.41-4.79,6,6,0,0,1-.92-2.76c-.62,1-.18,3,.63,4.23a14.71,14.71,0,0,1,.49,4A6.37,6.37,0,0,1,127.3,53.19Z"/><path d="M135.76,52.63a14.78,14.78,0,0,0-3.93,2.72c-.84,1.52-2.64,3.12-3.93,2.51-.86-.4-1.14-1.54-1-2.77-.52,1.69-.44,3.68.75,4.24s3.09-1,3.94-2.51a14.57,14.57,0,0,1,3.92-2.72c1.86-.28,3.89-1.42,3.77-2.85a2,2,0,0,0-.07-.35A5.56,5.56,0,0,1,135.76,52.63Z"/></g><path class="cls-29" d="M131.59,55.29a9.41,9.41,0,0,1,2.6-1.81c1.23-.18,2.57-.94,2.49-1.88s-1.4-1.42-2.76-1.45a9.7,9.7,0,0,1-2.85-1.3c-.78-1-2.12-1.81-2.9-1.26s-.49,2.12.14,3.09a9.47,9.47,0,0,1,.28,3.18c-.45,1.16-.47,2.68.39,3.09S131,56.3,131.59,55.29Z"/><path class="cls-29" d="M131.13,53.82a5.76,5.76,0,0,1,1.52-1.06c.72-.11,1.51-.55,1.46-1.1s-.82-.83-1.61-.85a5.28,5.28,0,0,1-1.67-.76c-.46-.59-1.24-1-1.7-.74s-.28,1.24.08,1.82a5.49,5.49,0,0,1,.17,1.85c-.27.68-.28,1.57.23,1.81S130.8,54.41,131.13,53.82Z"/></g></g></g></svg>