<?xml version="1.0" encoding="utf-8"?>
<!-- Generator: Adobe Illustrator 19.0.0, SVG Export Plug-In . SVG Version: 6.00 Build 0)  -->
<svg version="1.1" id="Layer_1" xmlns="http://www.w3.org/2000/svg" xmlns:xlink="http://www.w3.org/1999/xlink" x="0px" y="0px"
	 viewBox="0 0 320 540" style="enable-background:new 0 0 320 540;" xml:space="preserve">
<style type="text/css">
	.st0{fill:#355356;}
	.st1{fill:#CAD1D2;}
	.st2{fill:#E5E8E7;}
	.st3{fill:#97A6A8;}
	.st4{fill:#FFFFFF;}
	.st5{fill:#D3813C;}
	.st6{fill:#CB6542;}
	.st7{fill:#148A9D;}
	.st8{fill:#52A7B5;}
	.st9{fill:#148A9D;stroke:#148A9D;stroke-width:2;stroke-linecap:round;stroke-linejoin:round;stroke-miterlimit:10;}
	.st10{fill:#C23F46;}
	.st11{fill:#FFFFFF;stroke:#FFFFFF;stroke-width:2;stroke-miterlimit:10;}
	.st12{fill:#E5E8E7;stroke:#E5E8E7;stroke-width:3;stroke-miterlimit:10;}
	.st13{fill:#E5E8E7;stroke:#E5E8E7;stroke-width:2;stroke-miterlimit:10;}
	.st14{fill:#FFFFFF;stroke:#FFFFFF;stroke-width:4;stroke-miterlimit:10;}
	.st15{fill:#B0C54B;}
</style>
<g id="XMLID_234_">
	<circle id="XMLID_144_" class="st0" cx="55" cy="483" r="50"/>
	<polygon id="Fill-620" class="st1" points="20.1,455.9 52.8,471.5 91.1,457.8 58.1,442.1 	"/>
	<polygon id="Fill-622" class="st2" points="18.5,508 52,523.9 52,473 18.5,456.9 	"/>
	<polygon id="Fill-624" class="st3" points="57.4,471.5 57.4,494.4 91.5,510.5 91.5,459.4 	"/>
</g>
<g id="XMLID_227_">
	<path id="XMLID_143_" class="st4" d="M160,433L160,433L160,433v100c27.6,0,50-22.4,50-50S187.6,433,160,433z"/>
	<path id="XMLID_142_" class="st4" d="M160,433c-27.6,0-50,22.4-50,50s22.4,50,50,50V433L160,433z"/>
	<path id="XMLID_141_" class="st3" d="M181.4,509.3v-26l-13.9,13.9l-2.1,2.1l-5.3,5.3l-0.1-0.1V533l0,0l0,0c7.7,0,14.9-1.7,21.4-4.8
		c0.5-0.2,1-0.5,1.6-0.8c3.2-1.6,6.2-3.6,8.9-5.9c0.2-0.2,0.4-0.4,0.7-0.6c3.9-3.3,7.3-7.3,10-11.7L181.4,509.3L181.4,509.3z"/>
	<path id="XMLID_140_" class="st0" d="M160,504.5l-5.2-5.2l-2.1-2.1l-14.5-14.5v26.6h-20.7c2.7,4.3,6,8.2,9.8,11.6
		c0.3,0.3,0.6,0.5,0.9,0.8c2.8,2.3,5.7,4.3,8.9,5.9c0.3,0.2,0.7,0.4,1,0.5c6.6,3.2,14,5,21.8,5l0,0V504.5z"/>
	<path id="XMLID_139_" class="st5" d="M204.5,460.2c-1.6-3.2-3.6-6.2-5.9-8.9c-1.8-2.2-3.8-4.3-6-6.2c-3.4-2.9-7.1-5.3-11.2-7.2
		c-6.5-3.1-13.8-4.8-21.4-4.8l0,0l0,0v56.6l0.1,0.1l21.3-21.3l11.2-11.2v42h14.7c1.8-5.1,2.7-10.6,2.7-16.3
		C210,474.8,208,467,204.5,460.2z"/>
	<path id="XMLID_138_" class="st6" d="M160,433c-7.8,0-15.2,1.8-21.8,5c-3.9,1.9-7.6,4.3-10.9,7.2c-2.1,1.8-4,3.8-5.8,6
		c-2.3,2.7-4.3,5.7-5.9,8.9c-3.6,6.9-5.6,14.7-5.6,22.9c0,5.7,1,11.2,2.7,16.3h14.6v-42.3l32.7,32.7V433L160,433z"/>
</g>
<g id="XMLID_220_">
	<path id="XMLID_137_" class="st7" d="M160,327v100c27.6,0,50-22.4,50-50S187.6,327,160,327z"/>
	<path id="XMLID_136_" class="st0" d="M110,377c0,27.6,22.4,50,50,50V327C132.4,327,110,349.4,110,377z"/>
	<polygon id="XMLID_135_" class="st4" points="160,352.2 160,380.4 165.5,380.4 165.5,363.6 183.5,363.6 183.5,352.2 	"/>
	<polygon id="XMLID_134_" class="st2" points="136.1,352.2 136.1,363.6 154.1,363.6 154.1,380.4 160,380.4 160,352.2 	"/>
	<path id="XMLID_133_" class="st4" d="M160,371.1v0.6c14.8,0,26.8,2.4,26.8,5.3s-12,5.2-26.8,5.3v26.4h5.5v-24.1
		c14-0.6,24.6-3.3,24.6-6.7C190.1,374.1,176.6,371.1,160,371.1z"/>
	<path id="XMLID_132_" class="st2" d="M159.9,382.2c-14.9,0-26.9-2.3-26.9-5.3c0-2.9,12.1-5.3,26.9-5.3c0,0,0.1,0,0.1,0v-0.6
		c0,0-0.1,0-0.1,0c-16.7,0-30.2,3-30.2,6.8c0,3.3,10.5,6,24.4,6.6v24.1h5.9L159.9,382.2C160,382.2,159.9,382.2,159.9,382.2z"/>
</g>
<g id="XMLID_206_">
	<path id="XMLID_131_" class="st2" d="M265,327v100c27.6,0,50-22.4,50-50S292.6,327,265,327z"/>
	<path id="XMLID_130_" class="st1" d="M215,377c0,27.6,22.4,50,50,50V327C237.4,327,215,349.4,215,377z"/>
	<path id="XMLID_129_" class="st5" d="M265.8,385.4l-0.8-0.5v2.6C265.3,386.8,265.5,386.1,265.8,385.4z"/>
	<path id="XMLID_128_" class="st5" d="M255.9,378.7c0,0-10.7,8.4-6.5,17.7c0.4,1,1.4,1.7,2.5,1.7c2.9,0.1,9-0.9,13.1-10.6v-2.6
		l-4.1-2.8L255.9,378.7z"/>
	<path id="Fill-642" class="st7" d="M274.6,372.5c0,0,12.9,9.2,2.1,25.9c-0.1,0.1-0.2,0.1-0.2,0c-0.4-1.7-2.5-10.3-9.6-14.4
		L274.6,372.5z"/>
	<path id="XMLID_127_" class="st0" d="M239.8,373.4c-0.1,0.1,0,0.2,0.1,0.2c1.8-0.3,10.5-1.4,17,3.6l7.8-11.5
		C264.6,365.8,251.4,357.3,239.8,373.4z"/>
	<path id="XMLID_126_" class="st8" d="M288.1,341.9c0,0-12.8-2.3-20.5,6.7c-0.8,1-1.7,2.1-2.6,3.3V388c2.3,1.4,5.3,1,7.1-1.1
		c4.8-5.5,13.5-16.1,17.4-23.5C295,352.9,288.1,341.9,288.1,341.9z"/>
	<path id="XMLID_125_" class="st7" d="M252.2,373.4c-1.3,2.5-0.5,5.5,1.8,7.1l5.4,3.7l5.4,3.7c0.1,0,0.1,0.1,0.2,0.1v-36.1
		C260.2,358.5,255,368,252.2,373.4z"/>
	<path id="XMLID_124_" class="st0" d="M288.1,341.9c0,0-1.5-0.3-3.7-0.3c-4.4,0-11.7,1-16.8,6.9c-0.8,1-1.7,2.1-2.6,3.3v3.5
		c1.4-2.1,2.8-4,4.1-5.5c4.7-5.4,11.6-6.2,15.3-6.2c1,0,1.9,0.1,2.5,0.1c1.3,2.6,5,10.9,0.9,18.8c-3.8,7.2-12.4,17.6-17.1,23.1
		c-0.7,0.8-1.6,1.2-2.7,1.2c-0.7,0-1.4-0.2-2-0.6l-1-0.7v2.4c0.9,0.6,1.9,0.8,2.9,0.8c1.6,0,3.1-0.6,4.2-1.9
		c4.8-5.5,13.5-16.1,17.4-23.5C295,352.9,288.1,341.9,288.1,341.9z"/>
	<path id="XMLID_123_" class="st0" d="M260.6,382.5l-5.4-3.7c-1.5-1-2-2.9-1.2-4.5c2.5-4.9,6.8-12.7,11-19v-3.5
		c-4.8,6.6-10,16.1-12.8,21.5c-1.3,2.5-0.5,5.5,1.8,7.1l5.4,3.7l5.4,3.7c0.1,0,0.1,0.1,0.2,0.1v-2.4L260.6,382.5z"/>
	<path id="Fill-650" class="st0" d="M275.1,359.8c-2.5-1.7-3.2-5.2-1.5-7.7s5.2-3.2,7.7-1.5s3.2,5.2,1.5,7.7
		S277.7,361.6,275.1,359.8 M282.5,349c-3.4-2.3-8.1-1.4-10.4,2c-2.3,3.4-1.4,8.1,2,10.4c3.4,2.3,8.1,1.4,10.4-2
		C286.8,356,285.9,351.3,282.5,349"/>
	<polygon id="XMLID_120_" class="st9" points="235.2,412 236,412.5 246,398.3 245.2,397.7 	"/>
	<polygon id="XMLID_119_" class="st9" points="241.2,410.7 242,411.3 247.5,403.3 246.7,402.7 	"/>
</g>
<g id="XMLID_196_">
	<path id="XMLID_118_" class="st6" d="M55,327v100c27.6,0,50-22.4,50-50S82.6,327,55,327z"/>
	<path id="XMLID_117_" class="st10" d="M5,377c0,27.6,22.4,50,50,50V327C27.4,327,5,349.4,5,377z"/>
	<path id="XMLID_116_" class="st11" d="M84.6,364.1l-9.9-6.8c-0.1-0.1-0.2-0.1-0.4-0.2L55,352.6v55.8l29.9-42.8
		C85.3,365.1,85.1,364.4,84.6,364.1z"/>
	<path id="XMLID_115_" class="st12" d="M26.2,345.9c-0.9-0.2-1.6,0.6-1.3,1.5l24.5,65.8c0.3,0.8,1.4,1,1.9,0.3l3.6-5.2v-55.8
		L26.2,345.9z"/>
	<polygon id="XMLID_114_" class="st6" points="81.1,366.6 71.5,360 55,356.2 55,403.9 	"/>
	<polygon id="XMLID_113_" class="st10" points="50.5,410.4 55,403.9 55,356.2 28,350 	"/>
	<path id="XMLID_112_" class="st12" d="M26.9,347c-0.4-0.4-1-0.5-1.4-0.1c-0.4,0.4-0.5,1-0.1,1.4l27.4,31.5L49.5,413
		c-0.1,0.5,0.4,1,0.9,1.1c0,0,0.1,0,0.1,0c0.5,0,1-0.4,1-0.9l3.4-33.6c0-0.3-0.1-0.5-0.2-0.8L26.9,347z"/>
	<path id="XMLID_111_" class="st11" d="M84.6,365.2c-0.2-0.5-0.8-0.7-1.3-0.5l-25.2,11.7l16-17.2c0.4-0.4,0.4-1-0.1-1.4
		c-0.4-0.4-1-0.4-1.4,0.1L55,376.8v3.2l29.1-13.5C84.6,366.3,84.8,365.7,84.6,365.2z"/>
	<path id="XMLID_110_" class="st13" d="M53.1,378.8c-0.3,0.4-0.4,0.9-0.1,1.3c0.2,0.3,0.5,0.4,0.8,0.4c0.1,0,0.3,0,0.4-0.1L55,380
		v-3.2L53.1,378.8z"/>
</g>
<g id="XMLID_170_">
	<path id="XMLID_109_" class="st8" d="M265,433v100c27.6,0,50-22.4,50-50S292.6,433,265,433z"/>
	<path id="XMLID_108_" class="st7" d="M215,483c0,27.6,22.4,50,50,50V433C237.4,433,215,455.4,215,483z"/>
	<polygon id="XMLID_107_" class="st11" points="287.6,463.5 270.8,451.3 265,451.3 265,452.4 270.5,452.4 286.7,464.1 292.9,483.2 
		286.7,502.2 270.5,514 265,514 265,515.1 270.8,515.1 287.6,502.9 294,483.2 	"/>
	<polygon id="XMLID_106_" class="st13" points="250.4,514 234.2,502.2 228,483.2 234.2,464.1 250.4,452.4 265,452.4 265,451.3 
		250.1,451.3 233.3,463.5 226.9,483.2 233.3,502.9 250,515 250.1,515.1 265,515.1 265,514 	"/>
	<path id="XMLID_105_" class="st13" d="M250,449.4c-1.3,0-2.4,1.1-2.4,2.4s1.1,2.4,2.4,2.4s2.4-1.1,2.4-2.4S251.3,449.4,250,449.4z"
		/>
	<path id="Fill-710" class="st11" d="M273,451.8c0,1.3-1.1,2.4-2.4,2.4s-2.4-1.1-2.4-2.4s1.1-2.4,2.4-2.4S273,450.5,273,451.8"/>
	<path id="XMLID_104_" class="st13" d="M250.2,511.8c-1.3,0-2.4,1.1-2.4,2.4s1.1,2.4,2.4,2.4s2.4-1.1,2.4-2.4
		S251.5,511.8,250.2,511.8z"/>
	<path id="XMLID_103_" class="st13" d="M233.7,500.2c-1.3,0-2.4,1.1-2.4,2.4s1.1,2.4,2.4,2.4s2.4-1.1,2.4-2.4S235,500.2,233.7,500.2
		z"/>
	<path id="XMLID_102_" class="st13" d="M227.5,480.8c-1.3,0-2.4,1.1-2.4,2.4s1.1,2.4,2.4,2.4s2.4-1.1,2.4-2.4
		S228.8,480.8,227.5,480.8z"/>
	<path id="XMLID_101_" class="st13" d="M233.7,461.5c-1.3,0-2.4,1.1-2.4,2.4s1.1,2.4,2.4,2.4s2.4-1.1,2.4-2.4S235,461.5,233.7,461.5
		z"/>
	<path id="Fill-720" class="st11" d="M291.1,483.1c0,1.3,1.1,2.4,2.4,2.4s2.4-1.1,2.4-2.4s-1.1-2.4-2.4-2.4S291.1,481.8,291.1,483.1
		"/>
	<path id="Fill-722" class="st11" d="M284.9,463.8c0,1.3,1.1,2.4,2.4,2.4s2.4-1.1,2.4-2.4s-1.1-2.4-2.4-2.4S284.9,462.5,284.9,463.8
		"/>
	<path id="Fill-724" class="st11" d="M273.2,514.2c0,1.3-1.1,2.4-2.4,2.4s-2.4-1.1-2.4-2.4s1.1-2.4,2.4-2.4S273.2,512.9,273.2,514.2
		"/>
	<polygon id="XMLID_100_" class="st11" points="276.4,467.8 265,464.4 265,465.6 276.5,469 286.7,464.6 286.7,501.7 276.5,497.3 
		265,500.8 265,501.9 276.4,498.5 287.8,503.3 287.8,503.3 287.8,463 	"/>
	<polygon id="XMLID_99_" class="st13" points="261.3,501.9 247.9,497.4 247.8,497.3 234.2,501.7 234.2,464.6 247.6,468.9 247.8,469 
		261.3,464.4 265,465.6 265,464.4 261.5,463.3 261.3,463.3 247.8,467.8 233.1,463.1 233.1,503.2 247.8,498.5 261.3,503 265,501.9 
		265,500.8 	"/>
	<polygon id="XMLID_98_" class="st11" points="293.4,482.6 265,482.6 265,483.7 293.4,483.7 	"/>
	<polygon id="XMLID_97_" class="st13" points="227.5,482.6 227.5,483.7 265,483.7 265,482.6 	"/>
	<polygon id="XMLID_96_" class="st11" points="277,468.4 270.8,450.7 265,458.2 265,460 270.4,453 275.8,468.4 269.8,481.7 
		265,470.8 265,473.5 269.2,483 265,492.7 265,495.4 269.8,484.4 275.8,497.9 270.6,513.1 265,506.1 265,507.9 271,515.3 277,497.9 
		270.4,483 	"/>
	<path id="XMLID_177_" class="st13" d="M262,502.4l3-7v-2.7l-3.7,8.4l-7.1-17.9l7.1-17.9l3.7,8.2v-2.7l-3-6.9l3-3.9v-1.8l-3.7,4.8
		l-11.7-12.4l-2.4,17.5l-14.3,15l14.3,15l2.5,17.2l11.5-12.1l3.7,4.6v-1.8L262,502.4z M250.4,453l10.3,11l-7.1,17.7l-5.3-13.4
		L250.4,453z M234.4,483.2l13.1-13.8l5.5,13.8l-5.5,13.7L234.4,483.2z M250.5,513l-2.2-15l5.3-13.3l7.1,17.7L250.5,513z"/>
	<polygon id="Fill-732" class="st11" points="276.9,498.2 276,497.6 286.6,483.2 276,468.7 276.9,468.1 287.9,483.2 	"/>
	<path id="XMLID_91_" class="st13" d="M247.6,466c-1.3,0-2.4,1.1-2.4,2.4s1.1,2.4,2.4,2.4s2.4-1.1,2.4-2.4S248.9,466,247.6,466z"/>
	<path id="XMLID_90_" class="st13" d="M261.3,461.5c-1.3,0-2.4,1.1-2.4,2.4s1.1,2.4,2.4,2.4s2.4-1.1,2.4-2.4
		S262.7,461.5,261.3,461.5z"/>
	<path id="Fill-738" class="st11" d="M278.1,466.7c-0.9-0.9-2.5-0.9-3.4,0s-0.9,2.5,0,3.4s2.5,0.9,3.4,0S279.1,467.6,278.1,466.7"/>
	<path id="XMLID_89_" class="st13" d="M233.7,480.6c-1.3,0-2.4,1.1-2.4,2.4s1.1,2.4,2.4,2.4s2.4-1.1,2.4-2.4S235,480.6,233.7,480.6z
		"/>
	<path id="XMLID_88_" class="st13" d="M253.2,480.6c-1.3,0-2.4,1.1-2.4,2.4s1.1,2.4,2.4,2.4s2.4-1.1,2.4-2.4
		S254.5,480.6,253.2,480.6z"/>
	<path id="Fill-744" class="st11" d="M271.9,483c0-1.3-1.1-2.4-2.4-2.4s-2.4,1.1-2.4,2.4s1.1,2.4,2.4,2.4S271.9,484.3,271.9,483"/>
	<path id="Fill-746" class="st11" d="M289.7,483.2c0-1.3-1.1-2.4-2.4-2.4s-2.4,1.1-2.4,2.4s1.1,2.4,2.4,2.4S289.7,484.5,289.7,483.2
		"/>
	<path id="Fill-748" class="st11" d="M278.8,497.9c0-1.3-1.1-2.4-2.4-2.4s-2.4,1.1-2.4,2.4s1.1,2.4,2.4,2.4S278.8,499.2,278.8,497.9
		"/>
	<path id="Fill-750" class="st11" d="M304.9,510c0-1.9-1.5-3.4-3.4-3.4s-3.4,1.5-3.4,3.4s1.5,3.4,3.4,3.4S304.9,511.9,304.9,510"/>
	<path id="XMLID_87_" class="st13" d="M260.4,500.3c-1.2,0.5-1.8,1.9-1.3,3.1c0.5,1.2,1.9,1.8,3.1,1.3c1.2-0.5,1.8-1.9,1.3-3.1
		C263,500.3,261.6,499.8,260.4,500.3z"/>
	<path id="XMLID_86_" class="st13" d="M246.7,495.7c-1.2,0.5-1.8,1.9-1.3,3.1c0.5,1.2,1.9,1.8,3.1,1.3c1.2-0.5,1.8-1.9,1.3-3.1
		S247.9,495.2,246.7,495.7z"/>
	<polygon id="Fill-756" class="st14" points="301.3,510.5 286.9,503.1 287.4,502.1 301.8,509.5 	"/>
</g>
<g id="XMLID_149_">
	<path id="XMLID_85_" class="st7" d="M160,221v4.2c25.3,0,45.8,20.6,45.8,45.8s-20.6,45.8-45.8,45.8v4.2c27.6,0,50-22.4,50-50
		S187.6,221,160,221z"/>
	<path id="XMLID_84_" class="st0" d="M114.2,271c0-25.3,20.6-45.8,45.8-45.8V221c-27.6,0-50,22.4-50,50s22.4,50,50,50v-4.2
		C134.7,316.8,114.2,296.3,114.2,271z"/>
	<path id="XMLID_83_" class="st8" d="M191.5,252.4c-1.1-1.9-2.4-3.7-3.9-5.4L160,274.7v9.3L191.5,252.4z"/>
	<path id="XMLID_82_" class="st7" d="M141.4,302.5l18.6-18.6v-9.3l-23.9,23.9C137.8,300.1,139.6,301.4,141.4,302.5z"/>
	<path id="XMLID_81_" class="st8" d="M183.4,242.9c-1.7-1.4-3.6-2.7-5.5-3.8L160,257v9.2L183.4,242.9z"/>
	<path id="XMLID_80_" class="st7" d="M131.9,294.4l28.1-28.1V257l-31.9,31.9C129.2,290.8,130.4,292.7,131.9,294.4z"/>
	<path id="XMLID_79_" class="st8" d="M172.1,236.5c-2.4-0.9-4.9-1.4-7.5-1.8l-4.6,4.6v9.2L172.1,236.5z"/>
	<path id="XMLID_78_" class="st7" d="M125.5,283.1l34.5-34.5v-9.2l-36.3,36.3C124.1,278.2,124.6,280.7,125.5,283.1z"/>
	<path id="XMLID_77_" class="st7" d="M123.6,267.4l32.8-32.8c-8.1,0.8-16,4.3-22.2,10.5S124.4,259.2,123.6,267.4z"/>
	<path id="XMLID_76_" class="st8" d="M196.1,265.4c-0.4-2.5-1-4.9-1.9-7.3L160,292.3v9.2L196.1,265.4z"/>
	<path id="XMLID_75_" class="st7" d="M154.4,307.1l5.6-5.6v-9.2l-12.9,12.9C149.5,306.1,152,306.8,154.4,307.1z"/>
	<path id="Fill-498" class="st8" d="M196.5,273.5l-33.9,33.9c8.5-0.6,16.9-4.1,23.3-10.6C192.4,290.4,195.9,282,196.5,273.5"/>
	<polygon id="XMLID_74_" class="st2" points="171.6,258.7 171.6,249.3 160,257.7 160,267 	"/>
	<rect id="XMLID_73_" x="160" y="283.8" class="st2" width="29.5" height="11.7"/>
	<polygon id="XMLID_72_" class="st2" points="162,240.2 160,240.2 160,254.7 	"/>
	<polygon id="XMLID_71_" class="st1" points="155.9,283.8 158.1,268.4 160,267 160,257.7 159.5,258 160,254.7 160,240.2 
		147.2,240.2 144.1,269.1 134.6,275.9 134.6,285.3 142.9,279.3 141.2,295.5 155.9,295.5 160,295.5 160,283.8 	"/>
	<polygon id="XMLID_70_" class="st7" points="190.6,282.7 160,282.7 160,284.9 188.4,284.9 188.4,294.4 160,294.4 160,296.6 
		190.6,296.6 	"/>
	<polygon id="XMLID_69_" class="st7" points="160.7,241.4 160,246.4 160,259.1 170.5,251.5 170.5,258.1 160,265.6 160,268.4 
		172.7,259.2 172.7,247.1 161,255.6 163.3,239.1 160,239.1 160,241.4 	"/>
	<polygon id="XMLID_68_" class="st0" points="142.4,294.4 144.3,276.9 135.8,283.1 135.8,276.5 145.1,269.8 148.2,241.4 160,241.4 
		160,239.1 146.2,239.1 143,268.5 133.5,275.3 133.5,287.4 141.6,281.7 139.9,296.6 160,296.6 160,294.4 	"/>
	<polygon id="XMLID_67_" class="st7" points="157,267.8 154.6,284.9 160,284.9 160,282.7 157.2,282.7 159.1,269 160,268.4 
		160,265.6 	"/>
	<polygon id="XMLID_66_" class="st7" points="160,259.1 160,246.4 158,260.5 	"/>
</g>
<g id="XMLID_145_">
	<path id="XMLID_65_" class="st7" d="M265,221v100c27.6,0,50-22.4,50-50S292.6,221,265,221z"/>
	<path id="XMLID_64_" class="st0" d="M215,271c0,27.6,22.4,50,50,50V221C237.4,221,215,243.4,215,271z"/>
	<polygon id="XMLID_63_" class="st1" points="265,287.8 265,265.1 243.5,277.1 	"/>
	<polygon id="XMLID_62_" class="st2" points="243.5,277.1 265,265.1 265,234.1 	"/>
	<polygon id="XMLID_61_" class="st1" points="265,234.1 265,265.1 286.5,277.1 	"/>
	<polygon id="XMLID_60_" class="st3" points="286.5,277.1 265,265.1 265,287.8 	"/>
	<polygon id="Fill-509" class="st2" points="243.5,279.9 265,290.6 265,307.9 	"/>
	<polygon id="Fill-510" class="st1" points="286.5,279.9 265,307.9 265,290.6 	"/>
</g>
<g id="XMLID_228_">
	<path id="XMLID_59_" class="st7" d="M55,221v100c27.6,0,50-22.4,50-50S82.6,221,55,221z"/>
	<path id="XMLID_58_" class="st0" d="M5,271c0,27.6,22.4,50,50,50V221C27.4,221,5,243.4,5,271z"/>
	<path id="XMLID_215_" class="st4" d="M84.9,296.5l-9.5-42.2c0-0.1-0.1-0.3-0.2-0.4l-19.3-26.6c-0.2-0.3-0.5-0.4-0.9-0.4h0v21.4
		l12.9,22.7L55,310.6v4.6h0c0.1,0,0.1,0,0.2,0c0,0,0,0,0.1,0c0,0,0.1,0,0.1,0s0,0,0.1,0c0,0,0.1,0,0.1,0c0,0,0,0,0.1,0s0,0,0,0
		l28.8-17.4C84.8,297.4,85,296.9,84.9,296.5z M81.2,289.9l-10.9-19.2l3.9-12.1L81.2,289.9z M56.1,245.7v-14.6l17.1,23.5l-4.4,13.4
		L56.1,245.7z M56.9,311.7l12.4-38.3l13,22.9L56.9,311.7z"/>
	<path id="XMLID_210_" class="st2" d="M42.1,270.9L55,248.2v-21.4c-0.4,0-0.6,0.2-0.9,0.4l-19.3,26.6c-0.1,0.1-0.2,0.3-0.2,0.4
		l-9.5,42.2c-0.1,0.4,0.1,0.9,0.5,1.2l28.8,17.4c0,0,0,0,0,0c0,0,0,0,0.1,0c0,0,0.1,0,0.1,0c0,0,0,0,0.1,0c0,0,0.1,0,0.1,0
		s0,0,0.1,0c0.1,0,0.1,0,0.1,0v-4.6L42.1,270.9z M53.9,231.2v14.6l-12.7,22.4l-4.4-13.4L53.9,231.2z M35.8,258.6l3.9,12.1
		l-10.9,19.2L35.8,258.6z M27.7,296.3l13-22.9l12.4,38.3L27.7,296.3z"/>
</g>
<g id="XMLID_229_">
	<path id="XMLID_49_" class="st2" d="M160,115v100c27.6,0,50-22.4,50-50S187.6,115,160,115z"/>
	<path id="XMLID_48_" class="st1" d="M110,165c0,27.6,22.4,50,50,50V115C132.4,115,110,137.4,110,165z"/>
	<polygon id="XMLID_47_" class="st5" points="160,155.2 160,174.8 169.8,165 	"/>
	<polygon id="XMLID_46_" class="st6" points="150.2,165 160,174.8 160,155.2 	"/>
	<polygon id="Fill-162" class="st5" points="182.3,165 182.3,165 191.4,174.1 200.5,165 191.3,155.8 182.2,164.9 	"/>
	<polygon id="XMLID_45_" class="st5" points="160,124.5 160,142.7 176,158.7 185.1,149.6 	"/>
	<polygon id="XMLID_44_" class="st6" points="135.1,149.4 144.2,158.5 160,142.7 160,124.5 	"/>
	<polygon id="XMLID_43_" class="st5" points="176.1,171.2 160,187.3 160,205.5 185.2,180.3 	"/>
	<polygon id="XMLID_42_" class="st6" points="144.1,171.4 135,180.5 160,205.5 160,187.3 	"/>
	<polygon id="XMLID_41_" class="st6" points="128.9,155.6 119.5,165 128.8,174.3 137.9,165.2 137.7,165 138,164.7 	"/>
</g>
<g id="XMLID_230_">
	<path id="XMLID_40_" class="st15" d="M265,115v100c27.6,0,50-22.4,50-50S292.6,115,265,115z"/>
	<path id="XMLID_39_" class="st15" d="M215,165c0,27.6,22.4,50,50,50V115C237.4,115,215,137.4,215,165z"/>
	<path id="XMLID_38_" class="st4" d="M289.8,163c-1.6-3.2-4.4-5.3-7.6-6.3c1-3.1,0.9-6.7-0.8-9.8c-1.5-3-4.2-5.3-7.4-6.3
		c-3-1-6.2-0.8-9.1,0.5v8l2.7-1.4c1.3-0.7,2.8-0.8,4.2-0.4c1.4,0.4,2.5,1.4,3.2,2.7c1.4,2.7,0.4,6-2.3,7.4l-7.8,4.1v8.1l11.1-5.8
		c2.7-1.4,6-0.4,7.4,2.3c0.7,1.3,0.8,2.8,0.4,4.2c-0.4,1.4-1.4,2.5-2.7,3.2l-13,6.8l-3.1-6v18.7l2.4,4.5l1.5-0.8l6-3.1l-3.6-6.9
		l5.3-2.8l3.6,6.9l6.2-3.2l-3.6-6.9l1.7-0.9c1.1-0.6,2.1-1.3,3-2.1c1.5-1.4,2.6-3.2,3.2-5.3C291.7,169.4,291.4,166,289.8,163z"/>
	<path id="XMLID_37_" class="st2" d="M263,170.7l2-1v-8.1l-5.3,2.7l-5.1-9.7l10.3-5.4v-8c-0.2,0.1-0.4,0.2-0.6,0.3l-1.7,0.9
		l-4.2-8.1l-6.2,3.2l4.2,8.1l-5.3,2.8l-4.2-8.1l-1.5,0.8l-6,3.1l4.1,7.8l-7.3,3.8l3.6,6.9l7.3-3.8l13.1,25.3l-7.3,3.8l3.6,6.9
		l7.3-3.8l1.1,2.1v-18.7L263,170.7z"/>
</g>
<g id="XMLID_231_">
	<path id="XMLID_36_" class="st2" d="M55,115v100c27.6,0,50-22.4,50-50S82.6,115,55,115z"/>
	<path id="XMLID_35_" class="st1" d="M5,165c0,27.6,22.4,50,50,50V115C27.4,115,5,137.4,5,165z"/>
	<path id="Fill-579" class="st8" d="M59.2,147.4c-3,1.7-4,5.5-2.3,8.5c1.7,3,5.5,4,8.5,2.3c3-1.7,4-5.5,2.3-8.5
		C66,146.7,62.2,145.7,59.2,147.4"/>
	<path id="XMLID_34_" class="st8" d="M59.2,138.4c-0.9-1.5-2.5-2.3-4.2-2.2v8.8c0.9,0.1,1.7-0.1,2.6-0.6
		C59.7,143.2,60.4,140.5,59.2,138.4z"/>
	<path id="XMLID_33_" class="st7" d="M53.2,136.8c-2.1,1.2-2.9,3.9-1.6,6c0.7,1.3,2.1,2.1,3.5,2.2v-8.8
		C54.4,136.3,53.8,136.4,53.2,136.8z"/>
	<path id="XMLID_32_" class="st8" d="M59.2,187.7c-0.9-1.5-2.5-2.3-4.2-2.2v8.8c0.9,0.1,1.7-0.1,2.6-0.6
		C59.7,192.5,60.4,189.8,59.2,187.7z"/>
	<path id="XMLID_31_" class="st7" d="M53.2,186c-2.1,1.2-2.9,3.9-1.6,6c0.7,1.3,2.1,2.1,3.5,2.2v-8.8
		C54.4,185.5,53.8,185.7,53.2,186z"/>
	<path id="Fill-582" class="st8" d="M74.4,148.9c-2.1,1.2-2.9,3.9-1.6,6c1.2,2.1,3.9,2.9,6,1.6c2.1-1.2,2.9-3.9,1.6-6
		C79.2,148.5,76.5,147.8,74.4,148.9"/>
	<path id="XMLID_30_" class="st7" d="M31.5,173.6c-2.1,1.2-2.9,3.9-1.6,6c1.2,2.1,3.9,2.9,6,1.6c2.1-1.2,2.9-3.9,1.6-6
		C36.3,173.1,33.6,172.4,31.5,173.6z"/>
	<path id="XMLID_29_" class="st7" d="M31.2,148.9c-2.1,1.2-2.9,3.9-1.6,6c1.2,2.1,3.9,2.9,6,1.6c2.1-1.2,2.9-3.9,1.6-6
		C36,148.5,33.3,147.8,31.2,148.9z"/>
	<path id="Fill-585" class="st8" d="M74.4,173.3c-2.1,1.2-2.9,3.9-1.6,6c1.2,2.1,3.9,2.9,6,1.6c2.1-1.2,2.9-3.9,1.6-6
		C79.2,172.9,76.5,172.1,74.4,173.3"/>
	<path id="Fill-586" class="st8" d="M85.6,162.1c-1.7,1-2.3,3.1-1.3,4.8c1,1.7,3.1,2.3,4.8,1.3c1.7-1,2.3-3.1,1.3-4.8
		C89.4,161.7,87.3,161.1,85.6,162.1"/>
	<path id="XMLID_28_" class="st7" d="M20.9,162.1c-1.7,1-2.3,3.1-1.3,4.8c1,1.7,3.1,2.3,4.8,1.3c1.7-1,2.3-3.1,1.3-4.8
		C24.8,161.7,22.6,161.1,20.9,162.1z"/>
	<path id="Fill-588" class="st8" d="M68,137.2c0,1.9,1.5,3.5,3.5,3.6c1.9,0,3.5-1.5,3.6-3.5c0-1.9-1.5-3.5-3.4-3.6
		C69.6,133.8,68,135.3,68,137.2"/>
	<path id="XMLID_27_" class="st7" d="M38.6,189.4c-2,0-3.6,1.5-3.6,3.5c0,1.9,1.5,3.5,3.5,3.6c1.9,0,3.5-1.5,3.6-3.5
		C42,191,40.5,189.4,38.6,189.4z"/>
	<path id="XMLID_26_" class="st7" d="M40.4,134.2c-1.7-1-3.8-0.4-4.8,1.3c-1,1.7-0.4,3.8,1.3,4.8c1.7,1,3.8,0.4,4.8-1.3
		C42.7,137.3,42.1,135.1,40.4,134.2z"/>
	<path id="Fill-591" class="st8" d="M69.6,196c1.7,1,3.8,0.4,4.8-1.3c1-1.7,0.4-3.8-1.3-4.8s-3.8-0.4-4.8,1.3S67.9,195.1,69.6,196"
		/>
	<path id="Fill-592" class="st8" d="M66.3,159.9c-3,1.7-4,5.5-2.3,8.5c1.7,3,5.5,4,8.5,2.3s4-5.5,2.3-8.5
		C73.1,159.2,69.3,158.1,66.3,159.9"/>
	<path id="Fill-593" class="st8" d="M59.2,172.3c-3,1.7-4,5.5-2.3,8.5c1.7,3,5.5,4,8.5,2.3c3-1.7,4-5.5,2.3-8.5
		C66,171.7,62.2,170.6,59.2,172.3"/>
	<path id="XMLID_25_" class="st7" d="M50.8,147.4c-3-1.7-6.8-0.6-8.5,2.3s-0.7,6.8,2.3,8.5c3,1.7,6.8,0.6,8.5-2.3
		C54.9,152.9,53.8,149.1,50.8,147.4z"/>
	<path id="XMLID_24_" class="st7" d="M43.7,159.9c-3-1.7-6.8-0.7-8.5,2.3c-1.7,3-0.7,6.8,2.3,8.5c3,1.7,6.8,0.7,8.5-2.3
		C47.7,165.4,46.7,161.6,43.7,159.9z"/>
	<path id="XMLID_23_" class="st7" d="M50.8,172.3c-3-1.7-6.8-0.7-8.5,2.3c-1.7,3-0.7,6.8,2.3,8.5c3,1.7,6.8,0.7,8.5-2.3
		C54.9,177.9,53.8,174,50.8,172.3z"/>
	<path id="XMLID_22_" class="st8" d="M57.7,125.8c0-1.5-1.2-2.7-2.7-2.8v5.5C56.5,128.5,57.7,127.3,57.7,125.8z"/>
	<path id="XMLID_21_" class="st7" d="M54.9,123c-1.5,0-2.8,1.2-2.8,2.8s1.2,2.8,2.8,2.8c0,0,0.1,0,0.1,0L54.9,123
		C55,123,54.9,123,54.9,123z"/>
	<path id="XMLID_20_" class="st8" d="M57.7,204.2c0-1.5-1.2-2.7-2.7-2.8v5.5C56.5,206.9,57.7,205.7,57.7,204.2z"/>
	<path id="XMLID_19_" class="st7" d="M54.9,201.4c-1.5,0-2.8,1.2-2.8,2.8s1.2,2.8,2.8,2.8c0,0,0.1,0,0.1,0L54.9,201.4
		C55,201.4,54.9,201.4,54.9,201.4z"/>
	<path id="XMLID_18_" class="st7" d="M22.2,143.2c-1.3-0.8-3-0.3-3.8,1c-0.7,1.3-0.3,3,1,3.8s3,0.3,3.8-1S23.5,143.9,22.2,143.2z"/>
	<path id="Fill-600" class="st8" d="M90.4,182c1.3,0.7,1.8,2.4,1,3.8c-0.7,1.3-2.4,1.8-3.8,1c-1.3-0.7-1.8-2.4-1-3.8
		C87.4,181.7,89,181.3,90.4,182"/>
	<path id="XMLID_17_" class="st7" d="M19.5,182c-1.3,0.7-1.8,2.4-1,3.8c0.7,1.3,2.4,1.8,3.8,1c1.3-0.7,1.8-2.4,1-3.8
		C22.5,181.7,20.8,181.3,19.5,182z"/>
	<path id="Fill-602" class="st8" d="M87.6,143.2c1.3-0.7,3-0.3,3.8,1s0.3,3-1,3.8c-1.3,0.7-3,0.3-3.8-1
		C85.9,145.6,86.3,143.9,87.6,143.2"/>
	<path id="XMLID_16_" class="st7" d="M32.9,125.3c-1.2,0-2.3,1-2.3,2.2s1,2.2,2.3,2.2c1.2,0,2.2-1,2.2-2.2S34.1,125.3,32.9,125.3z"
		/>
	<path id="Fill-604" class="st8" d="M79.4,202.6c0,1.3-1,2.2-2.2,2.2c-1.2,0-2.3-1-2.3-2.2c0-1.3,1-2.2,2.3-2.2
		C78.4,200.3,79.4,201.3,79.4,202.6"/>
	<path id="Fill-605" class="st8" d="M78.1,129.5c-1.1,0.6-2.5,0.2-3.1-0.9c-0.6-1.1-0.2-2.5,0.9-3.1s2.5-0.2,3.1,0.9
		C79.6,127.5,79.2,128.8,78.1,129.5"/>
	<path id="XMLID_15_" class="st7" d="M31.9,200.6c-1.1,0.6-1.5,2-0.9,3.1c0.6,1.1,2,1.5,3.1,0.9c1.1-0.6,1.5-2,0.9-3.1
		C34.4,200.4,33,200,31.9,200.6z"/>
	<path id="Fill-607" class="st8" d="M97.4,166.9c-1.1-0.6-1.4-2-0.8-3.1c0.6-1.1,2-1.4,3.1-0.8c1.1,0.6,1.4,2,0.8,3.1
		C99.8,167.1,98.5,167.5,97.4,166.9"/>
	<path id="XMLID_14_" class="st7" d="M12.6,163.2c-1.1-0.6-2.5-0.3-3.1,0.8c-0.6,1.1-0.3,2.5,0.8,3.1s2.4,0.3,3.1-0.8
		C14.1,165.2,13.7,163.8,12.6,163.2z"/>
</g>
<g id="XMLID_232_">
	<path id="XMLID_13_" class="st8" d="M160,9v100c27.6,0,50-22.4,50-50S187.6,9,160,9z"/>
	<path id="XMLID_12_" class="st7" d="M110,59c0,27.6,22.4,50,50,50V9C132.4,9,110,31.4,110,59z"/>
	<path id="XMLID_11_" class="st4" d="M191.4,42.5c-2-2.8-5.3-4.5-8.7-4.5H160v10.8h22.6l-7.1,20.4H160V80h15.5
		c4.6,0,8.7-2.9,10.1-7.2l7.1-20.6C193.9,48.9,193.4,45.3,191.4,42.5z"/>
	<polygon id="XMLID_10_" class="st2" points="135.4,69.2 132,80 160,80 160,69.2 	"/>
	<polygon id="XMLID_9_" class="st2" points="141.7,48.7 160,48.7 160,37.9 145.1,37.9 	"/>
	<polygon id="XMLID_8_" class="st2" points="126.6,64.4 155.7,64.4 158.9,54.2 158.9,53.6 130,53.6 	"/>
</g>
<g id="XMLID_147_">
	<path id="XMLID_7_" class="st5" d="M55,9v100c27.6,0,50-22.4,50-50S82.6,9,55,9z"/>
	<path id="XMLID_6_" class="st6" d="M5,59c0,27.6,22.4,50,50,50V9C27.4,9,5,31.4,5,59z"/>
	<path id="XMLID_5_" class="st4" d="M78.2,48.6c-1.6-3-4.3-5.1-7.5-6.1L68.8,42l2.6-8.8l-6.7-2L62.1,40l-5.7-1.7l2.6-8.8L57.4,29
		L55,28.3v17l13.6,4.1c1.4,0.4,2.6,1.4,3.3,2.7c0.7,1.3,0.9,2.8,0.4,4.2c-0.9,2.9-3.9,4.6-6.8,3.7L55,56.8v7.5l8.5,2.5
		c2.9,0.9,4.6,3.9,3.7,6.8c-0.4,1.4-1.4,2.6-2.7,3.3s-2.8,0.9-4.2,0.4L55,75.7v12.5l1.4-4.6l1.9,0.6c1.2,0.4,2.4,0.5,3.6,0.5
		c2.1,0,4.1-0.5,6-1.5c3-1.6,5.1-4.3,6.1-7.5c1-3.4,0.5-6.9-1.1-9.8c2.9-1.5,5.3-4.2,6.3-7.6C80.2,55,79.8,51.6,78.2,48.6z"/>
	<polygon id="XMLID_4_" class="st2" points="46.2,73.1 49.4,62.6 55,64.3 55,56.8 51.4,55.7 54.6,45.2 55,45.3 55,28.3 50.9,27.1 
		48.4,35.5 40.5,33.2 38.2,40.7 46.2,43 38,70.3 30.1,68 27.9,75.5 35.8,77.8 33.7,85 35.3,85.4 41.8,87.4 44,79.9 49.7,81.6 
		47.5,89.1 54.2,91.1 55,88.2 55,75.7 	"/>
</g>
<g id="XMLID_1_">
	<path id="XMLID_3_" class="st15" d="M265,9c-27.6,0-50,22.4-50,50s22.4,50,50,50s50-22.4,50-50S292.6,9,265,9"/>
	<path id="XMLID_2_" class="st4" d="M265,12.9v92.1c25.4,0,46.1-20.6,46.1-46.1S290.4,12.9,265,12.9z"/>
	<path id="XMLID_146_" class="st2" d="M218.9,59c0,25.4,20.6,46.1,46.1,46.1V12.9C239.6,12.9,218.9,33.6,218.9,59z"/>
	<polygon id="Fill-616" class="st15" points="288.5,54.2 264.9,16.8 240.5,54.2 264.9,44.2 	"/>
	<polygon id="Fill-617" class="st15" points="241.5,64.5 265.1,101.2 289.5,64.5 265.1,79.1 	"/>
	<polygon id="Fill-618" class="st15" points="289.5,59.7 264.9,49.5 240.5,59.7 264.9,74.3 	"/>
</g>
</svg>
