<?xml version="1.0" encoding="utf-8"?>
<!-- Generator: Adobe Illustrator 19.0.0, SVG Export Plug-In . SVG Version: 6.00 Build 0)  -->
<svg version="1.1" id="Layer_1" xmlns="http://www.w3.org/2000/svg" xmlns:xlink="http://www.w3.org/1999/xlink" x="0px" y="0px"
	 viewBox="0 0 320 540" style="enable-background:new 0 0 320 540;" xml:space="preserve">
<style type="text/css">
	.st0{fill:#52A7B5;}
	.st1{fill:#355356;}
	.st2{fill:#148A9D;}
	.st3{fill:#97A6A8;}
	.st4{fill:#E5E8E7;}
	.st5{fill:#CAD1D2;}
	.st6{fill:#B0C54B;}
	.st7{fill:#D3813C;}
	.st8{fill:#CB6542;}
</style>
<g id="XMLID_163_">
	<polygon id="XMLID_209_" class="st0" points="12.3,204.2 46.8,256 61,259.8 78,256 42.7,204.2 	"/>
	<polygon id="XMLID_208_" class="st1" points="78,256 46.8,256 10.7,307.8 41.1,307.8 	"/>
	<polygon id="XMLID_207_" class="st2" points="87.3,204.2 84.8,204.2 84.8,246.1 91.4,256 105.9,260 122.6,256 	"/>
	<polygon id="XMLID_205_" class="st0" points="56.9,204.2 84.8,246.1 84.8,204.2 	"/>
	<path id="XMLID_204_" class="st3" d="M126.8,204.2h30.4L129.5,246l-15.6-22.9L126.8,204.2z"/>
	<path id="XMLID_203_" class="st4" d="M101.1,204.2h11.7l-5.8,8.7L101.1,204.2z"/>
	<path id="XMLID_202_" class="st3" d="M128.6,307.8H159l-29.3-42.3l-15.7,21.8L128.6,307.8z"/>
	<path id="XMLID_201_" class="st5" d="M99.2,307.8h15.3l-7.5-10.7L99.2,307.8z"/>
	<polygon id="XMLID_200_" class="st2" points="122.6,256 91.4,256 84.8,265.4 84.8,307.8 85.4,307.8 	"/>
	<polygon id="XMLID_199_" class="st1" points="55.3,307.8 84.8,307.8 84.8,265.4 	"/>
</g>
<g id="XMLID_164_">
	<path id="XMLID_198_" class="st0" d="M103.1,401.2l27.7,27.7c4.9,4.9,12.8,4.9,17.7,0c4.9-4.9,4.9-12.8,0-17.7l-36.6-36.6
		c-4.9-4.9-12.9-4.8-17.7,0l-9.9,9.9v35.5L103.1,401.2z"/>
	<path id="XMLID_197_" class="st0" d="M90.5,445.1c0,6.9,5.6,12.5,12.5,12.5c6.9,0,12.5-5.6,12.5-12.5c0-6.9-5.6-12.5-12.5-12.5
		C96.1,432.5,90.5,438.2,90.5,445.1z"/>
	<path id="XMLID_195_" class="st0" d="M148.5,461.3c-4.9-4.9-12.8-4.9-17.7,0L103.1,489l-18.8-18.8v35.5l9.9,9.9
		c4.8,4.8,12.9,4.9,17.7,0l36.6-36.6C153.4,474.1,153.4,466.2,148.5,461.3z"/>
	<path id="XMLID_194_" class="st2" d="M59.1,445.1L59.1,445.1L59.1,445.1z"/>
	<path id="XMLID_193_" class="st2" d="M59.1,445.1L59.1,445.1L59.1,445.1L59.1,445.1L84.3,420v-35.5l-42.8,42.8V396
		c0-6.9-5.6-12.5-12.5-12.5s-12.5,5.6-12.5,12.5v98.2c0,6.9,5.6,12.5,12.5,12.5c6.9,0,12.5-5.6,12.5-12.5v-31.4l42.8,42.8v-35.5
		L59.1,445.1z"/>
</g>
<g id="XMLID_165_">
	<path id="XMLID_192_" class="st0" d="M304.8,72.6c-6.3-17.8-20-33-37.1-41.4c-10.1-5.1-21.4-7.7-32.8-7.7v63.7c0.5,0,1,0,1.5,0.1
		c4.8,0.6,8.9,5.1,9,10c0,9.8,0,19.5,0,29.2c-0.1,2.8-0.3,5.9,1.4,8.4c2.2,4.2,7.4,6.2,12,5c3.5-1,6.3-3.7,7.3-7.2
		c0.6-1.7,0.5-3.6,0.5-5.4c0-9.8,0-19.6,0-29.4c0.1-4.2,3-8.3,7-9.7c4.6-1.9,10.5,0.3,12.9,4.7c1.5,2.3,1.5,5.3,1.4,8.1
		c0,9.7,0,19.3,0,29c0,4.8,3.7,9.3,8.4,10.2c2.1,0.4,4.5,0.3,6.6-0.8c3-1.4,5.2-4.2,5.9-7.3c0.3-1.2,0.3-2.6,0.3-3.9V97.3
		C309.2,88.8,307.7,80.5,304.8,72.6z"/>
	<path id="XMLID_191_" class="st2" d="M230.2,23.7c-15.1,0.9-29.9,6.6-41.4,16.2c-7.8,6.2-14.4,14-19.1,22.8
		c-5.8,10.8-8.9,22.9-8.9,35.1v32.2c0,3.3,1.6,6.6,4.3,8.4c3.7,2.8,9.5,2.6,13.1-0.5c2.3-2,3.7-5.1,3.7-8.2V97.9
		c0-1.9,0.5-3.7,1.4-5.3c2.2-4,7-6.1,11.3-5.2c4.7,0.9,8.5,5.3,8.5,10.2c0,9.8,0,19.6,0,29.4c0,2.2-0.1,4.3,0.6,6.4
		c1.4,4.1,5.7,7.2,10.2,7c4.3,0.1,8.4-2.8,9.8-7c0.9-2.2,0.6-4.7,0.6-7.1V97.8c0-2.8,1.1-5.7,3.2-7.7c2-1.9,4.7-3,7.4-3V23.5
		C233.4,23.5,231.8,23.5,230.2,23.7z"/>
</g>
<g id="XMLID_166_">
	<polygon id="XMLID_190_" class="st0" points="264.7,462.7 278.2,462.7 278.2,402.5 238.3,402.5 238.3,416.9 264.7,416.9 	"/>
	<polygon id="XMLID_189_" class="st0" points="292.7,384.4 292.7,471.2 238.3,471.2 238.3,485.7 306.2,485.7 306.2,369.9 
		238.3,369.9 238.3,384.4 	"/>
	<polygon id="XMLID_188_" class="st0" points="278.2,518.2 278.2,494.3 264.7,494.3 264.7,503.8 238.3,503.8 238.3,518.2 	"/>
	<polygon id="XMLID_187_" class="st2" points="211.9,471.2 211.9,424.5 198.4,424.5 198.4,485.7 238.3,485.7 238.3,471.2 	"/>
	<polygon id="XMLID_186_" class="st2" points="211.9,392.9 211.9,384.4 238.3,384.4 238.3,369.9 198.4,369.9 198.4,392.9 	"/>
	<polygon id="XMLID_185_" class="st2" points="183.9,416.9 238.3,416.9 238.3,402.5 170.4,402.5 170.4,518.2 238.3,518.2 
		238.3,503.8 183.9,503.8 	"/>
</g>
<g id="XMLID_167_">
	<path id="XMLID_184_" class="st6" d="M308.3,188.8L308.3,188.8c-0.4-0.2-32.8-4.6-72.3,9.1v62C278.2,230.4,307.1,190.5,308.3,188.8
		z"/>
	<path id="XMLID_183_" class="st6" d="M308.3,188.8c-1,2.2-26,57-72.3,93.8v49.7c10.6-2.8,22.2-7.9,34.8-16.6
		C313.4,282.6,312.4,210.6,308.3,188.8z"/>
	<path id="XMLID_182_" class="st6" d="M167.4,314.1L167.4,314.1c5.4,5.7,29.7,28.4,68.5,18.2v-49.7
		C216.7,297.9,193.8,310.1,167.4,314.1z"/>
	<path id="XMLID_181_" class="st6" d="M162.1,290.7c26.8-3,52.1-15.5,73.9-30.7v-62c-12,4.2-24.7,10-37.3,18.1
		C165,237.7,160.5,269.5,162.1,290.7z"/>
	<path id="XMLID_180_" class="st6" d="M308.3,188.8L308.3,188.8c-0.4-0.2-32.8-4.6-72.3,9.1v62C278.2,230.4,307.1,190.5,308.3,188.8
		z"/>
	<path id="XMLID_179_" class="st6" d="M198.7,216.1c-33.7,21.7-38.1,53.4-36.6,74.6c26.8-3,52.1-15.5,73.9-30.7v-62
		C224,202.1,211.3,207.9,198.7,216.1z"/>
</g>
<g id="XMLID_168_">
	<polygon id="XMLID_178_" class="st7" points="129.6,56.9 84,11.3 84,44.8 112.8,73.7 	"/>
	<polygon id="XMLID_176_" class="st8" points="84,11.3 38.4,56.9 55.2,73.6 84,44.8 84,44.8 	"/>
	
		<rect id="XMLID_175_" x="14.8" y="73.6" transform="matrix(-0.7071 -0.7071 0.7071 -0.7071 -15.021 164.6989)" class="st8" width="23.7" height="23.7"/>
	<polygon id="XMLID_174_" class="st7" points="112.8,97.3 84,126.1 84,159.6 84,159.6 84,159.6 129.6,114.1 129.6,114 	"/>
	<polygon id="XMLID_173_" class="st8" points="84,126.1 84,126.1 55.2,97.3 38.4,114 38.4,114.1 84,159.6 84,159.6 	"/>
	
		<rect id="XMLID_172_" x="129.6" y="73.6" transform="matrix(-0.7071 0.7071 -0.7071 -0.7071 301.8324 45.947)" class="st7" width="23.7" height="23.7"/>
	<polygon id="XMLID_171_" class="st7" points="101,85.5 101,85.5 101,85.5 84,68.5 84,102.5 	"/>
	<polygon id="XMLID_169_" class="st8" points="84,68.5 71.4,81 71.4,81 70,82.5 67,85.4 67,85.5 67,85.5 84,102.5 84,102.5 	"/>
</g>
</svg>
