<?xml version="1.0" encoding="utf-8"?>
<!-- Generator: Adobe Illustrator 19.0.0, SVG Export Plug-In . SVG Version: 6.00 Build 0)  -->
<svg version="1.1" id="Layer_1" xmlns="http://www.w3.org/2000/svg" xmlns:xlink="http://www.w3.org/1999/xlink" x="0px" y="0px"
	 viewBox="0 0 320 540" style="enable-background:new 0 0 320 540;" xml:space="preserve">
<style type="text/css">
	.st0{fill:#C23F46;}
	.st1{fill:#52A7B5;}
	.st2{fill:#EAC7A8;}
	.st3{fill:#B0C54B;}
	.st4{fill:#97A6A8;}
	.st5{fill:#010002;}
	.st6{fill:#FFFFFF;}
	.st7{fill:#D3813C;}
</style>
<g id="XMLID_221_">
	<polygon id="XMLID_225_" class="st0" points="85,220.3 146.5,211.8 146.5,271.2 85,271.2 	"/>
	<polygon id="XMLID_224_" class="st1" points="85,329 146.5,337.5 146.5,278.8 85,278.8 	"/>
	<polygon id="XMLID_223_" class="st2" points="153.2,338.4 235,349.7 235,278.8 153.2,278.8 	"/>
	<polygon id="XMLID_222_" class="st3" points="153.2,210.9 153.2,271.2 235,271.2 235,199.7 153.2,210.9 	"/>
</g>
<path id="XMLID_217_" class="st4" d="M201.4,459.3c-0.1-12.3,5.5-21.6,16.7-28.4c-6.3-9-15.8-14-28.4-14.9
	c-11.9-0.9-24.9,6.9-29.6,6.9c-5,0-16.5-6.6-25.6-6.6c-18.7,0.3-38.5,14.9-38.5,44.6c0,8.8,1.6,17.8,4.8,27.2
	c4.3,12.3,19.8,42.4,35.9,41.9c8.4-0.2,14.4-6,25.4-6c10.6,0,16.2,6,25.6,6c16.3-0.2,30.3-27.6,34.4-40
	C200.2,479.8,201.4,459.9,201.4,459.3L201.4,459.3z M182.4,404.3c9.1-10.9,8.3-20.7,8-24.3c-8.1,0.5-17.4,5.5-22.7,11.7
	c-5.9,6.6-9.3,14.8-8.6,24.1C167.9,416.4,175.8,411.9,182.4,404.3z"/>
<g id="XMLID_162_">
	<path id="XMLID_216_" class="st5" d="M217.4,128.3c-1.1-1.2-1.6-3.4-2.1-5.8c-0.5-2.4-1.1-4.9-3.1-6.6c-0.4-0.3-0.8-0.6-1.2-0.8
		c-0.4-0.2-0.8-0.4-1.2-0.6c2.7-8,1.6-16-1.1-23.2c-3.3-8.8-9.2-16.5-13.6-21.8c-5-6.3-9.9-12.3-9.8-21.1
		C185.5,35,186.8,10,163.1,10c-30-0.1-22.5,30.3-22.8,39.6c-0.5,6.9-1.9,12.2-6.6,19c-5.5,6.6-13.3,17.2-17,28.3
		c-1.8,5.2-2.6,10.6-1.8,15.6c-1.9,1.7-3.3,4.3-4.9,5.9c-1.2,1.3-3,1.7-5,2.4s-4.1,1.8-5.4,4.2c-0.6,1.1-0.8,2.4-0.8,3.6
		c0,1.1,0.2,2.3,0.4,3.5c0.4,2.4,0.7,4.6,0.2,6.1c-1.5,4.2-1.7,7.1-0.6,9.3c1.1,2.1,3.3,3.1,5.9,3.6c5.1,1.1,12,0.8,17.4,3.7
		c5.8,3,11.7,4.1,16.4,3c3.4-0.8,6.2-2.8,7.6-5.9c3.7,0,7.7-1.6,14.1-1.9c4.4-0.4,9.8,1.6,16.1,1.2c0.2,0.7,0.4,1.3,0.7,2v0
		c2.4,4.9,7,7.1,11.8,6.7c4.9-0.4,10-3.2,14.1-8.2c4-4.8,10.5-6.8,14.9-9.4c2.2-1.3,3.9-3,4.1-5.4
		C222,134.6,220.6,131.9,217.4,128.3L217.4,128.3z"/>
	<path id="XMLID_215_" class="st6" d="M159.9,35.6c2.9-6.5,10-6.4,12.9-0.1c1.9,4.2,1.1,9.1-1.3,11.8c-0.5-0.2-1.7-0.8-3.7-1.4
		c0.3-0.4,0.9-0.8,1.1-1.3c1.4-3.5-0.1-7.9-2.7-8c-2.1-0.1-4.1,3.2-3.5,6.7c-1.2-0.6-2.8-1-3.8-1.3
		C158.7,39.9,158.9,37.7,159.9,35.6z"/>
	<path id="XMLID_214_" class="st6" d="M148,32.2c3,0,6.1,4.2,5.6,9.8c-1,0.3-2.1,0.7-3,1.3c0.4-2.6-1-5.9-2.8-5.7
		c-2.5,0.2-2.9,6.2-0.5,8.2c0.3,0.2,0.6-0.1-1.7,1.6C140.9,43.2,142.4,32.2,148,32.2z"/>
	<path id="XMLID_213_" class="st7" d="M144,50c1.8-1.3,4-2.9,4.1-3.1c1.4-1.3,4-4.2,8.2-4.2c2.1,0,4.6,0.7,7.6,2.6
		c1.8,1.2,3.3,1.3,6.6,2.7c2.5,1,4,2.8,3.1,5.3c-0.8,2.1-3.2,4.2-6.6,5.3c-3.3,1.1-5.8,4.7-11.2,4.4c-1.1-0.1-2.1-0.3-2.8-0.6
		c-2.3-1-3.6-3-5.9-4.4c-2.5-1.4-3.9-3-4.3-4.5C142.3,52.2,142.7,51,144,50L144,50z"/>
	<path id="XMLID_212_" class="st7" d="M134.8,152.5c-3.1,0-6.8-1-10.1-2.8c-4.8-2.6-10.2-3.1-14.5-3.6c-2.3-0.2-5.7-0.6-6.4-1.3
		c0,0-0.3-1.2,1-4.7l0.2-0.6v-0.2c0.7-2.6,0.2-5.2-0.1-7.3l-0.1-0.8c-0.4-2.5-0.3-3.3-0.1-3.5c0.4-0.7,0.7-1,2.3-1.5l1.4-0.5
		c2.2-0.7,3.2-1.2,5.6-3.1l0.3-0.3c1-1.1,1.9-2.2,2.6-3.3c0.5-0.7,1-1.5,1.6-2.1c0.9-0.9,1.2-0.9,1.4-0.9c0.1,0,0.3,0,0.5,0
		c1.2,0.2,2.4,1.2,3.8,3l5.6,10.2c1.1,2.4,3.2,5,5.5,7.8c2.7,3.4,6.3,7.9,6.1,10.2C141.1,148.9,140.8,152.5,134.8,152.5z"/>
	<path id="XMLID_211_" class="st6" d="M158.9,140.9c-4.2,0-8.1-1.1-11.6-3.4c-0.3-0.4-0.5-0.8-0.8-1.2c1-0.8,1.8-1.9,2.3-3.1
		c0.8-2.2,1-5.9-2.7-10.8c-4.4-5.9-12-10.4-12.4-10.5c-0.4-0.3-0.7-0.5-0.8-0.6c0-0.1,0-0.2,0-0.3c0.1-0.6,0.1-1.3,0-2.2
		c0.2-5.4,1.5-11,3.7-16.4c0.6-1.3,1.3-2.9,2.1-4.6c3-6.5,6.9-15,8.8-23.1c0.1,0.1,0.3,0.2,0.4,0.3c2.4,1.9,5.3,3,8.5,3
		c2.7,0,5.6-0.8,8.2-2.3c0.7-0.4,1.3-0.8,1.9-1.2c0.8-0.5,1.6-1,2-1.1c1.2-0.4,2.3-0.9,3.4-1.4c2.7,8.3,6.7,17.9,9.6,23.3
		c1.1,2.1,4.4,8.3,6.1,15.9c-1.2,1.3-2.6,3.2-3.4,6.2c-3.2,1.8-5.4,5.1-6.6,9.7c-0.9,3.5-1.1,7.3-1.4,12.4c-0.1,1.5-0.7,3.8-1.5,6.4
		C169.8,139.1,164.2,140.9,158.9,140.9z"/>
	<path id="XMLID_210_" class="st7" d="M187.7,154.3c-2.5,0-4.3-1.2-5.6-3.6c-0.8-1.8-0.4-4.4,0.6-8c0.3-1.2,0.7-2.4,1-3.6
		c0.9-3,1.8-6.2,2-9c0.2-3.5,0.4-6.8,0.9-9.4c1.3,1.8,3.2,3.3,5.5,3.8c0.7,0.2,1.5,0.3,2.4,0.3c4,0,8.5-2.4,11.4-5
		c0.1,0,0.2,0,0.3,0c1.3,0,1.7,0.2,2.3,0.6c0.5,0.5,1,2.5,1.3,3.9c0.6,2.6,1.3,5.6,3.3,7.9c2.9,3.2,3.1,4.5,3.1,4.6
		c-0.4,0.4-3.1,1.7-4.9,2.5c-4,1.9-9.1,4.3-12.8,8.9c-3,3.6-6.8,5.9-10.2,6.1C188.1,154.2,187.9,154.3,187.7,154.3z"/>
</g>
</svg>
