<?xml version="1.0" encoding="utf-8"?>
<!-- Generator: Adobe Illustrator 19.0.0, SVG Export Plug-In . SVG Version: 6.00 Build 0)  -->
<svg version="1.1" id="Layer_1" xmlns="http://www.w3.org/2000/svg" xmlns:xlink="http://www.w3.org/1999/xlink" x="0px" y="0px"
	 viewBox="-360 286.3 120 24" style="enable-background:new -360 286.3 120 24;" xml:space="preserve">
<style type="text/css">
	.st0{fill:#E3493C;}
	.st1{display:none;}
	.st2{display:inline;fill:#FFFFFF;}
	.st3{font-family:'SairaCondensed-Medium';}
	.st4{font-size:12.4309px;}
	.st5{display:inline;fill:#E3493C;}
	.st6{fill:#FFFFFF;}
</style>
<g id="Layer_4">
	<path class="st0" d="M-348.6,300.2c0.9,0,1.7,0.1,2.5,0.4c0.8,0.6,2,0.9,2.5,0.3s0-1.6-0.8-2.4c-0.4-0.7-0.8-1.5-0.9-2.3
		c0.1-1-0.2-2.2-1-2.4c-0.8-0.1-1.5,1-1.6,1.9c-0.4,0.8-1,1.4-1.6,2c-0.9,0.4-1.8,1.3-1.5,2C-350.8,300.4-349.5,300.4-348.6,300.2z"
		/>
	<path class="st0" d="M-345.3,289.7c1.3,0,1.7,2.6,1.5,4.5c0.4,1.6,0.9,3.2,1.6,4.7c0.2,0.3,0.5,0.6,0.8,0.8c-0.7-1.6-1-3.3-0.8-5
		c0.8-2.2,0.4-5.2-0.8-5.8c-1.3-0.7-3-0.2-3.7,1.2c0,0,0,0,0,0C-346.2,289.8-345.7,289.6-345.3,289.7z"/>
	<path class="st0" d="M-355,300.3c-0.6-1,1.3-2.7,3.1-3.5c0.6-0.3,2.9-3.3,3.2-3.8c0.2-0.3,0.3-0.7,0.3-1.1c-1,1.4-2.4,2.5-3.9,3.3
		c-2.3,0.4-4.7,2.2-4.7,3.6c0.1,1.5,1.3,2.7,2.8,2.6c0,0,0,0,0,0C-354.5,301.1-354.8,300.7-355,300.3z"/>
	<path class="st0" d="M-340.9,303.7c-0.7,1-3.1,0.2-4.7-0.9c-1.6-0.5-3.2-0.8-4.9-0.9c-0.4,0-0.8,0.1-1.1,0.3
		c1.7,0.2,3.4,0.8,4.8,1.8c1.5,1.8,4.2,3,5.4,2.3c1.3-0.8,1.6-2.4,0.9-3.7c0,0,0,0,0-0.1C-340.5,302.9-340.6,303.3-340.9,303.7z"/>
</g>
<text transform="matrix(1 0 0 1 -334.8336 302.145)" class="st1"><tspan x="0" y="0" class="st2 st3 st4">SUPER</tspan><tspan x="32.8" y="0" class="st5 st3 st4">ALGOS</tspan></text>
<g>
	<path class="st6" d="M-333.2,302.2c-0.4,0-0.8-0.1-1.1-0.1v-1c0.7,0.1,1.3,0.1,1.8,0.1c0.3,0,0.6,0,0.8-0.1s0.3-0.1,0.4-0.2
		c0.1-0.1,0.2-0.2,0.2-0.4c0-0.2,0-0.4,0-0.7c0-0.4,0-0.7-0.1-0.9s-0.1-0.3-0.2-0.4c-0.1-0.1-0.4-0.1-0.7-0.2l-1.3-0.2
		c-0.4-0.1-0.7-0.3-0.9-0.6s-0.2-0.9-0.2-1.6c0-0.9,0.2-1.5,0.6-1.9c0.4-0.4,1-0.5,1.8-0.5c0.3,0,0.7,0,1.1,0.1
		c0.4,0,0.6,0.1,0.9,0.1v1c-0.5-0.1-1.1-0.1-1.6-0.1c-0.3,0-0.6,0-0.8,0.1c-0.2,0-0.3,0.1-0.4,0.2c-0.1,0.1-0.2,0.2-0.2,0.4
		c0,0.2,0,0.4,0,0.7c0,0.3,0,0.6,0,0.8s0.1,0.3,0.2,0.3c0.1,0.1,0.3,0.1,0.5,0.1l1.3,0.2c0.3,0.1,0.6,0.2,0.8,0.3s0.4,0.3,0.5,0.6
		c0.1,0.3,0.1,0.8,0.1,1.4c0,0.7-0.1,1.2-0.2,1.6c-0.2,0.4-0.4,0.6-0.7,0.8s-0.8,0.2-1.3,0.2C-332.4,302.2-332.8,302.2-333.2,302.2z
		"/>
	<path class="st6" d="M-323,293.6v4.8c0,1.1,0,1.9-0.1,2.4c-0.1,0.5-0.3,0.9-0.6,1.1c-0.3,0.2-0.9,0.3-1.6,0.3
		c-0.8,0-1.3-0.1-1.6-0.3s-0.6-0.6-0.7-1.1c-0.1-0.5-0.1-1.3-0.1-2.4v-4.8h1.2v5.3c0,0.7,0,1.3,0.1,1.6c0,0.3,0.2,0.5,0.3,0.6
		c0.2,0.1,0.5,0.2,0.9,0.2c0.4,0,0.7-0.1,0.9-0.2s0.3-0.3,0.3-0.6s0.1-0.8,0.1-1.6v-5.3H-323z"/>
	<path class="st6" d="M-320.7,293.6h2.6c0.6,0,1,0.1,1.3,0.3c0.3,0.2,0.5,0.5,0.6,0.9c0.1,0.4,0.1,0.9,0.1,1.5c0,0.6,0,1.1-0.1,1.5
		c-0.1,0.4-0.3,0.7-0.6,0.9c-0.3,0.2-0.7,0.3-1.3,0.3h-1.4v3.1h-1.2V293.6z M-318.4,298.1c0.3,0,0.6-0.1,0.8-0.2
		c0.2-0.1,0.3-0.3,0.3-0.5c0-0.2,0.1-0.6,0.1-1c0-0.5,0-0.8-0.1-1.1s-0.2-0.4-0.3-0.5s-0.4-0.2-0.8-0.2h-1.1v3.5H-318.4z"/>
	<path class="st6" d="M-314.2,302.1v-8.6h4.1v1h-2.9v2.7h2.5v1h-2.5v2.8h2.9v1H-314.2z"/>
	<path class="st6" d="M-304.4,302.1l-1-3.3h-0.1h-1.4v3.3h-1.2v-8.6h2.7c0.6,0,1,0.1,1.3,0.3s0.5,0.5,0.6,0.9s0.1,0.8,0.1,1.4
		c0,0.6-0.1,1.1-0.2,1.5c-0.1,0.4-0.4,0.7-0.8,0.9l1.1,3.5H-304.4z M-304.9,297.7c0.2-0.1,0.3-0.3,0.3-0.5c0-0.2,0.1-0.5,0.1-1
		c0-0.4,0-0.8-0.1-1c0-0.2-0.1-0.4-0.3-0.5c-0.2-0.1-0.4-0.2-0.8-0.2h-1.2v3.2h1.2C-305.3,297.8-305.1,297.8-304.9,297.7z"/>
	<path class="st0" d="M-297.2,302.1l-0.5-2.2h-2.4l-0.5,2.2h-1.2l2.1-8.6h1.6l2.1,8.6H-297.2z M-298.9,294.9L-298.9,294.9l-1,4.1
		h1.9L-298.9,294.9z"/>
	<path class="st0" d="M-294.3,302.1v-8.6h1.2v7.5h2.6v1H-294.3z"/>
	<path class="st0" d="M-286.5,298.5v-1h2.2v4.5c-0.3,0.1-0.6,0.1-1,0.2c-0.4,0-0.7,0.1-1,0.1c-0.8,0-1.3-0.1-1.7-0.3
		c-0.4-0.2-0.6-0.6-0.8-1.3c-0.1-0.6-0.2-1.5-0.2-2.8c0-1.2,0.1-2.2,0.2-2.8c0.1-0.6,0.4-1,0.8-1.3s0.9-0.3,1.7-0.3
		c0.3,0,0.7,0,1.1,0.1s0.7,0.1,1,0.2v0.9c-0.7-0.1-1.2-0.2-1.6-0.2c-0.6,0-1.1,0.1-1.3,0.2s-0.4,0.4-0.5,0.8
		c-0.1,0.4-0.1,1.2-0.1,2.3c0,1,0,1.8,0.1,2.2s0.2,0.8,0.4,0.9s0.5,0.2,1,0.2c0.3,0,0.6,0,0.9-0.1v-2.7H-286.5z"/>
	<path class="st0" d="M-281.5,301.9c-0.4-0.2-0.6-0.6-0.7-1.2c-0.1-0.6-0.1-1.5-0.1-2.8c0-1.3,0-2.3,0.1-2.8c0.1-0.6,0.3-1,0.7-1.2
		s0.9-0.3,1.8-0.3c0.8,0,1.4,0.1,1.8,0.3c0.4,0.2,0.6,0.6,0.7,1.2c0.1,0.6,0.1,1.5,0.1,2.8c0,1.3,0,2.3-0.1,2.8
		c-0.1,0.6-0.3,1-0.7,1.2c-0.4,0.2-0.9,0.3-1.8,0.3C-280.5,302.2-281.1,302.1-281.5,301.9z M-278.7,301.1c0.2-0.1,0.3-0.4,0.4-0.8
		c0.1-0.4,0.1-1.2,0.1-2.4c0-1.1,0-1.9-0.1-2.4c-0.1-0.4-0.2-0.7-0.4-0.8c-0.2-0.1-0.5-0.2-1-0.2c-0.5,0-0.8,0.1-1,0.2
		c-0.2,0.1-0.3,0.4-0.3,0.8c-0.1,0.4-0.1,1.2-0.1,2.4s0,1.9,0.1,2.4s0.2,0.7,0.3,0.8c0.2,0.1,0.5,0.2,1,0.2
		C-279.2,301.2-278.9,301.2-278.7,301.1z"/>
	<path class="st0" d="M-274.1,302.2c-0.4,0-0.8-0.1-1.1-0.1v-1c0.7,0.1,1.3,0.1,1.8,0.1c0.3,0,0.6,0,0.8-0.1s0.3-0.1,0.4-0.2
		c0.1-0.1,0.2-0.2,0.2-0.4s0-0.4,0-0.7c0-0.4,0-0.7-0.1-0.9c0-0.2-0.1-0.3-0.2-0.4c-0.1-0.1-0.4-0.1-0.7-0.2l-1.3-0.2
		c-0.4-0.1-0.7-0.3-0.9-0.6c-0.1-0.4-0.2-0.9-0.2-1.6c0-0.9,0.2-1.5,0.6-1.9c0.4-0.4,1-0.5,1.8-0.5c0.3,0,0.7,0,1,0.1
		c0.4,0,0.6,0.1,0.9,0.1v1c-0.5-0.1-1.1-0.1-1.6-0.1c-0.3,0-0.6,0-0.8,0.1s-0.3,0.1-0.4,0.2c-0.1,0.1-0.2,0.2-0.2,0.4
		c0,0.2,0,0.4,0,0.7c0,0.3,0,0.6,0,0.8s0.1,0.3,0.2,0.3c0.1,0.1,0.3,0.1,0.5,0.1l1.3,0.2c0.3,0.1,0.6,0.2,0.8,0.3
		c0.2,0.1,0.4,0.3,0.5,0.6c0.1,0.3,0.1,0.8,0.1,1.4c0,0.7-0.1,1.2-0.2,1.6s-0.4,0.6-0.7,0.8s-0.8,0.2-1.3,0.2
		C-273.3,302.2-273.7,302.2-274.1,302.2z"/>
</g>
</svg>
