<?xml version="1.0" encoding="utf-8"?>
<!-- Generator: Adobe Illustrator 19.0.0, SVG Export Plug-In . SVG Version: 6.00 Build 0)  -->
<svg version="1.1" id="Layer_1" xmlns="http://www.w3.org/2000/svg" xmlns:xlink="http://www.w3.org/1999/xlink" x="0px" y="0px"
	 viewBox="228 62 500 500" style="enable-background:new 228 62 500 500;" xml:space="preserve">
<style type="text/css">
	.st0{display:none;}
	.st1{display:inline;stroke:#FFFFFF;stroke-miterlimit:10;}
	.st2{fill:none;stroke:#F4DA48;stroke-width:3;stroke-miterlimit:10;}
	.st3{fill:#FFFFFF;}
	.st4{display:inline;fill:none;stroke:#F4DA48;stroke-width:3;stroke-miterlimit:10;}
	.st5{display:inline;}
	.st6{font-family:'Saira-Regular';}
	.st7{font-size:28px;}
	.st8{fill:none;stroke:#FFFFFF;stroke-width:5;stroke-miterlimit:10;}
</style>
<g id="Layer_2" class="st0">
	<rect id="XMLID_1_" x="228" y="62" class="st1" width="500" height="500"/>
</g>
<g id="Cross">
	<line class="st2" x1="479" y1="313.8" x2="274.4" y2="313.8"/>
	<line class="st2" x1="683.5" y1="313.8" x2="479" y2="313.8"/>
	<line class="st2" x1="491" y1="313.8" x2="491" y2="106.8"/>
	<line class="st2" x1="491" y1="519.3" x2="491" y2="314.8"/>
</g>
<g id="Text_Outlines">
	<path class="st2" d="M274.4,311.3"/>
	<g>
		<g>
			<path class="st3" d="M430.2,552.3l-6.6-8.7h-3.5v8.7h-2.4V533h2.4v8.3h3.5l6.6-8.3h2.7l-7.3,9.3l7.4,9.9H430.2z"/>
			<path class="st3" d="M445.9,544.3c0-1.3-0.1-2.3-0.3-2.8c-0.2-0.6-0.5-0.9-1-1.1c-0.5-0.2-1.3-0.3-2.4-0.3c-1.2,0-2,0.2-2.6,0.6
				c-0.6,0.4-0.9,0.9-1,1.5c-0.1,0.7-0.2,1.6-0.2,2.8v7.4h-2.3V538h2l0.1,2h0.2c0.3-0.7,0.8-1.3,1.6-1.7s1.8-0.6,3.2-0.6
				s2.4,0.2,3.1,0.6c0.7,0.4,1.2,1,1.4,1.8c0.2,0.8,0.4,1.9,0.4,3.2v8.9h-2.3V544.3z"/>
			<path class="st3" d="M454.4,551.9c-0.9-0.4-1.4-1.1-1.6-2c-0.2-1-0.4-2.5-0.4-4.7c0-2.2,0.1-3.8,0.4-4.7c0.2-1,0.8-1.6,1.6-2
				c0.9-0.4,2.3-0.6,4.3-0.6c2,0,3.4,0.2,4.3,0.6c0.9,0.4,1.4,1.1,1.6,2c0.2,1,0.4,2.5,0.4,4.7c0,2.2-0.1,3.8-0.4,4.7
				c-0.2,1-0.8,1.6-1.6,2c-0.9,0.4-2.3,0.6-4.3,0.6C456.7,552.5,455.2,552.3,454.4,551.9z M461.5,550.1c0.5-0.2,0.8-0.7,1-1.3
				c0.1-0.6,0.2-1.8,0.2-3.6s-0.1-3-0.2-3.6c-0.1-0.6-0.4-1.1-1-1.3c-0.5-0.2-1.5-0.4-2.8-0.4s-2.3,0.1-2.8,0.4
				c-0.5,0.2-0.9,0.7-1,1.3c-0.1,0.6-0.2,1.8-0.2,3.6s0.1,3,0.2,3.6c0.1,0.6,0.4,1.1,1,1.3c0.5,0.2,1.5,0.4,2.8,0.4
				S461,550.3,461.5,550.1z"/>
			<path class="st3" d="M481.2,552.3l-3.3-10.2h-0.2l-3.2,10.2h-2.6l-4.6-14.3h2.4l3.5,11.3h0.2l3.5-11.3h2.2l3.5,11.3h0.2l3.5-11.3
				h2.3l-4.6,14.3H481.2z"/>
			<path class="st3" d="M491.7,552.3v-20.8h2.3v20.8H491.7z"/>
			<path class="st3" d="M510.3,546h-9.8c0,1.4,0.1,2.3,0.3,2.9c0.2,0.6,0.6,1,1.2,1.2s1.7,0.4,3.1,0.4c1.4,0,3-0.1,4.6-0.3v2
				c-0.6,0.1-1.4,0.2-2.3,0.3c-1,0.1-1.9,0.1-2.7,0.1c-1.9,0-3.3-0.2-4.2-0.7c-0.9-0.4-1.5-1.2-1.8-2.2c-0.3-1-0.4-2.5-0.4-4.5
				c0-2,0.1-3.5,0.4-4.5c0.3-1,0.8-1.7,1.7-2.2c0.9-0.5,2.3-0.7,4.2-0.7c1.8,0,3.1,0.2,3.9,0.7c0.8,0.5,1.3,1.2,1.5,2.2
				c0.2,1,0.3,2.5,0.3,4.5V546z M501.9,540.2c-0.5,0.2-0.9,0.6-1.1,1.2s-0.3,1.5-0.3,2.8h7.6V544c0-1.2-0.1-2.1-0.3-2.7
				c-0.2-0.6-0.6-1-1-1.1c-0.5-0.2-1.2-0.3-2.2-0.3C503.3,539.9,502.4,540,501.9,540.2z"/>
			<path class="st3" d="M516,551.9c-0.7-0.4-1.3-1.2-1.6-2.2c-0.3-1-0.5-2.5-0.5-4.5c0-2,0.1-3.5,0.4-4.5c0.3-1,0.8-1.8,1.6-2.2
				c0.7-0.4,1.8-0.6,3.2-0.6c1.2,0,2.2,0.1,3,0.4c0.8,0.3,1.3,0.8,1.7,1.6h0.2v-8.3h2.3v20.8h-2l-0.1-2h-0.2c-0.4,0.9-1,1.4-1.8,1.8
				c-0.8,0.3-1.8,0.5-2.9,0.5C517.8,552.5,516.7,552.3,516,551.9z M522.4,550c0.6-0.3,0.9-0.6,1.1-1.2c0.2-0.4,0.3-0.9,0.4-1.5
				c0-0.6,0.1-1.3,0.1-2.3c0-0.8,0-1.5-0.1-2c-0.1-0.5-0.2-1-0.3-1.3c-0.2-0.6-0.6-1-1.2-1.3c-0.6-0.3-1.3-0.4-2.3-0.4
				c-1.2,0-2,0.1-2.5,0.3c-0.5,0.2-0.9,0.7-1,1.4c-0.2,0.7-0.3,1.8-0.3,3.4c0,1.6,0.1,2.8,0.3,3.5c0.2,0.7,0.5,1.1,1,1.4
				c0.5,0.2,1.4,0.3,2.6,0.3C521.1,550.3,521.8,550.2,522.4,550z"/>
			<path class="st3" d="M531.3,557.8v-2c1.8,0.1,3.3,0.2,4.6,0.2c1.4,0,2.5-0.1,3.1-0.4s1.1-0.7,1.3-1.4c0.2-0.7,0.3-1.7,0.3-3.2
				v-0.6h-0.1c-0.4,0.7-0.9,1.2-1.7,1.6c-0.8,0.3-1.7,0.5-2.9,0.5c-1.4,0-2.5-0.2-3.3-0.6s-1.3-1.1-1.6-2.2c-0.3-1-0.4-2.5-0.4-4.5
				c0-2,0.2-3.5,0.5-4.5c0.3-1,0.8-1.8,1.6-2.2c0.7-0.4,1.8-0.6,3.2-0.6c1.1,0,2.1,0.2,2.9,0.5c0.8,0.3,1.4,0.9,1.8,1.8h0.2l0.1-2h2
				v12.5c0,2-0.1,3.5-0.4,4.6c-0.3,1-0.9,1.8-1.8,2.3c-0.9,0.5-2.3,0.7-4.2,0.7C534.3,558.1,532.6,558,531.3,557.8z M538.9,549.9
				c0.6-0.2,0.9-0.6,1.2-1.1c0.2-0.4,0.3-0.9,0.4-1.5c0.1-0.6,0.1-1.3,0.1-2.2c0-1,0-1.7-0.1-2.2c0-0.5-0.2-1-0.4-1.4
				c-0.2-0.6-0.6-1-1.2-1.2c-0.6-0.2-1.3-0.4-2.2-0.4c-1.2,0-2.1,0.1-2.6,0.4s-0.9,0.7-1,1.4c-0.2,0.7-0.3,1.8-0.3,3.4
				c0,1.6,0.1,2.7,0.3,3.4c0.2,0.7,0.5,1.1,1,1.4s1.4,0.3,2.6,0.3C537.6,550.3,538.3,550.1,538.9,549.9z"/>
			<path class="st3" d="M559.1,546h-9.8c0,1.4,0.1,2.3,0.3,2.9c0.2,0.6,0.6,1,1.2,1.2s1.7,0.4,3.1,0.4c1.4,0,3-0.1,4.6-0.3v2
				c-0.6,0.1-1.4,0.2-2.3,0.3c-1,0.1-1.9,0.1-2.7,0.1c-1.9,0-3.3-0.2-4.2-0.7c-0.9-0.4-1.5-1.2-1.8-2.2c-0.3-1-0.4-2.5-0.4-4.5
				c0-2,0.1-3.5,0.4-4.5c0.3-1,0.8-1.7,1.7-2.2c0.9-0.5,2.3-0.7,4.2-0.7c1.8,0,3.1,0.2,3.9,0.7c0.8,0.5,1.3,1.2,1.5,2.2
				c0.2,1,0.3,2.5,0.3,4.5V546z M550.6,540.2c-0.5,0.2-0.9,0.6-1.1,1.2s-0.3,1.5-0.3,2.8h7.6V544c0-1.2-0.1-2.1-0.3-2.7
				c-0.2-0.6-0.6-1-1-1.1c-0.5-0.2-1.2-0.3-2.2-0.3C552,539.9,551.2,540,550.6,540.2z"/>
			<path class="st3" d="M573.2,552.4c-1.3-0.1-2.4-0.2-3.3-0.3v-2.2c2.4,0.2,4.5,0.4,6.1,0.4c1,0,1.8,0,2.4-0.1
				c0.6-0.1,1.1-0.2,1.5-0.5c0.4-0.2,0.6-0.6,0.7-1c0.1-0.4,0.2-1,0.2-1.8c0-0.9,0-1.5-0.1-1.9c-0.1-0.4-0.3-0.6-0.7-0.8
				c-0.3-0.2-0.9-0.3-1.8-0.4l-4.8-0.5c-1.2-0.1-2-0.4-2.6-0.8c-0.6-0.4-1-1-1.2-1.7c-0.2-0.7-0.3-1.6-0.3-2.7
				c0-1.5,0.3-2.7,0.8-3.5c0.5-0.8,1.3-1.3,2.2-1.6c1-0.3,2.3-0.4,3.9-0.4c1.1,0,2.2,0,3.3,0.1c1.1,0.1,2,0.2,2.7,0.3v2.1
				c-0.7-0.1-1.6-0.2-2.6-0.3c-1-0.1-2-0.1-2.9-0.1c-1,0-1.9,0-2.5,0.1c-0.6,0.1-1.1,0.3-1.5,0.5c-0.4,0.2-0.6,0.5-0.8,0.9
				c-0.1,0.4-0.2,0.9-0.2,1.6c0,0.8,0.1,1.3,0.2,1.7c0.1,0.3,0.3,0.6,0.6,0.8c0.3,0.2,0.8,0.3,1.6,0.3l4.7,0.5
				c1.1,0.1,2,0.3,2.6,0.6c0.6,0.3,1.1,0.8,1.3,1.5c0.3,0.7,0.4,1.7,0.4,3.2c0,1.7-0.3,3-0.8,3.8c-0.5,0.8-1.2,1.4-2.1,1.6
				c-0.9,0.2-2.1,0.3-3.6,0.3C575.6,552.5,574.5,552.5,573.2,552.4z"/>
			<path class="st3" d="M597.2,544.3c0-1.3-0.1-2.3-0.3-2.8c-0.2-0.6-0.5-0.9-1-1.1c-0.5-0.2-1.3-0.3-2.4-0.3c-1.2,0-2,0.2-2.6,0.6
				c-0.6,0.4-0.9,0.9-1,1.5c-0.1,0.7-0.2,1.6-0.2,2.8v7.4h-2.3v-20.8h2.3v8.4h0.1c0.3-0.7,0.8-1.2,1.5-1.5c0.7-0.4,1.8-0.5,3.1-0.5
				c1.4,0,2.4,0.2,3.1,0.6c0.7,0.4,1.2,1,1.4,1.7c0.2,0.8,0.4,1.9,0.4,3.2v8.9h-2.3V544.3z"/>
			<path class="st3" d="M604.5,551.6c-0.7-0.6-1.1-1.7-1.1-3.2c0-1.1,0.1-2,0.4-2.6c0.3-0.6,0.7-1.1,1.3-1.3
				c0.6-0.3,1.5-0.4,2.6-0.4c0.5,0,2.3,0,5.3,0.1v-0.8c0-1.1-0.1-1.9-0.3-2.4c-0.2-0.5-0.6-0.8-1.2-0.9c-0.6-0.1-1.5-0.2-2.9-0.2
				c-0.6,0-1.3,0-2.3,0.1c-0.9,0.1-1.6,0.1-2.1,0.2v-2c1.5-0.3,3.2-0.4,5.2-0.4c1.7,0,2.9,0.2,3.8,0.5c0.8,0.3,1.4,0.9,1.7,1.7
				s0.4,1.9,0.4,3.4v8.9h-2l-0.1-2H613c-0.4,0.9-1,1.5-1.9,1.8s-1.9,0.4-3.1,0.4C606.4,552.5,605.2,552.2,604.5,551.6z M611.2,550.2
				c0.6-0.2,1-0.5,1.3-1c0.4-0.7,0.6-1.6,0.6-2.8v-0.6h-4.8c-0.8,0-1.4,0.1-1.7,0.2c-0.4,0.1-0.6,0.3-0.8,0.7
				c-0.1,0.3-0.2,0.8-0.2,1.5c0,0.7,0.1,1.2,0.3,1.5c0.2,0.3,0.5,0.5,0.9,0.7c0.5,0.1,1.2,0.2,2.1,0.2
				C609.9,550.5,610.6,550.4,611.2,550.2z"/>
			<path class="st3" d="M620.2,538h2l0.1,2.7h0.2c0.3-1.1,0.9-1.9,1.7-2.3c0.8-0.4,1.8-0.6,3.1-0.6v2.4c-1.3,0-2.3,0.2-3,0.6
				c-0.7,0.4-1.2,1-1.4,1.8c-0.3,0.8-0.4,1.9-0.4,3.3v6.4h-2.3V538z"/>
			<path class="st3" d="M630.4,534.1v-2.6h2.4v2.6H630.4z M630.5,552.3V538h2.3v14.3H630.5z"/>
			<path class="st3" d="M647.3,544.3c0-1.3-0.1-2.3-0.3-2.8c-0.2-0.6-0.5-0.9-1-1.1c-0.5-0.2-1.3-0.3-2.4-0.3c-1.2,0-2,0.2-2.6,0.6
				c-0.6,0.4-0.9,0.9-1,1.5c-0.1,0.7-0.2,1.6-0.2,2.8v7.4h-2.3V538h2l0.1,2h0.2c0.3-0.7,0.8-1.3,1.6-1.7s1.8-0.6,3.2-0.6
				s2.4,0.2,3.1,0.6c0.7,0.4,1.2,1,1.4,1.8c0.2,0.8,0.4,1.9,0.4,3.2v8.9h-2.3V544.3z"/>
			<path class="st3" d="M654.6,557.8v-2c1.8,0.1,3.3,0.2,4.6,0.2c1.4,0,2.5-0.1,3.1-0.4s1.1-0.7,1.3-1.4c0.2-0.7,0.3-1.7,0.3-3.2
				v-0.6h-0.1c-0.4,0.7-0.9,1.2-1.7,1.6c-0.8,0.3-1.7,0.5-2.9,0.5c-1.4,0-2.5-0.2-3.3-0.6s-1.3-1.1-1.6-2.2c-0.3-1-0.4-2.5-0.4-4.5
				c0-2,0.2-3.5,0.5-4.5c0.3-1,0.8-1.8,1.6-2.2c0.7-0.4,1.8-0.6,3.2-0.6c1.1,0,2.1,0.2,2.9,0.5c0.8,0.3,1.4,0.9,1.8,1.8h0.2l0.1-2h2
				v12.5c0,2-0.1,3.5-0.4,4.6c-0.3,1-0.9,1.8-1.8,2.3c-0.9,0.5-2.3,0.7-4.2,0.7C657.6,558.1,655.9,558,654.6,557.8z M662.2,549.9
				c0.6-0.2,0.9-0.6,1.2-1.1c0.2-0.4,0.3-0.9,0.4-1.5c0.1-0.6,0.1-1.3,0.1-2.2c0-1,0-1.7-0.1-2.2c0-0.5-0.2-1-0.4-1.4
				c-0.2-0.6-0.6-1-1.2-1.2c-0.6-0.2-1.3-0.4-2.2-0.4c-1.2,0-2.1,0.1-2.6,0.4s-0.9,0.7-1,1.4c-0.2,0.7-0.3,1.8-0.3,3.4
				c0,1.6,0.1,2.7,0.3,3.4c0.2,0.7,0.5,1.1,1,1.4s1.4,0.3,2.6,0.3C660.9,550.3,661.6,550.1,662.2,549.9z"/>
		</g>
	</g>
	<g>
		<g>
			<path class="st3" d="M259.4,255.9c0.1,0.9,0.1,1.7,0.1,2.4c0,2.3-0.3,4-0.8,5.1c-0.5,1.1-1.4,1.8-2.8,2.1
				c-1.3,0.4-3.4,0.5-6.3,0.5c-2.9,0-5-0.2-6.3-0.5c-1.3-0.4-2.3-1.1-2.8-2.1c-0.5-1.1-0.8-2.8-0.8-5.1c0-0.8,0-1.6,0.1-2.4
				c0.1-0.8,0.2-1.5,0.3-2.1h2.1c-0.2,1.4-0.3,2.7-0.3,3.9c0,2,0.1,3.3,0.4,4.1s0.9,1.3,1.9,1.5c1,0.2,2.7,0.4,5.2,0.4
				s4.2-0.1,5.2-0.4c1-0.2,1.6-0.8,1.9-1.5s0.4-2.1,0.4-4.1c0-1.4-0.1-2.8-0.3-4h2.2C259.3,254.3,259.4,255.1,259.4,255.9z"/>
			<path class="st3" d="M245,249.7v-2l2.7-0.1v-0.2c-1.1-0.3-1.9-0.9-2.3-1.7c-0.4-0.8-0.6-1.8-0.6-3.1h2.4c0,1.3,0.2,2.3,0.6,3
				c0.4,0.7,1,1.2,1.8,1.4c0.8,0.3,1.9,0.4,3.3,0.4h6.4v2.3H245z"/>
			<path class="st3" d="M258.9,238.2c-0.4,0.9-1.1,1.4-2,1.6c-1,0.2-2.5,0.4-4.7,0.4c-2.2,0-3.8-0.1-4.7-0.4c-1-0.2-1.6-0.8-2-1.6
				c-0.4-0.9-0.6-2.3-0.6-4.3c0-2,0.2-3.4,0.6-4.3c0.4-0.9,1.1-1.4,2-1.6c1-0.2,2.5-0.4,4.7-0.4c2.2,0,3.8,0.1,4.7,0.4
				c1,0.2,1.6,0.8,2,1.6c0.4,0.9,0.6,2.3,0.6,4.3C259.5,235.9,259.3,237.4,258.9,238.2z M257.1,231.1c-0.2-0.5-0.7-0.8-1.3-1
				c-0.6-0.1-1.8-0.2-3.6-0.2s-3,0.1-3.6,0.2c-0.6,0.1-1.1,0.4-1.3,1c-0.2,0.5-0.4,1.5-0.4,2.8s0.1,2.3,0.4,2.8
				c0.2,0.5,0.7,0.9,1.3,1c0.6,0.1,1.8,0.2,3.6,0.2s3-0.1,3.6-0.2c0.6-0.1,1.1-0.4,1.3-1c0.2-0.5,0.4-1.5,0.4-2.8
				S257.3,231.6,257.1,231.1z"/>
			<path class="st3" d="M259.3,211.3l-10.2,3.3v0.2l10.2,3.2v2.6l-14.3,4.6v-2.4l11.3-3.5v-0.2l-11.3-3.5v-2.2l11.3-3.5v-0.2
				l-11.3-3.5v-2.3l14.3,4.6V211.3z"/>
			<path class="st3" d="M258.9,199.7c-0.4,0.7-1.2,1.3-2.2,1.6c-1,0.3-2.5,0.5-4.5,0.5c-2,0-3.5-0.1-4.5-0.4c-1-0.3-1.8-0.8-2.2-1.6
				c-0.4-0.7-0.6-1.8-0.6-3.2c0-1.2,0.1-2.2,0.4-3c0.3-0.8,0.8-1.3,1.6-1.7v-0.2h-8.3v-2.3h20.8v2l-2,0.1v0.2c0.9,0.4,1.4,1,1.8,1.8
				c0.3,0.8,0.5,1.8,0.5,2.9C259.5,197.9,259.3,199,258.9,199.7z M257,193.3c-0.3-0.6-0.6-0.9-1.2-1.1c-0.4-0.2-0.9-0.3-1.5-0.4
				c-0.6,0-1.3-0.1-2.3-0.1c-0.8,0-1.5,0-2,0.1c-0.5,0.1-1,0.2-1.3,0.3c-0.6,0.2-1,0.6-1.3,1.2c-0.3,0.6-0.4,1.3-0.4,2.3
				c0,1.2,0.1,2,0.3,2.5c0.2,0.5,0.7,0.9,1.4,1c0.7,0.2,1.8,0.3,3.4,0.3c1.6,0,2.8-0.1,3.5-0.3c0.7-0.2,1.1-0.5,1.4-1
				c0.2-0.5,0.3-1.4,0.3-2.6C257.3,194.6,257.2,193.8,257,193.3z"/>
			<path class="st3" d="M259.4,174.7c-0.1,1.3-0.2,2.4-0.3,3.3h-2.2c0.2-2.4,0.4-4.5,0.4-6.1c0-1,0-1.8-0.1-2.4
				c-0.1-0.6-0.2-1.1-0.5-1.5c-0.2-0.4-0.6-0.6-1-0.7c-0.4-0.1-1-0.2-1.8-0.2c-0.9,0-1.5,0-1.9,0.1c-0.4,0.1-0.6,0.3-0.8,0.7
				c-0.2,0.3-0.3,0.9-0.4,1.8l-0.5,4.8c-0.1,1.2-0.4,2-0.8,2.6c-0.4,0.6-1,1-1.7,1.2c-0.7,0.2-1.6,0.3-2.7,0.3
				c-1.5,0-2.7-0.3-3.5-0.8c-0.8-0.5-1.3-1.3-1.6-2.2c-0.3-1-0.4-2.3-0.4-3.9c0-1.1,0-2.2,0.1-3.3c0.1-1.1,0.2-2,0.3-2.7h2.1
				c-0.1,0.7-0.2,1.6-0.3,2.6c-0.1,1-0.1,2-0.1,2.9c0,1,0,1.9,0.1,2.5c0.1,0.6,0.3,1.1,0.5,1.5c0.2,0.4,0.5,0.6,0.9,0.8
				c0.4,0.1,0.9,0.2,1.6,0.2c0.8,0,1.3-0.1,1.7-0.2c0.3-0.1,0.6-0.3,0.8-0.6c0.2-0.3,0.3-0.8,0.3-1.6l0.5-4.7c0.1-1.1,0.3-2,0.6-2.6
				c0.3-0.6,0.8-1.1,1.5-1.3c0.7-0.3,1.7-0.4,3.2-0.4c1.7,0,3,0.3,3.8,0.8c0.8,0.5,1.4,1.2,1.6,2.1c0.2,0.9,0.3,2.1,0.3,3.6
				C259.5,172.3,259.5,173.4,259.4,174.7z"/>
			<path class="st3" d="M241.1,160.5h-2.6v-2.4h2.6V160.5z M259.3,160.4H245v-2.3h14.3V160.4z"/>
			<path class="st3" d="M259.3,154.3h-1.9l-10.3-8.3v8H245V143h1.9l10.3,8.3v-8.3h2.1V154.3z"/>
			<path class="st3" d="M253,127.6v9.8c1.4,0,2.3-0.1,2.9-0.3c0.6-0.2,1-0.6,1.2-1.2s0.4-1.7,0.4-3.1c0-1.4-0.1-3-0.3-4.6h2
				c0.1,0.6,0.2,1.4,0.3,2.3c0.1,1,0.1,1.9,0.1,2.7c0,1.9-0.2,3.3-0.7,4.2c-0.4,0.9-1.2,1.5-2.2,1.8c-1,0.3-2.5,0.4-4.5,0.4
				c-2,0-3.5-0.1-4.5-0.4c-1-0.3-1.7-0.8-2.2-1.7c-0.5-0.9-0.7-2.3-0.7-4.2c0-1.8,0.2-3.1,0.7-3.9c0.5-0.8,1.2-1.3,2.2-1.5
				c1-0.2,2.5-0.3,4.5-0.3H253z M247.2,136c0.2,0.5,0.6,0.9,1.2,1.1s1.5,0.3,2.8,0.3v-7.6H251c-1.2,0-2.1,0.1-2.7,0.3
				c-0.6,0.2-1,0.6-1.1,1c-0.2,0.5-0.3,1.2-0.3,2.2C246.9,134.6,247,135.5,247.2,136z"/>
		</g>
	</g>
	<path class="st2" d="M274.4,311.3"/>
	<g>
		<g>
			<path class="st3" d="M310.7,411.1v-19.3h2.4v19.3H310.7z"/>
			<path class="st3" d="M328,403c0-1.3-0.1-2.3-0.3-2.8c-0.2-0.6-0.5-0.9-1-1.1c-0.5-0.2-1.3-0.3-2.4-0.3c-1.2,0-2,0.2-2.6,0.6
				c-0.6,0.4-0.9,0.9-1,1.5c-0.1,0.7-0.2,1.6-0.2,2.8v7.4h-2.3v-14.3h2l0.1,2h0.2c0.3-0.7,0.8-1.3,1.6-1.7c0.7-0.4,1.8-0.6,3.2-0.6
				s2.4,0.2,3.1,0.6c0.7,0.4,1.2,1,1.4,1.8c0.2,0.8,0.4,1.9,0.4,3.2v8.9H328V403z"/>
			<path class="st3" d="M338.7,411.1l-5.3-14.3h2.4l4.2,11.8h0.2l4.2-11.8h2.3l-5.2,14.3H338.7z"/>
			<path class="st3" d="M361.1,404.7h-9.8c0,1.4,0.1,2.3,0.3,2.9c0.2,0.6,0.6,1,1.2,1.2s1.7,0.4,3.1,0.4c1.4,0,3-0.1,4.6-0.3v2
				c-0.6,0.1-1.4,0.2-2.3,0.3c-1,0.1-1.9,0.1-2.7,0.1c-1.9,0-3.3-0.2-4.2-0.7c-0.9-0.4-1.5-1.2-1.8-2.2c-0.3-1-0.4-2.5-0.4-4.5
				c0-2,0.1-3.5,0.4-4.5c0.3-1,0.8-1.7,1.7-2.2c0.9-0.5,2.3-0.7,4.2-0.7c1.8,0,3.1,0.2,3.9,0.7c0.8,0.5,1.3,1.2,1.5,2.2
				c0.2,1,0.3,2.5,0.3,4.5V404.7z M352.7,399c-0.5,0.2-0.9,0.6-1.1,1.2s-0.3,1.5-0.3,2.8h7.6v-0.2c0-1.2-0.1-2.1-0.3-2.7
				c-0.2-0.6-0.6-1-1-1.1c-0.5-0.2-1.2-0.3-2.2-0.3C354.1,398.6,353.3,398.8,352.7,399z"/>
			<path class="st3" d="M367.5,411.2c-1-0.1-1.8-0.2-2.6-0.3v-2c1.8,0.2,3.5,0.3,5.1,0.3c1,0,1.7-0.1,2.1-0.2
				c0.4-0.1,0.7-0.3,0.9-0.6s0.2-0.7,0.2-1.3c0-0.6-0.1-1-0.2-1.2c-0.1-0.3-0.3-0.4-0.5-0.5c-0.2-0.1-0.6-0.2-1.2-0.2l-3.7-0.4
				c-0.9-0.1-1.5-0.3-2-0.6c-0.5-0.3-0.8-0.7-0.9-1.2s-0.3-1.2-0.3-2.1c0-1.2,0.2-2.1,0.7-2.7c0.4-0.6,1-1,1.8-1.2
				c0.8-0.2,1.8-0.3,3.1-0.3c0.7,0,1.5,0,2.4,0.1c0.8,0.1,1.5,0.2,2.1,0.3v2c-1.5-0.2-3-0.3-4.5-0.3c-0.9,0-1.5,0-2,0.1
				c-0.4,0.1-0.8,0.3-1,0.6c-0.2,0.3-0.4,0.7-0.4,1.4c0,0.5,0,0.9,0.1,1.2c0.1,0.2,0.3,0.4,0.5,0.5c0.2,0.1,0.6,0.2,1.1,0.2l3.9,0.4
				c0.8,0.1,1.4,0.2,1.9,0.5c0.4,0.2,0.7,0.6,0.9,1.1c0.2,0.5,0.3,1.3,0.3,2.4c0,1.2-0.2,2.1-0.6,2.7c-0.4,0.6-0.9,1-1.7,1.2
				c-0.7,0.2-1.7,0.3-3,0.3C369.4,411.3,368.5,411.3,367.5,411.2z"/>
			<path class="st3" d="M380.4,411.1v-12.2h-2.9v-2.1h2.9v-4.1h2.3v4.1h3.4v2.1h-3.4v12.2H380.4z"/>
			<path class="st3" d="M406.9,403c0-1.3-0.1-2.3-0.2-2.9c-0.1-0.6-0.4-0.9-0.8-1.1s-1.1-0.3-2.1-0.3c-1,0-1.8,0.2-2.3,0.5
				c-0.5,0.4-0.8,0.9-0.9,1.5c-0.1,0.7-0.2,1.6-0.2,2.9v7.4h-2.3v-8c0-1.3-0.1-2.3-0.2-2.9c-0.1-0.6-0.4-0.9-0.8-1.1
				s-1.1-0.3-2.1-0.3c-1,0-1.8,0.2-2.3,0.5c-0.5,0.4-0.8,0.9-0.9,1.5c-0.1,0.7-0.2,1.6-0.2,2.8v7.4h-2.3v-14.3h2l0.1,2h0.2
				c0.3-0.7,0.8-1.3,1.4-1.7c0.7-0.4,1.6-0.6,2.9-0.6c1.2,0,2.2,0.2,2.8,0.5c0.6,0.4,1.1,0.9,1.3,1.7h0.2c0.6-1.5,2.1-2.2,4.5-2.2
				c1.3,0,2.2,0.2,2.8,0.6c0.6,0.4,1.1,1,1.3,1.8c0.2,0.8,0.3,1.9,0.3,3.2v8.9h-2.3V403z"/>
			<path class="st3" d="M425.4,404.7h-9.8c0,1.4,0.1,2.3,0.3,2.9c0.2,0.6,0.6,1,1.2,1.2s1.7,0.4,3.1,0.4c1.4,0,3-0.1,4.6-0.3v2
				c-0.6,0.1-1.4,0.2-2.3,0.3c-1,0.1-1.9,0.1-2.7,0.1c-1.9,0-3.3-0.2-4.2-0.7c-0.9-0.4-1.5-1.2-1.8-2.2c-0.3-1-0.4-2.5-0.4-4.5
				c0-2,0.1-3.5,0.4-4.5c0.3-1,0.8-1.7,1.7-2.2c0.9-0.5,2.3-0.7,4.2-0.7c1.8,0,3.1,0.2,3.9,0.7c0.8,0.5,1.3,1.2,1.5,2.2
				c0.2,1,0.3,2.5,0.3,4.5V404.7z M417,399c-0.5,0.2-0.9,0.6-1.1,1.2s-0.3,1.5-0.3,2.8h7.6v-0.2c0-1.2-0.1-2.1-0.3-2.7
				c-0.2-0.6-0.6-1-1-1.1c-0.5-0.2-1.2-0.3-2.2-0.3C418.4,398.6,417.5,398.8,417,399z"/>
			<path class="st3" d="M439.3,403c0-1.3-0.1-2.3-0.3-2.8c-0.2-0.6-0.5-0.9-1-1.1c-0.5-0.2-1.3-0.3-2.4-0.3c-1.2,0-2,0.2-2.6,0.6
				c-0.6,0.4-0.9,0.9-1,1.5c-0.1,0.7-0.2,1.6-0.2,2.8v7.4h-2.3v-14.3h2l0.1,2h0.2c0.3-0.7,0.8-1.3,1.6-1.7c0.7-0.4,1.8-0.6,3.2-0.6
				s2.4,0.2,3.1,0.6c0.7,0.4,1.2,1,1.4,1.8c0.2,0.8,0.4,1.9,0.4,3.2v8.9h-2.3V403z"/>
			<path class="st3" d="M447.6,411.1v-12.2h-2.9v-2.1h2.9v-4.1h2.3v4.1h3.4v2.1h-3.4v12.2H447.6z"/>
			<path class="st3" d="M286.7,425.4h9c1.8,0,3.1,0.4,3.9,1.2c0.8,0.8,1.2,2,1.2,3.6c0,1.3-0.3,2.3-0.8,3.1
				c-0.5,0.8-1.4,1.2-2.5,1.5v0.1c1.3,0.2,2.2,0.8,2.7,1.5c0.5,0.8,0.8,1.8,0.8,3.2c0,1.6-0.4,2.8-1.2,3.7c-0.8,0.9-2.2,1.4-4.2,1.4
				h-8.9V425.4z M297.5,433.1c0.6-0.5,0.9-1.3,0.9-2.3c0-0.8-0.1-1.4-0.3-1.8c-0.2-0.4-0.6-0.7-1-1c-0.5-0.2-1.2-0.3-2.1-0.3h-5.8
				v6.2h5.8C296.1,433.8,296.9,433.6,297.5,433.1z M297.1,442.1c0.5-0.2,0.9-0.5,1.1-1c0.2-0.5,0.3-1.1,0.3-1.9c0-1.2-0.3-2-0.8-2.5
				c-0.5-0.5-1.5-0.7-2.8-0.7h-5.9v6.4h5.9C295.9,442.4,296.6,442.3,297.1,442.1z"/>
			<path class="st3" d="M305.6,444c-0.7-0.6-1.1-1.7-1.1-3.2c0-1.1,0.1-2,0.4-2.6c0.3-0.6,0.7-1.1,1.3-1.3c0.6-0.3,1.5-0.4,2.6-0.4
				c0.5,0,2.3,0,5.3,0.1v-0.8c0-1.1-0.1-1.9-0.3-2.4c-0.2-0.5-0.6-0.8-1.2-0.9c-0.6-0.1-1.5-0.2-2.9-0.2c-0.6,0-1.3,0-2.3,0.1
				c-0.9,0.1-1.6,0.1-2.1,0.2v-2c1.5-0.3,3.2-0.4,5.2-0.4c1.7,0,2.9,0.2,3.8,0.5c0.8,0.3,1.4,0.9,1.7,1.7s0.4,1.9,0.4,3.4v8.9h-2
				l-0.1-2h-0.2c-0.4,0.9-1,1.5-1.9,1.8s-1.9,0.4-3.1,0.4C307.6,444.9,306.4,444.6,305.6,444z M312.4,442.6c0.6-0.2,1-0.5,1.3-1
				c0.4-0.7,0.6-1.6,0.6-2.8v-0.6h-4.8c-0.8,0-1.4,0.1-1.7,0.2c-0.4,0.1-0.6,0.3-0.8,0.7c-0.1,0.3-0.2,0.8-0.2,1.5
				c0,0.7,0.1,1.2,0.3,1.5c0.2,0.3,0.5,0.5,0.9,0.7c0.5,0.1,1.2,0.2,2.1,0.2C311,442.9,311.8,442.8,312.4,442.6z"/>
			<path class="st3" d="M331,436.6c0-1.3-0.1-2.3-0.3-2.8c-0.2-0.6-0.5-0.9-1-1.1c-0.5-0.2-1.3-0.3-2.4-0.3c-1.2,0-2,0.2-2.6,0.6
				c-0.6,0.4-0.9,0.9-1,1.5c-0.1,0.7-0.2,1.6-0.2,2.8v7.4h-2.3v-14.3h2l0.1,2h0.2c0.3-0.7,0.8-1.3,1.6-1.7s1.8-0.6,3.2-0.6
				s2.4,0.2,3.1,0.6c0.7,0.4,1.2,1,1.4,1.8c0.2,0.8,0.4,1.9,0.4,3.2v8.9H331V436.6z"/>
			<path class="st3" d="M347.2,444.7l-5-6.2h-1.8v6.2h-2.3v-20.8h2.3v12.5h1.8l5.1-6h2.5l-5.8,6.9l5.9,7.4H347.2z"/>
			<path class="st3" d="M355,444.8c-1-0.1-1.8-0.2-2.6-0.3v-2c1.8,0.2,3.5,0.3,5.1,0.3c1,0,1.7-0.1,2.1-0.2c0.4-0.1,0.7-0.3,0.9-0.6
				s0.2-0.7,0.2-1.3c0-0.6-0.1-1-0.2-1.2c-0.1-0.3-0.3-0.4-0.5-0.5c-0.2-0.1-0.6-0.2-1.2-0.2l-3.7-0.4c-0.9-0.1-1.5-0.3-2-0.6
				c-0.5-0.3-0.8-0.7-0.9-1.2s-0.3-1.2-0.3-2.1c0-1.2,0.2-2.1,0.7-2.7c0.4-0.6,1-1,1.8-1.2c0.8-0.2,1.8-0.3,3.1-0.3
				c0.7,0,1.5,0,2.4,0.1c0.8,0.1,1.5,0.2,2.1,0.3v2c-1.5-0.2-3-0.3-4.5-0.3c-0.9,0-1.5,0-2,0.1c-0.4,0.1-0.8,0.3-1,0.6
				c-0.2,0.3-0.4,0.7-0.4,1.4c0,0.5,0,0.9,0.1,1.2c0.1,0.2,0.3,0.4,0.5,0.5c0.2,0.1,0.6,0.2,1.1,0.2l3.9,0.4
				c0.8,0.1,1.4,0.2,1.9,0.5c0.4,0.2,0.7,0.6,0.9,1.1c0.2,0.5,0.3,1.3,0.3,2.4c0,1.2-0.2,2.1-0.6,2.7c-0.4,0.6-0.9,1-1.7,1.2
				c-0.7,0.2-1.7,0.3-3,0.3C356.9,444.9,356,444.9,355,444.8z"/>
			<path class="st3" d="M390.6,433.9v2.1h-3.2v8.4c-0.6,0.1-1.5,0.3-2.7,0.4c-1.2,0.1-2.3,0.2-3.4,0.2c-2.3,0-4-0.2-5.3-0.6
				c-1.2-0.4-2-1-2.4-1.8s-0.6-1.7-0.6-2.9c0-1,0.1-1.8,0.4-2.4c0.3-0.6,0.6-1.1,1.1-1.4c0.5-0.3,1.2-0.6,2-0.8v-0.1
				c-1.2-0.3-2-0.8-2.5-1.5c-0.5-0.7-0.8-1.7-0.8-3.1c0-1.1,0.2-2,0.6-2.7c0.4-0.7,1.2-1.3,2.4-1.7c1.2-0.4,2.9-0.6,5-0.6
				c0.9,0,1.9,0.1,3.1,0.2c1.1,0.1,2.1,0.2,3,0.4v2c-0.9-0.1-1.8-0.2-2.8-0.3c-1-0.1-1.9-0.1-2.6-0.1c-1.9,0-3.3,0.1-4.2,0.3
				c-0.9,0.2-1.5,0.5-1.8,1c-0.3,0.5-0.4,1.1-0.4,2c0,0.7,0.1,1.2,0.3,1.7c0.2,0.4,0.5,0.8,1.1,1.1c0.6,0.3,1.4,0.4,2.6,0.4h2.7v2.1
				h-2.7c-1.2,0-2.1,0.1-2.7,0.4c-0.6,0.2-1,0.6-1.1,1.1c-0.2,0.5-0.3,1.1-0.3,2c0,1,0.2,1.7,0.6,2.2c0.4,0.5,1,0.8,1.8,1
				c0.8,0.2,2,0.3,3.5,0.3c1.4,0,2.7-0.1,3.9-0.2v-8.7H390.6z"/>
			<path class="st3" d="M401,444.7v-19.3h12v2.2h-9.6v6.6h8.5v2.3h-8.5v8.1H401z"/>
			<path class="st3" d="M426.3,442.7h-0.2c-0.3,0.7-0.8,1.3-1.6,1.7c-0.7,0.4-1.8,0.6-3.2,0.6c-1.4,0-2.4-0.2-3.1-0.6
				c-0.7-0.4-1.2-1-1.4-1.8c-0.2-0.8-0.4-1.9-0.4-3.2v-8.9h2.3v8c0,1.3,0.1,2.3,0.2,2.9c0.2,0.6,0.5,0.9,0.9,1.1
				c0.5,0.2,1.3,0.3,2.4,0.3c1.2,0,2-0.2,2.6-0.6s0.9-0.9,1.1-1.6c0.1-0.7,0.2-1.6,0.2-2.8v-7.4h2.3v14.3h-2L426.3,442.7z"/>
			<path class="st3" d="M442.9,436.6c0-1.3-0.1-2.3-0.3-2.8c-0.2-0.6-0.5-0.9-1-1.1c-0.5-0.2-1.3-0.3-2.4-0.3c-1.2,0-2,0.2-2.6,0.6
				c-0.6,0.4-0.9,0.9-1,1.5c-0.1,0.7-0.2,1.6-0.2,2.8v7.4h-2.3v-14.3h2l0.1,2h0.2c0.3-0.7,0.8-1.3,1.6-1.7s1.8-0.6,3.2-0.6
				s2.4,0.2,3.1,0.6c0.7,0.4,1.2,1,1.4,1.8c0.2,0.8,0.4,1.9,0.4,3.2v8.9h-2.3V436.6z"/>
			<path class="st3" d="M451.5,444.3c-0.7-0.4-1.3-1.2-1.6-2.2c-0.3-1-0.5-2.5-0.5-4.5c0-2,0.1-3.5,0.4-4.5c0.3-1,0.8-1.8,1.6-2.2
				c0.7-0.4,1.8-0.6,3.2-0.6c1.2,0,2.2,0.1,3,0.4c0.8,0.3,1.3,0.8,1.7,1.6h0.2v-8.3h2.3v20.8h-2l-0.1-2h-0.2c-0.4,0.9-1,1.4-1.8,1.8
				c-0.8,0.3-1.8,0.5-2.9,0.5C453.3,444.9,452.2,444.7,451.5,444.3z M457.9,442.3c0.6-0.3,0.9-0.6,1.1-1.2c0.2-0.4,0.3-0.9,0.4-1.5
				c0-0.6,0.1-1.3,0.1-2.3c0-0.8,0-1.5-0.1-2c-0.1-0.5-0.2-1-0.3-1.3c-0.2-0.6-0.6-1-1.2-1.3c-0.6-0.3-1.3-0.4-2.3-0.4
				c-1.2,0-2,0.1-2.5,0.3c-0.5,0.2-0.9,0.7-1,1.4c-0.2,0.7-0.3,1.8-0.3,3.4c0,1.6,0.1,2.8,0.3,3.5c0.2,0.7,0.5,1.1,1,1.4
				c0.5,0.2,1.4,0.3,2.6,0.3C456.5,442.7,457.3,442.6,457.9,442.3z"/>
			<path class="st3" d="M468.7,444.8c-1-0.1-1.8-0.2-2.6-0.3v-2c1.8,0.2,3.5,0.3,5.1,0.3c1,0,1.7-0.1,2.1-0.2
				c0.4-0.1,0.7-0.3,0.9-0.6s0.2-0.7,0.2-1.3c0-0.6-0.1-1-0.2-1.2c-0.1-0.3-0.3-0.4-0.5-0.5c-0.2-0.1-0.6-0.2-1.2-0.2l-3.7-0.4
				c-0.9-0.1-1.5-0.3-2-0.6c-0.5-0.3-0.8-0.7-0.9-1.2s-0.3-1.2-0.3-2.1c0-1.2,0.2-2.1,0.7-2.7c0.4-0.6,1-1,1.8-1.2
				c0.8-0.2,1.8-0.3,3.1-0.3c0.7,0,1.5,0,2.4,0.1c0.8,0.1,1.5,0.2,2.1,0.3v2c-1.5-0.2-3-0.3-4.5-0.3c-0.9,0-1.5,0-2,0.1
				c-0.4,0.1-0.8,0.3-1,0.6c-0.2,0.3-0.4,0.7-0.4,1.4c0,0.5,0,0.9,0.1,1.2c0.1,0.2,0.3,0.4,0.5,0.5c0.2,0.1,0.6,0.2,1.1,0.2l3.9,0.4
				c0.8,0.1,1.4,0.2,1.9,0.5c0.4,0.2,0.7,0.6,0.9,1.1c0.2,0.5,0.3,1.3,0.3,2.4c0,1.2-0.2,2.1-0.6,2.7c-0.4,0.6-0.9,1-1.7,1.2
				c-0.7,0.2-1.7,0.3-3,0.3C470.5,444.9,469.7,444.9,468.7,444.8z"/>
		</g>
	</g>
	<g>
		<g>
			<path class="st3" d="M323.4,232.2L323.4,232.2l-2.7,0.1l-2.3-3.2c-0.9,0.1-2,0.2-3.4,0.2c-2.6,0-4.4-0.3-5.4-0.8s-1.7-1.4-2-2.6
				c-0.3-1.3-0.4-3.4-0.4-6.5s0.1-5.2,0.4-6.5s1-2.1,2-2.6c1.1-0.5,2.9-0.8,5.4-0.8c2.5,0,4.3,0.3,5.4,0.8c1.1,0.5,1.8,1.4,2,2.6
				c0.3,1.3,0.4,3.4,0.4,6.5c0,2,0,3.5-0.1,4.6c-0.1,1.1-0.3,2-0.6,2.7c-0.3,0.7-0.8,1.3-1.5,1.6L323.4,232.2z M316.9,227.1L314,223
				h2.6l2.7,3.6c0.4-0.2,0.7-0.6,0.8-1.1c0.2-0.5,0.3-1.2,0.4-2.1s0.1-2.2,0.1-3.9c0-2.7-0.1-4.5-0.3-5.4c-0.2-1-0.6-1.6-1.3-1.8
				s-2-0.4-3.9-0.4c-1.9,0-3.2,0.1-3.9,0.4c-0.7,0.2-1.1,0.8-1.3,1.8c-0.2,1-0.3,2.8-0.3,5.4s0.1,4.5,0.3,5.4c0.2,1,0.6,1.6,1.3,1.8
				c0.7,0.2,2,0.4,3.9,0.4H316.9z"/>
			<path class="st3" d="M337.3,227.1h-0.2c-0.3,0.7-0.8,1.3-1.6,1.7c-0.7,0.4-1.8,0.6-3.2,0.6c-1.4,0-2.4-0.2-3.1-0.6
				c-0.7-0.4-1.2-1-1.4-1.8c-0.2-0.8-0.4-1.9-0.4-3.2v-8.9h2.3v8c0,1.3,0.1,2.3,0.2,2.9c0.2,0.6,0.5,0.9,0.9,1.1
				c0.5,0.2,1.3,0.3,2.4,0.3c1.2,0,2-0.2,2.6-0.6s0.9-0.9,1.1-1.6c0.1-0.7,0.2-1.6,0.2-2.8v-7.4h2.3v14.3h-2L337.3,227.1z"/>
			<path class="st3" d="M344.5,228.4c-0.7-0.6-1.1-1.7-1.1-3.2c0-1.1,0.1-2,0.4-2.6c0.3-0.6,0.7-1.1,1.3-1.3
				c0.6-0.3,1.5-0.4,2.6-0.4c0.5,0,2.3,0,5.3,0.1v-0.8c0-1.1-0.1-1.9-0.3-2.4c-0.2-0.5-0.6-0.8-1.2-0.9c-0.6-0.1-1.5-0.2-2.9-0.2
				c-0.6,0-1.3,0-2.3,0.1c-0.9,0.1-1.6,0.1-2.1,0.2v-2c1.5-0.3,3.2-0.4,5.2-0.4c1.7,0,2.9,0.2,3.8,0.5c0.8,0.3,1.4,0.9,1.7,1.7
				s0.4,1.9,0.4,3.4v8.9h-2l-0.1-2H353c-0.4,0.9-1,1.5-1.9,1.8s-1.9,0.4-3.1,0.4C346.4,229.3,345.2,229,344.5,228.4z M351.2,227
				c0.6-0.2,1-0.5,1.3-1c0.4-0.7,0.6-1.6,0.6-2.8v-0.6h-4.8c-0.8,0-1.4,0.1-1.7,0.2c-0.4,0.1-0.6,0.3-0.8,0.7
				c-0.1,0.3-0.2,0.8-0.2,1.5c0,0.7,0.1,1.2,0.3,1.5c0.2,0.3,0.5,0.5,0.9,0.7c0.5,0.1,1.2,0.2,2.1,0.2
				C349.9,227.3,350.6,227.2,351.2,227z"/>
			<path class="st3" d="M369.9,221c0-1.3-0.1-2.3-0.3-2.8c-0.2-0.6-0.5-0.9-1-1.1c-0.5-0.2-1.3-0.3-2.4-0.3c-1.2,0-2,0.2-2.6,0.6
				c-0.6,0.4-0.9,0.9-1,1.5c-0.1,0.7-0.2,1.6-0.2,2.8v7.4h-2.3v-14.3h2l0.1,2h0.2c0.3-0.7,0.8-1.3,1.6-1.7s1.8-0.6,3.2-0.6
				s2.4,0.2,3.1,0.6c0.7,0.4,1.2,1,1.4,1.8c0.2,0.8,0.4,1.9,0.4,3.2v8.9h-2.3V221z"/>
			<path class="st3" d="M378.2,229.1v-12.2h-2.9v-2.1h2.9v-4.1h2.3v4.1h3.4v2.1h-3.4v12.2H378.2z"/>
			<path class="st3" d="M388.3,228.7c-0.9-0.4-1.4-1.1-1.6-2c-0.2-1-0.4-2.5-0.4-4.7c0-2.2,0.1-3.8,0.4-4.7c0.2-1,0.8-1.6,1.6-2
				c0.9-0.4,2.3-0.6,4.3-0.6c2,0,3.4,0.2,4.3,0.6c0.9,0.4,1.4,1.1,1.6,2c0.2,1,0.4,2.5,0.4,4.7c0,2.2-0.1,3.8-0.4,4.7
				c-0.2,1-0.8,1.6-1.6,2c-0.9,0.4-2.3,0.6-4.3,0.6C390.6,229.3,389.2,229.1,388.3,228.7z M395.4,226.9c0.5-0.2,0.8-0.7,1-1.3
				c0.1-0.6,0.2-1.8,0.2-3.6s-0.1-3-0.2-3.6c-0.1-0.6-0.4-1.1-1-1.3c-0.5-0.2-1.5-0.4-2.8-0.4s-2.3,0.1-2.8,0.4
				c-0.5,0.2-0.9,0.7-1,1.3c-0.1,0.6-0.2,1.8-0.2,3.6s0.1,3,0.2,3.6c0.1,0.6,0.4,1.1,1,1.3c0.5,0.2,1.5,0.4,2.8,0.4
				S394.9,227.1,395.4,226.9z"/>
			<path class="st3" d="M403.1,214.8h2l0.1,2h0.2c0.4-0.9,1-1.4,1.8-1.8c0.8-0.3,1.8-0.5,2.9-0.5c1.4,0,2.5,0.2,3.2,0.6
				c0.7,0.4,1.3,1.2,1.6,2.2s0.5,2.5,0.5,4.5c0,2-0.2,3.5-0.5,4.5c-0.3,1-0.8,1.8-1.6,2.2c-0.7,0.4-1.8,0.6-3.2,0.6
				c-1.2,0-2.2-0.1-3-0.4c-0.8-0.3-1.3-0.8-1.7-1.6h-0.1v7.4h-2.3V214.8z M411.8,226.8c0.5-0.2,0.9-0.7,1-1.4
				c0.2-0.7,0.3-1.8,0.3-3.4s-0.1-2.8-0.3-3.4c-0.2-0.7-0.5-1.2-1-1.4c-0.5-0.2-1.4-0.4-2.6-0.4c-1,0-1.7,0.1-2.3,0.4
				s-1,0.7-1.2,1.2c-0.2,0.4-0.3,0.9-0.3,1.4c0,0.5-0.1,1.3-0.1,2.2c0,0.9,0,1.6,0.1,2.2c0,0.5,0.1,1,0.3,1.3c0.2,0.6,0.6,1,1.2,1.3
				s1.3,0.4,2.3,0.4C410.4,227.1,411.3,227,411.8,226.8z"/>
			<path class="st3" d="M419.5,210.9v-2.6h2.4v2.6H419.5z M419.6,229.1v-14.3h2.3v14.3H419.6z"/>
			<path class="st3" d="M427,228.4c-0.7-0.6-1.1-1.7-1.1-3.2c0-1.1,0.1-2,0.4-2.6c0.3-0.6,0.7-1.1,1.3-1.3c0.6-0.3,1.5-0.4,2.6-0.4
				c0.5,0,2.3,0,5.3,0.1v-0.8c0-1.1-0.1-1.9-0.3-2.4c-0.2-0.5-0.6-0.8-1.2-0.9c-0.6-0.1-1.5-0.2-2.9-0.2c-0.6,0-1.3,0-2.3,0.1
				c-0.9,0.1-1.6,0.1-2.1,0.2v-2c1.5-0.3,3.2-0.4,5.2-0.4c1.7,0,2.9,0.2,3.8,0.5c0.8,0.3,1.4,0.9,1.7,1.7s0.4,1.9,0.4,3.4v8.9h-2
				l-0.1-2h-0.2c-0.4,0.9-1,1.5-1.9,1.8s-1.9,0.4-3.1,0.4C428.9,229.3,427.7,229,427,228.4z M433.7,227c0.6-0.2,1-0.5,1.3-1
				c0.4-0.7,0.6-1.6,0.6-2.8v-0.6h-4.8c-0.8,0-1.4,0.1-1.7,0.2c-0.4,0.1-0.6,0.3-0.8,0.7c-0.1,0.3-0.2,0.8-0.2,1.5
				c0,0.7,0.1,1.2,0.3,1.5c0.2,0.3,0.5,0.5,0.9,0.7c0.5,0.1,1.2,0.2,2.1,0.2C432.3,227.3,433.1,227.2,433.7,227z"/>
			<path class="st3" d="M452.4,221c0-1.3-0.1-2.3-0.3-2.8c-0.2-0.6-0.5-0.9-1-1.1c-0.5-0.2-1.3-0.3-2.4-0.3c-1.2,0-2,0.2-2.6,0.6
				c-0.6,0.4-0.9,0.9-1,1.5c-0.1,0.7-0.2,1.6-0.2,2.8v7.4h-2.3v-14.3h2l0.1,2h0.2c0.3-0.7,0.8-1.3,1.6-1.7s1.8-0.6,3.2-0.6
				s2.4,0.2,3.1,0.6c0.7,0.4,1.2,1,1.4,1.8c0.2,0.8,0.4,1.9,0.4,3.2v8.9h-2.3V221z"/>
			<path class="st3" d="M307.4,265.8L307.4,265.8l-2.7,0.1l-2.3-3.2c-0.9,0.1-2,0.2-3.4,0.2c-2.6,0-4.4-0.3-5.4-0.8s-1.7-1.4-2-2.6
				c-0.3-1.3-0.4-3.4-0.4-6.5s0.1-5.2,0.4-6.5s1-2.1,2-2.6c1.1-0.5,2.9-0.8,5.4-0.8c2.5,0,4.3,0.3,5.4,0.8c1.1,0.5,1.8,1.4,2,2.6
				c0.3,1.3,0.4,3.4,0.4,6.5c0,2,0,3.5-0.1,4.6c-0.1,1.1-0.3,2-0.6,2.7c-0.3,0.7-0.8,1.3-1.5,1.6L307.4,265.8z M300.9,260.7
				l-2.9-4.1h2.6l2.7,3.6c0.4-0.2,0.7-0.6,0.8-1.1c0.2-0.5,0.3-1.2,0.4-2.1s0.1-2.2,0.1-3.9c0-2.7-0.1-4.5-0.3-5.4
				c-0.2-1-0.6-1.6-1.3-1.8s-2-0.4-3.9-0.4c-1.9,0-3.2,0.1-3.9,0.4c-0.7,0.2-1.1,0.8-1.3,1.8c-0.2,1-0.3,2.8-0.3,5.4
				s0.1,4.5,0.3,5.4c0.2,1,0.6,1.6,1.3,1.8c0.7,0.2,2,0.4,3.9,0.4H300.9z"/>
			<path class="st3" d="M321.3,260.7h-0.2c-0.3,0.7-0.8,1.3-1.6,1.7c-0.7,0.4-1.8,0.6-3.2,0.6c-1.4,0-2.4-0.2-3.1-0.6
				c-0.7-0.4-1.2-1-1.4-1.8c-0.2-0.8-0.4-1.9-0.4-3.2v-8.9h2.3v8c0,1.3,0.1,2.3,0.2,2.9c0.2,0.6,0.5,0.9,0.9,1.1
				c0.5,0.2,1.3,0.3,2.4,0.3c1.2,0,2-0.2,2.6-0.6s0.9-0.9,1.1-1.6c0.1-0.7,0.2-1.6,0.2-2.8v-7.4h2.3v14.3h-2L321.3,260.7z"/>
			<path class="st3" d="M328.5,262c-0.7-0.6-1.1-1.7-1.1-3.2c0-1.1,0.1-2,0.4-2.6c0.3-0.6,0.7-1.1,1.3-1.3c0.6-0.3,1.5-0.4,2.6-0.4
				c0.5,0,2.3,0,5.3,0.1v-0.8c0-1.1-0.1-1.9-0.3-2.4c-0.2-0.5-0.6-0.8-1.2-0.9c-0.6-0.1-1.5-0.2-2.9-0.2c-0.6,0-1.3,0-2.3,0.1
				c-0.9,0.1-1.6,0.1-2.1,0.2v-2c1.5-0.3,3.2-0.4,5.2-0.4c1.7,0,2.9,0.2,3.8,0.5c0.8,0.3,1.4,0.9,1.7,1.7s0.4,1.9,0.4,3.4v8.9h-2
				l-0.1-2H337c-0.4,0.9-1,1.5-1.9,1.8s-1.9,0.4-3.1,0.4C330.4,262.9,329.2,262.6,328.5,262z M335.2,260.6c0.6-0.2,1-0.5,1.3-1
				c0.4-0.7,0.6-1.6,0.6-2.8v-0.6h-4.8c-0.8,0-1.4,0.1-1.7,0.2c-0.4,0.1-0.6,0.3-0.8,0.7c-0.1,0.3-0.2,0.8-0.2,1.5
				c0,0.7,0.1,1.2,0.3,1.5c0.2,0.3,0.5,0.5,0.9,0.7c0.5,0.1,1.2,0.2,2.1,0.2C333.9,260.9,334.6,260.8,335.2,260.6z"/>
			<path class="st3" d="M353.9,254.6c0-1.3-0.1-2.3-0.3-2.8c-0.2-0.6-0.5-0.9-1-1.1c-0.5-0.2-1.3-0.3-2.4-0.3c-1.2,0-2,0.2-2.6,0.6
				c-0.6,0.4-0.9,0.9-1,1.5c-0.1,0.7-0.2,1.6-0.2,2.8v7.4h-2.3v-14.3h2l0.1,2h0.2c0.3-0.7,0.8-1.3,1.6-1.7s1.8-0.6,3.2-0.6
				s2.4,0.2,3.1,0.6c0.7,0.4,1.2,1,1.4,1.8c0.2,0.8,0.4,1.9,0.4,3.2v8.9h-2.3V254.6z"/>
			<path class="st3" d="M362.2,262.7v-12.2h-2.9v-2.1h2.9v-4.1h2.3v4.1h3.4v2.1h-3.4v12.2H362.2z"/>
			<path class="st3" d="M381,262.8c-0.9,0.1-1.7,0.1-2.4,0.1c-2.3,0-4-0.3-5.1-0.8c-1.1-0.5-1.8-1.4-2.1-2.8
				c-0.4-1.3-0.5-3.4-0.5-6.3c0-2.9,0.2-5,0.5-6.3c0.4-1.3,1.1-2.3,2.1-2.8c1.1-0.5,2.8-0.8,5.1-0.8c0.8,0,1.6,0,2.4,0.1
				c0.8,0.1,1.5,0.2,2.1,0.3v2.1c-1.4-0.2-2.7-0.3-3.9-0.3c-2,0-3.3,0.1-4.1,0.4s-1.3,0.9-1.5,1.9c-0.2,1-0.4,2.7-0.4,5.2
				s0.1,4.2,0.4,5.2c0.2,1,0.8,1.6,1.5,1.9s2.1,0.4,4.1,0.4c1.4,0,2.8-0.1,4-0.3v2.2C382.5,262.6,381.8,262.7,381,262.8z"/>
			<path class="st3" d="M388.5,262.3c-0.9-0.4-1.4-1.1-1.6-2c-0.2-1-0.4-2.5-0.4-4.7c0-2.2,0.1-3.8,0.4-4.7c0.2-1,0.8-1.6,1.6-2
				c0.9-0.4,2.3-0.6,4.3-0.6c2,0,3.4,0.2,4.3,0.6c0.9,0.4,1.4,1.1,1.6,2c0.2,1,0.4,2.5,0.4,4.7c0,2.2-0.1,3.8-0.4,4.7
				c-0.2,1-0.8,1.6-1.6,2c-0.9,0.4-2.3,0.6-4.3,0.6C390.8,262.9,389.4,262.7,388.5,262.3z M395.6,260.5c0.5-0.2,0.8-0.7,1-1.3
				c0.1-0.6,0.2-1.8,0.2-3.6s-0.1-3-0.2-3.6c-0.1-0.6-0.4-1.1-1-1.3c-0.5-0.2-1.5-0.4-2.8-0.4s-2.3,0.1-2.8,0.4
				c-0.5,0.2-0.9,0.7-1,1.3c-0.1,0.6-0.2,1.8-0.2,3.6s0.1,3,0.2,3.6c0.1,0.6,0.4,1.1,1,1.3c0.5,0.2,1.5,0.4,2.8,0.4
				S395.1,260.7,395.6,260.5z"/>
			<path class="st3" d="M413,254.6c0-1.3-0.1-2.3-0.3-2.8c-0.2-0.6-0.5-0.9-1-1.1c-0.5-0.2-1.3-0.3-2.4-0.3c-1.2,0-2,0.2-2.6,0.6
				c-0.6,0.4-0.9,0.9-1,1.5c-0.1,0.7-0.2,1.6-0.2,2.8v7.4h-2.3v-14.3h2l0.1,2h0.2c0.3-0.7,0.8-1.3,1.6-1.7s1.8-0.6,3.2-0.6
				s2.4,0.2,3.1,0.6c0.7,0.4,1.2,1,1.4,1.8c0.2,0.8,0.4,1.9,0.4,3.2v8.9H413V254.6z"/>
			<path class="st3" d="M429.7,254.6c0-1.3-0.1-2.3-0.3-2.8c-0.2-0.6-0.5-0.9-1-1.1c-0.5-0.2-1.3-0.3-2.4-0.3c-1.2,0-2,0.2-2.6,0.6
				c-0.6,0.4-0.9,0.9-1,1.5c-0.1,0.7-0.2,1.6-0.2,2.8v7.4h-2.3v-14.3h2l0.1,2h0.2c0.3-0.7,0.8-1.3,1.6-1.7s1.8-0.6,3.2-0.6
				s2.4,0.2,3.1,0.6c0.7,0.4,1.2,1,1.4,1.8c0.2,0.8,0.4,1.9,0.4,3.2v8.9h-2.3V254.6z"/>
			<path class="st3" d="M448.3,256.3h-9.8c0,1.4,0.1,2.3,0.3,2.9c0.2,0.6,0.6,1,1.2,1.2s1.7,0.4,3.1,0.4c1.4,0,3-0.1,4.6-0.3v2
				c-0.6,0.1-1.4,0.2-2.3,0.3c-1,0.1-1.9,0.1-2.7,0.1c-1.9,0-3.3-0.2-4.2-0.7c-0.9-0.4-1.5-1.2-1.8-2.2c-0.3-1-0.4-2.5-0.4-4.5
				c0-2,0.1-3.5,0.4-4.5c0.3-1,0.8-1.7,1.7-2.2c0.9-0.5,2.3-0.7,4.2-0.7c1.8,0,3.1,0.2,3.9,0.7c0.8,0.5,1.3,1.2,1.5,2.2
				c0.2,1,0.3,2.5,0.3,4.5V256.3z M439.9,250.6c-0.5,0.2-0.9,0.6-1.1,1.2s-0.3,1.5-0.3,2.8h7.6v-0.2c0-1.2-0.1-2.1-0.3-2.7
				c-0.2-0.6-0.6-1-1-1.1c-0.5-0.2-1.2-0.3-2.2-0.3C441.3,250.2,440.4,250.4,439.9,250.6z"/>
			<path class="st3" d="M459.8,262.8c-0.7,0.1-1.4,0.1-2.1,0.1c-1.8,0-3-0.3-3.9-0.8c-0.8-0.5-1.3-1.3-1.6-2.2
				c-0.2-1-0.4-2.4-0.4-4.4c0-1.9,0.1-3.3,0.4-4.4c0.3-1,0.8-1.8,1.7-2.3c0.8-0.5,2-0.7,3.6-0.7c0.6,0,1.3,0,2,0.1
				c0.7,0.1,1.3,0.2,1.8,0.3v2c-1.1-0.2-2.2-0.3-3.3-0.3c-1.2,0-2.1,0.1-2.6,0.4c-0.6,0.3-0.9,0.8-1.1,1.5c-0.2,0.7-0.3,1.8-0.3,3.4
				c0,1.6,0.1,2.7,0.3,3.4c0.2,0.7,0.6,1.2,1.1,1.5c0.6,0.3,1.4,0.4,2.7,0.4c0.9,0,2-0.1,3.3-0.3v2
				C461.1,262.6,460.5,262.7,459.8,262.8z"/>
			<path class="st3" d="M466.6,262.7v-12.2h-2.9v-2.1h2.9v-4.1h2.3v4.1h3.4v2.1h-3.4v12.2H466.6z"/>
			<path class="st3" d="M341,296.3l-10.2-14.7h-0.1v14.7h-2.3V277h2.5l10,14.4h0.1V277h2.3v19.3H341z"/>
			<path class="st3" d="M358.3,294.3h-0.2c-0.3,0.7-0.8,1.3-1.6,1.7c-0.7,0.4-1.8,0.6-3.2,0.6c-1.4,0-2.4-0.2-3.1-0.6
				c-0.7-0.4-1.2-1-1.4-1.8c-0.2-0.8-0.4-1.9-0.4-3.2V282h2.3v8c0,1.3,0.1,2.3,0.2,2.9c0.2,0.6,0.5,0.9,0.9,1.1
				c0.5,0.2,1.3,0.3,2.4,0.3c1.2,0,2-0.2,2.6-0.6s0.9-0.9,1.1-1.6c0.1-0.7,0.2-1.6,0.2-2.8V282h2.3v14.3h-2L358.3,294.3z"/>
			<path class="st3" d="M382.9,288.2c0-1.3-0.1-2.3-0.2-2.9c-0.1-0.6-0.4-0.9-0.8-1.1s-1.1-0.3-2.1-0.3c-1,0-1.8,0.2-2.3,0.5
				c-0.5,0.4-0.8,0.9-0.9,1.5c-0.1,0.7-0.2,1.6-0.2,2.9v7.4h-2.3v-8c0-1.3-0.1-2.3-0.2-2.9c-0.1-0.6-0.4-0.9-0.8-1.1
				S372,284,371,284c-1,0-1.8,0.2-2.3,0.5c-0.5,0.4-0.8,0.9-0.9,1.5c-0.1,0.7-0.2,1.6-0.2,2.8v7.4h-2.3V282h2l0.1,2h0.2
				c0.3-0.7,0.8-1.3,1.4-1.7c0.7-0.4,1.6-0.6,2.9-0.6c1.2,0,2.2,0.2,2.8,0.5c0.6,0.4,1.1,0.9,1.3,1.7h0.2c0.6-1.5,2.1-2.2,4.5-2.2
				c1.3,0,2.2,0.2,2.8,0.6c0.6,0.4,1.1,1,1.3,1.8c0.2,0.8,0.3,1.9,0.3,3.2v8.9h-2.3V288.2z"/>
			<path class="st3" d="M401.5,289.9h-9.8c0,1.4,0.1,2.3,0.3,2.9c0.2,0.6,0.6,1,1.2,1.2s1.7,0.4,3.1,0.4c1.4,0,3-0.1,4.6-0.3v2
				c-0.6,0.1-1.4,0.2-2.3,0.3c-1,0.1-1.9,0.1-2.7,0.1c-1.9,0-3.3-0.2-4.2-0.7c-0.9-0.4-1.5-1.2-1.8-2.2c-0.3-1-0.4-2.5-0.4-4.5
				c0-2,0.1-3.5,0.4-4.5c0.3-1,0.8-1.7,1.7-2.2c0.9-0.5,2.3-0.7,4.2-0.7c1.8,0,3.1,0.2,3.9,0.7c0.8,0.5,1.3,1.2,1.5,2.2
				c0.2,1,0.3,2.5,0.3,4.5V289.9z M393.1,284.2c-0.5,0.2-0.9,0.6-1.1,1.2s-0.3,1.5-0.3,2.8h7.6V288c0-1.2-0.1-2.1-0.3-2.7
				c-0.2-0.6-0.6-1-1-1.1c-0.5-0.2-1.2-0.3-2.2-0.3C394.5,283.8,393.6,284,393.1,284.2z"/>
			<path class="st3" d="M405.7,282h2l0.1,2.7h0.2c0.3-1.1,0.9-1.9,1.7-2.3c0.8-0.4,1.8-0.6,3.1-0.6v2.4c-1.3,0-2.3,0.2-3,0.6
				c-0.7,0.4-1.2,1-1.4,1.8c-0.3,0.8-0.4,1.9-0.4,3.3v6.4h-2.3V282z"/>
			<path class="st3" d="M416,295.6c-0.7-0.6-1.1-1.7-1.1-3.2c0-1.1,0.1-2,0.4-2.6c0.3-0.6,0.7-1.1,1.3-1.3c0.6-0.3,1.5-0.4,2.6-0.4
				c0.5,0,2.3,0,5.3,0.1v-0.8c0-1.1-0.1-1.9-0.3-2.4c-0.2-0.5-0.6-0.8-1.2-0.9c-0.6-0.1-1.5-0.2-2.9-0.2c-0.6,0-1.3,0-2.3,0.1
				c-0.9,0.1-1.6,0.1-2.1,0.2v-2c1.5-0.3,3.2-0.4,5.2-0.4c1.7,0,2.9,0.2,3.8,0.5c0.8,0.3,1.4,0.9,1.7,1.7s0.4,1.9,0.4,3.4v8.9h-2
				l-0.1-2h-0.2c-0.4,0.9-1,1.5-1.9,1.8s-1.9,0.4-3.1,0.4C417.9,296.5,416.7,296.2,416,295.6z M422.7,294.2c0.6-0.2,1-0.5,1.3-1
				c0.4-0.7,0.6-1.6,0.6-2.8v-0.6h-4.8c-0.8,0-1.4,0.1-1.7,0.2c-0.4,0.1-0.6,0.3-0.8,0.7c-0.1,0.3-0.2,0.8-0.2,1.5
				c0,0.7,0.1,1.2,0.3,1.5c0.2,0.3,0.5,0.5,0.9,0.7c0.5,0.1,1.2,0.2,2.1,0.2C421.3,294.5,422.1,294.4,422.7,294.2z"/>
			<path class="st3" d="M431.6,278.1v-2.6h2.4v2.6H431.6z M431.7,296.3V282h2.3v14.3H431.7z"/>
		</g>
	</g>
	<g>
		<g>
			<path class="st3" d="M533.6,136.2c-1.3-0.1-2.4-0.2-3.3-0.3v-2.2c2.4,0.2,4.5,0.4,6.1,0.4c1,0,1.8,0,2.4-0.1
				c0.6-0.1,1.1-0.2,1.5-0.5c0.4-0.2,0.6-0.6,0.7-1c0.1-0.4,0.2-1,0.2-1.8c0-0.9,0-1.5-0.1-1.9c-0.1-0.4-0.3-0.6-0.7-0.8
				c-0.3-0.2-0.9-0.3-1.8-0.4l-4.8-0.5c-1.2-0.1-2-0.4-2.6-0.8c-0.6-0.4-1-1-1.2-1.7c-0.2-0.7-0.3-1.6-0.3-2.7
				c0-1.5,0.3-2.7,0.8-3.5c0.5-0.8,1.3-1.3,2.2-1.6c1-0.3,2.3-0.4,3.9-0.4c1.1,0,2.2,0,3.3,0.1c1.1,0.1,2,0.2,2.7,0.3v2.1
				c-0.7-0.1-1.6-0.2-2.6-0.3c-1-0.1-2-0.1-2.9-0.1c-1,0-1.9,0-2.5,0.1c-0.6,0.1-1.1,0.3-1.5,0.5c-0.4,0.2-0.6,0.5-0.8,0.9
				c-0.1,0.4-0.2,0.9-0.2,1.6c0,0.8,0.1,1.3,0.2,1.7c0.1,0.3,0.3,0.6,0.6,0.8c0.3,0.2,0.8,0.3,1.6,0.3l4.7,0.5
				c1.1,0.1,2,0.3,2.6,0.6c0.6,0.3,1.1,0.8,1.3,1.5c0.3,0.7,0.4,1.7,0.4,3.2c0,1.7-0.3,3-0.8,3.8c-0.5,0.8-1.2,1.4-2.1,1.6
				c-0.9,0.2-2.1,0.3-3.6,0.3C536,136.3,534.9,136.3,533.6,136.2z"/>
			<path class="st3" d="M557.6,134.1h-0.2c-0.3,0.7-0.8,1.3-1.6,1.7c-0.7,0.4-1.8,0.6-3.2,0.6c-1.4,0-2.4-0.2-3.1-0.6
				c-0.7-0.4-1.2-1-1.4-1.8c-0.2-0.8-0.4-1.9-0.4-3.2v-8.9h2.3v8c0,1.3,0.1,2.3,0.2,2.9c0.2,0.6,0.5,0.9,0.9,1.1
				c0.5,0.2,1.3,0.3,2.4,0.3c1.2,0,2-0.2,2.6-0.6s0.9-0.9,1.1-1.6c0.1-0.7,0.2-1.6,0.2-2.8v-7.4h2.3v14.3h-2L557.6,134.1z"/>
			<path class="st3" d="M564.6,121.8h2l0.1,2h0.2c0.4-0.9,1-1.4,1.8-1.8c0.8-0.3,1.8-0.5,2.9-0.5c1.4,0,2.5,0.2,3.2,0.6
				c0.7,0.4,1.3,1.2,1.6,2.2s0.5,2.5,0.5,4.5c0,2-0.2,3.5-0.5,4.5c-0.3,1-0.8,1.8-1.6,2.2c-0.7,0.4-1.8,0.6-3.2,0.6
				c-1.2,0-2.2-0.1-3-0.4c-0.8-0.3-1.3-0.8-1.7-1.6h-0.1v7.4h-2.3V121.8z M573.3,133.8c0.5-0.2,0.9-0.7,1-1.4
				c0.2-0.7,0.3-1.8,0.3-3.4s-0.1-2.8-0.3-3.4c-0.2-0.7-0.5-1.2-1-1.4c-0.5-0.2-1.4-0.4-2.6-0.4c-1,0-1.7,0.1-2.3,0.4
				s-1,0.7-1.2,1.2c-0.2,0.4-0.3,0.9-0.3,1.4c0,0.5-0.1,1.3-0.1,2.2c0,0.9,0,1.6,0.1,2.2c0,0.5,0.1,1,0.3,1.3c0.2,0.6,0.6,1,1.2,1.3
				s1.3,0.4,2.3,0.4C572,134.1,572.8,134,573.3,133.8z"/>
			<path class="st3" d="M592.6,129.7h-9.8c0,1.4,0.1,2.3,0.3,2.9c0.2,0.6,0.6,1,1.2,1.2s1.7,0.4,3.1,0.4c1.4,0,3-0.1,4.6-0.3v2
				c-0.6,0.1-1.4,0.2-2.3,0.3c-1,0.1-1.9,0.1-2.7,0.1c-1.9,0-3.3-0.2-4.2-0.7c-0.9-0.4-1.5-1.2-1.8-2.2c-0.3-1-0.4-2.5-0.4-4.5
				c0-2,0.1-3.5,0.4-4.5c0.3-1,0.8-1.7,1.7-2.2c0.9-0.5,2.3-0.7,4.2-0.7c1.8,0,3.1,0.2,3.9,0.7c0.8,0.5,1.3,1.2,1.5,2.2
				c0.2,1,0.3,2.5,0.3,4.5V129.7z M584.2,124c-0.5,0.2-0.9,0.6-1.1,1.2s-0.3,1.5-0.3,2.8h7.6v-0.2c0-1.2-0.1-2.1-0.3-2.7
				c-0.2-0.6-0.6-1-1-1.1c-0.5-0.2-1.2-0.3-2.2-0.3C585.6,123.6,584.7,123.8,584.2,124z"/>
			<path class="st3" d="M596.9,121.8h2l0.1,2.7h0.2c0.3-1.1,0.9-1.9,1.7-2.3c0.8-0.4,1.8-0.6,3.1-0.6v2.4c-1.3,0-2.3,0.2-3,0.6
				c-0.7,0.4-1.2,1-1.4,1.8c-0.3,0.8-0.4,1.9-0.4,3.3v6.4h-2.3V121.8z"/>
			<path class="st3" d="M607.1,135.4c-0.7-0.6-1.1-1.7-1.1-3.2c0-1.1,0.1-2,0.4-2.6c0.3-0.6,0.7-1.1,1.3-1.3
				c0.6-0.3,1.5-0.4,2.6-0.4c0.5,0,2.3,0,5.3,0.1v-0.8c0-1.1-0.1-1.9-0.3-2.4c-0.2-0.5-0.6-0.8-1.2-0.9c-0.6-0.1-1.5-0.2-2.9-0.2
				c-0.6,0-1.3,0-2.3,0.1c-0.9,0.1-1.6,0.1-2.1,0.2v-2c1.5-0.3,3.2-0.4,5.2-0.4c1.7,0,2.9,0.2,3.8,0.5c0.8,0.3,1.4,0.9,1.7,1.7
				s0.4,1.9,0.4,3.4v8.9h-2l-0.1-2h-0.2c-0.4,0.9-1,1.5-1.9,1.8s-1.9,0.4-3.1,0.4C609,136.3,607.8,136,607.1,135.4z M613.8,134
				c0.6-0.2,1-0.5,1.3-1c0.4-0.7,0.6-1.6,0.6-2.8v-0.6h-4.8c-0.8,0-1.4,0.1-1.7,0.2c-0.4,0.1-0.6,0.3-0.8,0.7
				c-0.1,0.3-0.2,0.8-0.2,1.5c0,0.7,0.1,1.2,0.3,1.5c0.2,0.3,0.5,0.5,0.9,0.7c0.5,0.1,1.2,0.2,2.1,0.2
				C612.5,134.3,613.2,134.2,613.8,134z"/>
			<path class="st3" d="M622.8,136.1v-20.8h2.3v20.8H622.8z"/>
			<path class="st3" d="M630.1,141.6v-2c1.8,0.1,3.3,0.2,4.6,0.2c1.4,0,2.5-0.1,3.1-0.4s1.1-0.7,1.3-1.4c0.2-0.7,0.3-1.7,0.3-3.2
				v-0.6h-0.1c-0.4,0.7-0.9,1.2-1.7,1.6c-0.8,0.3-1.7,0.5-2.9,0.5c-1.4,0-2.5-0.2-3.3-0.6s-1.3-1.1-1.6-2.2c-0.3-1-0.4-2.5-0.4-4.5
				c0-2,0.2-3.5,0.5-4.5c0.3-1,0.8-1.8,1.6-2.2c0.7-0.4,1.8-0.6,3.2-0.6c1.1,0,2.1,0.2,2.9,0.5c0.8,0.3,1.4,0.9,1.8,1.8h0.2l0.1-2h2
				v12.5c0,2-0.1,3.5-0.4,4.6c-0.3,1-0.9,1.8-1.8,2.3c-0.9,0.5-2.3,0.7-4.2,0.7C633.2,141.8,631.5,141.8,630.1,141.6z M637.7,133.7
				c0.6-0.2,0.9-0.6,1.2-1.1c0.2-0.4,0.3-0.9,0.4-1.5c0.1-0.6,0.1-1.3,0.1-2.2c0-1,0-1.7-0.1-2.2c0-0.5-0.2-1-0.4-1.4
				c-0.2-0.6-0.6-1-1.2-1.2c-0.6-0.2-1.3-0.4-2.2-0.4c-1.2,0-2.1,0.1-2.6,0.4s-0.9,0.7-1,1.4c-0.2,0.7-0.3,1.8-0.3,3.4
				c0,1.6,0.1,2.7,0.3,3.4c0.2,0.7,0.5,1.1,1,1.4s1.4,0.3,2.6,0.3C636.4,134,637.2,133.9,637.7,133.7z"/>
			<path class="st3" d="M647.9,135.7c-0.9-0.4-1.4-1.1-1.6-2c-0.2-1-0.4-2.5-0.4-4.7c0-2.2,0.1-3.8,0.4-4.7c0.2-1,0.8-1.6,1.6-2
				c0.9-0.4,2.3-0.6,4.3-0.6c2,0,3.4,0.2,4.3,0.6c0.9,0.4,1.4,1.1,1.6,2c0.2,1,0.4,2.5,0.4,4.7c0,2.2-0.1,3.8-0.4,4.7
				c-0.2,1-0.8,1.6-1.6,2c-0.9,0.4-2.3,0.6-4.3,0.6C650.1,136.3,648.7,136.1,647.9,135.7z M655,133.9c0.5-0.2,0.8-0.7,1-1.3
				c0.1-0.6,0.2-1.8,0.2-3.6s-0.1-3-0.2-3.6c-0.1-0.6-0.4-1.1-1-1.3c-0.5-0.2-1.5-0.4-2.8-0.4s-2.3,0.1-2.8,0.4
				c-0.5,0.2-0.9,0.7-1,1.3c-0.1,0.6-0.2,1.8-0.2,3.6s0.1,3,0.2,3.6c0.1,0.6,0.4,1.1,1,1.3c0.5,0.2,1.5,0.4,2.8,0.4
				S654.4,134.1,655,133.9z"/>
			<path class="st3" d="M664.8,136.2c-1-0.1-1.8-0.2-2.6-0.3v-2c1.8,0.2,3.5,0.3,5.1,0.3c1,0,1.7-0.1,2.1-0.2
				c0.4-0.1,0.7-0.3,0.9-0.6s0.2-0.7,0.2-1.3c0-0.6-0.1-1-0.2-1.2c-0.1-0.3-0.3-0.4-0.5-0.5c-0.2-0.1-0.6-0.2-1.2-0.2l-3.7-0.4
				c-0.9-0.1-1.5-0.3-2-0.6c-0.5-0.3-0.8-0.7-0.9-1.2s-0.3-1.2-0.3-2.1c0-1.2,0.2-2.1,0.7-2.7c0.4-0.6,1-1,1.8-1.2
				c0.8-0.2,1.8-0.3,3.1-0.3c0.7,0,1.5,0,2.4,0.1c0.8,0.1,1.5,0.2,2.1,0.3v2c-1.5-0.2-3-0.3-4.5-0.3c-0.9,0-1.5,0-2,0.1
				c-0.4,0.1-0.8,0.3-1,0.6c-0.2,0.3-0.4,0.7-0.4,1.4c0,0.5,0,0.9,0.1,1.2c0.1,0.2,0.3,0.4,0.5,0.5c0.2,0.1,0.6,0.2,1.1,0.2l3.9,0.4
				c0.8,0.1,1.4,0.2,1.9,0.5c0.4,0.2,0.7,0.6,0.9,1.1c0.2,0.5,0.3,1.3,0.3,2.4c0,1.2-0.2,2.1-0.6,2.7c-0.4,0.6-0.9,1-1.7,1.2
				c-0.7,0.2-1.7,0.3-3,0.3C666.6,136.3,665.7,136.3,664.8,136.2z"/>
		</g>
	</g>
</g>
<g id="Text_Outlines_copy" class="st0">
	<path class="st4" d="M274.4,311.3"/>
	<g class="st5">
		<text transform="matrix(1 0 0 1 415 552.3)" class="st3 st6 st7">Knowledge Sharing</text>
	</g>
	<g class="st5">
		<text transform="matrix(4.489659e-011 -1 1 4.489659e-011 259.3 268.2707)" class="st3 st6 st7">Crowd Size</text>
	</g>
	<path class="st4" d="M274.4,311.3"/>
	<g class="st5">
		<text transform="matrix(1 0 0 1 302.7246 411.075)"><tspan x="0" y="0" class="st3 st6 st7">Investment</tspan><tspan x="-24" y="33.6" class="st3 st6 st7">Banks &amp; Funds</tspan></text>
	</g>
	<g class="st5">
		<text transform="matrix(1 0 0 1 299.897 229.0751)"><tspan x="0" y="0" class="st3 st6 st7">Quantopian </tspan><tspan x="-15.9" y="33.6" class="st3 st6 st7">QuantConnect</tspan><tspan x="20.6" y="67.2" class="st3 st6 st7">Numerai</tspan></text>
	</g>
	<g class="st5">
		<text transform="matrix(1 0 0 1 527.6826 136.0751)" class="st3 st6 st7">Superalgos</text>
	</g>
</g>
<g id="Axis_2_">
	<g id="XMLID_9_">
		<g id="XMLID_10_">
			<polyline id="XMLID_15_" class="st8" points="274.4,106.8 274.4,518.3 683.5,518.3 			"/>
			<g id="XMLID_13_">
				<path id="XMLID_14_" class="st3" d="M274.4,112.1l10.8,6.6l0.2-0.4l-7-17.6c-1.3-6.1-2.6-12.3-4-18.4
					c-1.4,6.1-2.7,12.3-4.1,18.4l-7,17.6l0.2,0.4L274.4,112.1z"/>
			</g>
			<g id="XMLID_11_">
				<path id="XMLID_12_" class="st3" d="M678.2,518.3l-6.6-10.8l0.4-0.2l17.6,7c6.1,1.4,12.3,2.7,18.4,4.1
					c-6.1,1.4-12.3,2.7-18.4,4.1l-17.6,7l-0.4-0.2L678.2,518.3z"/>
			</g>
		</g>
	</g>
</g>
</svg>
